<svg width="353" height="96" viewBox="0 0 353 96" fill="none" xmlns="http://www.w3.org/2000/svg">
<path d="M344.445 4.6639C348.827 8.16482 351.969 13.0392 352.692 19.6941C352.692 19.6977 352.693 19.7012 352.693 19.7048C352.765 20.4447 352.801 21.2063 352.796 21.9902C352.795 22.1888 352.793 22.3888 352.792 22.5902C352.74 30.0429 352.679 39.7266 352.644 54.3283C352.627 61.6106 352.589 68.2155 352.54 73.9902C352.478 81.7007 348.433 87.2984 344.958 90.1738C343.737 91.1276 342.53 92.3153 338.761 93.8878C336.865 94.6221 334.323 95.3596 330.887 95.3647C329.894 95.3625 328.827 95.3601 327.675 95.3576C325.083 95.3519 322.066 95.3453 318.535 95.3371C306.844 95.31 288.523 95.3184 271.641 95.3264C261.394 95.3312 251.676 95.3358 244.294 95.332C233.499 95.3264 223.083 95.3013 211.759 95.2739C201.389 95.2487 190.256 95.2216 177.376 95.2062C167.493 95.1944 157.891 95.0929 148.134 94.9794C146.892 94.965 145.645 94.9504 144.396 94.9357C135.786 94.8345 126.984 94.7309 117.465 94.6715C100.498 94.5658 86.9589 94.6095 71.9679 94.6579C66.1048 94.6768 60.0186 94.6965 53.4183 94.7082C44.8299 94.7234 33.1494 94.7236 20.8867 94.7202C18.15 94.7226 15.3814 94.1745 12.8317 93.0941C11.606 92.5764 10.4293 91.9386 9.32762 91.1963C9.32205 91.1926 9.31648 91.1888 9.31092 91.1851C3.47726 87.3192 0.0788771 80.4241 0.165819 73.9902C0.16642 67.4439 0.165012 61.3945 0.159503 56.2956C0.142449 40.5138 0.102149 34.5759 0.0684358 29.6235C0.0557628 27.7618 0.043928 26.0384 0.0347435 23.9837C0.031895 23.3464 0.0293375 22.6812 0.0270457 21.9902C-0.476966 14.4129 6.12044 3.15294 17.2346 1.43608C17.2791 1.42823 17.3236 1.42053 17.3681 1.41297C19.3114 1.08013 20.8983 1.23747 20.8867 1.36971C20.8727 1.51321 19.3081 1.58436 17.4193 1.91221C11.3484 2.90683 6.18432 6.84081 3.46328 11.42C3.42166 11.7188 2.75104 12.9834 2.12702 14.5705C1.59367 15.9441 0.739576 18.4203 0.747824 21.9902C0.785208 28.6032 0.856427 38.7215 0.951762 51.9556C0.973411 50.5653 0.99448 49.4009 1.01451 48.3805C1.03802 47.1827 1.05823 46.2652 1.07554 45.4763C1.11163 43.832 1.13545 42.738 1.15294 40.796C1.17264 36.3385 1.17688 29.3558 1.18091 21.9902C1.18094 21.9239 1.18131 21.8576 1.182 21.7914C1.19685 19.932 1.61346 18.4803 1.74209 18.5167C1.88047 18.5533 1.69257 20.0211 1.68219 21.8276C1.6819 21.863 1.6817 21.8985 1.6816 21.934C1.68154 21.9527 1.6815 21.9715 1.68149 21.9902C1.67748 29.3385 1.67336 36.6088 1.65222 41.2951C1.64683 42.4906 1.64044 43.5202 1.63464 44.2933C1.63 44.9114 1.62371 45.6829 1.6156 46.1116C1.61452 46.1685 1.61234 46.2771 1.60901 46.4066C1.60893 46.4087 1.60884 46.4109 1.60876 46.4131C1.60692 46.4854 1.59759 46.855 1.57727 47.2493C1.57316 47.3289 1.564 47.5021 1.54919 47.7031C1.54805 47.7549 1.54691 47.8068 1.54577 47.8586C1.52996 48.5816 1.51384 49.3193 1.49816 50.1178C1.43697 53.2353 1.35985 58.1734 1.27819 68.4567C1.26508 70.1069 1.25324 71.956 1.24261 73.9902C0.711728 81.5104 7.65734 93.6653 20.8867 93.7058C23.613 93.7073 26.4309 93.7081 29.3327 93.7081C27.9849 93.6978 26.634 93.6878 25.2844 93.6781C23.821 93.6677 22.3548 93.6576 20.8867 93.6479C18.9767 93.6356 17.0732 93.348 15.2505 92.7893C14.0242 92.4133 12.8514 91.9239 11.717 91.3139C9.89078 90.3316 8.21961 89.0542 6.78995 87.5502C5.82356 86.5343 4.96487 85.4131 4.23725 84.2153C4.23559 84.2126 4.23393 84.2099 4.23227 84.2072C3.22291 82.5446 2.46174 80.7282 1.98828 78.8233C1.82315 78.1581 1.69487 77.4911 1.60175 76.8237C1.47106 75.8854 1.40882 74.9473 1.41481 73.9902C1.42618 72.1974 1.43959 70.3574 1.4591 68.3465C1.4641 67.9683 1.47056 67.5575 1.47595 67.2509C1.48162 66.9214 1.4874 66.6043 1.49328 66.3045C1.49847 66.04 1.50375 65.7878 1.50866 65.546C1.50931 65.5136 1.50996 65.4812 1.51062 65.4488C1.51611 65.1782 1.52119 64.9196 1.526 64.6709C1.53079 64.4228 1.53541 64.1836 1.53942 63.9481C1.53942 63.946 1.53942 63.9438 1.53942 63.9416C1.54354 63.6956 1.54663 63.5088 1.55017 63.248C1.5546 62.9206 1.55801 62.6392 1.5614 62.2983C1.56469 61.9686 1.56762 61.6247 1.57019 61.2773C1.57275 60.9301 1.57499 60.5764 1.57702 60.2175C1.57906 59.8583 1.58095 59.4931 1.58264 59.1252C1.58432 58.7575 1.58579 58.3848 1.58728 58.0102C1.58876 57.6354 1.59025 57.2564 1.59167 56.8758C1.59497 55.9992 1.62271 55.1589 1.6698 54.5421C1.71689 53.9254 1.77917 53.582 1.84363 53.5859C1.9081 53.5902 1.97006 53.942 2.01649 54.5648C2.0629 55.1877 2.08982 56.0313 2.09217 56.9082C2.09281 57.1469 2.09352 57.3868 2.09413 57.6277C2.09449 57.7707 2.09476 57.9151 2.0951 58.0588C2.09604 58.4453 2.09708 58.8359 2.09779 59.2289C2.0985 59.6215 2.09896 60.0178 2.09926 60.4184C2.09955 60.8202 2.09964 61.2274 2.09926 61.6404C2.09887 62.0524 2.09804 62.4735 2.09657 62.9012C2.09518 63.3186 2.09276 63.7946 2.08973 64.2204C2.08761 64.5316 2.08397 64.9151 2.0807 65.2349C2.07728 65.5686 2.07345 65.8971 2.06947 66.2137C2.06548 66.5311 2.06125 66.838 2.05726 67.131C2.05685 67.1623 2.05645 67.1937 2.05604 67.225C2.05252 67.4841 2.04908 67.7341 2.04603 67.9705C2.04262 68.2347 2.03972 68.4848 2.03724 68.7225C2.03446 68.9842 2.03335 69.1432 2.03211 69.3383C2.02772 70.7482 2.02622 72.3401 2.02601 73.9902C2.02482 75.2823 2.16067 76.6109 2.429 77.882C2.50343 78.2359 2.58665 78.5816 2.67959 78.9249C3.17145 80.7414 3.93895 82.478 4.94507 84.0633C5.67586 85.2154 6.53309 86.2895 7.49679 87.2603C8.91421 88.6893 10.5661 89.8948 12.3632 90.8059C13.4795 91.3719 14.6303 91.8184 15.8329 92.1526C17.4746 92.6083 19.1744 92.8375 20.8867 92.8379C22.5455 92.8384 24.2063 92.8393 25.8678 92.8407C29.3389 92.8437 32.832 92.8489 36.3273 92.8578C39.8092 92.8666 43.4267 92.8799 46.9196 92.9C49.4875 92.9151 52.1204 92.9413 54.556 92.9684C55.8649 92.983 57.1467 92.9978 58.4098 93.0126C58.4141 93.0126 58.4184 93.0127 58.4227 93.0128C59.5313 93.0258 60.6258 93.0387 61.7126 93.0509C64.0425 93.0772 66.3311 93.1007 68.6197 93.1205C70.9046 93.1403 73.1796 93.1564 75.4716 93.1688C77.7464 93.1811 80.0594 93.19 82.3495 93.1954C84.6512 93.2009 86.911 93.2032 89.2858 93.203C92.4081 93.2025 95.5086 93.198 98.6918 93.1927C101.852 93.1873 105.037 93.1806 108.231 93.1737C109.347 93.1713 110.466 93.1691 111.585 93.1666C111.59 93.1666 111.594 93.1666 111.598 93.1666C113.67 93.1621 115.746 93.1576 117.825 93.1532C121.033 93.1465 124.251 93.1401 127.48 93.1349C130.709 93.1297 133.958 93.1257 137.224 93.1241C140.49 93.1227 143.844 93.1236 147.213 93.1317C150.219 93.1387 153.249 93.1481 156.211 93.1573C156.993 93.1598 157.775 93.1622 158.557 93.1647C162.269 93.1761 165.862 93.1852 169.416 93.1869C172.966 93.1888 176.515 93.1836 180.095 93.1727C183.665 93.1619 187.28 93.1457 190.924 93.1261C194.584 93.1064 198.197 93.0838 201.883 93.059C205.541 93.0342 209.216 93.0077 212.936 92.9796C215.003 92.9641 217.203 92.9498 219.282 92.9376C221.381 92.9253 223.466 92.9145 225.524 92.9044C226.36 92.9003 227.191 92.8964 228.017 92.8924C229.221 92.8867 230.414 92.881 231.589 92.8751C233.571 92.8651 235.505 92.8545 237.384 92.8419C239.262 92.8294 241.085 92.8148 242.846 92.797C244.668 92.7785 246.17 92.7597 247.967 92.7328C252.342 92.6809 255.054 92.665 258.066 92.6471C258.66 92.6436 259.266 92.6398 259.898 92.6358C263.51 92.6158 267.12 92.6008 270.681 92.5895C274.278 92.5781 277.818 92.5705 281.403 92.566C284.954 92.5616 288.531 92.5605 292.093 92.5624C295.65 92.5642 299.2 92.569 302.76 92.5768C306.317 92.5845 309.948 92.5956 313.433 92.609C315.448 92.6167 317.588 92.627 319.575 92.6376C321.009 92.6452 322.423 92.6531 323.808 92.661C324.374 92.6642 324.937 92.6674 325.494 92.6705C327.344 92.6809 329.145 92.6905 330.887 92.698C330.949 92.6983 331.011 92.6983 331.073 92.6979C332.765 92.689 334.392 92.4542 335.934 92.026C337.476 91.5971 338.929 90.9768 340.281 90.1849C341.677 89.3558 342.763 88.5326 343.991 87.3226C344.785 86.5295 345.492 85.6827 346.119 84.7852C347.058 83.4408 347.812 81.9866 348.366 80.4479C348.919 78.913 349.261 77.3242 349.395 75.7128C349.438 75.195 349.46 74.6463 349.459 74.123C349.459 74.0787 349.458 74.0345 349.458 73.9902C349.443 72.3049 349.428 70.6377 349.413 68.9722C349.397 67.2631 349.38 65.5697 349.362 63.8835C349.344 62.19 349.325 60.5251 349.305 58.8271C349.27 55.9411 349.254 53.1787 349.243 50.7597C349.232 48.3117 349.226 46.0242 349.221 43.7975C349.22 43.3805 349.219 42.9635 349.218 42.5464C349.213 40.7503 349.209 38.9839 349.204 37.2438C349.198 35.0991 349.19 32.9936 349.181 30.8812C349.173 28.7872 349.163 26.6725 349.15 24.59C349.145 23.7134 349.14 22.8528 349.135 21.9902C349.126 20.8867 349.023 19.7834 348.805 18.654C348.432 16.7405 347.755 14.8505 346.661 12.9802C345.578 11.1283 344.099 9.38398 342.323 7.96276C340.551 6.5401 338.484 5.4385 336.303 4.77C334.551 4.23038 332.715 3.96279 330.887 3.97055C330.388 3.97224 329.889 3.97381 329.393 3.97525C326.871 3.98262 324.364 3.98693 321.87 3.98893C319.381 3.99093 316.811 3.99059 314.405 3.98819C310.51 3.98433 306.632 3.97886 302.747 3.97281C298.883 3.96674 295.007 3.95996 291.14 3.95279C287.279 3.94562 283.414 3.93814 279.556 3.93033C275.695 3.92252 271.835 3.9145 267.981 3.9064C267.129 3.90461 266.276 3.90282 265.424 3.90103C262.422 3.89472 259.421 3.8884 256.433 3.88223C256.412 3.88215 256.391 3.88207 256.371 3.88199C252.524 3.87415 248.747 3.86652 244.933 3.86002C243.532 3.85769 242.187 3.8555 240.82 3.85367C239.451 3.85185 238.107 3.85037 236.752 3.84927C235.394 3.84819 234.045 3.84758 232.716 3.84756C231.373 3.84759 230.064 3.84815 228.743 3.84976C227.532 3.85117 226.329 3.85371 225.015 3.85635C224.895 3.8566 224.775 3.85684 224.656 3.85709C223.218 3.85999 221.583 3.86184 220.063 3.8605C216.037 3.85656 212.113 3.8547 208.119 3.85489C204.122 3.85507 200.134 3.85722 196.113 3.86026C194.543 3.86143 192.965 3.86287 191.388 3.86417C188.933 3.86618 186.469 3.86821 183.997 3.86978C179.931 3.8724 175.857 3.87358 171.755 3.87198C167.67 3.87038 163.558 3.86587 159.465 3.85806C155.374 3.85029 151.249 3.83928 147.177 3.82535C142.64 3.80975 138.13 3.79253 133.6 3.77456C129.076 3.75657 124.551 3.73773 120.045 3.71841C115.522 3.69906 111.012 3.6792 106.5 3.65884C101.985 3.63847 97.4729 3.61763 92.9578 3.59634C90.2555 3.58359 87.5541 3.57061 84.8514 3.55752C83.4215 3.56927 82.0506 3.58078 80.7318 3.5917C70.9874 3.67238 63.9417 3.73058 54.6464 3.77066C53.7562 3.77673 53.0319 3.78537 52.1506 3.79581C51.9825 3.7978 51.8042 3.79979 51.6223 3.80191C50.4706 3.81534 49.1481 3.8294 47.3082 3.83829C43.6379 3.85602 38.0121 3.85216 30.7423 3.73526C28.9059 3.70572 27.7373 3.57242 28.1331 3.4374C28.4114 3.34269 29.3867 3.27232 30.577 3.24891C28.3779 3.23285 26.1848 3.21604 23.9973 3.19935C23.1242 3.19267 22.3044 3.1616 21.7219 3.11219C21.1398 3.06277 20.8419 2.9993 20.8922 2.93494C20.9425 2.87057 21.3388 2.81019 21.9942 2.76623C22.6494 2.72233 23.5091 2.69855 24.3862 2.69958C26.7131 2.70245 29.0321 2.70535 31.3516 2.7074C33.6731 2.70947 35.9835 2.71067 38.3008 2.7113C40.6175 2.71193 42.9334 2.71185 45.2565 2.7113C47.5706 2.71072 49.8893 2.7098 52.2122 2.70837C54.5499 2.70698 56.8434 2.70503 59.1744 2.703C60.571 2.70176 61.9843 2.70053 63.3718 2.69909C63.8889 2.6986 64.3935 2.69792 64.8984 2.69739C65.3111 2.69695 65.7258 2.69659 66.1528 2.69616C70.644 2.69126 75.1783 2.68577 79.6719 2.67981C84.1868 2.67388 88.6972 2.6676 93.2073 2.66101C97.72 2.65441 102.229 2.64739 106.739 2.64025C111.248 2.63312 115.754 2.62574 120.268 2.61804C124.766 2.61031 129.282 2.60241 133.788 2.59387C137.272 2.58727 140.728 2.58018 144.189 2.57263C145.551 2.55971 146.9 2.54751 148.23 2.53576C152.104 2.50156 155.984 2.45668 159.805 2.41222C153.003 2.43433 147.54 2.46886 142.338 2.50182C141.641 2.50624 140.948 2.51068 140.257 2.51501C133.207 2.55917 126.396 2.59655 117.235 2.58825C91.1797 2.56464 76.0721 2.54741 66.6584 2.51525C57.2463 2.4831 53.2023 2.43544 49.428 2.34069C44.0948 2.20678 33.8015 2.13062 28.629 2.12779C26.75 2.12676 25.2334 2.0138 25.2419 1.87558C25.251 1.73734 26.7821 1.62602 28.6614 1.62704C34.1231 1.63003 45.2615 1.70744 51.6093 1.8668C54.4366 1.93778 57.6879 1.98358 66.9566 2.01524C76.2263 2.0469 91.1945 2.06385 117.299 2.0875C126.131 2.09551 132.685 2.05991 139.661 2.01621C140.345 2.01193 141.034 2.00744 141.729 2.00303C141.733 2.00303 141.737 2.00303 141.742 2.00303C148.149 1.96241 155.126 1.91813 164.534 1.89853C186.219 1.85336 215.388 1.7658 222.312 1.7164C223.671 1.70671 224.985 1.69582 226.37 1.68442C231.689 1.64066 238.109 1.58787 252.579 1.55282C255.743 1.54516 259.45 1.5407 263.495 1.53866C269.565 1.47129 275.459 1.40879 280.583 1.37166C285.006 1.33963 289.084 1.2807 293.036 1.21614C294.173 1.19756 295.319 1.17812 296.462 1.15877C299.219 1.11209 301.978 1.06545 304.665 1.02937C306.808 1.00061 309.052 0.966052 311.423 0.929513C317.052 0.842782 323.409 0.744846 330.887 0.686555C335.128 0.641171 339.827 1.94308 343.826 4.9998C349.438 9.24857 352.292 15.8995 352.229 21.9902C352.218 28.758 352.203 34.9722 352.187 40.6924C352.22 32.9511 352.259 26.9719 352.293 21.9902C352.294 21.981 352.294 21.9719 352.294 21.9627C352.299 20.9537 352.235 19.9941 352.115 19.0693C351.166 12.5449 348.12 8.28298 344.172 5.08583C339.843 1.68782 334.986 0.486785 330.887 0.500915C317.522 0.520066 310.688 0.566937 303.191 0.662171C300.649 0.694456 297.846 0.737466 294.825 0.783757C288.788 0.876275 281.883 0.982054 274.464 1.04255C267.553 1.0989 259.825 1.18207 251.636 1.2701C251.632 1.2701 251.629 1.2701 251.626 1.2701C250.026 1.2873 248.407 1.30468 246.774 1.3221C236.817 1.42831 226.345 1.5351 216.151 1.60238C215.06 1.60958 213.754 1.6195 212.255 1.63095C203.599 1.69701 188.405 1.81299 169.85 1.73862C165.774 1.72228 161.539 1.68767 156.706 1.64804C155.234 1.63597 153.706 1.62329 152.11 1.61068C145.221 1.55628 136.852 1.49849 125.707 1.46371C116.51 1.43501 105.301 1.42124 93.6611 1.40682C87.9278 1.39972 82.09 1.39234 76.3367 1.38314C58.9579 1.35536 43.0296 1.31129 27.1316 1.26717C27.1283 1.26717 27.1251 1.26717 27.1218 1.26717C25.2437 1.26196 23.7725 1.14555 23.8385 1.0074C23.9051 0.869313 25.4812 0.761495 27.3584 0.766667C43.2659 0.810816 59.1455 0.854948 76.4664 0.882637C82.1322 0.891694 87.9243 0.898994 93.6352 0.906075C105.331 0.920576 116.696 0.934481 125.979 0.963449C137.314 0.998822 145.837 1.05772 152.82 1.11287C154.502 1.12615 156.083 1.13914 157.585 1.15144C162.364 1.19061 166.337 1.22335 170.203 1.23885C188.169 1.31085 202.789 1.19949 211.477 1.13338C213.017 1.12165 214.372 1.11145 215.525 1.10383C225.519 1.03787 235.831 0.932834 245.779 0.826727C247.392 0.809512 248.998 0.792342 250.592 0.775212C250.595 0.77513 250.598 0.775049 250.602 0.774968C258.789 0.686952 266.656 0.602372 273.695 0.544981C280.84 0.486726 287.071 0.390776 292.9 0.301077C296.027 0.252946 299.039 0.206784 302.014 0.168993C309.996 0.0675929 317.242 0.0195426 330.887 0.000275373C335.1 -0.0147777 340.053 1.22895 344.445 4.6639ZM33.977 3.27309C38.4972 3.33582 42.18 3.34905 44.9227 3.34486C42.5934 3.33061 40.2697 3.31566 37.9443 3.30019C36.6208 3.29138 35.2988 3.28235 33.977 3.27309ZM264.049 2.03892C263.317 2.04706 262.579 2.0553 261.839 2.06358C263.883 2.05966 265.927 2.05601 267.968 2.05235C270.474 2.04785 272.98 2.04361 275.485 2.03941C271.502 2.03777 267.643 2.03729 264.049 2.03892ZM343.549 5.41849C339.595 2.39047 335.008 1.14591 330.887 1.19C324.231 1.24483 318.5 1.33289 313.135 1.41537C310.666 1.45332 308.272 1.49003 305.904 1.52181C304.921 1.535 303.94 1.54957 302.951 1.56503C308.712 1.57287 314.008 1.58112 318.343 1.58798C323.238 1.59572 327.334 1.60664 330.887 1.61925C336.869 1.69582 341.078 3.98245 344.14 6.6108C345.57 7.86126 346.777 9.25362 347.798 10.8089C348.663 12.0824 349.413 13.509 349.981 15.0266C350.785 17.147 351.248 19.5934 351.263 21.9341C351.263 21.9528 351.264 21.9715 351.264 21.9902C351.281 24.2768 351.296 26.5997 351.308 28.8814C351.321 31.2003 351.332 33.4979 351.341 35.7852C351.35 37.9374 351.357 40.0821 351.365 42.1575C351.365 42.2763 351.365 42.3952 351.366 42.514C351.374 44.7075 351.381 46.8414 351.391 48.802C351.401 50.7979 351.414 52.4571 351.432 53.9296C351.455 55.7685 351.478 57.6551 351.498 59.5208C351.519 61.3884 351.538 63.248 351.556 65.1022C351.574 66.9603 351.591 68.7999 351.607 70.6447C351.612 71.2411 351.617 71.8651 351.622 72.4565C351.625 72.7291 351.627 73.0016 351.629 73.2733C351.631 69.6647 351.633 65.918 351.638 62.0457C351.644 56.4515 351.66 50.4793 351.678 43.8915C351.696 37.2891 351.716 30.0684 351.728 21.9902C351.787 16.1009 349.062 9.61328 343.549 5.41849ZM308.322 94.7773C309.891 94.776 312.188 94.7721 315.151 94.767C315.852 94.7658 316.591 94.7644 317.365 94.7631C317.347 94.763 317.328 94.763 317.31 94.7629C315.39 94.7501 313.618 94.739 311.706 94.7287C308.296 94.7104 304.984 94.6947 301.638 94.6813C298.28 94.6679 294.931 94.6569 291.578 94.6481C288.219 94.6394 284.852 94.6331 281.514 94.6293C278.143 94.6256 274.82 94.6241 271.466 94.6259C270.397 94.6265 269.325 94.6274 268.254 94.6286C270.646 94.6412 273.13 94.6516 275.754 94.6625C277.849 94.6713 280.035 94.6804 282.334 94.6913C283.213 94.6955 284.278 94.7019 285.52 94.7094C290.442 94.739 298.165 94.7857 308.322 94.7773ZM241.494 94.7665C240.715 94.7698 239.942 94.7728 239.177 94.7753C236.999 94.7823 234.876 94.7864 232.795 94.7895C231.333 94.7916 229.888 94.7932 228.464 94.7948C227.863 94.7955 227.263 94.7963 226.669 94.797C225.673 94.7983 224.684 94.7997 223.703 94.8012C230.586 94.8163 237.315 94.8278 244.327 94.8315C244.419 94.8315 244.512 94.8314 244.606 94.8315C243.544 94.8094 242.507 94.7877 241.494 94.7665Z" fill="#1E1E1E"/>
</svg>
