<svg width="201" height="323" viewBox="0 0 201 323" fill="none" xmlns="http://www.w3.org/2000/svg">
<path d="M3.03111 221.046C4.25262 224.014 5.77018 226.273 7.28019 228.831C7.28094 228.832 7.28169 228.834 7.28244 228.835C7.49815 229.201 7.71434 229.573 7.92766 229.953C7.95532 230.003 7.98299 230.052 8.01069 230.102L7.96312 230.006C8.8669 231.785 9.53076 233.864 7.20124 237.529L7.20926 237.518C6.57595 238.46 5.90414 239.478 5.21139 240.593C1.95839 245.718 -0.11792 251.391 0.004673 256.2L0.00522232 256.185C0.0324059 258.281 0.281258 259.951 0.48613 261.267C0.604332 262.03 0.726452 262.838 0.868397 264.688C0.886185 264.937 0.902882 265.203 0.917007 265.486L0.923157 265.604C1.01529 266.67 1.06149 268.079 1.07642 270.078C1.09289 271.421 1.08554 273.031 1.21343 275.022C1.39022 277.463 1.72681 280.738 3.42152 284.121L3.45897 284.193C6.27544 289.842 12.973 293.625 18.9856 294.537C24.8989 295.564 30.4458 294.849 34.5394 293.715C35.0962 293.56 35.6563 293.388 36.2015 293.204L36.1915 293.207C41.2043 291.51 46.1282 289.302 50.7365 285.614C53.3346 283.518 55.7972 280.899 57.7542 277.651L57.796 277.581C59.2481 275.021 60.3732 272.139 61.0719 268.978C62.284 263.432 61.8268 257.733 59.8459 252.534C59.7817 252.366 59.7159 252.199 59.6484 252.032L59.6873 252.155C59.5116 251.644 59.3195 251.145 59.1163 250.658C57.2383 246.165 54.4036 242.528 53.2355 238.153C53.0469 237.433 52.9157 236.721 52.8447 236.019L52.8459 236.037C52.5369 232.224 53.636 228.551 54.7189 224.983L54.722 224.973C55.5964 222.053 56.6971 219.229 57.8686 216.256C58.6378 214.301 59.4397 212.281 60.2092 210.112L60.2027 210.13C60.5655 209.141 60.9055 208.116 61.2128 207.051C62.7007 202.157 63.5591 194.589 61.5046 187.33L61.4996 187.311C61.31 186.633 61.1073 185.954 60.8883 185.276C60.675 184.616 60.4463 183.957 60.1991 183.303C60.1978 183.299 60.1966 183.296 60.1953 183.293C58.8764 179.759 56.9002 176.332 54.2889 173.792L54.3027 173.806C51.8259 171.318 49.11 169.515 46.6538 168.29C38.6295 164.548 34.5736 165.693 31.8163 166.283C30.7451 166.58 29.763 166.954 28.6749 167.541C27.124 168.376 25.4472 169.689 23.9962 171.452L24.0714 171.365C21.6551 174.018 19.9287 177.578 19.1167 181.462C19.1116 181.487 19.1067 181.511 19.1017 181.536C18.8851 182.608 19.0893 183.536 19.4334 183.556C19.7792 183.581 20.1292 182.765 20.3323 181.766C20.9857 178.563 22.3234 175.625 24.0639 173.325C24.3432 173.375 24.8407 173.043 25.3658 172.547L25.3509 172.565C25.4406 172.47 25.5305 172.371 25.6195 172.267C26.6513 170.729 33.6109 164.661 43.7257 169.167C43.0367 168.961 42.4501 168.825 41.9344 168.726C41.3291 168.61 40.8617 168.55 40.4619 168.507C39.6261 168.424 39.0734 168.389 38.1014 168.343C35.8852 168.17 32.1991 168.462 29.1737 170.605C28.4095 171.131 28.0448 171.853 28.2804 172.103C28.5191 172.355 29.2121 172.095 29.8929 171.629C29.9065 171.62 29.9201 171.611 29.9337 171.602C32.6324 169.697 36.0642 169.408 38.2263 169.609C38.779 169.65 39.2596 169.712 39.6188 169.763C39.9074 169.804 40.2662 169.866 40.4686 169.893C40.4955 169.896 40.5469 169.903 40.6086 169.909C40.6097 169.909 40.6107 169.909 40.6118 169.909C40.6461 169.913 40.8233 169.932 41.0174 169.931C41.0567 169.93 41.1423 169.929 41.2451 169.919C41.2698 169.923 41.2945 169.927 41.3193 169.931C41.6647 169.987 42.0165 170.053 42.3962 170.139C43.8395 170.525 46.3491 171.036 50.516 174.11C51.1041 174.559 51.7388 175.091 52.3873 175.709C55.0377 178.091 57.5325 182.38 59.0521 187.991C59.5777 189.928 59.9629 192.024 60.1228 194.236C60.0475 193.554 59.9513 192.872 59.8352 192.197C59.5942 190.794 59.2651 189.404 58.8544 188.036C58.7659 187.753 58.6728 187.462 58.5774 187.173C58.3686 186.539 58.1511 185.919 57.9156 185.295C57.5364 184.291 57.1181 183.303 56.6511 182.349C56.3356 181.704 55.9971 181.072 55.6331 180.461C55.6324 180.46 55.6316 180.458 55.6308 180.457C55.1257 179.608 54.5697 178.795 53.9546 178.027C53.7388 177.758 53.5194 177.5 53.2952 177.249C52.9134 176.821 52.5165 176.416 52.0908 176.024L52.0806 176.014C51.5093 175.476 50.8868 174.947 50.1855 174.424C50.0337 174.314 49.8659 174.2 49.7395 174.118C49.6037 174.028 49.4716 173.944 49.3455 173.867C49.2341 173.798 49.1271 173.734 49.0246 173.674C49.0109 173.666 48.9971 173.658 48.9834 173.649C48.8685 173.582 48.7584 173.518 48.6523 173.457C48.5464 173.396 48.4439 173.338 48.3436 173.281C48.3427 173.28 48.3418 173.28 48.341 173.279C48.2363 173.219 48.1567 173.174 48.0462 173.11C47.9074 173.03 47.7881 172.961 47.6439 172.878C47.5043 172.797 47.3591 172.714 47.2119 172.63C47.0649 172.546 46.9147 172.461 46.7619 172.377C46.609 172.292 46.4529 172.207 46.2951 172.123C46.1374 172.039 45.9774 171.955 45.8152 171.872C45.653 171.789 45.4884 171.707 45.3224 171.627C44.9402 171.442 44.5409 171.332 44.2238 171.319C43.9054 171.305 43.695 171.386 43.634 171.535C43.5728 171.684 43.6639 171.89 43.8784 172.114C44.0925 172.337 44.4136 172.562 44.7695 172.75C44.8665 172.801 44.9637 172.853 45.061 172.906C45.1188 172.938 45.1772 172.969 45.2351 173.001C45.3908 173.088 45.5469 173.177 45.7036 173.268C45.8601 173.359 46.0175 173.452 46.1758 173.547C46.3345 173.643 46.4946 173.742 46.6565 173.842C46.8179 173.943 46.9826 174.047 47.1494 174.153C47.3122 174.257 47.4971 174.376 47.663 174.483C47.7842 174.562 47.934 174.658 48.0584 174.739C48.1883 174.823 48.3157 174.906 48.4391 174.987C48.5625 175.068 48.6816 175.147 48.7946 175.223C48.8067 175.231 48.8187 175.24 48.8307 175.248C48.9306 175.315 49.0259 175.381 49.1163 175.445C49.2172 175.516 49.3115 175.584 49.4001 175.65C49.4977 175.723 49.5557 175.769 49.6264 175.825C50.0671 176.19 50.5399 176.618 51.0036 177.084L51.0253 177.105C51.5195 177.59 52.0008 178.131 52.4391 178.691C52.5445 178.826 52.6478 178.961 52.7481 179.097C53.2808 179.819 53.764 180.587 54.2035 181.393C54.5229 181.979 54.8197 182.585 55.097 183.21C55.5049 184.128 55.8704 185.085 56.2017 186.066C56.4075 186.676 56.5969 187.284 56.7792 187.909C56.8432 188.129 56.9056 188.349 56.9672 188.571L56.9593 188.542C57.3293 189.93 57.6105 191.335 57.7968 192.754C58.012 194.39 58.1001 196.05 58.0615 197.715C58.0249 199.374 57.8552 201.101 57.5848 202.767C57.3884 203.992 57.1429 205.252 56.8705 206.415C56.7242 207.041 56.5677 207.653 56.4011 208.255C56.4006 208.257 56.4001 208.259 56.3996 208.261C56.3556 208.42 56.3107 208.579 56.2649 208.738L56.2561 208.763C56.1513 209.14 56.0448 209.513 55.9361 209.886C55.6025 211.028 55.25 212.152 54.8816 213.277C54.5139 214.401 54.132 215.523 53.7428 216.658C53.3565 217.785 52.9599 218.937 52.5762 220.087C52.1908 221.242 51.8208 222.387 51.4569 223.603C51.4189 223.731 51.3811 223.858 51.3436 223.985L51.3476 223.972C50.9148 225.406 50.4731 226.865 50.0883 228.407C49.6743 230.07 49.3286 231.805 49.1862 233.622C49.1368 234.257 49.1136 234.902 49.1237 235.555C49.1238 235.557 49.1238 235.56 49.1239 235.562C49.1277 235.799 49.1359 236.036 49.1489 236.274L49.1505 236.296C49.215 237.281 49.3658 238.253 49.5807 239.195C49.9935 241.006 50.6351 242.701 51.3327 244.305C52.0316 245.909 52.7909 247.433 53.485 248.932C54.178 250.426 54.8216 251.928 55.2759 253.43L55.31 253.537C55.3113 253.541 55.3126 253.544 55.314 253.548C55.7994 254.895 56.1704 256.303 56.4172 257.706C56.4824 258.076 56.5396 258.448 56.5887 258.822C56.821 260.595 56.8628 262.343 56.7286 264.058C56.5943 265.772 56.2819 267.472 55.7924 269.13C55.3045 270.783 54.6377 272.4 53.7976 273.923C53.6097 274.263 53.4139 274.598 53.2106 274.926L53.2401 274.876C52.4998 276.002 51.6658 277.051 50.7304 278.04C49.5365 279.301 48.197 280.438 46.7363 281.458C45.9248 282.026 45.0303 282.592 44.1601 283.093C43.2817 283.598 42.3844 284.067 41.4794 284.5C41.1121 284.676 40.7433 284.846 40.3743 285.01C39.8359 285.249 39.2965 285.476 38.7597 285.69C37.8541 286.05 36.9551 286.374 36.0702 286.665C35.4448 286.87 34.8242 287.058 34.2153 287.23C33.9739 287.298 33.7395 287.36 33.5038 287.418C32.6784 287.618 31.9741 287.748 31.1378 287.859C29.0944 288.149 27.8161 288.231 26.4043 288.274C26.126 288.281 25.8429 288.283 25.5471 288.282C23.8582 288.278 22.1862 288.145 20.5927 287.868C18.9849 287.588 17.4593 287.165 16.0386 286.571C14.6318 285.983 13.3423 285.224 12.2503 284.302C11.1579 283.381 10.259 282.3 9.55874 281.057C9.54126 281.026 9.52388 280.995 9.50658 280.964L9.54638 281.04C8.92045 279.846 8.50111 278.453 8.25026 276.965C8.09954 276.085 7.99381 275.099 7.92695 274.146C7.87823 273.459 7.84554 272.763 7.8206 272.067C7.81042 271.783 7.80151 271.497 7.79341 271.213C7.76556 270.231 7.74668 269.249 7.7181 268.278C7.68954 267.307 7.65143 266.343 7.58579 265.378C7.58047 265.3 7.57497 265.222 7.56928 265.144L7.57493 265.252C7.54078 264.374 7.48874 263.531 7.43754 262.711C7.38018 261.787 7.33136 261.04 7.29661 260.118C7.27463 259.518 7.26165 258.946 7.26282 258.389C7.26416 257.725 7.28624 257.086 7.3367 256.464L7.33718 256.45C7.34898 256.304 7.36327 256.158 7.38004 256.011C7.46289 255.288 7.60414 254.571 7.79887 253.852C7.8614 253.62 7.93333 253.376 8.00716 253.144C8.23524 252.428 8.51067 251.721 8.8269 251.02C9.14268 250.32 9.49672 249.631 9.8821 248.951C10.2692 248.267 10.6822 247.601 11.1299 246.927C11.8912 245.781 12.6547 244.671 13.3456 243.691C13.6529 243.255 13.9565 242.829 14.2566 242.411L14.264 242.4C14.7436 241.723 15.1795 241.025 15.5713 240.3C15.7023 240.057 15.8286 239.811 15.9509 239.559C16.4752 238.477 16.9015 237.326 17.1915 236.128C17.55 234.652 17.6968 233.101 17.5942 231.555C17.4958 230.023 17.1456 228.5 16.6256 227.119C16.4891 226.755 16.3421 226.401 16.1846 226.054L16.1409 225.966C15.77 225.185 15.3936 224.433 15.0024 223.665C14.4784 222.636 13.9607 221.63 13.4537 220.581C12.9518 219.541 12.4877 218.504 12.1235 217.504C11.7583 216.504 11.4911 215.538 11.3272 214.587C11.1624 213.635 11.0962 212.678 11.1201 211.701C11.1223 211.607 11.1254 211.513 11.1294 211.417L11.1308 211.284C11.144 210.419 11.2347 209.561 11.4001 208.724C11.5813 207.8 11.8672 206.871 12.2164 206.043C12.779 204.702 13.5596 203.483 14.5003 202.489C15.4354 201.499 16.5243 200.739 17.6841 200.269C18.6663 199.871 19.7 199.672 20.7872 199.678C20.9741 199.679 21.1679 199.688 21.3604 199.703C22.615 199.8 23.8158 200.189 24.8537 200.835C25.0835 200.978 25.3053 201.133 25.5186 201.3C26.27 201.888 26.9122 202.623 27.4162 203.477C27.4197 203.483 27.4233 203.489 27.4268 203.495C27.5116 203.639 27.592 203.786 27.6689 203.937L27.6829 203.965C28.3803 205.326 28.9909 206.729 29.5341 208.191C29.7639 208.81 29.9709 209.408 30.1709 210.027C30.3695 210.643 30.5543 211.26 30.7276 211.883C30.9018 212.509 31.0627 213.136 31.2108 213.76C31.3602 214.39 31.4947 215.009 31.6194 215.638C31.7335 216.213 31.8378 216.792 31.9429 217.422C31.9526 217.48 31.9621 217.538 31.9716 217.596C32.0857 218.29 32.207 219.079 32.3169 219.819C32.6091 221.776 32.822 223.71 32.9819 225.695C33.1416 227.682 33.2435 229.681 33.3051 231.71C33.3291 232.502 33.3466 233.3 33.3593 234.1C33.3789 235.344 33.386 236.597 33.3846 237.857C33.3823 239.932 33.3573 242.021 33.3274 244.136C33.3027 245.893 33.2747 247.667 33.255 249.447L33.2558 249.41C33.2492 249.761 33.2424 250.112 33.2355 250.463C33.1943 252.571 33.1486 254.698 33.0999 256.798C33.0458 259.137 32.9825 261.464 32.9073 263.801C32.8324 266.135 32.7462 268.47 32.6492 270.795C32.5518 273.129 32.4435 275.456 32.3245 277.785C32.2054 280.115 32.0756 282.444 31.9355 284.774C31.8517 286.169 31.7644 287.563 31.6735 288.958C31.5788 289.692 31.4864 290.395 31.397 291.072C30.7338 296.071 30.2227 299.68 29.6077 304.449C29.543 304.905 29.4809 305.275 29.4052 305.725C29.3908 305.811 29.3757 305.902 29.3602 305.995C29.2615 306.583 29.1513 307.259 29.0227 308.202C28.7659 310.083 28.4444 312.974 28.2792 316.743C28.2374 317.695 28.4937 318.337 28.8538 318.175C29.1064 318.061 29.3429 317.581 29.4757 316.976C29.3775 318.111 29.2796 319.244 29.1798 320.374C29.1401 320.826 29.1639 321.257 29.2485 321.572C29.3332 321.887 29.4711 322.06 29.634 322.054C29.7969 322.049 29.9726 321.864 30.1243 321.54C30.2759 321.217 30.3907 320.782 30.4447 320.33C30.5876 319.131 30.7279 317.936 30.8681 316.741C31.0084 315.544 31.148 314.354 31.2871 313.16C31.4262 311.966 31.5648 310.772 31.7025 309.575C31.8399 308.383 31.9759 307.187 32.111 305.99C32.2469 304.785 32.3792 303.603 32.5112 302.401C32.5904 301.681 32.6695 300.952 32.7468 300.237C32.7755 299.97 32.8038 299.71 32.8318 299.449C32.8546 299.236 32.8772 299.023 32.9006 298.802C33.1474 296.486 33.3879 294.147 33.6169 291.827C33.8469 289.497 34.067 287.168 34.2765 284.839C34.4862 282.508 34.6855 280.178 34.8732 277.847C35.0609 275.516 35.2372 273.186 35.402 270.851C35.5664 268.524 35.7192 266.187 35.8601 263.856C35.9691 262.052 36.0707 260.263 36.1656 258.471C36.2278 257.766 36.2866 257.069 36.3428 256.38C36.5062 254.376 36.6861 252.369 36.8537 250.39C36.6972 253.916 36.5013 256.746 36.301 259.437C36.2741 259.798 36.2469 260.157 36.2197 260.514C35.9406 264.162 35.6611 267.683 35.3766 272.426C34.5437 285.913 33.7736 293.718 33.3769 298.587C32.9635 303.454 32.8454 305.553 32.8657 307.527C32.8954 310.317 32.4596 315.652 32.1347 318.32C32.018 319.289 32.2004 320.106 32.5439 320.144C32.8874 320.183 33.2624 319.427 33.3793 318.456C33.7229 315.635 34.207 309.856 34.1681 306.531C34.1506 305.051 34.2289 303.359 34.6362 298.558C35.0261 293.756 35.7921 286.012 36.628 272.473C36.9025 267.893 37.1728 264.497 37.4511 260.881C37.4783 260.526 37.5057 260.169 37.5328 259.809C37.5329 259.806 37.533 259.804 37.5331 259.802C37.7542 256.846 37.9768 253.654 38.1436 249.541C38.16 249.034 38.1764 248.508 38.1922 247.968C38.7523 236.71 38.171 221.479 37.4455 217.887C37.3579 217.182 37.2674 216.494 37.1623 215.776C36.6718 213.038 36.4394 209.573 33.4144 202.467C33.2538 202.11 33.0816 201.742 32.8973 201.364C32.2646 200.044 31.3326 198.655 30.0573 197.434C27.6878 194.902 24.3261 193.511 21.3619 193.29C21.2164 193.278 21.071 193.268 20.9258 193.26C18.5254 193.124 16.229 193.522 14.1624 194.345C13.5309 194.596 12.9105 194.89 12.312 195.222C10.8669 196.025 9.54832 197.058 8.43777 198.226C7.55232 199.156 6.71333 200.217 5.95957 201.427C4.36081 204.002 3.09816 207.306 2.95077 211.304L2.95171 211.218C2.75957 213.976 3.20136 217.224 4.46384 220.291C6.03331 224.097 7.95371 226.875 9.26361 229.465L9.23009 229.397C10.3214 231.599 10.2813 233.687 9.53205 235.707C10.4859 233.008 9.93613 231.059 9.09564 229.461L9.13065 229.532C9.05229 229.391 8.97419 229.252 8.89642 229.115C8.66983 228.715 8.44554 228.332 8.2238 227.959C6.65242 225.328 5.28391 223.235 4.19854 220.595C2.78272 217.208 2.34849 213.863 2.44988 211.206L2.4488 211.305C2.70895 203.828 5.30623 200.08 8.35753 196.938C9.51339 195.825 10.9575 194.745 12.6859 193.897C15.037 192.732 17.9542 192.06 20.944 192.279C22.3296 192.376 23.7365 192.652 25.1065 193.127C28.6163 194.301 31.9693 197.183 33.6021 201.026L33.5965 201.015C33.8293 201.546 34.0539 202.087 34.2679 202.634C34.2686 202.636 34.2693 202.637 34.27 202.639C34.5859 203.446 34.8811 204.27 35.1558 205.107C36.8337 210.208 37.6996 215.72 38.1746 221.049C38.2257 221.62 38.2785 222.304 38.3287 223.089C38.6566 227.624 38.6743 235.562 38.6435 245.212C38.6461 246.603 38.6637 248.029 38.6915 249.55C38.6996 250.359 38.7082 251.19 38.7152 252.057C38.7214 252.824 38.7266 253.62 38.7287 254.452C38.7364 258.041 38.6999 262.403 38.4523 268.203C38.2481 272.989 37.8847 278.818 37.4208 284.862C37.1929 287.839 36.9425 290.87 36.6833 293.855C35.8986 302.872 35.0812 311.127 34.1746 319.356C34.1744 319.358 34.1742 319.36 34.174 319.361C34.0667 320.334 34.2598 321.13 34.6068 321.139C34.9536 321.148 35.3236 320.366 35.4309 319.393C36.3383 311.148 37.1527 302.906 37.9353 293.905C38.1909 290.961 38.4399 287.949 38.6673 284.978C39.1346 278.894 39.5036 272.974 39.7091 268.133C39.9602 262.223 39.9953 257.772 39.9855 254.126C39.9828 253.248 39.9771 252.422 39.9702 251.638C39.964 250.924 39.9567 250.244 39.9495 249.59L39.9499 249.574C39.9189 247.954 39.8989 246.49 39.8959 245.05C39.9192 235.689 39.9188 227.98 39.6069 223.376C39.5574 222.558 39.5045 221.842 39.4514 221.23C38.994 215.937 38.1702 210.414 36.5057 205.176C36.2362 204.327 35.9454 203.488 35.6308 202.657C35.6303 202.655 35.6297 202.654 35.6292 202.652C35.3478 201.909 35.0466 201.171 34.7288 200.45L34.7382 200.469C33.0445 196.519 29.6142 193.441 25.9638 192.099C24.2935 191.465 22.6074 191.123 20.9772 191.011C18.2377 190.823 15.58 191.295 13.2584 192.241C11.2668 193.05 9.51127 194.186 8.01302 195.527C4.39539 198.98 1.47457 203.205 1.19706 211.308L1.19851 211.175C1.08966 213.988 1.56765 217.544 3.03111 221.046ZM29.6276 315.219C29.7513 312.876 29.9378 310.978 30.1092 309.568C30.0079 310.77 29.9062 311.97 29.8034 313.171C29.7449 313.854 29.6863 314.537 29.6276 315.219ZM28.9851 198.144C29.25 198.412 29.5037 198.695 29.7437 198.989C29.0463 198.209 28.2458 197.518 27.3706 196.943C26.2961 196.236 25.1068 195.702 23.8629 195.362C25.8493 195.879 27.6247 196.892 28.9851 198.144ZM5.63173 219.84C4.41182 216.872 4.02376 213.848 4.21262 211.249L4.21205 211.301C4.34878 208.001 5.29392 205.2 6.59587 202.862C7.27583 201.646 8.06248 200.549 8.93864 199.559C9.30286 199.147 9.68786 198.757 10.0947 198.386C7.89149 200.725 6.62292 203.439 5.96474 205.714C5.36787 207.776 5.19133 209.649 5.21726 211.299L5.21754 211.273C5.19323 215.09 6.16204 217.727 7.15639 219.903C7.57831 220.81 8.0274 221.652 8.49985 222.495C8.8368 223.221 9.20274 223.963 9.57692 224.704C10.1007 225.743 10.6688 226.851 11.1737 227.911C11.2477 228.066 11.3215 228.223 11.3948 228.38L11.3852 228.361C11.7659 229.232 12.0376 230.144 12.1735 231.053C12.3357 232.127 12.3114 233.205 12.1174 234.254C11.9359 235.242 11.6037 236.204 11.177 237.095C11.1527 237.146 11.128 237.197 11.1029 237.248C10.7313 238 10.2933 238.705 9.83102 239.343C9.7098 239.51 9.58735 239.678 9.46746 239.844C8.85223 240.694 8.34204 241.408 7.8816 242.041C7.3066 242.831 6.73422 243.662 6.19501 244.509C5.6552 245.357 5.14426 246.227 4.67281 247.125C4.20043 248.025 3.7705 248.946 3.39217 249.903C3.26985 250.212 3.14791 250.54 3.03876 250.853C2.98838 250.998 2.93909 251.144 2.89157 251.289C3.44782 249.333 4.26147 247.413 5.23402 245.541C6.36943 243.354 7.73468 241.182 9.25312 238.937C9.56487 238.47 9.8577 237.979 10.1189 237.47C11.4501 234.92 11.8719 231.856 10.3579 228.855L10.3789 228.897C9.04307 226.261 7.1408 223.498 5.63173 219.84ZM3.50239 280.616C3.2495 279.742 2.95853 278.444 2.78984 276.801C2.74937 276.412 2.71532 276.005 2.68748 275.58C2.68851 275.59 2.68928 275.601 2.69032 275.61C2.80121 276.66 2.94363 277.641 3.1701 278.701C3.51859 280.327 4.05023 281.92 4.83454 283.41L4.85416 283.448C4.98565 283.684 5.12178 283.915 5.26249 284.142C6.28327 285.793 7.6014 287.267 9.10282 288.466C10.6072 289.673 12.2929 290.615 14.0243 291.32C15.774 292.032 17.565 292.511 19.382 292.828C19.9617 292.929 20.544 293.013 21.1283 293.08C19.8215 292.967 18.4635 292.761 17.0452 292.417C15.9124 292.142 14.7405 291.778 13.5388 291.282C13.0789 291.091 12.5249 290.848 11.8939 290.525C9.89029 289.491 6.80182 287.514 4.65609 283.554L4.63394 283.511C4.18098 282.621 3.7981 281.647 3.50239 280.616ZM35.6471 291.904C35.6835 291.892 35.7197 291.881 35.7559 291.87C36.111 291.76 36.4714 291.645 36.8252 291.527C37.9324 291.16 39.0034 290.764 40.0435 290.342C40.7738 290.046 41.4911 289.735 42.1917 289.411C42.4877 289.275 42.7819 289.136 43.0725 288.994C43.5591 288.758 44.0391 288.515 44.5121 288.264C41.7006 289.812 38.8088 291.009 35.7987 292.019C35.2771 292.195 34.7328 292.363 34.189 292.514C34.1393 292.527 34.0892 292.541 34.0389 292.555C34.595 292.347 35.1319 292.129 35.6471 291.904Z" fill="#1E1E1E"/>
<path d="M84.0385 110.598C86.3467 116.214 89.2795 120.761 92.4088 126.289C92.4104 126.292 92.412 126.295 92.4136 126.298C92.8598 127.088 93.3103 127.901 93.7583 128.738C93.8164 128.847 93.8746 128.956 93.9329 129.066L93.8853 128.97C96.3399 133.745 97.4932 140.827 91.6324 149.449L91.6405 149.437C90.3364 151.346 88.9664 153.393 87.568 155.616C80.9964 165.86 76.9824 176.607 77.0243 185.545L77.0249 185.53C76.9825 189.55 77.3637 192.891 77.6728 195.591C77.8495 197.163 78.0645 198.806 78.3332 202.771C78.3666 203.307 78.3978 203.88 78.4236 204.496L78.4298 204.613C78.6127 206.95 78.6908 209.987 78.6988 214.137C78.7169 216.921 78.6875 220.21 78.9219 224.163C79.2427 229.023 79.9178 235.312 83.0729 241.605L83.1104 241.677C88.3777 252.251 100.939 259.442 112.731 261.245C124.282 263.248 135.32 261.83 143.36 259.604C144.454 259.301 145.553 258.965 146.62 258.606L146.61 258.61C156.747 255.203 166.602 250.82 175.717 243.6C180.858 239.496 185.694 234.397 189.543 228.069L189.585 227.999C192.444 223.009 194.677 217.357 196.069 211.137C198.481 200.23 197.839 188.998 194.187 178.631C194.069 178.297 193.947 177.964 193.822 177.632L193.861 177.754C193.542 176.747 193.189 175.755 192.811 174.78C189.343 165.767 183.636 158.005 181.241 148.444C180.859 146.868 180.595 145.302 180.461 143.755L180.462 143.773C179.915 135.417 182.286 127.722 184.5 120.301L184.503 120.29C186.314 114.166 188.562 108.258 190.938 102.082C192.499 98.0218 194.119 93.8422 195.671 89.3819L195.664 89.4005C196.39 87.3844 197.07 85.3004 197.684 83.1383C200.657 73.189 202.385 57.9865 198.254 43.3305L198.249 43.3122C197.863 41.9297 197.452 40.5477 197.009 39.1721C196.577 37.8322 196.115 36.497 195.616 35.1758C195.614 35.1691 195.611 35.1625 195.609 35.1558C192.948 28.0112 189.009 21.2005 183.847 16.1767L183.86 16.1904C178.908 11.2138 173.45 7.59394 168.534 5.15768C152.459 -2.27269 144.621 0.160012 139.317 1.35069C137.258 1.95274 135.381 2.69841 133.299 3.84478C130.332 5.47816 127.117 8.00855 124.298 11.4446L124.373 11.3577C119.728 16.4604 116.268 23.5299 114.674 31.1516C114.664 31.1996 114.655 31.247 114.645 31.2956C114.219 33.3924 114.351 35.1648 114.695 35.1784C115.042 35.1996 115.465 33.5318 115.879 31.5082C117.206 25.037 119.935 19.0699 123.431 14.4427C123.788 14.3915 124.637 13.5893 125.667 12.5402L125.653 12.5574C125.828 12.3583 126.008 12.1517 126.19 11.94C128.328 8.84086 142.202 -3.86221 163.395 5.06632C161.984 4.58303 160.78 4.24636 159.72 3.98682C158.475 3.68384 157.51 3.50474 156.683 3.3685C154.951 3.09676 153.797 2.9581 151.75 2.81354C147.08 2.39236 139.222 2.99411 132.762 7.55637C131.137 8.66957 130.15 9.96783 130.387 10.2128C130.631 10.4635 131.954 9.62233 133.496 8.57011C133.527 8.54919 133.557 8.52837 133.588 8.50762C139.695 4.21434 147.427 3.59783 152.151 4.10434C153.365 4.21213 154.413 4.3651 155.194 4.49478C155.822 4.59748 156.599 4.74956 157.034 4.8317C157.092 4.84244 157.202 4.86275 157.334 4.88608C157.336 4.88641 157.338 4.88674 157.34 4.88706C157.413 4.89994 157.792 4.96796 158.197 5.02269C158.279 5.03372 158.458 5.05746 158.668 5.07715C158.721 5.08868 158.773 5.10032 158.826 5.11206C159.559 5.27643 160.303 5.46219 161.103 5.69118C164.147 6.68237 169.412 7.99134 178.057 14.6544C179.278 15.6276 180.596 16.7711 181.945 18.0935C187.49 23.2248 192.663 32.2992 195.801 43.9923C196.894 48.054 197.695 52.4397 198.03 57.07C197.9 55.6409 197.726 54.2105 197.509 52.7922C197.058 49.8445 196.418 46.9198 195.603 44.0373C195.426 43.4332 195.241 42.8226 195.051 42.2145C194.636 40.8833 194.201 39.5788 193.727 38.2635C192.965 36.1474 192.117 34.0583 191.162 32.0298C190.516 30.659 189.82 29.3125 189.068 28.0039C189.066 28.0009 189.064 27.9979 189.063 27.9949C188.018 26.1793 186.861 24.4287 185.572 22.7672C185.12 22.186 184.66 21.6244 184.188 21.0792C183.385 20.1509 182.548 19.2668 181.648 18.4083L181.638 18.3982C180.443 17.233 179.142 16.0803 177.68 14.9289C177.365 14.6855 177.019 14.428 176.76 14.2399C176.48 14.037 176.208 13.8449 175.949 13.6661C175.721 13.5083 175.501 13.3603 175.291 13.22C175.263 13.2012 175.235 13.1824 175.206 13.1636C174.97 13.0069 174.744 12.8585 174.525 12.7171C174.307 12.576 174.095 12.4414 173.887 12.3092C173.885 12.308 173.883 12.3067 173.881 12.3054C173.664 12.1675 173.499 12.0638 173.268 11.9188C172.978 11.7369 172.729 11.5819 172.425 11.3952C172.132 11.2146 171.825 11.0286 171.514 10.8429C171.202 10.6573 170.884 10.4706 170.559 10.284C170.235 10.0973 169.903 9.91062 169.567 9.72575C169.231 9.54097 168.889 9.35723 168.543 9.17587C168.197 8.99457 167.846 8.81525 167.491 8.63925C166.674 8.2336 165.851 7.92387 165.221 7.77084C164.589 7.61676 164.202 7.62474 164.144 7.7742C164.084 7.92476 164.356 8.20556 164.887 8.571C165.417 8.9357 166.164 9.36122 166.954 9.77C167.169 9.88122 167.385 9.99479 167.601 10.1102C167.729 10.1787 167.859 10.2482 167.987 10.3182C168.332 10.5064 168.678 10.7004 169.025 10.8992C169.372 11.0978 169.72 11.3018 170.069 11.5117C170.42 11.7222 170.773 11.9393 171.129 12.1627C171.485 12.3854 171.846 12.6169 172.211 12.855C172.568 13.0874 172.971 13.3552 173.331 13.5987C173.594 13.7765 173.917 13.9966 174.185 14.1823C174.465 14.3761 174.739 14.5679 175.003 14.7559C175.267 14.944 175.521 15.1273 175.762 15.3042C175.788 15.3232 175.814 15.3422 175.839 15.3612C176.052 15.5181 176.255 15.67 176.448 15.8171C176.664 15.9811 176.865 16.1383 177.055 16.2893C177.264 16.4556 177.39 16.5586 177.543 16.6856C178.504 17.4968 179.54 18.4417 180.561 19.4683L180.583 19.4899C181.697 20.5837 182.782 21.8015 183.767 23.0558C184.004 23.3572 184.236 23.6608 184.461 23.9643C185.656 25.5777 186.733 27.2843 187.707 29.0607C188.415 30.3517 189.068 31.6811 189.676 33.0419C190.57 35.0434 191.363 37.1131 192.077 39.2212C192.521 40.5303 192.927 41.8307 193.316 43.1638C193.452 43.6321 193.585 44.0997 193.716 44.5716L193.708 44.5426C194.509 47.544 195.116 50.5896 195.513 53.671C195.971 57.2224 196.147 60.8297 196.038 64.4377C195.933 68.0322 195.526 71.7636 194.887 75.3373C194.422 77.9649 193.822 80.6483 193.167 83.1103C192.815 84.4356 192.442 85.7252 192.048 86.9928C192.046 86.9972 192.045 87.0015 192.044 87.0059C191.94 87.3407 191.834 87.6747 191.726 88.0079L191.718 88.0333C191.475 88.8149 191.229 89.5891 190.98 90.3595C190.215 92.724 189.421 95.0417 188.606 97.3598C187.793 99.6744 186.963 101.979 186.129 104.31C185.302 106.622 184.464 108.983 183.664 111.337C182.86 113.702 182.097 116.041 181.355 118.523C181.278 118.783 181.201 119.043 181.125 119.303L181.129 119.29C180.237 122.253 179.345 125.239 178.578 128.365C177.753 131.736 177.08 135.22 176.816 138.81C176.724 140.065 176.684 141.332 176.71 142.608C176.71 142.613 176.71 142.618 176.71 142.623C176.72 143.084 176.738 143.547 176.765 144.01L176.767 144.032C176.901 145.943 177.202 147.834 177.632 149.681C178.457 153.23 179.745 156.603 181.171 159.847C182.6 163.094 184.174 166.232 185.636 169.376C187.094 172.512 188.476 175.73 189.45 179.029L189.484 179.136C189.487 179.144 189.49 179.152 189.492 179.16C190.526 182.087 191.3 185.138 191.806 188.168C191.94 188.968 192.056 189.771 192.155 190.577C192.623 194.402 192.686 198.158 192.393 201.843C192.099 205.526 191.443 209.179 190.42 212.756C189.399 216.322 188.007 219.825 186.238 223.15C185.842 223.894 185.429 224.626 185 225.344L185.029 225.294C183.462 227.765 181.692 230.077 179.702 232.262C177.163 235.049 174.308 237.573 171.199 239.844C169.472 241.109 167.565 242.364 165.71 243.471C163.838 244.59 161.927 245.624 160.001 246.577C159.22 246.964 158.436 247.338 157.652 247.698C156.508 248.224 155.363 248.723 154.226 249.194C152.306 249.989 150.405 250.706 148.539 251.355C147.22 251.813 145.913 252.24 144.634 252.633C144.119 252.792 143.609 252.942 143.097 253.083C141.305 253.575 139.782 253.913 137.973 254.232C133.545 255.016 130.759 255.241 127.675 255.389C127.066 255.414 126.447 255.431 125.8 255.439C122.102 255.491 118.417 255.245 114.865 254.663C111.281 254.073 107.836 253.151 104.569 251.801C101.336 250.465 98.3027 248.696 95.7002 246.49C93.0973 244.289 90.9292 241.658 89.2808 238.672C89.2396 238.598 89.1987 238.523 89.158 238.448L89.1978 238.525C87.698 235.603 86.76 232.287 86.236 228.929C85.9202 226.942 85.7206 224.767 85.6067 222.709C85.5235 221.226 85.4768 219.744 85.446 218.277C85.4334 217.677 85.4235 217.079 85.415 216.485C85.3862 214.434 85.3736 212.414 85.3351 210.44C85.2967 208.466 85.233 206.53 85.1076 204.617C85.0974 204.462 85.0869 204.308 85.0759 204.153L85.0816 204.262C85.0168 202.512 84.9084 200.815 84.7921 199.141C84.6613 197.254 84.5413 195.708 84.4322 193.763C84.3622 192.498 84.3096 191.272 84.287 190.064C84.2599 188.622 84.2763 187.208 84.3563 185.809L84.3568 185.796C84.3754 185.452 84.3997 185.108 84.4297 184.765C84.5782 183.068 84.862 181.396 85.2638 179.731C85.3928 179.196 85.5422 178.632 85.696 178.099C86.1709 176.45 86.7487 174.837 87.4102 173.249C88.0708 171.663 88.8099 170.113 89.6099 168.591C90.4136 167.063 91.2671 165.581 92.1868 164.089C93.7506 161.552 95.3487 159.151 96.7896 157.054C97.4309 156.121 98.0636 155.215 98.6878 154.33L98.6952 154.319C99.5866 153.044 100.39 151.744 101.106 150.405C101.345 149.957 101.575 149.505 101.797 149.042C102.748 147.058 103.507 144.976 104.015 142.834C104.643 140.196 104.884 137.464 104.688 134.747C104.498 132.052 103.864 129.375 102.915 126.918C102.665 126.27 102.396 125.639 102.107 125.018L102.063 124.93C101.307 123.391 100.531 121.899 99.7088 120.353C98.6079 118.281 97.4875 116.226 96.3461 114.011C95.2168 111.817 94.1209 109.551 93.2165 107.263C92.3109 104.977 91.5977 102.657 91.1463 100.329C90.6909 97.9989 90.4893 95.621 90.5219 93.2521C90.5249 93.0245 90.53 92.795 90.5373 92.5637L90.5387 92.4307C90.5487 90.2982 90.7589 88.1792 91.1609 86.11C91.6015 83.8258 92.31 81.5237 93.1877 79.4647C94.6025 76.1323 96.5738 73.0716 99.0175 70.5235C101.445 67.9883 104.348 65.9734 107.514 64.7233C110.192 63.6618 113.047 63.1455 115.955 63.1925C116.473 63.2014 116.996 63.2288 117.517 63.2747C120.91 63.5699 124.202 64.6682 127.041 66.4783C127.67 66.878 128.276 67.3115 128.858 67.777C130.908 69.4153 132.641 71.4516 133.967 73.7508C133.976 73.7665 133.985 73.7822 133.994 73.798C134.217 74.1866 134.428 74.5802 134.628 74.983L134.642 75.0112C136.166 78.0285 137.488 81.1186 138.658 84.3137C139.153 85.6676 139.597 86.9714 140.027 88.3191C140.453 89.6588 140.849 90.9972 141.221 92.3447C141.595 93.7001 141.94 95.0528 142.259 96.3971C142.581 97.755 142.872 99.0844 143.144 100.434C143.393 101.667 143.623 102.906 143.856 104.254C143.877 104.378 143.898 104.501 143.919 104.625C144.172 106.109 144.436 107.794 144.666 109.372C145.278 113.545 145.724 117.65 146.063 121.851C146.401 126.053 146.622 130.269 146.76 134.533C146.814 136.199 146.854 137.873 146.884 139.551C146.931 142.16 146.952 144.785 146.953 147.419C146.955 151.755 146.906 156.112 146.84 160.509C146.785 164.16 146.718 167.838 146.662 171.517L146.663 171.48C146.646 172.21 146.629 172.94 146.611 173.669C146.504 178.051 146.379 182.472 146.241 186.835C146.086 191.696 145.908 196.529 145.704 201.383C145.5 206.229 145.27 211.078 145.017 215.905C144.762 220.749 144.484 225.58 144.182 230.412C143.88 235.247 143.555 240.078 143.207 244.911C142.998 247.804 142.783 250.695 142.559 253.588C142.394 255.114 142.233 256.577 142.076 257.984C140.916 268.38 140.01 275.89 138.841 285.799C138.723 286.747 138.617 287.518 138.488 288.455C138.463 288.634 138.437 288.824 138.411 289.017C138.242 290.242 138.051 291.649 137.807 293.609C137.322 297.519 136.644 303.519 135.989 311.303C135.824 313.269 136 314.555 136.387 314.175C136.659 313.907 136.962 312.888 137.175 311.626C136.928 313.976 136.681 316.32 136.429 318.657C136.329 319.59 136.296 320.474 136.34 321.111C136.384 321.747 136.501 322.084 136.667 322.051C136.834 322.018 137.037 321.614 137.235 320.929C137.432 320.244 137.606 319.334 137.721 318.398C138.025 315.915 138.323 313.439 138.619 310.963C138.916 308.485 139.208 306.019 139.498 303.544C139.788 301.071 140.075 298.598 140.359 296.116C140.642 293.645 140.921 291.168 141.198 288.686C141.475 286.189 141.744 283.738 142.013 281.246C142.173 279.754 142.334 278.243 142.49 276.76C142.548 276.207 142.605 275.668 142.662 275.128C142.708 274.687 142.754 274.243 142.801 273.787C143.3 268.985 143.783 264.135 144.242 259.326C144.703 254.495 145.142 249.667 145.559 244.837C145.976 240.005 146.37 235.175 146.74 230.341C147.11 225.509 147.456 220.678 147.777 215.836C148.097 211.013 148.393 206.168 148.662 201.333C148.87 197.593 149.062 193.885 149.238 190.169C149.332 188.707 149.422 187.26 149.507 185.832C149.754 181.675 150.006 177.511 150.234 173.407C149.969 180.715 149.656 186.581 149.329 192.164C149.285 192.912 149.241 193.656 149.196 194.397C148.736 201.962 148.256 209.268 147.645 219.095C145.855 247.045 144.213 263.211 143.306 273.291C142.364 283.368 141.992 287.702 141.782 291.763C141.487 297.501 140.382 308.523 139.702 314.046C139.458 316.053 139.535 317.707 139.879 317.74C140.223 317.774 140.704 316.173 140.949 314.164C141.668 308.329 142.875 296.396 143.218 289.561C143.37 286.517 143.654 283.028 144.582 273.098C145.473 263.164 147.104 247.136 148.898 219.107C149.488 209.624 149.953 202.587 150.412 195.095C150.457 194.36 150.502 193.62 150.546 192.874C150.546 192.869 150.546 192.865 150.547 192.86C150.908 186.736 151.264 180.124 151.551 171.611C151.577 170.563 151.605 169.473 151.632 168.356C152.67 145.037 151.232 113.57 149.607 106.202C149.402 104.753 149.187 103.341 148.94 101.867C147.82 96.2542 147.192 89.1431 140.924 74.6565C140.592 73.9293 140.236 73.179 139.857 72.4097C138.585 69.7829 136.73 67.0343 134.202 64.6187C129.39 59.7258 122.751 57.1652 116.948 56.8207C116.663 56.8011 116.378 56.7856 116.094 56.7741C111.391 56.5889 106.96 57.4996 103.026 59.2182C101.823 59.7425 100.647 60.3501 99.5157 61.0304C96.7847 62.6707 94.3166 64.7432 92.2381 67.0508C90.5807 68.8891 89.028 70.982 87.6497 73.3546C84.7255 78.4053 82.5043 84.813 82.3587 92.451L82.3596 92.365C82.0938 97.6836 82.9753 103.765 85.4163 109.708C88.4474 117.084 92.3832 122.854 95.1858 128.429L95.1523 128.361C97.8413 133.775 97.6751 139.429 95.7867 144.243C98.2483 137.753 97.0168 132.38 95.0178 128.426L95.0528 128.496C94.8901 128.189 94.7282 127.887 94.5673 127.591C94.0985 126.727 93.6369 125.903 93.1832 125.106C89.9656 119.491 87.3116 115.268 85.2148 110.168C82.4911 103.642 81.6902 97.4286 81.8578 92.3528L81.8567 92.4522C82.3012 78.3114 87.112 71.1933 92.7044 65.1515C94.827 63.0077 97.4757 60.9094 100.667 59.2317C105.009 56.9276 110.428 55.5096 116.112 55.7931C118.739 55.9182 121.419 56.3887 124.036 57.2511C130.733 59.3818 137.231 64.7039 140.561 72.0722L140.556 72.0609C141.053 73.1213 141.535 74.2052 141.996 75.3013C141.997 75.3045 141.998 75.3078 142 75.311C142.681 76.9298 143.321 78.585 143.922 80.2711C147.592 90.5447 149.657 101.805 150.81 112.759C150.934 113.932 151.069 115.338 151.203 116.953C152.053 126.275 152.401 142.675 152.138 162.643C152.115 165.522 152.102 168.472 152.098 171.62C152.083 173.286 152.066 175.003 152.044 176.797C152.025 178.382 152.002 180.028 151.973 181.747C151.843 189.165 151.614 198.179 151.009 210.168C150.51 220.063 149.722 232.112 148.724 244.609C148.234 250.765 147.697 257.03 147.136 263.201C145.439 281.842 143.632 298.903 141.64 315.909C141.639 315.913 141.639 315.916 141.639 315.92C141.403 317.929 141.494 319.537 141.845 319.509C142.197 319.481 142.676 317.83 142.912 315.82C144.904 298.794 146.704 281.773 148.395 263.18C148.947 257.098 149.481 250.877 149.969 244.74C150.974 232.172 151.773 219.944 152.274 209.948C152.887 197.743 153.117 188.554 153.243 181.026C153.273 179.213 153.296 177.508 153.315 175.889C153.331 174.414 153.345 173.01 153.356 171.66L153.357 171.644C153.359 168.29 153.37 165.262 153.394 162.285C153.634 142.933 153.335 127.082 152.524 117.671C152.392 115.999 152.257 114.536 152.128 113.285C151.023 102.476 149.065 91.2873 145.468 80.8576C144.885 79.167 144.262 77.5002 143.593 75.8548C143.592 75.8514 143.591 75.848 143.589 75.8446C142.991 74.3728 142.355 72.9165 141.688 71.496L141.698 71.5148C138.391 64.215 132.009 58.7251 125.299 56.3563C122.227 55.2378 119.131 54.6689 116.145 54.5257C111.124 54.287 106.347 55.2668 102.19 57.0824C98.6245 58.6349 95.4948 60.7717 92.8173 63.2717C86.3636 69.704 81.0698 77.5166 80.6049 92.4554L80.6064 92.3224C80.4306 97.57 81.2836 103.988 84.0385 110.598ZM137.554 307.992C137.978 303.152 138.4 299.219 138.744 296.293C138.496 298.783 138.245 301.267 137.991 303.752C137.846 305.167 137.701 306.58 137.554 307.992ZM132.904 65.1185C133.47 65.6617 134.015 66.2349 134.532 66.8333C133.069 65.2128 131.394 63.7807 129.564 62.5899C127.319 61.1262 124.837 60.025 122.246 59.3294C126.378 60.4096 130.07 62.5183 132.904 65.1185ZM86.5909 109.273C84.1755 103.391 83.3598 97.5437 83.6205 92.3956L83.6199 92.4479C83.7557 85.9569 85.4301 80.3689 87.8572 75.6393C89.1248 73.1823 90.6153 70.9448 92.3033 68.9175C93.005 68.0751 93.747 67.271 94.5332 66.5027C90.1091 71.1676 87.5328 76.6171 86.1914 81.1952C84.9743 85.3433 84.5969 89.1161 84.6252 92.4454L84.6254 92.4201C84.5214 100.132 86.3998 105.468 88.368 109.94C89.2033 111.803 90.0991 113.542 91.0493 115.287C91.7818 116.759 92.5748 118.268 93.3829 119.782C94.5144 121.904 95.7418 124.179 96.8371 126.373C96.9977 126.694 97.1577 127.018 97.317 127.344L97.3074 127.325C98.1652 129.187 98.7939 131.158 99.1233 133.142C99.5163 135.485 99.496 137.86 99.0976 140.165C98.7257 142.335 98.0201 144.442 97.114 146.382C97.0623 146.493 97.0098 146.604 96.9565 146.715C96.1675 148.352 95.2376 149.88 94.2622 151.262C94.014 151.612 93.766 151.962 93.5236 152.306C92.2801 154.071 91.2598 155.555 90.3575 156.878C89.2306 158.529 88.1111 160.256 87.0603 162.006C86.0083 163.758 85.0166 165.545 84.1066 167.376C83.1948 169.212 82.3709 171.078 81.6525 173.004C81.4202 173.626 81.1896 174.284 80.984 174.912C80.889 175.201 80.7965 175.492 80.7074 175.783C81.8168 171.896 83.4511 168.048 85.4258 164.27C87.7311 159.856 90.5347 155.448 93.6843 150.856C94.3814 149.831 95.0377 148.752 95.6289 147.622C98.6528 142.022 99.7434 134.704 96.2801 127.819L96.3011 127.861C93.4881 122.268 89.5775 116.526 86.5909 109.273ZM82.0844 235.359C81.5866 233.647 81.0031 231.1 80.6529 227.818C80.5691 227.042 80.4972 226.225 80.4379 225.371C80.4397 225.392 80.4412 225.412 80.443 225.432C80.6339 227.546 80.8916 229.508 81.3157 231.613C81.9687 234.844 82.9813 237.974 84.4859 240.894L84.5055 240.932C84.7593 241.397 85.0223 241.853 85.2943 242.3C87.2681 245.553 89.8292 248.459 92.7727 250.838C95.7215 253.231 99.0515 255.114 102.498 256.527C105.981 257.954 109.569 258.92 113.224 259.553C114.39 259.754 115.562 259.92 116.74 260.054C114.11 259.793 111.386 259.353 108.556 258.639C106.295 258.067 103.966 257.319 101.593 256.31C100.685 255.923 99.5942 255.427 98.3574 254.773C94.4201 252.673 88.4647 248.75 84.3075 241.038L84.2853 240.995C83.4109 239.268 82.667 237.376 82.0844 235.359ZM145.957 257.342C146.03 257.319 146.102 257.296 146.174 257.273C146.903 257.04 147.636 256.798 148.355 256.553C150.606 255.786 152.782 254.971 154.891 254.106C156.373 253.499 157.826 252.864 159.244 252.206C159.843 251.927 160.438 251.644 161.026 251.356C162.009 250.875 162.978 250.38 163.932 249.871C158.236 252.968 152.358 255.374 146.217 257.422C145.169 257.774 144.081 258.107 142.992 258.408C142.892 258.435 142.792 258.463 142.691 258.49C143.819 258.128 144.91 257.744 145.957 257.342Z" fill="#1E1E1E"/>
</svg>
