<svg width="370" height="507" viewBox="0 0 370 507" fill="none" xmlns="http://www.w3.org/2000/svg">
<path d="M241.868 325.277C240.518 328.408 238.547 331.165 235.88 333.469C234.228 334.886 232.715 336.551 231.096 338.672C231.094 338.674 231.092 338.677 231.09 338.68C230.899 338.925 230.708 339.174 230.483 339.454C230.371 339.594 230.251 339.741 230.104 339.908C229.938 340.084 229.818 340.255 229.372 340.596C228.316 341.3 227.688 341.212 227.379 341.279C227.133 341.295 227.025 341.361 227.349 341.234C227.414 341.208 227.553 341.1 227.591 341.044C227.634 340.988 227.601 341.015 227.553 341.122C227.45 341.337 227.314 341.775 227.188 342.248C226.935 343.204 226.676 344.328 226.38 345.468C225.787 347.772 225.045 350.252 224.111 352.914C222.444 357.405 222.468 362.97 222.196 370.459C222.105 371.473 221.995 372.516 221.594 373.705C221.009 375.097 220.483 375.378 220.036 375.875C219.581 376.316 219.164 376.686 218.766 377.05C217.973 377.772 217.264 378.453 216.657 379.155C216.366 379.461 215.946 380.008 214.827 380.19C213.642 380.334 212.826 379.656 212.513 379.318C211.846 378.561 211.718 378.075 211.526 377.577C210.196 371.522 210.768 367.328 210.606 363.082C210.584 358.014 210.347 353.835 209.907 350.532C209.721 349.054 209.469 347.533 208.802 343.607C208.78 343.471 208.756 343.33 208.732 343.185C208.309 340.679 207.74 337.356 206.674 332.726C206.074 330.125 205.293 327.119 204.307 323.588C204.251 323.384 204.193 323.178 204.134 322.968C203.182 319.177 201.185 315.11 199.731 309.895C199.037 307.263 198.084 304.552 196.823 301.94C196.744 301.776 196.62 301.585 196.487 301.427C196.377 301.277 196.138 301.113 196.283 301.202C196.329 301.23 196.466 301.238 196.456 301.234C196.452 301.232 196.337 301.264 196.184 301.345C195.871 301.505 195.442 301.805 194.99 302.121C194.077 302.758 192.99 303.489 191.677 303.932C187.52 305.198 183.629 305.075 179.735 305.164C177.257 305.102 175.497 304.116 173.817 303.217C172.286 302.357 170.887 301.399 169.551 300.493C166.736 298.605 166.839 295.018 166.385 293.941C166.137 293.433 165.993 292.341 166.558 291.541C167.094 290.776 167.703 290.567 168.15 290.413C171.244 289.367 174.704 289.483 176.213 288.562C176.713 288.298 177.147 287.505 177.781 286.335C178.099 285.768 178.14 285.324 177.985 284.699C177.763 283.822 177.07 282.801 176.311 281.626C175.328 279.804 172.405 279.943 168.977 278.08C166.286 276.508 164.844 273.327 163.604 271.615C162.617 270.268 161.893 268.851 161.815 266.848C161.789 265.657 162.503 264.528 163.089 263.945C163.384 263.633 163.664 263.385 163.849 263.199C164.049 263.027 164.052 262.857 163.952 263.222C164.121 262.515 163.575 261.698 162.407 260.641C162.014 260.272 161.574 259.892 161.102 259.374C160.022 258.151 159.193 256.886 158.43 255.51C156.929 251.691 159.052 249.329 158.861 247.517C158.862 247.591 158.892 247.77 159.002 247.936C159.11 248.102 159.244 248.186 159.29 248.209C159.389 248.249 159.247 248.192 159.072 248.179C158.704 248.139 158.179 248.149 157.635 248.159C156.528 248.152 155.306 248.298 153.726 247.688C148.78 244.73 147.471 240.017 144.149 237.359C143.642 236.966 143.12 236.574 142.589 236.183C138.836 233.432 134.944 230.8 131.323 227.763C128.409 225.359 126.816 221.616 126.764 217.978C126.765 217.693 126.754 217.356 127.035 216.86C127.311 216.358 127.95 216.067 128.294 216.035C129.016 215.957 129.33 216.105 129.676 216.197C130.328 216.409 130.831 216.656 131.343 216.901C132.345 217.388 133.287 217.89 134.215 218.282C134.762 218.513 135.33 218.711 135.765 218.77C136.736 218.907 137.417 219.312 138.033 219.703C140.249 221.217 141.809 223.09 143.596 224.571C144.519 225.347 145.003 226.217 145.53 226.637C145.731 226.875 146.656 226.913 147.52 226.725C147.873 226.751 148.76 225.645 149.968 225.078C152.028 224.101 154.241 224.767 155.889 225.402C158.216 226.486 159.576 227.959 161.346 229.241C162.475 230.102 163.604 230.907 164.763 231.575C171.434 235.395 177.994 237.987 184.533 240.366C188.571 241.906 192.793 243.124 197.032 243.795C199.502 244.138 202.074 244.445 204.435 244.048C204.421 244.041 204.305 244.107 204.287 244.146C204.26 244.201 204.312 244.081 204.311 243.925C204.316 243.766 204.299 243.569 204.273 243.358C203.714 240.108 201.924 236.746 200.19 233.395C200.061 233.17 200.043 232.823 200.115 232.611C200.182 232.394 200.277 232.271 200.356 232.176C200.516 231.994 200.65 231.909 200.777 231.831C201.032 231.683 201.265 231.598 201.538 231.54C202.191 231.432 202.625 231.503 202.712 231.449C202.785 231.431 202.875 231.327 202.88 231.265C203.028 230.6 202.65 229.753 202.048 228.948C201.519 228.231 200.834 227.518 200.108 226.759C197.815 224.094 194.253 223.324 190.342 220.272C189.445 219.294 188.891 217.94 188.349 217.256C187.052 215.892 183.756 215.867 181.049 215.094C178.234 214.389 175.931 212.824 173.414 212.128C171.073 211.431 168.722 210.699 166.378 209.947C165.104 209.539 163.829 209.124 162.56 208.708C162.553 208.706 162.547 208.704 162.541 208.702C160.653 208.083 158.774 207.46 156.91 206.855C152.678 205.554 148.492 203.729 144.709 202.6C142.912 202.15 141.387 201.187 140.147 199.985C137.957 197.189 138.969 194.413 139.376 192.095C139.834 190.205 140.681 188.513 140.521 187.289C140.474 186.842 140.109 186.444 139.53 186.079C137.766 185.036 135.532 184.477 133.792 183.199C130.919 181.428 129.64 177.691 128.41 177.426C125.924 176.594 123.982 176.696 122.23 177.134C119.589 177.744 117.436 177.584 115.507 177.149C114.289 176.85 113.143 176.464 112 175.65C111.05 174.936 110.663 173.919 110.395 173.018C109.798 170.826 109.67 168.547 108.899 166.268C108.82 166.027 108.737 165.787 108.658 165.483C108.62 165.328 108.579 165.163 108.561 164.91C108.553 164.688 108.531 164.181 108.979 163.719C109.314 163.404 109.585 163.356 109.755 163.307C109.931 163.265 110.051 163.251 110.152 163.237C110.349 163.211 110.464 163.185 110.491 163.172C111.414 162.953 112.079 159.559 113.934 157.63C116.314 154.959 118.167 151.602 120.403 148.266L120.365 148.327C120.812 147.556 121.229 146.724 121.683 145.877C121.705 145.836 121.727 145.796 121.749 145.755C121.809 145.643 121.871 145.532 121.933 145.422C122.364 144.618 123.043 143.769 123.699 143.401C124.343 143.021 124.775 142.986 124.795 143.055C124.873 143.156 123.201 144.009 122.477 145.724C122.413 145.842 122.349 145.962 122.283 146.082C121.814 146.952 121.382 147.82 120.907 148.64L120.923 148.614C118.69 151.946 116.814 155.339 114.406 158.041C113.618 158.939 113.027 159.965 112.564 160.974C112.568 161.136 112.448 161.57 112.236 162.148C112.015 162.707 111.72 163.505 111.025 163.895C110.957 163.932 110.886 163.966 110.807 163.996C110.672 164.049 110.505 164.078 110.312 164.105C110.119 164.147 109.892 164.107 109.602 164.345C109.328 164.673 109.462 164.976 109.505 165.223C109.568 165.478 109.653 165.728 109.74 165.989C110.107 167.066 110.404 168.385 110.676 169.932C111.038 171.416 110.928 173.456 112.543 174.922C114.959 176.537 118.452 177.063 122.022 176.245C124.076 175.695 126.412 175.766 128.691 176.531C130.01 176.922 130.537 178.367 131.362 179.433C132.165 180.556 133.182 181.559 134.371 182.402C134.865 182.754 135.404 183.053 135.964 183.323C135.376 183.019 134.852 182.701 134.402 182.359C133.867 181.953 133.406 181.547 133.007 181.146C132.138 180.272 131.611 179.487 131.18 178.799C130.517 177.798 130.136 176.706 128.786 176.227C128.358 176.085 127.891 175.94 127.348 175.806C125.846 175.419 123.913 175.353 121.928 175.841C119.227 176.452 115.639 176.363 112.846 174.517C111.799 173.69 111.604 171.959 111.316 170.429C111.011 168.502 110.76 166.898 110.92 166.862C111.097 166.816 111.634 168.429 111.938 170.356C111.945 170.393 111.951 170.43 111.958 170.467C112.208 171.93 112.526 173.533 113.22 174.015C115.667 175.657 119.192 175.839 121.785 175.232C124.031 174.661 126.353 174.831 128.024 175.333C128.36 175.425 128.678 175.522 128.977 175.618C130.141 175.982 130.74 176.88 131.08 177.37C131.467 177.954 131.858 178.601 132.099 178.946C132.131 178.994 132.189 179.078 132.262 179.183C132.263 179.185 132.264 179.187 132.265 179.189C132.305 179.245 132.511 179.54 132.741 179.845C132.788 179.907 132.889 180.04 133.007 180.195C133.04 180.232 133.074 180.27 133.108 180.308C133.578 180.828 134.109 181.319 134.736 181.803C134.751 181.814 134.766 181.826 134.781 181.837C135.485 182.382 136.463 182.892 137.764 183.468C138.414 183.763 139.148 184.066 139.956 184.523C140.707 184.969 141.84 185.675 142.021 187.098C142.187 188.979 141.233 190.577 140.778 192.435C140.43 193.85 140.109 195.47 140.314 197.137C140.409 197.822 140.629 198.528 141.108 199.008C142.109 199.999 143.445 200.897 145.026 201.301C148.767 202.41 152.669 204.182 157.308 205.628C162.278 207.259 167.764 209.123 173.775 210.912C176.385 211.637 178.711 213.205 181.363 213.867C181.868 213.996 182.38 214.112 182.897 214.221C182.384 214.108 181.873 213.987 181.367 213.853C180.54 213.635 179.74 213.337 178.949 212.991C177.293 212.258 175.617 211.375 173.798 210.836C172.175 210.34 170.554 209.829 168.937 209.307C167.643 208.89 166.368 208.472 165.07 208.041C162.981 207.348 160.889 206.64 158.794 205.938C158.316 205.778 157.839 205.619 157.362 205.461C156.424 205.15 155.486 204.832 154.553 204.506C154.549 204.505 154.546 204.504 154.543 204.503C152.597 203.826 150.654 203.098 148.706 202.34C148.02 202.075 147.343 201.812 146.648 201.57C146.138 201.393 145.613 201.228 145.077 201.094C143.689 200.739 142.364 199.944 141.262 198.851C140.85 198.441 140.611 197.762 140.523 197.002C140.483 196.652 140.476 196.259 140.485 195.962C140.494 195.644 140.519 195.334 140.552 195.041C140.582 194.782 140.618 194.535 140.658 194.299C140.663 194.267 140.668 194.235 140.674 194.203C140.72 193.938 140.77 193.685 140.823 193.442C140.876 193.2 140.932 192.967 140.99 192.738C140.99 192.736 140.991 192.734 140.991 192.732C141.012 192.65 141.032 192.574 141.051 192.501C141.087 192.364 141.124 192.233 141.172 192.07C141.265 191.76 141.352 191.491 141.463 191.161C141.571 190.841 141.688 190.502 141.803 190.148C141.918 189.794 142.032 189.424 142.127 189.024C142.222 188.625 142.3 188.194 142.315 187.728C142.321 187.513 142.314 187.291 142.286 187.065C142.25 186.77 142.167 186.475 142.04 186.202C141.806 185.693 141.437 185.29 141.068 184.984C140.199 184.285 139.363 183.92 138.784 183.59C138.202 183.272 137.91 183.067 137.945 182.993C137.982 182.922 138.339 182.986 138.98 183.203C139.621 183.436 140.514 183.737 141.502 184.531C141.767 184.753 142.036 185.02 142.275 185.354C142.417 185.552 142.547 185.775 142.652 186.014C142.787 186.322 142.878 186.652 142.92 186.984C142.961 187.297 142.968 187.602 142.953 187.892C142.924 188.446 142.823 188.945 142.706 189.407C142.588 189.871 142.45 190.303 142.314 190.72C142.178 191.135 142.043 191.538 141.922 191.935C141.851 192.17 141.779 192.42 141.719 192.663C141.677 192.828 141.638 192.993 141.603 193.15C141.536 193.444 141.462 193.806 141.41 194.106C141.355 194.42 141.31 194.727 141.277 195.021C141.244 195.315 141.223 195.596 141.213 195.859C141.212 195.887 141.211 195.915 141.21 195.944C141.204 196.175 141.207 196.394 141.219 196.595C141.232 196.819 141.256 197.023 141.288 197.205C141.325 197.404 141.356 197.516 141.397 197.645C141.494 197.943 141.63 198.177 141.78 198.325C142.689 199.222 143.953 200.025 145.261 200.341C146.289 200.591 147.251 200.94 148.153 201.274C148.531 201.415 148.902 201.555 149.269 201.694C151.208 202.431 153.126 203.126 155.079 203.786C155.925 204.073 156.776 204.354 157.631 204.63C158.21 204.817 158.787 205.005 159.365 205.193C161.479 205.884 163.594 206.582 165.708 207.264C167.02 207.688 168.309 208.098 169.621 208.509C171.104 208.973 172.592 209.428 174.084 209.872C176.21 210.482 178.136 211.545 179.886 212.245C180.466 212.475 181.042 212.668 181.631 212.819C182.899 213.148 184.208 213.377 185.599 213.66C186.949 213.995 188.634 214.137 190.121 215.742C190.326 215.983 190.471 216.206 190.599 216.411C191.184 217.4 191.543 218.134 192.08 218.737C193.333 219.989 196.428 221.035 198.663 222.625C199.756 223.364 200.806 224.234 201.724 225.219C202.696 226.28 203.773 227.336 204.54 228.849C204.923 229.62 205.201 230.652 204.977 231.683C204.79 232.561 204.156 233.222 203.333 233.474C202.85 233.612 202.506 233.584 202.279 233.587C202.274 233.587 202.27 233.587 202.266 233.587C202.092 233.585 201.983 233.591 201.95 233.596C201.921 233.598 201.848 233.624 201.841 233.627C201.84 233.624 201.852 233.629 201.936 233.534C201.977 233.483 202.049 233.402 202.11 233.203C202.178 233.012 202.16 232.648 202.033 232.431C202.31 232.98 202.589 233.537 202.859 234.09C203.932 236.303 204.948 238.502 205.681 240.904C205.888 241.608 206.073 242.337 206.165 243.128C206.201 243.475 206.244 243.85 206.173 244.347C206.131 244.595 206.065 244.897 205.831 245.234C205.606 245.577 205.135 245.851 204.77 245.901C203.611 246.098 202.49 246.109 201.387 246.068C199.826 246.003 198.29 245.815 196.765 245.582C195.872 245.445 194.99 245.272 194.12 245.082C191.736 244.554 189.445 243.909 187.063 243.136C185.993 242.786 184.939 242.423 183.872 241.995C181.947 241.268 179.86 240.527 177.824 239.72C174.746 238.509 171.671 237.185 168.653 235.711C167.598 235.195 166.549 234.66 165.509 234.104C165.505 234.102 165.501 234.1 165.497 234.097C164.945 233.802 164.394 233.5 163.846 233.191C162.439 232.394 161.15 231.47 159.903 230.53C158.31 229.358 156.623 227.856 155.239 227.26C153.986 226.799 152.855 226.487 151.817 226.627C151.474 226.673 151.154 226.767 150.858 226.911C150.505 227.082 150.177 227.338 149.777 227.685C149.377 228.009 148.878 228.549 147.943 228.763C146.916 228.926 145.639 229.306 144.196 228.289C143.317 227.556 142.864 226.783 142.356 226.354C142.317 226.32 142.279 226.288 142.241 226.257C139.857 224.356 137.604 221.552 135.504 221.04C135.075 220.989 134.697 220.891 134.337 220.779C133.009 220.352 131.885 219.757 130.769 219.222C130.22 218.957 129.668 218.692 129.17 218.513C128.934 218.424 128.664 218.368 128.64 218.375C128.617 218.375 128.829 218.377 129.017 218.15C129.176 217.928 129.127 217.855 129.135 217.896C129.153 218.486 129.213 219.069 129.315 219.641C129.447 220.377 129.65 221.097 129.925 221.787C130.562 223.393 131.588 224.801 132.882 225.869C134.338 227.073 135.835 228.21 137.347 229.316C140.088 231.328 142.923 233.228 145.704 235.348C145.953 235.539 146.189 235.743 146.415 235.951C149.293 238.713 151.06 242.217 153.634 244.526C154.008 244.845 154.398 245.109 154.755 245.256C155.413 245.527 156.477 245.521 157.545 245.488C158.092 245.476 158.65 245.445 159.316 245.501C159.651 245.537 160.021 245.57 160.51 245.803C161.01 245.982 161.608 246.826 161.565 247.426C161.595 248.768 161.259 249.833 161.026 250.857C160.691 252.19 160.474 253.551 160.87 254.164C161.538 255.344 162.333 256.511 163.203 257.468C163.743 258.049 164.548 258.666 165.3 259.471C166.177 260.354 167.155 262.014 166.822 263.707C166.461 265.062 165.836 265.261 165.522 265.651C165.17 265.99 164.944 266.264 164.851 266.474C164.789 266.61 164.767 266.718 164.768 266.861C164.792 267.732 165.296 268.941 165.975 269.794C166.308 270.222 166.594 270.657 166.856 271.076C167.338 271.85 167.75 272.567 168.202 273.193C168.853 274.107 169.602 274.838 170.491 275.422C170.537 275.452 170.583 275.482 170.631 275.512C171.874 276.302 173.944 276.512 175.946 277.423C177.082 277.932 178.237 278.801 178.957 279.94C179.401 280.622 179.918 281.348 180.368 282.186C181.272 283.72 181.707 286.116 180.584 287.953C180.475 288.149 180.357 288.384 180.221 288.643C179.738 289.574 179.033 290.717 177.88 291.396C174.23 293.141 172.202 292.633 170.01 293.37C169.724 293.447 169.442 293.53 169.153 293.623C169.054 293.638 169.179 293.71 169.423 293.305C169.505 293.148 169.537 292.949 169.529 292.825C169.522 292.697 169.496 292.637 169.489 292.618C170.348 295.542 170.355 296.997 171.461 297.672C172.557 298.408 173.614 299.122 174.678 299.759C176.402 300.794 178.332 301.733 179.714 301.726C181.27 301.712 182.821 301.678 184.36 301.593C186.54 301.466 188.75 301.273 190.574 300.665C191.611 300.325 192.558 299.593 193.923 298.68C194.297 298.445 194.709 298.186 195.331 297.975C195.92 297.758 196.951 297.683 197.744 298.083C199.129 298.892 199.399 299.517 199.919 300.439C200.949 302.575 201.786 304.773 202.476 307.022C202.678 307.683 202.867 308.35 203.042 309.022C203.755 311.823 204.958 314.603 205.961 317.488C206.477 318.955 206.969 320.517 207.39 322.048C207.547 322.614 207.7 323.172 207.849 323.721C208.242 325.168 208.622 326.6 208.979 328.011C209.125 328.587 209.267 329.16 209.405 329.73C209.88 331.691 210.307 333.613 210.688 335.469C211.068 337.326 211.407 339.132 211.719 340.894C211.822 341.473 211.921 342.047 212.02 342.626C212.219 343.792 212.422 344.932 212.628 346.092C212.944 347.873 213.213 349.372 213.489 351.312C213.667 352.577 213.809 353.824 213.921 355.062C214.089 356.922 214.194 358.756 214.27 360.604C214.303 361.421 214.329 362.2 214.352 363.012C214.382 364.033 214.41 365.049 214.441 366.063C214.459 366.646 214.479 367.258 214.5 367.837C214.566 369.628 214.639 371.397 214.793 373.103C214.9 374.256 215.055 375.494 215.328 376.25C215.386 376.408 215.461 376.551 215.482 376.575C215.488 376.585 215.488 376.559 215.375 376.458C215.277 376.369 214.945 376.139 214.459 376.152C214.111 376.161 213.851 376.294 213.735 376.372C213.611 376.455 213.576 376.5 213.561 376.514C214.662 375.185 215.927 374.071 216.968 373.057C217.177 372.85 217.369 372.65 217.507 372.486C217.644 372.335 217.716 372.156 217.632 372.34C218.095 370.805 218.05 368.456 218.085 366.54C218.107 363.997 218.149 361.535 218.392 359.121C218.436 358.668 218.488 358.214 218.548 357.762C218.804 355.809 219.202 353.877 219.797 352.01C219.853 351.836 219.91 351.662 219.969 351.489C220.62 349.574 221.195 347.684 221.697 345.773C222.323 343.632 222.403 341.906 223.522 339.043C223.8 338.418 224.545 337.467 225.479 337.08C226.291 336.743 226.685 336.782 226.911 336.735C227.131 336.727 227.115 336.615 226.661 336.903C226.508 337.023 226.586 336.966 226.629 336.91C226.683 336.847 226.758 336.755 226.834 336.658C226.988 336.461 227.16 336.232 227.335 335.999C227.687 335.528 228.058 335.032 228.453 334.529C229.692 332.949 231.078 331.387 232.757 329.891C232.985 329.686 233.21 329.475 233.432 329.254C234.976 327.725 236.306 325.813 237.236 323.692C237.994 321.971 238.496 320.108 238.741 318.192C238.807 317.68 238.875 317.187 238.951 316.677C239.323 313.994 240.021 311.231 240.39 308.913C240.509 308.137 240.587 307.372 240.633 306.584C240.736 304.8 240.868 303.014 241.037 301.253C241.285 298.622 241.655 295.879 242.091 293.375C242.341 291.992 242.569 290.379 242.428 290.298C242.419 290.262 242.409 290.276 242.49 290.386C242.563 290.488 242.8 290.718 243.142 290.822C242.607 290.638 241.294 290.535 240.028 290.281C239.108 290.099 238.19 289.938 237.258 289.796C235.614 289.536 233.959 289.374 232.107 289.063C231.109 288.889 229.917 288.772 228.643 288.53C227.373 288.184 225.89 288.262 224.047 286.235C223.699 285.787 223.417 285.199 223.294 284.613C223.14 283.98 223.283 283.185 223.54 282.713C223.792 282.225 224.067 281.956 224.292 281.754C224.747 281.366 225.084 281.21 225.4 281.064C226.153 280.734 226.816 280.617 227.353 280.531C227.14 280.79 228.621 279.531 229.871 278.563C231.192 277.565 232.632 276.738 234.089 276.064C234.092 276.063 234.094 276.062 234.096 276.061C237.504 274.417 241.045 275.363 242.915 274.992C243.138 274.968 243.246 274.895 242.992 275.018C242.871 275.082 242.645 275.252 242.489 275.492C242.33 275.731 242.274 275.967 242.261 276.085C242.338 275.503 242.392 274.923 242.414 274.366C242.447 273.711 242.4 272.946 242.332 272.727C242.329 272.714 242.316 272.672 242.3 272.627C241.331 270.289 239.422 267.065 238.966 263.367C238.963 263.341 238.96 263.315 238.957 263.289C238.853 262.383 238.839 261.422 238.988 260.438C239.457 257.308 239.839 254.121 240.184 250.941C240.338 249.504 240.476 248.124 240.593 246.731C240.657 245.973 240.714 245.215 240.749 244.501C240.782 243.828 240.829 243.17 240.88 242.519C240.993 241.085 241.123 239.702 241.196 238.381C241.269 237.049 241.29 235.779 241.159 234.643C241.095 234.094 240.992 233.584 240.846 233.167C240.669 232.66 240.461 232.136 240.223 231.568C240.176 231.457 240.129 231.346 240.081 231.233C239.563 230.009 238.863 228.465 238.453 226.782C238.421 226.653 238.389 226.523 238.357 226.393C237.357 222.347 236.333 218.416 235.162 214.492C234.371 211.904 233.507 209.072 232.464 207.087C231.758 205.832 231.137 204.607 230.511 203.393C229.764 201.942 229.021 200.509 228.243 199.116C227.993 198.669 227.74 198.225 227.482 197.787C226.48 196.086 225.428 194.437 224.275 192.942C223.146 191.469 221.991 190.309 220.478 189.057C218.807 187.642 217.022 186.249 215.235 184.786C214.332 184.046 213.423 183.289 212.513 182.455C212.057 182.034 211.604 181.602 211.137 181.088C210.674 180.51 210.17 180.186 209.66 178.698C209.099 176.595 208.825 174.615 208.487 172.712C208.274 171.487 208.049 170.281 207.795 169.076C207.455 167.31 206.485 165.542 205.598 163.3C205.297 162.531 205.012 161.782 204.721 161.067C203.454 157.815 201.424 154.908 199.246 151.884C198.65 151.058 198.135 150.299 197.59 149.553C194.968 145.896 191.784 142.836 187.98 140.677C187.41 140.351 186.837 140.05 186.244 139.762C182.525 137.913 179.338 136.295 175.553 135.387C174.289 135.057 173 134.764 171.689 134.489C168.688 133.893 165.342 133.702 162.093 133.629C159.636 133.585 157.165 133.634 154.76 133.845C154.463 133.871 154.169 133.897 153.872 133.923C152.386 134.076 150.963 134.215 149.604 134.355C145.76 134.775 141.738 135.12 139.582 136.089C135.959 138.046 132.635 139.951 129.544 142.642C128.666 143.406 127.772 144.198 126.877 145.019C126.21 145.635 125.678 146.144 125.047 146.768C124.923 146.891 124.797 147.016 124.67 147.145C123.854 147.97 122.933 148.913 121.76 150.294C121.201 150.949 120.611 151.707 119.842 152.631C118.391 154.752 116.347 159.659 114.056 164.815C113.286 166.564 112.658 167.628 112.663 167.18C112.666 166.868 112.978 165.894 113.429 164.739C113.026 165.681 112.622 166.625 112.216 167.564C111.804 168.526 111.512 169.709 111.287 170.874C111.125 171.72 110.982 172.525 110.869 173.081C110.754 173.642 110.679 173.88 110.598 173.835C110.518 173.799 110.449 173.431 110.465 172.771C110.48 172.113 110.573 171.245 110.745 170.377C110.958 169.311 111.224 168.243 111.613 167.31C112.117 166.12 112.616 164.924 113.116 163.734C114.051 161.507 114.982 159.294 115.962 157.105C116.82 155.235 117.704 153.16 118.756 151.719C118.957 151.48 119.151 151.242 119.344 151.005C120.839 149.12 122.413 147.406 124.15 145.745C125.622 144.331 127.138 142.981 128.689 141.646C128.956 141.417 129.226 141.191 129.5 140.969C130.602 140.075 131.773 139.238 132.964 138.468C133.408 138.181 133.846 137.907 134.289 137.639C134.651 137.42 135.018 137.203 135.397 136.983C136.578 136.3 137.786 135.646 139.007 134.999C141.648 133.869 145.196 133.684 148.404 133.323C150.479 133.121 152.566 132.94 154.654 132.737C157.2 132.495 159.788 132.43 162.366 132.464C165.583 132.523 168.849 132.684 171.937 133.271C173.347 133.556 174.734 133.861 176.108 134.215C179.878 135.101 183.264 136.796 186.83 138.535C187.521 138.863 188.191 139.213 188.853 139.591C192.835 141.845 196.191 145.089 198.892 148.834C199.416 149.545 199.915 150.267 200.452 151C202.054 153.185 203.627 155.389 204.884 157.718C205.552 158.929 206.098 160.181 206.616 161.46C206.784 161.871 206.95 162.284 207.12 162.699C207.973 164.79 209.055 166.664 209.497 168.712C209.804 170.055 210.074 171.399 210.327 172.746C210.077 171.338 209.818 169.996 209.535 168.704C209.072 166.521 207.982 164.649 207.196 162.669C206.238 160.221 205.3 158.04 204.023 156.036C203.648 155.431 203.256 154.836 202.856 154.248C202.097 153.135 201.314 152.055 200.503 150.962C197.228 146.245 193.415 141.644 186.848 138.498C186.598 138.378 186.357 138.261 186.106 138.139C181.188 135.499 176.517 134.059 171.955 133.182C165.494 132.08 159.588 132.2 154.641 132.592C148.142 133.255 142.581 133.344 138.91 134.816C137.768 135.414 136.712 135.98 135.737 136.528C132.588 138.288 130.28 139.921 128.5 141.426C125.439 144.011 123.543 145.729 121.802 147.452C120.765 148.466 119.601 149.821 118.312 151.346C115.344 155.867 112.951 162.469 111.353 166.07C111.213 166.405 111.072 166.729 110.937 167.025C110.366 168.326 110.067 169.346 109.921 169.302C109.799 169.266 109.859 168.201 110.386 166.792C110.508 166.48 110.644 166.143 110.789 165.797C112.375 162.263 114.531 156.045 117.825 150.937C119.584 148.801 121.394 146.845 122.97 145.424C124.242 144.259 125.641 143.011 128.09 140.948C129.819 139.489 132.2 137.768 135.699 135.832C136.603 135.328 137.575 134.808 138.618 134.262C142.603 132.671 148.015 132.65 154.581 131.969C159.583 131.575 165.462 131.444 172.081 132.569C176.65 133.438 181.519 134.957 186.44 137.605C186.671 137.718 186.889 137.823 187.118 137.933C193.796 141.13 197.701 145.823 201.009 150.591C201.696 151.515 202.364 152.433 203.026 153.386C203.431 153.971 203.832 154.566 204.222 155.175C204.225 155.178 204.227 155.182 204.229 155.186C205.648 157.332 206.75 159.772 207.78 162.438C208.539 164.359 209.657 166.272 210.148 168.573C210.773 171.292 211.142 174.279 211.882 177.462C211.931 177.659 211.982 177.856 212.036 178.053C214.342 181.616 218.605 184.057 222.101 187.146C225.297 189.645 227.653 193.095 229.67 196.503C231.538 199.649 233.055 202.893 234.698 205.826C238.44 214.314 239.872 222.033 241.042 226.145C241.225 226.864 241.439 227.465 241.625 227.949C242.126 229.25 242.734 230.479 243.253 231.85C243.307 231.992 243.36 232.135 243.412 232.28C244.479 235.527 243.844 239.277 243.557 244.634C243.356 248.478 242.879 253.148 242.105 259.165C242.031 259.716 241.953 260.288 241.867 260.87C241.474 263.554 242.719 266.641 244.239 269.746C244.573 270.44 244.937 271.087 245.206 271.922C245.597 273.565 245.431 275.014 245.286 276.477C245.261 276.929 244.891 277.502 244.467 277.704C244.055 277.926 243.696 277.978 243.377 278.035C240.28 278.455 237.572 277.793 235.438 278.953C235.12 279.106 234.817 279.259 234.517 279.418C233.368 280.029 232.328 280.724 231.369 281.517C230.381 282.24 229.642 283.42 227.868 283.809C227.439 283.883 227.057 283.978 226.759 284.12C226.638 284.176 226.532 284.247 226.505 284.277C226.492 284.29 226.507 284.29 226.543 284.226C226.58 284.167 226.613 284.008 226.586 283.899C226.642 284.243 227.203 284.616 227.958 284.835C228.953 285.134 230.115 285.259 231.294 285.397C231.754 285.451 232.225 285.505 232.707 285.578C234.999 285.899 237.464 286.086 239.815 286.491C240.122 286.542 240.428 286.594 240.739 286.65C241.774 286.855 242.844 286.842 244.278 287.232C245.373 287.591 245.811 288.485 246.034 289.113C246.221 289.647 246.29 290.23 246.289 290.734C245.716 295.96 244.929 300.764 244.7 306.83C244.53 310.851 243.275 314.574 242.817 318.748C242.559 320.704 242.056 322.72 241.242 324.685C239.909 327.918 237.855 330.729 235.371 332.886C232.885 334.998 231.693 336.972 228.951 340.023C228.201 340.534 227.686 340.513 227.38 340.569C227.076 340.596 226.887 340.656 227.062 340.595C227.039 340.611 227.091 340.558 227.041 340.618C226.999 340.674 226.913 340.839 226.836 341.05C226.677 341.479 226.532 342.05 226.392 342.613C226.113 343.759 225.838 344.933 225.533 346.088C224.932 348.384 224.243 350.595 223.509 352.707C223.081 353.938 222.761 355.186 222.52 356.436C222.778 355.111 223.111 353.867 223.518 352.71C224.443 350.073 225.179 347.616 225.768 345.326C226.063 344.193 226.321 343.074 226.579 342.097C226.708 341.611 226.846 341.155 226.977 340.869C227.041 340.728 227.099 340.648 227.111 340.639C227.127 340.628 227.079 340.668 227.091 340.661C226.923 340.726 227.047 340.677 227.266 340.66C227.492 340.629 227.826 340.622 228.355 340.434C228.55 340.361 228.775 340.254 229 340.089C229.475 339.719 229.589 339.533 229.775 339.327C229.942 339.128 230.084 338.948 230.222 338.773C230.498 338.419 230.746 338.095 230.996 337.777C232.508 335.834 233.961 334.289 235.467 332.997C238.116 330.704 239.973 328.063 241.274 325.074C242.193 322.94 242.729 320.805 243.004 318.773C243.519 314.377 244.793 310.672 244.967 306.846C245.168 299.29 246.86 295.484 246.463 288.973C246.22 288.282 245.736 287.234 244.417 286.791C242.892 286.368 241.854 286.386 240.831 286.179C240.006 286.029 239.18 285.895 238.346 285.776C236.572 285.513 234.642 285.357 232.791 285.088C231.72 284.926 230.705 284.841 229.721 284.692C229.042 284.589 228.373 284.458 227.838 284.261C227.574 284.165 227.352 284.048 227.232 283.954C227.107 283.853 227.104 283.835 227.083 283.791C227.137 284.01 227.079 284.313 226.998 284.453C226.919 284.602 226.86 284.643 226.842 284.659C226.803 284.685 226.875 284.627 226.966 284.585C227.195 284.473 227.534 284.383 227.946 284.311C230.29 283.721 230.912 282.365 232.062 281.602C233.139 280.75 234.329 280.024 235.642 279.39C236.971 278.723 238.478 278.617 240.282 278.663C241.255 278.676 242.33 278.692 243.449 278.51C243.783 278.45 244.181 278.402 244.698 278.128C245.232 277.884 245.741 277.1 245.766 276.539C245.91 275.044 246.104 273.621 245.677 271.79C244.081 267.918 241.847 264.655 242.246 260.927C242.368 260.038 242.479 259.139 242.586 258.235C242.586 258.231 242.586 258.228 242.587 258.224C242.782 256.564 242.963 254.882 243.131 253.185C243.403 250.382 243.675 247.55 243.8 244.646C243.876 240.655 244.855 236.501 243.602 232.214C242.84 230.073 241.748 228.15 241.231 226.098C240.86 224.649 240.481 223.2 240.095 221.76C239.8 220.662 239.441 219.348 239.013 217.843C238.029 214.628 237.068 210.43 234.799 205.769C233.219 202.979 231.71 199.749 229.759 196.45C227.835 193.219 225.563 189.724 222.187 187.045C220.02 185.201 217.684 183.416 215.405 181.455C214.254 180.415 212.814 179.29 212.258 177.993C211.582 175.367 211.285 172.478 210.674 169.399C210.617 169.101 210.558 168.803 210.496 168.499C210.244 167.232 209.778 165.976 209.244 164.745C208.896 163.933 208.53 163.119 208.205 162.27C206.935 158.462 204.636 154.357 201.543 150.2C199.641 147.457 197.416 144.342 194.291 141.673C192.333 139.982 190.044 138.445 187.466 137.206C183.067 134.886 177.789 132.752 172.245 131.766C169.161 131.167 166.033 130.991 162.867 130.905C160.099 130.845 157.304 130.894 154.503 131.151C151.269 131.456 148.016 131.698 144.777 132.079C142.594 132.383 140.462 132.527 138.238 133.541C134.478 135.507 130.773 137.616 127.585 140.36C123.898 143.497 120.304 146.865 117.419 150.595C114.067 155.936 112.32 161.288 109.961 166.613C109.887 166.787 109.818 166.964 109.754 167.138C109.753 167.141 109.752 167.145 109.751 167.148C109.062 169.124 108.736 170.651 108.561 170.555C108.423 170.449 108.485 168.759 109.26 166.673C109.299 166.574 109.341 166.47 109.383 166.37C111.768 161.009 113.413 155.801 116.939 150.193C119.821 146.463 123.49 143.019 127.177 139.885C130.422 137.092 134.179 134.958 137.946 132.987C140.446 131.859 142.58 131.761 144.837 131.442C148.04 131.069 151.249 130.829 154.444 130.528C157.265 130.27 160.068 130.22 162.853 130.279C166.048 130.366 169.193 130.537 172.37 131.153C177.902 132.128 183.384 134.338 187.736 136.642C190.461 137.95 192.875 139.59 194.92 141.39C197.988 144.058 200.205 147.172 202.049 149.829C205.135 153.966 207.529 158.238 208.79 162.039C209.197 163.102 209.678 164.126 210.114 165.191C210.541 166.228 210.897 167.302 211.112 168.367C211.237 168.985 211.354 169.59 211.462 170.183C211.987 173.008 212.279 175.579 212.865 177.828C213.259 178.765 214.877 180.167 216.087 181.215C218.265 183.071 220.498 184.787 222.592 186.568C226.033 189.299 228.372 192.895 230.299 196.133C232.27 199.467 233.788 202.714 235.345 205.46C237.545 209.93 238.43 213.777 239.395 216.894C239.842 218.443 240.219 219.807 240.533 220.971C240.979 222.62 241.415 224.282 241.842 225.947C242.329 227.892 243.408 229.799 244.198 232.008C245.523 236.601 244.493 240.706 244.431 244.676C244.323 247.251 244.093 249.74 243.861 252.219C243.7 253.901 243.526 255.572 243.338 257.23C243.338 257.233 243.338 257.236 243.337 257.24C243.194 258.505 243.043 259.766 242.872 261.021C242.503 264.401 244.575 267.508 246.286 271.62C246.757 273.68 246.535 275.072 246.391 276.62C246.368 277.321 245.679 278.381 245 278.681C244.347 279.025 243.898 279.067 243.544 279.134C242.681 279.273 241.85 279.3 241.092 279.3C238.838 279.257 237.272 279.265 235.909 279.964C234.618 280.589 233.473 281.293 232.438 282.115C231.914 282.528 231.434 282.966 230.839 283.477C230.266 283.953 229.372 284.722 228.045 284.942C227.655 285.009 227.37 285.093 227.225 285.169C227.172 285.193 227.144 285.233 227.264 285.139C227.322 285.086 227.436 284.994 227.569 284.74C227.705 284.499 227.797 284.015 227.708 283.656C227.697 283.53 227.579 283.412 227.66 283.474C227.731 283.523 227.949 283.631 228.223 283.717C229.418 284.098 231.1 284.19 232.899 284.458C234.239 284.659 235.72 284.79 237.196 284.981C238.454 285.14 239.703 285.329 240.953 285.558C241.937 285.761 242.935 285.728 244.607 286.189C246.234 286.742 246.787 288.002 247.061 288.776C247.703 290.986 247.173 292.332 247.035 293.612C246.827 294.887 246.621 296.183 246.442 297.545C246.08 300.286 245.797 303.338 245.592 306.884C245.401 310.856 244.125 314.534 243.624 318.858C243.344 320.928 242.799 323.105 241.868 325.277ZM114.825 161.493C116.583 157.567 118.155 153.917 119.363 152.228C119.492 152.074 119.616 151.924 119.735 151.778C119.612 151.926 119.487 152.075 119.36 152.225C118.404 153.508 117.38 155.801 116.483 157.742C115.921 158.981 115.37 160.237 114.825 161.493ZM243.923 270.536C243.587 269.854 243.24 269.166 242.913 268.466C243.451 269.689 244.135 270.865 244.553 272.105C244.75 272.854 244.752 273.654 244.731 274.438C244.708 275.089 244.65 275.738 244.568 276.384C244.528 277.01 243.844 277.227 243.265 277.3C241.942 277.508 240.593 277.4 239.246 277.402C240.609 277.404 241.959 277.513 243.267 277.31C243.849 277.238 244.541 277.016 244.582 276.386C244.753 274.933 244.893 273.459 244.575 272.099C244.414 271.558 244.161 271.046 243.923 270.536ZM240.651 324.479C241.453 322.548 241.944 320.575 242.196 318.663C242.665 314.426 243.916 310.681 244.069 306.792C244.307 301.582 244.775 296.998 245.48 292.602C245.603 291.597 245.824 290.492 245.426 289.313C245.236 288.774 244.874 288.093 244.085 287.841C242.958 287.524 241.948 287.502 240.969 287.334C240.851 287.315 240.734 287.296 240.617 287.275C239.724 287.115 238.825 286.975 237.921 286.852C238.83 286.994 239.728 287.152 240.607 287.326C241.722 287.562 242.855 287.596 244.05 287.952C244.789 288.199 245.116 288.845 245.288 289.359C245.787 292.866 244.607 295.354 244.436 297.907C244.005 301.163 243.769 304.091 243.596 306.763C243.211 311.59 241.925 315.209 241.57 318.578C241.204 321.136 240.48 323.365 239.5 325.351C238.619 327.128 237.532 328.717 236.223 330.155C235.694 330.758 235.115 331.343 234.502 331.89C233.899 332.43 233.314 333 232.748 333.597C231.152 335.21 229.979 337.116 228.236 339.048C228.139 339.12 228.038 339.173 227.941 339.213C227.33 339.439 226.817 339.38 226.572 339.508C225.946 339.759 225.685 340.722 225.446 341.621C225.213 342.539 225.007 343.5 224.784 344.431C224.227 346.793 223.571 349.113 222.824 351.392C222.718 351.716 222.613 352.03 222.501 352.36C221.905 354.12 221.513 355.937 221.263 357.724C221.246 357.844 221.229 357.965 221.214 358.086C220.922 360.316 220.836 362.517 220.805 364.548C220.773 366.618 220.793 368.346 220.716 369.914C220.655 370.988 220.58 372.082 220.214 373.23C219.679 374.444 218.956 374.889 218.326 375.541C217.361 376.448 216.434 377.323 215.637 378.285C215.481 378.462 215.29 378.675 214.903 378.813C214.511 378.967 213.973 378.824 213.728 378.629C213.218 378.238 213.079 377.876 212.908 377.532C212.85 377.403 212.8 377.276 212.754 377.149C212.128 375.176 212.085 373.387 211.946 371.557C211.908 370.931 211.875 370.277 211.848 369.658C211.836 369.37 211.824 369.088 211.813 368.803C211.943 371.484 211.822 374.137 212.665 377.179C212.82 377.592 212.96 378.001 213.395 378.485C213.603 378.708 214.063 379.064 214.682 378.983C215.271 378.886 215.536 378.576 215.73 378.364C215.997 378.052 216.28 377.746 216.574 377.445C217.719 376.137 219.118 375.586 220.422 373.302C221.601 368.633 220.849 364.268 221.437 359.529C221.679 357.2 222.11 354.829 222.917 352.503C223.646 350.406 224.328 348.215 224.925 345.938C225.229 344.791 225.501 343.628 225.783 342.471C226.043 341.364 226.444 340.042 226.805 340.024C226.79 340.021 227.012 339.978 227.304 339.948C227.596 339.9 228.025 339.9 228.581 339.518C231.035 336.758 232.455 334.537 234.959 332.414C237.352 330.336 239.347 327.624 240.651 324.479ZM201.554 313.413C202.109 314.978 203.033 317.178 203.99 320.06C204.216 320.743 204.443 321.467 204.667 322.23C204.662 322.212 204.657 322.193 204.652 322.175C204.115 320.278 203.537 318.559 202.852 316.701C202.005 314.404 201.1 312.102 200.488 309.695C200.229 308.691 199.937 307.695 199.611 306.707C199.032 304.954 198.354 303.235 197.562 301.581C197.357 301.128 196.868 300.563 196.635 300.451C196.425 300.257 195.638 300.633 194.905 301.159C193.887 301.861 192.757 302.677 191.405 303.126C189.131 303.865 186.847 304.027 184.614 304.163C182.97 304.25 181.351 304.281 179.73 304.291C177.527 304.24 175.765 303.286 174.083 302.362C173.089 301.795 172.137 301.179 171.201 300.553C173.296 301.933 175.461 303.502 178.418 304.203C178.835 304.288 179.272 304.343 179.73 304.343C181.574 304.339 183.478 304.312 185.482 304.186C186.412 304.124 187.538 304.04 188.865 303.83C189.653 303.703 190.517 303.529 191.438 303.226C192.472 302.888 193.457 302.299 194.381 301.661C195.243 301.039 196.433 300.314 196.582 300.564C196.75 300.636 197.251 301.19 197.449 301.636C198.566 303.972 199.585 306.685 200.387 309.722C200.706 310.939 201.104 312.173 201.554 313.413ZM177.513 282.189C177.315 281.884 177.107 281.574 176.899 281.251C176.709 280.957 176.485 280.694 176.229 280.461C174.856 279.196 172.642 278.988 170.429 278.095C170.062 277.94 169.693 277.757 169.333 277.526C168.264 276.846 167.308 275.957 166.56 274.973C166.145 274.433 165.786 273.872 165.457 273.332C164.991 272.568 164.575 271.843 164.102 271.232C163.992 271.089 163.887 270.943 163.786 270.794C163.886 270.944 163.991 271.09 164.1 271.234C165.445 273.108 166.756 276.051 169.316 277.554C172.392 279.29 175.574 279.117 176.838 281.29C177.585 282.452 178.331 283.515 178.597 284.566C178.615 284.639 178.632 284.712 178.645 284.784C178.517 283.948 178.042 283.062 177.513 282.189Z" fill="white"/>
</svg>
