<?xml version="1.0" encoding="UTF-8"?>
<svg id="Layer_1" xmlns="http://www.w3.org/2000/svg" xmlns:xlink="http://www.w3.org/1999/xlink" version="1.1" viewBox="0 0 557.45 368.5">
  <!-- Generator: Adobe Illustrator 30.0.0, SVG Export Plug-In . SVG Version: 2.1.1 Build 123)  -->
  <defs>
    <style>
      .st0 {
        fill: none;
      }

      .st1 {
        fill: #e31f28;
      }

      .st2 {
        clip-path: url(#clippath-1);
      }

      .st3 {
        fill: #fff;
      }

      .st4 {
        clip-path: url(#clippath);
      }
    </style>
    <clipPath id="clippath">
      <rect id="SVGID" class="st0" x="40.07" y="25.19" width="481.23" height="318.12"/>
    </clipPath>
    <clipPath id="clippath-1">
      <rect id="SVGID1" data-name="SVGID" class="st0" x="40.07" y="25.19" width="481.23" height="318.12"/>
    </clipPath>
  </defs>
  <g class="st4">
    <g class="st2">
      <path class="st3" d="M185.05,42.19c-78.34,0-142.07,63.73-142.07,142.05s63.73,142.07,142.07,142.07h191.33c78.33,0,142.05-63.73,142.05-142.07s-63.73-142.05-142.05-142.05h-191.33Z"/>
      <path class="st3" d="M376.39,329.2h-191.33c-79.93,0-144.96-65.02-144.96-144.95S105.12,39.31,185.05,39.31h191.33c79.92,0,144.94,65.02,144.94,144.94s-65.02,144.95-144.94,144.95M185.05,42.19c-78.34,0-142.07,63.73-142.07,142.05s63.73,142.07,142.07,142.07h191.33c78.33,0,142.05-63.73,142.05-142.07s-63.73-142.05-142.05-142.05h-191.33Z"/>
      <path class="st1" d="M409.83,175.57l63.62,75.67c13.18-19.04,20.92-42.13,20.92-66.99,0-26.24-8.62-50.51-23.17-70.13l-61.37,61.46Z"/>
      <path class="st1" d="M229.54,107.73c47.51,0,83.31,12.09,87,52.12l50-52.13h99.57c-21.66-25.35-53.85-41.46-89.73-41.46h-191.33c-35.89,0-68.09,16.1-89.75,41.46h134.23Z"/>
      <path class="st1" d="M151.26,158.19l-16.97,46.65h68.46c20.24,0,26.36-8.38,30.89-24.51,4.48-15.95-6.78-22.14-20.61-22.14h-61.77Z"/>
      <path class="st1" d="M366.96,257.61l-52.89-66.83c-9.78,45.57-41.79,66.83-101.8,66.83h-119.59c21.63,27.18,55,44.65,92.36,44.65h191.33c37.36,0,70.71-17.45,92.34-44.64h-101.77Z"/>
    </g>
  </g>
</svg>