<svg width="14" height="16" viewBox="0 0 14 16" fill="none" xmlns="http://www.w3.org/2000/svg">
<path d="M10.1501 9.83551C10.3173 9.7814 10.4779 9.74886 10.6791 9.70807C10.6792 9.70804 10.6793 9.70801 10.6795 9.70798C10.7084 9.70208 10.7372 9.69637 10.7675 9.69017C10.9962 9.64258 11.373 9.56636 11.6668 9.44962C11.7012 9.43592 11.7225 9.42421 11.7073 9.4405L11.5759 10.6918C11.3767 10.421 11.1422 10.125 11.0237 9.93492C10.9981 9.89424 10.9683 9.85722 10.8771 9.76606C10.8173 9.70634 10.7435 9.63462 10.622 9.51966C10.5596 9.46044 10.4902 9.39485 10.4028 9.31296C10.1212 9.04799 9.65313 8.65349 9.2177 8.29387C8.95055 8.07293 8.69952 7.86738 8.51222 7.70979C8.23396 7.47573 7.97151 7.2434 7.68843 6.99349C7.42555 6.76166 7.14601 6.51566 6.81563 6.23643C6.56175 6.02186 6.34317 5.77858 6.12492 5.52807C6.09707 5.49613 6.06912 5.46401 6.04113 5.43182C5.84816 5.20977 5.65126 4.9831 5.42136 4.75816C5.01191 4.35746 4.64404 4.08672 4.23796 3.78723C4.07809 3.66924 3.91528 3.54922 3.73797 3.41201C3.4614 3.19816 3.06894 2.87474 2.68077 2.55147C2.64778 2.52399 2.61363 2.49564 2.58033 2.46787C2.58016 2.46773 2.57999 2.46759 2.57982 2.46745C2.22453 2.17123 1.87271 1.87546 1.61356 1.66511C1.19902 1.32843 1.03306 1.21257 0.89648 1.11829C0.877007 1.10483 0.858156 1.0918 0.839308 1.07861L0.811832 1.05285C0.78171 1.02715 0.751539 1.00072 0.718796 0.970504C0.527093 0.79534 0.270898 0.49925 0.0280561 0.202806C0.0271149 0.201682 0.0261729 0.200557 0.0252302 0.199431C-0.0153325 0.150167 -0.00477662 0.0745849 0.0484339 0.0304774C0.101837 -0.0134185 0.177616 -0.00939255 0.217932 0.0395748C0.346541 0.195816 0.47389 0.348145 0.593134 0.481331C0.643767 0.448938 0.709079 0.455002 0.746968 0.49781C0.795404 0.552342 0.904124 0.656376 1.07228 0.79915C1.24503 0.920808 1.47609 1.07913 1.7565 1.26791C1.72712 1.22908 1.70371 1.1956 1.68381 1.16575C1.66046 1.13071 1.64347 1.10315 1.62889 1.07952C1.59855 1.0303 1.57847 0.997741 1.53532 0.949754C1.45401 0.871309 1.33302 0.764579 1.20448 0.65202L1.21408 0.661022C1.17138 0.616212 1.12759 0.569754 1.08358 0.522177C1.04121 0.47636 1.04867 0.401119 1.09974 0.354611C1.15087 0.308098 1.22536 0.306956 1.2666 0.351503C1.26742 0.352371 1.26824 0.353237 1.26905 0.354104C1.31053 0.398924 1.35227 0.443214 1.39338 0.486365L1.36725 0.461867C1.49762 0.576013 1.62477 0.688091 1.70914 0.769824C1.73739 0.797265 1.76137 0.82171 1.77911 0.840492C1.79329 0.855505 1.81091 0.874501 1.81925 0.886839C1.82036 0.88848 1.82243 0.891651 1.82467 0.895717C1.82469 0.895794 1.82473 0.895873 1.82475 0.895951C1.82601 0.898216 1.83245 0.909752 1.83602 0.926047C1.83674 0.929338 1.83823 0.936585 1.83862 0.946599C1.83958 0.948158 1.84055 0.949717 1.84152 0.951276C1.85501 0.972985 1.86885 0.995178 1.8845 1.01859C1.94805 1.11197 2.04403 1.24328 2.28693 1.49887C2.50434 1.72895 2.90982 2.08694 3.42798 2.51229C3.39674 2.47996 3.36442 2.44695 3.33213 2.41419C3.25089 2.33181 3.16929 2.25041 3.08812 2.16993C3.0569 2.13901 3.02687 2.10916 2.99448 2.07743C2.943 2.02686 2.89162 1.97649 2.84053 1.92648C2.806 1.89269 2.77153 1.85899 2.73728 1.82544C2.7372 1.82537 2.73711 1.8253 2.73703 1.82523C2.68977 1.77889 2.64159 1.73169 2.59256 1.68353C2.57556 1.66664 2.55878 1.65003 2.54214 1.6336C2.47591 1.56821 2.41139 1.50446 2.34203 1.42704C2.33402 1.41711 2.32573 1.406 2.31929 1.39713C2.31247 1.38774 2.30601 1.3786 2.30005 1.3698C2.2948 1.36204 2.2899 1.35452 2.28517 1.34737C2.28453 1.34641 2.28389 1.34546 2.28325 1.3445C2.27795 1.3365 2.27284 1.32893 2.26791 1.32168C2.26298 1.31445 2.25825 1.30748 2.25341 1.30084C2.25336 1.30079 2.2533 1.30074 2.25325 1.3007C2.24817 1.29378 2.24431 1.28855 2.23869 1.28154C2.23162 1.27275 2.22543 1.26535 2.2177 1.25669C2.21023 1.2483 2.20229 1.23976 2.19416 1.23129C2.18603 1.22282 2.17765 1.21435 2.16908 1.20586C2.1605 1.19735 2.15174 1.18879 2.14286 1.18025C2.13398 1.17173 2.12493 1.16319 2.11584 1.15461C2.10675 1.14602 2.09757 1.13736 2.08834 1.1287C2.0671 1.10875 2.05474 1.08028 2.05431 1.04918C2.05389 1.01809 2.06525 0.98697 2.08598 0.962284C2.10693 0.937788 2.13569 0.921488 2.16631 0.916872C2.19693 0.912276 2.22689 0.919835 2.24991 0.937592C2.25617 0.942429 2.2625 0.947267 2.26882 0.952166C2.27258 0.955074 2.27634 0.95805 2.28011 0.960985C2.29026 0.968874 2.30056 0.976821 2.31084 0.984958C2.3211 0.993088 2.3314 1.0014 2.34177 1.00989C2.35218 1.0184 2.36268 1.02712 2.37318 1.03615C2.38367 1.04517 2.39427 1.05457 2.40485 1.06437C2.41519 1.07391 2.42675 1.08513 2.43682 1.09552C2.44421 1.10307 2.45302 1.11279 2.46029 1.12099C2.46788 1.12954 2.47521 1.13816 2.4822 1.14657C2.4892 1.15501 2.49587 1.16333 2.50226 1.17125C2.50295 1.17209 2.50364 1.17293 2.50433 1.17377C2.51 1.18079 2.51539 1.18752 2.52035 1.19363C2.52595 1.20052 2.53136 1.20692 2.5366 1.21289C2.54235 1.2195 2.54604 1.22329 2.5506 1.22789C2.61356 1.28556 2.69592 1.35295 2.77541 1.41791C2.7854 1.42608 2.79533 1.43422 2.80517 1.44228C2.85791 1.48525 2.90954 1.52705 2.96088 1.56855C2.99831 1.59882 3.03597 1.62922 3.07379 1.65983C3.12944 1.70488 3.18553 1.75043 3.24181 1.79627C3.27713 1.82506 3.3098 1.85177 3.34412 1.87992C3.43325 1.953 3.52311 2.02731 3.61311 2.10313C3.70313 2.17897 3.79025 2.25378 3.87864 2.33192C3.96623 2.40938 4.05746 2.49258 4.14087 2.57375C4.2026 2.63392 4.26278 2.70001 4.3178 2.76241C4.34736 2.79595 4.37622 2.82905 4.40463 2.86178C4.40472 2.86191 4.40481 2.86203 4.4049 2.86216C4.42992 2.89096 4.45388 2.9188 4.47827 2.94658C4.53037 3.00605 4.5825 3.06367 4.63594 3.11996C4.68925 3.17617 4.74378 3.23099 4.79974 3.28454C4.85491 3.33737 4.91227 3.38977 4.97024 3.44045C5.0285 3.49139 5.0868 3.54025 5.14896 3.59069C5.23098 3.65707 5.31265 3.72057 5.39747 3.78609C5.48159 3.85097 5.56701 3.916 5.65259 3.98111C5.68246 4.00383 5.71234 4.02666 5.74232 4.04944C5.74244 4.04954 5.74255 4.04962 5.74266 4.04972C5.79813 4.09186 5.85376 4.13412 5.9094 4.1765C5.99529 4.24193 6.08131 4.30768 6.16731 4.3742C6.25328 4.4407 6.33938 4.50803 6.42504 4.57665C6.51052 4.64519 6.59822 4.71701 6.68362 4.79165C6.75991 4.85818 6.83597 4.92604 6.91013 4.99234C6.92968 5.00981 6.94953 5.02753 6.96921 5.04512C7.0628 5.12861 7.15375 5.2085 7.24568 5.28445C7.33702 5.36005 7.43231 5.43436 7.52908 5.50624C7.62594 5.57823 7.72387 5.64767 7.82592 5.71838C7.92812 5.78916 8.02952 5.85742 8.13291 5.926C8.23455 5.9932 8.34123 6.06344 8.44651 6.13165C8.50526 6.16978 8.5668 6.21107 8.62427 6.25041C8.68253 6.29034 8.74138 6.33171 8.79818 6.37194C8.8213 6.38831 8.84421 6.40465 8.86694 6.4208C8.90009 6.44436 8.93282 6.46768 8.96506 6.49043C9.01951 6.52886 9.07229 6.5655 9.12612 6.60183C9.17943 6.63774 9.23167 6.67148 9.28309 6.70248C9.33632 6.73453 9.38114 6.75945 9.43591 6.7874C9.56498 6.86077 9.64313 6.91542 9.72642 6.97314C9.74292 6.98458 9.75979 6.9962 9.77734 7.00826C9.87579 7.07725 9.97619 7.15141 10.0723 7.22457C10.1698 7.29893 10.2601 7.36988 10.3572 7.4489C10.4519 7.52591 10.5426 7.60201 10.6338 7.68084C10.7271 7.76139 10.8173 7.84156 10.9045 7.92161C10.9936 8.0032 11.0865 8.09066 11.1695 8.1717C11.2166 8.2177 11.2707 8.2717 11.3186 8.3207C11.3532 8.35613 11.3868 8.3909 11.4191 8.42467C11.4324 8.43847 11.4454 8.45212 11.4583 8.46558C11.5006 8.51019 11.5502 8.56087 11.5932 8.60438C11.6371 8.64869 11.6793 8.69016 11.7208 8.72892C11.7616 8.76699 11.8091 8.80916 11.853 8.84592C11.8992 8.88459 11.9376 8.91521 11.987 8.95217C12.0196 8.97659 12.0553 9.00399 12.088 9.02888C12.1377 9.06672 12.1858 9.10325 12.2329 9.13902C12.283 9.1776 12.3346 9.21796 12.3829 9.25549C12.3986 9.26766 12.4149 9.28039 12.4303 9.29233C12.4755 9.32682 12.5327 9.37392 12.5807 9.41218C12.6291 9.45081 12.6787 9.49112 12.7323 9.53699C12.7665 9.56607 12.7994 9.59425 12.8316 9.62234L13.3498 10.3247L12.7136 10.7473C12.6834 10.7748 12.6504 10.8021 12.6229 10.8241C12.4807 10.9364 12.3694 10.9936 12.2754 11.0411C12.1803 11.088 12.0986 11.1225 12.0194 11.1548C12.0048 11.1607 11.9901 11.1666 11.9753 11.1725C11.9128 11.1974 11.8527 11.2205 11.7935 11.2433C11.7222 11.2707 11.6522 11.2977 11.5835 11.3246C11.5154 11.3513 11.4474 11.3784 11.3815 11.4056C11.3147 11.4332 11.2519 11.4599 11.1844 11.4896C11.118 11.5188 11.0517 11.5505 10.9787 11.5853C10.9073 11.6196 10.8322 11.6554 10.7556 11.6903C10.6799 11.725 10.6028 11.7589 10.5249 11.7914C10.4485 11.8234 10.3705 11.8544 10.2934 11.8838C10.2166 11.9131 10.1388 11.9414 10.0626 11.9683C9.98507 11.9957 9.90689 12.0223 9.83223 12.047C9.71198 12.0868 9.59129 12.1267 9.47241 12.1665C9.45344 12.1729 9.43438 12.1793 9.41524 12.1857C9.3096 12.2214 9.20496 12.2566 9.1017 12.2912C8.97848 12.3326 8.86053 12.372 8.73707 12.4134C8.612 12.4554 8.48884 12.4967 8.36774 12.5374C8.34095 12.5464 8.31426 12.5554 8.28766 12.5643C8.19563 12.5952 8.09756 12.6284 8.00203 12.6609C8.00137 12.6611 8.00071 12.6613 8.00004 12.6615C7.87707 12.7034 7.75834 12.7439 7.64061 12.7849C7.59858 12.7995 7.55314 12.8155 7.50981 12.8309C7.46598 12.8465 7.4233 12.8619 7.38057 12.8775C7.3378 12.8932 7.29563 12.9089 7.25447 12.9245C7.21287 12.9404 7.17269 12.956 7.13257 12.9722C7.09581 12.987 7.0599 13.0021 7.01786 13.0196C7.01408 13.0212 7.01031 13.0227 7.00654 13.0243C6.96131 13.0432 6.91 13.0639 6.86217 13.0815C6.73417 13.1286 6.61883 13.1722 6.49112 13.2219C6.36441 13.2712 6.24116 13.3205 6.11985 13.3697C6.07402 13.3883 6.02143 13.4098 5.97265 13.4297C5.8958 13.4611 5.81984 13.4922 5.74473 13.5229C5.62474 13.572 5.49105 13.626 5.36631 13.6754C5.24306 13.7241 5.11225 13.7747 4.98495 13.8224C4.85963 13.8694 4.72973 13.9169 4.60151 13.9625C4.46229 14.0118 4.31736 14.0631 4.17694 14.1128C4.04199 14.1601 3.8898 14.2149 3.75517 14.2627C3.61022 14.3149 3.47665 14.3626 3.33233 14.4156C3.19214 14.4667 3.05141 14.5188 2.9139 14.5701C2.83446 14.5996 2.7444 14.6342 2.66466 14.6644C2.62684 14.6886 2.58676 14.7139 2.54976 14.7375C2.28065 14.9106 2.09008 15.0373 1.83994 15.1925C1.81652 15.2084 1.79889 15.2227 1.77808 15.2399C1.77411 15.2432 1.76991 15.2466 1.76567 15.2501C1.73604 15.2738 1.70232 15.3002 1.65731 15.3305C1.5628 15.3939 1.41232 15.4763 1.2239 15.5338C1.17993 15.546 1.11721 15.5098 1.08526 15.4494C1.06203 15.4077 1.06393 15.3629 1.08259 15.3359C1.02904 15.3629 0.977556 15.3908 0.940695 15.4112C0.926598 15.4188 0.908181 15.4147 0.887414 15.4006C0.866758 15.3863 0.84383 15.3644 0.820136 15.3426C0.796784 15.3205 0.775508 15.2988 0.769259 15.2742C0.761333 15.2512 0.769707 15.2276 0.786286 15.2145C0.832147 15.1781 0.891979 15.1366 0.948448 15.0996C1.00777 15.0607 1.06769 15.0233 1.13226 14.9843C1.19323 14.9474 1.25956 14.9085 1.3235 14.8718C1.39173 14.8327 1.45291 14.7984 1.52128 14.7607C1.58495 14.7255 1.6564 14.6866 1.72058 14.6522C1.75999 14.631 1.80509 14.6072 1.84357 14.5868C1.85816 14.5792 1.87253 14.5715 1.8871 14.5638C1.89901 14.5576 1.91111 14.5513 1.92368 14.5448C2.05719 14.475 2.19172 14.4064 2.32201 14.341C2.46092 14.2715 2.59051 14.2076 2.72625 14.1417C2.86036 14.0766 2.99618 14.0115 3.1329 13.9469C3.27228 13.8811 3.40336 13.8196 3.54331 13.7549C3.6742 13.694 3.82171 13.6267 3.95264 13.5667C4.05609 13.5193 4.16998 13.4677 4.26998 13.422C4.3089 13.3988 4.34799 13.3759 4.38709 13.3534C4.50255 13.2871 4.61293 13.2174 4.72226 13.1488C4.52088 13.2429 4.34904 13.3327 4.20039 13.4126C4.18058 13.4233 4.15963 13.4345 4.13845 13.4457C3.92572 13.5588 3.7247 13.6643 3.44361 13.7819C2.64355 14.1174 2.18584 14.3307 1.89823 14.4563C1.61152 14.5824 1.48653 14.624 1.35198 14.6436C1.16478 14.6687 0.849625 14.8107 0.712351 14.911C0.664551 14.9446 0.588629 14.9332 0.546464 14.8785C0.501419 14.8259 0.513763 14.7446 0.566952 14.7072C0.725795 14.5913 1.07578 14.4313 1.30411 14.3997C1.40116 14.3879 1.51114 14.3532 1.79539 14.2282C2.08247 14.1028 2.54006 13.8893 3.34577 13.5514C3.61784 13.4376 3.813 13.3355 4.02317 13.2236C4.0438 13.2126 4.06587 13.201 4.08591 13.1902C4.08604 13.1901 4.08617 13.1901 4.0863 13.19C4.27208 13.0904 4.48304 12.9791 4.77405 12.8505C5.44245 12.5537 6.34026 12.1594 6.54879 12.0535C6.59031 12.0324 6.63046 12.0112 6.67314 11.9887C6.82534 11.9072 7.03018 11.8004 7.47157 11.6159C7.56905 11.5752 7.69025 11.5275 7.81588 11.4796C7.99164 11.3781 8.16789 11.2795 8.32741 11.2009C8.45921 11.1352 8.57621 11.0609 8.69095 10.9845C8.72394 10.9625 8.75717 10.94 8.79053 10.9175C8.83383 10.8883 8.87742 10.859 8.92121 10.8306C8.95879 10.8062 8.99602 10.7826 9.03285 10.7605C9.09643 10.7224 9.16349 10.6802 9.23375 10.6361C9.49046 10.4754 9.80236 10.2857 10.2396 10.1452C10.7022 9.99627 11.1018 9.89089 11.4172 9.79505C11.1834 9.85953 10.9859 9.90038 10.8228 9.93401C10.7923 9.9402 10.7625 9.94624 10.7335 9.95218C10.5313 9.99309 10.3822 10.0234 10.2275 10.0735C9.48748 10.3137 9.21326 10.436 8.92314 10.6049C8.90079 10.618 8.87776 10.6318 8.85406 10.6464C8.79674 10.6816 8.73654 10.7201 8.67371 10.7606C8.49455 10.8754 8.30539 11.0012 8.0738 11.1192C7.86383 11.2269 7.63778 11.3554 7.3922 11.4947C7.39209 11.4947 7.39199 11.4948 7.39189 11.4948C7.3446 11.5218 7.2971 11.5489 7.24955 11.5761C6.95179 11.7451 6.64574 11.9188 6.33419 12.075C6.30149 12.0914 6.26273 12.1117 6.21867 12.1349C5.9544 12.2727 5.50431 12.5097 4.90924 12.7095C4.78521 12.7507 4.63626 12.7925 4.48206 12.8342C4.43414 12.8473 4.3874 12.8597 4.33264 12.8754C4.1038 12.9404 3.83543 13.0205 3.48125 13.1532C3.19456 13.2604 2.83923 13.4081 2.47859 13.5654C2.30159 13.6425 2.11738 13.7247 1.94219 13.8041C1.40091 14.0548 0.914774 14.2647 0.41548 14.5952C0.415372 14.5953 0.415264 14.5953 0.415155 14.5954C0.354161 14.6377 0.268949 14.6345 0.225896 14.5804C0.18235 14.5267 0.20548 14.436 0.272794 14.3894C0.807349 14.0363 1.29047 13.8308 1.83737 13.5768C2.01192 13.4977 2.19587 13.4156 2.37353 13.3381C2.7383 13.179 3.10094 13.0282 3.39128 12.9196C3.7528 12.7841 4.02668 12.7025 4.26059 12.6359C4.31702 12.6199 4.36581 12.6069 4.41505 12.5934C4.56928 12.5514 4.70802 12.5129 4.82669 12.4734C5.40533 12.279 5.83755 12.0512 6.10494 11.9122C6.1502 11.8883 6.19038 11.8674 6.22497 11.8499C6.53015 11.6968 6.83168 11.5257 7.13136 11.356C7.17829 11.3291 7.22534 11.3022 7.27237 11.2754C7.27245 11.2753 7.27254 11.2752 7.27263 11.2752C7.51694 11.1363 7.75006 11.0043 7.96294 10.8949C8.18475 10.7817 8.3581 10.6669 8.52929 10.5564C8.60935 10.5047 8.68775 10.4544 8.7668 10.407C8.77817 10.4003 8.7895 10.3936 8.80081 10.387C9.11193 10.206 9.40369 10.0778 10.1501 9.83551ZM1.16922 15.2926C1.29533 15.2485 1.40145 15.1946 1.47102 15.1524C1.40634 15.1811 1.33889 15.212 1.27603 15.2415C1.23819 15.2595 1.20612 15.2743 1.16922 15.2926ZM7.92034 11.7076C7.89912 11.7198 7.87788 11.7321 7.85651 11.7445C7.91868 11.7192 7.9813 11.694 8.04441 11.6686C8.1219 11.6374 8.20021 11.6061 8.27931 11.5746C8.15209 11.6208 8.03109 11.6654 7.92034 11.7076ZM10.3167 10.3834C9.90684 10.5152 9.62086 10.6885 9.36927 10.8461C9.29568 10.8919 9.22664 10.9357 9.15538 10.9781C9.12652 10.9955 9.09795 11.0135 9.06899 11.0322C9.25387 10.9695 9.42371 10.9145 9.56423 10.8699C9.98171 10.738 10.2255 10.6833 10.4383 10.6349C10.5011 10.6206 10.559 10.6077 10.6201 10.5932C10.6658 10.57 10.7149 10.5458 10.7633 10.5229C10.832 10.4905 10.9065 10.4566 10.977 10.4255C11.0486 10.394 11.1211 10.3631 11.1917 10.3337C11.2641 10.3036 11.3339 10.2752 11.405 10.2465C11.4703 10.22 11.5372 10.1931 11.5984 10.1672C11.6021 10.1657 11.6057 10.1642 11.6094 10.1627C11.675 10.1349 11.7382 10.1069 11.7925 10.0792C11.8493 10.0503 11.8911 10.0248 11.9263 9.99731C11.9689 9.96372 12.0084 9.92892 12.0344 9.89823C12.0394 9.89242 12.0436 9.88693 12.0471 9.88184L12 10.3306C11.967 10.3044 11.9308 10.2753 11.8917 10.2435C11.841 10.202 11.802 10.1733 11.7526 10.1341C11.7371 10.1219 11.7205 10.1088 11.7045 10.0961C11.6972 10.0904 11.6893 10.0841 11.683 10.0794C11.7697 10.1677 11.8477 10.2505 11.9246 10.3412C11.9337 10.3519 11.9424 10.3624 11.9507 10.3726L12.0076 9.83045C11.9417 9.87817 11.7744 9.94516 11.5974 10.001C11.2587 10.1089 10.8315 10.2175 10.3167 10.3834ZM10.3301 8.87889C10.3704 8.9129 10.4298 8.96168 10.5041 9.023C10.521 9.03696 10.5417 9.05401 10.5618 9.07073C10.5614 9.07027 10.5609 9.06985 10.5605 9.0694C10.5136 9.02005 10.4764 8.98033 10.4314 8.93443C10.3531 8.85448 10.2685 8.7712 10.1911 8.69599C10.1116 8.61895 10.0295 8.54163 9.94474 8.4638C9.86306 8.38862 9.78007 8.31423 9.69472 8.23974C9.60715 8.16337 9.52529 8.09358 9.43828 8.02177C9.41066 7.99897 9.38271 7.97614 9.35454 7.95334C9.41252 8.01011 9.47293 8.06756 9.53585 8.12762C9.58516 8.17479 9.64029 8.2272 9.69592 8.28132C9.71726 8.30208 9.74256 8.32765 9.77181 8.35731C9.88566 8.47315 10.0697 8.65965 10.3301 8.87889ZM8.6202 7.43215C8.59896 7.41674 8.5779 7.40126 8.55719 7.38575C8.49827 7.3416 8.44101 7.29694 8.38711 7.25449C8.3489 7.22437 8.31116 7.19427 8.27378 7.16455C8.25801 7.15201 8.24221 7.1395 8.22654 7.12707C8.2003 7.10626 8.17411 7.08564 8.14804 7.06515C8.3225 7.21844 8.49196 7.36573 8.67268 7.51774C8.67504 7.51973 8.67747 7.52168 8.67985 7.52368C8.65959 7.49255 8.63971 7.46204 8.6202 7.43215Z" fill="#E21F22"/>
</svg>
