<svg width="48" height="55" viewBox="0 0 48 55" fill="none" xmlns="http://www.w3.org/2000/svg">
<rect width="48" height="55" rx="7" fill="#D9D9D9"/>
<path d="M13.5644 34.6375C13.5844 35.0515 13.5935 35.4412 13.638 35.9329C13.6381 35.9332 13.6381 35.9334 13.6382 35.9337C13.6447 36.0039 13.652 36.0765 13.6605 36.1512C13.7332 36.7498 13.853 37.5423 14.2995 38.6458C14.7983 39.8611 15.3442 40.7607 15.6843 41.3182C15.7483 41.4216 15.8202 41.5249 16.0293 41.7608C16.167 41.9143 16.3587 42.119 16.6554 42.392C16.8144 42.5377 17.0015 42.7005 17.2326 42.8823C17.9838 43.4926 19.343 44.2308 20.7181 44.5738C20.8689 44.6134 21.0204 44.6497 21.1717 44.6827C21.853 44.8389 22.4947 44.9233 23.0056 44.9689C23.92 45.0498 24.8133 45.0592 25.7749 44.9676C26.6539 44.8807 27.5962 44.7104 28.6225 44.3452C29.4073 44.0635 30.1632 43.7689 30.8918 43.3732C30.9842 43.3229 31.0766 43.2705 31.1679 43.2166C31.797 42.8449 32.4054 42.3826 32.9376 41.7611C32.9925 41.6969 33.0455 41.6323 33.0968 41.5671C33.9319 40.4809 34.3972 39.4181 34.7666 38.2311C34.918 37.7359 35.0491 37.2142 35.1631 36.6433C35.3475 35.7421 35.5226 34.422 35.4879 33.092C35.4854 32.9788 35.4815 32.8656 35.4765 32.7526C35.4764 32.7521 35.4764 32.7515 35.4764 32.7509C35.4259 31.535 35.2011 30.3558 34.949 29.5218C34.5387 28.1971 34.2472 27.755 34.0418 27.3787C33.9605 27.2385 33.883 27.1104 33.7905 26.9584C33.4601 26.4102 32.9335 25.5986 32.2715 24.884C32.2689 24.8813 32.2664 24.8786 32.2639 24.8759C32.1903 24.7959 32.1523 24.7012 32.1576 24.6253L32.1672 24.635C32.1679 24.5972 32.1797 24.5642 32.2036 24.5401C32.227 24.5165 32.2591 24.5043 32.2961 24.5027C32.3668 24.4934 32.4639 24.5385 32.5409 24.6223C32.9027 25.0148 33.2248 25.4269 33.4929 25.809C33.5797 25.7777 33.7082 25.8441 33.7918 25.9725C33.9915 26.2949 34.7265 27.2341 35.4046 28.9766C35.3813 28.8502 35.3622 28.744 35.3457 28.6501C35.3262 28.5401 35.3117 28.4553 35.2987 28.3824C35.2713 28.2306 35.2519 28.1295 35.1965 27.9574C35.0543 27.565 34.7864 26.9624 34.4405 26.3623C34.3537 26.2109 34.3513 26.0466 34.4398 25.9926C34.5283 25.9387 34.6769 26.02 34.7668 26.1768C34.7686 26.1798 34.7703 26.1829 34.7721 26.1859C35.1251 26.7988 35.4102 27.4384 35.5613 27.8607C35.6001 27.9682 35.6309 28.0615 35.6528 28.1319C35.6704 28.1882 35.6914 28.2588 35.6995 28.2992C35.7006 28.3046 35.7026 28.3148 35.7045 28.3273C35.7045 28.3275 35.7045 28.3277 35.7045 28.3279C35.7055 28.3348 35.7109 28.3703 35.709 28.4107C35.7087 28.4189 35.7077 28.4367 35.7035 28.4583C35.7043 28.4633 35.7052 28.4682 35.706 28.4731C35.7174 28.5417 35.7286 28.6119 35.7412 28.687C35.7868 28.9813 35.8886 29.4404 36.0252 30.3918C36.146 31.2649 36.3421 32.7474 36.2099 34.5937C36.2265 34.4697 36.2414 34.3452 36.2546 34.2204C36.2876 33.9065 36.3098 33.5897 36.3217 33.2717C36.3262 33.1499 36.3292 33.0297 36.3307 32.9071C36.3331 32.7097 36.3316 32.5114 36.3261 32.3133C36.3224 32.1795 36.3168 32.045 36.3095 31.911C36.3095 31.9107 36.3095 31.9104 36.3094 31.9101C36.2993 31.7241 36.2859 31.5375 36.269 31.3495C36.2633 31.2837 36.2571 31.2187 36.2505 31.1542C36.2241 30.8977 36.1924 30.6455 36.1561 30.3545C36.1526 30.3189 36.1495 30.28 36.1474 30.2509C36.1451 30.2196 36.1431 30.1895 36.1414 30.1609C36.1398 30.1357 36.1386 30.1116 36.1372 30.0885C36.137 30.0855 36.1368 30.0824 36.1366 30.0793C36.1351 30.0534 36.1334 30.0288 36.1316 30.0051C36.1299 29.9814 36.1282 29.9587 36.126 29.9363C36.126 29.9361 36.126 29.9359 36.1259 29.9357C36.1236 29.9124 36.1218 29.8946 36.1187 29.8701C36.1147 29.8392 36.1109 29.8127 36.1057 29.7808C36.1007 29.7499 36.0949 29.7177 36.0888 29.6853C36.0826 29.6529 36.0759 29.62 36.0688 29.5867C36.0617 29.5533 36.0543 29.5195 36.0465 29.4855C36.0387 29.4515 36.0305 29.4171 36.0222 29.3825C36.0138 29.348 36.0052 29.313 35.9964 29.278C35.9762 29.1975 35.9736 29.1151 35.9906 29.0486C36.0075 28.9821 36.0424 28.9369 36.0887 28.923C36.135 28.9092 36.1895 28.928 36.2402 28.976C36.291 29.0239 36.3336 29.0972 36.3585 29.1788C36.3652 29.201 36.3721 29.2233 36.3788 29.2458C36.3828 29.2591 36.3867 29.2726 36.3906 29.286C36.4013 29.3221 36.412 29.3586 36.4223 29.3954C36.4327 29.4322 36.4428 29.4695 36.4528 29.5072C36.4628 29.545 36.4726 29.5834 36.4821 29.6225C36.4916 29.6615 36.5007 29.7015 36.5094 29.7421C36.5179 29.7818 36.5268 29.8272 36.5339 29.868C36.5392 29.8978 36.5449 29.9347 36.5493 29.9656C36.5539 29.9977 36.558 30.0295 36.5617 30.0602C36.5653 30.0909 36.5685 30.1207 36.5715 30.1491C36.5718 30.1522 36.5722 30.1552 36.5725 30.1582C36.5751 30.1834 36.5776 30.2076 36.58 30.2305C36.5827 30.2562 36.5854 30.2804 36.5882 30.3033C36.5911 30.3286 36.5933 30.3438 36.5961 30.3625C36.6389 30.6082 36.6929 30.9123 36.735 31.2028C36.7403 31.2393 36.7454 31.2757 36.7504 31.3116C36.777 31.5028 36.8003 31.6938 36.8202 31.8851C36.8346 32.0241 36.8472 32.1637 36.8579 32.3031C36.8737 32.5085 36.8854 32.715 36.8929 32.9212C36.8976 33.0493 36.9005 33.1751 36.902 33.303C36.9057 33.6368 36.8984 33.9717 36.8792 34.3063C36.86 34.6404 36.8288 34.9761 36.7847 35.3099C36.7408 35.6427 36.6816 35.9861 36.6086 36.3147C36.5549 36.556 36.486 36.8007 36.4154 37.0244C36.3775 37.1445 36.3387 37.2616 36.2989 37.3766C36.2987 37.3769 36.2986 37.3773 36.2984 37.3777C36.2635 37.4786 36.228 37.5776 36.1923 37.6756C36.1157 37.8854 36.0376 38.0912 35.9582 38.2947C35.8789 38.4981 35.798 38.7004 35.7153 38.9022C35.633 39.1029 35.5474 39.3065 35.4608 39.5062C35.3734 39.7077 35.2855 39.9043 35.1902 40.1093C35.0645 40.3799 34.9348 40.6448 34.7922 40.9142C34.6513 41.1806 34.5002 41.4469 34.3403 41.707C34.2841 41.7984 34.2266 41.8892 34.1681 41.9793C34.1678 41.9797 34.1676 41.98 34.1674 41.9804C34.1161 42.0594 34.0639 42.1379 34.0107 42.2159C33.9476 42.3074 33.8849 42.3948 33.8207 42.4809C33.6322 42.7337 33.4293 42.9772 33.2131 43.2094C32.9971 43.4416 32.7672 43.6632 32.5249 43.8721C32.2826 44.0809 32.0225 44.2814 31.7496 44.4647C31.5066 44.6282 31.2542 44.7806 31.0024 44.9193C30.936 44.9559 30.8694 44.9917 30.8023 45.0268C30.4838 45.194 30.1701 45.3409 29.8569 45.4782C29.5438 45.6151 29.2283 45.7432 28.9059 45.8637C28.5854 45.9836 28.2567 46.096 27.9224 46.1987C27.5865 46.3019 27.2515 46.3936 26.907 46.476C26.5648 46.5577 26.2183 46.6289 25.8649 46.6893C25.6685 46.7229 25.4584 46.7527 25.2593 46.7758C25.0582 46.7992 24.8579 46.8175 24.6596 46.8313C24.5791 46.8369 24.499 46.8418 24.4195 46.846C24.3033 46.8522 24.188 46.857 24.0746 46.8608C23.8835 46.8671 23.6957 46.8704 23.5141 46.8722C23.332 46.874 23.155 46.8743 22.9839 46.8746C22.8061 46.8748 22.66 46.8754 22.4837 46.8767C22.0554 46.8682 21.7909 46.8386 21.4975 46.8014C21.4396 46.7939 21.3805 46.786 21.3191 46.7775C21.119 46.7485 20.9164 46.7135 20.7185 46.6739L20.7284 46.6762C20.577 46.6473 20.4275 46.6156 20.2803 46.5812C19.9363 46.5008 19.5897 46.4016 19.2548 46.2876C18.9153 46.172 18.5879 46.0422 18.2598 45.8927C17.9364 45.7453 17.6183 45.5805 17.3113 45.4011C17.0026 45.2209 16.6996 45.022 16.4164 44.815C16.2528 44.6956 16.0858 44.5647 15.932 44.4368C15.8214 44.3449 15.7147 44.2522 15.612 44.1598C15.57 44.1221 15.5288 44.0845 15.4879 44.0467C15.3467 43.9162 15.2129 43.7867 15.0858 43.6603C14.9591 43.5342 14.837 43.4092 14.7193 43.2873C14.6013 43.1649 14.4869 43.0448 14.3725 42.9235C14.2541 42.7979 14.1564 42.6933 14.0319 42.5587C13.9507 42.4709 13.8723 42.3837 13.7953 42.2958C13.6801 42.1641 13.5683 42.0311 13.4581 41.8946C13.3481 41.7584 13.2419 41.6217 13.1377 41.4824C13.1042 41.4375 13.0691 41.3899 13.036 41.3445C12.9338 41.2043 12.8351 41.0637 12.7387 40.9215C12.6425 40.7796 12.5493 40.6373 12.4585 40.494C12.3673 40.35 12.2797 40.2071 12.1923 40.0597C12.0435 39.8092 11.9214 39.5587 11.8225 39.3359C11.7225 39.1102 11.6381 38.896 11.5608 38.6853C11.5463 38.6459 11.532 38.6064 11.5179 38.5668C11.4572 38.396 11.4013 38.2277 11.3485 38.0604C11.2834 37.8543 11.2235 37.6509 11.167 37.4457C11.111 37.2422 11.0581 37.0354 11.0093 36.8313C10.96 36.6251 10.9159 36.4262 10.8719 36.2121C10.8287 36.0001 10.7857 35.783 10.7451 35.5449C10.7049 35.3089 10.6691 35.0582 10.6423 34.8048C10.6155 34.5514 10.5974 34.2914 10.5891 34.0344C10.5808 33.7765 10.582 33.5163 10.5923 33.2613C10.6026 33.0044 10.622 32.7488 10.6496 32.4962C10.6771 32.2438 10.7146 31.9839 10.7574 31.7424C10.8267 31.3503 10.9127 30.965 11.0156 30.5815C11.1175 30.2017 11.2363 29.8237 11.3703 29.4532C11.4839 29.1393 11.607 28.8334 11.7424 28.5285L11.7511 28.5085C11.7758 28.4552 11.8008 28.4018 11.826 28.3484C11.9881 28.006 12.1597 27.6675 12.3406 27.3342C12.3806 27.2606 12.4211 27.1872 12.4621 27.1138C12.6063 26.8559 12.7566 26.6007 12.9122 26.3498C12.9133 26.3481 12.9144 26.3463 12.9155 26.3446C13.116 26.0216 13.3227 25.7095 13.5414 25.3999C13.6217 25.2861 13.7002 25.1777 13.7811 25.0681C13.8621 24.9583 13.9428 24.8514 14.0255 24.7441C14.1082 24.6366 14.1917 24.5305 14.275 24.4266C14.3591 24.3215 14.4423 24.2198 14.5271 24.1174C14.6048 24.0237 14.6825 23.9308 14.769 23.8303C14.7769 23.8212 14.7848 23.812 14.7928 23.8028C14.8877 23.6931 14.9987 23.5703 15.1056 23.4594C15.3892 23.1658 15.6781 22.8888 15.9857 22.6184C16.2936 22.3481 16.6146 22.09 16.9531 21.8458C17.0853 21.7505 17.2204 21.6571 17.3578 21.5665C17.5716 21.4256 17.7918 21.2909 18.0181 21.1638C18.3905 20.9547 18.7788 20.7669 19.1818 20.6051C19.207 20.595 19.2323 20.585 19.2577 20.575L19.2999 20.5591C19.6614 20.4308 20.0306 20.3166 20.4015 20.2184C20.7973 20.1135 21.2006 20.0254 21.6018 19.956C22.0487 19.8787 22.4964 19.8218 22.9479 19.7847C23.3987 19.7476 23.8514 19.7308 24.3026 19.7348C24.7555 19.7387 25.2069 19.7636 25.6576 19.8105C26.1083 19.8574 26.5568 19.9263 27.002 20.0189C27.268 20.0742 27.5331 20.138 27.7959 20.2106C27.9382 20.2353 28.0743 20.2613 28.2054 20.2886C29.1716 20.4969 29.8685 20.7261 30.7346 21.1523C30.8182 21.1924 30.887 21.2233 30.9706 21.262C30.9866 21.2694 31.0034 21.2774 31.0206 21.2855C31.1295 21.3369 31.254 21.3984 31.4201 21.4957C31.7504 21.6901 32.2452 22.0281 32.7553 22.5986C32.8837 22.7426 32.902 22.899 32.8032 22.9448C32.7338 22.9771 32.6261 22.9486 32.5253 22.8822C32.6816 23.0378 32.8342 23.2007 32.9781 23.3648C33.0359 23.4306 33.076 23.5063 33.0889 23.5741C33.1018 23.642 33.0868 23.696 33.048 23.7252C33.0092 23.7543 32.9495 23.7564 32.8817 23.7327C32.814 23.7089 32.7436 23.6616 32.6846 23.601C32.5283 23.4404 32.3659 23.2845 32.1987 23.1354C32.0308 22.9858 31.8588 22.8437 31.681 22.7071C31.5039 22.5711 31.3207 22.4407 31.1336 22.3173C30.9468 22.194 30.7559 22.0773 30.5607 21.9671C30.3645 21.8564 30.1679 21.7542 29.9657 21.6572C29.8444 21.599 29.7206 21.5426 29.5981 21.4897C29.5525 21.4699 29.5077 21.4511 29.4629 21.4325C29.4263 21.4172 29.3894 21.4021 29.3514 21.3867C28.951 21.2256 28.5377 21.088 28.1229 20.9755C27.7061 20.8624 27.2842 20.7732 26.86 20.7063C26.4354 20.6393 26.0087 20.5948 25.5814 20.571C25.1542 20.5471 24.7273 20.544 24.3007 20.5603C23.8755 20.5767 23.4505 20.6124 23.029 20.6666C22.7031 20.7086 22.3817 20.7614 22.0621 20.8248C21.9376 20.8571 21.8149 20.8902 21.6942 20.9241C21.343 21.0228 20.9979 21.142 20.6635 21.2711C21.2703 21.0834 21.7657 20.9534 22.2426 20.8472C22.3065 20.8331 22.3702 20.8194 22.4337 20.8062C23.0826 20.6744 23.7219 20.5789 24.5876 20.5785C27.0561 20.6055 28.4409 21.1537 29.2553 21.494C30.0708 21.86 30.3806 22.0995 30.6493 22.3392C31.0334 22.6762 31.7572 23.2953 32.0983 23.6304C32.2254 23.7492 32.2653 23.9093 32.1912 23.9816C32.1175 24.0546 31.9621 24.0171 31.8408 23.9038C31.4954 23.5637 30.7412 22.9237 30.295 22.5424C30.098 22.3733 29.8636 22.1784 29.0886 21.8311C28.3138 21.5102 26.9899 20.9809 24.5833 20.9541C23.7712 20.9547 23.1713 21.0421 22.545 21.1676C22.4836 21.1802 22.4219 21.1933 22.3597 21.2069C22.3593 21.207 22.3589 21.2071 22.3585 21.2071C21.7857 21.3341 21.1687 21.4962 20.356 21.7649C20.1758 21.8249 19.9902 21.8909 19.8034 21.962C18.0384 22.6487 16.4668 24.2735 16.1324 24.7154C16.0549 24.8103 15.9822 24.9037 15.9068 25.0032C15.6234 25.3889 15.266 25.8443 14.5916 26.9526C14.4458 27.196 14.2786 27.4831 14.1049 27.8018C13.8863 28.3029 13.6969 28.7975 13.5353 29.2259C13.5271 29.2477 13.5191 29.2693 13.5112 29.2909C13.3938 29.6297 13.3158 29.9587 13.2567 30.2816C13.2388 30.3802 13.2226 30.4792 13.2075 30.5786C13.1709 30.819 13.1424 31.0576 13.1142 31.2897C13.0917 31.4749 13.0759 31.6686 13.0646 31.8735C13.0259 32.621 13.0349 33.5035 13.0805 34.6363C13.1331 35.839 13.3316 36.8583 13.5813 37.7107C13.4065 37.081 13.3305 36.5811 13.2835 36.1655C13.2748 36.087 13.2673 36.0115 13.2607 35.9392C13.2158 35.4271 13.2091 35.0547 13.1896 34.6572C13.1386 32.7532 13.327 32.045 13.4118 31.2335C13.4406 31.0206 13.4734 30.7827 13.5178 30.5279C13.5783 30.1802 13.661 29.7988 13.7848 29.4L13.7803 29.4105C13.8419 29.223 13.9108 29.0315 13.9882 28.8383C14.2148 28.2727 14.4837 27.6418 14.8158 26.9946C14.816 26.9943 14.8161 26.9941 14.8163 26.9939C14.8812 26.8673 14.9485 26.7402 15.0184 26.6128C15.4434 25.8365 15.966 25.054 16.577 24.377C16.6422 24.3046 16.7206 24.2179 16.8124 24.1201C17.3259 23.5759 18.3133 22.615 19.8448 22.0597C19.8716 22.0513 19.9041 22.0409 19.9368 22.0306C20.2881 21.9205 20.6604 21.8311 21.0879 21.7496C21.218 21.7249 21.3534 21.7011 21.4949 21.678C22.1057 21.5803 22.85 21.4829 23.8397 21.4465C24.6555 21.4172 25.6534 21.4471 26.6634 21.6271C27.1606 21.7148 27.6598 21.8376 28.1386 21.9947C29.5852 22.4698 30.7873 23.2242 31.7532 24.192C31.7534 24.1922 31.7536 24.1924 31.7538 24.1926C31.8691 24.3081 31.8937 24.4591 31.8158 24.5274C31.7374 24.5955 31.59 24.56 31.4803 24.4505C30.5544 23.5253 29.4064 22.8058 28.0161 22.3497C27.5615 22.2008 27.0832 22.0828 26.6041 21.9979C25.6223 21.8221 24.6397 21.7926 23.8391 21.8224C22.8602 21.8595 22.1219 21.9577 21.5188 22.0559C21.3735 22.08 21.2373 22.1045 21.1079 22.1296C20.6964 22.2097 20.3559 22.2926 20.0317 22.3946C20.0098 22.4015 19.9879 22.4085 19.9662 22.4155L19.983 22.4092C18.5525 22.9241 17.6212 23.8161 17.1168 24.3467C17.0249 24.4436 16.946 24.5303 16.8789 24.6043C16.2968 25.2456 15.7921 25.993 15.375 26.7488C15.3072 26.8713 15.2414 26.9945 15.1779 27.1172C15.1778 27.1175 15.1777 27.1177 15.1776 27.118C14.8506 27.7494 14.5806 28.3766 14.3531 28.9413C14.2667 29.1557 14.1925 29.3639 14.1278 29.565L14.1346 29.5493C14.0353 29.8783 13.9668 30.1878 13.9118 30.4867C13.8651 30.7418 13.8282 30.9896 13.7943 31.2312C13.7016 32.0648 13.5146 32.7882 13.5644 34.6375ZM32.2776 22.6445C31.9572 22.3161 31.6562 22.091 31.4243 21.9399C31.614 22.0793 31.7994 22.2261 31.9778 22.3781C32.0795 22.4648 32.1802 22.5542 32.2776 22.6445ZM13.7518 27.6652C13.7786 27.6036 13.806 27.5415 13.8338 27.4792C13.7446 27.644 13.6577 27.8103 13.5737 27.977C13.4702 28.1824 13.3706 28.3889 13.2746 28.5973C13.4328 28.2688 13.5948 27.9546 13.7518 27.6652ZM12.7054 34.6547C12.6618 33.5522 12.6464 32.7179 12.6791 31.954C12.6896 31.7337 12.7054 31.521 12.7298 31.3103C12.7399 31.223 12.75 31.1351 12.7605 31.0469C12.6278 31.5438 12.5372 32.008 12.4785 32.39C12.3099 33.5334 12.3008 34.1962 12.2959 34.7774C12.2961 34.9452 12.2997 35.1078 12.3075 35.2727C12.3322 35.4077 12.3595 35.547 12.3879 35.6877C12.4278 35.8848 12.474 36.0954 12.5218 36.2958C12.5698 36.4968 12.6218 36.6987 12.6766 36.8969C12.7318 37.0965 12.7897 37.2921 12.8515 37.4863C12.9095 37.669 12.9706 37.8491 13.0338 38.0223C13.0374 38.0322 13.041 38.0422 13.0447 38.0521C13.112 38.235 13.1818 38.4107 13.2517 38.5698C13.323 38.7319 13.3881 38.8638 13.4525 38.9775C13.5329 39.1194 13.6174 39.2638 13.7028 39.4045C13.7884 39.5454 13.8756 39.6839 13.9645 39.8203C14.0536 39.957 14.1439 40.0904 14.2365 40.2223C14.2665 40.265 14.2981 40.3093 14.3282 40.3512C14.3421 40.3705 14.3561 40.3897 14.3701 40.4089C14.2047 40.1421 14.045 39.8575 13.8947 39.5556C13.678 39.1198 13.4801 38.6368 13.3052 38.0912C13.0095 37.1601 12.768 36.0435 12.7054 34.6547ZM17.7068 43.7171C17.5918 43.6462 17.4228 43.5413 17.2113 43.3962C17.1614 43.3619 17.1091 43.3254 17.0548 43.2866C17.056 43.2876 17.0573 43.2885 17.0585 43.2895C17.1861 43.3953 17.3071 43.4903 17.4414 43.5891C17.6786 43.7636 17.9216 43.9245 18.1702 44.0727C18.4214 44.2225 18.6796 44.36 18.9444 44.4853C19.2127 44.6121 19.4797 44.7233 19.7579 44.8242C20.0313 44.9234 20.3169 45.0123 20.5973 45.0853C20.6876 45.1089 20.779 45.1313 20.8712 45.1524C20.6671 45.0937 20.4644 45.0316 20.2437 44.9565C20.0688 44.8969 19.8916 44.8317 19.7055 44.7562C19.6339 44.7272 19.548 44.6904 19.4493 44.646C19.0608 44.4702 18.4538 44.176 17.7068 43.7171ZM23.2145 45.4102C23.2827 45.4124 23.3506 45.4142 23.4178 45.4159C23.6093 45.4208 23.7948 45.4238 23.9777 45.424C24.1057 45.4241 24.2324 45.4229 24.3573 45.42C24.41 45.4188 24.4625 45.4172 24.5146 45.4154C24.6018 45.4123 24.6883 45.4083 24.7742 45.4035C24.1712 45.4177 23.5814 45.3974 22.9707 45.3427C22.9627 45.342 22.9546 45.3413 22.9465 45.3406C23.0375 45.3652 23.1271 45.3884 23.2145 45.4102Z" fill="#1E1E1E"/>
<path d="M28.246 31.9838C28.0499 32.1792 27.8462 32.3451 27.5909 32.5536C27.5908 32.5537 27.5907 32.5538 27.5905 32.5539C27.554 32.5837 27.5163 32.6144 27.4775 32.6463C27.1646 32.9032 26.7616 33.241 26.1878 33.7828C25.5535 34.3821 24.9944 34.8038 24.6267 35.0367C24.5582 35.0801 24.4939 35.1313 24.3434 35.2725C24.2446 35.3652 24.1131 35.4926 23.9241 35.6762C23.8235 35.7739 23.7064 35.8879 23.569 36.0215C23.5677 36.0227 23.5664 36.024 23.5652 36.0252C23.1108 36.4671 22.4317 37.1854 21.8101 37.8518C21.4321 38.2569 21.0747 38.6427 20.7994 38.9331C20.3979 39.3565 19.9997 39.7576 19.5693 40.194C19.1746 40.5943 18.7526 41.0245 18.2748 41.533C17.9089 41.9224 17.5036 42.2575 17.0869 42.5943C17.034 42.6371 16.9808 42.68 16.9275 42.723C16.5592 43.0201 16.1835 43.3247 15.8083 43.6809C15.1388 44.3171 14.6788 44.8916 14.1728 45.5288C13.9754 45.7775 13.7695 46.0377 13.5431 46.3137C13.1834 46.7518 12.6519 47.3673 12.1207 47.988C12.0754 48.0409 12.0301 48.094 11.9849 48.1468C11.9847 48.1471 11.9845 48.1473 11.9843 48.1476C11.4981 48.7161 11.0245 49.2758 10.6856 49.6953C10.148 50.3611 9.96698 50.6294 9.81579 50.8524C9.75908 50.9362 9.70667 51.0138 9.64111 51.1045C9.40535 51.4304 9.01921 51.895 8.62843 52.3695C8.62696 52.3713 8.62548 52.3731 8.62401 52.3749C8.55932 52.4534 8.44192 52.4638 8.36164 52.3982C8.28137 52.3326 8.26865 52.2156 8.33345 52.1369C8.54041 51.8857 8.74284 51.6409 8.92155 51.4195C8.86191 51.3517 8.85824 51.2496 8.9171 51.1788C9.06358 51.0028 9.45783 50.414 10.0783 49.496C10.0178 49.5435 9.96486 49.5824 9.91788 49.6155C9.86266 49.6544 9.81913 49.6831 9.78175 49.7079C9.70384 49.7594 9.65215 49.7938 9.57482 49.8667C9.40729 50.0457 9.16055 50.3396 8.90106 50.651C8.8356 50.7295 8.71799 50.7396 8.63812 50.6736C8.55826 50.6075 8.54652 50.4901 8.61204 50.4115C8.61332 50.4099 8.61458 50.4084 8.61585 50.4068C8.87318 50.0981 9.12827 49.7939 9.30364 49.607C9.3482 49.5595 9.38765 49.5194 9.41785 49.4898C9.442 49.4661 9.47246 49.4368 9.49205 49.4227C9.49466 49.4208 9.49969 49.4173 9.50612 49.4135C9.50624 49.4134 9.50636 49.4134 9.50649 49.4133C9.51007 49.4112 9.52831 49.4001 9.55376 49.3933C9.5589 49.392 9.57022 49.3891 9.58576 49.3878C9.58822 49.3861 9.59069 49.3845 9.59315 49.3829C9.62745 49.3601 9.66245 49.3369 9.69932 49.3109C9.8429 49.21 10.0594 49.0397 10.465 48.6505C10.8389 48.2919 11.4173 47.6426 12.1221 46.8179C12.0688 46.8683 12.0151 46.9197 11.962 46.9709C11.8281 47.0999 11.6955 47.2302 11.5634 47.3615C11.5127 47.412 11.4627 47.4618 11.412 47.5126C11.3304 47.5944 11.2488 47.6765 11.1676 47.7587C11.1128 47.8141 11.0576 47.8702 11.0026 47.926C11.0025 47.9262 11.0024 47.9263 11.0023 47.9265C10.9259 48.004 10.8495 48.0817 10.7725 48.1598C10.7454 48.187 10.7187 48.2139 10.6922 48.2407C10.587 48.3472 10.4831 48.4529 10.3572 48.568C10.3411 48.5814 10.323 48.5954 10.3092 48.6056C10.2945 48.6166 10.2801 48.627 10.2662 48.6367C10.254 48.6452 10.2422 48.6532 10.2309 48.6609C10.2294 48.662 10.2279 48.663 10.2264 48.664C10.2138 48.6727 10.2019 48.681 10.1904 48.6891C10.179 48.6971 10.1681 48.7048 10.1575 48.7127C10.1575 48.7128 10.1574 48.7129 10.1573 48.713C10.1464 48.7213 10.1381 48.7276 10.127 48.7367C10.113 48.7483 10.1012 48.7585 10.0873 48.7711C10.0739 48.7833 10.0602 48.7963 10.0465 48.8096C10.0329 48.8229 10.0193 48.8367 10.0056 48.8507C9.99185 48.8648 9.97801 48.8791 9.96419 48.8937C9.95039 48.9083 9.93654 48.9232 9.92262 48.9382C9.90869 48.9531 9.89462 48.9683 9.88054 48.9835C9.84808 49.0186 9.80284 49.0404 9.75423 49.0436C9.70562 49.0468 9.65777 49.0313 9.62074 49.0002C9.58373 48.9691 9.56025 48.9246 9.55518 48.8763C9.55014 48.8279 9.56403 48.7797 9.59329 48.7418C9.60126 48.7315 9.60923 48.7211 9.61729 48.7108C9.62207 48.7046 9.62696 48.6984 9.63178 48.6922C9.64474 48.6756 9.65779 48.6587 9.67112 48.6419C9.68443 48.6251 9.69803 48.6083 9.71188 48.5913C9.72576 48.5744 9.73996 48.5572 9.75464 48.5401C9.76929 48.523 9.78452 48.5058 9.80035 48.4885C9.81581 48.4716 9.83374 48.453 9.85036 48.4367C9.86244 48.4247 9.87792 48.4105 9.89097 48.3987C9.90459 48.3864 9.91827 48.3745 9.93162 48.3632C9.94501 48.3519 9.95817 48.3411 9.9707 48.3308C9.97203 48.3296 9.97336 48.3285 9.97469 48.3274C9.98578 48.3183 9.9965 48.3095 10.0065 48.3011C10.0177 48.2917 10.0281 48.2827 10.0379 48.2739C10.0486 48.2643 10.0548 48.2582 10.0624 48.2506C10.1572 48.1469 10.2686 48.0122 10.3739 47.8852C10.3872 47.8692 10.4004 47.8533 10.4135 47.8375C10.4828 47.7537 10.552 47.6699 10.6212 47.5861C10.6715 47.5252 10.722 47.4641 10.7723 47.4035C10.8465 47.314 10.9212 47.2244 10.9961 47.135C11.0427 47.0795 11.0885 47.025 11.1353 46.9697C11.2569 46.8259 11.3798 46.6822 11.5046 46.5392C11.6296 46.3961 11.7555 46.2548 11.8847 46.1141C12.0134 45.974 12.1492 45.8311 12.2847 45.6966C12.3845 45.5979 12.4934 45.5016 12.5954 45.4145C12.6502 45.3678 12.7042 45.3223 12.7576 45.2775C12.7578 45.2773 12.758 45.2772 12.7582 45.2771C12.805 45.2378 12.8514 45.199 12.8971 45.1602C12.9951 45.0771 13.0904 44.994 13.1831 44.9099C13.2757 44.8258 13.3662 44.7402 13.4552 44.6521C13.5437 44.5645 13.6315 44.4739 13.7164 44.3829C13.8019 44.2912 13.8842 44.1997 13.9694 44.1022C14.0816 43.9735 14.1898 43.8451 14.3014 43.7122C14.412 43.5802 14.5232 43.4463 14.6342 43.3128C14.673 43.2661 14.7121 43.2194 14.7511 43.1725C14.7512 43.1723 14.7514 43.1721 14.7516 43.1719C14.8237 43.0851 14.8963 42.998 14.969 42.911C15.0809 42.7772 15.1937 42.643 15.3078 42.5089C15.4223 42.3745 15.5372 42.241 15.655 42.1075C15.7727 41.9742 15.8955 41.838 16.0223 41.7058C16.1354 41.5876 16.251 41.4695 16.3644 41.3541C16.3944 41.3235 16.4241 41.2933 16.454 41.2629C16.5955 41.1187 16.7318 40.9781 16.8629 40.8352C16.9937 40.693 17.1205 40.5475 17.2459 40.3976C17.3712 40.2478 17.4942 40.0949 17.6174 39.9383C17.7412 39.781 17.8616 39.6244 17.9836 39.4641C18.1046 39.3049 18.2262 39.1433 18.3477 38.9806C18.4155 38.8899 18.4889 38.7946 18.5592 38.7051C18.6302 38.6149 18.7017 38.5257 18.7722 38.4385C18.8009 38.4031 18.8295 38.3679 18.858 38.3329C18.8994 38.2819 18.9406 38.2314 18.981 38.1815C19.0491 38.0972 19.1154 38.0143 19.1782 37.933C19.241 37.8519 19.3007 37.7718 19.3565 37.6926C19.4142 37.6105 19.4599 37.541 19.5122 37.4556C19.6471 37.2545 19.7392 37.1391 19.8421 37.01C19.8623 36.9846 19.8829 36.9586 19.9044 36.9314C20.0289 36.7772 20.1553 36.6268 20.2827 36.4796C20.4112 36.3312 20.5403 36.1867 20.6722 36.0428C20.803 35.9002 20.9374 35.7579 21.0724 35.6183C21.2071 35.479 21.3435 35.3415 21.4823 35.205C21.621 35.0687 21.7636 34.9321 21.9029 34.8019C21.9681 34.7408 22.0375 34.6774 22.1047 34.6168C22.1204 34.6026 22.1359 34.5887 22.1512 34.575C22.2097 34.5226 22.2677 34.4712 22.3245 34.4209C22.3477 34.4004 22.3707 34.38 22.3935 34.3598C22.4722 34.2901 22.5483 34.2222 22.6208 34.1557C22.6931 34.0892 22.7625 34.0235 22.8286 33.9577C22.8947 33.8917 22.9576 33.8255 23.0187 33.7575C23.0819 33.6869 23.1329 33.627 23.1961 33.5484C23.2371 33.4973 23.2775 33.4468 23.3177 33.3965C23.3778 33.3211 23.4373 33.2463 23.4971 33.1707C23.5567 33.0952 23.6153 33.0206 23.674 32.9453C23.6928 32.9211 23.7127 32.8956 23.7316 32.8712C23.79 32.7958 23.8475 32.721 23.9044 32.6458C23.9613 32.5708 24.0171 32.4961 24.0721 32.4212C24.1273 32.3459 24.1809 32.2717 24.2353 32.1949C24.3278 32.0644 24.4254 31.9487 24.5126 31.8493C24.6011 31.7488 24.6855 31.6575 24.7685 31.5681C24.784 31.5514 24.7996 31.5346 24.8151 31.5179C24.882 31.446 24.9479 31.3754 25.0123 31.3055C25.0917 31.2193 25.1689 31.1341 25.2456 31.0481C25.322 30.9625 25.3984 30.8753 25.4726 30.7886C25.5475 30.7011 25.6182 30.6167 25.6934 30.5248C25.7677 30.4342 25.8415 30.3389 25.9221 30.2352C26.002 30.1323 26.0861 30.0248 26.173 29.9178C26.2594 29.8111 26.3499 29.7033 26.4412 29.599C26.5326 29.4944 26.6262 29.3914 26.7199 29.2916C26.8142 29.1912 26.9102 29.0926 27.0065 28.9962C27.1026 28.8999 27.2031 28.802 27.2982 28.7117C27.4529 28.5647 27.6077 28.4197 27.7629 28.2752C27.917 28.1319 28.0735 27.9873 28.2289 27.8445C28.384 27.7021 28.5402 27.5592 28.6963 27.4172C28.8524 27.2751 29.0082 27.1339 29.1649 26.9923C29.1995 26.961 29.2341 26.9298 29.2687 26.8985C29.3906 26.7885 29.5117 26.6794 29.6336 26.5697C29.6344 26.569 29.6353 26.5682 29.6362 26.5675C29.7926 26.4265 29.9461 26.2886 30.1003 26.1491C30.1571 26.0976 30.2117 26.0481 30.2669 25.9978C30.3222 25.9473 30.3763 25.8977 30.4307 25.8474C30.4851 25.7971 30.539 25.7469 30.5917 25.6972C30.6448 25.647 30.6967 25.5975 30.7485 25.547C30.7961 25.5008 30.8426 25.4544 30.8936 25.4037C30.8982 25.3991 30.9029 25.3945 30.9075 25.3899C30.9632 25.3345 31.0274 25.2724 31.0885 25.2163C31.2504 25.0685 31.4087 24.9222 31.5678 24.7734C31.7269 24.6248 31.8858 24.4745 32.045 24.3235C32.1073 24.2644 32.1696 24.2051 32.232 24.1459C32.3292 24.0538 32.4274 23.9608 32.5257 23.8683C32.6875 23.7161 32.8502 23.5649 33.0163 23.4138C33.1816 23.2634 33.3486 23.1148 33.5181 22.9676C33.6873 22.8208 33.8582 22.676 34.0304 22.5334C34.222 22.3748 34.4119 22.2199 34.6052 22.0632C34.7978 21.907 34.9897 21.7529 35.183 21.5985C35.3766 21.4438 35.5689 21.2912 35.7633 21.1378C35.9575 20.9846 36.1509 20.8329 36.3462 20.6806C36.4629 20.5896 36.5795 20.499 36.6961 20.4088C36.7487 20.3503 36.7992 20.2941 36.8477 20.2402C37.2058 19.8426 37.4658 19.5556 37.8281 19.1984C37.8617 19.1629 37.8873 19.132 37.9183 19.0944C37.9243 19.0872 37.9306 19.0797 37.937 19.072C37.9777 19.023 38.0252 18.9676 38.0963 18.8966C38.2388 18.7546 38.4724 18.5549 38.8299 18.361C38.9203 18.312 39.034 18.3459 39.0839 18.4366C39.1189 18.5002 39.1132 18.5749 39.0756 18.6308C39.1743 18.5612 39.2729 18.4925 39.3712 18.4241C39.4105 18.3968 39.4595 18.3853 39.5077 18.3926C39.5559 18.4 39.5992 18.4255 39.6287 18.4638C39.6582 18.5021 39.6715 18.5505 39.666 18.5987C39.6606 18.6469 39.6369 18.6909 39.6003 18.7215C39.5032 18.8027 39.4063 18.8837 39.3097 18.9654C39.2127 19.0474 39.1177 19.1287 39.0221 19.2111C38.9267 19.2935 38.8316 19.3764 38.7363 19.46C38.6414 19.5433 38.5473 19.6264 38.4527 19.7105C38.3576 19.7951 38.2644 19.8786 38.1698 19.9636C38.1134 20.0143 38.0563 20.0657 38.0003 20.1163C37.9794 20.1352 37.9591 20.1537 37.9388 20.1721C37.9221 20.1872 37.9053 20.2023 37.8881 20.2179C37.7065 20.3825 37.5246 20.5486 37.3442 20.7141C37.1626 20.8807 36.9827 21.0466 36.8023 21.2137C36.6215 21.3812 36.4427 21.5478 36.263 21.7158C36.083 21.8841 35.9052 22.0511 35.726 22.2201C35.5471 22.3889 35.3698 22.5569 35.1918 22.7266C35.0539 22.858 34.919 22.9876 34.7832 23.1187C34.7349 23.1757 34.6867 23.2319 34.639 23.2873C34.5 23.4485 34.3676 23.615 34.2364 23.7802C34.4983 23.5181 34.7005 23.299 34.8935 23.0902C34.9193 23.0623 34.945 23.0345 34.9706 23.0069C35.2325 22.7245 35.488 22.4556 35.8638 22.1262C36.9303 21.1921 37.5567 20.6586 37.957 20.338C38.357 20.0183 38.5472 19.8998 38.7482 19.8185C39.0326 19.7033 39.4916 19.3798 39.7064 19.1968C39.7842 19.1305 39.9019 19.1407 39.9693 19.2195C40.0367 19.2982 40.0285 19.4157 39.9509 19.4819C39.7246 19.6746 39.2304 20.0275 38.8928 20.1641C38.7423 20.2251 38.5861 20.3158 38.1926 20.6302C37.7989 20.9455 37.1792 21.4733 36.1122 22.4079C35.7504 22.725 35.5049 22.9831 35.246 23.2621C35.2207 23.2895 35.1952 23.3171 35.1695 23.3449C35.1693 23.3451 35.1692 23.3452 35.169 23.3454C34.9315 23.6022 34.6742 23.8815 34.3069 24.2381C33.461 25.0579 32.3479 26.1877 32.1 26.4725C32.0512 26.5282 32.0048 26.583 31.9559 26.6408C31.7677 26.8632 31.5411 27.1303 30.9904 27.6902C30.8698 27.8128 30.7263 27.9542 30.5689 28.1067C30.3657 28.3708 30.1674 28.626 29.9866 28.8387C29.8301 29.0227 29.7019 29.2079 29.5817 29.3916C29.547 29.4445 29.5126 29.4982 29.4781 29.5518C29.3949 29.6811 29.3121 29.8102 29.2267 29.931C29.1586 30.0274 29.0895 30.1307 29.0165 30.2402C28.7512 30.6384 28.4348 31.1153 27.9162 31.63C27.3672 32.175 26.8826 32.6283 26.4646 33.0181C26.7781 32.7379 27.0281 32.5297 27.2377 32.3577C27.2772 32.3252 27.3151 32.2942 27.3516 32.2644C27.6094 32.0539 27.7979 31.9003 27.9805 31.7184C28.8551 30.8482 29.1657 30.5031 29.4758 30.0729C29.5573 29.96 29.6441 29.8308 29.7375 29.692C29.9239 29.415 30.1384 29.0977 30.3967 28.7869C30.6378 28.4968 30.8967 28.163 31.1736 27.8085C31.1737 27.8084 31.1738 27.8083 31.174 27.8082C31.228 27.739 31.2826 27.6692 31.3377 27.5988C31.6748 27.1691 32.0333 26.7209 32.4022 26.3062C32.4418 26.2617 32.4886 26.2077 32.5422 26.1458C32.8507 25.7894 33.396 25.162 34.1755 24.5215C34.3466 24.3809 34.5336 24.2447 34.7475 24.0895C34.8126 24.0423 34.8802 23.9934 34.9504 23.9421C35.2544 23.7202 35.6195 23.4467 36.0858 23.0612C36.471 22.7427 36.9303 22.3445 37.4092 21.9328C37.6451 21.73 37.8856 21.5241 38.1241 21.3226C38.8444 20.7142 39.5168 20.1707 40.1903 19.6316C40.1904 19.6315 40.1906 19.6314 40.1907 19.6313C40.2703 19.5676 40.3876 19.5816 40.4527 19.6624C40.5176 19.7431 40.506 19.86 40.4266 19.9235C39.7537 20.4621 39.0842 21.0031 38.3674 21.6086C38.1328 21.8068 37.8946 22.0107 37.6599 22.2124C37.1794 22.6255 36.7144 23.0287 36.3261 23.3497C35.8526 23.7412 35.4812 24.0194 35.1737 24.2439C35.0997 24.2979 35.0299 24.3485 34.9636 24.3966C34.7523 24.5499 34.5772 24.6772 34.415 24.8104C33.6614 25.4296 33.137 26.0326 32.8279 26.3895C32.7729 26.453 32.7245 26.5088 32.6827 26.5558C32.3214 26.962 31.969 27.4024 31.6325 27.8313C31.5781 27.9007 31.524 27.9699 31.4703 28.0386C31.4702 28.0388 31.4701 28.0389 31.4701 28.0391C31.1938 28.3928 30.9305 28.7322 30.685 29.0274C30.4369 29.3261 30.2434 29.6127 30.0642 29.8797C29.9679 30.0231 29.8744 30.1619 29.7792 30.2939C29.4508 30.7495 29.122 31.1121 28.246 31.9838ZM38.9234 18.7387C38.7069 18.8644 38.5487 18.989 38.4377 19.0899C38.5407 19.0142 38.6438 18.9394 38.747 18.865C38.8058 18.8227 38.8646 18.7806 38.9234 18.7387ZM30.288 27.8562C30.3125 27.8243 30.3372 27.7922 30.362 27.7599C30.2838 27.8387 30.2054 27.9174 30.1271 27.9962C30.0309 28.0929 29.9346 28.1897 29.8389 28.286C29.9953 28.1375 30.1479 27.9918 30.288 27.8562ZM27.651 31.3641C28.1407 30.8781 28.4321 30.4394 28.6956 30.0442C28.7717 29.9301 28.8456 29.8197 28.9211 29.713C28.9524 29.6688 28.9829 29.6239 29.0133 29.5782C28.7854 29.7914 28.5743 29.9887 28.4031 30.1489C27.8901 30.6293 27.5838 30.887 27.3141 31.114C27.2362 31.1796 27.1614 31.2427 27.0856 31.308C27.0359 31.375 26.9839 31.4442 26.9301 31.5131C26.8548 31.6098 26.7729 31.7121 26.6935 31.809C26.6139 31.9063 26.532 32.0041 26.4503 32.0993C26.3677 32.1954 26.2858 32.2888 26.203 32.3816C26.1252 32.4688 26.047 32.5552 25.9713 32.6389C25.9669 32.6437 25.9626 32.6485 25.9582 32.6533C25.8781 32.742 25.8006 32.8278 25.7311 32.9085C25.6605 32.9908 25.6036 33.0612 25.5573 33.1278C25.4993 33.2109 25.4391 33.2955 25.3788 33.3784C25.3188 33.4612 25.2583 33.543 25.1973 33.6241C25.1362 33.7053 25.0752 33.7852 25.0135 33.865C24.9935 33.8908 24.9726 33.9177 24.9527 33.9432C24.9435 33.955 24.9344 33.9668 24.9253 33.9785C25.0636 33.8396 25.2076 33.6962 25.3571 33.5492C25.5732 33.3367 25.8103 33.1148 26.0713 32.8714C26.5178 32.4553 27.0354 31.9753 27.651 31.3641ZM22.8827 36.1292C22.9409 36.0672 23.025 35.9754 23.1338 35.8569C23.1595 35.8289 23.1866 35.7993 23.2151 35.7684C23.2143 35.769 23.2136 35.7697 23.2129 35.7704C23.1336 35.8388 23.0609 35.9023 22.9835 35.9717C22.8454 36.0955 22.7131 36.2164 22.58 36.3409C22.4466 36.4656 22.3152 36.5912 22.1852 36.718C22.0547 36.8454 21.9252 36.9747 21.7986 37.1039C21.6709 37.2343 21.546 37.3646 21.4219 37.4978C21.3824 37.5402 21.3429 37.5829 21.3037 37.6258C21.3996 37.538 21.4979 37.4454 21.6018 37.3476C21.685 37.2693 21.7711 37.1885 21.8629 37.1037C21.898 37.0713 21.9413 37.0328 21.9918 36.9879C22.1922 36.8093 22.5058 36.5308 22.8827 36.1292ZM20.3859 38.7545C20.359 38.787 20.332 38.8192 20.3051 38.8507C20.2286 38.9405 20.1522 39.0269 20.077 39.1112C20.0242 39.1704 19.9717 39.2286 19.9201 39.2859C19.8983 39.3102 19.8766 39.3344 19.8551 39.3584C19.8191 39.3985 19.7835 39.4385 19.7483 39.4782C20.0097 39.2128 20.2651 38.951 20.5263 38.6755C20.5298 38.6719 20.5332 38.6682 20.5367 38.6645C20.4852 38.6952 20.435 38.7252 20.3859 38.7545Z" fill="#1E1E1E"/>
<mask id="mask0_1925_2810" style="mask-type:luminance" maskUnits="userSpaceOnUse" x="2" y="2" width="19" height="14">
<path d="M20.6382 2.95702L2.50952 2.95702L2.50952 15.043L20.6382 15.043L20.6382 2.95702Z" fill="white"/>
</mask>
<g mask="url(#mask0_1925_2810)">
<mask id="mask1_1925_2810" style="mask-type:luminance" maskUnits="userSpaceOnUse" x="2" y="2" width="19" height="14">
<path d="M20.6382 2.95702L2.50952 2.95702L2.50952 15.043L20.6382 15.043L20.6382 2.95702Z" fill="white"/>
</mask>
<g mask="url(#mask1_1925_2810)">
<path d="M7.97114 3.60287C5.01995 3.60287 2.61914 6.0241 2.61914 8.99962C2.61914 11.9751 5.01995 14.3971 7.97114 14.3971L15.1788 14.3971C18.1296 14.3971 20.5301 11.9759 20.5301 8.99962C20.5301 6.02334 18.1293 3.60287 15.1788 3.60287L7.97114 3.60287Z" fill="white"/>
<path d="M15.1792 14.5069L7.97149 14.5069C4.9604 14.5069 2.51062 12.0367 2.51062 8.99999C2.51062 5.96331 4.96002 3.49345 7.97111 3.49345L15.1788 3.49345C18.1895 3.49345 20.6389 5.96369 20.6389 8.99999C20.6389 12.0363 18.1895 14.5069 15.1788 14.5069M7.97111 3.60287C5.01992 3.60287 2.61911 6.02409 2.61911 8.99961C2.61911 11.9751 5.01992 14.3971 7.97111 14.3971L15.1788 14.3971C18.1296 14.3971 20.53 11.9759 20.53 8.99961C20.53 6.02333 18.1292 3.60287 15.1788 3.60287L7.97111 3.60287Z" fill="white"/>
<path d="M16.439 8.67023L18.8356 11.5451C19.3321 10.8217 19.6237 9.94448 19.6237 9C19.6237 8.00309 19.299 7.08103 18.7509 6.33563L16.439 8.67061V8.67023Z" fill="#E31F28"/>
<path d="M9.64711 6.09286C11.4369 6.09286 12.7855 6.55218 12.9245 8.07299L14.8081 6.09248H18.5591C17.7431 5.12938 16.5305 4.51733 15.1788 4.51733L7.97111 4.51733C6.61908 4.51733 5.40605 5.129 4.59009 6.09248L9.64674 6.09248L9.64711 6.09286Z" fill="#E31F28"/>
<path d="M6.69812 8.00992L6.05884 9.78224H8.63783C9.4003 9.78224 9.63085 9.46387 9.80151 8.85106C9.97027 8.24509 9.54609 8.00992 9.0251 8.00992H6.69812Z" fill="#E31F28"/>
<path d="M14.8239 11.7871L12.8314 9.24808C12.463 10.9794 11.2571 11.7871 8.99647 11.7871H4.49133C5.30617 12.8197 6.56327 13.4834 7.97068 13.4834L15.1784 13.4834C16.5858 13.4834 17.8421 12.8205 18.657 11.7875H14.8231L14.8239 11.7871Z" fill="#E31F28"/>
</g>
</g>
</svg>
