<svg width="15" height="11" viewBox="0 0 15 11" fill="none" xmlns="http://www.w3.org/2000/svg">
<path d="M7.24268 3.68104C7.32289 3.56107 7.37511 3.43423 7.43842 3.2766C7.43847 3.27652 7.43852 3.27645 7.43857 3.27637C7.44775 3.25364 7.45695 3.23046 7.46636 3.20693C7.5413 3.02062 7.65185 2.75454 7.80557 2.4882C7.86685 2.37347 7.92991 2.28707 7.81088 2.34788L6.25649 2.33282C6.36278 2.36151 6.514 2.42725 6.62709 2.45954C6.66615 2.47276 6.69534 2.4878 6.76501 2.54833C6.81253 2.5901 6.86948 2.64332 6.95787 2.72937C7.00727 2.77784 7.0562 2.82528 7.12113 2.88976C7.33081 3.09654 7.63081 3.46073 7.90408 3.80249C8.07031 4.01002 8.22683 4.20819 8.35006 4.35596C8.53042 4.57227 8.71422 4.77108 8.91639 4.99124C9.09901 5.18973 9.29715 5.40632 9.51576 5.66399C9.68348 5.86169 9.89927 6.01129 10.1251 6.15936C10.1538 6.1781 10.1826 6.1969 10.2115 6.21571C10.4113 6.34571 10.6155 6.47851 10.8054 6.6474C11.1436 6.94806 11.3385 7.24946 11.554 7.58187C11.639 7.71275 11.7262 7.84723 11.8274 7.98948C11.9876 8.21454 12.2348 8.52193 12.4867 8.83056C12.5079 8.85656 12.5291 8.88266 12.5509 8.90931C12.551 8.90945 12.5511 8.90958 12.5512 8.90972C12.7819 9.19193 13.0097 9.46784 13.17 9.67688C13.4252 10.0094 13.5042 10.1508 13.5678 10.267C13.5751 10.2803 13.5823 10.2933 13.5894 10.3062L13.6326 10.3526C13.654 10.382 13.676 10.4111 13.7022 10.4424C13.8381 10.6065 14.0822 10.8101 14.3188 10.9966C14.3197 10.9973 14.3206 10.998 14.3215 10.9988C14.3609 11.03 14.4461 10.9891 14.512 10.9077C14.5777 10.8262 14.5995 10.7353 14.5605 10.7044C14.436 10.6058 14.3142 10.5077 14.2083 10.4137C14.2614 10.3407 14.2776 10.2646 14.2434 10.2354C14.199 10.1972 14.1191 10.103 14.0136 9.95523C13.9288 9.8073 13.8252 9.61487 13.7029 9.3817C13.739 9.39994 13.7708 9.41358 13.7996 9.42468C13.8333 9.4377 13.8603 9.44644 13.8834 9.45395C13.9316 9.46955 13.9635 9.47988 14.0054 9.50985C14.0683 9.56901 14.1495 9.65953 14.2347 9.75672L14.2196 9.74048C14.2569 9.77505 14.2958 9.81069 14.3356 9.84643C14.3714 9.87857 14.4573 9.84108 14.527 9.76306C14.5967 9.68498 14.6254 9.59739 14.5917 9.56707C14.591 9.56647 14.5903 9.56586 14.5897 9.56526C14.5531 9.53244 14.517 9.49938 14.4819 9.4669L14.523 9.51113C14.4369 9.41282 14.3519 9.31794 14.2864 9.25688C14.2638 9.23593 14.2432 9.21856 14.2271 9.20596C14.2143 9.19588 14.1979 9.18348 14.1861 9.1788C14.1845 9.17818 14.1815 9.17705 14.1774 9.17607C14.1773 9.17606 14.1772 9.17606 14.1772 9.17606C14.1749 9.17549 14.1634 9.17259 14.145 9.17449C14.1413 9.17488 14.1331 9.17583 14.1212 9.17895C14.1197 9.17846 14.1181 9.17796 14.1166 9.17746C14.0954 9.17051 14.0737 9.16334 14.0513 9.15464C13.962 9.11877 13.8388 9.06064 13.6194 8.88819C13.4203 8.73279 13.1365 8.42107 12.8098 8.01098C12.8379 8.03367 12.8656 8.05633 12.8933 8.07938C12.9637 8.13838 13.0328 8.19815 13.1008 8.25778C13.1269 8.28064 13.1525 8.30312 13.1783 8.32606C13.2205 8.36358 13.2631 8.40183 13.305 8.43952C13.3333 8.46504 13.3616 8.49055 13.3897 8.51585C13.3897 8.51592 13.3898 8.51598 13.3899 8.51605C13.4291 8.55136 13.4674 8.58545 13.5081 8.62203C13.5223 8.6345 13.5363 8.64685 13.5501 8.6591C13.605 8.70786 13.6585 8.75535 13.7268 8.8033C13.7358 8.80849 13.7463 8.81361 13.7544 8.81716C13.763 8.82094 13.7717 8.82478 13.7802 8.82813C13.7876 8.83109 13.7949 8.83375 13.8019 8.83636C13.8028 8.83672 13.8037 8.83707 13.8046 8.83743C13.8124 8.84035 13.8196 8.84323 13.8266 8.84602C13.8335 8.84881 13.8402 8.85149 13.8465 8.85439C13.8465 8.85443 13.8465 8.85448 13.8466 8.85452C13.8531 8.85758 13.858 8.85992 13.8644 8.86355C13.8724 8.86811 13.8791 8.87222 13.8867 8.87754C13.8941 8.88268 13.9015 8.88827 13.9088 8.8941C13.916 8.89993 13.9232 8.90603 13.9303 8.91232C13.9374 8.91862 13.9445 8.9251 13.9516 8.93172C13.9586 8.93834 13.9656 8.94514 13.9726 8.95197C13.9796 8.9588 13.9867 8.9657 13.9938 8.97265C14.01 8.98864 14.0399 8.992 14.0773 8.98149C14.1147 8.97097 14.1565 8.94761 14.1939 8.91633C14.2313 8.88503 14.2616 8.84808 14.2785 8.81326C14.2954 8.77845 14.2974 8.74866 14.2845 8.73001C14.2809 8.72494 14.2774 8.7198 14.2739 8.71468C14.2717 8.71164 14.2695 8.70862 14.2674 8.70557C14.2616 8.69738 14.2558 8.68903 14.2498 8.68078C14.2438 8.67254 14.2375 8.66433 14.2311 8.65609C14.2247 8.64784 14.218 8.63956 14.211 8.63137C14.204 8.62321 14.1965 8.61505 14.1886 8.60706C14.1809 8.59924 14.1716 8.5907 14.1627 8.58346C14.1563 8.57813 14.1478 8.57203 14.1406 8.56705C14.1331 8.56186 14.1254 8.55696 14.1178 8.55237C14.1102 8.54781 14.1024 8.54336 14.0955 8.53955C14.0947 8.53912 14.094 8.53869 14.0932 8.53826C14.087 8.5348 14.0809 8.53146 14.0753 8.52821C14.0691 8.52457 14.0633 8.52097 14.058 8.51741C14.0521 8.51351 14.0489 8.51085 14.045 8.50754C13.9985 8.45972 13.9472 8.39434 13.8978 8.33125C13.8916 8.32332 13.8854 8.31545 13.8793 8.30764C13.8463 8.26534 13.8159 8.22571 13.7841 8.1844C13.7612 8.15456 13.7382 8.12454 13.715 8.09442C13.6809 8.05022 13.6458 8.00504 13.6115 7.96116C13.5904 7.93408 13.5694 7.90748 13.548 7.88043C13.492 7.80983 13.4346 7.7386 13.3757 7.66834C13.3179 7.59933 13.258 7.53035 13.1956 7.46256C13.1332 7.39462 13.067 7.32725 12.9983 7.26509C12.9477 7.21952 12.8893 7.17767 12.8335 7.14009C12.8033 7.11976 12.774 7.10072 12.7448 7.0818C12.7447 7.08175 12.7446 7.0817 12.7444 7.08165C12.7188 7.06508 12.6935 7.0487 12.6686 7.03214C12.6152 6.99669 12.5641 6.96058 12.5151 6.9226C12.466 6.88456 12.4197 6.84551 12.3752 6.80419C12.331 6.76316 12.2882 6.71963 12.2476 6.67486C12.207 6.62992 12.1686 6.58397 12.1303 6.53507C12.0799 6.47047 12.0321 6.4043 11.9835 6.33595C11.9352 6.26798 11.8874 6.19896 11.8396 6.12972C11.8229 6.1055 11.806 6.08132 11.7892 6.05701C11.7892 6.05692 11.7891 6.05683 11.789 6.05675C11.758 6.01177 11.7269 5.96667 11.6957 5.92162C11.6474 5.85206 11.5988 5.78243 11.5494 5.71318C11.4998 5.64391 11.4496 5.57506 11.3971 5.50654C11.3447 5.43821 11.2896 5.36919 11.23 5.30345C11.1771 5.2449 11.1219 5.18618 11.0681 5.12928C11.0539 5.11424 11.0397 5.09921 11.0255 5.08419C10.9582 5.01276 10.8947 4.94345 10.8352 4.87017C10.7759 4.7974 10.721 4.72163 10.6692 4.64283C10.6173 4.56399 10.567 4.48075 10.519 4.3964C10.4709 4.31177 10.425 4.22638 10.3786 4.13792C10.3327 4.05014 10.2888 3.96279 10.2437 3.87218C10.2184 3.82164 10.1903 3.76917 10.1631 3.72047C10.1357 3.67129 10.1078 3.6233 10.08 3.57645C10.0689 3.55768 10.0569 3.53799 10.0455 3.51898C10.0287 3.4911 10.0121 3.4636 9.99603 3.43644C9.96887 3.3906 9.94307 3.34566 9.91941 3.30118C9.89583 3.25681 9.87429 3.21256 9.85478 3.16698C9.83488 3.1201 9.82067 3.07991 9.80635 3.02993C9.76364 2.91494 9.72826 2.85238 9.68702 2.78036C9.67901 2.76631 9.67093 2.75191 9.66255 2.73693C9.61269 2.65185 9.56332 2.57371 9.50738 2.49228C9.45197 2.41146 9.39743 2.33641 9.33864 2.26041C9.27908 2.1835 9.21808 2.10925 9.1567 2.03841C9.09344 1.96531 9.02747 1.89298 8.96197 1.82532C8.89615 1.75722 8.8223 1.68419 8.75428 1.62141C8.71592 1.58616 8.66857 1.54383 8.62678 1.50847C8.59634 1.48261 8.56635 1.45784 8.5372 1.43402C8.52529 1.42429 8.51352 1.41471 8.50189 1.40525C8.459 1.36947 8.41821 1.3355 8.38049 1.30254C8.34215 1.26895 8.30992 1.23978 8.27343 1.20255C8.23851 1.16705 8.20676 1.13156 8.17735 1.09514C8.14807 1.05849 8.12102 1.02255 8.08969 0.976469C8.06937 0.94643 8.04983 0.917403 8.03055 0.888931C8.00329 0.847883 7.96588 0.797262 7.93424 0.752956C7.9028 0.708816 7.86735 0.66149 7.82749 0.611497C7.815 0.59571 7.80172 0.579179 7.78905 0.563511C7.77872 0.550729 7.76835 0.538031 7.75791 0.525386L6.91968 -9.6718e-05L6.41269 0.512351C6.33664 0.561037 6.27292 0.608252 6.21868 0.649539C6.14379 0.707089 6.0832 0.75691 6.02669 0.80353C5.96998 0.850518 5.91985 0.892211 5.87074 0.932373C5.78712 1.00086 5.72586 1.06781 5.67595 1.12645C5.62633 1.18491 5.58416 1.24039 5.54539 1.29164C5.53805 1.30136 5.53047 1.31147 5.52333 1.32094C5.4925 1.36202 5.46255 1.40248 5.43294 1.4414C5.39672 1.48898 5.36085 1.53467 5.32437 1.57941C5.28835 1.62356 5.25116 1.66755 5.21402 1.70894C5.17591 1.75164 5.13934 1.79052 5.09867 1.83151C5.05832 1.87241 5.01506 1.91104 4.9671 1.95418C4.92028 1.99578 4.87102 2.04 4.8232 2.08556C4.77566 2.1306 4.72879 2.17792 4.68499 2.2252C4.64045 2.27348 4.59848 2.32194 4.55861 2.371C4.5184 2.42047 4.48044 2.47021 4.4434 2.52118C4.40704 2.57118 4.36978 2.62503 4.33711 2.67452C4.32337 2.69531 4.30958 2.71624 4.29571 2.73732C4.25238 2.80282 4.21001 2.86782 4.16817 2.93237C4.11226 3.01872 4.05732 3.10441 4.00346 3.1889C3.94701 3.27702 3.89117 3.36448 3.83656 3.45043C3.78147 3.53705 3.72971 3.6191 3.67254 3.70855C3.66021 3.7279 3.64792 3.74717 3.63567 3.76639C3.59254 3.83403 3.54995 3.90083 3.50795 3.96645C3.50768 3.96692 3.50742 3.96739 3.50716 3.96786C3.45463 4.0501 3.39668 4.13931 3.3416 4.22292C3.32113 4.25388 3.30155 4.28342 3.28152 4.31308C3.26147 4.34276 3.24172 4.37158 3.22166 4.4003C3.20212 4.4283 3.18003 4.45915 3.15908 4.48767C3.13769 4.51674 3.11664 4.54464 3.09488 4.57215C3.07498 4.59739 3.05463 4.6218 3.0326 4.64834C3.03059 4.65076 3.02858 4.65318 3.02656 4.6556C3.00247 4.68459 2.9761 4.71795 2.95358 4.75003C2.89291 4.83687 2.8302 4.92356 2.76811 5.00655C2.70668 5.08867 2.64092 5.17381 2.57529 5.25732C2.54972 5.28988 2.52407 5.32214 2.4987 5.35415C2.45979 5.40323 2.41885 5.45485 2.37805 5.50669C2.31052 5.59245 2.24871 5.67208 2.18253 5.76041C2.11672 5.84824 2.05572 5.9329 1.99478 6.02103C1.93195 6.11155 1.87372 6.19958 1.81687 6.28884C1.75015 6.39267 1.69189 6.48707 1.62672 6.59035C1.56251 6.69243 1.5029 6.78905 1.43875 6.891C1.37791 6.98891 1.31275 7.09185 1.25225 7.18868C1.18877 7.28912 1.12945 7.38416 1.06441 7.48527C1.02617 7.54497 0.991671 7.60014 0.952164 7.66077C0.921585 7.68282 0.892648 7.7031 0.86532 7.72209C0.658734 7.86727 0.509046 7.96854 0.338123 8.1048C0.320868 8.11632 0.303442 8.12517 0.283846 8.13426C0.280076 8.13602 0.276157 8.13794 0.272133 8.13982C0.246595 8.15176 0.219328 8.16475 0.184786 8.19006C0.12058 8.23573 0.0300775 8.32899 0.000829423 8.46743C-0.00660778 8.50238 0.0454585 8.58732 0.110717 8.66374C0.156881 8.71698 0.200556 8.74909 0.229347 8.74762C0.205524 8.7833 0.18612 8.81403 0.178452 8.83451C0.175501 8.84264 0.187163 8.86251 0.207418 8.89325C0.227867 8.92387 0.253019 8.96397 0.27579 9.00617C0.298838 9.0482 0.319303 9.08842 0.341 9.11348C0.362078 9.13888 0.382564 9.14658 0.393133 9.13808C0.42348 9.11386 0.459926 9.08202 0.498181 9.04743C0.536638 9.01266 0.577238 8.97487 0.616068 8.93802C0.65769 8.89855 0.696661 8.86102 0.738881 8.81985C0.778643 8.78114 0.821628 8.73858 0.862436 8.69796C0.906614 8.6538 0.944141 8.61642 0.98807 8.57176C1.01411 8.54529 1.03738 8.52157 1.06287 8.49546C1.07222 8.48585 1.08154 8.47644 1.09088 8.46684C1.09841 8.4591 1.10656 8.45058 1.1139 8.44299C1.19292 8.36169 1.27406 8.27677 1.35676 8.18896C1.43498 8.10625 1.5179 8.01698 1.59745 7.93073C1.67983 7.84113 1.75782 7.75599 1.83825 7.66707C1.91649 7.5808 1.99858 7.48908 2.07674 7.40167C2.15827 7.31014 2.23431 7.22477 2.31536 7.13316C2.37948 7.06046 2.43597 6.99753 2.49866 6.92693C2.52874 6.90421 2.5588 6.88059 2.58771 6.85783C2.66933 6.79482 2.75896 6.73397 2.84908 6.67154C2.72192 6.80886 2.61659 6.9018 2.50934 6.99835C2.49527 7.0109 2.48133 7.02324 2.46755 7.0355C2.32724 7.16006 2.19232 7.2849 2.04368 7.47749C1.6214 8.02383 1.36767 8.32775 1.22146 8.52445C1.07426 8.72122 1.02451 8.82228 1.00804 8.93983C0.982835 9.10879 0.825101 9.33805 0.720946 9.42247C0.68422 9.45321 0.703994 9.54277 0.762651 9.62726C0.823001 9.71052 0.909179 9.75011 0.952985 9.71361C1.08247 9.60864 1.26412 9.35311 1.29806 9.14674C1.31542 9.05272 1.34999 8.96951 1.50049 8.76962C1.64872 8.57103 1.90533 8.26418 2.33291 7.71124C2.47782 7.52357 2.60778 7.40296 2.74824 7.27775C2.76195 7.26554 2.77591 7.25324 2.78999 7.24068C2.79006 7.24059 2.79013 7.2405 2.7902 7.24041C2.92222 7.1217 3.06159 6.99696 3.22719 6.80613C3.60904 6.3674 4.12852 5.77825 4.26897 5.64928C4.29613 5.62467 4.3234 5.60136 4.35224 5.57653C4.46441 5.47906 4.59526 5.36805 4.84868 5.06417C4.90289 4.99934 4.96258 4.92275 5.02786 4.83512C5.16543 4.73038 5.29481 4.63017 5.39706 4.53505C5.48513 4.4532 5.58778 4.38499 5.68723 4.32825C5.71593 4.31183 5.74532 4.2955 5.7747 4.27907C5.84555 4.23943 5.91682 4.19909 5.98095 4.15513C6.03199 4.12014 6.08835 4.08503 6.14824 4.04741C6.14834 4.04735 6.14844 4.04729 6.14854 4.04722C6.36808 3.90845 6.63104 3.7366 6.83805 3.42509C7.05769 3.09454 7.21693 2.80041 7.34638 2.56334C7.25888 2.74235 7.19626 2.89504 7.14514 3.02221C7.13556 3.04613 7.12605 3.06968 7.11708 3.09205C7.05394 3.24963 7.00593 3.36637 6.93228 3.47652C6.67858 3.85522 6.51693 4.05476 6.36222 4.19874C6.30236 4.25389 6.24371 4.30038 6.18019 4.3455C6.1207 4.38775 6.05094 4.43062 5.97631 4.47599C5.82863 4.56463 5.65071 4.67813 5.50041 4.80997C5.35838 4.93562 5.18389 5.07151 5.00329 5.20854C5.00324 5.20861 5.00319 5.20868 5.00314 5.20875C4.96691 5.23683 4.93043 5.26496 4.89388 5.2931C4.67347 5.46139 4.44077 5.64402 4.23868 5.83241C4.2166 5.85318 4.18947 5.87734 4.15849 5.90474C3.9829 6.05846 3.6667 6.33809 3.40829 6.76549C3.34954 6.86193 3.30546 6.96121 3.24556 7.08633C3.22805 7.12348 3.21017 7.16178 3.19139 7.20107C3.11117 7.36946 3.00236 7.57768 2.83577 7.82616C2.69417 8.03625 2.51174 8.27592 2.31472 8.52506C2.2177 8.64772 2.11942 8.7702 2.0183 8.89507C1.71198 9.26737 1.45859 9.60487 1.07921 9.95503C1.07913 9.9551 1.07904 9.95517 1.07895 9.95524C1.03461 9.995 1.03335 10.1013 1.09384 10.1844C1.15156 10.2695 1.25889 10.2923 1.31213 10.2453C1.73616 9.85634 1.98447 9.51922 2.29866 9.13917C2.40017 9.01398 2.49949 8.8904 2.5975 8.76659C2.79843 8.51276 2.98544 8.26728 3.12957 8.05365C3.30103 7.79831 3.4132 7.58434 3.49448 7.41359C3.51455 7.37181 3.5334 7.33186 3.55151 7.29362C3.61078 7.16978 3.6523 7.07604 3.70855 6.98386C3.95997 6.56832 4.2665 6.29616 4.44246 6.14209C4.47433 6.11387 4.50245 6.08873 4.52584 6.06672C4.72514 5.88053 4.95519 5.69944 5.17531 5.53153C5.21146 5.50371 5.24761 5.47576 5.28371 5.4478C5.28381 5.44776 5.28391 5.44773 5.28401 5.44769C5.46662 5.30798 5.64215 5.1725 5.7886 5.04211C5.93397 4.9143 6.09307 4.81462 6.23859 4.72553C6.31591 4.67879 6.39075 4.63288 6.46038 4.58345C6.53305 4.53186 6.59952 4.47853 6.66741 4.41457C6.82694 4.26212 6.99295 4.05395 7.24268 3.68104ZM0.266709 8.69156C0.304854 8.5953 0.355725 8.53222 0.404463 8.48859C0.372282 8.5352 0.343841 8.57795 0.314254 8.62115C0.299423 8.64388 0.280785 8.66991 0.266709 8.69156ZM4.73541 4.60554C4.71896 4.61796 4.7024 4.63041 4.6858 4.64284C4.72022 4.60029 4.75472 4.55721 4.78941 4.51381C4.83238 4.46001 4.87402 4.40764 4.91489 4.35619C4.85584 4.44033 4.79269 4.52845 4.73541 4.60554ZM6.52738 3.22064C6.33441 3.51091 6.096 3.66571 5.88116 3.80043C5.86661 3.80958 5.85213 3.8187 5.83773 3.82783C5.79078 3.85749 5.74536 3.88654 5.70208 3.91622C5.67864 3.9323 5.65443 3.94767 5.6296 3.96276C5.67352 3.89587 5.71587 3.83093 5.75561 3.76975C5.79322 3.71186 5.82641 3.65987 5.85757 3.61086C6.04555 3.31395 6.12831 3.13025 6.20138 2.9689C6.22244 2.92217 6.24242 2.87754 6.26365 2.83224C6.29604 2.80536 6.33022 2.77539 6.36235 2.74571C6.40803 2.70333 6.45537 2.65699 6.49941 2.61156C6.54336 2.56642 6.58671 2.51962 6.62811 2.47259C6.66947 2.4258 6.70941 2.37828 6.74816 2.33089C6.78454 2.28649 6.82009 2.24174 6.85427 2.19926C6.85621 2.19685 6.85814 2.19445 6.86007 2.19205C6.89661 2.14666 6.93165 2.10369 6.9659 2.06644C7.00102 2.02827 7.03231 1.99905 7.06448 1.97733C7.1049 1.94979 7.14443 1.92337 7.18279 1.89821C7.22067 1.87374 7.25706 1.85119 7.29007 1.83351C7.32284 1.81605 7.35313 1.80286 7.37455 1.79954C7.38133 1.79856 7.38763 1.79842 7.39186 1.79975C7.3926 1.79997 7.3933 1.80023 7.39395 1.80053L6.70421 1.79385C6.70588 1.79666 6.70759 1.79951 6.70934 1.80237C6.70687 1.80037 6.70443 1.79841 6.70202 1.79648L7.39598 1.80321C7.38644 1.81115 7.34187 1.85829 7.29806 1.91869C7.22951 2.01152 7.1551 2.141 7.07389 2.28863C6.93429 2.54211 6.76979 2.8558 6.52738 3.22064ZM7.60974 2.80614C7.58383 2.77455 7.54729 2.72768 7.50167 2.66955C7.49044 2.6553 7.47808 2.63953 7.46548 2.62366C7.46587 2.62396 7.46619 2.62432 7.46658 2.62462C7.50791 2.65717 7.54241 2.68398 7.58037 2.71589C7.64696 2.77163 7.7161 2.83402 7.77731 2.89023C7.84026 2.94843 7.9049 3.01197 7.96566 3.074C8.02575 3.13521 8.08568 3.19953 8.14464 3.266C8.20315 3.33196 8.25773 3.39622 8.31313 3.46561C8.3307 3.48761 8.34822 3.50998 8.36563 3.53262C8.31787 3.48951 8.27027 3.44409 8.22056 3.39696C8.18047 3.35885 8.14112 3.32222 8.09489 3.27956C8.07757 3.26368 8.0559 3.24523 8.03077 3.22396C7.93212 3.14088 7.77621 3.0094 7.60974 2.80614ZM8.72678 4.14159C8.73792 4.15938 8.74875 4.1764 8.7597 4.19296C8.79094 4.24017 8.82326 4.28515 8.85562 4.32913C8.87836 4.36002 8.90127 4.39041 8.92385 4.42055C8.93338 4.43327 8.94287 4.44603 8.95231 4.45868C8.96813 4.47987 8.98301 4.50018 8.99814 4.52087C8.87617 4.38688 8.76027 4.25672 8.6418 4.11459C8.64024 4.11272 8.63875 4.11077 8.63718 4.10889C8.66765 4.11997 8.69752 4.13086 8.72678 4.14159Z" fill="#1E1E1E"/>
</svg>
