<svg width="15" height="11" viewBox="0 0 15 11" fill="none" xmlns="http://www.w3.org/2000/svg">
<path d="M7.24268 7.32824C7.32289 7.44821 7.37511 7.57505 7.43842 7.73268C7.43847 7.73276 7.43852 7.73283 7.43857 7.73291C7.44775 7.75564 7.45695 7.77882 7.46636 7.80235C7.5413 7.98866 7.65185 8.25474 7.80557 8.52107C7.86685 8.63581 7.92991 8.72221 7.81088 8.6614L6.25649 8.67646C6.36278 8.64777 6.514 8.58203 6.62709 8.54974C6.66615 8.53651 6.69534 8.52147 6.76501 8.46095C6.81253 8.41918 6.86948 8.36596 6.95787 8.27991C7.00727 8.23144 7.0562 8.184 7.12113 8.11951C7.33081 7.91273 7.63081 7.54854 7.90408 7.20679C8.07031 6.99926 8.22683 6.80108 8.35006 6.65332C8.53042 6.43701 8.71422 6.2382 8.91639 6.01803C9.09901 5.81954 9.29715 5.60296 9.51576 5.34528C9.68348 5.14759 9.89927 4.99799 10.1251 4.84991C10.1538 4.83117 10.1826 4.81238 10.2115 4.79357C10.4113 4.66357 10.6155 4.53076 10.8054 4.36187C11.1436 4.06122 11.3385 3.75981 11.554 3.42741C11.639 3.29653 11.7262 3.16205 11.8274 3.0198C11.9876 2.79474 12.2348 2.48735 12.4867 2.17872C12.5079 2.15272 12.5291 2.12661 12.5509 2.09996C12.551 2.09983 12.5511 2.09969 12.5512 2.09956C12.7819 1.81735 13.0097 1.54143 13.17 1.3324C13.4252 0.99983 13.5042 0.858452 13.5678 0.742289C13.5751 0.728958 13.5823 0.715967 13.5894 0.703066L13.6326 0.656684C13.654 0.627268 13.676 0.598213 13.7022 0.566881C13.8381 0.402826 14.0822 0.19916 14.3188 0.0127029C14.3197 0.0119702 14.3206 0.0112367 14.3215 0.0105029C14.3609 -0.0207582 14.4461 0.0201937 14.512 0.101554C14.5777 0.183071 14.5995 0.274025 14.5605 0.304908C14.436 0.403478 14.3142 0.501567 14.2083 0.595596C14.2614 0.668592 14.2776 0.744656 14.2434 0.773899C14.199 0.812052 14.1191 0.906273 14.0136 1.05405C13.9288 1.20198 13.8252 1.39441 13.7029 1.62757C13.739 1.60934 13.7708 1.5957 13.7996 1.5846C13.8333 1.57158 13.8603 1.56283 13.8834 1.55533C13.9316 1.53973 13.9635 1.5294 14.0054 1.49943C14.0683 1.44027 14.1495 1.34975 14.2347 1.25256L14.2196 1.2688C14.2569 1.23423 14.2958 1.19859 14.3356 1.16284C14.3714 1.13071 14.4573 1.1682 14.527 1.24622C14.5967 1.3243 14.6254 1.41189 14.5917 1.4422C14.591 1.44281 14.5903 1.44341 14.5897 1.44402C14.5531 1.47683 14.517 1.50989 14.4819 1.54237L14.523 1.49814C14.4369 1.59646 14.3519 1.69134 14.2864 1.7524C14.2638 1.77335 14.2432 1.79072 14.2271 1.80332C14.2143 1.8134 14.1979 1.8258 14.1861 1.83048C14.1845 1.8311 14.1815 1.83222 14.1774 1.83321C14.1773 1.83321 14.1772 1.83322 14.1772 1.83322C14.1749 1.83378 14.1634 1.83669 14.145 1.83478C14.1413 1.8344 14.1331 1.83344 14.1212 1.83032C14.1197 1.83082 14.1181 1.83131 14.1166 1.83181C14.0954 1.83877 14.0737 1.84594 14.0513 1.85464C13.962 1.89051 13.8388 1.94863 13.6194 2.12109C13.4203 2.27649 13.1365 2.58821 12.8098 2.9983C12.8379 2.97561 12.8656 2.95295 12.8933 2.9299C12.9637 2.87089 13.0328 2.81113 13.1008 2.75149C13.1269 2.72864 13.1525 2.70616 13.1783 2.68322C13.2205 2.64569 13.2631 2.60745 13.305 2.56976C13.3333 2.54424 13.3616 2.51873 13.3897 2.49342C13.3897 2.49336 13.3898 2.49329 13.3899 2.49323C13.4291 2.45792 13.4674 2.42383 13.5081 2.38725C13.5223 2.37478 13.5363 2.36243 13.5501 2.35018C13.605 2.30142 13.6585 2.25392 13.7268 2.20598C13.7358 2.20079 13.7463 2.19567 13.7544 2.19212C13.763 2.18833 13.7717 2.1845 13.7802 2.18115C13.7876 2.17819 13.7949 2.17553 13.8019 2.17291C13.8028 2.17256 13.8037 2.17221 13.8046 2.17185C13.8124 2.16893 13.8196 2.16605 13.8266 2.16326C13.8335 2.16047 13.8402 2.15779 13.8465 2.15489C13.8465 2.15484 13.8465 2.1548 13.8466 2.15476C13.8531 2.15169 13.858 2.14936 13.8644 2.14573C13.8724 2.14117 13.8791 2.13706 13.8867 2.13174C13.8941 2.1266 13.9015 2.12101 13.9088 2.11518C13.916 2.10935 13.9232 2.10325 13.9303 2.09695C13.9374 2.09065 13.9445 2.08418 13.9516 2.07756C13.9586 2.07094 13.9656 2.06413 13.9726 2.05731C13.9796 2.05048 13.9867 2.04358 13.9938 2.03663C14.01 2.02064 14.0399 2.01727 14.0773 2.02779C14.1147 2.03831 14.1565 2.06167 14.1939 2.09295C14.2313 2.12425 14.2616 2.1612 14.2785 2.19602C14.2954 2.23083 14.2974 2.26061 14.2845 2.27927C14.2809 2.28434 14.2774 2.28948 14.2739 2.2946C14.2717 2.29763 14.2695 2.30065 14.2674 2.3037C14.2616 2.3119 14.2558 2.32025 14.2498 2.3285C14.2438 2.33674 14.2375 2.34495 14.2311 2.35318C14.2247 2.36144 14.218 2.36972 14.211 2.37791C14.204 2.38607 14.1965 2.39422 14.1886 2.40222C14.1809 2.41004 14.1716 2.41858 14.1627 2.42582C14.1563 2.43115 14.1478 2.43725 14.1406 2.44222C14.1331 2.44742 14.1254 2.45231 14.1178 2.4569C14.1102 2.46146 14.1024 2.46592 14.0955 2.46973C14.0947 2.47016 14.094 2.47059 14.0932 2.47101C14.087 2.47448 14.0809 2.47781 14.0753 2.48107C14.0691 2.4847 14.0633 2.48831 14.058 2.49187C14.0521 2.49577 14.0489 2.49843 14.045 2.50174C13.9985 2.54956 13.9472 2.61493 13.8978 2.67803C13.8916 2.68596 13.8854 2.69383 13.8793 2.70164C13.8463 2.74394 13.8159 2.78356 13.7841 2.82488C13.7612 2.85471 13.7382 2.88474 13.715 2.91486C13.6809 2.95906 13.6458 3.00424 13.6115 3.04812C13.5904 3.0752 13.5694 3.10179 13.548 3.12885C13.492 3.19945 13.4346 3.27068 13.3757 3.34093C13.3179 3.40995 13.258 3.47892 13.1956 3.54672C13.1332 3.61466 13.067 3.68203 12.9983 3.74419C12.9477 3.78976 12.8893 3.83161 12.8335 3.86919C12.8033 3.88952 12.774 3.90855 12.7448 3.92747C12.7447 3.92752 12.7446 3.92758 12.7444 3.92762C12.7188 3.9442 12.6935 3.96058 12.6686 3.97714C12.6152 4.01259 12.5641 4.0487 12.5151 4.08667C12.466 4.12472 12.4197 4.16377 12.3752 4.20509C12.331 4.24612 12.2882 4.28964 12.2476 4.33441C12.207 4.37936 12.1686 4.42531 12.1303 4.47421C12.0799 4.53881 12.0321 4.60498 11.9835 4.67333C11.9352 4.7413 11.8874 4.81032 11.8396 4.87956C11.8229 4.90377 11.806 4.92795 11.7892 4.95226C11.7892 4.95235 11.7891 4.95244 11.789 4.95253C11.758 4.9975 11.7269 5.04261 11.6957 5.08766C11.6474 5.15722 11.5988 5.22685 11.5494 5.2961C11.4998 5.36537 11.4496 5.43422 11.3971 5.50274C11.3447 5.57107 11.2896 5.64009 11.23 5.70582C11.1771 5.76438 11.1219 5.8231 11.0681 5.88C11.0539 5.89504 11.0397 5.91007 11.0255 5.92509C10.9582 5.99652 10.8947 6.06583 10.8352 6.1391C10.7759 6.21188 10.721 6.28765 10.6692 6.36644C10.6173 6.44528 10.567 6.52853 10.519 6.61287C10.4709 6.69751 10.425 6.7829 10.3786 6.87136C10.3327 6.95914 10.2888 7.04649 10.2437 7.1371C10.2184 7.18764 10.1903 7.24011 10.1631 7.28881C10.1357 7.33799 10.1078 7.38598 10.08 7.43283C10.0689 7.4516 10.0569 7.47128 10.0455 7.4903C10.0287 7.51818 10.0121 7.54568 9.99603 7.57284C9.96887 7.61868 9.94307 7.66362 9.91941 7.70809C9.89583 7.75246 9.87429 7.79672 9.85478 7.84229C9.83488 7.88918 9.82067 7.92937 9.80635 7.97935C9.76364 8.09434 9.72826 8.1569 9.68702 8.22892C9.67901 8.24297 9.67093 8.25736 9.66255 8.27235C9.61269 8.35743 9.56332 8.43557 9.50738 8.517C9.45197 8.59781 9.39743 8.67287 9.33864 8.74887C9.27908 8.82578 9.21808 8.90002 9.1567 8.97087C9.09344 9.04396 9.02747 9.11629 8.96197 9.18396C8.89615 9.25206 8.8223 9.32509 8.75428 9.38787C8.71592 9.42312 8.66857 9.46545 8.62678 9.50081C8.59634 9.52667 8.56635 9.55144 8.5372 9.57526C8.52529 9.58499 8.51352 9.59457 8.50189 9.60403C8.459 9.63981 8.41821 9.67378 8.38049 9.70674C8.34215 9.74032 8.30992 9.7695 8.27343 9.80673C8.23851 9.84223 8.20676 9.87772 8.17735 9.91414C8.14807 9.95078 8.12102 9.98673 8.08969 10.0328C8.06937 10.0628 8.04983 10.0919 8.03055 10.1203C8.00329 10.1614 7.96588 10.212 7.93424 10.2563C7.9028 10.3005 7.86735 10.3478 7.82749 10.3978C7.815 10.4136 7.80172 10.4301 7.78905 10.4458C7.77872 10.4585 7.76835 10.4712 7.75791 10.4839L6.91968 11.0094L6.41269 10.4969C6.33664 10.4482 6.27292 10.401 6.21868 10.3597C6.14379 10.3022 6.0832 10.2524 6.02669 10.2057C5.96998 10.1588 5.91985 10.1171 5.87074 10.0769C5.78712 10.0084 5.72586 9.94147 5.67595 9.88283C5.62633 9.82437 5.58416 9.76889 5.54539 9.71763C5.53805 9.70791 5.53047 9.6978 5.52333 9.68834C5.4925 9.64726 5.46255 9.6068 5.43294 9.56788C5.39672 9.5203 5.36085 9.47461 5.32437 9.42987C5.28835 9.38571 5.25116 9.34172 5.21402 9.30033C5.17591 9.25764 5.13934 9.21875 5.09867 9.17777C5.05832 9.13687 5.01506 9.09823 4.9671 9.05509C4.92028 9.0135 4.87102 8.96928 4.8232 8.92372C4.77566 8.87868 4.72879 8.83136 4.68499 8.78408C4.64045 8.7358 4.59848 8.68733 4.55861 8.63828C4.5184 8.58881 4.48044 8.53907 4.4434 8.48809C4.40704 8.4381 4.36978 8.38425 4.33711 8.33476C4.32337 8.31397 4.30958 8.29304 4.29571 8.27196C4.25238 8.20645 4.21001 8.14146 4.16817 8.07691C4.11226 7.99056 4.05732 7.90486 4.00346 7.82037C3.94701 7.73226 3.89117 7.6448 3.83656 7.55885C3.78147 7.47223 3.72971 7.39017 3.67254 7.30073C3.66021 7.28138 3.64792 7.2621 3.63567 7.24289C3.59254 7.17525 3.54995 7.10845 3.50795 7.04283C3.50768 7.04236 3.50742 7.04189 3.50716 7.04142C3.45463 6.95918 3.39668 6.86997 3.3416 6.78636C3.32113 6.7554 3.30155 6.72586 3.28152 6.6962C3.26147 6.66651 3.24172 6.6377 3.22166 6.60898C3.20212 6.58098 3.18003 6.55013 3.15908 6.52161C3.13769 6.49254 3.11664 6.46464 3.09488 6.43713C3.07498 6.41188 3.05463 6.38747 3.0326 6.36094C3.03059 6.35851 3.02858 6.3561 3.02656 6.35368C3.00247 6.32468 2.9761 6.29133 2.95358 6.25925C2.89291 6.17241 2.8302 6.08571 2.76811 6.00272C2.70668 5.9206 2.64092 5.83546 2.57529 5.75195C2.54972 5.7194 2.52407 5.68714 2.4987 5.65512C2.45979 5.60605 2.41885 5.55443 2.37805 5.50259C2.31052 5.41682 2.24871 5.3372 2.18253 5.24887C2.11672 5.16104 2.05572 5.07637 1.99478 4.98825C1.93195 4.89772 1.87372 4.8097 1.81687 4.72044C1.75015 4.61661 1.69189 4.52221 1.62672 4.41892C1.56251 4.31685 1.5029 4.22023 1.43875 4.11828C1.37791 4.02037 1.31275 3.91743 1.25225 3.82059C1.18877 3.72016 1.12945 3.62512 1.06441 3.524C1.02617 3.46431 0.991671 3.40913 0.952164 3.34851C0.921585 3.32646 0.892648 3.30617 0.86532 3.28719C0.658734 3.14201 0.509046 3.04073 0.338123 2.90448C0.320868 2.89296 0.303442 2.88411 0.283846 2.87502C0.280076 2.87325 0.276157 2.87134 0.272133 2.86946C0.246595 2.85752 0.219328 2.84453 0.184786 2.81922C0.12058 2.77354 0.0300775 2.68029 0.000829423 2.54184C-0.00660778 2.50689 0.0454585 2.42195 0.110717 2.34553C0.156881 2.2923 0.200556 2.26018 0.229347 2.26166C0.205524 2.22597 0.18612 2.19525 0.178452 2.17476C0.175501 2.16663 0.187163 2.14677 0.207418 2.11603C0.227867 2.08541 0.253019 2.04531 0.27579 2.00311C0.298838 1.96108 0.319303 1.92085 0.341 1.8958C0.362078 1.8704 0.382564 1.86269 0.393133 1.8712C0.42348 1.89542 0.459926 1.92726 0.498181 1.96185C0.536638 1.99662 0.577238 2.03441 0.616068 2.07125C0.65769 2.11073 0.696661 2.14826 0.738881 2.18942C0.778643 2.22814 0.821628 2.2707 0.862436 2.31132C0.906614 2.35547 0.944141 2.39286 0.98807 2.43752C1.01411 2.46399 1.03738 2.48771 1.06287 2.51381C1.07222 2.52342 1.08154 2.53283 1.09088 2.54244C1.09841 2.55018 1.10656 2.5587 1.1139 2.56629C1.19292 2.64758 1.27406 2.7325 1.35676 2.82032C1.43498 2.90303 1.5179 2.99229 1.59745 3.07855C1.67983 3.16814 1.75782 3.25328 1.83825 3.34221C1.91649 3.42848 1.99858 3.5202 2.07674 3.6076C2.15827 3.69913 2.23431 3.78451 2.31536 3.87612C2.37948 3.94882 2.43597 4.01175 2.49866 4.08235C2.52874 4.10507 2.5588 4.12869 2.58771 4.15145C2.66933 4.21446 2.75896 4.27531 2.84908 4.33774C2.72192 4.20042 2.61659 4.10748 2.50934 4.01092C2.49527 3.99838 2.48133 3.98604 2.46755 3.97377C2.32724 3.84921 2.19232 3.72438 2.04368 3.53179C1.6214 2.98545 1.36767 2.68153 1.22146 2.48483C1.07426 2.28806 1.02451 2.18699 1.00804 2.06945C0.982835 1.90048 0.825101 1.67123 0.720946 1.58681C0.68422 1.55606 0.703994 1.46651 0.762651 1.38202C0.823001 1.29876 0.909179 1.25917 0.952985 1.29567C1.08247 1.40064 1.26412 1.65617 1.29806 1.86253C1.31542 1.95656 1.34999 2.03977 1.50049 2.23966C1.64872 2.43825 1.90533 2.74509 2.33291 3.29804C2.47782 3.4857 2.60778 3.60631 2.74824 3.73153C2.76195 3.74374 2.77591 3.75604 2.78999 3.7686C2.79006 3.76869 2.79013 3.76878 2.7902 3.76887C2.92222 3.88758 3.06159 4.01232 3.22719 4.20315C3.60904 4.64188 4.12852 5.23103 4.26897 5.35999C4.29613 5.3846 4.3234 5.40791 4.35224 5.43275C4.46441 5.53021 4.59526 5.64123 4.84868 5.94511C4.90289 6.00994 4.96258 6.08653 5.02786 6.17415C5.16543 6.2789 5.29481 6.37911 5.39706 6.47423C5.48513 6.55608 5.58778 6.62429 5.68723 6.68103C5.71593 6.69745 5.74532 6.71377 5.7747 6.73021C5.84555 6.76984 5.91682 6.81019 5.98095 6.85415C6.03199 6.88914 6.08835 6.92425 6.14824 6.96186C6.14834 6.96193 6.14844 6.96199 6.14854 6.96205C6.36808 7.10083 6.63104 7.27268 6.83805 7.58419C7.05769 7.91473 7.21693 8.20886 7.34638 8.44594C7.25888 8.26693 7.19626 8.11424 7.14514 7.98706C7.13556 7.96315 7.12605 7.9396 7.11708 7.91723C7.05394 7.75965 7.00593 7.64291 6.93228 7.53276C6.67858 7.15406 6.51693 6.95451 6.36222 6.81054C6.30236 6.75539 6.24371 6.7089 6.18019 6.66378C6.1207 6.62153 6.05094 6.57866 5.97631 6.53329C5.82863 6.44465 5.65071 6.33115 5.50041 6.19931C5.35838 6.07365 5.18389 5.93777 5.00329 5.80074C5.00324 5.80067 5.00319 5.80059 5.00314 5.80052C4.96691 5.77245 4.93043 5.74432 4.89388 5.71617C4.67347 5.54788 4.44077 5.36526 4.23868 5.17687C4.2166 5.1561 4.18947 5.13194 4.15849 5.10454C3.9829 4.95082 3.6667 4.67119 3.40829 4.24378C3.34954 4.14735 3.30546 4.04806 3.24556 3.92295C3.22805 3.8858 3.21017 3.84749 3.19139 3.80821C3.11117 3.63982 3.00236 3.4316 2.83577 3.18312C2.69417 2.97303 2.51174 2.73336 2.31472 2.48422C2.2177 2.36155 2.11942 2.23908 2.0183 2.1142C1.71198 1.74191 1.45859 1.40441 1.07921 1.05424C1.07913 1.05418 1.07904 1.05411 1.07895 1.05404C1.03461 1.01428 1.03335 0.907961 1.09384 0.824874C1.15156 0.739753 1.25889 0.716975 1.31213 0.763936C1.73616 1.15294 1.98447 1.49006 2.29866 1.87011C2.40017 1.9953 2.49949 2.11887 2.5975 2.24269C2.79843 2.49652 2.98544 2.742 3.12957 2.95563C3.30103 3.21097 3.4132 3.42493 3.49448 3.59569C3.51455 3.63747 3.5334 3.67742 3.55151 3.71566C3.61078 3.8395 3.6523 3.93324 3.70855 4.02542C3.95997 4.44095 4.2665 4.71311 4.44246 4.86719C4.47433 4.89541 4.50245 4.92054 4.52584 4.94256C4.72514 5.12875 4.95519 5.30983 5.17531 5.47774C5.21146 5.50557 5.24761 5.53352 5.28371 5.56148C5.28381 5.56151 5.28391 5.56155 5.28401 5.56159C5.46662 5.7013 5.64215 5.83677 5.7886 5.96717C5.93397 6.09498 6.09307 6.19465 6.23859 6.28374C6.31591 6.33048 6.39075 6.3764 6.46038 6.42582C6.53305 6.47742 6.59952 6.53075 6.66741 6.59471C6.82694 6.74716 6.99295 6.95533 7.24268 7.32824ZM0.266709 2.31771C0.304854 2.41397 0.355725 2.47706 0.404463 2.52069C0.372282 2.47407 0.343841 2.43132 0.314254 2.38812C0.299423 2.3654 0.280785 2.33937 0.266709 2.31771ZM4.73541 6.40374C4.71896 6.39131 4.7024 6.37886 4.6858 6.36643C4.72022 6.40899 4.75472 6.45207 4.78941 6.49546C4.83238 6.54927 4.87402 6.60163 4.91489 6.65308C4.85584 6.56895 4.79269 6.48083 4.73541 6.40374ZM6.52738 7.78864C6.33441 7.49837 6.096 7.34357 5.88116 7.20885C5.86661 7.1997 5.85213 7.19058 5.83773 7.18145C5.79078 7.15179 5.74536 7.12273 5.70208 7.09305C5.67864 7.07698 5.65443 7.0616 5.6296 7.04652C5.67352 7.1134 5.71587 7.17835 5.75561 7.23953C5.79322 7.29741 5.82641 7.3494 5.85757 7.39841C6.04555 7.69533 6.12831 7.87903 6.20138 8.04038C6.22244 8.0871 6.24242 8.13174 6.26365 8.17703C6.29604 8.20392 6.33022 8.23389 6.36235 8.26357C6.40803 8.30595 6.45537 8.35229 6.49941 8.39772C6.54336 8.44285 6.58671 8.48965 6.62811 8.53669C6.66947 8.58348 6.70941 8.631 6.74816 8.67838C6.78454 8.72279 6.82009 8.76753 6.85427 8.81001C6.85621 8.81243 6.85814 8.81483 6.86007 8.81723C6.89661 8.86262 6.93165 8.90559 6.9659 8.94283C7.00102 8.981 7.03231 9.01022 7.06448 9.03195C7.1049 9.05949 7.14443 9.08591 7.18279 9.11107C7.22067 9.13554 7.25706 9.15809 7.29007 9.17577C7.32284 9.19323 7.35313 9.20641 7.37455 9.20974C7.38133 9.21072 7.38763 9.21085 7.39186 9.20953C7.3926 9.20931 7.3933 9.20905 7.39395 9.20874L6.70421 9.21543C6.70588 9.21261 6.70759 9.20977 6.70934 9.20691C6.70687 9.20891 6.70443 9.21087 6.70202 9.2128L7.39598 9.20607C7.38644 9.19813 7.34187 9.15099 7.29806 9.09059C7.22951 8.99775 7.1551 8.86828 7.07389 8.72064C6.93429 8.46717 6.76979 8.15348 6.52738 7.78864ZM7.60974 8.20314C7.58383 8.23473 7.54729 8.2816 7.50167 8.33973C7.49044 8.35398 7.47808 8.36975 7.46548 8.38562C7.46587 8.38532 7.46619 8.38495 7.46658 8.38466C7.50791 8.35211 7.54241 8.32529 7.58037 8.29339C7.64696 8.23764 7.7161 8.17526 7.77731 8.11905C7.84026 8.06084 7.9049 7.99731 7.96566 7.93528C8.02575 7.87406 8.08568 7.80975 8.14464 7.74328C8.20315 7.67731 8.25773 7.61306 8.31313 7.54367C8.3307 7.52166 8.34822 7.4993 8.36563 7.47665C8.31787 7.51977 8.27027 7.56519 8.22056 7.61232C8.18047 7.65043 8.14112 7.68706 8.09489 7.72972C8.07757 7.74559 8.0559 7.76405 8.03077 7.78531C7.93212 7.8684 7.77621 7.99987 7.60974 8.20314ZM8.72678 6.86768C8.73792 6.8499 8.74875 6.83287 8.7597 6.81632C8.79094 6.76911 8.82326 6.72413 8.85562 6.68014C8.87836 6.64926 8.90127 6.61887 8.92385 6.58873C8.93338 6.57601 8.94287 6.56325 8.95231 6.5506C8.96813 6.52941 8.98301 6.50909 8.99814 6.4884C8.87617 6.6224 8.76027 6.75256 8.6418 6.89469C8.64024 6.89656 8.63875 6.8985 8.63718 6.90039C8.66765 6.88931 8.69752 6.87841 8.72678 6.86768Z" fill="#1E1E1E"/>
</svg>
