<svg width="299" height="261" viewBox="0 0 299 261" fill="none" xmlns="http://www.w3.org/2000/svg">
<path d="M7.91052 4.8311C7.74029 4.86888 7.57554 4.8709 7.37001 4.87695C7.3699 4.87698 7.3698 4.877 7.3697 4.87703C7.34064 4.87784 7.3109 4.8786 7.2805 4.87963C7.02869 4.89096 6.70385 4.9109 6.2954 5.02368C6.04388 5.09379 5.84795 5.13159 5.72672 5.12857L6.12964 4.77418C5.98154 4.8744 5.84632 4.95195 5.73072 5.00784C5.68131 5.03183 5.63984 5.06347 5.55407 5.15968C5.498 5.2228 5.42568 5.31029 5.32392 5.43959C5.26992 5.50829 5.20771 5.58894 5.13592 5.68434C4.89673 5.99922 4.58923 6.5394 4.34674 7.05994C4.19811 7.37536 4.07031 7.68123 3.97125 7.91405C3.8264 8.25433 3.67899 8.58255 3.52984 8.94799C3.3936 9.28256 3.25605 9.64837 3.12695 10.0845C3.0282 10.4185 2.85216 10.7267 2.66868 11.0469C2.64536 11.0875 2.62201 11.1281 2.5986 11.1692C2.43694 11.4536 2.27637 11.7476 2.15972 12.0815C1.95275 12.6755 1.92771 13.1775 1.90918 13.7297C1.90769 13.7749 1.90625 13.8206 1.90478 13.8668L1.90911 13.8082C1.91871 13.9825 1.92832 14.1634 1.93359 14.3563C1.94392 14.742 1.93348 15.2963 1.92864 15.8542C1.92821 15.9021 1.92795 15.9493 1.92759 15.9967C1.92759 15.9969 1.92759 15.9972 1.92759 15.9974C1.92365 16.5078 1.92525 17.0102 1.9428 17.3773C1.97098 17.9615 2.01864 18.1802 2.05745 18.3624C2.07215 18.4307 2.08595 18.4946 2.09754 18.5699C2.13925 18.8422 2.14797 19.2557 2.16061 19.6737C2.16068 19.6753 2.16075 19.6769 2.16082 19.6785C2.16291 19.7479 2.0527 19.8093 1.9146 19.8154C1.77649 19.8215 1.66263 19.7696 1.66053 19.6997C1.6538 19.4768 1.64813 19.2593 1.63856 19.0645C1.51949 19.0589 1.42767 19.0097 1.42633 18.9468C1.42318 18.7887 1.31546 18.3096 1.15379 17.554C1.13319 17.6063 1.11305 17.6504 1.09385 17.6892C1.07132 17.7343 1.05188 17.769 1.03524 17.7989C1.00058 17.8613 0.977741 17.9031 0.962049 17.976C0.946343 18.1454 0.949379 18.4098 0.954514 18.6887C0.955772 18.7593 0.84507 18.8197 0.706961 18.8242C0.568816 18.8285 0.455602 18.775 0.454241 18.7039C0.454196 18.7025 0.45415 18.7011 0.454105 18.6997C0.448974 18.4219 0.445604 18.1476 0.462457 17.9696C0.466745 17.9246 0.472205 17.8857 0.477322 17.8563C0.481413 17.8329 0.487042 17.8037 0.494786 17.7874C0.495817 17.7852 0.497903 17.7811 0.501126 17.7761C0.501206 17.776 0.501285 17.7759 0.501365 17.7759C0.503146 17.7731 0.512162 17.759 0.532152 17.7438C0.536191 17.7407 0.545208 17.734 0.559847 17.7261C0.560943 17.7241 0.56204 17.7222 0.563137 17.7202C0.57836 17.6929 0.593873 17.6645 0.608915 17.6341C0.667748 17.5158 0.740675 17.3283 0.817124 16.9416C0.88765 16.5858 0.91514 15.9867 0.921256 15.2388C0.910526 15.2889 0.900155 15.3402 0.890239 15.3906C0.865316 15.5174 0.842834 15.6457 0.821684 15.7737C0.813605 15.8226 0.805737 15.8712 0.79804 15.9208C0.78559 15.9994 0.773493 16.0805 0.761794 16.1594C0.753875 16.2129 0.746155 16.2677 0.738432 16.3212C0.738432 16.3213 0.738433 16.3215 0.738434 16.3216C0.727712 16.3959 0.717037 16.4721 0.706137 16.5471C0.702066 16.5735 0.698177 16.5997 0.694396 16.6257C0.679352 16.7294 0.664921 16.8312 0.636281 16.9481C0.631471 16.9624 0.625214 16.9779 0.619989 16.9895C0.614483 17.002 0.60887 17.014 0.60315 17.0254C0.598101 17.0354 0.592958 17.045 0.588177 17.0542C0.587544 17.0555 0.58691 17.0567 0.586277 17.0579C0.580928 17.0682 0.575991 17.0782 0.571325 17.0875C0.566665 17.0968 0.562179 17.1059 0.558302 17.1148C0.558304 17.1148 0.558305 17.1149 0.558306 17.115C0.554335 17.1243 0.55135 17.1313 0.547961 17.1412C0.543715 17.1535 0.540468 17.1642 0.537287 17.177C0.534192 17.1895 0.531464 17.2025 0.529113 17.2156C0.526765 17.2288 0.524744 17.2422 0.522935 17.2558C0.521124 17.2693 0.519466 17.2833 0.518015 17.297C0.516567 17.3108 0.515339 17.3248 0.514103 17.3389C0.512866 17.353 0.511631 17.3673 0.510468 17.3816C0.507762 17.4147 0.480625 17.4469 0.433989 17.4711C0.38735 17.4954 0.325331 17.5095 0.260882 17.5106C0.196423 17.5117 0.13422 17.4997 0.0873456 17.4769C0.0404944 17.4541 0.0129734 17.4226 0.0100255 17.3895C0.0092324 17.3804 0.00835967 17.3714 0.00758576 17.3623C0.00712585 17.3569 0.00676477 17.3514 0.00632191 17.346C0.00513172 17.3314 0.0038358 17.3167 0.00287271 17.3019C0.00191307 17.2872 0.00119436 17.272 0.000648618 17.2568C0.000104427 17.2415 -0.000243664 17.2261 -0.000107408 17.2104C3.00407e-05 17.1948 0.000607252 17.1789 0.00182509 17.1627C0.00296569 17.1469 0.0051136 17.1289 0.00790226 17.1128C0.00985372 17.101 0.0132744 17.0865 0.0163695 17.0743C0.019608 17.0615 0.0232543 17.049 0.0270668 17.0369C0.0308881 17.0248 0.0349576 17.0131 0.0387895 17.002C0.0391802 17.0008 0.0395708 16.9996 0.0399615 16.9984C0.0433524 16.9885 0.0466609 16.979 0.0495896 16.9701C0.0528653 16.96 0.0556425 16.9505 0.0580037 16.9415C0.0606606 16.9316 0.0616865 16.9256 0.0628309 16.9182C0.0696219 16.8203 0.0666254 16.7004 0.0640908 16.5848C0.0637721 16.5703 0.0635158 16.556 0.0632281 16.5418C0.0614165 16.467 0.0593882 16.3903 0.0574592 16.3156C0.0560549 16.261 0.0546612 16.2056 0.053483 16.151C0.0517344 16.0707 0.0503941 15.9886 0.0494692 15.9083C0.048929 15.8576 0.0486054 15.8081 0.0484798 15.7582C0.048108 15.6269 0.0492109 15.495 0.05295 15.364C0.0567052 15.2316 0.0630203 15.0998 0.073374 14.9671C0.0836892 14.8354 0.0988247 14.6985 0.1212 14.5657C0.137883 14.4686 0.166009 14.3697 0.195079 14.277C0.210721 14.2278 0.226612 14.1795 0.242562 14.1317C0.242647 14.1315 0.242732 14.1313 0.242818 14.1312C0.256815 14.0893 0.27069 14.0489 0.284 14.0073C0.311133 13.9243 0.335879 13.8415 0.357487 13.7607L0.363051 13.6855C0.364612 13.6811 0.366164 13.6768 0.367706 13.6724C0.397621 13.5877 0.42407 13.5035 0.447101 13.4186C0.469896 13.3346 0.489851 13.248 0.506595 13.162C0.523438 13.0755 0.537013 12.9909 0.549143 12.9014C0.56497 12.7827 0.577193 12.6649 0.589565 12.5446C0.601868 12.4239 0.613565 12.3022 0.625759 12.1811C0.629974 12.139 0.634649 12.0956 0.639092 12.0529C0.639119 12.0527 0.639145 12.0526 0.639172 12.0524C0.647426 11.9731 0.65593 11.894 0.664883 11.815C0.678786 11.6927 0.693972 11.5691 0.710935 11.4467C0.728002 11.3239 0.747298 11.1993 0.769734 11.0763C0.79241 10.9527 0.818987 10.8252 0.853421 10.7004C0.884082 10.5882 0.918046 10.4754 0.951899 10.3664C0.960819 10.3376 0.969852 10.3086 0.978952 10.2796C1.02202 10.1415 1.06237 10.0103 1.09696 9.87625C1.13154 9.74312 1.16017 9.60957 1.18523 9.47211C1.21002 9.33583 1.23152 9.19594 1.25154 9.05423C1.27143 8.91266 1.29003 8.76976 1.30847 8.62521C1.32689 8.48107 1.34544 8.3354 1.36479 8.18767C1.37572 8.10521 1.39003 8.01834 1.40535 7.93688C1.42069 7.85494 1.43824 7.77266 1.45641 7.69257C1.4638 7.66001 1.4714 7.6277 1.47894 7.59561C1.48992 7.5489 1.50118 7.50236 1.51211 7.45642C1.53055 7.37893 1.54815 7.30317 1.56367 7.2289C1.57917 7.15469 1.59273 7.08117 1.60266 7.00915C1.61295 6.93445 1.61835 6.8719 1.62153 6.79458C1.64207 6.61153 1.67145 6.50501 1.70501 6.38572C1.71163 6.36227 1.7183 6.33827 1.72527 6.31326C1.76737 6.17141 1.81631 6.03156 1.86951 5.89582C1.92326 5.75888 1.98155 5.62552 2.04514 5.49319C2.10829 5.36177 2.17662 5.23202 2.24918 5.10483C2.32159 4.97789 2.39824 4.85362 2.47943 4.73165C2.56054 4.60974 2.64773 4.48824 2.73542 4.37432C2.78609 4.30841 2.84211 4.24021 2.89555 4.17779C2.93406 4.13276 2.97271 4.08887 3.01083 4.04608C3.02637 4.02865 3.04187 4.01136 3.05721 3.99426C3.11012 3.93527 3.16159 3.87809 3.21004 3.82203C3.25858 3.76587 3.30397 3.71118 3.34628 3.65575C3.38863 3.6003 3.42783 3.5442 3.46455 3.48642C3.50243 3.42652 3.53208 3.37532 3.5675 3.3076C3.59047 3.26345 3.61315 3.21995 3.63576 3.17689C3.66959 3.11244 3.70346 3.04833 3.73784 2.98358C3.75684 2.94778 3.77578 2.91216 3.79474 2.87652L4.14263 2.57053C4.17448 2.54345 4.20663 2.51679 4.23918 2.49041C4.26262 2.4714 4.2876 2.45158 4.31147 2.43284C4.38474 2.37514 4.46212 2.31806 4.52733 2.26812C4.59541 2.21677 4.66413 2.16632 4.73375 2.11601C4.8062 2.06445 4.86357 2.0201 4.93073 1.9711C5.04284 1.88857 5.16017 1.82801 5.25512 1.783C5.35342 1.73689 5.45185 1.69773 5.54254 1.66265C5.55906 1.65623 5.57565 1.64983 5.59227 1.64346C5.66393 1.61615 5.73535 1.58995 5.80628 1.56366C5.89487 1.53094 5.97795 1.4996 6.05992 1.46783C6.14177 1.43622 6.22521 1.40341 6.30804 1.36964C6.39241 1.33534 6.46507 1.30365 6.54871 1.26673C6.63041 1.23062 6.71472 1.18951 6.80581 1.14569C6.8932 1.10287 6.98632 1.05879 7.08264 1.0177C7.17912 0.976489 7.27821 0.938249 7.37374 0.905141C7.47053 0.871694 7.56939 0.841861 7.66835 0.815747C7.76879 0.789297 7.86255 0.767735 7.96073 0.748173C8.05775 0.728807 8.1604 0.711354 8.25515 0.697763C8.40613 0.676152 8.55823 0.657 8.71205 0.639105C8.86352 0.621611 9.01278 0.60606 9.16493 0.591278C9.3182 0.576349 9.46475 0.563497 9.61567 0.551062C9.7665 0.538647 9.91615 0.527329 10.0649 0.516842C10.0979 0.514512 10.1309 0.512209 10.1639 0.509932C10.2802 0.501936 10.3975 0.494213 10.5119 0.487028C10.5127 0.487017 10.5135 0.487006 10.5143 0.486995C10.6623 0.477571 10.8084 0.468728 10.9558 0.459146C11.0094 0.455616 11.061 0.452242 11.1134 0.448475C11.1659 0.444696 11.2175 0.440742 11.2695 0.436411C11.3215 0.432067 11.3733 0.427338 11.4242 0.422157C11.4758 0.416878 11.5258 0.411267 11.576 0.404643C11.622 0.398632 11.6677 0.391572 11.7176 0.384048C11.7221 0.383358 11.7267 0.382668 11.7312 0.381979C11.7859 0.373737 11.8482 0.36589 11.9064 0.361705C12.0608 0.351013 12.2105 0.339173 12.3629 0.325474C12.5153 0.311787 12.6672 0.296618 12.8203 0.280911C12.8801 0.274795 12.9401 0.268456 13.0001 0.262328C13.0935 0.252793 13.1869 0.243408 13.2812 0.234561C13.4362 0.219997 13.5912 0.2073 13.747 0.197753C13.9033 0.188164 14.0603 0.181868 14.2159 0.179357C14.3714 0.176823 14.5308 0.177682 14.6857 0.182147C14.8572 0.187246 15.0328 0.194207 15.2049 0.202578C15.3757 0.211038 15.5517 0.220527 15.7229 0.231202C15.8934 0.241932 16.0688 0.253387 16.2401 0.265981C16.4098 0.278652 16.5858 0.291965 16.7568 0.306393C16.859 0.315038 16.9611 0.324075 17.0659 0.333288C17.1201 0.319519 17.1718 0.306127 17.2213 0.293446C17.5865 0.199881 17.8546 0.133584 18.2079 0.0846761C18.2412 0.0777864 18.2681 0.0684911 18.3007 0.0572906C18.3068 0.0551578 18.3139 0.0529983 18.3209 0.0507128C18.3657 0.036237 18.417 0.0210122 18.4874 0.0106238C18.6249 -0.0100191 18.8471 -0.0105832 19.1204 0.102851C19.1929 0.131468 19.2403 0.264292 19.2263 0.399469C19.2165 0.494289 19.1793 0.565083 19.1327 0.589076C19.2197 0.604045 19.3045 0.619951 19.3869 0.635935C19.4198 0.642338 19.4505 0.673176 19.4723 0.722425C19.4941 0.77169 19.5054 0.835098 19.504 0.899462C19.5026 0.963846 19.4886 1.02432 19.4648 1.06845C19.4411 1.11253 19.4095 1.13656 19.3767 1.13581C19.2903 1.13371 19.1981 1.13183 19.1112 1.13092C19.026 1.12996 18.9392 1.13004 18.8504 1.1309C18.7596 1.1318 18.6758 1.13344 18.5886 1.13575C18.5021 1.13808 18.413 1.14096 18.324 1.14448C18.2381 1.14789 18.1525 1.15198 18.0643 1.15636C18.0114 1.159 17.9575 1.16172 17.9041 1.16467C17.8842 1.16573 17.8662 1.16692 17.8474 1.16801C17.8322 1.16889 17.8168 1.1697 17.8009 1.17059C17.6355 1.18038 17.4573 1.19164 17.2932 1.20337C17.1254 1.21518 16.9511 1.22804 16.7851 1.24134C16.6167 1.25473 16.4442 1.26918 16.2774 1.28392C16.1091 1.29874 15.9373 1.31439 15.7702 1.33059C15.6025 1.34684 15.4306 1.36393 15.2638 1.38183C15.134 1.39571 15.0033 1.4104 14.874 1.42574C14.824 1.44169 14.7743 1.45694 14.7252 1.47174C14.5827 1.5148 14.4381 1.56905 14.299 1.62287C14.5522 1.58389 14.7555 1.53672 14.9476 1.49227C14.9737 1.48629 14.9995 1.48032 15.0253 1.47448C15.2876 1.41493 15.5419 1.36342 15.885 1.35465C16.865 1.33028 17.4304 1.33089 17.7875 1.35198C18.1439 1.37369 18.2906 1.41826 18.4389 1.50963C18.6431 1.6388 19.0287 1.70833 19.2219 1.70921C19.2939 1.70941 19.3513 1.82186 19.3523 1.96007C19.3532 2.09832 19.2978 2.21014 19.2264 2.20994C19.0238 2.209 18.6122 2.13871 18.3664 1.98529C18.2616 1.91683 18.138 1.87357 17.7914 1.8521C17.441 1.83136 16.8844 1.83072 15.9074 1.85491C15.5785 1.86327 15.3347 1.91236 15.0768 1.97111C15.0515 1.97688 15.0259 1.98289 15 1.98883C14.9999 1.98884 14.9997 1.98885 14.9996 1.98886C14.7642 2.04352 14.5045 2.10392 14.1573 2.14729C13.3522 2.24571 12.2771 2.4289 12.0256 2.50418C11.9762 2.51867 11.9286 2.53423 11.8785 2.55062C11.6866 2.61381 11.4541 2.68888 10.9244 2.78425C10.8085 2.80524 10.6743 2.82543 10.5245 2.84578C10.3087 2.93997 10.1026 3.02965 9.91928 3.09195C9.76216 3.14556 9.62308 3.22471 9.48781 3.30977C9.44913 3.33422 9.41051 3.35959 9.37217 3.3849C9.27958 3.44597 9.18907 3.50709 9.0965 3.55825C9.02347 3.59892 8.94849 3.64603 8.87043 3.696C8.58405 3.87869 8.24621 4.09927 7.7855 4.19873C7.29699 4.30467 6.88599 4.3812 6.54486 4.4572C6.80172 4.41221 7.00339 4.39986 7.17873 4.3914C7.2108 4.3901 7.24182 4.38898 7.27188 4.38795C7.48681 4.38019 7.64234 4.37796 7.80496 4.34186C8.5855 4.17346 8.88197 4.08983 9.20676 3.91262C9.29381 3.86631 9.38435 3.80896 9.48626 3.74705C9.69092 3.62319 9.9222 3.48391 10.1865 3.38845C10.428 3.30012 10.7023 3.18263 10.9911 3.06119C10.9912 3.06118 10.9913 3.06117 10.9915 3.06115C11.0482 3.03739 11.1058 3.01343 11.1641 2.98945C11.5172 2.8435 11.8933 2.69813 12.2646 2.59613C12.3043 2.58522 12.3516 2.5709 12.4061 2.55446C12.72 2.45958 13.2756 2.29513 13.9704 2.32061C14.1236 2.32615 14.2829 2.34994 14.4645 2.3778C14.5203 2.38626 14.5781 2.39525 14.6382 2.40407C14.8969 2.44224 15.2118 2.48106 15.6266 2.49391C15.9703 2.50445 16.3829 2.49839 16.8189 2.49519C17.0275 2.49383 17.2521 2.49286 17.4608 2.49504C18.105 2.50122 18.699 2.53139 19.288 2.56915C19.2881 2.56915 19.2882 2.56915 19.2883 2.56915C19.3586 2.57362 19.4127 2.6896 19.4115 2.82776C19.4102 2.96586 19.3545 3.07414 19.2849 3.06972C18.7 3.03197 18.1116 3.00166 17.473 2.99541C17.2685 2.99325 17.0468 2.99418 16.8401 2.99548C16.4043 2.99859 15.9882 3.00469 15.6429 2.994C15.2233 2.98086 14.9045 2.94125 14.6434 2.90255C14.5804 2.89326 14.5208 2.8841 14.4643 2.87547C14.2861 2.84792 14.137 2.82536 13.9926 2.82006C13.3238 2.79523 12.7926 2.95271 12.4796 3.04741C12.4241 3.0642 12.3753 3.07893 12.3336 3.09042C11.9723 3.19005 11.6044 3.33261 11.2549 3.47781C11.1978 3.50142 11.1411 3.52502 11.085 3.5486C11.0849 3.54869 11.0848 3.54879 11.0847 3.54888C10.7981 3.66985 10.5217 3.78878 10.2785 3.87825C10.0262 3.96977 9.82191 4.09507 9.62528 4.21447C9.521 4.27838 9.42277 4.33989 9.32482 4.39335C8.98405 4.58011 8.67553 4.6659 7.91052 4.8311ZM19.0058 0.566622C18.8343 0.506361 18.6892 0.495854 18.5884 0.502067C18.6762 0.514561 18.7628 0.527915 18.8543 0.541873C18.9055 0.549829 18.956 0.558075 19.0058 0.566622ZM10.4432 2.35173C10.4695 2.3403 10.496 2.32878 10.5226 2.31722C10.4468 2.33034 10.3712 2.34332 10.296 2.35644C10.2034 2.37258 10.1129 2.38846 10.0194 2.40495C10.1679 2.38713 10.3093 2.36977 10.4432 2.35173ZM7.68041 3.70913C8.12609 3.61303 8.43915 3.40961 8.7296 3.22692C8.81173 3.17467 8.89257 3.12427 8.97421 3.07906C9.00806 3.06031 9.04183 3.04023 9.07593 3.01925C8.86093 3.04492 8.67406 3.06774 8.51107 3.08913C8.03932 3.15092 7.76795 3.16352 7.52292 3.17729C7.45295 3.18121 7.38636 3.18523 7.31939 3.19074C7.27036 3.21899 7.21545 3.24867 7.16132 3.27641C7.08535 3.31547 7.00449 3.35549 6.92893 3.39184C6.85465 3.42795 6.77049 3.46546 6.69436 3.49925C6.61559 3.53387 6.54472 3.56484 6.46465 3.59783C6.3912 3.62838 6.31977 3.65779 6.25271 3.68645C6.24886 3.68809 6.24503 3.68972 6.2412 3.69136C6.17305 3.72092 6.09779 3.75348 6.03662 3.7853C5.97349 3.81806 5.92442 3.84885 5.88483 3.88332C5.83096 3.92796 5.77782 3.97239 5.72815 4.01488C5.67859 4.05738 5.63154 4.09834 5.58173 4.14055C5.5333 4.18221 5.4888 4.22219 5.44787 4.26086C5.43417 4.27359 5.41839 4.28775 5.40484 4.30054C5.39851 4.30647 5.39232 4.31244 5.38622 4.31829C5.48595 4.26636 5.58528 4.22216 5.7065 4.1749C5.87233 4.11082 6.0665 4.05636 6.29123 4.00291C6.66838 3.91397 7.11902 3.83099 7.68041 3.70913ZM4.47457 5.68374C4.50231 5.6359 4.54146 5.56493 4.59336 5.47404C4.60563 5.45257 4.61848 5.42988 4.63219 5.40624C4.63174 5.40671 4.63138 5.40726 4.63093 5.40774C4.58356 5.45766 4.54059 5.50462 4.49602 5.55656C4.41668 5.6492 4.34247 5.74158 4.27071 5.83724C4.19869 5.9333 4.13014 6.03138 4.06471 6.13177C3.99918 6.23232 3.93699 6.3352 3.87868 6.4394C3.81999 6.54438 3.76526 6.65004 3.71438 6.75861C3.69818 6.79318 3.68235 6.82808 3.66694 6.8632C3.71517 6.7914 3.7633 6.71639 3.815 6.63751C3.85627 6.57457 3.8997 6.50952 3.94719 6.44207C3.96537 6.41626 3.98863 6.38573 4.01594 6.35033C4.12437 6.20997 4.29531 5.99326 4.47457 5.68374ZM3.41042 7.79253C3.40319 7.8195 3.39577 7.84622 3.38806 7.8725C3.3661 7.94724 3.34278 8.01878 3.31942 8.08926C3.30303 8.13864 3.28635 8.1878 3.27052 8.23565C3.26381 8.25592 3.25721 8.27623 3.25067 8.29635C3.23971 8.33006 3.22916 8.36369 3.21881 8.39716C3.31526 8.17149 3.41104 7.95239 3.50835 7.72371C3.50963 7.7207 3.51079 7.71762 3.51208 7.71458C3.4774 7.74095 3.44352 7.76692 3.41042 7.79253Z" fill="#1E1E1E"/>
<path d="M7.91052 248.857C7.74029 248.819 7.57554 248.817 7.37001 248.811C7.3699 248.811 7.3698 248.811 7.3697 248.811C7.34064 248.81 7.3109 248.81 7.2805 248.809C7.02869 248.797 6.70385 248.777 6.2954 248.665C6.04388 248.594 5.84795 248.557 5.72672 248.56L6.12964 248.914C5.98154 248.814 5.84632 248.736 5.73072 248.68C5.68131 248.656 5.63984 248.625 5.55407 248.529C5.498 248.465 5.42568 248.378 5.32392 248.249C5.26992 248.18 5.20771 248.099 5.13592 248.004C4.89673 247.689 4.58923 247.149 4.34674 246.628C4.19811 246.313 4.07031 246.007 3.97125 245.774C3.8264 245.434 3.67899 245.106 3.52984 244.74C3.3936 244.406 3.25605 244.04 3.12695 243.604C3.0282 243.27 2.85216 242.962 2.66868 242.641C2.64536 242.601 2.62201 242.56 2.5986 242.519C2.43694 242.235 2.27637 241.941 2.15972 241.607C1.95275 241.013 1.92771 240.511 1.90918 239.959C1.90769 239.913 1.90625 239.868 1.90478 239.822L1.90911 239.88C1.91871 239.706 1.92832 239.525 1.93359 239.332C1.94392 238.946 1.93348 238.392 1.92864 237.834C1.92821 237.786 1.92795 237.739 1.92759 237.692C1.92759 237.691 1.92759 237.691 1.92759 237.691C1.92365 237.18 1.92525 236.678 1.9428 236.311C1.97098 235.727 2.01864 235.508 2.05745 235.326C2.07215 235.258 2.08595 235.194 2.09754 235.118C2.13925 234.846 2.14797 234.433 2.16061 234.015C2.16068 234.013 2.16075 234.011 2.16082 234.01C2.16291 233.94 2.0527 233.879 1.9146 233.873C1.77649 233.867 1.66263 233.919 1.66053 233.989C1.6538 234.212 1.64813 234.429 1.63856 234.624C1.51949 234.629 1.42767 234.679 1.42633 234.742C1.42318 234.9 1.31546 235.379 1.15379 236.134C1.13319 236.082 1.11305 236.038 1.09385 235.999C1.07132 235.954 1.05188 235.919 1.03524 235.889C1.00058 235.827 0.977741 235.785 0.962049 235.712C0.946343 235.543 0.949379 235.278 0.954514 235C0.955772 234.929 0.84507 234.869 0.706961 234.864C0.568816 234.86 0.455602 234.913 0.454241 234.984C0.454196 234.986 0.45415 234.987 0.454105 234.989C0.448974 235.266 0.445604 235.541 0.462457 235.719C0.466745 235.764 0.472205 235.803 0.477322 235.832C0.481413 235.855 0.487042 235.885 0.494786 235.901C0.495817 235.903 0.497903 235.907 0.501126 235.912C0.501206 235.912 0.501285 235.912 0.501365 235.912C0.503146 235.915 0.512162 235.929 0.532152 235.945C0.536191 235.948 0.545208 235.954 0.559847 235.962C0.560943 235.964 0.56204 235.966 0.563137 235.968C0.57836 235.995 0.593873 236.024 0.608915 236.054C0.667748 236.172 0.740675 236.36 0.817124 236.747C0.88765 237.102 0.91514 237.702 0.921256 238.449C0.910526 238.399 0.900155 238.348 0.890239 238.298C0.865316 238.171 0.842834 238.043 0.821684 237.915C0.813605 237.866 0.805737 237.817 0.79804 237.768C0.78559 237.689 0.773493 237.608 0.761794 237.529C0.753875 237.475 0.746155 237.421 0.738432 237.367C0.738432 237.367 0.738433 237.367 0.738434 237.367C0.727712 237.292 0.717037 237.216 0.706137 237.141C0.702066 237.115 0.698177 237.089 0.694396 237.063C0.679352 236.959 0.664921 236.857 0.636281 236.74C0.631471 236.726 0.625214 236.71 0.619989 236.699C0.614483 236.686 0.60887 236.674 0.60315 236.663C0.598101 236.653 0.592958 236.643 0.588177 236.634C0.587544 236.633 0.58691 236.632 0.586277 236.63C0.580928 236.62 0.575991 236.61 0.571325 236.601C0.566665 236.591 0.562179 236.582 0.558302 236.574C0.558304 236.573 0.558305 236.573 0.558306 236.573C0.554335 236.564 0.55135 236.557 0.547961 236.547C0.543715 236.535 0.540468 236.524 0.537287 236.511C0.534192 236.499 0.531464 236.486 0.529113 236.473C0.526765 236.46 0.524744 236.446 0.522935 236.433C0.521124 236.419 0.519466 236.405 0.518015 236.391C0.516567 236.377 0.515339 236.363 0.514103 236.349C0.512866 236.335 0.511631 236.321 0.510468 236.307C0.507762 236.274 0.480625 236.241 0.433989 236.217C0.38735 236.193 0.325331 236.179 0.260882 236.178C0.196423 236.177 0.13422 236.189 0.0873456 236.211C0.0404944 236.234 0.0129734 236.266 0.0100255 236.299C0.0092324 236.308 0.00835967 236.317 0.00758576 236.326C0.00712585 236.331 0.00676477 236.337 0.00632191 236.342C0.00513172 236.357 0.0038358 236.372 0.00287271 236.386C0.00191307 236.401 0.00119436 236.416 0.000648618 236.431C0.000104427 236.447 -0.000243664 236.462 -0.000107408 236.478C3.00407e-05 236.493 0.000607252 236.509 0.00182509 236.526C0.00296569 236.541 0.0051136 236.559 0.00790226 236.576C0.00985372 236.587 0.0132744 236.602 0.0163695 236.614C0.019608 236.627 0.0232543 236.639 0.0270668 236.651C0.0308881 236.663 0.0349576 236.675 0.0387895 236.686C0.0391802 236.688 0.0395708 236.689 0.0399615 236.69C0.0433524 236.7 0.0466609 236.709 0.0495896 236.718C0.0528653 236.728 0.0556425 236.738 0.0580037 236.747C0.0606606 236.757 0.0616865 236.763 0.0628309 236.77C0.0696219 236.868 0.0666254 236.988 0.0640908 237.103C0.0637721 237.118 0.0635158 237.132 0.0632281 237.146C0.0614165 237.221 0.0593882 237.298 0.0574592 237.373C0.0560549 237.427 0.0546612 237.483 0.053483 237.537C0.0517344 237.618 0.0503941 237.7 0.0494692 237.78C0.048929 237.831 0.0486054 237.88 0.0484798 237.93C0.048108 238.061 0.0492109 238.193 0.05295 238.324C0.0567052 238.457 0.0630203 238.588 0.073374 238.721C0.0836892 238.853 0.0988247 238.99 0.1212 239.123C0.137883 239.22 0.166009 239.319 0.195079 239.411C0.210721 239.46 0.226612 239.509 0.242562 239.557C0.242647 239.557 0.242732 239.557 0.242818 239.557C0.256815 239.599 0.27069 239.639 0.284 239.681C0.311133 239.764 0.335879 239.847 0.357487 239.928L0.363051 240.003C0.364612 240.007 0.366164 240.012 0.367706 240.016C0.397621 240.101 0.42407 240.185 0.447101 240.27C0.469896 240.354 0.489851 240.44 0.506595 240.526C0.523438 240.613 0.537013 240.697 0.549143 240.787C0.56497 240.906 0.577193 241.023 0.589565 241.144C0.601868 241.264 0.613565 241.386 0.625759 241.507C0.629974 241.549 0.634649 241.593 0.639092 241.635C0.639119 241.636 0.639145 241.636 0.639172 241.636C0.647426 241.715 0.65593 241.794 0.664883 241.873C0.678786 241.996 0.693972 242.119 0.710935 242.242C0.728002 242.364 0.747298 242.489 0.769734 242.612C0.79241 242.736 0.818987 242.863 0.853421 242.988C0.884082 243.1 0.918046 243.213 0.951899 243.322C0.960819 243.351 0.969852 243.38 0.978952 243.409C1.02202 243.547 1.06237 243.678 1.09696 243.812C1.13154 243.945 1.16017 244.079 1.18523 244.216C1.21002 244.352 1.23152 244.492 1.25154 244.634C1.27143 244.776 1.29003 244.919 1.30847 245.063C1.32689 245.207 1.34544 245.353 1.36479 245.501C1.37572 245.583 1.39003 245.67 1.40535 245.751C1.42069 245.833 1.43824 245.916 1.45641 245.996C1.4638 246.028 1.4714 246.061 1.47894 246.093C1.48992 246.139 1.50118 246.186 1.51211 246.232C1.53055 246.309 1.54815 246.385 1.56367 246.459C1.57917 246.534 1.59273 246.607 1.60266 246.679C1.61295 246.754 1.61835 246.816 1.62153 246.894C1.64207 247.077 1.67145 247.183 1.70501 247.303C1.71163 247.326 1.7183 247.35 1.72527 247.375C1.76737 247.517 1.81631 247.657 1.86951 247.792C1.92326 247.929 1.98155 248.063 2.04514 248.195C2.10829 248.327 2.17662 248.456 2.24918 248.583C2.32159 248.71 2.39824 248.835 2.47943 248.957C2.56054 249.079 2.64773 249.2 2.73542 249.314C2.78609 249.38 2.84211 249.448 2.89555 249.511C2.93406 249.556 2.97271 249.599 3.01083 249.642C3.02637 249.66 3.04187 249.677 3.05721 249.694C3.11012 249.753 3.16159 249.81 3.21004 249.866C3.25858 249.922 3.30397 249.977 3.34628 250.033C3.38863 250.088 3.42783 250.144 3.46455 250.202C3.50243 250.262 3.53208 250.313 3.5675 250.381C3.59047 250.425 3.61315 250.468 3.63576 250.511C3.66959 250.576 3.70346 250.64 3.73784 250.705C3.75684 250.741 3.77578 250.776 3.79474 250.812L4.14263 251.118C4.17448 251.145 4.20663 251.172 4.23918 251.198C4.26262 251.217 4.2876 251.237 4.31147 251.255C4.38474 251.313 4.46212 251.37 4.52733 251.42C4.59541 251.472 4.66413 251.522 4.73375 251.572C4.8062 251.624 4.86357 251.668 4.93073 251.717C5.04284 251.8 5.16017 251.86 5.25512 251.905C5.35342 251.951 5.45185 251.991 5.54254 252.026C5.55906 252.032 5.57565 252.038 5.59227 252.045C5.66393 252.072 5.73535 252.098 5.80628 252.125C5.89487 252.157 5.97795 252.189 6.05992 252.22C6.14177 252.252 6.22521 252.285 6.30804 252.319C6.39241 252.353 6.46507 252.385 6.54871 252.422C6.63041 252.458 6.71472 252.499 6.80581 252.543C6.8932 252.585 6.98632 252.63 7.08264 252.671C7.17912 252.712 7.27821 252.75 7.37374 252.783C7.47053 252.817 7.56939 252.846 7.66835 252.873C7.76879 252.899 7.86255 252.921 7.96073 252.94C8.05775 252.959 8.1604 252.977 8.25515 252.991C8.40613 253.012 8.55823 253.031 8.71205 253.049C8.86352 253.067 9.01278 253.082 9.16493 253.097C9.3182 253.112 9.46475 253.125 9.61567 253.137C9.7665 253.15 9.91615 253.161 10.0649 253.171C10.0979 253.174 10.1309 253.176 10.1639 253.178C10.2802 253.186 10.3975 253.194 10.5119 253.201C10.5127 253.201 10.5135 253.201 10.5143 253.201C10.6623 253.211 10.8084 253.22 10.9558 253.229C11.0094 253.233 11.061 253.236 11.1134 253.24C11.1659 253.244 11.2175 253.248 11.2695 253.252C11.3215 253.256 11.3733 253.261 11.4242 253.266C11.4758 253.271 11.5258 253.277 11.576 253.284C11.622 253.29 11.6677 253.297 11.7176 253.304C11.7221 253.305 11.7267 253.306 11.7312 253.306C11.7859 253.315 11.8482 253.322 11.9064 253.327C12.0608 253.337 12.2105 253.349 12.3629 253.363C12.5153 253.377 12.6672 253.392 12.8203 253.407C12.8801 253.413 12.9401 253.42 13.0001 253.426C13.0935 253.436 13.1869 253.445 13.2812 253.454C13.4362 253.468 13.5912 253.481 13.747 253.491C13.9033 253.5 14.0603 253.506 14.2159 253.509C14.3714 253.511 14.5308 253.511 14.6857 253.506C14.8572 253.501 15.0328 253.494 15.2049 253.486C15.3757 253.477 15.5517 253.468 15.7229 253.457C15.8934 253.446 16.0688 253.435 16.2401 253.422C16.4098 253.41 16.5858 253.396 16.7568 253.382C16.859 253.373 16.9611 253.364 17.0659 253.355C17.1201 253.369 17.1718 253.382 17.2213 253.395C17.5865 253.488 17.8546 253.555 18.2079 253.604C18.2412 253.611 18.2681 253.62 18.3007 253.631C18.3068 253.633 18.3139 253.635 18.3209 253.638C18.3657 253.652 18.417 253.667 18.4874 253.678C18.6249 253.698 18.8471 253.699 19.1204 253.585C19.1929 253.557 19.2403 253.424 19.2263 253.289C19.2165 253.194 19.1793 253.123 19.1327 253.099C19.2197 253.084 19.3045 253.068 19.3869 253.052C19.4198 253.046 19.4505 253.015 19.4723 252.966C19.4941 252.917 19.5054 252.853 19.504 252.789C19.5026 252.724 19.4886 252.664 19.4648 252.62C19.4411 252.576 19.4095 252.552 19.3767 252.552C19.2903 252.555 19.1981 252.556 19.1112 252.557C19.026 252.558 18.9392 252.558 18.8504 252.557C18.7596 252.556 18.6758 252.555 18.5886 252.553C18.5021 252.55 18.413 252.547 18.324 252.544C18.2381 252.54 18.1525 252.536 18.0643 252.532C18.0114 252.529 17.9575 252.527 17.9041 252.524C17.8842 252.523 17.8662 252.521 17.8474 252.52C17.8322 252.519 17.8168 252.519 17.8009 252.518C17.6355 252.508 17.4573 252.497 17.2932 252.485C17.1254 252.473 16.9511 252.46 16.7851 252.447C16.6167 252.434 16.4442 252.419 16.2774 252.404C16.1091 252.39 15.9373 252.374 15.7702 252.358C15.6025 252.341 15.4306 252.324 15.2638 252.306C15.134 252.293 15.0033 252.278 14.874 252.263C14.824 252.247 14.7743 252.231 14.7252 252.217C14.5827 252.173 14.4381 252.119 14.299 252.065C14.5522 252.104 14.7555 252.152 14.9476 252.196C14.9737 252.202 14.9995 252.208 15.0253 252.214C15.2876 252.273 15.5419 252.325 15.885 252.334C16.865 252.358 17.4304 252.357 17.7875 252.336C18.1439 252.315 18.2906 252.27 18.4389 252.179C18.6431 252.049 19.0287 251.98 19.2219 251.979C19.2939 251.979 19.3513 251.866 19.3523 251.728C19.3532 251.59 19.2978 251.478 19.2264 251.478C19.0238 251.479 18.6122 251.55 18.3664 251.703C18.2616 251.771 18.138 251.815 17.7914 251.836C17.441 251.857 16.8844 251.858 15.9074 251.833C15.5785 251.825 15.3347 251.776 15.0768 251.717C15.0515 251.711 15.0259 251.705 15 251.699C14.9999 251.699 14.9997 251.699 14.9996 251.699C14.7642 251.645 14.5045 251.584 14.1573 251.541C13.3522 251.443 12.2771 251.259 12.0256 251.184C11.9762 251.17 11.9286 251.154 11.8785 251.138C11.6866 251.074 11.4541 250.999 10.9244 250.904C10.8085 250.883 10.6743 250.863 10.5245 250.843C10.3087 250.748 10.1026 250.659 9.91928 250.596C9.76216 250.543 9.62308 250.464 9.48781 250.379C9.44913 250.354 9.41051 250.329 9.37217 250.303C9.27958 250.242 9.18907 250.181 9.0965 250.13C9.02347 250.089 8.94849 250.042 8.87043 249.992C8.58405 249.81 8.24621 249.589 7.7855 249.49C7.29699 249.384 6.88599 249.307 6.54486 249.231C6.80172 249.276 7.00339 249.288 7.17873 249.297C7.2108 249.298 7.24182 249.299 7.27188 249.3C7.48681 249.308 7.64234 249.31 7.80496 249.346C8.5855 249.515 8.88197 249.598 9.20676 249.776C9.29381 249.822 9.38435 249.879 9.48626 249.941C9.69092 250.065 9.9222 250.204 10.1865 250.3C10.428 250.388 10.7023 250.506 10.9911 250.627C10.9912 250.627 10.9913 250.627 10.9915 250.627C11.0482 250.651 11.1058 250.675 11.1641 250.699C11.5172 250.845 11.8933 250.99 12.2646 251.092C12.3043 251.103 12.3516 251.117 12.4061 251.134C12.72 251.229 13.2756 251.393 13.9704 251.368C14.1236 251.362 14.2829 251.338 14.4645 251.31C14.5203 251.302 14.5781 251.293 14.6382 251.284C14.8969 251.246 15.2118 251.207 15.6266 251.194C15.9703 251.184 16.3829 251.19 16.8189 251.193C17.0275 251.194 17.2521 251.195 17.4608 251.193C18.105 251.187 18.699 251.157 19.288 251.119C19.2881 251.119 19.2882 251.119 19.2883 251.119C19.3586 251.115 19.4127 250.999 19.4115 250.861C19.4102 250.722 19.3545 250.614 19.2849 250.619C18.7 250.656 18.1116 250.687 17.473 250.693C17.2685 250.695 17.0468 250.694 16.8401 250.693C16.4043 250.69 15.9882 250.684 15.6429 250.694C15.2233 250.707 14.9045 250.747 14.6434 250.786C14.5804 250.795 14.5208 250.804 14.4643 250.813C14.2861 250.84 14.137 250.863 13.9926 250.868C13.3238 250.893 12.7926 250.736 12.4796 250.641C12.4241 250.624 12.3753 250.609 12.3336 250.598C11.9723 250.498 11.6044 250.356 11.2549 250.21C11.1978 250.187 11.1411 250.163 11.085 250.14C11.0849 250.14 11.0848 250.14 11.0847 250.139C10.7981 250.018 10.5217 249.9 10.2785 249.81C10.0262 249.719 9.82191 249.593 9.62528 249.474C9.521 249.41 9.42277 249.348 9.32482 249.295C8.98405 249.108 8.67553 249.022 7.91052 248.857ZM19.0058 253.122C18.8343 253.182 18.6892 253.192 18.5884 253.186C18.6762 253.174 18.7628 253.16 18.8543 253.146C18.9055 253.138 18.956 253.13 19.0058 253.122ZM10.4432 251.337C10.4695 251.348 10.496 251.36 10.5226 251.371C10.4468 251.358 10.3712 251.345 10.296 251.332C10.2034 251.316 10.1129 251.3 10.0194 251.283C10.1679 251.301 10.3093 251.319 10.4432 251.337ZM7.68041 249.979C8.12609 250.075 8.43915 250.279 8.7296 250.461C8.81173 250.514 8.89257 250.564 8.97421 250.609C9.00806 250.628 9.04183 250.648 9.07593 250.669C8.86093 250.643 8.67406 250.621 8.51107 250.599C8.03932 250.537 7.76795 250.525 7.52292 250.511C7.45295 250.507 7.38636 250.503 7.31939 250.498C7.27036 250.469 7.21545 250.44 7.16132 250.412C7.08535 250.373 7.00449 250.333 6.92893 250.296C6.85465 250.26 6.77049 250.223 6.69436 250.189C6.61559 250.154 6.54472 250.123 6.46465 250.09C6.3912 250.06 6.31977 250.031 6.25271 250.002C6.24886 250 6.24503 249.999 6.2412 249.997C6.17305 249.967 6.09779 249.935 6.03662 249.903C5.97349 249.87 5.92442 249.839 5.88483 249.805C5.83096 249.76 5.77782 249.716 5.72815 249.673C5.67859 249.631 5.63154 249.59 5.58173 249.548C5.5333 249.506 5.4888 249.466 5.44787 249.427C5.43417 249.415 5.41839 249.401 5.40484 249.388C5.39851 249.382 5.39232 249.376 5.38622 249.37C5.48595 249.422 5.58528 249.466 5.7065 249.513C5.87233 249.577 6.0665 249.632 6.29123 249.685C6.66838 249.774 7.11902 249.857 7.68041 249.979ZM4.47457 248.005C4.50231 248.052 4.54146 248.123 4.59336 248.214C4.60563 248.236 4.61848 248.258 4.63219 248.282C4.63174 248.282 4.63138 248.281 4.63093 248.281C4.58356 248.231 4.54059 248.184 4.49602 248.132C4.41668 248.039 4.34247 247.947 4.27071 247.851C4.19869 247.755 4.13014 247.657 4.06471 247.557C3.99918 247.456 3.93699 247.353 3.87868 247.249C3.81999 247.144 3.76526 247.038 3.71438 246.93C3.69818 246.895 3.68235 246.86 3.66694 246.825C3.71517 246.897 3.7633 246.972 3.815 247.051C3.85627 247.114 3.8997 247.179 3.94719 247.246C3.96537 247.272 3.98863 247.303 4.01594 247.338C4.12437 247.478 4.29531 247.695 4.47457 248.005ZM3.41042 245.896C3.40319 245.869 3.39577 245.842 3.38806 245.816C3.3661 245.741 3.34278 245.67 3.31942 245.599C3.30303 245.55 3.28635 245.5 3.27052 245.453C3.26381 245.432 3.25721 245.412 3.25067 245.392C3.23971 245.358 3.22916 245.325 3.21881 245.291C3.31526 245.517 3.41104 245.736 3.50835 245.965C3.50963 245.968 3.51079 245.971 3.51208 245.974C3.4774 245.947 3.44352 245.921 3.41042 245.896Z" fill="#1E1E1E"/>
<path d="M290.801 4.8311C290.972 4.86888 291.136 4.8709 291.342 4.87695C291.342 4.87698 291.342 4.877 291.342 4.87703C291.371 4.87784 291.401 4.8786 291.431 4.87963C291.683 4.89096 292.008 4.9109 292.417 5.02368C292.668 5.09379 292.864 5.13159 292.985 5.12857L292.582 4.77418C292.73 4.8744 292.866 4.95195 292.981 5.00784C293.031 5.03183 293.072 5.06347 293.158 5.15968C293.214 5.2228 293.286 5.31029 293.388 5.43959C293.442 5.50829 293.504 5.58894 293.576 5.68434C293.815 5.99922 294.123 6.5394 294.365 7.05994C294.514 7.37536 294.642 7.68123 294.741 7.91405C294.886 8.25433 295.033 8.58255 295.182 8.94799C295.318 9.28256 295.456 9.64837 295.585 10.0845C295.684 10.4185 295.86 10.7267 296.043 11.0469C296.067 11.0875 296.09 11.1281 296.113 11.1692C296.275 11.4536 296.436 11.7476 296.552 12.0815C296.759 12.6755 296.784 13.1775 296.803 13.7297C296.804 13.7749 296.806 13.8206 296.807 13.8668L296.803 13.8082C296.793 13.9825 296.784 14.1634 296.778 14.3563C296.768 14.742 296.778 15.2963 296.783 15.8542C296.784 15.9021 296.784 15.9493 296.784 15.9967C296.784 15.9969 296.784 15.9972 296.784 15.9974C296.788 16.5078 296.787 17.0102 296.769 17.3773C296.741 17.9615 296.693 18.1802 296.654 18.3624C296.64 18.4307 296.626 18.4946 296.614 18.5699C296.573 18.8422 296.564 19.2557 296.551 19.6737C296.551 19.6753 296.551 19.6769 296.551 19.6785C296.549 19.7479 296.659 19.8093 296.797 19.8154C296.935 19.8215 297.049 19.7696 297.051 19.6997C297.058 19.4768 297.064 19.2593 297.073 19.0645C297.192 19.0589 297.284 19.0097 297.286 18.9468C297.289 18.7887 297.396 18.3096 297.558 17.554C297.579 17.6063 297.599 17.6504 297.618 17.6892C297.641 17.7343 297.66 17.769 297.677 17.7989C297.711 17.8613 297.734 17.9031 297.75 17.976C297.766 18.1454 297.763 18.4098 297.757 18.6887C297.756 18.7593 297.867 18.8197 298.005 18.8242C298.143 18.8285 298.256 18.775 298.258 18.7039C298.258 18.7025 298.258 18.7011 298.258 18.6997C298.263 18.4219 298.266 18.1476 298.249 17.9696C298.245 17.9246 298.24 17.8857 298.235 17.8563C298.231 17.8329 298.225 17.8037 298.217 17.7874C298.216 17.7852 298.214 17.7811 298.211 17.7761C298.211 17.776 298.211 17.7759 298.211 17.7759C298.209 17.7731 298.2 17.759 298.18 17.7438C298.176 17.7407 298.167 17.734 298.152 17.7261C298.151 17.7241 298.15 17.7222 298.149 17.7202C298.134 17.6929 298.118 17.6645 298.103 17.6341C298.044 17.5158 297.971 17.3283 297.895 16.9416C297.824 16.5858 297.797 15.9867 297.791 15.2388C297.801 15.2889 297.812 15.3402 297.822 15.3906C297.847 15.5174 297.869 15.6457 297.89 15.7737C297.898 15.8226 297.906 15.8712 297.914 15.9208C297.926 15.9994 297.938 16.0805 297.95 16.1594C297.958 16.2129 297.966 16.2677 297.973 16.3212C297.973 16.3213 297.973 16.3215 297.973 16.3216C297.984 16.3959 297.995 16.4721 298.006 16.5471C298.01 16.5735 298.014 16.5997 298.018 16.6257C298.033 16.7294 298.047 16.8312 298.076 16.9481C298.08 16.9624 298.087 16.9779 298.092 16.9895C298.097 17.002 298.103 17.014 298.109 17.0254C298.114 17.0354 298.119 17.045 298.124 17.0542C298.124 17.0555 298.125 17.0567 298.126 17.0579C298.131 17.0682 298.136 17.0782 298.141 17.0875C298.145 17.0968 298.15 17.1059 298.154 17.1148C298.154 17.1148 298.154 17.1149 298.154 17.115C298.158 17.1243 298.161 17.1313 298.164 17.1412C298.168 17.1535 298.171 17.1642 298.175 17.177C298.178 17.1895 298.18 17.2025 298.183 17.2156C298.185 17.2288 298.187 17.2422 298.189 17.2558C298.191 17.2693 298.192 17.2833 298.194 17.297C298.195 17.3108 298.197 17.3248 298.198 17.3389C298.199 17.353 298.2 17.3673 298.201 17.3816C298.204 17.4147 298.231 17.4469 298.278 17.4711C298.325 17.4954 298.387 17.5095 298.451 17.5106C298.515 17.5117 298.578 17.4997 298.625 17.4769C298.671 17.4541 298.699 17.4226 298.702 17.3895C298.703 17.3804 298.704 17.3714 298.704 17.3623C298.705 17.3569 298.705 17.3514 298.706 17.346C298.707 17.3314 298.708 17.3167 298.709 17.3019C298.71 17.2872 298.711 17.272 298.711 17.2568C298.712 17.2415 298.712 17.2261 298.712 17.2104C298.712 17.1948 298.711 17.1789 298.71 17.1627C298.709 17.1469 298.707 17.1289 298.704 17.1128C298.702 17.101 298.699 17.0866 298.696 17.0743C298.692 17.0615 298.689 17.049 298.685 17.0369C298.681 17.0248 298.677 17.0131 298.673 17.002C298.673 17.0008 298.672 16.9996 298.672 16.9984C298.669 16.9885 298.665 16.979 298.662 16.9701C298.659 16.96 298.656 16.9505 298.654 16.9415C298.651 16.9316 298.65 16.9256 298.649 16.9182C298.642 16.8203 298.645 16.7004 298.648 16.5848C298.648 16.5703 298.648 16.556 298.649 16.5418C298.65 16.467 298.653 16.3903 298.654 16.3156C298.656 16.261 298.657 16.2056 298.658 16.151C298.66 16.0707 298.662 15.9886 298.662 15.9083C298.663 15.8576 298.663 15.8081 298.663 15.7582C298.664 15.6269 298.663 15.495 298.659 15.364C298.655 15.2316 298.649 15.0998 298.639 14.9671C298.628 14.8354 298.613 14.6985 298.591 14.5657C298.574 14.4686 298.546 14.3697 298.517 14.277C298.501 14.2278 298.485 14.1795 298.469 14.1317C298.469 14.1315 298.469 14.1313 298.469 14.1312C298.455 14.0893 298.441 14.0489 298.428 14.0073C298.401 13.9243 298.376 13.8415 298.354 13.7607L298.349 13.6855C298.347 13.6811 298.346 13.6768 298.344 13.6724C298.314 13.5877 298.288 13.5035 298.265 13.4186C298.242 13.3346 298.222 13.248 298.205 13.162C298.188 13.0755 298.175 12.9909 298.163 12.9014C298.147 12.7827 298.135 12.6649 298.122 12.5446C298.11 12.4239 298.098 12.3022 298.086 12.1811C298.082 12.139 298.077 12.0956 298.073 12.0529C298.073 12.0527 298.073 12.0526 298.073 12.0524C298.064 11.9731 298.056 11.894 298.047 11.815C298.033 11.6927 298.018 11.5691 298.001 11.4467C297.984 11.3239 297.965 11.1993 297.942 11.0763C297.92 10.9527 297.893 10.8252 297.858 10.7004C297.828 10.5882 297.794 10.4754 297.76 10.3664C297.751 10.3376 297.742 10.3086 297.733 10.2796C297.69 10.1415 297.65 10.0103 297.615 9.87625C297.58 9.74312 297.552 9.60957 297.527 9.47211C297.502 9.33583 297.48 9.19594 297.46 9.05423C297.44 8.91266 297.422 8.76975 297.403 8.62521C297.385 8.48107 297.366 8.3354 297.347 8.18767C297.336 8.10521 297.322 8.01834 297.307 7.93688C297.291 7.85494 297.274 7.77266 297.256 7.69257C297.248 7.66001 297.241 7.6277 297.233 7.59561C297.222 7.5489 297.211 7.50236 297.2 7.45642C297.181 7.37893 297.164 7.30317 297.148 7.2289C297.133 7.15469 297.119 7.08117 297.109 7.00915C297.099 6.93445 297.094 6.8719 297.09 6.79458C297.07 6.61153 297.04 6.505 297.007 6.38572C297 6.36227 296.994 6.33827 296.987 6.31326C296.945 6.17141 296.896 6.03156 296.842 5.89582C296.789 5.75888 296.73 5.62552 296.667 5.49319C296.604 5.36177 296.535 5.23202 296.463 5.10483C296.39 4.97789 296.314 4.85362 296.232 4.73165C296.151 4.60974 296.064 4.48824 295.976 4.37432C295.926 4.30841 295.87 4.24021 295.816 4.17779C295.778 4.13276 295.739 4.08887 295.701 4.04608C295.686 4.02865 295.67 4.01136 295.655 3.99426C295.602 3.93527 295.55 3.87809 295.502 3.82203C295.453 3.76587 295.408 3.71118 295.366 3.65575C295.323 3.6003 295.284 3.5442 295.247 3.48642C295.209 3.42652 295.18 3.37532 295.144 3.3076C295.121 3.26345 295.099 3.21995 295.076 3.17689C295.042 3.11244 295.008 3.04833 294.974 2.98358C294.955 2.94778 294.936 2.91216 294.917 2.87652L294.569 2.57053C294.537 2.54345 294.505 2.51679 294.473 2.49041C294.449 2.4714 294.424 2.45158 294.4 2.43284C294.327 2.37514 294.25 2.31806 294.185 2.26812C294.117 2.21677 294.048 2.16632 293.978 2.11601C293.906 2.06445 293.848 2.0201 293.781 1.9711C293.669 1.88857 293.552 1.82801 293.457 1.783C293.358 1.73689 293.26 1.69773 293.169 1.66265C293.153 1.65623 293.136 1.64983 293.12 1.64346C293.048 1.61615 292.977 1.58995 292.906 1.56366C292.817 1.53094 292.734 1.4996 292.652 1.46783C292.57 1.43622 292.487 1.40341 292.404 1.36964C292.32 1.33534 292.247 1.30365 292.163 1.26673C292.082 1.23062 291.997 1.18951 291.906 1.14569C291.819 1.10287 291.726 1.05879 291.629 1.0177C291.533 0.976489 291.434 0.938249 291.338 0.905141C291.241 0.871694 291.143 0.841861 291.044 0.815747C290.943 0.789297 290.849 0.767735 290.751 0.748173C290.654 0.728807 290.552 0.711354 290.457 0.697763C290.306 0.676152 290.154 0.657 290 0.639105C289.848 0.621611 289.699 0.60606 289.547 0.591278C289.394 0.576349 289.247 0.563497 289.096 0.551062C288.945 0.538647 288.796 0.527329 288.647 0.516842C288.614 0.514512 288.581 0.512209 288.548 0.509932C288.432 0.501936 288.314 0.494213 288.2 0.487028C288.199 0.487017 288.198 0.487006 288.198 0.486995C288.05 0.477571 287.904 0.468728 287.756 0.459146C287.703 0.455616 287.651 0.452242 287.598 0.448475C287.546 0.444696 287.494 0.440742 287.442 0.436411C287.39 0.432067 287.339 0.427338 287.288 0.422157C287.236 0.416878 287.186 0.411267 287.136 0.404643C287.09 0.398632 287.044 0.391572 286.994 0.384048C286.99 0.383358 286.985 0.382668 286.981 0.381979C286.926 0.373737 286.864 0.36589 286.806 0.361704C286.651 0.351013 286.501 0.339173 286.349 0.325474C286.197 0.311787 286.045 0.296618 285.892 0.280911C285.832 0.274795 285.772 0.268456 285.712 0.262328C285.618 0.252793 285.525 0.243408 285.431 0.234561C285.276 0.219997 285.121 0.2073 284.965 0.197753C284.809 0.188164 284.652 0.181868 284.496 0.179357C284.341 0.176823 284.181 0.177682 284.026 0.182147C283.855 0.187246 283.679 0.194207 283.507 0.202578C283.336 0.211038 283.16 0.220527 282.989 0.231202C282.819 0.241932 282.643 0.253387 282.472 0.265981C282.302 0.278652 282.126 0.291965 281.955 0.306393C281.853 0.315038 281.751 0.324075 281.646 0.333288C281.592 0.319519 281.54 0.306127 281.491 0.293446C281.125 0.199881 280.857 0.133584 280.504 0.0846761C280.471 0.0777864 280.444 0.0684911 280.411 0.0572906C280.405 0.0551578 280.398 0.0529983 280.391 0.0507128C280.346 0.036237 280.295 0.0210122 280.224 0.0106238C280.087 -0.0100191 279.865 -0.0105832 279.591 0.102851C279.519 0.131468 279.472 0.264292 279.486 0.399469C279.495 0.494289 279.533 0.565083 279.579 0.589076C279.492 0.604045 279.407 0.619951 279.325 0.635935C279.292 0.642338 279.261 0.673176 279.24 0.722425C279.218 0.77169 279.207 0.835098 279.208 0.899462C279.209 0.963846 279.223 1.02432 279.247 1.06845C279.271 1.11253 279.302 1.13656 279.335 1.13581C279.422 1.13371 279.514 1.13183 279.601 1.13092C279.686 1.12996 279.773 1.13004 279.861 1.1309C279.952 1.1318 280.036 1.13344 280.123 1.13575C280.21 1.13808 280.299 1.14096 280.388 1.14448C280.474 1.14789 280.559 1.15198 280.648 1.15636C280.7 1.159 280.754 1.16172 280.808 1.16467C280.828 1.16573 280.846 1.16692 280.865 1.16801C280.88 1.16889 280.895 1.1697 280.911 1.17059C281.076 1.18038 281.255 1.19164 281.419 1.20337C281.587 1.21518 281.761 1.22804 281.927 1.24134C282.095 1.25473 282.268 1.26918 282.435 1.28392C282.603 1.29874 282.775 1.31439 282.942 1.33059C283.109 1.34684 283.281 1.36393 283.448 1.38183C283.578 1.39571 283.709 1.4104 283.838 1.42574C283.888 1.44169 283.938 1.45694 283.987 1.47174C284.129 1.5148 284.274 1.56905 284.413 1.62287C284.16 1.58389 283.956 1.53672 283.764 1.49227C283.738 1.48629 283.712 1.48032 283.687 1.47448C283.424 1.41493 283.17 1.36342 282.827 1.35465C281.847 1.33028 281.282 1.33089 280.924 1.35198C280.568 1.37369 280.421 1.41826 280.273 1.50963C280.069 1.6388 279.683 1.70833 279.49 1.70921C279.418 1.70941 279.361 1.82186 279.36 1.96007C279.359 2.09832 279.414 2.21014 279.486 2.20994C279.688 2.209 280.1 2.13871 280.346 1.98529C280.45 1.91683 280.574 1.87357 280.921 1.8521C281.271 1.83136 281.828 1.83072 282.805 1.85491C283.133 1.86327 283.377 1.91236 283.635 1.97111C283.66 1.97688 283.686 1.98289 283.712 1.98883C283.712 1.98884 283.712 1.98885 283.712 1.98886C283.948 2.04352 284.207 2.10392 284.555 2.14729C285.36 2.24571 286.435 2.4289 286.686 2.50418C286.736 2.51867 286.783 2.53423 286.833 2.55062C287.025 2.61381 287.258 2.68888 287.788 2.78425C287.903 2.80524 288.038 2.82543 288.187 2.84578C288.403 2.93997 288.609 3.02965 288.793 3.09195C288.95 3.14556 289.089 3.22471 289.224 3.30977C289.263 3.33422 289.301 3.35959 289.34 3.3849C289.432 3.44597 289.523 3.50709 289.615 3.55825C289.688 3.59892 289.763 3.64603 289.841 3.696C290.128 3.87869 290.466 4.09927 290.926 4.19873C291.415 4.30467 291.826 4.3812 292.167 4.4572C291.91 4.41221 291.709 4.39986 291.533 4.3914C291.501 4.3901 291.47 4.38898 291.44 4.38795C291.225 4.38019 291.07 4.37796 290.907 4.34186C290.126 4.17346 289.83 4.08983 289.505 3.91262C289.418 3.86631 289.328 3.80896 289.226 3.74705C289.021 3.62319 288.79 3.48391 288.525 3.38845C288.284 3.30012 288.01 3.18263 287.721 3.06119C287.721 3.06118 287.721 3.06117 287.72 3.06115C287.664 3.03739 287.606 3.01343 287.548 2.98945C287.195 2.8435 286.819 2.69813 286.447 2.59613C286.408 2.58522 286.36 2.5709 286.306 2.55446C285.992 2.45958 285.436 2.29512 284.741 2.32061C284.588 2.32615 284.429 2.34994 284.247 2.3778C284.192 2.38626 284.134 2.39525 284.074 2.40407C283.815 2.44224 283.5 2.48106 283.085 2.49391C282.742 2.50445 282.329 2.49839 281.893 2.49519C281.684 2.49383 281.46 2.49286 281.251 2.49504C280.607 2.50122 280.013 2.53139 279.424 2.56915C279.424 2.56915 279.424 2.56915 279.424 2.56915C279.353 2.57362 279.299 2.6896 279.3 2.82776C279.302 2.96586 279.357 3.07414 279.427 3.06972C280.012 3.03197 280.6 3.00166 281.239 2.99541C281.443 2.99325 281.665 2.99418 281.872 2.99548C282.308 2.99859 282.724 3.00469 283.069 2.994C283.489 2.98086 283.807 2.94125 284.068 2.90255C284.132 2.89326 284.191 2.8841 284.248 2.87547C284.426 2.84792 284.575 2.82536 284.719 2.82006C285.388 2.79523 285.919 2.95271 286.232 3.04741C286.288 3.0642 286.337 3.07893 286.378 3.09042C286.74 3.19005 287.108 3.3326 287.457 3.47781C287.514 3.50142 287.571 3.52502 287.627 3.5486C287.627 3.54869 287.627 3.54879 287.627 3.54888C287.914 3.66985 288.19 3.78878 288.433 3.87825C288.686 3.96977 288.89 4.09507 289.087 4.21447C289.191 4.27838 289.289 4.33989 289.387 4.39335C289.728 4.58011 290.036 4.6659 290.801 4.8311ZM279.706 0.566622C279.878 0.506361 280.023 0.495854 280.124 0.502067C280.036 0.514561 279.949 0.527915 279.858 0.541873C279.806 0.549829 279.756 0.558075 279.706 0.566622ZM288.269 2.35173C288.242 2.3403 288.216 2.32878 288.189 2.31722C288.265 2.33034 288.341 2.34332 288.416 2.35644C288.509 2.37258 288.599 2.38845 288.692 2.40495C288.544 2.38713 288.403 2.36977 288.269 2.35173ZM291.032 3.70913C290.586 3.61303 290.273 3.40961 289.982 3.22692C289.9 3.17467 289.819 3.12427 289.738 3.07906C289.704 3.06031 289.67 3.04023 289.636 3.01925C289.851 3.04492 290.038 3.06774 290.201 3.08913C290.673 3.15092 290.944 3.16352 291.189 3.17729C291.259 3.18121 291.326 3.18523 291.393 3.19074C291.442 3.21899 291.496 3.24867 291.551 3.27641C291.627 3.31547 291.707 3.35549 291.783 3.39184C291.857 3.42795 291.941 3.46546 292.018 3.49925C292.096 3.53387 292.167 3.56484 292.247 3.59783C292.321 3.62838 292.392 3.65779 292.459 3.68645C292.463 3.68809 292.467 3.68972 292.471 3.69136C292.539 3.72092 292.614 3.75348 292.675 3.7853C292.738 3.81806 292.787 3.84885 292.827 3.88332C292.881 3.92796 292.934 3.97239 292.984 4.01488C293.033 4.05738 293.08 4.09834 293.13 4.14055C293.179 4.18221 293.223 4.22219 293.264 4.26086C293.278 4.27359 293.294 4.28775 293.307 4.30054C293.313 4.30647 293.32 4.31244 293.326 4.31829C293.226 4.26636 293.127 4.22216 293.005 4.1749C292.84 4.11082 292.645 4.05636 292.421 4.00291C292.044 3.91397 291.593 3.83099 291.032 3.70913ZM294.237 5.68374C294.21 5.6359 294.17 5.56493 294.119 5.47404C294.106 5.45257 294.093 5.42988 294.08 5.40624C294.08 5.40671 294.081 5.40726 294.081 5.40774C294.128 5.45766 294.171 5.50462 294.216 5.55656C294.295 5.6492 294.369 5.74158 294.441 5.83724C294.513 5.9333 294.582 6.03138 294.647 6.13177C294.713 6.23232 294.775 6.3352 294.833 6.4394C294.892 6.54438 294.947 6.65004 294.998 6.75861C295.014 6.79318 295.03 6.82808 295.045 6.8632C294.997 6.7914 294.949 6.71639 294.897 6.63751C294.856 6.57457 294.812 6.50952 294.765 6.44207C294.747 6.41626 294.723 6.38573 294.696 6.35033C294.588 6.20997 294.417 5.99326 294.237 5.68374ZM295.301 7.79253C295.309 7.8195 295.316 7.84622 295.324 7.8725C295.346 7.94724 295.369 8.01878 295.392 8.08926C295.409 8.13864 295.426 8.1878 295.441 8.23565C295.448 8.25592 295.455 8.27623 295.461 8.29635C295.472 8.33006 295.483 8.36369 295.493 8.39716C295.397 8.17149 295.301 7.95239 295.204 7.72371C295.202 7.7207 295.201 7.71762 295.2 7.71458C295.235 7.74095 295.268 7.76692 295.301 7.79253Z" fill="#1E1E1E"/>
<path d="M290.801 248.857C290.972 248.819 291.136 248.817 291.342 248.811C291.342 248.811 291.342 248.811 291.342 248.811C291.371 248.81 291.401 248.81 291.431 248.809C291.683 248.797 292.008 248.777 292.417 248.665C292.668 248.594 292.864 248.557 292.985 248.56L292.582 248.914C292.73 248.814 292.866 248.736 292.981 248.68C293.031 248.656 293.072 248.625 293.158 248.529C293.214 248.465 293.286 248.378 293.388 248.249C293.442 248.18 293.504 248.099 293.576 248.004C293.815 247.689 294.123 247.149 294.365 246.628C294.514 246.313 294.642 246.007 294.741 245.774C294.886 245.434 295.033 245.106 295.182 244.74C295.318 244.406 295.456 244.04 295.585 243.604C295.684 243.27 295.86 242.962 296.043 242.641C296.067 242.601 296.09 242.56 296.113 242.519C296.275 242.235 296.436 241.941 296.552 241.607C296.759 241.013 296.784 240.511 296.803 239.959C296.804 239.913 296.806 239.868 296.807 239.822L296.803 239.88C296.793 239.706 296.784 239.525 296.778 239.332C296.768 238.946 296.778 238.392 296.783 237.834C296.784 237.786 296.784 237.739 296.784 237.692C296.784 237.691 296.784 237.691 296.784 237.691C296.788 237.18 296.787 236.678 296.769 236.311C296.741 235.727 296.693 235.508 296.654 235.326C296.64 235.258 296.626 235.194 296.614 235.118C296.573 234.846 296.564 234.433 296.551 234.015C296.551 234.013 296.551 234.011 296.551 234.01C296.549 233.94 296.659 233.879 296.797 233.873C296.935 233.867 297.049 233.919 297.051 233.989C297.058 234.212 297.064 234.429 297.073 234.624C297.192 234.629 297.284 234.679 297.286 234.742C297.289 234.9 297.396 235.379 297.558 236.134C297.579 236.082 297.599 236.038 297.618 235.999C297.641 235.954 297.66 235.919 297.677 235.889C297.711 235.827 297.734 235.785 297.75 235.712C297.766 235.543 297.763 235.278 297.757 235C297.756 234.929 297.867 234.869 298.005 234.864C298.143 234.86 298.256 234.913 298.258 234.984C298.258 234.986 298.258 234.987 298.258 234.989C298.263 235.266 298.266 235.541 298.249 235.719C298.245 235.764 298.24 235.803 298.235 235.832C298.231 235.855 298.225 235.885 298.217 235.901C298.216 235.903 298.214 235.907 298.211 235.912C298.211 235.912 298.211 235.912 298.211 235.912C298.209 235.915 298.2 235.929 298.18 235.945C298.176 235.948 298.167 235.954 298.152 235.962C298.151 235.964 298.15 235.966 298.149 235.968C298.134 235.995 298.118 236.024 298.103 236.054C298.044 236.172 297.971 236.36 297.895 236.747C297.824 237.102 297.797 237.702 297.791 238.449C297.801 238.399 297.812 238.348 297.822 238.298C297.847 238.171 297.869 238.043 297.89 237.915C297.898 237.866 297.906 237.817 297.914 237.768C297.926 237.689 297.938 237.608 297.95 237.529C297.958 237.475 297.966 237.421 297.973 237.367C297.973 237.367 297.973 237.367 297.973 237.367C297.984 237.292 297.995 237.216 298.006 237.141C298.01 237.115 298.014 237.089 298.018 237.063C298.033 236.959 298.047 236.857 298.076 236.74C298.08 236.726 298.087 236.71 298.092 236.699C298.097 236.686 298.103 236.674 298.109 236.663C298.114 236.653 298.119 236.643 298.124 236.634C298.124 236.633 298.125 236.632 298.126 236.63C298.131 236.62 298.136 236.61 298.141 236.601C298.145 236.591 298.15 236.582 298.154 236.574C298.154 236.573 298.154 236.573 298.154 236.573C298.158 236.564 298.161 236.557 298.164 236.547C298.168 236.535 298.171 236.524 298.175 236.511C298.178 236.499 298.18 236.486 298.183 236.473C298.185 236.46 298.187 236.446 298.189 236.433C298.191 236.419 298.192 236.405 298.194 236.391C298.195 236.377 298.197 236.363 298.198 236.349C298.199 236.335 298.2 236.321 298.201 236.307C298.204 236.274 298.231 236.241 298.278 236.217C298.325 236.193 298.387 236.179 298.451 236.178C298.515 236.177 298.578 236.189 298.625 236.211C298.671 236.234 298.699 236.266 298.702 236.299C298.703 236.308 298.704 236.317 298.704 236.326C298.705 236.331 298.705 236.337 298.706 236.342C298.707 236.357 298.708 236.372 298.709 236.386C298.71 236.401 298.711 236.416 298.711 236.431C298.712 236.447 298.712 236.462 298.712 236.478C298.712 236.493 298.711 236.509 298.71 236.526C298.709 236.541 298.707 236.559 298.704 236.576C298.702 236.587 298.699 236.602 298.696 236.614C298.692 236.627 298.689 236.639 298.685 236.651C298.681 236.663 298.677 236.675 298.673 236.686C298.673 236.688 298.672 236.689 298.672 236.69C298.669 236.7 298.665 236.709 298.662 236.718C298.659 236.728 298.656 236.738 298.654 236.747C298.651 236.757 298.65 236.763 298.649 236.77C298.642 236.868 298.645 236.988 298.648 237.103C298.648 237.118 298.648 237.132 298.649 237.146C298.65 237.221 298.653 237.298 298.654 237.373C298.656 237.427 298.657 237.483 298.658 237.537C298.66 237.618 298.662 237.7 298.662 237.78C298.663 237.831 298.663 237.88 298.663 237.93C298.664 238.061 298.663 238.193 298.659 238.324C298.655 238.457 298.649 238.588 298.639 238.721C298.628 238.853 298.613 238.99 298.591 239.123C298.574 239.22 298.546 239.319 298.517 239.411C298.501 239.46 298.485 239.509 298.469 239.557C298.469 239.557 298.469 239.557 298.469 239.557C298.455 239.599 298.441 239.639 298.428 239.681C298.401 239.764 298.376 239.847 298.354 239.928L298.349 240.003C298.347 240.007 298.346 240.012 298.344 240.016C298.314 240.101 298.288 240.185 298.265 240.27C298.242 240.354 298.222 240.44 298.205 240.526C298.188 240.613 298.175 240.697 298.163 240.787C298.147 240.906 298.135 241.023 298.122 241.144C298.11 241.264 298.098 241.386 298.086 241.507C298.082 241.549 298.077 241.593 298.073 241.635C298.073 241.636 298.073 241.636 298.073 241.636C298.064 241.715 298.056 241.794 298.047 241.873C298.033 241.996 298.018 242.119 298.001 242.242C297.984 242.364 297.965 242.489 297.942 242.612C297.92 242.736 297.893 242.863 297.858 242.988C297.828 243.1 297.794 243.213 297.76 243.322C297.751 243.351 297.742 243.38 297.733 243.409C297.69 243.547 297.65 243.678 297.615 243.812C297.58 243.945 297.552 244.079 297.527 244.216C297.502 244.352 297.48 244.492 297.46 244.634C297.44 244.776 297.422 244.919 297.403 245.063C297.385 245.207 297.366 245.353 297.347 245.501C297.336 245.583 297.322 245.67 297.307 245.751C297.291 245.833 297.274 245.916 297.256 245.996C297.248 246.028 297.241 246.061 297.233 246.093C297.222 246.139 297.211 246.186 297.2 246.232C297.181 246.309 297.164 246.385 297.148 246.459C297.133 246.534 297.119 246.607 297.109 246.679C297.099 246.754 297.094 246.816 297.09 246.894C297.07 247.077 297.04 247.183 297.007 247.303C297 247.326 296.994 247.35 296.987 247.375C296.945 247.517 296.896 247.657 296.842 247.792C296.789 247.929 296.73 248.063 296.667 248.195C296.604 248.327 296.535 248.456 296.463 248.583C296.39 248.71 296.314 248.835 296.232 248.957C296.151 249.079 296.064 249.2 295.976 249.314C295.926 249.38 295.87 249.448 295.816 249.511C295.778 249.556 295.739 249.599 295.701 249.642C295.686 249.66 295.67 249.677 295.655 249.694C295.602 249.753 295.55 249.81 295.502 249.866C295.453 249.922 295.408 249.977 295.366 250.033C295.323 250.088 295.284 250.144 295.247 250.202C295.209 250.262 295.18 250.313 295.144 250.381C295.121 250.425 295.099 250.468 295.076 250.511C295.042 250.576 295.008 250.64 294.974 250.705C294.955 250.741 294.936 250.776 294.917 250.812L294.569 251.118C294.537 251.145 294.505 251.172 294.473 251.198C294.449 251.217 294.424 251.237 294.4 251.255C294.327 251.313 294.25 251.37 294.185 251.42C294.117 251.472 294.048 251.522 293.978 251.572C293.906 251.624 293.848 251.668 293.781 251.717C293.669 251.8 293.552 251.86 293.457 251.905C293.358 251.951 293.26 251.991 293.169 252.026C293.153 252.032 293.136 252.038 293.12 252.045C293.048 252.072 292.977 252.098 292.906 252.125C292.817 252.157 292.734 252.189 292.652 252.22C292.57 252.252 292.487 252.285 292.404 252.319C292.32 252.353 292.247 252.385 292.163 252.422C292.082 252.458 291.997 252.499 291.906 252.543C291.819 252.585 291.726 252.63 291.629 252.671C291.533 252.712 291.434 252.75 291.338 252.783C291.241 252.817 291.143 252.846 291.044 252.873C290.943 252.899 290.849 252.921 290.751 252.94C290.654 252.959 290.552 252.977 290.457 252.991C290.306 253.012 290.154 253.031 290 253.049C289.848 253.067 289.699 253.082 289.547 253.097C289.394 253.112 289.247 253.125 289.096 253.137C288.945 253.15 288.796 253.161 288.647 253.171C288.614 253.174 288.581 253.176 288.548 253.178C288.432 253.186 288.314 253.194 288.2 253.201C288.199 253.201 288.198 253.201 288.198 253.201C288.05 253.211 287.904 253.22 287.756 253.229C287.702 253.233 287.651 253.236 287.598 253.24C287.546 253.244 287.494 253.248 287.442 253.252C287.39 253.256 287.339 253.261 287.288 253.266C287.236 253.271 287.186 253.277 287.136 253.284C287.09 253.29 287.044 253.297 286.994 253.304C286.99 253.305 286.985 253.306 286.981 253.306C286.926 253.315 286.864 253.322 286.806 253.327C286.651 253.337 286.501 253.349 286.349 253.363C286.197 253.377 286.045 253.392 285.892 253.407C285.832 253.413 285.772 253.42 285.712 253.426C285.618 253.436 285.525 253.445 285.431 253.454C285.276 253.468 285.121 253.481 284.965 253.491C284.809 253.5 284.652 253.506 284.496 253.509C284.341 253.511 284.181 253.511 284.026 253.506C283.855 253.501 283.679 253.494 283.507 253.486C283.336 253.477 283.16 253.468 282.989 253.457C282.819 253.446 282.643 253.435 282.472 253.422C282.302 253.41 282.126 253.396 281.955 253.382C281.853 253.373 281.751 253.364 281.646 253.355C281.592 253.369 281.54 253.382 281.491 253.395C281.125 253.488 280.857 253.555 280.504 253.604C280.471 253.611 280.444 253.62 280.411 253.631C280.405 253.633 280.398 253.635 280.391 253.638C280.346 253.652 280.295 253.667 280.224 253.678C280.087 253.698 279.865 253.699 279.591 253.585C279.519 253.557 279.472 253.424 279.486 253.289C279.495 253.194 279.533 253.123 279.579 253.099C279.492 253.084 279.407 253.068 279.325 253.052C279.292 253.046 279.261 253.015 279.24 252.966C279.218 252.917 279.207 252.853 279.208 252.789C279.209 252.724 279.223 252.664 279.247 252.62C279.271 252.576 279.302 252.552 279.335 252.552C279.422 252.555 279.514 252.556 279.601 252.557C279.686 252.558 279.773 252.558 279.861 252.557C279.952 252.556 280.036 252.555 280.123 252.553C280.21 252.55 280.299 252.547 280.388 252.544C280.474 252.54 280.559 252.536 280.648 252.532C280.7 252.529 280.754 252.527 280.808 252.524C280.828 252.523 280.846 252.521 280.865 252.52C280.88 252.519 280.895 252.519 280.911 252.518C281.076 252.508 281.255 252.497 281.419 252.485C281.587 252.473 281.761 252.46 281.927 252.447C282.095 252.434 282.268 252.419 282.435 252.404C282.603 252.39 282.775 252.374 282.942 252.358C283.109 252.341 283.281 252.324 283.448 252.306C283.578 252.293 283.709 252.278 283.838 252.263C283.888 252.247 283.938 252.231 283.987 252.217C284.129 252.173 284.274 252.119 284.413 252.065C284.16 252.104 283.956 252.152 283.764 252.196C283.738 252.202 283.712 252.208 283.687 252.214C283.424 252.273 283.17 252.325 282.827 252.334C281.847 252.358 281.282 252.357 280.924 252.336C280.568 252.315 280.421 252.27 280.273 252.179C280.069 252.049 279.683 251.98 279.49 251.979C279.418 251.979 279.361 251.866 279.36 251.728C279.359 251.59 279.414 251.478 279.486 251.478C279.688 251.479 280.1 251.55 280.346 251.703C280.45 251.771 280.574 251.815 280.921 251.836C281.271 251.857 281.828 251.858 282.805 251.833C283.133 251.825 283.377 251.776 283.635 251.717C283.66 251.711 283.686 251.705 283.712 251.699C283.712 251.699 283.712 251.699 283.712 251.699C283.948 251.645 284.207 251.584 284.555 251.541C285.36 251.443 286.435 251.259 286.686 251.184C286.736 251.17 286.783 251.154 286.833 251.138C287.025 251.074 287.258 250.999 287.788 250.904C287.903 250.883 288.038 250.863 288.187 250.843C288.403 250.748 288.609 250.659 288.793 250.596C288.95 250.543 289.089 250.464 289.224 250.379C289.263 250.354 289.301 250.329 289.34 250.303C289.432 250.242 289.523 250.181 289.615 250.13C289.688 250.089 289.763 250.042 289.841 249.992C290.128 249.81 290.466 249.589 290.926 249.49C291.415 249.384 291.826 249.307 292.167 249.231C291.91 249.276 291.709 249.288 291.533 249.297C291.501 249.298 291.47 249.299 291.44 249.3C291.225 249.308 291.07 249.31 290.907 249.346C290.126 249.515 289.83 249.598 289.505 249.776C289.418 249.822 289.328 249.879 289.226 249.941C289.021 250.065 288.79 250.204 288.525 250.3C288.284 250.388 288.01 250.506 287.721 250.627C287.721 250.627 287.721 250.627 287.72 250.627C287.664 250.651 287.606 250.675 287.548 250.699C287.195 250.845 286.819 250.99 286.447 251.092C286.408 251.103 286.36 251.117 286.306 251.134C285.992 251.229 285.436 251.393 284.741 251.368C284.588 251.362 284.429 251.338 284.247 251.31C284.192 251.302 284.134 251.293 284.074 251.284C283.815 251.246 283.5 251.207 283.085 251.194C282.742 251.184 282.329 251.19 281.893 251.193C281.684 251.194 281.46 251.195 281.251 251.193C280.607 251.187 280.013 251.157 279.424 251.119C279.424 251.119 279.424 251.119 279.424 251.119C279.353 251.115 279.299 250.999 279.3 250.861C279.302 250.722 279.357 250.614 279.427 250.619C280.012 250.656 280.6 250.687 281.239 250.693C281.443 250.695 281.665 250.694 281.872 250.693C282.308 250.69 282.724 250.684 283.069 250.694C283.489 250.707 283.807 250.747 284.068 250.786C284.132 250.795 284.191 250.804 284.248 250.813C284.426 250.84 284.575 250.863 284.719 250.868C285.388 250.893 285.919 250.736 286.232 250.641C286.288 250.624 286.337 250.609 286.378 250.598C286.74 250.498 287.108 250.356 287.457 250.21C287.514 250.187 287.571 250.163 287.627 250.14C287.627 250.14 287.627 250.14 287.627 250.139C287.914 250.018 288.19 249.9 288.433 249.81C288.686 249.719 288.89 249.593 289.087 249.474C289.191 249.41 289.289 249.348 289.387 249.295C289.728 249.108 290.036 249.022 290.801 248.857ZM279.706 253.122C279.878 253.182 280.023 253.192 280.124 253.186C280.036 253.174 279.949 253.16 279.858 253.146C279.806 253.138 279.756 253.13 279.706 253.122ZM288.269 251.337C288.242 251.348 288.216 251.36 288.189 251.371C288.265 251.358 288.341 251.345 288.416 251.332C288.509 251.316 288.599 251.3 288.692 251.283C288.544 251.301 288.403 251.319 288.269 251.337ZM291.032 249.979C290.586 250.075 290.273 250.279 289.982 250.461C289.9 250.514 289.819 250.564 289.738 250.609C289.704 250.628 289.67 250.648 289.636 250.669C289.851 250.643 290.038 250.621 290.201 250.599C290.673 250.537 290.944 250.525 291.189 250.511C291.259 250.507 291.326 250.503 291.393 250.498C291.442 250.469 291.496 250.44 291.551 250.412C291.627 250.373 291.707 250.333 291.783 250.296C291.857 250.26 291.941 250.223 292.018 250.189C292.096 250.154 292.167 250.123 292.247 250.09C292.321 250.06 292.392 250.031 292.459 250.002C292.463 250 292.467 249.999 292.471 249.997C292.539 249.967 292.614 249.935 292.675 249.903C292.738 249.87 292.787 249.839 292.827 249.805C292.881 249.76 292.934 249.716 292.984 249.673C293.033 249.631 293.08 249.59 293.13 249.548C293.179 249.506 293.223 249.466 293.264 249.427C293.278 249.415 293.294 249.401 293.307 249.388C293.313 249.382 293.32 249.376 293.326 249.37C293.226 249.422 293.127 249.466 293.005 249.513C292.84 249.577 292.645 249.632 292.421 249.685C292.044 249.774 291.593 249.857 291.032 249.979ZM294.237 248.005C294.21 248.052 294.17 248.123 294.119 248.214C294.106 248.236 294.093 248.258 294.08 248.282C294.08 248.282 294.081 248.281 294.081 248.281C294.128 248.231 294.171 248.184 294.216 248.132C294.295 248.039 294.369 247.947 294.441 247.851C294.513 247.755 294.582 247.657 294.647 247.557C294.713 247.456 294.775 247.353 294.833 247.249C294.892 247.144 294.947 247.038 294.998 246.93C295.014 246.895 295.03 246.86 295.045 246.825C294.997 246.897 294.949 246.972 294.897 247.051C294.856 247.114 294.812 247.179 294.765 247.246C294.747 247.272 294.723 247.303 294.696 247.338C294.588 247.478 294.417 247.695 294.237 248.005ZM295.301 245.896C295.309 245.869 295.316 245.842 295.324 245.816C295.346 245.741 295.369 245.67 295.392 245.599C295.409 245.55 295.426 245.5 295.441 245.453C295.448 245.432 295.455 245.412 295.461 245.392C295.472 245.358 295.483 245.325 295.493 245.291C295.397 245.517 295.301 245.736 295.204 245.965C295.202 245.968 295.201 245.971 295.2 245.974C295.235 245.947 295.268 245.921 295.301 245.896Z" fill="#1E1E1E"/>
</svg>
