<?xml version="1.0" encoding="UTF-8"?><svg id="Layer_1" xmlns="http://www.w3.org/2000/svg" viewBox="0 0 235.017 157.312"><defs><style>.cls-1{fill:#7ac143;}.cls-1,.cls-2{stroke-width:0px;}.cls-2{fill:#01393F ;}</style></defs><path class="cls-1" d="M86.145,9.317c10.634-4.728,17.914-5.156,29.175-4.584,17.588.893,26.471,5.372,26.471,5.372,0,0-9.51,29.307-15.563,32.088-3.324,1.527-28.587,7.605-30.572,6.608-10.011-5.028-23.125-12.038-23.125-12.038,0,0-2.461-20.299,13.613-27.447Z"/><path class="cls-1" d="M30.995,76.72H10.212v7.797h15.945v7.399h-15.945v15.14H0v-37.907h30.995v7.571Z"/><path class="cls-1" d="M149.591,76.72h-10.391v30.337h-10.208v-30.337h-10.513v-7.571h31.113v7.571Z"/><path class="cls-1" d="M188.513,76.72h-19.706v7.765h19.695v7.399h-19.695v7.548h19.709v7.624h-29.918v-37.907h29.916v7.571Z"/><path class="cls-1" d="M209.669,107.056h-10.213v-37.907h19.702c9.253,0,14.719,4.554,14.719,12.352,0,5.237-2.579,8.481-8.288,10.472l9.429,15.084h-11.353l-7.929-15.193h-6.066v15.193ZM216.995,84.448c4.506,0,6.669-.298,6.669-3.83,0-3.358-1.978-3.877-6.246-3.877h-7.749v7.708h7.326Z"/><polygon class="cls-1" points="60.928 107.056 71.799 107.056 56.24 69.149 45.846 69.149 30.77 107.056 41.522 107.056 51.134 79.339 60.928 107.056"/><path class="cls-1" d="M89.927,79.623c.032-2.449,2.343-3.012,5.888-3.012.665,0,12.748.322,13.39.431v-7.813c-.747-.07-12.932-.109-13.689-.109-9.552,0-15.978,3.788-15.978,11.186,0,2.843.86,5.274,2.702,7.116,5.358,5.357,21.089,2.353,21.089,7.473,0,5.201-8.213,4.569-12.479,4.569-1.137,0-12.007-.098-13.037-.292v7.596c1.019.019,17.328.216,18.292.216,11.23,0,17.347-4.618,17.487-13.046.231-13.886-23.749-7.837-23.665-14.315Z"/><path class="cls-2" d="M133.993.363c-22.305,5.362-78.611-8.414-68.639,29.955.802,3.084,4.049,2.059,3.692,1.524C59.921,18.207,64.928.291,113.773,3.135c5.004.291,13.259.574,18.477-.718-6.724,8.048-6.87,20.059-11.652,29.406-7.737,15.124-44.672,5.886-44.947,5.897,5.386-6.025,11.777-12.116,24.616-17.685.072-.354.167-.714.309-1.078.12-.307.263-.59.416-.858-19.49,8.083-40.131,25.307-30.894,47.609.481,1.16,3.571.295,3.121-.793-4.709-11.191-3.495-19.29,1.546-26.089,3.611-.088,30.637,8.176,43.766-.574,13.181-8.785,6.509-27.943,18.39-37.552,1.213-.982-1.137-.767-2.928-.336Z"/><path class="cls-2" d="M91.538,157.312c-7.908,0-13.642-4.634-13.642-15.8v-6.492c0-11.177,5.734-15.805,13.642-15.805s13.58,4.628,13.58,15.805v6.492c0,11.166-5.683,15.8-13.58,15.8M91.538,123.346c-5.488,0-9.011,3.221-9.011,11.674v6.492c0,8.453,3.469,11.674,9.011,11.674,5.483,0,8.955-3.221,8.955-11.674v-6.492c0-8.453-3.424-11.674-8.955-11.674"/><path class="cls-2" d="M114.516,156.96h-2.414c-.556,0-1.007-.454-1.007-1.01v-25.66c0-.556.451-1.01,1.007-1.01h2.414c.553,0,1.007.454,1.007,1.01v25.66c0,.556-.454,1.01-1.007,1.01M114.614,124.853h-2.564c-.553,0-1.007-.451-1.007-1.01v-4.022c0-.55.454-1.01,1.007-1.01h2.564c.556,0,1.004.459,1.004,1.01v4.022c0,.558-.449,1.01-1.004,1.01"/><path class="cls-2" d="M141.042,156.959h-3.624c-.556,0-.758-.155-1.159-.654l-10.015-12.379v12.023c0,.556-.454,1.01-1.007,1.01h-2.412c-.556,0-1.01-.454-1.01-1.01v-35.827c0-.553.454-1.007,1.01-1.007h2.412c.553,0,1.007.454,1.007,1.007v20.935l10.066-11.321c.299-.353.502-.454,1.007-.454h3.52c.502,0,.756.254.756.553l-.254.553-11.067,11.975,11.171,13.487.15.454c0,.353-.203.654-.55.654"/><path class="cls-2" d="M154.768,157.312c-7.398,0-11.174-4.879-11.174-12.282v-3.822c0-7.398,3.776-12.277,11.174-12.277s11.222,4.879,11.222,12.277v3.822c0,7.403-3.824,12.282-11.222,12.282M154.768,132.803c-4.679,0-6.743,3.221-6.743,8.405v3.822c0,5.138,2.011,8.41,6.743,8.41,4.682,0,6.797-3.226,6.797-8.41v-3.822c0-5.13-2.067-8.405-6.797-8.405"/><path class="cls-2" d="M179.125,157.311c-1.856,0-5.486-.155-7.945-.756-.662-.155-1.063-.451-1.063-1.007v-1.76c0-.449.401-.756.911-.756h.2c2.412.307,6.086.553,7.897.553,3.274,0,4.981-.852,4.981-3.573,0-1.512-.905-2.46-3.768-4.174l-5.085-3.023c-3.069-1.859-5.136-4.025-5.136-7.192,0-5.235,3.929-6.693,9.107-6.693,2.823,0,5.491.254,7.857.654.652.099.951.454.951,1.01v1.656c0,.606-.35.852-.855.852h-.152c-1.763-.147-4.978-.398-7.801-.398s-4.679.355-4.679,2.919c0,1.506,1.162,2.468,3.475,3.822l4.978,2.972c4.18,2.465,5.536,4.628,5.536,7.595,0,5.13-3.774,7.299-9.409,7.299"/></svg>