<svg width="23" height="24" viewBox="0 0 23 24" fill="none" xmlns="http://www.w3.org/2000/svg">
<path d="M8.94576 5.06382C8.74611 5.10975 8.53961 5.12325 8.30008 5.14051C8.29996 5.14054 8.29984 5.14057 8.29972 5.1406C8.2655 5.14308 8.22731 5.1464 8.18991 5.14968C7.89494 5.17596 7.49573 5.21974 7.00949 5.37442C6.76703 5.45168 6.55656 5.51393 6.42361 5.53765L6.83236 5.17177C6.61828 5.34654 6.42592 5.48247 6.269 5.57697C6.21398 5.61019 6.16612 5.65207 6.06645 5.77206C6.00133 5.85074 5.91623 5.96018 5.79748 6.12051C5.73428 6.20594 5.66155 6.30612 5.57786 6.42446C5.29878 6.81532 4.93445 7.47741 4.64787 8.11317C4.47227 8.49824 4.32085 8.8725 4.20534 9.1563C4.0361 9.57196 3.86724 9.97377 3.69703 10.4197C3.54148 10.8282 3.38495 11.274 3.23678 11.8023C3.12325 12.2077 2.93446 12.5846 2.73893 12.9758C2.71412 13.0253 2.68919 13.0752 2.66427 13.1254C2.49246 13.4716 2.322 13.8308 2.19609 14.2328C1.97244 14.9496 1.93652 15.5489 1.90717 16.2092C1.90576 16.2414 1.90437 16.2737 1.90297 16.3063L1.90712 16.2492C1.91687 16.4783 1.92735 16.7163 1.93262 16.9717C1.94191 17.4331 1.9307 18.0954 1.92622 18.7629C1.92582 18.82 1.9256 18.8761 1.92528 18.9331C1.92528 18.9334 1.92528 18.9337 1.92528 18.934C1.92177 19.5443 1.92466 20.1442 1.9435 20.5835C1.97378 21.2817 2.02275 21.5436 2.06249 21.7615C2.07756 21.8434 2.0917 21.9197 2.10372 22.0098C2.14698 22.3357 2.15832 22.8301 2.17424 23.3299C2.17432 23.3318 2.17441 23.3337 2.17449 23.3357C2.17712 23.4186 2.06736 23.4909 1.92925 23.4969C1.79113 23.5028 1.67681 23.4397 1.67417 23.3562C1.66571 23.09 1.65851 22.8302 1.64766 22.5975C1.52852 22.5898 1.43635 22.5303 1.43462 22.4553C1.43051 22.2664 1.31962 21.6941 1.15507 20.7914C1.13466 20.8537 1.1147 20.9067 1.09565 20.9524C1.07329 21.0061 1.05399 21.0475 1.03748 21.0832C1.00308 21.1576 0.980408 21.207 0.965044 21.294C0.950084 21.4958 0.954407 21.8115 0.961148 22.144C0.962815 22.2283 0.852446 22.2993 0.714334 22.3038C0.576183 22.3079 0.46263 22.2435 0.460861 22.1587C0.460807 22.1571 0.460754 22.1554 0.4607 22.1538C0.45398 21.8229 0.449286 21.4958 0.465365 21.2839C0.469451 21.2302 0.474755 21.1841 0.479746 21.149C0.483737 21.1211 0.489246 21.0863 0.496924 21.0669C0.497946 21.0643 0.500015 21.0594 0.503219 21.0535C0.503298 21.0534 0.503377 21.0533 0.503456 21.0532C0.505226 21.0499 0.514186 21.0331 0.534116 21.015C0.538143 21.0114 0.547134 21.0034 0.561743 20.9941C0.562831 20.9918 0.56392 20.9894 0.565009 20.9871C0.580121 20.9545 0.595535 20.9211 0.610458 20.8848C0.668853 20.7437 0.741033 20.5211 0.816451 20.0598C0.886071 19.6363 0.912273 18.9208 0.918847 18.029C0.908083 18.0892 0.89769 18.1502 0.88776 18.2099C0.862792 18.3621 0.840321 18.515 0.819227 18.6671C0.81117 18.7254 0.803331 18.7842 0.795667 18.8423C0.783275 18.9366 0.771251 19.0324 0.759646 19.1269C0.751791 19.1911 0.744141 19.256 0.736495 19.3198C0.736496 19.32 0.736497 19.3201 0.736498 19.3203C0.725888 19.4093 0.715334 19.4994 0.704578 19.5892C0.700558 19.6207 0.69672 19.652 0.692993 19.6831C0.678151 19.806 0.663961 19.9281 0.635619 20.0671C0.630846 20.0841 0.624631 20.1026 0.619437 20.1165C0.613965 20.1314 0.608384 20.1457 0.602695 20.1593C0.597675 20.1713 0.592558 20.1827 0.587802 20.1937C0.587172 20.1951 0.586542 20.1966 0.585912 20.198C0.58059 20.2102 0.575678 20.2218 0.571039 20.233C0.566406 20.2441 0.561945 20.2549 0.558095 20.2655C0.558096 20.2656 0.558098 20.2657 0.558099 20.2658C0.554155 20.2768 0.551191 20.2853 0.54783 20.297C0.543621 20.3117 0.540406 20.3244 0.537263 20.3398C0.534207 20.3546 0.531519 20.3701 0.529208 20.3858C0.5269 20.4015 0.524921 20.4174 0.523155 20.4336C0.521387 20.4498 0.519766 20.4661 0.518362 20.4826C0.516959 20.499 0.515776 20.5157 0.514587 20.5325C0.513397 20.5494 0.51221 20.5664 0.511096 20.5835C0.508502 20.6229 0.481475 20.6613 0.434921 20.69C0.388359 20.7184 0.326389 20.735 0.261939 20.7361C0.197479 20.7371 0.135226 20.7226 0.0882747 20.6955C0.0413399 20.6682 0.0137076 20.6305 0.010648 20.591C0.00982451 20.5803 0.00892138 20.5695 0.0081172 20.5586C0.00763941 20.5522 0.00726032 20.5457 0.00679958 20.5393C0.00556123 20.5219 0.00421727 20.5043 0.00320673 20.4867C0.00219858 20.469 0.00144041 20.4515 0.000844598 20.4332C0.000252485 20.415 -0.000143528 20.3966 -5.50747e-05 20.3779C3.45707e-05 20.3593 0.00056386 20.3403 0.00173366 20.321C0.00282729 20.3022 0.00492263 20.2807 0.00766504 20.2615C0.00958276 20.2475 0.012962 20.2303 0.016026 20.2159C0.0192327 20.2009 0.0228422 20.1859 0.0266221 20.1715C0.0304102 20.1571 0.0344481 20.1432 0.0382501 20.1299C0.0386375 20.1284 0.0390249 20.127 0.0394125 20.1256C0.0427772 20.1139 0.0460604 20.1025 0.0489657 20.0918C0.052215 20.0799 0.0549676 20.0686 0.0573057 20.0578C0.0599371 20.046 0.0609478 20.0389 0.0620735 20.0301C0.068625 19.9141 0.0653485 19.7707 0.0625951 19.6332C0.0622482 19.616 0.0619645 19.5989 0.0616505 19.582C0.0596988 19.4926 0.0575491 19.4019 0.0555103 19.3126C0.0540304 19.248 0.0525635 19.1818 0.0513229 19.1166C0.0494835 19.0211 0.0480679 18.9234 0.047088 18.8276C0.046514 18.7683 0.0461621 18.7084 0.0460166 18.649C0.0455914 18.4933 0.0466864 18.3363 0.050475 18.1796C0.0542699 18.023 0.0606923 17.8648 0.071185 17.708C0.081663 17.5498 0.0970007 17.3878 0.119637 17.2298C0.136504 17.1146 0.164885 16.9954 0.194174 16.8863C0.209962 16.8268 0.225971 16.7702 0.24206 16.7133C0.242145 16.7131 0.242231 16.7129 0.242317 16.7127C0.256446 16.6624 0.270472 16.6133 0.283885 16.5651C0.31281 16.4596 0.33902 16.3577 0.36183 16.2546C0.365678 16.2373 0.369426 16.2202 0.373075 16.2031L0.378359 16.1303C0.403599 16.0462 0.42647 15.9623 0.44701 15.8779C0.471532 15.7769 0.492995 15.6755 0.511571 15.5722C0.530182 15.4691 0.54557 15.3679 0.55955 15.2617C0.577704 15.1217 0.592648 14.9805 0.607709 14.8375C0.622438 14.6959 0.637173 14.5497 0.652233 14.406C0.657525 14.3554 0.662981 14.3056 0.668526 14.2545C0.668556 14.2543 0.668587 14.2541 0.668617 14.2539C0.67882 14.1596 0.689311 14.0654 0.700288 13.9716C0.717106 13.8274 0.735616 13.6801 0.755923 13.5346C0.776151 13.3897 0.798984 13.2414 0.825043 13.095C0.851114 12.9491 0.881615 12.7971 0.920049 12.6481C0.953994 12.5157 0.991814 12.3804 1.02939 12.2502C1.03931 12.2158 1.04929 12.1814 1.05931 12.1471C1.1069 11.9834 1.15247 11.8246 1.19145 11.6671C1.231 11.5082 1.26444 11.3503 1.29465 11.1876C1.32484 11.0254 1.35123 10.862 1.37711 10.6939C1.40285 10.526 1.42672 10.3595 1.45143 10.1886C1.47561 10.0199 1.50063 9.84799 1.52637 9.67501C1.54062 9.57921 1.55913 9.47633 1.57823 9.38056C1.5976 9.2836 1.61848 9.18854 1.64076 9.09366C1.64975 9.05529 1.65896 9.0172 1.66811 8.97939C1.68146 8.92425 1.69496 8.86972 1.7081 8.816C1.73028 8.72531 1.75193 8.6358 1.77125 8.54873C1.79064 8.46152 1.80753 8.37666 1.82127 8.29232C1.83535 8.20526 1.84402 8.13229 1.85084 8.04334C1.88033 7.83176 1.91631 7.70571 1.95633 7.56701C1.96423 7.53972 1.97233 7.51153 1.98076 7.48226C2.03136 7.31568 2.08845 7.15251 2.15058 6.99247C2.21322 6.83133 2.28028 6.67466 2.35334 6.51822C2.42555 6.36355 2.50382 6.20944 2.58616 6.05889C2.66846 5.90837 2.75535 5.76054 2.84707 5.61513C2.93872 5.46975 3.03705 5.3243 3.1357 5.18758C3.19266 5.10855 3.25569 5.02613 3.31559 4.95077C3.35878 4.8964 3.40208 4.84332 3.44481 4.79154C3.46227 4.77039 3.47967 4.74942 3.49691 4.72867C3.55641 4.65702 3.61415 4.58794 3.6688 4.52031C3.72345 4.45272 3.77522 4.38645 3.82348 4.32025C3.87181 4.25399 3.91679 4.18753 3.95951 4.11922C4.00368 4.04832 4.0386 3.98801 4.0805 3.90914C4.10774 3.85766 4.13454 3.80714 4.1615 3.7568C4.20189 3.68142 4.24231 3.60654 4.28306 3.53136C4.32382 3.45619 4.36434 3.3818 4.40529 3.30679C4.41413 3.2906 4.42333 3.27382 4.43243 3.25719L4.78551 2.94114C4.79436 2.93367 4.80318 2.92627 4.81188 2.919C4.89362 2.85076 4.97663 2.78524 5.0616 2.72087C5.1506 2.65448 5.22196 2.59959 5.30196 2.54103C5.38018 2.48333 5.463 2.42495 5.54039 2.36915C5.66786 2.27586 5.80191 2.20495 5.92295 2.14759C6.03728 2.0929 6.14633 2.04764 6.25523 2.00436C6.2756 1.99627 6.29603 1.98822 6.31655 1.9802C6.40834 1.94468 6.48447 1.91568 6.56782 1.88417C6.66861 1.84601 6.76978 1.80776 6.87055 1.76926C6.96554 1.73254 7.06254 1.69469 7.15899 1.65605C7.25558 1.61722 7.35325 1.578 7.44761 1.53734C7.54342 1.49662 7.6409 1.45122 7.74957 1.40216C7.85939 1.353 7.96686 1.30465 8.08027 1.25877C8.19291 1.21298 8.31123 1.16964 8.42771 1.13131C8.54143 1.09347 8.65758 1.05931 8.77385 1.029C8.89093 0.998468 9.00872 0.971625 9.12212 0.948549C9.23644 0.925282 9.35602 0.904073 9.4691 0.886643C9.6531 0.858263 9.82781 0.834414 10.0101 0.811022C10.1925 0.787651 10.3675 0.76732 10.5472 0.747626C10.7267 0.727977 10.905 0.70985 11.082 0.693106C11.2592 0.67633 11.4402 0.660171 11.6151 0.645684C11.6542 0.642436 11.6932 0.63922 11.7323 0.636037C11.8699 0.624866 12.0091 0.613967 12.1458 0.603664C12.1468 0.603632 12.1477 0.603601 12.1487 0.603569C12.324 0.59029 12.497 0.577797 12.6721 0.564583C12.7365 0.559651 12.7977 0.555039 12.8599 0.550024C12.9222 0.544994 12.9833 0.539825 13.0451 0.534282C13.1069 0.528724 13.1683 0.522801 13.2288 0.516457C13.29 0.510008 13.3496 0.503248 13.4097 0.495456C13.4644 0.488415 13.5187 0.480342 13.578 0.471723C13.5834 0.470933 13.5888 0.470143 13.5943 0.469354C13.6592 0.459916 13.7333 0.450725 13.8025 0.445306C13.9858 0.431355 14.1642 0.416404 14.3453 0.399695C14.5266 0.382982 14.7072 0.364913 14.8895 0.346366C14.9606 0.339143 15.032 0.331707 15.1035 0.324498C15.2146 0.313278 15.3257 0.302254 15.4378 0.291798C15.6223 0.274563 15.8069 0.259283 15.9923 0.247256C16.1775 0.235233 16.365 0.226476 16.5502 0.221675C16.7342 0.216917 16.9246 0.215471 17.1089 0.217833C17.3137 0.220565 17.521 0.225343 17.7265 0.231547C17.9304 0.237855 18.1382 0.245364 18.3426 0.254085C18.5463 0.262869 18.7533 0.27255 18.958 0.283389C19.1607 0.294323 19.3684 0.306049 19.5727 0.318927C19.6951 0.326637 19.8148 0.334877 19.9401 0.343206C20.0049 0.328986 20.0666 0.315174 20.1257 0.302099C20.5603 0.205713 20.8798 0.13762 21.3012 0.0867544C21.3409 0.0796832 21.373 0.0702442 21.4119 0.0588737C21.4193 0.0567036 21.427 0.0545276 21.4353 0.0522076C21.4887 0.0375009 21.5498 0.0220175 21.6338 0.0112984C21.7979 -0.00999129 22.0614 -0.0115058 22.3866 0.10117C22.4722 0.129596 22.5287 0.262312 22.5117 0.397526C22.5 0.492371 22.4552 0.563262 22.4002 0.587377C22.5031 0.602114 22.6046 0.61782 22.7025 0.633653C22.7417 0.639995 22.7782 0.670783 22.8041 0.719999C22.83 0.769231 22.8434 0.832624 22.8416 0.896991C22.8398 0.961378 22.8231 1.02187 22.7947 1.06603C22.7664 1.11015 22.7287 1.13424 22.6896 1.13356C22.5868 1.13162 22.4764 1.12996 22.3734 1.12929C22.2718 1.12858 22.1683 1.12895 22.0624 1.13014C21.9538 1.13138 21.8548 1.13335 21.7505 1.13606C21.6474 1.13877 21.5401 1.14211 21.4353 1.14606C21.3328 1.14992 21.2306 1.15449 21.1253 1.15939C21.0623 1.16235 20.9974 1.1654 20.9343 1.16868C20.9116 1.16983 20.8894 1.17116 20.8671 1.17236C20.8489 1.17335 20.8306 1.17426 20.8116 1.17525C20.6136 1.18615 20.4026 1.19865 20.2062 1.21168C20.0052 1.22483 19.7991 1.23909 19.6002 1.25392C19.3985 1.26886 19.1944 1.28489 18.9947 1.30137C18.793 1.31793 18.5899 1.33536 18.3898 1.35349C18.1889 1.37169 17.9854 1.39075 17.7857 1.41079C17.6309 1.42629 17.4736 1.44277 17.3209 1.45977C17.261 1.4764 17.2017 1.49235 17.1429 1.50784C16.9723 1.55293 16.7996 1.60928 16.6334 1.6652C16.9344 1.62251 17.1792 1.57236 17.4075 1.52539C17.4381 1.5191 17.4695 1.51275 17.5002 1.50657C17.8144 1.44351 18.1164 1.38891 18.5266 1.37628C19.6938 1.34126 20.3679 1.33817 20.7947 1.35676C21.2183 1.37619 21.3954 1.42002 21.5704 1.51068C21.814 1.63879 22.2738 1.70686 22.504 1.70731C22.59 1.70733 22.6583 1.81967 22.6592 1.95787C22.6601 2.09612 22.5937 2.20806 22.5084 2.20804C22.2666 2.20755 21.7754 2.13885 21.482 1.98676C21.3586 1.91881 21.209 1.87618 20.7968 1.85695C20.3778 1.83867 19.7135 1.84168 18.5491 1.87652C18.1556 1.88862 17.8659 1.94065 17.5569 2.00286C17.5265 2.00897 17.4959 2.01532 17.465 2.02161C17.4648 2.02162 17.4646 2.02164 17.4644 2.02165C17.1841 2.07942 16.8735 2.14347 16.4585 2.19225C15.4969 2.30273 14.2128 2.50773 13.9115 2.58903C13.8524 2.60462 13.7955 2.62127 13.7355 2.6388C13.5045 2.70663 13.2282 2.78661 12.594 2.89611C12.4564 2.92007 12.2937 2.94423 12.1158 2.9687C11.8585 3.06901 11.6079 3.16557 11.3899 3.23361C11.2034 3.29206 11.0317 3.37671 10.8705 3.46646C10.8241 3.49231 10.7777 3.51909 10.7316 3.54582C10.6219 3.61006 10.507 3.67562 10.3976 3.73013C10.3101 3.77364 10.22 3.82376 10.1263 3.87696C9.77571 4.07276 9.37261 4.30748 8.81667 4.43224C8.2291 4.56481 7.73789 4.66869 7.33367 4.77168C7.63075 4.7088 7.87882 4.68071 8.08719 4.6614C8.12689 4.65769 8.16544 4.65426 8.20021 4.65166C8.45004 4.63244 8.64548 4.61936 8.83545 4.57563C9.76874 4.36689 10.133 4.27211 10.5201 4.0822C10.6241 4.0326 10.7375 3.97108 10.8588 3.90563C11.1036 3.77445 11.3863 3.6265 11.7013 3.52302C11.9935 3.42676 12.3222 3.30128 12.6684 3.17202C12.6685 3.17201 12.6687 3.17199 12.6688 3.17197C12.7368 3.14667 12.8058 3.12118 12.8757 3.09568C13.3004 2.94029 13.7508 2.786 14.195 2.67602C14.2425 2.66425 14.2994 2.64889 14.3645 2.63131C14.7403 2.52979 15.4049 2.35423 16.2333 2.36869C16.416 2.37179 16.6065 2.3931 16.8224 2.41835C16.8883 2.42603 16.9576 2.43416 17.0293 2.44212C17.3381 2.47661 17.7136 2.51117 18.2081 2.51911C18.6191 2.52553 19.1119 2.51501 19.632 2.50787C19.882 2.50457 20.1487 2.50179 20.3989 2.50236C21.1683 2.5037 21.8769 2.53077 22.5813 2.56711C22.5815 2.56711 22.5816 2.56711 22.5818 2.56711C22.6657 2.57142 22.7303 2.6873 22.7287 2.82546C22.7269 2.96357 22.6601 3.07195 22.5767 3.0677C21.8762 3.03139 21.1742 3.00417 20.4106 3.00275C20.1652 3.00217 19.9019 3.0049 19.6539 3.00813C19.1337 3.01519 18.6363 3.02581 18.2231 3.01929C17.7226 3.01113 17.3421 2.97588 17.0302 2.94094C16.955 2.93254 16.8834 2.92429 16.817 2.91643C16.6043 2.8915 16.4263 2.87126 16.2539 2.86828C15.456 2.85414 14.8199 3.02223 14.4449 3.12355C14.3783 3.14151 14.3199 3.15728 14.2699 3.16969C13.837 3.27712 13.3961 3.42837 12.9753 3.58292C12.9067 3.60802 12.8387 3.63313 12.7714 3.65823C12.7713 3.65833 12.7711 3.65842 12.771 3.65852C12.4273 3.78721 12.0952 3.91428 11.801 4.01167C11.4995 4.11092 11.2491 4.24391 11.0135 4.3703C10.8877 4.43805 10.7706 4.50307 10.649 4.56094C10.2419 4.76103 9.86282 4.85856 8.94576 5.06382ZM22.2491 0.565299C22.0446 0.505584 21.8729 0.495658 21.7524 0.502323C21.8573 0.514424 21.9594 0.527447 22.0687 0.541066C22.1296 0.548835 22.1898 0.556909 22.2491 0.565299ZM12.0287 2.47547C12.0601 2.46329 12.0918 2.45101 12.1237 2.43869C12.0334 2.45391 11.9433 2.46903 11.8538 2.48431C11.7443 2.50303 11.6338 2.52195 11.5228 2.54123C11.7013 2.51869 11.8694 2.49727 12.0287 2.47547ZM8.7069 3.94367C9.24346 3.82336 9.61752 3.60656 9.96985 3.41095C10.0707 3.35487 10.166 3.30151 10.2641 3.25305C10.3046 3.23299 10.345 3.2116 10.3859 3.18931C10.1327 3.2224 9.90369 3.25368 9.7125 3.28129C9.15022 3.36275 8.82388 3.38962 8.5368 3.41503C8.45369 3.42256 8.37923 3.429 8.29508 3.43924C8.23261 3.47121 8.16848 3.50377 8.10419 3.53467C8.01298 3.57842 7.92243 3.62188 7.82555 3.66487C7.73078 3.70742 7.6364 3.74898 7.54565 3.78808C7.45687 3.8267 7.35853 3.86694 7.2679 3.90467C7.18095 3.94071 7.10124 3.97408 7.01722 4.00977C7.0124 4.01181 7.0076 4.01385 7.00281 4.01589C6.91434 4.05372 6.83153 4.09075 6.75928 4.12815C6.68825 4.16537 6.62235 4.20398 6.5728 4.24378C6.50972 4.29386 6.44882 4.34342 6.39027 4.39174C6.32668 4.44233 6.26723 4.49128 6.21205 4.53862C6.15864 4.58509 6.10154 4.63402 6.0503 4.68128C6.03374 4.69654 6.01704 4.71232 6.0018 4.72709C5.99477 4.73389 5.98791 4.74073 5.98115 4.74743C6.08817 4.68447 6.21668 4.62011 6.35391 4.56114C6.55545 4.47438 6.78561 4.40107 7.04729 4.3303C7.49502 4.20944 8.03583 4.09523 8.7069 3.94367ZM4.87806 6.49873C4.91077 6.4406 4.95721 6.35464 5.01875 6.24457C5.0333 6.21855 5.04859 6.19105 5.06486 6.16239C5.06435 6.16298 5.06393 6.16366 5.06342 6.16425C5.00953 6.2269 4.96071 6.28551 4.9099 6.3501C4.81942 6.46528 4.73468 6.57969 4.65255 6.6977C4.5702 6.81608 4.49149 6.93678 4.41631 7.05962C4.34106 7.18257 4.26908 7.30862 4.20174 7.43508C4.1337 7.56298 4.07011 7.69115 4.01053 7.82249C3.99153 7.86437 3.97292 7.90662 3.95476 7.9491C4.00923 7.86066 4.06398 7.76845 4.12261 7.6719C4.16954 7.59457 4.21906 7.5144 4.27293 7.43139C4.29356 7.39961 4.31975 7.36196 4.35066 7.318C4.4733 7.14388 4.66664 6.87496 4.87806 6.49873ZM3.63548 9.06137C3.62654 9.09372 3.61754 9.1256 3.60821 9.15709C3.58166 9.24669 3.5537 9.33341 3.52596 9.41856C3.50654 9.47814 3.48714 9.53672 3.46831 9.59484C3.46037 9.61936 3.45254 9.64391 3.4448 9.66825C3.43181 9.70902 3.41927 9.74966 3.40695 9.79012C3.51738 9.51496 3.62707 9.24935 3.74007 8.97183C3.74157 8.96817 3.74293 8.96444 3.74444 8.96075C3.70725 8.99483 3.67093 9.02837 3.63548 9.06137Z" fill="#1E1E1E"/>
</svg>
