<svg id="Layer_1" data-name="Layer 1" xmlns="http://www.w3.org/2000/svg" xmlns:xlink="http://www.w3.org/1999/xlink" width="257.33mm" height="62.98mm" viewBox="0 0 729.43 178.53"><defs><style>.cls-1{fill:none;}.cls-2{clip-path:url(#clip-path);}.cls-3{fill:#353535;}.cls-4{clip-path:url(#clip-path-2);}.cls-5{fill:#bec3a5;}.cls-6{fill:#fff;}</style><clipPath id="clip-path"><rect class="cls-1" x="-17.29" y="-40.57" width="772" height="261"/></clipPath><clipPath id="clip-path-2"><rect class="cls-1" x="11.19" y="10.06" width="156.17" height="156.17"/></clipPath></defs><title>Genbyg_Logo_WEB</title><g class="cls-2"><path class="cls-3" d="M268.92,165.74c-1.58.66-3.65,0-5.47,0-2.62,0-4.73-7.93-7.32-9-2.87-.67-5.22,9.25-23.22,9.24-24.28,0-37.86-15-37.86-30.83V42.84c0-15.2,13-31.06,37.85-31.06,25.32,0,38.1,15.86,38.11,31.05v11.9c0,2-2.35,2.87-15.66,2.87-9.14,0-12.54.22-12.54-2.2,0-3.08-.25-9.48-.25-11.68a9.57,9.57,0,0,0-9.67-9.25c-7.83,0-9.91,7.05-9.91,12.55,0,28.2,0,68.72,0,83,0,5.73.77,12.55,9.91,12.55,8.35,0,9.66-5.94,9.66-8.8V105a2.7,2.7,0,0,0-2.36-3.08c-2.61-.66-5.73-.66-7-1.33-1-.87-1-3.08-1-6.6,0-3.74,0-6.16,1-6.61,3.39-2,14.88-2.2,25.32-2S271,86.89,271,90c0,15.42,0,56.83,0,71.59,0,1.1,0,3.51-2.1,4.18"/><path class="cls-3" d="M352.17,166H302.05c-4.16,0-8.61.44-10.43-.88-2.09-1.54-1.58-4.85-1.58-7.49,0-52.86,0-86.34,0-139.2,0-2.87.28-3.09,1.85-4.85s3.38-1.76,6-1.76h54c3.12,0,3.13,1.77,3.12,10.36,0,9.91,0,11.23-3.37,11.23H325.55c-2.1,0-5.22.21-6,1.09-1.3,1.55-1.3,1.33-1.3,4.19V67.72c0,2-.52,4.41,1.58,5.73,1.82,1.1,3.64.88,5.74.88h12.51c3.15,0,3.4,1.32,3.4,11,0,9.25,0,10.58-3.4,10.58H326.33a23.32,23.32,0,0,0-6.52.66C317.46,97.9,318,100.1,318,103c0,17.62,0,15.19,0,32.81,0,2.87,0,7.05,1.3,7.71s4.94.89,7.82.88H351.9c3.12,0,3.39.88,3.4,10.57,0,10.13-.28,11-3.13,11"/><path class="cls-3" d="M438,166c-6.77,0-9.65-.44-11.47-5.95-8.61-25.55-11.76-37.22-20.88-65-1.58-4.85-3.67-13-5.49-13s-1.83,4.63-1.83,7.49c0,28.63,0,42.29,0,72.46,0,3.53-.78,4-14.36,4-13,0-13-.44-13-3.74,0-55.07,0-94.71,0-147.36,0-3.08.52-3.08,12-3.08,11.22,0,12.51.88,14.61,7.05,5.47,18.06,13,41.63,21.14,65,.52,2.2,1.57,5.72,3.14,5.72,1.82,0,1.82-4.19,1.82-6.61,0-23.34,0-41.85,0-67.17,0-3.53.77-4,13.84-4,13.31,0,13.55.22,13.56,3.74V159.56c0,5.73.26,6.39-13.05,6.39"/><path class="cls-3" d="M537.19,156c-8.35,7.5-20.36,9.93-30.53,9.93-7.83,0-19,.22-25.31,0-3.65-.21-7.05.23-7.82-1.09-1.33-1.55-1.57-2-1.58-6.62,0-42.28,0-97.13,0-139.64,0-2.86,0-4.62,1.58-5.72,1.54-1.33,3.37-1.1,6.24-1.11h25.85c11.48,0,23.22,2.87,31,9.25,7.32,6.17,10.19,15,10.19,24V63.74c0,6.83-1.57,11-4.94,15-4.72,5.07-12,6.17-12,7,0,.66,8.61,1.32,13.84,7.49,3.12,4,4.17,7.7,4.17,13.65,0,16.08,0,15.64,0,25.55,0,8.15-2.1,15.86-10.71,23.56M518.93,49.64c0-4.62-.28-8.81-3.65-12.11-1.83-1.76-3.67-2.64-8.37-2.64-3.12,0-5.22,0-6,.88a4.19,4.19,0,0,0-1.05,3.09V71.68c0,2,0,3.3,1.3,4.18s2.62.66,4.69.66a13.7,13.7,0,0,0,9.41-3.3,10.47,10.47,0,0,0,3.65-8.59c0-6.61,0-9.92,0-15m1.05,61.9c0-8.15-3.15-13.88-10.72-13.88-8.34,0-9.39.23-9.39,4.19,0,8.8,0,25.11,0,36.12,0,2,0,4.4,1.82,4.63a29.62,29.62,0,0,0,5.22.21c2.35,0,6.53-.43,9.39-3.08C519.7,136.87,520,134,520,130c0-6.39,0-12.34,0-18.5"/><path class="cls-3" d="M612.91,87.08c-1.31,4.63-2.1,9.47-2.88,13a58.59,58.59,0,0,0-1.57,11.67c0,18.72,0,33.92,0,52.42,0,2-11,1.77-14.34,1.77-4.2,0-13.84.22-13.84-2.42,0-17.84.25-31.5.25-51.1a60.3,60.3,0,0,0-.78-10.79c-.52-2.87-2.35-8.37-3.65-13.22C569,62.64,563.05,40.83,556.53,15.07c-.8-2.87,7.29-3.09,11.74-3.09,8.09,0,15.41.21,15.92,3.52,3.13,19.17,6,36.34,8.88,54.19,0,.66.53,2,1.56,2s1.31-1.55,1.31-2.21c3.4-19.6,5.22-34.13,8.34-54,.52-2.86,7.84-3.53,14.61-3.52,7,0,13.58.21,12.79,3.08-6.52,26-11.47,46-18.77,72"/><path class="cls-3" d="M715.47,165.71c-1.57.66-3.65,0-5.49,0-2.59,0-4.7-7.93-7.3-9-2.87-.67-5.22,9.25-23.22,9.25-24.27,0-37.85-15-37.85-30.84,0-16.29,0-75.75,0-92.28,0-15.2,13-31.06,37.84-31.06,25.3,0,38.09,15.86,38.09,31.05V54.7c0,2-2.34,2.87-15.65,2.86-9.12,0-12.51.22-12.51-2.2,0-3.08-.28-9.47-.28-11.67a9.55,9.55,0,0,0-9.64-9.25c-7.84,0-9.91,7.05-9.91,12.55,0,28.2,0,68.72,0,83,0,5.72.77,12.55,9.91,12.55,8.35,0,9.65-5.94,9.65-8.8,0-6.61,0-18.73,0-28.86a2.7,2.7,0,0,0-2.35-3.08c-2.59-.67-5.74-.66-7-1.33-1-.88-1-3.08-1.05-6.6,0-3.75,0-6.17,1.05-6.61,3.39-2,14.89-2.21,25.32-2s12.51,1.54,12.51,4.62c0,15.42,0,56.83,0,71.58,0,1.11,0,3.53-2.07,4.19"/></g><g class="cls-4"><path class="cls-5" d="M88.77,44.49h-.3a43.4,43.4,0,0,0-.53,86.8h.48a43.07,43.07,0,0,0,28.93-11.2,1.9,1.9,0,0,0,.36-3l-4.15-4.18a2.19,2.19,0,0,0-1.58-.73,3.13,3.13,0,0,0-2.11,1.07,33.24,33.24,0,0,1-21.42,7.78h-.31c-17.58,0-32.81-14.85-32.86-33.17-.06-18,14.92-33.3,32.89-33.3h.51a32.59,32.59,0,0,1,21.13,7.8c1.42,1.19,1.53,2.74.59,3.81l-6.33,6.27c-2.27,2.26-.49,4.16,1.88,5.24l40.36,17.61a2.21,2.21,0,0,0,.89.18,2.7,2.7,0,0,0,2.45-3.61L132.2,51.3c-.8-2-2.07-2.71-3.17-2.71a2.4,2.4,0,0,0-1.69.67L121,55.66a2.47,2.47,0,0,1-1.68.72,3.66,3.66,0,0,1-2.24-1c-7.75-6.74-17-10.92-28.31-10.92m.78,121.74H89a78.09,78.09,0,0,1,.26-156.17h.27a78.09,78.09,0,0,1,0,156.17"/><path class="cls-6" d="M87.94,131.29a43.4,43.4,0,0,1,.53-86.8h.3c11.28,0,20.56,4.18,28.31,10.92a3.68,3.68,0,0,0,2.24,1,2.51,2.51,0,0,0,1.68-.73l6.34-6.39a2.37,2.37,0,0,1,1.69-.68c1.1,0,2.37.72,3.17,2.71l17.45,40.6a2.7,2.7,0,0,1-2.45,3.61,2.21,2.21,0,0,1-.89-.18L106,77.72c-2.37-1.08-4.15-3-1.88-5.24l6.33-6.27c.94-1.06.83-2.62-.59-3.81a32.67,32.67,0,0,0-21.13-7.8h-.51c-18,0-32.95,15.28-32.89,33.3,0,18.32,15.28,33.17,32.86,33.17h.31a33.24,33.24,0,0,0,21.42-7.78,3.13,3.13,0,0,1,2.11-1.07,2.19,2.19,0,0,1,1.58.73l4.15,4.18a1.9,1.9,0,0,1-.36,3,43.07,43.07,0,0,1-28.93,11.2h-.48"/></g></svg>