<?xml version="1.0" encoding="UTF-8"?>
<svg id="Lag_2" data-name="Lag 2" xmlns="http://www.w3.org/2000/svg" viewBox="0 0 640.2 255.9">
  <defs>
    <style>
      .cls-1 {
        fill: #ededed;
      }

      .cls-1, .cls-2 {
        fill-rule: evenodd;
      }

      .cls-3 {
        fill: #211817;
      }

      .cls-2 {
        fill: #3eab43;
      }

      .cls-4 {
        fill: #1d1d1b;
      }
    </style>
  </defs>
  <g id="Lag_1-2" data-name="Lag 1">
    <g>
      <path class="cls-1" d="M269.57,170.43c-.07,1.44-2.8,2.74-8.21,3.92-5.42,1.25-12.89,2.31-22.4,3.23-9.6.91-20.72,1.63-33.37,2.15-12.59.53-26.16.79-40.7.79s-28.11-.26-40.7-.79c-12.65-.52-23.78-1.24-33.37-2.15-9.52-.92-16.99-1.98-22.4-3.23-5.41-1.18-8.15-2.48-8.21-3.92.06-1.37,2.81-2.66,8.21-3.91,5.41-1.24,12.88-2.32,22.4-3.23,9.59-.9,20.72-1.62,33.37-2.16,12.59-.52,26.16-.78,40.7-.78s28.11.26,40.7.78c12.65.54,23.77,1.25,33.37,2.16,9.51.91,16.98,1.99,22.4,3.23,5.41,1.25,8.14,2.54,8.21,3.91"/>
      <g>
        <path class="cls-2" d="M123.37,143.34c-4.51.06-8.22,1.59-11.16,4.59-3,2.94-4.54,6.66-4.6,11.16.06,4.44,1.6,8.15,4.6,11.15,2.94,2.93,6.65,4.46,11.16,4.6,4.44-.13,8.15-1.66,11.15-4.6,2.93-3,4.46-6.71,4.6-11.15-.13-4.5-1.66-8.22-4.6-11.16-3-2.94-6.71-4.47-11.15-4.59Z"/>
        <path class="cls-2" d="M235.78,31.8c-1.5-1.57-3.29-2.35-5.38-2.35h-44.71l-.69,14.58h37.28l-6.95,64.76-12.62,1.87,4.11-58.71h-22.22l-2.84,61.74v.08l-8.61,1.27,1.76-85.69h-24.08l1.77,88.73-5.68.79-8.81-103.61h-24.06l12.72,106.65-8,1.18L98.12,3.71h-26.22l27.12,122.3-4.62.68L55.07,13.89c-.85-2.54-2.15-4.8-3.91-6.76-1.7-2.02-3.75-3.66-6.17-4.89-2.41-1.24-4.92-1.95-7.53-2.15-2.67-.26-5.28,0-7.83.78L5.17,8.22c-1.95.65-3.39,1.83-4.3,3.52C-.04,13.44-.23,15.26.28,17.22c.66,1.95,1.82,3.42,3.53,4.39,1.75.91,3.62,1.08,5.58.5l24.36-7.25c1.63-.52,3.17-.38,4.6.39,1.44.72,2.44,1.86,3.04,3.43l41.29,118.48c.52,1.5,1.4,2.67,2.63,3.51,1.25.92,2.65,1.38,4.21,1.38.32,0,.68-.03,1.08-.09l132.37-19.57c1.69-.26,3.09-.97,4.2-2.16,1.11-1.17,1.79-2.6,2.06-4.29l8.42-78.48c.13-2.15-.49-4.04-1.86-5.67Z"/>
        <path class="cls-2" d="M194.49,131c-4.5.13-8.21,1.67-11.15,4.61-3.01,2.99-4.54,6.71-4.6,11.15.06,4.49,1.59,8.21,4.6,11.15,2.93,3.01,6.65,4.54,11.15,4.6,4.44-.06,8.15-1.59,11.15-4.6,2.94-2.94,4.48-6.66,4.61-11.15-.13-4.44-1.67-8.16-4.61-11.15-3-2.94-6.72-4.48-11.15-4.61Z"/>
      </g>
      <path class="cls-3" d="M582.09,73.41v29.69c0,11.56,2.3,19.92,6.9,25.06,4.6,5.15,12.03,7.72,22.28,7.72s17.42-2.6,22.03-7.79c4.6-5.19,6.9-13.52,6.9-25v-29.69h-13.73v33.8c0,5.82-1.21,10-3.61,12.53-2.41,2.53-6.31,3.8-11.71,3.8s-9.31-1.27-11.71-3.8c-2.41-2.53-3.61-6.71-3.61-12.53v-33.8h-13.74ZM520.69,161.64v-36.02c2.45,3.46,5.31,6.03,8.57,7.72,3.27,1.69,7.02,2.53,11.24,2.53,8.48,0,15.16-2.9,20.03-8.7,4.87-5.8,7.31-13.75,7.31-23.83s-2.48-17.31-7.44-23.2c-4.96-5.89-11.42-8.83-19.4-8.83-4.89,0-9.1,1.04-12.63,3.1-3.52,2.07-6.08,5-7.69,8.8v-9.81h-13.74v88.23h13.74ZM524.62,88.72c2.91-3.46,6.96-5.19,12.15-5.19s9.27,1.78,12.24,5.35c2.98,3.56,4.47,8.51,4.47,14.84s-1.43,11.29-4.28,14.75c-2.85,3.46-6.87,5.19-12.06,5.19s-9.15-1.86-12.25-5.57c-3.1-3.71-4.65-8.67-4.65-14.87s1.46-11.03,4.37-14.49h0ZM445.11,161.64v-36.02c2.44,3.46,5.31,6.03,8.58,7.72,3.27,1.69,7.01,2.53,11.24,2.53,8.48,0,15.15-2.9,20.03-8.7,4.87-5.8,7.31-13.75,7.31-23.83s-2.48-17.31-7.44-23.2-11.42-8.83-19.4-8.83c-4.9,0-9.11,1.04-12.63,3.1-3.53,2.07-6.09,5-7.69,8.8v-9.81h-13.73v88.23h13.73ZM449.04,88.72c2.91-3.46,6.96-5.19,12.15-5.19s9.27,1.78,12.25,5.35c2.97,3.56,4.46,8.51,4.46,14.84s-1.42,11.29-4.28,14.75c-2.85,3.46-6.87,5.19-12.06,5.19s-9.15-1.86-12.25-5.57c-3.1-3.71-4.65-8.67-4.65-14.87s1.45-11.03,4.37-14.49h0ZM397.26,73.28h-13.73v60.13h13.73v-26.33c0-8.61.99-14.74,2.98-18.39,1.98-3.65,5.25-5.48,9.81-5.48,1.69,0,3.22.2,4.59.6,1.37.4,2.65,1.02,3.83,1.87l4.94-11.65c-1.81-.89-3.66-1.56-5.54-2.03-1.88-.46-3.79-.7-5.73-.7-3.58,0-6.59.95-9.02,2.85-2.43,1.9-4.38,4.83-5.86,8.8v-9.68h0ZM363.77,133.41v-60h-13.73v60h13.73ZM350.77,53.56c1.71,1.71,3.74,2.56,6.11,2.56s4.43-.83,6.08-2.5c1.64-1.67,2.47-3.72,2.47-6.17s-.81-4.48-2.44-6.11c-1.63-1.63-3.66-2.44-6.11-2.44s-4.4.85-6.11,2.53c-1.71,1.69-2.57,3.69-2.57,6.01s.86,4.4,2.57,6.11h0ZM285.09,133.41v-47.35l36.65,47.35h19.43l-41.08-51.46,36.71-41.21h-18.42l-33.29,38.36v-38.36h-15.07v92.66h15.07Z"/>
      <g>
        <path class="cls-4" d="M22.71,194.29v35.87h14.33v10.13H10.76v-45.99h11.96Z"/>
        <path class="cls-4" d="M40.95,224.37c0-2.32.47-4.48,1.4-6.5.94-2.01,2.24-3.76,3.9-5.25,1.67-1.48,3.65-2.65,5.95-3.51,2.3-.85,4.81-1.28,7.53-1.28s5.17.42,7.47,1.25c2.3.83,4.29,1.99,5.98,3.48,1.69,1.49,3,3.25,3.93,5.31.94,2.05,1.4,4.32,1.4,6.8s-.48,4.75-1.43,6.8c-.96,2.05-2.27,3.82-3.93,5.31-1.67,1.49-3.67,2.63-6.01,3.45-2.34.81-4.87,1.22-7.59,1.22s-5.17-.41-7.44-1.22c-2.28-.81-4.24-1.97-5.89-3.48-1.65-1.5-2.94-3.3-3.87-5.4-.94-2.09-1.4-4.42-1.4-6.98ZM52.6,224.49c0,1.06.19,2.02.58,2.9.39.88.89,1.64,1.52,2.29.63.65,1.38,1.16,2.26,1.53.87.37,1.8.55,2.78.55s1.9-.18,2.78-.55c.87-.37,1.63-.87,2.26-1.53.63-.65,1.14-1.41,1.53-2.29.39-.87.58-1.82.58-2.84s-.19-1.9-.58-2.78c-.39-.87-.9-1.64-1.53-2.29-.63-.65-1.38-1.16-2.26-1.53-.88-.37-1.8-.55-2.78-.55s-1.9.18-2.78.55c-.88.37-1.63.88-2.26,1.53-.63.65-1.14,1.4-1.52,2.26-.39.85-.58,1.77-.58,2.75Z"/>
        <path class="cls-4" d="M95.91,255.9h-11.04v-46.91h11.04v3.48c2.36-2.97,5.57-4.45,9.64-4.45,2.24,0,4.32.44,6.25,1.31,1.93.87,3.61,2.06,5.03,3.57,1.42,1.5,2.53,3.27,3.32,5.31.79,2.03,1.19,4.21,1.19,6.53s-.4,4.47-1.19,6.47c-.79,1.99-1.89,3.74-3.29,5.25-1.4,1.5-3.06,2.68-4.97,3.54-1.91.85-3.99,1.28-6.22,1.28-3.9,0-7.16-1.34-9.76-4.03v18.67ZM109.82,224.73c0-.98-.17-1.9-.52-2.78-.35-.87-.84-1.64-1.49-2.29-.65-.65-1.41-1.17-2.29-1.56-.88-.39-1.82-.58-2.84-.58s-1.89.18-2.75.55-1.6.88-2.23,1.53c-.63.65-1.14,1.41-1.52,2.29-.39.88-.58,1.8-.58,2.78s.18,1.89.55,2.75c.37.85.87,1.6,1.52,2.23.65.63,1.41,1.14,2.29,1.53.87.39,1.8.58,2.78.58s1.89-.18,2.75-.55,1.6-.87,2.23-1.53c.63-.65,1.14-1.4,1.52-2.26.39-.85.58-1.75.58-2.68Z"/>
        <path class="cls-4" d="M138.67,255.9h-11.04v-46.91h11.04v3.48c2.36-2.97,5.57-4.45,9.64-4.45,2.24,0,4.32.44,6.25,1.31,1.93.87,3.61,2.06,5.03,3.57,1.42,1.5,2.53,3.27,3.32,5.31.79,2.03,1.19,4.21,1.19,6.53s-.4,4.47-1.19,6.47c-.79,1.99-1.89,3.74-3.29,5.25-1.4,1.5-3.06,2.68-4.97,3.54-1.91.85-3.99,1.28-6.22,1.28-3.9,0-7.16-1.34-9.76-4.03v18.67ZM152.58,224.73c0-.98-.17-1.9-.52-2.78-.35-.87-.84-1.64-1.49-2.29-.65-.65-1.41-1.17-2.29-1.56-.88-.39-1.82-.58-2.84-.58s-1.89.18-2.75.55-1.6.88-2.23,1.53c-.63.65-1.14,1.41-1.52,2.29-.39.88-.58,1.8-.58,2.78s.18,1.89.55,2.75c.37.85.87,1.6,1.52,2.23.65.63,1.41,1.14,2.29,1.53.87.39,1.8.58,2.78.58s1.89-.18,2.75-.55,1.6-.87,2.23-1.53c.63-.65,1.14-1.4,1.52-2.26.39-.85.58-1.75.58-2.68Z"/>
        <path class="cls-4" d="M180.33,226.5c0,4.76,2.24,7.14,6.71,7.14,2.4,0,4.21-.98,5.43-2.93h10.68c-2.16,7.16-7.54,10.74-16.17,10.74-2.64,0-5.06-.4-7.26-1.19-2.2-.79-4.08-1.92-5.64-3.39-1.57-1.46-2.78-3.21-3.63-5.25-.85-2.03-1.28-4.31-1.28-6.83s.41-4.95,1.22-7.04c.81-2.09,1.97-3.87,3.48-5.34,1.5-1.46,3.32-2.59,5.46-3.39,2.14-.79,4.54-1.19,7.23-1.19s5.02.4,7.14,1.19c2.11.79,3.9,1.94,5.37,3.45,1.46,1.51,2.58,3.35,3.35,5.52.77,2.18,1.16,4.63,1.16,7.35v1.16h-23.24ZM193.27,220.1c-.37-1.54-1.12-2.78-2.26-3.72-1.14-.93-2.52-1.4-4.15-1.4-1.71,0-3.1.45-4.18,1.34-1.08.89-1.76,2.16-2.04,3.78h12.63Z"/>
        <path class="cls-4" d="M230.6,217.05c-2.03-1.06-4.03-1.59-5.98-1.59-1.02,0-1.84.2-2.47.61-.63.41-.95.96-.95,1.65,0,.37.05.66.15.88.1.22.33.44.67.64.34.2.85.39,1.52.55.67.16,1.56.37,2.65.61,3.05.61,5.33,1.7,6.83,3.26,1.5,1.57,2.26,3.57,2.26,6.01,0,1.83-.37,3.48-1.1,4.94s-1.75,2.69-3.05,3.69c-1.3,1-2.87,1.77-4.7,2.32-1.83.55-3.84.82-6.04.82-4.23,0-8.4-1.2-12.5-3.6l4.03-7.81c3.09,2.12,6.02,3.17,8.78,3.17,1.02,0,1.85-.22,2.5-.67.65-.45.98-1.02.98-1.71,0-.41-.05-.74-.15-1.01-.1-.26-.32-.51-.64-.73-.33-.22-.8-.43-1.43-.61-.63-.18-1.45-.38-2.47-.58-3.42-.69-5.81-1.72-7.17-3.08-1.36-1.36-2.04-3.24-2.04-5.64,0-1.75.33-3.32.98-4.73.65-1.4,1.59-2.59,2.81-3.57,1.22-.98,2.69-1.73,4.42-2.26,1.73-.53,3.65-.79,5.76-.79,3.46,0,6.81.67,10.06,2.01l-3.72,7.2Z"/>
        <path class="cls-4" d="M251.95,208.99v17.63c0,3.86,1.87,5.79,5.61,5.79s5.61-1.93,5.61-5.79v-17.63h11.04v19.76c0,4.23-1.39,7.4-4.18,9.52-2.79,2.11-6.94,3.17-12.47,3.17s-9.69-1.06-12.47-3.17c-2.79-2.11-4.18-5.29-4.18-9.52v-19.76h11.04Z"/>
        <path class="cls-4" d="M292.75,255.9h-11.04v-46.91h11.04v3.48c2.36-2.97,5.57-4.45,9.64-4.45,2.24,0,4.32.44,6.25,1.31,1.93.87,3.61,2.06,5.03,3.57,1.42,1.5,2.53,3.27,3.32,5.31.79,2.03,1.19,4.21,1.19,6.53s-.4,4.47-1.19,6.47c-.79,1.99-1.89,3.74-3.29,5.25-1.4,1.5-3.06,2.68-4.97,3.54-1.91.85-3.99,1.28-6.22,1.28-3.9,0-7.16-1.34-9.76-4.03v18.67ZM306.66,224.73c0-.98-.17-1.9-.52-2.78-.35-.87-.84-1.64-1.49-2.29-.65-.65-1.41-1.17-2.29-1.56-.88-.39-1.82-.58-2.84-.58s-1.89.18-2.75.55-1.6.88-2.23,1.53c-.63.65-1.14,1.41-1.52,2.29-.39.88-.58,1.8-.58,2.78s.18,1.89.55,2.75c.37.85.87,1.6,1.52,2.23.65.63,1.41,1.14,2.29,1.53.87.39,1.8.58,2.78.58s1.89-.18,2.75-.55,1.6-.87,2.23-1.53c.63-.65,1.14-1.4,1.52-2.26.39-.85.58-1.75.58-2.68Z"/>
        <path class="cls-4" d="M334.42,226.5c0,4.76,2.24,7.14,6.71,7.14,2.4,0,4.21-.98,5.43-2.93h10.68c-2.16,7.16-7.54,10.74-16.17,10.74-2.64,0-5.06-.4-7.26-1.19-2.2-.79-4.08-1.92-5.64-3.39-1.57-1.46-2.78-3.21-3.63-5.25-.85-2.03-1.28-4.31-1.28-6.83s.41-4.95,1.22-7.04c.81-2.09,1.97-3.87,3.48-5.34s3.33-2.59,5.46-3.39,4.54-1.19,7.23-1.19,5.02.4,7.14,1.19c2.11.79,3.9,1.94,5.37,3.45,1.46,1.51,2.58,3.35,3.36,5.52.77,2.18,1.16,4.63,1.16,7.35v1.16h-23.24ZM347.35,220.1c-.37-1.54-1.12-2.78-2.26-3.72-1.14-.93-2.52-1.4-4.15-1.4-1.71,0-3.1.45-4.18,1.34s-1.76,2.16-2.04,3.78h12.63Z"/>
        <path class="cls-4" d="M363.94,208.99h11.04v5.12c1.18-1.87,2.62-3.3,4.33-4.3,1.71-1,3.7-1.49,5.98-1.49h.95c.35,0,.74.04,1.19.12v10.55c-1.46-.73-3.05-1.1-4.76-1.1-2.56,0-4.48.76-5.76,2.29-1.28,1.53-1.92,3.75-1.92,6.68v13.42h-11.04v-31.29Z"/>
        <path class="cls-4" d="M392.31,208.99h11.04v3.84c3.01-2.89,6.38-4.33,10.13-4.33,4.64,0,8.17,1.95,10.61,5.86,2.48-3.94,6.02-5.92,10.61-5.92,1.46,0,2.85.21,4.15.64,1.3.43,2.42,1.1,3.35,2.01s1.68,2.1,2.23,3.57.82,3.23.82,5.31v20.31h-11.04v-15.43c0-1.59-.11-2.89-.34-3.9-.22-1.02-.55-1.81-.98-2.38-.43-.57-.93-.96-1.5-1.16-.57-.2-1.18-.3-1.83-.3-3.54,0-5.31,2.58-5.31,7.75v15.43h-11.04v-15.43c0-1.59-.1-2.9-.3-3.93-.2-1.04-.5-1.86-.88-2.47-.39-.61-.88-1.03-1.49-1.25-.61-.22-1.32-.33-2.14-.33-.69,0-1.34.1-1.95.3-.61.2-1.15.6-1.62,1.19-.47.59-.83,1.4-1.1,2.44-.27,1.04-.4,2.39-.4,4.06v15.43h-11.04v-31.29Z"/>
        <path class="cls-4" d="M476.97,208.99h11.1v31.29h-11.1v-3.48c-2.36,2.97-5.55,4.45-9.58,4.45-2.28,0-4.37-.42-6.28-1.25-1.91-.83-3.58-2-5-3.51-1.42-1.5-2.53-3.27-3.32-5.31-.79-2.03-1.19-4.25-1.19-6.65,0-2.24.39-4.36,1.16-6.37.77-2.01,1.85-3.77,3.23-5.28,1.38-1.5,3.03-2.69,4.94-3.57s4.03-1.31,6.34-1.31c3.9,0,7.14,1.36,9.7,4.09v-3.11ZM463.07,224.55c0,1.02.18,1.96.55,2.84.37.88.86,1.64,1.49,2.29.63.65,1.38,1.16,2.26,1.53.87.37,1.82.55,2.84.55s1.9-.18,2.78-.55c.87-.37,1.63-.87,2.26-1.53.63-.65,1.14-1.4,1.53-2.26.39-.85.58-1.77.58-2.75s-.19-1.9-.58-2.78c-.39-.87-.9-1.64-1.53-2.29-.63-.65-1.38-1.16-2.26-1.53-.88-.37-1.8-.55-2.78-.55s-1.96.18-2.84.55c-.88.37-1.63.88-2.26,1.53-.63.65-1.13,1.39-1.49,2.23-.37.83-.55,1.74-.55,2.71Z"/>
        <path class="cls-4" d="M495.58,208.99h11.04v5.12c1.18-1.87,2.62-3.3,4.33-4.3,1.71-1,3.7-1.49,5.98-1.49h.95c.35,0,.74.04,1.19.12v10.55c-1.46-.73-3.05-1.1-4.76-1.1-2.56,0-4.48.76-5.76,2.29-1.28,1.53-1.92,3.75-1.92,6.68v13.42h-11.04v-31.29Z"/>
      </g>
      <g>
        <path class="cls-4" d="M535.1,189.66v30.62l11.59-11.29h15.13l-15.68,14.46,16.59,16.84h-15.49l-12.14-12.75v12.75h-11.04v-50.63h11.04Z"/>
        <path class="cls-4" d="M574.69,226.5c0,4.76,2.24,7.14,6.71,7.14,2.4,0,4.21-.98,5.43-2.93h10.67c-2.16,7.16-7.54,10.74-16.17,10.74-2.64,0-5.06-.4-7.26-1.19-2.2-.79-4.08-1.92-5.64-3.39-1.57-1.46-2.78-3.21-3.63-5.25-.85-2.03-1.28-4.31-1.28-6.83s.41-4.95,1.22-7.04c.81-2.09,1.97-3.87,3.48-5.34,1.5-1.46,3.33-2.59,5.46-3.39s4.54-1.19,7.23-1.19,5.02.4,7.14,1.19c2.11.79,3.9,1.94,5.37,3.45,1.46,1.51,2.58,3.35,3.35,5.52.77,2.18,1.16,4.63,1.16,7.35v1.16h-23.24ZM587.63,220.1c-.37-1.54-1.12-2.78-2.26-3.72-1.14-.93-2.52-1.4-4.15-1.4-1.71,0-3.1.45-4.18,1.34-1.08.89-1.76,2.16-2.04,3.78h12.63Z"/>
      </g>
      <path class="cls-4" d="M628.38,189.66h11.1v50.63h-11.1v-3.48c-2.36,2.97-5.55,4.45-9.58,4.45-2.28,0-4.37-.43-6.28-1.28-1.91-.85-3.58-2.03-5-3.54-1.42-1.5-2.53-3.27-3.32-5.31-.79-2.03-1.19-4.23-1.19-6.59,0-2.24.38-4.36,1.13-6.37.75-2.01,1.82-3.77,3.2-5.28,1.38-1.5,3.04-2.69,4.97-3.57s4.06-1.31,6.38-1.31c3.9,0,7.14,1.36,9.7,4.09v-22.45ZM614.47,224.55c0,1.02.18,1.96.55,2.84.37.88.86,1.64,1.49,2.29.63.65,1.38,1.16,2.26,1.53.87.37,1.82.55,2.84.55s1.9-.18,2.78-.55c.87-.37,1.63-.87,2.26-1.53.63-.65,1.14-1.4,1.53-2.26.39-.85.58-1.77.58-2.75s-.19-1.9-.58-2.78c-.39-.87-.9-1.64-1.53-2.29-.63-.65-1.38-1.16-2.26-1.53-.88-.37-1.8-.55-2.78-.55s-1.9.18-2.78.55c-.88.37-1.63.88-2.26,1.53-.63.65-1.14,1.39-1.53,2.23-.39.83-.58,1.74-.58,2.71Z"/>
    </g>
  </g>
</svg>