<?xml version="1.0" encoding="utf-8"?>
<!-- Generator: Adobe Illustrator 24.1.3, SVG Export Plug-In . SVG Version: 6.00 Build 0)  -->
<svg version="1.1" xmlns="http://www.w3.org/2000/svg" xmlns:xlink="http://www.w3.org/1999/xlink" x="0px" y="0px"
	 viewBox="0 0 260.8 96.4" style="enable-background:new 0 0 260.8 96.4;" xml:space="preserve">
<style type="text/css">
	.st0{fill:#CC3366;}
	.st1{fill:#001B27;}
	.st2{fill:#FFFFFF;}
	.st3{display:none;}
	.st4{display:inline;}
</style>
<g id="Layer_1">
	<g>
		<path class="st0" d="M68,51.8c0,0.9-0.8,1-1.3,1c-2.2,0-3.2-0.6-3.6-2.8c0,0-3.2-17.6-3.5-19s-0.6-2-3.3-2c-1.3,0-1.4,0.6-1.7,2
			c0,0,0,0-3.1,18.2c-0.2,1.5-0.8,2.9-5.5,2.9s-5.3-1.4-5.5-2.9C37.4,31,37.4,31,37.4,31c-0.2-1.4-0.3-2-1.7-2c-2.7,0-3,0.5-3.3,2
			S29,50,29,50c-0.4,2.3-1.4,2.8-3.6,2.8c-0.6,0-1.3-0.1-1.3-1c0,0,0,0,2.8-22.6c0.2-1.9,1.3-4.8,9.7-4.8c4.8,0,5.6,2.7,5.9,4.3
			c0.3,1.9,2.1,18.3,2.2,18.8c0.1,0.5,0.4,0.6,1.4,0.6s1.3-0.1,1.4-0.6c0.1-0.5,1.9-16.9,2.2-18.8c0.3-1.6,1.1-4.3,5.8-4.3
			c8.3,0,9.4,2.9,9.7,4.8C68,51.8,68,51.8,68,51.8z"/>
		<path class="st0" d="M166.9,25.4c0-0.9,0.1-1.3-1.4-1.3c-1.3,0-3.9,0.1-4.9,2c-0.9,1.7-3.8,10.4-14.6,11.7l0.4-11.7
			c0-1-0.5-1.6-1.8-1.6c-1.6,0-4.6,0.3-4.6,1.6l0.9,25.6c0,0.6,1,1.2,2.3,1.2s2.3-0.5,2.3-1.2l0.3-9.9c2.2-0.2,4.3-0.6,6.1-1.2
			c9.1,9.3,6.3,13.3,11.9,13.3c1.3,0,2.7-0.5,2.7-1.1c0-1.3-6.7-10.5-10.6-13.9C164.1,34.4,166.9,26.6,166.9,25.4z"/>
		<g>
			<path class="st0" d="M201.7,26L199.3,47c-0.2,1.8-1.8,5.8-11.8,5.8s-11.6-4-11.8-5.8L173.3,26c0-1,0.5-1.6,1.8-1.6
				c1.6,0,4.6,0.3,4.6,1.6l0.8,18.4c0.1,2.1,1,3.7,7,3.7s6.9-1.6,7-3.7l0.8-18.4c0-1.3,3-1.6,4.6-1.6
				C201.1,24.5,201.7,25.1,201.7,26z"/>
		</g>
		<path class="st0" d="M96.7,48.5c-1,0-11.2,0-15.1-0.1c-0.8,0-1.4-0.7-1.4-1.5l0.1-5.2c3.1-0.1,11.4-0.4,13-0.6
			c0.8-0.1,1.7-0.8,1.7-2c0-1-0.3-1.2-1.1-1.2c-8.6-0.1-12-0.1-13.4-0.1l0.2-7c0-0.7,0.8-1.3,1.5-1.4c3.5-0.2,13.2-0.3,14.3-0.4
			c1.4-0.1,2.3-1.7,2.3-3.4c-0.1-1.2-1.2-1.3-2.5-1.3c0,0-14.4,0-16.4,0c-2,0-5.3,1.6-5.3,5.4c0,5.3,0.6,19,0.6,19
			c0,1.1,0.9,3.9,4.1,3.9c3.3,0,17.3-0.3,17.3-0.3c1,0,2-0.2,2-0.9C98.7,50.5,97.8,48.6,96.7,48.5z"/>
		<path class="st0" d="M131.3,52.8c-5.7-3.5-9-6.1-10.8-7.8c3.6-1.2,12.8-5.1,12.8-14.2c0-5.3-2.1-6.7-14.2-6.7
			c-11,0-14.2,0.6-14.2,1.9l0.9,25.6c0,0.6,1,1.2,2.3,1.2s2.3-0.5,2.3-1.2l0.7-22.3c2-0.3,4.8-0.6,7.9-0.6c7.9,0,7.9,2.1,7.9,3.6
			c0,6.3-8.2,9.8-13.2,9.8c-1.2,0-1.4,0.4-1.4,0.9c0,1.1,4.4,5.1,7.9,7.8c2.8,2.2,4.6,3.4,7.3,3.4c3.5,0,4.3-0.2,4.3-0.8
			C131.9,53.1,131.3,52.8,131.3,52.8z"/>
		<path class="st0" d="M234.7,52.8c-5.7-3.5-9-6.1-10.8-7.8c3.6-1.2,12.8-5.1,12.8-14.2c0-5.3-2.1-6.7-14.2-6.7
			c-11,0-14.2,0.6-14.2,1.9l0.9,25.6c0,0.6,1,1.2,2.3,1.2s2.3-0.5,2.3-1.2l0.7-22.3c2-0.3,4.8-0.6,7.9-0.6c7.9,0,7.9,2.1,7.9,3.6
			c0,6.3-8.2,9.8-13.2,9.8c-1.2,0-1.4,0.4-1.4,0.9c0,1.1,4.4,5.1,7.9,7.8c2.8,2.2,4.6,3.4,7.3,3.4c3.5,0,4.3-0.2,4.3-0.8
			C235.3,53.1,234.7,52.8,234.7,52.8z"/>
		<g>
			<path class="st1" d="M107.2,69.1l-1.1,3h-1.6l3.7-10.2h1.7l3.7,10.2H112l-1-3H107.2z M109.1,63.6l-1.4,4.1h2.8L109.1,63.6z"/>
			<path class="st1" d="M119.2,61.9h1.6l5,7.7v-7.7h1.6v10.2h-1.6l-5-7.6v7.6h-1.6V61.9z"/>
			<path class="st1" d="M134,61.9h2.4c3.4,0,5.4,1.9,5.4,5.1c0,3.3-2.1,5.1-5.4,5.1H134V61.9z M136.6,70.7c2.2,0,3.6-1.3,3.6-3.7
				c0-2.3-1.4-3.7-3.6-3.7h-0.9v7.4H136.6z"/>
			<path class="st1" d="M147.5,61.9h5v1.5h-3.4v2.8h3v1.4h-3v3h3.6v1.5h-5.2V61.9z"/>
			<path class="st1" d="M159,61.9h1.6v8.7h3.6v1.5H159V61.9z"/>
			<path class="st1" d="M170.6,69.3c0.3,0.7,0.9,1.4,2,1.4c0.9,0,1.5-0.5,1.5-1.4c0-2.2-4.6-1.7-4.6-5c0-1.6,1.2-2.8,3.1-2.8
				c1.9,0,2.8,1.4,3,2.1l-1.3,0.6c-0.2-0.5-0.7-1.2-1.7-1.2c-0.9,0-1.4,0.6-1.4,1.3c0,2,4.6,1.6,4.6,4.9c0,1.7-1.2,3-3.2,3
				c-2.1,0-3-1.4-3.3-2.3L170.6,69.3z"/>
			<path class="st1" d="M181.6,61.9h1.6v4.7l3.8-4.7h1.8l-4,4.9l4.1,5.3h-1.9l-3.9-5v5h-1.6V61.9z"/>
			<path class="st1" d="M196.2,69.1l-1.1,3h-1.6l3.7-10.2h1.7l3.7,10.2H201l-1-3H196.2z M198.1,63.6l-1.4,4.1h2.8L198.1,63.6z"/>
			<path class="st1" d="M208.6,69.3c0.3,0.7,0.9,1.4,2,1.4c0.9,0,1.5-0.5,1.5-1.4c0-2.2-4.6-1.7-4.6-5c0-1.6,1.2-2.8,3.1-2.8
				c1.9,0,2.8,1.4,3,2.1l-1.3,0.6c-0.2-0.5-0.7-1.2-1.7-1.2c-0.9,0-1.4,0.6-1.4,1.3c0,2,4.6,1.6,4.6,4.9c0,1.7-1.2,3-3.2,3
				c-2.1,0-3-1.4-3.3-2.3L208.6,69.3z"/>
			<path class="st1" d="M220.3,69.3c0.3,0.7,0.9,1.4,2,1.4c0.9,0,1.5-0.5,1.5-1.4c0-2.2-4.6-1.7-4.6-5c0-1.6,1.2-2.8,3.1-2.8
				c1.9,0,2.8,1.4,3,2.1l-1.3,0.6c-0.2-0.5-0.7-1.2-1.7-1.2c-0.9,0-1.4,0.6-1.4,1.3c0,2,4.6,1.6,4.6,4.9c0,1.7-1.2,3-3.2,3
				c-2.1,0-3-1.4-3.3-2.3L220.3,69.3z"/>
			<path class="st1" d="M231.5,61.9h5v1.5h-3.4v2.8h3v1.4h-3v3h3.6v1.5h-5.2V61.9z"/>
		</g>
	</g>
</g>
<g id="GRID" class="st3">
</g>
</svg>
