<?xml version="1.0" encoding="UTF-8"?><svg id="Lag_1" xmlns="http://www.w3.org/2000/svg" viewBox="0 0 1168 677.22"><defs><style>.cls-1{fill:#140a37;}</style></defs><g><path class="cls-1" d="m78.79,250.95v180.91H0V23.35h148.82c42.02,0,68.86,11.67,89.29,30.34,22.18,21.01,36.18,50.77,36.18,83.46s-14.01,62.44-36.18,83.45c-11.09,10.51-24.51,18.67-40.85,23.93l152.9,187.34h-97.46L107.38,250.95h-28.59Zm65.36-70.04c22.76,0,32.68-4.66,39.68-12.25,7.01-7.59,11.67-19.26,11.67-30.93,0-12.26-4.67-23.93-11.67-31.52-7-7.59-16.92-12.84-39.68-12.84h-65.36v87.54h65.36Z"/><path class="cls-1" d="m447.45,0c27.43,0,49.61,21.01,49.61,48.44s-22.18,48.44-49.61,48.44-49.6-21-49.6-48.44S420.03,0,447.45,0Zm37.94,431.86h-75.87V148.82h75.87v283.04Z"/><path class="cls-1" d="m610.84,345.49c19.26,17.51,49.02,28.01,77.62,28.01,20.43,0,36.18-9.92,36.18-23.93,0-42.6-137.14-27.43-137.14-118.46,0-54.27,52.52-88.12,108.55-88.12,36.76,0,77.03,14,95.71,28.59l-35.6,54.86c-14.59-10.5-33.85-19.26-54.27-19.26s-38.52,8.17-38.52,22.76c0,36.76,137.15,22.18,137.15,120.22,0,54.27-53.11,87.54-112.64,87.54-39.1,0-80.54-13.42-113.8-37.94l36.77-54.27Z"/><path class="cls-1" d="m1140.71,386.92c-27.43,32.69-72.36,50.77-116.14,50.77-84.62,0-148.23-58.36-148.23-147.06,0-78.79,53.69-147.65,137.73-147.65,78.2,0,133.64,65.94,133.64,144.73,0,7.59-.58,15.17-1.75,21.6h-196.09c4.09,39.68,36.19,67.11,76.45,67.11,32.1,0,57.78-18.1,71.2-32.69l43.19,43.19Zm-70.61-133.06c-2.34-25.09-25.1-49.6-56.02-49.6s-57.19,23.93-60.69,49.6h116.72Z"/></g><g><path class="cls-1" d="m1150.85,598.93c9.55,0,17.15,7.6,17.15,17.15s-7.6,16.96-17.15,16.96-16.96-7.41-16.96-16.96,7.41-17.15,16.96-17.15Z"/><path class="cls-1" d="m17.15,593.99c7.8,8.58,19.69,15.01,32.16,15.01,11.69,0,19.88-7.21,19.88-17.15,0-17.54-25.34-19.69-43.66-30.4-10.72-6.24-19.29-15.59-19.29-30.99,0-24.36,22.41-38.39,45.02-38.39,13.84,0,26.7,3.31,39.57,12.86l-13.64,19.49c-5.46-5.07-14.62-8.97-23.58-8.97-9.94,0-21.05,4.29-21.05,14.81,0,22.02,62.95,15.2,62.95,61.2,0,24.17-21.63,40.93-46.19,40.93-18.32,0-35.28-7.6-49.31-20.46l17.15-17.93Z"/><path class="cls-1" d="m125.7,535.91h24.36v7.6c7.41-6.04,16.96-9.55,27.68-9.55,25.73,0,46.39,21.44,46.39,49.31,0,12.86-4.48,24.56-11.89,33.13-8.38,9.75-21.83,15.98-35.86,15.98-9.55,0-17.74-2.73-25.34-8.57v53.4h-25.34v-141.3Zm25.34,61.39c4.87,7.02,13.25,11.69,22.8,11.69,14.23,0,24.95-10.91,24.95-25.72,0-13.64-9.55-25.92-24.36-25.92-9.75,0-18.13,4.68-23.39,11.69v28.26Z"/><path class="cls-1" d="m346.16,630.44h-24.36v-7.6c-7.8,6.63-16.76,9.55-26.31,9.55-14.03,0-27.29-6.24-35.67-15.98-7.41-8.57-12.08-20.27-12.08-33.13,0-27.87,20.66-49.31,46.39-49.31,10.72,0,20.27,3.51,27.68,9.55v-7.6h24.36v94.53Zm-25.34-61.39c-5.26-7.01-13.64-11.69-23.39-11.69-14.81,0-24.36,12.28-24.36,25.92,0,14.81,10.72,25.72,24.95,25.72,9.55,0,17.93-4.68,22.8-11.69v-28.26Z"/><path class="cls-1" d="m442.62,558.33c-1.75-.58-5.46-.98-9.16-.98-11.11,0-19.88,7.99-23,13.64v59.45h-25.34v-94.53h24.36v9.55c5.65-7.01,15.98-11.5,27.48-11.5,3.7,0,5.85.39,8.57.78l-2.92,23.59Z"/><path class="cls-1" d="m548.91,615.43c-9.16,10.92-24.17,16.96-38.79,16.96-28.26,0-49.5-19.49-49.5-49.11,0-26.31,17.93-49.31,46-49.31,26.12,0,44.63,22.02,44.63,48.33,0,2.53-.2,5.07-.59,7.21h-65.49c1.36,13.25,12.08,22.41,25.53,22.41,10.72,0,19.29-6.04,23.78-10.92l14.42,14.42Zm-23.58-44.44c-.78-8.38-8.38-16.57-18.71-16.57s-19.1,7.99-20.27,16.57h38.98Z"/><path class="cls-1" d="m629.78,578.4l52.04,52.04h-34.11l-39.95-40.93v40.93h-25.34v-138.38h25.34v74.45l32.55-30.6h35.67l-46.19,42.49Z"/><path class="cls-1" d="m790.45,630.44h-24.36v-7.6c-7.8,6.63-16.76,9.55-26.31,9.55-14.03,0-27.29-6.24-35.67-15.98-7.41-8.57-12.08-20.27-12.08-33.13,0-27.87,20.66-49.31,46.39-49.31,10.72,0,20.27,3.51,27.68,9.55v-7.6h24.36v94.53Zm-25.34-61.39c-5.26-7.01-13.64-11.69-23.39-11.69-14.81,0-24.36,12.28-24.36,25.92,0,14.81,10.72,25.72,24.95,25.72,9.55,0,17.93-4.68,22.8-11.69v-28.26Z"/><path class="cls-1" d="m832.34,601.59c6.43,5.85,16.37,9.36,25.92,9.36,6.82,0,12.08-3.31,12.08-7.99,0-14.23-45.8-9.16-45.8-39.56,0-18.13,17.54-29.43,36.25-29.43,12.28,0,25.73,4.68,31.96,9.55l-11.89,18.32c-4.87-3.51-11.3-6.43-18.13-6.43s-12.86,2.73-12.86,7.6c0,12.28,45.8,7.41,45.8,40.15,0,18.13-17.74,29.23-37.62,29.23-13.06,0-26.9-4.48-38.01-12.67l12.28-18.13Z"/><path class="cls-1" d="m930.76,601.59c6.43,5.85,16.37,9.36,25.92,9.36,6.82,0,12.08-3.31,12.08-7.99,0-14.23-45.8-9.16-45.8-39.56,0-18.13,17.54-29.43,36.25-29.43,12.28,0,25.73,4.68,31.96,9.55l-11.89,18.32c-4.87-3.51-11.3-6.43-18.13-6.43s-12.86,2.73-12.86,7.6c0,12.28,45.8,7.41,45.8,40.15,0,18.13-17.74,29.23-37.62,29.23-13.06,0-26.9-4.48-38.01-12.67l12.28-18.13Z"/><path class="cls-1" d="m1107.71,615.43c-9.16,10.92-24.17,16.96-38.79,16.96-28.26,0-49.5-19.49-49.5-49.11,0-26.31,17.93-49.31,46-49.31,26.12,0,44.63,22.02,44.63,48.33,0,2.53-.2,5.07-.59,7.21h-65.49c1.36,13.25,12.08,22.41,25.53,22.41,10.72,0,19.29-6.04,23.78-10.92l14.42,14.42Zm-23.58-44.44c-.78-8.38-8.38-16.57-18.71-16.57s-19.1,7.99-20.27,16.57h38.98Z"/></g></svg>