<?xml version="1.0" encoding="utf-8"?>
<!-- Generator: Adobe Illustrator 26.2.1, SVG Export Plug-In . SVG Version: 6.00 Build 0)  -->
<svg version="1.1" id="Lager_1" xmlns="http://www.w3.org/2000/svg" xmlns:xlink="http://www.w3.org/1999/xlink" x="0px" y="0px"
	 viewBox="0 0 92.6 28.3" style="enable-background:new 0 0 92.6 28.3;" xml:space="preserve">
<style type="text/css">
	.st0{fill:#070405;}
	.st1{fill:url(#SVGID_1_);}
	.st2{clip-path:url(#SVGID_00000111183231353580686620000009176838712874812859_);}
	.st3{fill:url(#SVGID_00000053522492940232327710000002422722713556011651_);}
	.st4{fill:#FFFFFF;}
</style>
<g>
	<path class="st0" d="M3.7,8.9v4.6H3.6L1,10.8c-1.8-1.9-1.2-5.5,2.2-5.5h5.3c2.3,0,2.3,3.6,0,3.6L3.7,8.9L3.7,8.9z M1.8,19.5h5.5
		c3.1,0,4.3-4.1,2-6.1l-2.3-1.9H6.8v4.4h-5C-0.5,15.9-0.5,19.5,1.8,19.5C1.8,19.5,1.8,19.5,1.8,19.5z"/>
	<path class="st0" d="M15.5,15.9v1.8c0,1.2-0.7,1.8-1.7,1.8s-1.8-0.6-1.8-1.8V8.3c0-1.6,1.4-3,3-3h2.7c0.8,0,1.5,0.3,2.1,0.8l2,2
		c1.3,1.2,1.1,4.2-0.2,5.4L19.9,15c-0.6,0.6-1.4,0.9-2.2,0.9L15.5,15.9L15.5,15.9z M18.9,12.5V8.9h-3.4v3.7H18.9z"/>
	<path class="st0" d="M26.7,5.3h4.8c1.6,0,3,1.3,3,3v8.2c0,1.5-1.4,3-2.9,3h-5c-1.5,0-3-1.5-3-3V8.3C23.7,6.5,25.1,5.3,26.7,5.3
		L26.7,5.3L26.7,5.3z M31,8.8h-3.8v7.1H31V8.8z"/>
	<path class="st0" d="M57.1,5.3c2.3,0,2.3,3.5,0,3.5h-2.4v8.9c0,2.4-3.5,2.4-3.5,0V8.8h-2.4c-2.3,0-2.3-3.5,0-3.5
		C48.6,5.3,57.1,5.3,57.1,5.3z"/>
	<path class="st0" d="M47.4,16.7c-0.4-0.6-1.8-2.7-1.9-3c0.2-0.3,0.4-0.4,0.6-0.6c0.6-0.6,1-1.3,1-2.3V10c0-0.9-0.3-1.6-1-2.2
		l-1.7-1.7c-0.6-0.6-1.3-0.9-2.1-0.9h-4c-1,0-1.8,0.8-1.8,1.8v10.7c0,1,0.8,1.8,1.8,1.8s1.8-0.8,1.8-1.8V8.9h3.5v3
		c0,0-1.3,1.2-1.6,1.6c-0.3,0.3-0.4,0.7-0.1,1.2c0.7,1.1,1.9,3,2.6,4C45.9,20.7,48.7,18.6,47.4,16.7L47.4,16.7L47.4,16.7z"/>
</g>
<linearGradient id="SVGID_1_" gradientUnits="userSpaceOnUse" x1="75.1734" y1="107.8209" x2="84.3934" y2="126.5709" gradientTransform="matrix(1 0 0 1 0 -101.86)">
	<stop  offset="0.2" style="stop-color:#D7164A"/>
	<stop  offset="0.4" style="stop-color:#D10E47"/>
	<stop  offset="0.6" style="stop-color:#C31442"/>
	<stop  offset="0.8" style="stop-color:#AB1738"/>
	<stop  offset="1" style="stop-color:#8B162D"/>
</linearGradient>
<path class="st1" d="M92.6,17.7c0,1.7-0.8,3.4-2.7,4.5l-9.7,5.3c-1.9,1-3.5,1-5.5,0l-9.7-5.3c-2.1-1.3-2.7-2.9-2.7-4.5V3
	c0-1.7,1.4-3,3.2-3h23.9c1.8,0,3.2,1.4,3.2,3L92.6,17.7L92.6,17.7z"/>
<g>
	<defs>
		<path id="SVGID_00000153670537990722413130000016286176823268319897_" d="M92.6,17.7c0,1.7-0.8,3.4-2.7,4.5l-9.7,5.3
			c-1.9,1-3.5,1-5.5,0l-9.7-5.3c-2.1-1.3-2.7-2.9-2.7-4.5V3c0-1.7,1.4-3,3.2-3h23.9c1.8,0,3.2,1.4,3.2,3L92.6,17.7L92.6,17.7z"/>
	</defs>
	<clipPath id="SVGID_00000047028825155374709250000001189480978786372024_">
		<use xlink:href="#SVGID_00000153670537990722413130000016286176823268319897_"  style="overflow:visible;"/>
	</clipPath>
	<g style="clip-path:url(#SVGID_00000047028825155374709250000001189480978786372024_);">
		
			<linearGradient id="SVGID_00000169524365924120135640000000709224283724711867_" gradientUnits="userSpaceOnUse" x1="61.8153" y1="113.685" x2="93.0453" y2="113.685" gradientTransform="matrix(1 0 0 1 0 -101.86)">
			<stop  offset="0.4" style="stop-color:#D7164A"/>
			<stop  offset="1" style="stop-color:#8B162D"/>
		</linearGradient>
		<path style="fill:url(#SVGID_00000169524365924120135640000000709224283724711867_);" d="M93.2,2.8v-3.5H61.7v22.4l4.9,2.9
			C66.6,23.8,75.6,2.8,93.2,2.8L93.2,2.8L93.2,2.8z"/>
	</g>
</g>
<g>
	<path class="st4" d="M88.5,12.4h-1V6.9c0-1-0.7-1.8-1.7-1.8S84,5.9,84,6.9v5.4h-2.7V8h-0.1l-2.3,1.9c-2.4,2-1.1,6.1,1.9,6.1H84v1.8
		c0,1,0.8,1.8,1.8,1.8s1.7-0.6,1.7-1.8v-1.8h1C90.8,15.9,90.8,12.4,88.5,12.4z"/>
	<path class="st4" d="M68.4,8.8c-2.3,0-2.3-3.5,0-3.5h5.3c3.4,0,4,3.6,2.2,5.5l-2.6,2.6h-0.1V8.8L68.4,8.8L68.4,8.8L68.4,8.8z
		 M75.1,15.9h-5v-4.4H70l-2.3,1.9c-2.4,2-1.1,6.1,1.9,6.1h5.4C77.5,19.4,77.5,15.9,75.1,15.9C75.1,15.9,75.1,15.9,75.1,15.9z"/>
</g>
</svg>
