<?xml version="1.0" encoding="utf-8"?>
<!-- Generator: Adobe Illustrator 26.2.1, SVG Export Plug-In . SVG Version: 6.00 Build 0)  -->
<svg version="1.1" id="Lag_1" xmlns="http://www.w3.org/2000/svg" xmlns:xlink="http://www.w3.org/1999/xlink" x="0px" y="0px"
	 viewBox="0 0 250.1 42.4" style="enable-background:new 0 0 250.1 42.4;" xml:space="preserve">
<style type="text/css">
	.st0{fill:#EC6909;}
	.st1{fill:#FFFFFF;}
	.st2{fill:#090C02;}
</style>
<path class="st0" d="M246.7,0c0,0-8.9,0.5-17,2.4c-7.1,1.7-14.3,4.8-14.3,4.8c-1,0.4-1.5,1-1.4,2l2.3,18.1
	c1.9,11.7,17.9,15,18.5,15.1c0.3,0,0.7,0,1,0c0.6-0.2,14.6-5.7,14.3-17.4c0,0-1.2-22.7-1.2-23.2s-0.3-1-0.7-1.3
	c-0.4-0.3-0.9-0.4-1.5-0.3"/>
<path class="st1" d="M244,4.8h-1c-4,0-14.8,0-26,4.9c-0.3,0.1-0.5,0.4-0.4,0.7l1.8,15.5c1.4,9.3,14.2,12.8,15.7,13.1
	c0.2,0,0.3,0,0.5,0c0.1,0,11.2-5.5,11.2-14.2v-0.3c-0.2-6.2-0.6-12.4-0.9-16.5l-0.2-2.6c0-0.4-0.3-0.7-0.7-0.7"/>
<path class="st2" d="M102.5,9.1l-4.4,1.4c-0.4,0.1-0.6,0.5-0.6,0.8l-0.2,4.2v14.3c0,5.6,5.1,5.6,7.6,5.6s5.6-0.9,5.8-0.9
	c0.4-0.1,0.7-0.5,0.7-0.9v-2.8c0-0.3-0.1-0.5-0.3-0.7s-0.5-0.2-0.8-0.2c-1,0.2-3.9,0.8-5,0.8s-1.4,0-1.4-1V19.1h5.3
	c0.4,0,0.8-0.3,0.9-0.8l0.5-2.6c0,0,0-0.1,0-0.2c0-0.2,0-0.4-0.2-0.6c-0.2-0.2-0.4-0.3-0.7-0.3H104V9.9c0-0.3-0.1-0.6-0.4-0.7
	c-0.2-0.2-0.5-0.2-0.8-0.1"/>
<path class="st2" d="M84.6,16.1c0-0.3-0.2-0.8-0.2-0.8c0-0.4-0.5-0.7-0.9-0.7h-3.6c-0.5,0-0.9,0.4-0.9,0.9V34c0,0.5,0.4,0.9,0.9,0.9
	h4.6c0.5,0,0.9-0.4,0.9-0.9V20.9c0.6-0.5,2.1-1.7,3.9-1.7s3.5,0.5,3.5,0.5c0.3,0,0.6,0,0.8-0.1c0.2-0.2,0.4-0.5,0.4-0.8v-3.2
	c0-0.3-0.2-0.7-0.5-0.8c-0.1,0-1.2-0.6-3.7-0.6s-4.2,1-5.2,1.8"/>
<path class="st2" d="M0.2,15.8c0,5,4.8,6.6,6.4,7.1l4,1.4c3,1,3.8,1.7,3.8,3.1s-0.6,3.1-5.2,3.1s-8-1.2-8-1.3c-0.3,0-0.6,0-0.8,0.2
	C0.2,29.6,0,29.8,0,30.1v3.1c0,0.4,0.3,0.8,0.7,0.9c0.2,0,3.8,1.2,8.5,1.2c7.7,0,11.6-2.7,11.6-7.9s-2.3-6-7.1-7.6l-3.9-1.4
	c-2.3-0.8-3.3-1.3-3.3-2.9s0-2.4,5.3-2.4s6.6,1.2,6.6,1.2c0.3,0,0.6,0,0.8-0.1s0.4-0.5,0.4-0.7v-3c0-0.4-0.2-0.7-0.6-0.9
	c-0.1,0-2.8-1.2-7.3-1.2C4.2,8.4,0.1,11,0.1,15.9"/>
<path class="st2" d="M36.9,14.3c-3.3,0-5.7,1.2-7.1,2c-0.1-0.5-0.3-1-0.3-1c-0.1-0.4-0.5-0.7-0.9-0.7H25c-0.5,0-0.9,0.4-0.9,0.9
	v25.1c0,0.5,0.4,0.9,0.9,0.9h4.6c0.5,0,0.9-0.4,0.9-0.9v-6.3c1.2,0.4,3.2,1,5.7,1s11.3-1,11.3-10.6S43.9,14.3,36.9,14.3 M36,30.8
	c-2.3,0-4.5-0.7-5.4-1.1v-9c0.8-0.5,3.1-1.9,5.7-1.9c2.6,0,4.8,0,4.8,5.8S39.5,30.7,36,30.8"/>
<path class="st2" d="M63,14.3c-7.9,0-12.3,3.7-12.3,10.5S54.8,35.3,63,35.3s12.3-1.8,12.3-10.5S70.9,14.3,63,14.3 M63,30.9
	c-2.7,0-5.8-1.1-5.8-6.1s3.1-6.1,5.8-6.1s5.8,0.7,5.8,6.1S66.8,30.9,63,30.9"/>
<path class="st2" d="M114.3,11.4c0,1.8,1.7,3.2,3.9,3.2s3.9-1.4,3.9-3.2s-1.7-3.2-3.9-3.2S114.3,9.6,114.3,11.4"/>
<path class="st2" d="M115.8,17h4.6c0.5,0,0.9,0.4,0.9,0.9v16.2c0,0.5-0.4,0.9-0.9,0.9h-4.6c-0.5,0-0.9-0.4-0.9-0.9V17.9
	C114.9,17.4,115.3,17,115.8,17z"/>
<path class="st2" d="M150,14.6h-8.9c-0.4,0-0.9,0-1.4-0.1c-0.7,0-1.5-0.2-2.6-0.2c-6.9,0-10.9,2.7-10.9,7.3s0.8,3.6,2.3,4.9
	c-1.2,1.2-2.1,3-2.1,4.3c0,2.4,1.5,3.3,2.6,3.8l0,0c1.5,0.6,3.8,0.8,4.3,0.8l6.9,0.2c5.4,0.2,8.4,1.5,8.4,1.6c0.3,0.1,0.6,0.1,0.9,0
	c0.3-0.2,0.4-0.5,0.4-0.8c0-4.9-4.6-5.4-8.9-5.5l-7-0.2c-0.9,0-1.4-0.5-1.4-1.5s0-0.4,0.2-0.7c1.3,0.3,2.8,0.5,4.3,0.5
	c6.8,0,10.9-2.7,10.9-7.4s-0.2-1.7-0.6-2.5c1.2,0,2.6,0,2.6,0c0.3,0,0.5,0,0.7-0.3c0.2-0.2,0.3-0.4,0.3-0.7v-2.7
	c0-0.5-0.4-0.9-0.9-0.9 M137.2,24.7c-1.3,0-4.5-0.3-4.5-3.1s0.8-3.1,4.5-3.1s4.5,1,4.5,3.1S141.2,24.7,137.2,24.7"/>
<path class="st2" d="M165.6,14.3c-5.1,0-9.2,1.3-9.4,1.3c-0.4,0.1-0.6,0.5-0.6,0.9v2.8c0,0.3,0.1,0.6,0.4,0.7
	c0.2,0.2,0.5,0.2,0.8,0.2c0,0,4.6-1.3,8.3-1.3s4.1,0.9,4.1,2v0.7h-4.5c-7,0-11.2,2.6-11.2,7s1.5,6.6,8.7,6.6s5.9-1.2,7.3-2.1
	c0,0.5,0.2,1,0.2,1c0,0.4,0.5,0.8,0.9,0.8h4c0.5,0,0.9-0.4,0.9-0.9V21.5c0-7.3-7.5-7.3-9.9-7.3 M169.1,28.8c-0.9,0.6-3.3,2-5.7,2
	c-3.4,0-3.4-1.4-3.4-2.1c0-1.8,1-2.9,5.7-3c0,0,2.2,0,3.4,0V28.8"/>
<path class="st2" d="M186.2,16.8c-0.3-0.7-0.5-1.5-0.5-1.5c-0.1-0.4-0.5-0.6-0.9-0.6h-3.5c-0.5,0-0.9,0.4-0.9,0.9v18.5
	c0,0.5,0.4,0.9,0.9,0.9h4.6c0.5,0,0.9-0.4,0.9-0.9v-13c1.1-0.6,4.1-2,7.1-2s3.4,0.9,3.4,2.3v12.7c0,0.5,0.4,0.9,0.9,0.9h4.6
	c0.5,0,0.9-0.4,0.9-0.9V21.5c0-3.3-1.5-7.1-8.8-7.1S187.7,16,186.2,16.8"/>
<path class="st0" d="M232.4,8.2c-2.4,1-4,2.5-4.8,4.5c-0.4,1-0.5,2-0.5,2.9c0,1.9,0.6,3.6,0.9,4.3c-1.1,0-2-0.3-2.6-0.9
	c-1.1-1-1.1-2.7-1.1-2.7c0-0.1,0-0.2-0.2-0.3c-0.1,0-0.3,0-0.3,0.1c-1.4,2.8-1.6,6.1-0.6,9c0.9,2.5,2.6,4.4,4.8,5.3
	c5,2.1,6.4,4.7,6.5,4.7c0,0.1,0.2,0.2,0.3,0.1c0.1,0,0.2-0.2,0.2-0.3c0-0.2-0.8-3.8-3.5-5.4c-1-0.6-1.5-1-1.6-2
	c0-0.5,0.2-1.1,0.6-1.4c0.4-0.4,0.9-0.5,1.3-0.5c0.5,0,1,0.2,1.4,0.6c0.1,0.1,0.3,0.3,0.5,0.2c0.1,0,0-0.3,0-0.5s-0.2-0.9,0.4-1.7
	c0.3-0.4,0.7-0.6,1.1-0.7c0.7-0.2,1.3,0,1.7,0.2c0.6,0.4,1,1,1.1,2.1c0,1.7-1.4,4.3-1.4,4.4c0,0.1,0,0.3,0,0.4c0.1,0,0.3,0,0.4,0
	c2.4-2,3.6-4.1,3.5-6.3c0-2.6-1.9-5.2-5.6-7.9c-1.8-1.3-2.8-2.8-3-4.3c-0.2-2,1-3.5,1-3.5s0-0.2,0-0.3s-0.2-0.1-0.3,0"/>
</svg>
