<svg width="51" height="68" viewBox="0 0 51 68" fill="none" xmlns="http://www.w3.org/2000/svg">
<path d="M6.64705 47.5626C6.78447 47.6321 7.14397 47.7337 7.46676 48.2957C7.76828 48.8094 7.74184 49.585 7.5677 49.983C7.40369 50.4076 7.20609 50.6453 7.03186 50.8486C6.67863 51.2412 6.35218 51.4853 6.01401 51.7406C6.01365 51.7409 6.01329 51.7412 6.01292 51.7414C5.91252 51.8162 5.8121 51.8891 5.7112 51.9623C5.51351 52.1058 5.30959 52.252 5.12004 52.3995C4.93563 52.5389 4.74004 52.7236 4.71165 52.7575C4.64688 52.7469 4.46601 53.4837 4.56338 54.3047C4.59078 54.5979 4.63341 54.887 4.68551 55.1566C4.66848 55.0846 4.60038 54.9878 4.57263 54.9723C4.54363 54.9524 4.5653 54.9833 4.6245 55.0188C4.74514 55.0946 4.97635 55.1839 5.21104 55.2602C5.68926 55.4148 6.20392 55.5537 6.64789 55.7152C6.93465 55.8112 7.17688 55.9424 7.372 56.0753C7.60362 56.2394 7.86161 56.4161 8.28224 56.885C8.541 57.1756 8.82851 57.571 9.16361 58.0799C9.17283 58.0941 9.18234 58.1081 9.19218 58.122C9.3017 58.2748 9.45118 58.4235 9.75425 58.5797C10.297 58.8683 11.3528 59.0766 12.5148 59.2266C13.4715 59.3526 14.4868 59.4349 15.4098 59.3916C16.6945 59.3307 17.4754 59.0473 18.1647 58.428C18.1685 58.4249 18.1722 58.422 18.1759 58.419C18.6693 58.123 18.6668 57.0585 18.6866 55.7322C18.6911 55.6185 18.6784 55.5036 18.6448 55.3805C18.4394 54.5758 17.2721 53.625 15.8524 52.9413C15.7778 52.9049 15.7019 52.8685 15.6283 52.8337C15.6049 52.8133 15.4091 52.767 15.1683 52.7379C15.0449 52.7208 14.9062 52.7046 14.7318 52.6699C14.5572 52.6261 14.3399 52.6073 14.0049 52.362C13.6933 52.1247 13.492 51.7204 13.4442 51.4086C13.3893 51.0901 13.4181 50.8353 13.4562 50.608C13.5392 50.1584 13.6791 49.8021 13.8217 49.4518C13.8889 49.2898 13.9588 49.1312 14.03 48.974C14.5175 47.9044 15.0554 46.8849 15.3937 45.7204C15.4397 45.5604 15.4801 45.4025 15.5145 45.2471C15.631 44.7426 15.531 44.3209 15.2491 43.9105C15.0619 43.6311 14.8147 43.435 14.5106 43.3098C14.3582 43.2465 14.1931 43.2007 14.0104 43.1613C13.8161 43.109 13.6649 43.1309 13.2978 42.958C12.9101 42.6925 12.9317 42.4233 12.8927 42.2506C12.8709 42.0667 12.876 41.9088 12.8869 41.7543C12.9028 41.5424 12.9415 41.3364 12.9954 41.1373C13.2382 40.27 13.7175 39.5348 14.2564 38.8074C14.4316 38.5726 14.6296 38.3229 14.8337 38.0654C14.935 37.937 15.0382 37.8062 15.1338 37.6764C15.2243 37.5591 15.3315 37.3762 15.3204 37.3884C15.5277 36.8357 14.7071 35.8447 13.8587 35.1404C13.7336 35.0329 13.6055 34.9268 13.4754 34.8208C13.4747 34.8202 13.4741 34.8197 13.4734 34.8191C13.3277 34.7002 13.179 34.5819 13.0277 34.4575C12.7554 34.217 11.8498 34.3046 11.2044 34.4699C10.52 34.6357 9.88832 34.8661 9.35492 35.0828C9.05633 35.2047 8.78724 35.3241 8.55103 35.4354C7.5981 36.0072 7.31265 36.7411 7.05235 37.1522C6.93964 37.3574 6.84035 37.5521 6.72491 37.7867C6.48042 38.2837 6.17594 38.954 5.898 39.7025L5.92127 39.6256C5.86179 39.8744 5.82278 40.1199 5.80292 40.3869C5.78195 40.6588 5.78466 40.9384 5.80274 41.2327C5.80308 41.238 5.80344 41.2434 5.8038 41.2489C5.8185 41.4822 5.75561 41.6841 5.65219 41.6942C5.54919 41.7038 5.4441 41.5132 5.42878 41.2694C5.40912 40.9576 5.40568 40.6541 5.42838 40.3596C5.44945 40.0735 5.49278 39.8023 5.55589 39.5389L5.54589 39.5719C5.59841 39.4302 5.65136 39.293 5.70497 39.1582C5.63585 39.0912 5.64227 38.8935 5.73153 38.6874C6.02578 38.2704 6.24526 36.4352 8.306 34.9006C8.40006 34.8527 8.49891 34.8037 8.59902 34.7551C8.48353 34.794 8.37956 34.8293 8.28756 34.8603C8.23607 34.878 8.18728 34.8969 8.14079 34.9165C7.98735 34.9813 7.87278 35.0452 7.77839 35.1011C7.58133 35.2212 7.45474 35.313 7.26026 35.5C6.8175 35.9434 6.2756 36.7517 5.82829 37.6519C5.71442 37.8782 5.55206 38.0294 5.45835 37.9848C5.36471 37.9407 5.37741 37.7129 5.49442 37.4803C5.4967 37.4757 5.49899 37.4712 5.50128 37.4666C5.95566 36.5548 6.53032 35.6861 7.03773 35.1903C7.16392 35.0642 7.28397 34.9602 7.37856 34.8855C7.45239 34.8267 7.55316 34.7544 7.61172 34.7201C7.61962 34.7153 7.63477 34.7064 7.65324 34.6965C7.65356 34.6964 7.65388 34.6962 7.6542 34.6961C7.66454 34.6905 7.71708 34.6622 7.77858 34.6411C7.79119 34.6367 7.81877 34.6273 7.85238 34.62C7.86001 34.6164 7.86766 34.6128 7.87531 34.6093C7.95324 34.5734 8.03776 34.5383 8.12595 34.5076C8.15154 34.4993 8.1779 34.4907 8.20517 34.4817C8.61709 34.3556 9.24011 34.1055 10.6041 33.7649C10.9473 33.6851 11.3558 33.5942 11.8406 33.5445C12.3143 33.5173 12.9223 33.423 13.5174 33.861C14.2379 34.478 15.1906 35.1263 15.8458 36.2554C15.7616 36.0809 15.6615 35.9168 15.5532 35.761C15.2799 35.3699 14.9558 35.0256 14.6195 34.7029C14.4904 34.5793 14.3608 34.4607 14.2278 34.3425C14.0134 34.1516 13.7948 33.9678 13.5859 33.7856C13.5847 33.7844 13.5834 33.7833 13.5821 33.7822C13.3824 33.611 13.1489 33.5206 12.9296 33.4686C12.9291 33.4685 12.9285 33.4684 12.928 33.4683C12.6173 33.3968 12.3212 33.3913 12.0299 33.4054C11.9296 33.4104 11.829 33.4187 11.7316 33.429C11.3423 33.4714 10.9728 33.5436 10.5526 33.6384C10.5012 33.6491 10.4456 33.6603 10.4038 33.6685C10.3589 33.6773 10.3157 33.6859 10.2749 33.6938C10.2389 33.7008 10.2045 33.7074 10.1716 33.7139C10.1672 33.7148 10.1628 33.7157 10.1584 33.7166C10.1216 33.7239 10.0865 33.7312 10.0528 33.7384C10.0191 33.7455 9.98677 33.7525 9.95509 33.7599C9.95481 33.76 9.95453 33.7601 9.95425 33.7602C9.92113 33.7679 9.89589 33.774 9.86104 33.783C9.81724 33.7943 9.78001 33.8044 9.73481 33.8175C9.69101 33.8301 9.64565 33.8438 9.60019 33.8581C9.55504 33.8722 9.50808 33.8874 9.46143 33.903C9.41467 33.9185 9.36745 33.9346 9.31942 33.9513C9.27148 33.9681 9.22419 33.9849 9.17542 34.0026C9.12673 34.0202 9.07798 34.0381 9.02958 34.0561C8.91601 34.0984 8.80218 34.1225 8.71045 34.1224C8.61957 34.1219 8.55629 34.0981 8.5383 34.0532C8.5196 34.0086 8.54794 33.946 8.61364 33.881C8.68034 33.8156 8.78131 33.7526 8.89553 33.7055C8.92607 33.6929 8.95698 33.6802 8.98825 33.6675C9.00681 33.66 9.02566 33.6524 9.04448 33.6449C9.09489 33.6247 9.14505 33.6047 9.19674 33.5847C9.24864 33.5646 9.29985 33.5452 9.35279 33.5256C9.40589 33.506 9.45969 33.4865 9.51447 33.4674C9.56917 33.4483 9.62575 33.4292 9.68299 33.4107C9.73892 33.3926 9.80363 33.3728 9.86141 33.3561C9.90372 33.3438 9.95628 33.3296 10.0003 33.3182C10.0462 33.3062 10.0916 33.295 10.1356 33.2845C10.1796 33.2741 10.2224 33.2645 10.2634 33.2554C10.2677 33.2544 10.2721 33.2534 10.2765 33.2524C10.3127 33.2444 10.3477 33.2369 10.3808 33.2297C10.4177 33.2217 10.453 33.214 10.4863 33.2066C10.5231 33.1986 10.5453 33.1934 10.5726 33.1869C10.9325 33.096 11.3852 32.9893 11.8574 32.9378C11.9175 32.9313 11.975 32.9259 12.0363 32.9213C12.3559 32.899 12.6913 32.8937 13.0837 32.9796C13.3431 33.0389 13.6409 33.1458 13.9189 33.3718C13.9293 33.3804 13.9401 33.3891 13.9511 33.398C14.1625 33.5684 14.3954 33.7512 14.6247 33.9425C14.7677 34.0615 14.9073 34.1814 15.0486 34.3088C15.417 34.6426 15.782 35.005 16.1106 35.4584C16.4248 35.9075 16.7698 36.4851 16.7434 37.2797C16.7354 37.4445 16.7074 37.6125 16.6583 37.7756C16.4875 38.2415 16.3607 38.3264 16.2306 38.5144C16.103 38.678 15.9796 38.8236 15.8593 38.9647C15.6354 39.2261 15.4079 39.4788 15.2067 39.7142C15.0987 39.8403 14.9956 39.9642 14.8978 40.0871C14.8974 40.0875 14.8971 40.0879 14.8967 40.0883C14.811 40.1961 14.7292 40.3033 14.652 40.4109C14.4865 40.6414 14.3421 40.8727 14.2275 41.1076C14.1134 41.3415 14.0306 41.5772 13.9947 41.8045C13.9921 41.8208 13.9898 41.837 13.9877 41.8531C13.9743 41.9575 13.9693 42.061 13.9742 42.1286C13.9613 42.2012 14.0558 42.1982 13.8337 42.0264C13.8245 42.0214 13.8205 42.02 13.8206 42.0204C13.9058 42.0626 14.3245 42.1274 14.6633 42.2416C15.1355 42.3909 15.6257 42.6851 15.9703 43.1044C16.0258 43.1705 16.0777 43.2386 16.1273 43.3099C16.3654 43.6457 16.5755 44.0835 16.6357 44.5505C16.6624 44.7437 16.6662 44.9377 16.6524 45.1256C16.6523 45.1263 16.6522 45.127 16.6522 45.1277C16.6439 45.239 16.6296 45.3481 16.6105 45.4548C16.5753 45.6531 16.5334 45.8497 16.4867 46.0437C16.3804 46.4841 16.2491 46.9128 16.1054 47.3327C15.9616 47.7527 15.8043 48.1659 15.6453 48.5724C15.4858 48.9804 15.3205 49.3893 15.1704 49.793C15.0394 50.1472 14.9183 50.5124 14.8749 50.8091C14.8634 50.8879 14.8581 50.9595 14.859 51.0177C14.866 51.1679 14.8819 51.1722 14.8994 51.1937C14.7918 51.1523 15.0699 51.2366 15.292 51.2481C15.5568 51.2807 15.8657 51.2898 16.2551 51.4554C16.4546 51.5441 16.6533 51.6369 16.8514 51.7345C17.2984 51.9551 17.7448 52.2004 18.1816 52.488C18.6194 52.778 19.0417 53.1014 19.4327 53.5162C19.816 53.9266 20.1767 54.4386 20.3464 55.0902C20.4007 55.3002 20.4329 55.5286 20.4353 55.7584C20.4378 55.8736 20.441 55.9881 20.4443 56.1024C20.452 56.3785 20.461 56.6613 20.4606 56.953C20.4603 57.072 20.4584 57.1914 20.4536 57.3142C20.4466 57.4925 20.4336 57.6754 20.4094 57.8626C20.3685 58.1778 20.294 58.5105 20.1557 58.8347C20.0191 59.1588 19.8158 59.4633 19.5841 59.7076C19.5095 59.7867 19.4359 59.8569 19.3613 59.9226C19.2541 60.0212 19.1369 60.132 18.9897 60.2582C18.4445 60.7072 17.9951 60.9067 17.5417 61.0688C17.4478 61.1013 17.3603 61.1297 17.2603 61.1592C16.7082 61.3198 16.164 61.3962 15.6434 61.435C15.1123 61.4733 14.6078 61.4723 14.1004 61.4498C13.5985 61.4272 13.1008 61.3819 12.6091 61.322C12.4895 61.3074 12.3678 61.2916 12.2437 61.2745C11.8801 61.2244 11.5188 61.1692 11.1466 61.1006C10.6537 61.009 10.1425 60.8967 9.62754 60.7229C9.33186 60.6228 9.00682 60.4889 8.70449 60.316C8.48656 60.1918 8.27156 60.0428 8.0753 59.8682C7.99492 59.7968 7.91796 59.7215 7.84523 59.643C7.71823 59.5059 7.60467 59.3589 7.50696 59.209C7.44171 59.1069 7.37843 59.0089 7.3164 58.9154C7.19088 58.7261 7.06987 58.5548 6.94929 58.4052C6.8287 58.2554 6.70838 58.1275 6.58949 58.0267C6.46646 57.9235 6.36596 57.8597 6.24617 57.8106C6.18715 57.787 6.13127 57.771 6.07559 57.7604C6.04213 57.7527 6.00841 57.7451 5.97444 57.7376C5.76527 57.6914 5.54788 57.65 5.31875 57.6068C5.09008 57.5636 4.8545 57.5201 4.60396 57.4647C4.52314 57.4468 4.43625 57.4265 4.35192 57.4051C4.09017 57.3377 3.81493 57.2589 3.50043 57.1083C3.19456 56.9586 2.80967 56.7174 2.52696 56.264C2.41808 56.0885 2.33616 55.8914 2.28705 55.6966C2.24489 55.5481 2.20615 55.3999 2.16994 55.2489C2.06833 54.8255 2.01034 54.4106 1.98384 54.0345C1.95758 53.6538 1.95817 53.2856 1.99773 52.9031C2.00523 52.8316 2.01429 52.759 2.02526 52.685C2.07345 52.3683 2.1498 52.0334 2.31178 51.6727C2.36858 51.5474 2.43819 51.4166 2.52315 51.2875C2.72987 50.9788 2.92275 50.7865 3.10394 50.608C3.35416 50.3665 3.59108 50.1684 3.81094 49.9824C4.03236 49.7958 4.23354 49.628 4.42347 49.4553C4.60831 49.2878 4.78325 49.1071 4.85976 48.9871C4.89564 48.9355 4.89352 48.8937 4.84455 48.9938C4.78855 49.0726 4.75967 49.4589 4.88201 49.666C4.95822 49.8118 5.06044 49.935 5.14899 50.0181C5.46781 50.2935 5.57625 50.2788 5.62755 50.3075C5.67773 50.3238 5.67651 50.323 5.66527 50.3222C5.6389 50.3188 5.56525 50.3068 5.48867 50.292C5.33125 50.2619 5.14735 50.2153 4.97272 50.1548C4.87506 50.1229 4.77603 50.0912 4.67565 50.0593C4.36673 49.9607 4.0394 49.8592 3.69392 49.7374C3.34752 49.6146 2.97741 49.4706 2.59224 49.2698C2.20893 49.0708 1.79211 48.7941 1.44309 48.4546C0.883238 47.9217 0.492912 47.2183 0.284694 46.5649C0.279769 46.5498 0.274876 46.5346 0.27002 46.5194C0.0756757 45.9095 -0.0771114 45.154 0.0416552 44.3343C0.0808315 44.0624 0.150051 43.7898 0.246395 43.5311C0.36849 43.2094 0.501594 42.8414 0.713107 42.4283C0.946865 41.9764 1.31278 41.4116 1.94235 41.0049C2.08452 40.9138 2.22896 40.8295 2.36781 40.7534C2.48877 40.6871 2.60648 40.6262 2.72623 40.5672C3.14439 40.3617 3.56339 40.1894 3.99096 40.0395C3.99392 40.0385 3.99687 40.0375 3.99983 40.0365C4.54955 39.8452 5.10432 39.6931 5.69511 39.5883C5.91157 39.5501 6.12498 39.5201 6.34576 39.4982C6.56798 39.4763 6.79008 39.4634 7.02193 39.4622C7.25256 39.4612 7.49192 39.4723 7.73317 39.5008C7.97896 39.53 8.22391 39.5756 8.48071 39.6493C8.71385 39.7168 8.95428 39.8056 9.2111 39.941C9.23468 39.9535 9.25818 39.9662 9.2816 39.9793C9.50406 40.1028 9.74595 40.275 9.95496 40.4785C9.99213 40.5145 10.0402 40.5624 10.0828 40.6075C10.6778 41.2466 10.9471 41.9093 11.1561 42.519C11.3595 43.1372 11.479 43.7295 11.5678 44.3139C11.6025 44.5448 11.6309 44.769 11.6556 44.9997C11.6932 45.3518 11.7202 45.7018 11.7391 46.0535C11.7442 46.148 11.7487 46.2442 11.7527 46.3421C11.7715 46.8016 11.7851 47.2606 11.7958 47.7202C11.8084 48.2684 11.8165 48.82 11.8212 49.3665C11.826 49.9136 11.8274 50.464 11.8265 51.007C11.8255 51.6123 11.823 52.2114 11.8217 52.8135C11.8207 53.2538 11.8202 53.6945 11.822 54.1274C11.8228 54.2878 11.8239 54.4407 11.8258 54.5998C11.8321 55.1901 11.8508 55.7692 11.8712 56.3772C11.8919 56.986 11.9019 57.6155 11.8955 58.2314C11.8939 58.402 11.8914 58.5651 11.8883 58.7353C11.8845 58.9345 11.8805 59.1279 11.8766 59.325C11.8868 59.5183 11.8966 59.6957 11.906 59.8746C11.9752 61.1733 12.0242 62.1122 12.0602 63.3525C12.0653 63.4729 12.0722 63.5693 12.0806 63.6847C12.0822 63.7071 12.0838 63.7316 12.0855 63.7561C12.0962 63.9114 12.1075 64.0864 12.1152 64.3317C12.1304 64.8179 12.1304 65.5729 12.0449 66.5429C12.0233 66.7876 11.9236 66.9437 11.8222 66.891C11.7511 66.8505 11.6981 66.7237 11.6802 66.5657C11.6688 66.8595 11.6567 67.1495 11.6446 67.4435C11.6397 67.5623 11.6165 67.6654 11.5795 67.7467C11.5425 67.825 11.4948 67.8673 11.4466 67.857C11.3983 67.8492 11.353 67.7984 11.32 67.7114C11.287 67.6262 11.269 67.5041 11.2697 67.3921C11.2714 67.0812 11.273 66.7725 11.2738 66.4625C11.2747 66.1526 11.2747 65.846 11.2742 65.5367C11.2737 65.2265 11.2726 64.9187 11.271 64.6092C11.2694 64.297 11.2674 63.9942 11.265 63.6802C11.2625 63.3722 11.2596 63.062 11.2565 62.7535C11.2546 62.5663 11.2527 62.3796 11.2507 62.1936C11.2499 62.1239 11.249 62.0561 11.2483 61.9899C11.2476 61.9354 11.2471 61.8803 11.2464 61.8232C11.2394 61.2244 11.2315 60.62 11.2231 60.0209C11.217 59.5915 11.2108 59.1703 11.2042 58.7404C11.2015 58.5617 11.198 58.3869 11.1935 58.21C11.1787 57.6023 11.1478 56.9908 11.1067 56.389C11.0658 55.7871 11.0265 55.1966 11 54.6004C10.9932 54.4498 10.987 54.3036 10.9812 54.1514C10.9641 53.7063 10.9497 53.2551 10.9359 52.8066C10.9216 52.3432 10.908 51.8829 10.8941 51.4218C10.8812 51.2404 10.8689 51.0609 10.857 50.8836C10.8222 50.3677 10.7794 49.8512 10.7362 49.342C10.7702 50.2489 10.8082 50.9766 10.8454 51.6693C10.8504 51.7628 10.8554 51.8534 10.8603 51.9464C10.8984 52.6522 10.9326 53.3397 10.962 54.1519C10.9719 54.4198 10.9821 54.7028 10.9935 55.0011C11.0594 56.4738 11.1341 57.7249 11.1239 58.741C11.1244 60.0808 11.12 61.0384 11.1104 61.7562C11.0933 63.0103 11.0597 63.55 10.9908 64.0525C10.8935 64.7664 10.8409 66.135 10.8399 66.8261C10.8396 67.0772 10.7552 67.2793 10.6515 67.2792C10.5478 67.277 10.4641 67.0738 10.4643 66.8226C10.4654 66.0943 10.5185 64.6117 10.6341 63.7643C10.6857 63.3897 10.7183 62.9506 10.7351 61.7182C10.7446 61.0153 10.7489 60.0708 10.7484 58.7438C10.7585 57.7336 10.685 56.5073 10.6179 55.0088C10.6066 54.7108 10.5964 54.4291 10.5865 54.1626C10.5582 53.3864 10.5251 52.7244 10.4877 52.0327C10.4829 51.9417 10.4778 51.8495 10.4729 51.7573C10.4728 51.7567 10.4728 51.7562 10.4728 51.7556C10.4268 50.9017 10.3789 49.9725 10.3383 48.7197C10.3141 47.9878 10.2852 47.1921 10.2436 46.3998C10.1764 44.2337 9.53123 42.0786 8.84022 41.6294C8.79634 41.5899 8.75579 41.5579 8.72025 41.5319C8.58977 41.4369 8.44985 41.3639 8.29423 41.3051C7.69964 41.1024 6.84393 40.9748 5.05654 41.5251C4.66797 41.6501 4.21786 41.8179 3.7473 42.0404C3.46278 42.1976 3.18627 42.3689 2.94934 42.5458C2.68295 42.7498 2.50969 43.0717 2.37237 43.404C2.26633 43.6613 2.18674 43.9336 2.1089 44.209C2.05593 44.4115 2.0423 44.6117 2.05778 44.8099C2.06705 44.929 2.08712 45.0495 2.11592 45.1703C2.17132 45.403 2.25942 45.6374 2.36278 45.8717C2.38807 45.9283 2.41301 45.9799 2.43988 46.0327C2.54481 46.2382 2.67659 46.4259 2.83846 46.5869C3.33793 47.122 4.30247 47.335 5.82645 47.8413C5.87786 47.8587 5.92922 47.873 5.99203 47.8873C6.06724 47.9064 6.09169 47.8999 6.34127 47.9669C6.3948 47.9838 6.46294 48.0033 6.57852 48.0636C6.68587 48.122 6.89136 48.2465 7.03972 48.5221C7.32182 49.003 7.21826 49.6767 7.04913 49.9831C6.88513 50.3187 6.70565 50.5165 6.54281 50.6926C6.21448 51.034 5.91426 51.2654 5.63313 51.4874C5.08787 51.9073 4.5422 52.3259 4.39257 52.5432C4.35167 52.5957 4.2957 52.7183 4.25828 52.8652C4.3013 52.706 4.36015 52.5927 4.39923 52.5477C4.60275 52.2906 5.15265 51.9028 5.54654 51.6163C5.64986 51.5412 5.75117 51.4669 5.84993 51.3927C6.18611 51.137 6.49621 50.8967 6.80491 50.5355C6.95681 50.3501 7.12124 50.133 7.24094 49.7794C7.36944 49.4367 7.3599 48.8607 7.13511 48.4715C6.9125 48.0761 6.64527 47.9778 6.53356 47.9221C6.26476 47.8168 6.22356 47.8295 6.15575 47.8109C6.09782 47.7991 6.06124 47.7917 6.02788 47.784C5.96264 47.7689 5.91415 47.7545 5.86501 47.7368C3.24163 46.8867 3.0827 46.6204 2.64552 45.7943C2.64333 45.7894 2.64115 45.7845 2.63897 45.7795C2.52831 45.5236 2.42913 45.2544 2.38256 44.9837C2.34497 44.764 2.34093 44.5442 2.39513 44.3132C2.53581 43.8012 2.68152 43.2944 2.91667 42.9866C2.97587 42.9085 3.03812 42.8429 3.10756 42.788C3.66858 42.3788 4.42615 41.9887 5.23231 41.6939C5.2327 41.6938 5.23309 41.6937 5.23348 41.6936C5.42341 41.6247 5.61745 41.5614 5.81486 41.5053C6.80329 41.2281 8.01563 41.0801 8.75827 41.714C8.90691 41.843 9.02847 41.9804 9.14024 42.1423C9.21503 42.2504 9.29932 42.3878 9.38458 42.5563C9.77429 43.2997 10.1139 44.6804 10.1727 46.4025C10.192 46.9119 10.2017 47.4507 10.2025 48.0142C10.2032 48.557 10.1887 49.1216 10.171 49.766C10.1656 49.9621 10.1598 50.166 10.1541 50.3788C10.1305 51.2976 10.1023 52.4121 10.1128 53.903C10.1135 53.9904 10.1145 54.0862 10.1156 54.1761C10.119 55.3594 10.2399 56.7506 10.2519 58.1659C10.2541 58.3583 10.2552 58.5516 10.2552 58.7474C10.2554 59.3223 10.255 59.9004 10.2535 60.4718C10.2474 62.786 10.224 64.9108 10.1948 67.0263C10.1948 67.0267 10.1948 67.0271 10.1948 67.0276C10.1913 67.2754 10.1043 67.478 10.0006 67.4657C9.89706 67.4602 9.81596 67.2464 9.81939 66.9978C9.84847 64.8782 9.87196 62.7632 9.87802 60.4569C9.87947 59.8942 9.87984 59.3217 9.87969 58.7502C9.87964 58.5569 9.87866 58.3661 9.87648 58.1764C9.86554 56.787 9.74404 55.3839 9.74003 54.1868C9.73872 54.0837 9.73755 53.9767 9.73676 53.8763C9.72646 52.357 9.75528 51.2224 9.77912 50.2909C9.78506 50.0667 9.79095 49.8562 9.79641 49.6559C9.81382 49.0194 9.82742 48.4893 9.82668 47.9765C9.82578 47.4298 9.81628 46.9079 9.7976 46.4168C9.74137 44.7788 9.42595 43.483 9.07988 42.7909C9.00222 42.6302 8.92621 42.5004 8.85873 42.3984C8.74933 42.2336 8.64219 42.1105 8.49556 41.9852C7.9836 41.5369 6.93005 41.588 6.00935 41.8444C5.8239 41.8945 5.6392 41.9523 5.45755 42.0158C5.45719 42.0159 5.45683 42.0161 5.45647 42.0163C4.64814 42.3005 3.85821 42.7043 3.31452 43.1047C3.28545 43.131 3.25746 43.1614 3.22718 43.2002C3.05345 43.4097 2.8953 43.9118 2.75462 44.4441C2.72946 44.5756 2.72884 44.6981 2.74396 44.8272C2.76981 45.0456 2.84563 45.2892 2.9598 45.5639C2.97284 45.5953 2.98635 45.627 3.00031 45.659C3.42088 46.3893 3.37348 46.5164 5.99497 47.3847C6.02868 47.3966 6.06021 47.4062 6.1121 47.4181C6.13912 47.4244 6.16976 47.4307 6.22744 47.4424C6.29669 47.4615 6.33618 47.4475 6.64705 47.5626ZM11.6972 66.1118C11.7427 65.5055 11.7509 65.019 11.7463 64.6516C11.7368 64.9642 11.7267 65.2691 11.716 65.5825C11.71 65.7586 11.7037 65.9345 11.6972 66.1118ZM3.52119 41.7324C3.60563 41.6852 3.69464 41.6374 3.78192 41.592C3.53259 41.7056 3.28734 41.829 3.04984 41.9652C2.93454 42.0314 2.81714 42.1031 2.70776 42.1762C2.53589 42.2905 2.389 42.4381 2.26669 42.6008C2.39259 42.4371 2.54186 42.292 2.71144 42.1818C2.97733 42.0089 3.25548 41.861 3.52119 41.7324ZM6.24215 48.3293C5.89671 48.2435 5.84915 48.2472 5.69635 48.1939C4.32371 47.727 3.31729 47.5387 2.6779 46.9594C2.46695 46.774 2.29338 46.5544 2.15478 46.306C2.09891 46.2059 2.0475 46.1029 1.99896 45.993C1.99756 45.9898 1.99616 45.9867 1.99477 45.9835C1.99583 45.9868 1.9969 45.9901 1.99797 45.9934C2.20895 46.6707 2.62212 47.1582 3.05837 47.4534C4.02785 48.0783 4.91312 48.2704 5.5627 48.556C5.66665 48.5984 5.76878 48.6301 5.87552 48.6569C5.92925 48.6707 5.98294 48.6825 6.04642 48.6988C6.10838 48.7308 6.18971 48.6828 6.34279 48.8916C6.353 48.9119 6.36226 48.9325 6.37055 48.9533C6.51203 49.3014 6.34751 49.6352 6.19217 49.8447C6.07326 50.0379 5.92422 50.2086 5.76959 50.3679C5.55304 50.5902 5.30506 50.8066 5.07147 51.0069C4.83707 51.2078 4.59895 51.4064 4.38122 51.6056C4.17528 51.7948 3.97718 51.9925 3.85634 52.183C3.85001 52.1931 3.84377 52.2035 3.83761 52.214C3.727 52.404 3.66027 52.6474 3.62315 52.8924C3.62103 52.9064 3.61898 52.9205 3.617 52.9347C3.58098 53.1962 3.57504 53.4629 3.58534 53.7088C3.59627 53.9592 3.62169 54.1689 3.65446 54.3532C3.69559 54.5834 3.74683 54.8185 3.80563 55.0476C3.83059 55.1448 3.8571 55.2418 3.88485 55.3369C3.90865 55.4019 3.94067 55.4463 3.99115 55.4943C4.07753 55.5771 4.23637 55.6612 4.4274 55.7274C4.48956 55.7493 4.55692 55.7703 4.62368 55.7893C4.65475 55.7982 4.68515 55.8064 4.71693 55.8147C4.2975 55.6891 3.97497 55.4775 3.96999 55.3257C3.96941 55.3232 3.96885 55.3207 3.9683 55.3181C3.82562 54.6458 3.73601 53.8782 3.82704 53.1263C3.86579 52.821 3.95242 52.5119 4.08083 52.3338C4.30923 52.0155 4.84994 51.6211 5.39067 51.2004C5.6669 50.9829 5.95935 50.7562 6.26123 50.4438C6.41007 50.2848 6.56956 50.1062 6.70514 49.8319C6.84387 49.5785 6.92497 49.0711 6.70791 48.698C6.48577 48.3489 6.31053 48.3675 6.24215 48.3293ZM10.7309 59.337C10.5392 59.2935 10.2568 59.2303 9.92508 59.1148C9.84639 59.087 9.76655 59.0567 9.68488 59.0219C9.68675 59.0228 9.68871 59.0237 9.69059 59.0246C9.88825 59.1212 10.0887 59.1974 10.3129 59.2689C10.7144 59.3957 11.1316 59.4885 11.5585 59.5694C11.8524 59.6248 12.1503 59.6736 12.4497 59.7185C12.5898 59.7395 12.7264 59.7587 12.8599 59.7764C13.2973 59.834 13.7342 59.8781 14.166 59.9037C14.6019 59.9292 15.0305 59.9364 15.4551 59.9154C15.5945 59.9084 15.7268 59.8988 15.862 59.8855C15.561 59.9036 15.2444 59.9085 14.9069 59.8997C14.6429 59.8928 14.3547 59.8768 14.0623 59.8513C13.9435 59.8412 13.8155 59.8278 13.6503 59.8088C13.3424 59.773 12.9414 59.719 12.4595 59.6444C11.9585 59.5656 11.3682 59.4767 10.7309 59.337ZM18.6369 58.5595C18.6823 58.5023 18.7224 58.4429 18.7579 58.3809C18.859 58.2051 18.9248 58.0027 18.967 57.7772C18.9967 57.6189 19.0148 57.4512 19.026 57.2785C19.0307 57.2058 19.0341 57.1319 19.0367 57.0574C19.0409 56.9332 19.0426 56.8071 19.0431 56.6796C19.0244 57.5833 18.9331 58.3197 18.4114 58.7113C18.4074 58.7145 18.4034 58.7178 18.3994 58.7211C18.3951 58.7245 18.3908 58.7279 18.3866 58.7313C18.3912 58.7284 18.3959 58.7254 18.4005 58.7225C18.4876 58.6732 18.566 58.6192 18.6369 58.5595Z" fill="black"/>
<path d="M27.7953 24.5476C27.9427 24.6215 28.3301 24.7112 28.6862 25.324C29.0385 25.9306 29.0129 26.818 28.8025 27.3145C28.603 27.8385 28.3431 28.1655 28.0992 28.452C27.6048 29.0109 27.1038 29.4031 26.5692 29.8174C26.5686 29.8178 26.568 29.8183 26.5675 29.8188C26.408 29.9411 26.2466 30.0623 26.0825 30.1853C25.4664 30.6507 24.6264 31.2533 24.2603 31.7384C23.9466 32.1182 23.7411 33.4212 23.9019 34.8788C23.954 35.4006 24.0339 35.9092 24.1326 36.3871C24.1398 36.4252 24.1296 36.4261 24.1776 36.4863C24.2241 36.5425 24.3356 36.6299 24.4858 36.7115C24.7901 36.8786 25.2089 37.0217 25.6211 37.1458C26.455 37.3926 27.2887 37.5963 27.9986 37.8337C28.4003 37.9618 28.7435 38.1392 29.0258 38.3229C29.3648 38.5533 29.7399 38.7981 30.3865 39.5099C30.7864 39.9537 31.2417 40.5718 31.7976 41.408C31.8171 41.4372 31.8372 41.4663 31.858 41.4951C32.0998 41.8301 32.4524 42.1554 33.0309 42.4458C34.0739 42.982 35.8566 43.3151 37.7967 43.5694C39.3985 43.7803 41.1032 43.9226 42.6882 43.8506C44.856 43.773 46.4635 43.1848 47.6175 42.1183C47.6258 42.1117 47.634 42.105 47.6421 42.0984C48.8015 41.2619 48.6536 39.2801 48.7022 37.1613C48.709 36.9076 48.676 36.6513 48.6015 36.3913C48.105 34.7107 46.0546 33.1763 43.6475 32.0042C43.5206 31.9427 43.3915 31.8815 43.2661 31.8231C43.0898 31.7347 42.726 31.6727 42.3217 31.6259C41.8973 31.5391 41.4839 31.6515 40.6827 31.1365C39.8112 30.4433 39.8547 29.3754 39.9572 28.7535C40.0709 28.0769 40.2788 27.5013 40.4957 26.9327C40.5977 26.6692 40.7049 26.4089 40.8146 26.1496C41.5664 24.3816 42.4168 22.6595 42.9566 20.6919C43.0301 20.4208 43.0948 20.1529 43.1498 19.8887C43.3509 18.9848 43.1439 18.1613 42.6445 17.4494C42.305 16.944 41.8414 16.5755 41.2945 16.3491C40.7201 16.0861 40.2204 16.134 39.3292 15.7764C38.8653 15.4636 38.8682 15.0987 38.8187 14.8426C38.7875 14.5727 38.7958 14.3277 38.8142 14.0866C38.8404 13.7607 38.9018 13.4415 38.9877 13.1305C39.3744 11.7725 40.1501 10.5868 41.034 9.40382C41.5649 8.66535 42.4884 7.67555 42.8557 6.94415C43.2352 5.67014 41.7333 4.05591 40.3326 2.86158C40.1228 2.68145 39.9088 2.50419 39.6924 2.32795C39.6913 2.32705 39.6902 2.32615 39.6891 2.32525C39.4463 2.12731 39.1991 1.93077 38.9526 1.72817C37.1315 0.801656 34.204 2.09212 32.5324 2.70554C32.0336 2.90792 31.5842 3.1058 31.1886 3.29019C29.4186 4.34677 28.9898 5.55466 28.5216 6.24876C28.3255 6.59261 28.153 6.91792 27.9547 7.31066C27.5347 8.14288 27.0231 9.2632 26.5571 10.5185L26.5804 10.4417C26.4776 10.871 26.4088 11.3062 26.3752 11.7675C26.3393 12.2401 26.345 12.7248 26.3764 13.2238C26.3769 13.2329 26.3775 13.242 26.3782 13.2513C26.4037 13.6474 26.3553 13.9801 26.2516 13.9897C26.1487 13.9982 26.029 13.6757 26.0029 13.269C25.9695 12.7482 25.9629 12.2369 26.0006 11.7403C26.0355 11.2588 26.1088 10.798 26.215 10.3551L26.205 10.388C26.2921 10.1527 26.3801 9.92504 26.4692 9.70139C26.409 9.61193 26.4606 9.30107 26.6078 8.95973C27.0892 8.27208 27.5101 5.23095 30.9434 2.75543C31.0993 2.67918 31.263 2.60108 31.4288 2.52374C31.2417 2.59404 31.0735 2.65829 30.925 2.71531C30.8422 2.74732 30.7639 2.78126 30.6895 2.81627C30.4458 2.93139 30.2655 3.04292 30.1174 3.14002C29.8082 3.34846 29.611 3.50527 29.3011 3.81503C28.589 4.54204 27.7038 5.86596 26.9713 7.34603C26.7848 7.71819 26.5674 7.98967 26.474 7.94426C26.3806 7.89963 26.4489 7.55043 26.6386 7.172C26.6423 7.16456 26.6461 7.15711 26.6498 7.14967C27.387 5.66406 28.3148 4.26195 29.1082 3.47377C29.3058 3.27287 29.4918 3.10803 29.6376 2.98957C29.7514 2.89625 29.9061 2.78203 29.9944 2.72626C30.0063 2.71859 30.0292 2.7041 30.0569 2.68767C30.0574 2.68741 30.0578 2.68715 30.0583 2.6869C30.0738 2.67764 30.1527 2.6309 30.2427 2.5915C30.2612 2.5833 30.3016 2.56576 30.3502 2.54936C30.3617 2.54341 30.3732 2.53751 30.3847 2.53167C30.5025 2.47203 30.6302 2.41394 30.7633 2.36265C30.8038 2.34745 30.8455 2.33176 30.8887 2.31551C31.5498 2.0827 32.5582 1.63765 34.7793 1.04225C35.8716 0.872165 37.5235 0.0418411 39.4425 1.13182C40.6401 2.14636 42.2068 3.21851 43.2603 5.04009C43.1212 4.76211 42.9562 4.4997 42.7775 4.25014C42.3266 3.62332 41.7912 3.06866 41.2346 2.54779C41.0208 2.34831 40.8062 2.15676 40.5856 1.9655C40.2296 1.65638 39.8674 1.35929 39.5153 1.05993C39.5126 1.05762 39.51 1.05532 39.5073 1.05302C39.2129 0.803783 38.8612 0.668411 38.5221 0.591197C38.5214 0.591033 38.5206 0.590868 38.5198 0.590704C38.0385 0.484093 37.5682 0.478816 37.102 0.506803C36.9417 0.516666 36.7802 0.531867 36.6236 0.550395C35.9976 0.625938 35.3987 0.750122 34.7185 0.918439C34.6354 0.938091 34.5457 0.959218 34.4784 0.975024C34.406 0.992058 34.3365 1.00861 34.2708 1.0242C34.2129 1.03797 34.1576 1.05109 34.1046 1.06396C34.0975 1.06569 34.0904 1.06742 34.0834 1.06916C34.0242 1.08361 33.9676 1.09781 33.9133 1.11167C33.8592 1.1255 33.8071 1.139 33.7561 1.15282C33.7556 1.15298 33.7552 1.15313 33.7547 1.15328C33.7013 1.16782 33.6606 1.17904 33.6043 1.19535C33.5336 1.2159 33.4734 1.2339 33.4002 1.25675C33.3292 1.27888 33.2557 1.30255 33.1819 1.32694C33.1086 1.35116 33.0323 1.37707 32.9565 1.40333C32.8806 1.42966 32.8038 1.45676 32.7256 1.4849C32.6476 1.513 32.5707 1.54123 32.4913 1.57077C32.412 1.60024 32.3326 1.63014 32.2538 1.66023C32.0689 1.73086 31.8878 1.78248 31.7467 1.80291C31.6068 1.82281 31.5152 1.81108 31.4978 1.76595C31.4792 1.72136 31.5365 1.64638 31.6516 1.56085C31.7682 1.47469 31.9367 1.38398 32.1222 1.3086C32.1719 1.28843 32.2221 1.2681 32.2729 1.2478C32.303 1.23574 32.3336 1.22364 32.3642 1.21156C32.4461 1.17915 32.5275 1.14724 32.6113 1.1151C32.6954 1.08284 32.7785 1.05163 32.8642 1.02001C32.9501 0.988303 33.0372 0.956808 33.1257 0.925694C33.2141 0.894618 33.3054 0.863368 33.3977 0.832884C33.4878 0.803031 33.5919 0.769878 33.6847 0.741668C33.7527 0.720904 33.8369 0.696389 33.9074 0.676456C33.981 0.655657 34.0536 0.635862 34.1238 0.617307C34.1942 0.598712 34.2624 0.581326 34.3278 0.564932C34.3348 0.563166 34.3418 0.561405 34.3488 0.559646C34.4066 0.545225 34.4625 0.531574 34.5152 0.518739C34.5741 0.504442 34.6305 0.490719 34.6837 0.477812C34.7424 0.46363 34.7779 0.45477 34.8215 0.443909C35.3975 0.294269 36.1212 0.125323 36.8562 0.0460835C36.9498 0.0360294 37.0389 0.0278519 37.1335 0.0208045C37.6264 -0.0136805 38.1361 -0.0175051 38.6985 0.107072C39.0698 0.192329 39.4772 0.34348 39.8442 0.642881C39.8625 0.657801 39.8812 0.673047 39.9004 0.688603C40.2558 0.976309 40.6343 1.27445 41.0062 1.58534C41.2378 1.77866 41.463 1.9725 41.6897 2.1771C42.2804 2.71287 42.8591 3.29069 43.3653 3.98889C43.8534 4.6801 44.3483 5.54362 44.3097 6.64574C44.299 6.87413 44.2609 7.1055 44.1937 7.33101C43.7776 8.32412 43.3773 8.59806 42.9862 9.11712C42.6233 9.55232 42.2528 9.9839 41.9251 10.3891C41.7491 10.6062 41.581 10.8205 41.4212 11.034C41.4206 11.0347 41.4201 11.0354 41.4195 11.0361C41.2794 11.2233 41.1455 11.4102 41.0188 11.5982C40.7473 12.0011 40.5083 12.4076 40.3169 12.8262C40.1265 13.2433 39.9855 13.6697 39.9264 14.095C39.9222 14.1252 39.9184 14.1553 39.9151 14.1853C39.8942 14.3752 39.886 14.5657 39.9001 14.7195C39.8976 14.8757 40.0112 14.9699 39.8655 14.8449C39.8661 14.8456 39.8737 14.8499 39.8845 14.8548C40.1587 14.9656 40.7758 15.0471 41.31 15.2293C42.04 15.4619 42.7686 15.9045 43.2875 16.539C43.3706 16.6387 43.4484 16.7413 43.5229 16.8491C43.8922 17.3749 44.2014 18.0311 44.2894 18.7304C44.3282 19.0198 44.3332 19.3113 44.3112 19.5962C44.3111 19.5973 44.311 19.5983 44.3109 19.5994C44.2978 19.7675 44.2755 19.9333 44.2458 20.0962C44.1878 20.415 44.119 20.7319 44.0421 21.0454C43.8676 21.7559 43.6517 22.4514 43.4151 23.1358C43.1783 23.8203 42.9189 24.4972 42.6562 25.1671C42.3928 25.8399 42.1192 26.5178 41.8707 27.1984C41.6541 27.797 41.4503 28.4162 41.3742 28.9678C41.3544 29.1152 41.3451 29.2549 41.3489 29.3801C41.3609 29.6888 41.4335 29.8535 41.5777 29.9685C41.6043 30.0184 42.0498 30.1032 42.4254 30.134C42.8609 30.185 43.3449 30.2087 43.8933 30.4449C44.2167 30.5901 44.5386 30.7424 44.8587 30.9028C45.5811 31.2653 46.2995 31.6693 46.9955 32.1388C47.693 32.6117 48.3587 33.1368 48.9612 33.7924C49.553 34.4411 50.0886 35.2325 50.329 36.2007C50.4062 36.5127 50.4502 36.8494 50.4509 37.1874C50.4523 37.3804 50.4549 37.5715 50.4578 37.7615C50.4646 38.2195 50.4741 38.6839 50.4687 39.154C50.4664 39.3459 50.4615 39.5368 50.4522 39.7316C50.4387 40.0142 50.4158 40.3003 50.3761 40.5882C50.3093 41.0736 50.1922 41.5702 49.9861 42.0429C49.7821 42.5155 49.4857 42.9507 49.1445 43.3023C49.0346 43.4163 48.9257 43.5176 48.8147 43.6125C48.6297 43.7735 48.4393 43.9445 48.2062 44.1343C47.3539 44.809 46.6823 45.0987 45.9814 45.3426C45.8366 45.3914 45.7015 45.4336 45.5467 45.4777C44.6914 45.7181 43.8339 45.8333 43.0056 45.8898C42.1607 45.9458 41.3507 45.9409 40.5321 45.9024C39.7223 45.8637 38.9154 45.7898 38.1158 45.6931C37.9226 45.6697 37.7259 45.6444 37.5254 45.6172C36.9291 45.5362 36.3389 45.4478 35.7349 45.3391C34.9374 45.1944 34.1178 45.0179 33.3133 44.7514C32.8517 44.5982 32.3518 44.395 31.8984 44.1391C31.5707 43.9549 31.2535 43.737 30.9659 43.4837C30.8482 43.3801 30.7358 43.2712 30.6297 43.1576C30.4465 42.9616 30.2827 42.7519 30.1405 42.5365C30.0289 42.3664 29.92 42.2015 29.8124 42.0428C29.5972 41.7253 29.3866 41.4316 29.1721 41.1674C28.9574 40.9029 28.7387 40.6676 28.5111 40.4705C28.275 40.2682 28.0725 40.1299 27.8096 40.0098C27.6815 39.9525 27.5544 39.9092 27.426 39.8783C27.3664 39.8632 27.3064 39.8485 27.2462 39.834C26.8896 39.7484 26.5248 39.6721 26.147 39.5941C25.7701 39.516 25.3877 39.4384 24.9908 39.3438C24.863 39.3133 24.7266 39.279 24.5955 39.2436C24.1895 39.1325 23.7721 39.0035 23.3258 38.782C22.8889 38.5616 22.381 38.2238 22.0281 37.6395C21.8945 37.4178 21.795 37.1723 21.7346 36.9266C21.6722 36.6885 21.6154 36.4504 21.563 36.208C21.4181 35.5377 21.3344 34.8838 21.2981 34.2977C21.262 33.7047 21.2666 33.1371 21.329 32.5622C21.3408 32.4545 21.3548 32.3464 21.3717 32.2363C21.445 31.7661 21.5609 31.2801 21.7879 30.7821C21.8657 30.6127 21.9597 30.4382 22.0714 30.2693C22.3538 29.8487 22.6415 29.5597 22.9204 29.2897C23.303 28.9253 23.6837 28.6117 24.045 28.3136C24.4093 28.0137 24.7489 27.7391 25.0831 27.4467C25.4105 27.1597 25.7294 26.8557 25.9378 26.5778C26.0358 26.4503 26.0922 26.3247 26.0784 26.3283C26.0585 26.3125 26.032 26.5818 26.1012 26.6934C26.1904 26.864 26.3109 26.9956 26.4087 27.0782C26.6912 27.2986 26.763 27.2801 26.7927 27.2995C26.8194 27.3085 26.7986 27.3035 26.7683 27.2985C26.7041 27.2871 26.5945 27.2681 26.4826 27.2452C26.2543 27.1991 26.0011 27.1326 25.7586 27.0469C25.5905 26.989 25.421 26.9321 25.2505 26.8753C24.7335 26.703 24.1969 26.531 23.6467 26.3331C23.0952 26.134 22.522 25.9069 21.9453 25.604C21.3707 25.3037 20.7675 24.8988 20.2692 24.4127C19.4745 23.6524 18.9202 22.6606 18.6103 21.6985C18.6015 21.6718 18.5928 21.6449 18.5842 21.618C18.2867 20.6895 18.0736 19.5926 18.2418 18.4391C18.2966 18.0598 18.3923 17.6816 18.5256 17.3209C18.725 16.7872 18.935 16.2058 19.2494 15.5901C19.5938 14.9201 20.1063 14.1478 20.9415 13.6071C21.1574 13.4678 21.3812 13.3361 21.5973 13.2167C21.7838 13.1138 21.9661 13.0188 22.152 12.9264C22.8031 12.6037 23.4622 12.3296 24.1344 12.0914C24.1391 12.0898 24.1437 12.0882 24.1484 12.0866C25.0124 11.7826 25.8844 11.5411 26.8015 11.3763C27.1376 11.3164 27.4674 11.2695 27.806 11.2355C28.1472 11.2015 28.4855 11.1818 28.8357 11.1801C29.1833 11.1786 29.5421 11.196 29.8973 11.2388C30.2601 11.2827 30.616 11.3505 30.9839 11.4578C31.3179 11.5561 31.6567 11.6841 32.0136 11.8751C32.0463 11.8926 32.0789 11.9106 32.1113 11.929C32.4145 12.0999 32.7395 12.3335 33.021 12.6077C33.0815 12.6662 33.1545 12.7393 33.2191 12.808C34.052 13.7049 34.4619 14.6849 34.7796 15.6229C35.0899 16.5697 35.2787 17.5054 35.4172 18.4326C35.4714 18.799 35.516 19.1569 35.5548 19.5266C35.6137 20.0899 35.656 20.6522 35.6855 21.2191C35.6932 21.3677 35.7002 21.5189 35.7063 21.6729C35.7364 22.4294 35.7586 23.1884 35.7768 23.9486C35.7984 24.8516 35.8139 25.7605 35.8254 26.6622C35.837 27.5645 35.8447 28.4732 35.85 29.3697C35.8559 30.3693 35.8603 31.3596 35.8669 32.3552C35.8718 33.0814 35.8776 33.8083 35.8875 34.5247C35.8914 34.7942 35.8957 35.0509 35.9016 35.3186C35.9217 36.3015 35.9631 37.2712 36.0065 38.2705C36.0503 39.2707 36.0759 40.2912 36.0755 41.2992C36.0758 41.5769 36.0745 41.8419 36.0721 42.1192C36.0693 42.4497 36.0662 42.7706 36.0632 43.0978C36.0742 43.4169 36.0849 43.7097 36.0951 44.0054C36.1699 46.1501 36.2224 47.7003 36.2622 49.7484C36.2677 49.9471 36.2749 50.1063 36.2836 50.2968C36.2852 50.3341 36.2869 50.3743 36.2887 50.4148C36.2999 50.6712 36.3116 50.9603 36.3199 51.3651C36.3364 52.168 36.3383 53.4143 36.2543 55.0156C36.233 55.4194 36.1335 55.677 36.0321 55.5899C35.9609 55.523 35.9077 55.3136 35.8896 55.0526C35.8786 55.5377 35.8669 56.0166 35.8549 56.5018C35.8502 56.698 35.827 56.868 35.79 57.0022C35.753 57.1314 35.7054 57.2011 35.6571 57.1841C35.6089 57.1713 35.5636 57.0874 35.5305 56.9438C35.4975 56.8032 35.4795 56.6016 35.48 56.4167C35.4815 55.9033 35.4827 55.3937 35.4831 54.8816C35.4834 54.37 35.4829 53.8636 35.4818 53.3529C35.4807 52.8406 35.4788 52.3324 35.4765 51.8212C35.4741 51.3056 35.4713 50.8057 35.4679 50.2871C35.4646 49.7785 35.4607 49.2663 35.4566 48.7567C35.4541 48.4477 35.4516 48.1391 35.4489 47.8321C35.4479 47.7171 35.4468 47.6049 35.4458 47.4956C35.4449 47.4056 35.4442 47.3146 35.4433 47.2204C35.4341 46.2314 35.4238 45.2334 35.4127 44.244C35.4048 43.5331 35.3966 42.8359 35.388 42.1243C35.3844 41.8317 35.3796 41.546 35.3732 41.2564C35.3521 40.2565 35.305 39.2541 35.2408 38.2614C35.1768 37.2683 35.1152 36.288 35.0751 35.3C35.0646 35.0477 35.0553 34.8033 35.0465 34.5487C35.0213 33.8144 35.0005 33.0712 34.9808 32.3321C34.9604 31.5664 34.9414 30.8058 34.9222 30.0441C34.9072 29.7443 34.8928 29.4478 34.8789 29.1549C34.8382 28.3025 34.7894 27.4492 34.7398 26.6081C34.7852 28.1057 34.8311 29.3079 34.8764 30.4523C34.8824 30.6067 34.8885 30.7567 34.8945 30.9102C34.9411 32.0744 34.9832 33.2084 35.0273 34.5492C35.0423 34.9952 35.059 35.4662 35.0789 35.9633C35.1936 38.4062 35.3198 40.4503 35.3077 42.1249C35.3146 44.3401 35.314 45.9229 35.307 47.1092C35.2944 49.1803 35.2623 50.0714 35.1948 50.9011C35.0996 52.0798 35.0498 54.3402 35.0496 55.4815C35.0497 55.8963 34.9654 56.2299 34.8618 56.2297C34.7581 56.226 34.6741 55.8902 34.6741 55.4753C34.6743 54.2723 34.7243 51.8234 34.8373 50.4241C34.8877 49.8057 34.9193 49.0803 34.9316 47.0451C34.9385 45.8833 34.939 44.3219 34.9322 42.1277C34.9441 40.4604 34.819 38.4399 34.7031 35.9654C34.6834 35.4704 34.6668 35.0025 34.6518 34.5599C34.6094 33.2807 34.5686 32.1889 34.5229 31.0483C34.5169 30.898 34.5108 30.7456 34.5047 30.5933C34.5047 30.5924 34.5047 30.5914 34.5047 30.5905C34.4485 29.1797 34.3912 27.6448 34.3337 25.5753C34.2992 24.3627 34.2584 23.044 34.1972 21.7305C34.1054 18.1404 33.0686 14.5503 31.9056 13.7583C31.8346 13.6924 31.7689 13.6382 31.711 13.5938C31.4893 13.4241 31.2505 13.2914 30.9855 13.1837C29.9717 12.807 28.5127 12.5685 25.5171 13.4716C24.8655 13.6767 24.1121 13.9551 23.3231 14.3267C22.8371 14.5786 22.3637 14.8551 21.9493 15.148C21.4366 15.5131 21.1144 16.0857 20.8687 16.6476C20.6767 17.089 20.5313 17.5451 20.3888 17.9985C20.278 18.3596 20.2337 18.7232 20.2421 19.083C20.247 19.3009 20.2712 19.521 20.3112 19.7404C20.3886 20.1662 20.5252 20.5901 20.6891 21.0057C20.7286 21.1055 20.768 21.1976 20.8109 21.2919C20.984 21.671 21.2077 22.033 21.496 22.3565C22.4041 23.4471 24.1637 23.8994 26.6129 24.7337C26.722 24.7725 26.8333 24.8048 26.9571 24.8337C27.0921 24.8675 27.1844 24.8731 27.4828 24.9519C27.5479 24.9718 27.6271 24.9941 27.7549 25.0586C27.8739 25.1217 28.097 25.2505 28.2591 25.5503C28.6039 26.1441 28.4841 26.9539 28.2614 27.3694C28.0448 27.8155 27.7869 28.1084 27.543 28.3713C27.0507 28.8857 26.5702 29.2615 26.1142 29.6235C25.2219 30.324 24.3219 30.9842 23.9412 31.5242C23.814 31.7061 23.7077 31.9726 23.6357 32.2615C23.7158 31.9484 23.829 31.6928 23.9478 31.5287C24.4293 30.9001 25.3125 30.3029 25.9604 29.8057C26.1279 29.6798 26.2906 29.5568 26.4478 29.4349C26.9807 29.0183 27.4586 28.6311 27.8975 28.1081C28.1136 27.8417 28.3333 27.5388 28.4823 27.0912C28.641 26.6538 28.6263 25.9755 28.3545 25.4997C28.1042 25.0613 27.814 24.9705 27.6888 24.9093C27.4069 24.8032 27.3294 24.8058 27.2301 24.7813C27.1394 24.7628 27.0699 24.7485 27.0038 24.7331C26.8732 24.7027 26.7612 24.6695 26.6515 24.6293C22.4246 23.293 21.6373 22.5193 20.9729 20.9332C20.9704 20.9267 20.9678 20.9202 20.9652 20.9136C20.7856 20.4496 20.6249 19.9438 20.5668 19.4128C20.5204 18.9877 20.5425 18.5475 20.6751 18.1026C20.9378 17.2629 21.2017 16.3886 21.6941 15.7828C21.8174 15.6323 21.9538 15.5 22.1076 15.39C23.1068 14.6996 24.3932 14.0808 25.7712 13.6171C25.7719 13.6169 25.7726 13.6167 25.7732 13.6165C26.0967 13.5089 26.427 13.4107 26.7631 13.3249C28.4393 12.9076 30.5117 12.6814 31.8236 13.843C32.0771 14.0718 32.29 14.3238 32.4777 14.6083C32.6025 14.7966 32.7416 15.0354 32.8793 15.3221C33.5108 16.5938 34.0284 18.8864 34.1263 21.7332C34.1585 22.5789 34.178 23.4729 34.1876 24.408C34.1967 25.3049 34.1896 26.237 34.1797 27.3012C34.1766 27.625 34.1732 27.9618 34.1701 28.3132C34.1577 29.8302 34.1392 31.6709 34.1735 34.1305C34.1756 34.272 34.1783 34.4277 34.1811 34.5734C34.1983 36.523 34.4043 38.8172 34.4309 41.1726C34.4355 41.4898 34.438 41.8086 34.439 42.1313C34.4419 43.0826 34.4442 44.039 34.4451 44.9845C34.4486 48.8071 34.4313 52.3167 34.4048 55.8115C34.4048 55.8121 34.4048 55.8128 34.4048 55.8135C34.4016 56.223 34.3146 56.5576 34.211 56.5373C34.1074 56.5281 34.0262 56.1747 34.0293 55.764C34.0558 52.262 34.073 48.7682 34.0695 44.9583C34.0686 44.0271 34.0664 43.0798 34.0635 42.1341C34.0625 41.8148 34.06 41.4993 34.0555 41.1853C34.0303 38.86 33.8235 36.5506 33.8055 34.5841C33.8023 34.417 33.7993 34.243 33.7969 34.0802C33.7627 31.5763 33.7815 29.7017 33.794 28.1636C33.7973 27.7933 33.8007 27.4455 33.8037 27.1147C33.8133 26.0635 33.8198 25.1875 33.811 24.3399C33.8015 23.4316 33.7823 22.5648 33.7512 21.7475C33.6564 19.0224 33.1763 16.8449 32.6012 15.6182C32.4716 15.3335 32.3421 15.0984 32.2238 14.91C32.0325 14.6052 31.8252 14.3512 31.5608 14.1141C30.5079 13.1604 28.634 13.2636 27.0419 13.6465C26.7192 13.7238 26.3986 13.8141 26.0836 13.9143C26.0829 13.9145 26.0823 13.9148 26.0817 13.915C24.6735 14.3673 23.3213 15.0096 22.3147 15.7066C22.2201 15.7757 22.1327 15.8558 22.0493 15.9485C21.5795 16.4699 21.3037 17.3606 21.0346 18.2334C20.9525 18.5208 20.9215 18.8035 20.9287 19.09C20.9412 19.5802 21.0673 20.0845 21.2561 20.6055C21.2788 20.6679 21.3023 20.7304 21.3266 20.7932C21.969 22.3017 22.6098 22.9389 26.7815 24.2772C26.8755 24.3115 26.9702 24.3397 27.0869 24.367C27.1462 24.3809 27.2098 24.394 27.2993 24.4123C27.3989 24.437 27.4756 24.4335 27.7953 24.5476ZM35.9059 54.3033C35.9503 53.3024 35.9573 52.4991 35.9519 51.8924C35.9432 52.4086 35.9337 52.9119 35.9237 53.4293C35.918 53.7202 35.9121 54.0107 35.9059 54.3033ZM23.0538 14.0392C23.1951 13.9647 23.3431 13.8898 23.4888 13.8186C23.0771 14.004 22.6721 14.2056 22.2798 14.4283C22.0871 14.5378 21.8903 14.6569 21.7075 14.7782C21.4286 14.9624 21.1891 15.2004 20.9887 15.464C21.1937 15.1981 21.4361 14.9628 21.7111 14.7838C22.1513 14.4971 22.6134 14.2515 23.0538 14.0392ZM27.3893 25.3159C26.9297 25.2042 26.7491 25.1835 26.4827 25.0863C24.2525 24.3091 22.5182 23.9213 21.4308 22.8419C21.0747 22.4981 20.7897 22.1003 20.5671 21.6636C20.479 21.4908 20.3993 21.3139 20.3253 21.1269C20.3219 21.1184 20.3185 21.1098 20.3151 21.1012C20.318 21.11 20.3208 21.1187 20.3237 21.1274C20.6846 22.2789 21.4067 23.1302 22.1522 23.6307C23.8161 24.6955 25.2735 24.9877 26.3489 25.4486C26.5294 25.5193 26.7072 25.5716 26.8885 25.6146C26.9793 25.6365 27.0698 25.6552 27.1695 25.6798C27.2663 25.7211 27.389 25.6789 27.5619 25.9196C27.5755 25.9464 27.588 25.9734 27.5994 26.0005C27.8135 26.4995 27.585 27.0036 27.3405 27.3419C27.1476 27.6439 26.9028 27.9145 26.6469 28.1688C26.2893 28.5231 25.877 28.871 25.487 29.1949C25.0956 29.52 24.6962 29.8432 24.3268 30.1724C23.9747 30.4881 23.6335 30.8162 23.405 31.1643C23.394 31.1812 23.3833 31.1984 23.3727 31.2159C23.1625 31.5646 23.0437 31.9906 22.9749 32.4123C22.971 32.4364 22.9672 32.4606 22.9635 32.4851C22.8969 32.9346 22.883 33.3872 22.8948 33.8034C22.9075 34.227 22.9438 34.5807 22.9893 34.8922C23.0465 35.2813 23.1212 35.679 23.2097 36.0672C23.2479 36.2351 23.2889 36.4025 23.3324 36.5671C23.3758 36.7214 23.4498 36.8493 23.5582 36.9664C23.7485 37.1728 24.0505 37.3367 24.3877 37.4656C24.4979 37.508 24.6154 37.5479 24.7306 37.5837C24.7846 37.6005 24.8365 37.6159 24.891 37.6316C24.1859 37.4105 23.5084 37.0609 23.4189 36.5634C23.4178 36.5584 23.4166 36.5534 23.4155 36.5484C23.1708 35.4038 23.0075 34.1157 23.1571 32.7954C23.2239 32.26 23.3613 31.706 23.6294 31.3149C24.0869 30.6762 24.9788 30.0416 25.8659 29.3411C26.3166 28.9841 26.7898 28.6129 27.2569 28.1274C27.487 27.8819 27.7262 27.6075 27.9155 27.2221C28.1089 26.8593 28.208 26.2137 27.9272 25.7261C27.6795 25.3403 27.4807 25.3628 27.3893 25.3159ZM34.8463 43.4816C34.5224 43.4073 34.0449 43.2987 33.4713 43.0954C33.3353 43.0466 33.1963 42.9929 33.0529 42.9307C33.0562 42.9323 33.0596 42.9338 33.063 42.9353C33.4135 43.0989 33.7599 43.2242 34.1436 43.3411C34.8298 43.5482 35.5299 43.6956 36.2433 43.8243C36.7356 43.9125 37.2328 43.9899 37.7315 44.0613C37.9633 44.0944 38.1895 44.1248 38.4103 44.1527C39.139 44.2443 39.8671 44.315 40.5884 44.3558C41.3164 44.3967 42.0341 44.4082 42.7484 44.3738C42.9829 44.3624 43.2058 44.3466 43.4344 44.3248C42.9265 44.3618 42.3941 44.3753 41.8279 44.3661C41.3848 44.3588 40.9026 44.3366 40.4133 44.2995C40.2146 44.2845 40.0008 44.2655 39.7246 44.2375C39.2109 44.1849 38.5428 44.1041 37.7413 43.9871C36.9071 43.8632 35.9236 43.7206 34.8463 43.4816ZM48.2767 42.0689C48.3659 41.9602 48.4453 41.8461 48.5153 41.7272C48.7148 41.3895 48.8385 41.0089 48.9157 40.6063C48.97 40.3232 49.002 40.0309 49.022 39.7346C49.0304 39.61 49.0366 39.484 49.0414 39.3578C49.0492 39.1473 49.0527 38.9354 49.0544 38.7225C49.0292 40.2075 48.8984 41.6092 47.8755 42.3925C47.8678 42.3987 47.8601 42.405 47.8523 42.4113C47.8455 42.4167 47.8387 42.4222 47.8319 42.4276C47.8391 42.4226 47.8463 42.4177 47.8534 42.4127C48.0099 42.3078 48.1509 42.1932 48.2767 42.0689Z" fill="black"/>
</svg>
