<svg width="168" height="293" viewBox="0 0 168 293" fill="none" xmlns="http://www.w3.org/2000/svg">
<mask id="mask0_1460_2675" style="mask-type:alpha" maskUnits="userSpaceOnUse" x="0" y="-1" width="168" height="294">
<rect x="0.513672" y="-0.109375" width="166.873" height="292.183" fill="#D9D9D9"/>
</mask>
<g mask="url(#mask0_1460_2675)">
<path d="M148.37 217.777C147.021 220.908 145.05 223.665 142.383 225.969C140.731 227.386 139.218 229.051 137.599 231.172C137.597 231.174 137.595 231.177 137.593 231.18C137.402 231.425 137.211 231.674 136.986 231.954C136.874 232.094 136.754 232.241 136.607 232.408C136.441 232.584 136.32 232.755 135.875 233.096C134.818 233.8 134.191 233.712 133.882 233.779C133.636 233.795 133.528 233.861 133.852 233.734C133.917 233.708 134.056 233.6 134.094 233.544C134.137 233.488 134.104 233.515 134.056 233.622C133.953 233.837 133.817 234.275 133.691 234.748C133.438 235.704 133.179 236.828 132.883 237.968C132.29 240.272 131.548 242.752 130.614 245.414C128.947 249.905 128.971 255.47 128.699 262.959C128.608 263.973 128.498 265.016 128.097 266.205C127.512 267.597 126.986 267.878 126.539 268.375C126.084 268.816 125.667 269.186 125.269 269.55C124.476 270.272 123.767 270.953 123.16 271.655C122.869 271.961 122.448 272.508 121.33 272.69C120.145 272.834 119.329 272.156 119.016 271.818C118.349 271.061 118.221 270.575 118.029 270.077C116.699 264.022 117.271 259.828 117.109 255.582C117.087 250.514 116.85 246.335 116.409 243.032C116.224 241.554 115.972 240.033 115.305 236.107C115.283 235.971 115.259 235.83 115.235 235.685C114.812 233.179 114.243 229.856 113.177 225.226C112.577 222.625 111.796 219.619 110.81 216.088C110.753 215.884 110.696 215.678 110.637 215.468C109.685 211.677 107.688 207.61 106.234 202.395C105.54 199.763 104.587 197.052 103.326 194.44C103.247 194.276 103.123 194.085 102.99 193.927C102.88 193.777 102.641 193.613 102.786 193.702C102.832 193.73 102.969 193.738 102.959 193.734C102.955 193.732 102.84 193.764 102.687 193.845C102.374 194.005 101.945 194.305 101.493 194.621C100.58 195.258 99.4931 195.989 98.1796 196.432C94.0229 197.698 90.1318 197.575 86.2382 197.664C83.76 197.602 82 196.616 80.3197 195.717C78.789 194.857 77.3903 193.899 76.0536 192.993C73.2388 191.105 73.3417 187.518 72.8884 186.441C72.6398 185.933 72.4956 184.841 73.0606 184.041C73.5972 183.276 74.2061 183.067 74.6526 182.913C77.747 181.867 81.2071 181.983 82.7159 181.062C83.2159 180.798 83.6496 180.005 84.284 178.835C84.6024 178.268 84.6432 177.824 84.488 177.199C84.2658 176.322 83.5729 175.301 82.8137 174.126C81.831 172.304 78.9084 172.443 75.4799 170.58C72.7892 169.008 71.347 165.827 70.1069 164.115C69.1202 162.768 68.3957 161.351 68.3184 159.348C68.2921 158.157 69.0056 157.028 69.5922 156.445C69.8869 156.133 70.1667 155.885 70.3521 155.699C70.5524 155.527 70.5553 155.357 70.4548 155.722C70.6238 155.015 70.0779 154.198 68.9099 153.141C68.517 152.772 68.0768 152.392 67.6047 151.874C66.5246 150.651 65.6961 149.386 64.9331 148.01C63.4315 144.191 65.5545 141.829 65.3639 140.017C65.3649 140.091 65.3952 140.27 65.505 140.436C65.6132 140.602 65.7466 140.686 65.7934 140.709C65.8916 140.749 65.7496 140.692 65.575 140.679C65.2074 140.639 64.6817 140.649 64.1377 140.659C63.0309 140.652 61.8091 140.798 60.2288 140.188C55.2824 137.23 53.9741 132.517 50.6523 129.859C50.1449 129.466 49.6233 129.074 49.0923 128.683C45.3391 125.932 41.4469 123.3 37.8263 120.263C34.9121 117.859 33.3186 114.116 33.2669 110.478C33.2684 110.193 33.2574 109.856 33.538 109.36C33.8143 108.858 34.4525 108.567 34.7969 108.535C35.5187 108.457 35.8327 108.605 36.1793 108.697C36.8305 108.909 37.3335 109.156 37.8457 109.401C38.8478 109.888 39.7897 110.39 40.7181 110.782C41.2649 111.013 41.8325 111.211 42.2678 111.27C43.2386 111.407 43.9198 111.812 44.5361 112.203C46.7521 113.717 48.3117 115.59 50.0987 117.071C51.0218 117.847 51.5059 118.717 52.0325 119.137C52.2337 119.375 53.1585 119.413 54.0228 119.225C54.3756 119.251 55.2628 118.145 56.471 117.578C58.5312 116.601 60.7438 117.267 62.3916 117.902C64.7185 118.986 66.0787 120.459 67.8486 121.741C68.9782 122.602 70.1068 123.407 71.2661 124.075C77.9365 127.895 84.4969 130.487 91.0359 132.866C95.0736 134.406 99.2964 135.624 103.534 136.295C106.005 136.638 108.577 136.945 110.938 136.548C110.924 136.541 110.807 136.607 110.79 136.646C110.763 136.701 110.815 136.581 110.814 136.425C110.818 136.266 110.802 136.069 110.776 135.858C110.217 132.608 108.427 129.246 106.693 125.895C106.564 125.67 106.546 125.323 106.618 125.111C106.685 124.894 106.78 124.771 106.859 124.676C107.019 124.494 107.152 124.409 107.28 124.331C107.535 124.183 107.768 124.098 108.041 124.04C108.694 123.932 109.128 124.003 109.215 123.949C109.288 123.931 109.378 123.827 109.383 123.765C109.531 123.1 109.153 122.253 108.551 121.448C108.022 120.731 107.337 120.018 106.611 119.259C104.318 116.594 100.756 115.824 96.845 112.772C95.9475 111.794 95.3936 110.44 94.8515 109.756C93.5553 108.392 90.2586 108.367 87.5523 107.594C84.737 106.889 82.4344 105.324 79.917 104.628C77.5755 103.931 75.2252 103.199 72.8811 102.447C71.6065 102.039 70.3324 101.624 69.0627 101.208C69.0563 101.206 69.0499 101.204 69.0435 101.202C67.1559 100.583 65.277 99.9603 63.4129 99.3552C59.1805 98.0537 54.9945 96.2293 51.2121 95.1002C49.4146 94.6504 47.8901 93.6869 46.6503 92.4847C44.4598 89.6888 45.4721 86.9125 45.879 84.5951C46.3369 82.7045 47.184 81.0127 47.0242 79.7894C46.9773 79.3418 46.6122 78.9435 46.0328 78.5793C44.2691 77.5359 42.0351 76.9766 40.2947 75.6986C37.422 73.9278 36.1425 70.1908 34.9134 69.9255C32.4273 69.0939 30.4847 69.1961 28.7333 69.6342C26.0923 70.2437 23.939 70.0835 22.0095 69.6494C20.7918 69.3504 19.6456 68.9641 18.5024 68.1496C17.5534 67.4355 17.1662 66.4188 16.8982 65.5175C16.301 63.3264 16.173 61.0469 15.4017 58.7675C15.3224 58.5272 15.2401 58.2868 15.1612 57.983C15.1233 57.8281 15.0814 57.6632 15.064 57.4105C15.0555 57.1876 15.0338 56.6811 15.4823 56.2195C15.8164 55.9038 16.0876 55.8556 16.2577 55.8068C16.4338 55.7653 16.554 55.7515 16.6545 55.7367C16.8517 55.711 16.9666 55.685 16.9938 55.6723C17.9173 55.4527 18.5819 52.0593 20.4369 50.13C22.8168 47.4591 24.6703 44.1015 26.9063 40.7656L26.8679 40.8271C27.3148 40.0557 27.7317 39.2242 28.1861 38.3769C28.2079 38.3362 28.2296 38.2958 28.2516 38.255C28.3124 38.1426 28.3738 38.0316 28.4358 37.9222C28.8674 37.1175 29.5458 36.2693 30.2019 35.9014C30.8463 35.5207 31.2778 35.4857 31.2977 35.5552C31.3761 35.6563 29.704 36.5094 28.98 38.2239C28.916 38.3419 28.8515 38.4615 28.7862 38.5825C28.3174 39.4517 27.8848 40.3199 27.4097 41.1405L27.426 41.1142C25.1934 44.4462 23.3173 47.8385 20.9089 50.5411C20.1213 51.4386 19.5301 52.4651 19.0668 53.4737C19.0714 53.6358 18.951 54.0697 18.7386 54.6485C18.5182 55.2073 18.2228 56.005 17.5279 56.395C17.4602 56.4322 17.3891 56.4656 17.3101 56.496C17.1746 56.5486 17.0079 56.5785 16.8145 56.6051C16.6218 56.6473 16.3948 56.6071 16.1048 56.8455C15.8314 57.1725 15.9649 57.476 16.0075 57.7227C16.0712 57.978 16.1555 58.2276 16.2428 58.4889C16.6095 59.5655 16.9074 60.8847 17.1786 62.4316C17.5407 63.9158 17.4308 65.9556 19.0463 67.4216C21.4617 69.0374 24.9545 69.5633 28.5251 68.7448C30.5794 68.1953 32.9152 68.266 35.1939 69.031C36.5134 69.4219 37.0396 70.8667 37.8652 71.9329C38.6677 73.056 39.685 74.059 40.8736 74.9017C41.3675 75.2539 41.9073 75.5525 42.4672 75.8231C41.879 75.5191 41.3549 75.2013 40.9047 74.859C40.3694 74.4526 39.9092 74.0468 39.5098 73.6457C38.6412 72.7717 38.1138 71.9875 37.6834 71.2993C37.0197 70.2983 36.639 69.2056 35.2893 68.7266C34.8606 68.585 34.3939 68.4397 33.8506 68.3063C32.3494 67.9195 30.4159 67.8527 28.4307 68.3413C25.73 68.9523 22.1419 68.8626 19.3488 67.0167C18.3015 66.19 18.1073 64.4594 17.8191 62.9289C17.5142 61.0015 17.2628 59.3981 17.4232 59.3616C17.5999 59.3161 18.137 60.9293 18.4414 62.8556C18.4478 62.8931 18.4543 62.9303 18.4608 62.9674C18.7104 64.4295 19.0286 66.0335 19.7233 66.5154C22.1696 68.1568 25.6947 68.3385 28.288 67.7319C30.5344 67.1614 32.8563 67.3307 34.5266 67.8327C34.8632 67.9249 35.1808 68.0218 35.4803 68.1177C36.644 68.4817 37.2427 69.3797 37.5825 69.8702C37.9695 70.4538 38.3604 71.1006 38.6018 71.4458C38.6344 71.4938 38.6915 71.578 38.7648 71.6833C38.766 71.685 38.7672 71.6868 38.7684 71.6886C38.8077 71.7452 39.0143 72.0405 39.2438 72.3447C39.2905 72.4069 39.3915 72.5403 39.5103 72.695C39.5432 72.7324 39.5768 72.7701 39.6109 72.8078C40.0812 73.3277 40.6114 73.8188 41.239 74.303C41.2537 74.3144 41.2686 74.3258 41.2837 74.3373C41.9879 74.8825 42.9655 75.3924 44.2672 75.968C44.9169 76.2629 45.6506 76.566 46.4592 77.0231C47.2104 77.4694 48.3429 78.1745 48.5243 79.5983C48.6901 81.4793 47.7361 83.0767 47.2813 84.9351C46.9334 86.3498 46.6119 87.9702 46.8169 89.6367C46.9123 90.3215 47.1322 91.0284 47.6107 91.5082C48.6119 92.4989 49.9478 93.3971 51.5292 93.8008C55.2704 94.91 59.1722 96.6819 63.8105 98.1284C68.7811 99.7585 74.2674 101.623 80.2783 103.412C82.8877 104.137 85.214 105.705 87.866 106.367C88.371 106.496 88.8827 106.612 89.3996 106.721C88.8867 106.608 88.376 106.487 87.8696 106.353C87.0434 106.135 86.2427 105.837 85.4524 105.491C83.7959 104.758 82.1198 103.875 80.3009 103.336C78.678 102.84 77.0571 102.329 75.4395 101.807C74.1456 101.39 72.8711 100.972 71.573 100.541C69.484 99.8478 67.392 99.1396 65.2965 98.4381C64.8193 98.2784 64.3422 98.1192 63.8647 97.961C62.9273 97.6501 61.9889 97.3318 61.0555 97.006C61.0522 97.0049 61.049 97.0038 61.0458 97.0027C59.1002 96.3256 57.157 95.598 55.2092 94.8401C54.5234 94.5754 53.8462 94.3123 53.1507 94.0703C52.6405 93.8929 52.116 93.7281 51.5798 93.5936C50.1919 93.239 48.8665 92.4439 47.7652 91.3511C47.3529 90.9406 47.1142 90.2622 47.0264 89.5024C46.9856 89.1523 46.9786 88.7588 46.9879 88.4624C46.9969 88.1438 47.0217 87.8342 47.0551 87.5411C47.0846 87.2824 47.1209 87.0353 47.1606 86.7986C47.1659 86.7669 47.1713 86.7351 47.1768 86.7033C47.2229 86.4385 47.2734 86.1853 47.3264 85.9425C47.3792 85.7002 47.435 85.4669 47.4928 85.2382C47.4933 85.236 47.4938 85.2339 47.4943 85.2318C47.5151 85.1496 47.5346 85.0745 47.5539 85.0011C47.5902 84.8643 47.627 84.733 47.6751 84.5704C47.7675 84.2601 47.8554 83.9912 47.9661 83.6608C48.0734 83.3405 48.1907 83.0016 48.3057 82.6483C48.4205 82.2944 48.5348 81.9238 48.6304 81.5241C48.7252 81.1246 48.8031 80.6944 48.8179 80.2275C48.8244 80.0133 48.8169 79.791 48.7889 79.5646C48.7528 79.2698 48.6699 78.9751 48.5431 78.7018C48.3088 78.1931 47.9402 77.79 47.5709 77.4842C46.7017 76.7852 45.8659 76.4196 45.2869 76.0895C44.7051 75.7722 44.413 75.5669 44.4477 75.4932C44.4848 75.4224 44.842 75.4863 45.4834 75.7025C46.124 75.9361 47.0165 76.2373 48.0046 77.0311C48.2703 77.2533 48.5391 77.5198 48.7781 77.8537C48.9198 78.0517 49.05 78.2749 49.1546 78.5136C49.2901 78.8219 49.3807 79.1515 49.4233 79.4838C49.4639 79.7971 49.4705 80.1023 49.4558 80.3918C49.4269 80.9461 49.3258 81.4445 49.2089 81.9072C49.0905 82.3711 48.9526 82.8028 48.8168 83.2195C48.6812 83.635 48.5457 84.0384 48.4253 84.4347C48.3537 84.6701 48.2823 84.9204 48.2216 85.163C48.1803 85.3281 48.1412 85.4928 48.1056 85.6501C48.0388 85.9438 47.9649 86.3056 47.9129 86.6062C47.858 86.9199 47.8133 87.2273 47.7803 87.5206C47.7471 87.8146 47.7254 88.0958 47.7158 88.359C47.7148 88.3873 47.7139 88.4155 47.7131 88.4435C47.7067 88.6753 47.7097 88.8936 47.7215 89.0946C47.7345 89.3188 47.7586 89.5226 47.7912 89.7045C47.8277 89.904 47.8586 90.0163 47.8995 90.1454C47.9968 90.4425 48.1325 90.6767 48.2831 90.8246C49.1915 91.7215 50.456 92.5247 51.7635 92.8409C52.7919 93.0911 53.7537 93.4399 54.6556 93.774C55.034 93.9147 55.4052 94.0553 55.7722 94.194C57.7106 94.9305 59.6285 95.626 61.5822 96.2863C62.4282 96.5728 63.2786 96.8535 64.134 97.1299C64.7126 97.3168 65.2903 97.5049 65.8676 97.6934C67.982 98.3843 70.0971 99.0818 72.2109 99.7639C73.5233 100.188 74.8119 100.598 76.1239 101.009C77.6074 101.473 79.095 101.928 80.5873 102.372C82.7131 102.982 84.6388 104.045 86.389 104.745C86.9691 104.975 87.5453 105.168 88.1339 105.319C89.4018 105.648 90.7108 105.877 92.1017 106.16C93.4523 106.495 95.1368 106.637 96.6243 108.242C96.8288 108.483 96.9741 108.706 97.102 108.911C97.6873 109.9 98.0463 110.634 98.5828 111.237C99.836 112.489 102.93 113.535 105.165 115.125C106.259 115.864 107.309 116.734 108.227 117.719C109.199 118.78 110.276 119.836 111.043 121.349C111.426 122.12 111.704 123.152 111.48 124.183C111.293 125.061 110.659 125.722 109.836 125.974C109.353 126.112 109.009 126.084 108.782 126.087C108.777 126.087 108.773 126.087 108.769 126.087C108.595 126.085 108.486 126.091 108.453 126.096C108.424 126.098 108.351 126.124 108.344 126.127C108.342 126.124 108.355 126.129 108.439 126.034C108.48 125.983 108.551 125.902 108.613 125.703C108.681 125.512 108.663 125.148 108.535 124.931C108.813 125.48 109.092 126.037 109.362 126.59C110.434 128.803 111.451 131.002 112.184 133.404C112.391 134.108 112.576 134.837 112.668 135.628C112.704 135.975 112.747 136.35 112.676 136.847C112.634 137.095 112.568 137.397 112.333 137.734C112.109 138.077 111.638 138.351 111.273 138.401C110.114 138.598 108.993 138.609 107.89 138.568C106.329 138.503 104.793 138.315 103.268 138.082C102.375 137.945 101.493 137.772 100.623 137.582C98.2393 137.054 95.9477 136.409 93.5662 135.636C92.4959 135.286 91.4423 134.923 90.3751 134.495C88.4502 133.768 86.3633 133.027 84.3272 132.22C81.2487 131.009 78.1735 129.685 75.1556 128.211C74.1008 127.695 73.0519 127.16 72.0116 126.604C72.0076 126.602 72.0036 126.6 71.9996 126.597C71.4478 126.302 70.8972 126 70.3493 125.691C68.9416 124.894 67.6534 123.97 66.4062 123.03C64.813 121.858 63.1264 120.356 61.7418 119.76C60.4892 119.299 59.358 118.987 58.3198 119.127C57.9773 119.173 57.6572 119.267 57.3605 119.411C57.0082 119.582 56.6803 119.838 56.28 120.185C55.8798 120.509 55.3813 121.049 54.4464 121.263C53.4189 121.426 52.1415 121.806 50.6989 120.789C49.8201 120.056 49.3669 119.283 48.8585 118.854C48.8203 118.82 48.7822 118.788 48.744 118.757C46.36 116.856 44.1067 114.052 42.0072 113.54C41.5775 113.489 41.2002 113.391 40.8398 113.279C39.5115 112.852 38.3876 112.257 37.2723 111.722C36.7229 111.457 36.1706 111.192 35.6729 111.013C35.437 110.924 35.1669 110.868 35.143 110.875C35.1201 110.875 35.3319 110.877 35.5197 110.65C35.6792 110.428 35.6295 110.355 35.6382 110.396C35.6562 110.986 35.716 111.569 35.8184 112.141C35.95 112.877 36.153 113.597 36.4278 114.287C37.065 115.893 38.091 117.301 39.3845 118.369C40.8408 119.573 42.3375 120.71 43.85 121.816C46.5912 123.828 49.4264 125.728 52.2071 127.848C52.4556 128.039 52.6924 128.243 52.9175 128.451C55.7955 131.213 57.5632 134.717 60.1373 137.026C60.5114 137.345 60.9006 137.609 61.258 137.756C61.9156 138.027 62.9803 138.021 64.0481 137.988C64.5949 137.976 65.1531 137.945 65.8188 138.001C66.1538 138.037 66.5244 138.07 67.0124 138.303C67.5129 138.482 68.1104 139.326 68.0681 139.926C68.0977 141.268 67.7616 142.333 67.5291 143.357C67.194 144.69 66.9772 146.051 67.373 146.664C68.0412 147.844 68.8356 149.011 69.7059 149.968C70.2461 150.549 71.0512 151.166 71.8031 151.971C72.6799 152.854 73.6581 154.514 73.3252 156.207C72.9637 157.562 72.3389 157.761 72.025 158.151C71.6733 158.49 71.4464 158.764 71.3538 158.974C71.2922 159.11 71.2703 159.218 71.2706 159.361C71.2952 160.232 71.799 161.441 72.478 162.294C72.8104 162.722 73.0967 163.157 73.359 163.576C73.8413 164.35 74.253 165.067 74.7044 165.693C75.3561 166.607 76.1045 167.338 76.9938 167.922C77.0397 167.952 77.0863 167.982 77.1337 168.012C78.3771 168.802 80.4465 169.012 82.4487 169.923C83.5851 170.432 84.7396 171.301 85.4595 172.44C85.9037 173.122 86.4206 173.848 86.8708 174.686C87.7749 176.22 88.2102 178.616 87.0867 180.453C86.9783 180.649 86.8596 180.884 86.7243 181.143C86.2413 182.074 85.5363 183.217 84.3827 183.896C80.733 185.641 78.7051 185.133 76.5129 185.87C76.2267 185.947 75.9449 186.03 75.6554 186.123C75.5572 186.138 75.6823 186.21 75.9256 185.805C76.0082 185.648 76.0401 185.449 76.0317 185.325C76.0248 185.197 75.999 185.137 75.9923 185.118C76.8512 188.042 76.8578 189.497 77.9644 190.172C79.0598 190.908 80.1165 191.622 81.1813 192.259C82.9047 193.294 84.8353 194.233 86.2172 194.226C87.7732 194.212 89.3243 194.178 90.8626 194.093C93.0425 193.966 95.2529 193.773 97.0765 193.165C98.1138 192.825 99.0611 192.093 100.425 191.18C100.8 190.945 101.212 190.686 101.834 190.475C102.423 190.258 103.454 190.183 104.247 190.583C105.632 191.392 105.902 192.017 106.422 192.939C107.452 195.075 108.289 197.273 108.979 199.522C109.181 200.183 109.37 200.85 109.545 201.522C110.258 204.323 111.461 207.103 112.464 209.988C112.98 211.455 113.472 213.017 113.893 214.548C114.05 215.114 114.202 215.672 114.352 216.221C114.745 217.668 115.125 219.1 115.482 220.511C115.627 221.087 115.769 221.66 115.908 222.23C116.383 224.191 116.81 226.113 117.19 227.969C117.571 229.826 117.91 231.632 118.222 233.394C118.325 233.973 118.424 234.547 118.523 235.126C118.721 236.292 118.925 237.432 119.131 238.592C119.447 240.373 119.716 241.872 119.992 243.812C120.17 245.077 120.312 246.324 120.424 247.562C120.592 249.422 120.697 251.256 120.773 253.104C120.806 253.921 120.832 254.7 120.855 255.512C120.884 256.533 120.913 257.549 120.944 258.563C120.962 259.146 120.982 259.758 121.003 260.337C121.069 262.128 121.142 263.897 121.296 265.603C121.402 266.756 121.558 267.994 121.831 268.75C121.888 268.908 121.964 269.051 121.985 269.075C121.991 269.085 121.991 269.059 121.878 268.958C121.78 268.869 121.448 268.639 120.962 268.652C120.614 268.661 120.354 268.794 120.238 268.872C120.114 268.955 120.079 269 120.064 269.014C121.165 267.685 122.43 266.571 123.47 265.557C123.68 265.35 123.872 265.15 124.01 264.986C124.147 264.835 124.218 264.656 124.135 264.84C124.598 263.305 124.553 260.956 124.588 259.04C124.61 256.497 124.652 254.035 124.894 251.621C124.939 251.168 124.991 250.714 125.051 250.262C125.307 248.309 125.705 246.377 126.3 244.51C126.355 244.336 126.413 244.162 126.472 243.989C127.123 242.074 127.698 240.184 128.2 238.273C128.826 236.132 128.906 234.406 130.024 231.543C130.303 230.918 131.048 229.967 131.982 229.58C132.794 229.243 133.188 229.282 133.414 229.235C133.634 229.227 133.618 229.115 133.164 229.403C133.01 229.523 133.089 229.466 133.132 229.41C133.186 229.347 133.261 229.255 133.337 229.158C133.491 228.961 133.663 228.732 133.838 228.499C134.19 228.028 134.561 227.532 134.956 227.029C136.195 225.449 137.581 223.887 139.26 222.391C139.488 222.186 139.713 221.975 139.935 221.754C141.479 220.225 142.809 218.313 143.739 216.192C144.497 214.471 144.999 212.608 145.244 210.692C145.31 210.18 145.378 209.687 145.454 209.177C145.825 206.494 146.524 203.731 146.893 201.413C147.012 200.637 147.09 199.872 147.135 199.084C147.239 197.3 147.371 195.514 147.54 193.753C147.788 191.122 148.158 188.379 148.594 185.875C148.844 184.492 149.072 182.879 148.931 182.798C148.922 182.762 148.912 182.776 148.993 182.886C149.066 182.988 149.303 183.218 149.645 183.322C149.11 183.138 147.797 183.035 146.53 182.781C145.611 182.599 144.693 182.438 143.761 182.296C142.117 182.036 140.462 181.874 138.61 181.563C137.611 181.389 136.42 181.272 135.146 181.03C133.876 180.684 132.393 180.762 130.55 178.735C130.202 178.287 129.92 177.699 129.797 177.113C129.643 176.48 129.786 175.685 130.043 175.213C130.295 174.725 130.57 174.456 130.795 174.254C131.25 173.866 131.587 173.71 131.903 173.564C132.656 173.234 133.319 173.117 133.856 173.031C133.643 173.29 135.124 172.031 136.374 171.063C137.695 170.065 139.135 169.238 140.592 168.564C140.595 168.563 140.597 168.562 140.599 168.561C144.007 166.917 147.548 167.863 149.418 167.492C149.641 167.468 149.749 167.395 149.495 167.518C149.374 167.582 149.148 167.752 148.992 167.992C148.833 168.231 148.777 168.467 148.764 168.585C148.84 168.003 148.895 167.423 148.917 166.866C148.95 166.211 148.903 165.446 148.835 165.227C148.832 165.214 148.819 165.172 148.803 165.127C147.834 162.789 145.925 159.565 145.469 155.867C145.466 155.841 145.463 155.815 145.46 155.789C145.356 154.883 145.342 153.922 145.491 152.938C145.96 149.808 146.342 146.621 146.687 143.441C146.841 142.004 146.979 140.624 147.096 139.231C147.159 138.473 147.216 137.715 147.252 137.001C147.285 136.328 147.332 135.67 147.383 135.019C147.496 133.585 147.626 132.202 147.699 130.881C147.772 129.549 147.793 128.279 147.662 127.143C147.598 126.594 147.495 126.084 147.349 125.667C147.172 125.16 146.964 124.636 146.726 124.068C146.679 123.957 146.632 123.846 146.584 123.733C146.066 122.509 145.366 120.965 144.956 119.282C144.924 119.153 144.892 119.023 144.86 118.893C143.86 114.847 142.836 110.916 141.665 106.992C140.873 104.404 140.01 101.572 138.967 99.5866C138.261 98.3321 137.64 97.1069 137.014 95.8933C136.267 94.4418 135.524 93.0089 134.746 91.616C134.496 91.1686 134.243 90.7252 133.985 90.2869C132.983 88.5858 131.931 86.9369 130.778 85.4417C129.649 83.9692 128.494 82.8085 126.981 81.557C125.31 80.1416 123.525 78.7491 121.737 77.2856C120.835 76.5456 119.926 75.7887 119.016 74.955C118.56 74.5344 118.107 74.1016 117.64 73.588C117.177 73.0101 116.673 72.6859 116.163 71.1976C115.602 69.0946 115.328 67.1153 114.989 65.2115C114.777 63.9866 114.552 62.7808 114.298 61.5756C113.958 59.8099 112.988 58.042 112.101 55.7998C111.8 55.0315 111.515 54.2819 111.224 53.5674C109.957 50.3146 107.927 47.4079 105.749 44.3837C105.153 43.5578 104.638 42.7992 104.092 42.0532C101.471 38.396 98.2873 35.3357 94.4832 33.1775C93.9126 32.8513 93.3403 32.5496 92.7467 32.2617C89.0283 30.4133 85.8409 28.7946 82.0555 27.8871C80.7915 27.5569 79.5032 27.2644 78.1916 26.9887C75.1911 26.3934 71.8446 26.2019 68.5959 26.1289C66.1386 26.0852 63.668 26.1342 61.2628 26.3449C60.9664 26.3714 60.6715 26.3974 60.3753 26.4231C58.8885 26.5758 57.4659 26.7151 56.1074 26.8546C52.2626 27.2754 48.2407 27.6201 46.0848 28.589C42.4621 30.5464 39.1376 32.4505 36.0474 35.1423C35.1689 35.906 34.2754 36.698 33.3794 37.5195C32.7132 38.1349 32.1814 38.644 31.5501 39.2684C31.4264 39.3908 31.3004 39.5163 31.1728 39.6447C30.3566 40.4701 29.4361 41.4131 28.2628 42.794C27.7039 43.4486 27.1142 44.2066 26.3454 45.1306C24.8938 47.2516 22.8498 52.159 20.5593 57.3149C19.789 59.0642 19.1612 60.1275 19.1661 59.6802C19.1689 59.3683 19.4813 58.3943 19.9323 57.2386C19.5289 58.1806 19.125 59.1249 18.7194 60.0637C18.3071 61.0264 18.015 62.2087 17.7898 63.3737C17.6276 64.2202 17.485 65.0254 17.3715 65.5806C17.257 66.1417 17.1815 66.3799 17.1007 66.335C17.0207 66.2985 16.9523 65.9314 16.968 65.271C16.9826 64.6131 17.0761 63.7449 17.2478 62.8765C17.4608 61.8106 17.7266 60.7433 18.1164 59.8096C18.6196 58.6198 19.1192 57.4241 19.6185 56.2343C20.5538 54.0071 21.4853 51.7939 22.4645 49.6047C23.3231 47.7353 24.207 45.6604 25.2593 44.2186C25.4595 43.9801 25.6544 43.7417 25.8468 43.505C27.3423 41.6198 28.9159 39.9064 30.653 38.2453C32.1253 36.8308 33.641 35.4814 35.1923 34.1461C35.4591 33.9166 35.7287 33.6915 36.003 33.4691C37.1051 32.575 38.2763 31.7377 39.467 30.9677C39.9106 30.6805 40.3488 30.407 40.7916 30.1388C41.1535 29.9196 41.5207 29.7027 41.9004 29.4831C43.081 28.8001 44.2891 28.1458 45.5102 27.4995C48.1512 26.3691 51.6986 26.1841 54.9071 25.8227C56.9824 25.6205 59.0694 25.4399 61.1574 25.2375C63.7032 24.9951 66.291 24.9299 68.8685 24.9636C72.0864 25.0227 75.3515 25.1842 78.4403 25.7709C79.8498 26.0564 81.2367 26.3613 82.6109 26.7154C86.3811 27.6013 89.767 29.2961 93.3334 31.0349C94.0241 31.3635 94.6943 31.7134 95.3557 32.0915C99.3376 34.345 102.694 37.5887 105.395 41.3341C105.919 42.0453 106.418 42.7669 106.955 43.4995C108.557 45.6854 110.13 47.8888 111.387 50.2183C112.055 51.4288 112.601 52.6814 113.119 53.9604C113.287 54.3709 113.453 54.7842 113.623 55.1989C114.476 57.2901 115.557 59.1637 116 61.2121C116.307 62.5551 116.577 63.8992 116.83 65.2457C116.58 63.8376 116.321 62.4958 116.038 61.204C115.575 59.0205 114.485 57.1486 113.699 55.1686C112.741 52.721 111.803 50.5403 110.526 48.5362C110.15 47.9312 109.759 47.3357 109.359 46.7475C108.6 45.6346 107.817 44.5546 107.006 43.4623C103.731 38.7448 99.9178 34.1436 93.3512 30.9977C93.1005 30.8776 92.8595 30.7611 92.6089 30.6392C87.6913 27.9993 83.0203 26.5589 78.4584 25.6823C71.9965 24.5803 66.0905 24.6996 61.1435 25.0922C54.6446 25.7552 49.0839 25.8439 45.4134 27.3161C44.2711 27.9137 43.2148 28.4802 42.2404 29.028C39.0907 30.7881 36.7829 32.4207 35.003 33.9256C31.9415 36.5106 30.0463 38.2293 28.3046 39.9525C27.2675 40.9657 26.104 42.3207 24.8151 43.8455C21.8468 48.3668 19.4544 54.9685 17.8564 58.5705C17.716 58.9048 17.5746 59.2286 17.4399 59.5245C16.8686 60.8259 16.5702 61.8457 16.4241 61.8024C16.3019 61.7663 16.3621 60.7007 16.8893 59.2925C17.0108 58.9802 17.1471 58.6429 17.2922 58.2973C18.8777 54.7634 21.0342 48.5449 24.3281 43.4366C26.0872 41.3015 27.8973 39.3452 29.4726 37.9241C30.7444 36.7591 32.1436 35.5109 34.593 33.4479C36.3224 31.9886 38.703 30.2682 42.2021 28.3317C43.1055 27.8283 44.0777 27.3083 45.1214 26.7623C49.1057 25.1714 54.5183 25.1503 61.0842 24.4691C66.0861 24.0754 71.9653 23.9435 78.5837 25.0689C83.1532 25.9383 88.0216 27.4574 92.9428 30.1055C93.1737 30.2177 93.3915 30.3229 93.6212 30.4329C100.299 33.6303 104.203 38.323 107.512 43.0911C108.199 44.0153 108.867 44.9334 109.529 45.8865C109.934 46.4708 110.335 47.0658 110.725 47.6746C110.728 47.6784 110.73 47.6822 110.732 47.686C112.15 49.832 113.253 52.2725 114.283 54.9381C115.042 56.8594 116.16 58.7715 116.651 61.0731C117.275 63.7922 117.645 66.7795 118.385 69.9621C118.434 70.159 118.485 70.3563 118.539 70.553C120.845 74.1164 125.107 76.5569 128.604 79.6459C131.8 82.1454 134.156 85.5948 136.173 89.0028C138.041 92.1487 139.558 95.3928 141.201 98.3258C144.943 106.814 146.375 114.533 147.544 118.645C147.727 119.364 147.942 119.965 148.128 120.449C148.628 121.75 149.237 122.979 149.756 124.35C149.81 124.492 149.863 124.635 149.915 124.78C150.982 128.027 150.347 131.777 150.06 137.134C149.859 140.978 149.382 145.648 148.608 151.665C148.534 152.216 148.455 152.788 148.369 153.37C147.977 156.054 149.222 159.141 150.741 162.246C151.076 162.94 151.44 163.587 151.709 164.422C152.1 166.065 151.934 167.514 151.789 168.977C151.764 169.429 151.394 170.002 150.97 170.204C150.558 170.426 150.198 170.478 149.88 170.535C146.782 170.955 144.075 170.293 141.941 171.453C141.623 171.606 141.319 171.759 141.02 171.918C139.87 172.529 138.831 173.224 137.872 174.017C136.884 174.74 136.145 175.92 134.37 176.309C133.942 176.383 133.56 176.478 133.262 176.62C133.141 176.676 133.035 176.747 133.008 176.777C132.995 176.79 133.01 176.79 133.046 176.726C133.083 176.667 133.116 176.508 133.089 176.399C133.145 176.743 133.706 177.116 134.461 177.335C135.456 177.634 136.618 177.759 137.797 177.897C138.257 177.951 138.728 178.005 139.21 178.078C141.502 178.399 143.967 178.586 146.318 178.991C146.625 179.042 146.931 179.094 147.242 179.15C148.277 179.355 149.347 179.342 150.781 179.732C151.876 180.091 152.314 180.985 152.537 181.613C152.724 182.147 152.793 182.73 152.792 183.234C152.219 188.46 151.432 193.264 151.203 199.33C151.033 203.351 149.778 207.074 149.32 211.248C149.062 213.204 148.559 215.22 147.745 217.185C146.411 220.418 144.358 223.229 141.873 225.386C139.388 227.498 138.196 229.472 135.454 232.523C134.704 233.034 134.189 233.013 133.883 233.069C133.579 233.096 133.39 233.156 133.564 233.095C133.542 233.111 133.594 233.058 133.544 233.118C133.502 233.174 133.416 233.339 133.339 233.55C133.18 233.979 133.035 234.55 132.895 235.113C132.616 236.259 132.341 237.433 132.036 238.588C131.434 240.884 130.746 243.095 130.012 245.207C129.584 246.438 129.264 247.686 129.023 248.936C129.281 247.611 129.614 246.367 130.021 245.21C130.946 242.573 131.682 240.116 132.271 237.826C132.565 236.693 132.824 235.574 133.081 234.597C133.211 234.111 133.349 233.655 133.48 233.369C133.544 233.228 133.602 233.148 133.614 233.139C133.63 233.128 133.582 233.168 133.594 233.161C133.426 233.226 133.55 233.177 133.769 233.16C133.995 233.129 134.329 233.122 134.858 232.934C135.053 232.861 135.278 232.754 135.503 232.589C135.978 232.219 136.092 232.033 136.278 231.827C136.445 231.628 136.587 231.448 136.724 231.273C137.001 230.919 137.249 230.595 137.499 230.277C139.011 228.334 140.464 226.789 141.97 225.497C144.619 223.204 146.476 220.563 147.777 217.574C148.696 215.44 149.232 213.305 149.507 211.273C150.022 206.877 151.296 203.172 151.47 199.346C151.671 191.79 153.363 187.984 152.966 181.473C152.723 180.782 152.239 179.734 150.92 179.291C149.395 178.868 148.357 178.886 147.334 178.679C146.509 178.529 145.683 178.395 144.849 178.276C143.075 178.013 141.145 177.857 139.294 177.588C138.223 177.426 137.208 177.341 136.224 177.192C135.545 177.089 134.875 176.958 134.341 176.761C134.077 176.665 133.855 176.548 133.735 176.454C133.61 176.353 133.607 176.335 133.586 176.291C133.64 176.51 133.582 176.813 133.501 176.953C133.422 177.102 133.363 177.143 133.344 177.159C133.306 177.185 133.378 177.127 133.469 177.085C133.698 176.973 134.037 176.883 134.449 176.811C136.793 176.221 137.415 174.865 138.565 174.102C139.642 173.25 140.832 172.524 142.145 171.89C143.474 171.223 144.981 171.117 146.785 171.163C147.758 171.176 148.833 171.192 149.952 171.01C150.286 170.95 150.684 170.902 151.2 170.628C151.735 170.384 152.244 169.6 152.269 169.039C152.413 167.544 152.607 166.121 152.18 164.29C150.584 160.418 148.35 157.155 148.749 153.427C148.871 152.538 148.982 151.639 149.089 150.735C149.089 150.731 149.089 150.728 149.09 150.724C149.285 149.064 149.465 147.382 149.634 145.685C149.906 142.882 150.178 140.05 150.303 137.146C150.379 133.155 151.358 129.001 150.105 124.714C149.343 122.573 148.251 120.65 147.734 118.598C147.363 117.149 146.984 115.7 146.598 114.26C146.303 113.162 145.944 111.848 145.516 110.343C144.532 107.128 143.571 102.93 141.302 98.2689C139.722 95.4792 138.213 92.2494 136.262 88.9503C134.338 85.7194 132.066 82.2241 128.69 79.5446C126.523 77.7007 124.187 75.9156 121.907 73.9545C120.757 72.9147 119.317 71.7897 118.761 70.4926C118.085 67.8667 117.788 64.9776 117.177 61.8993C117.12 61.6006 117.061 61.303 116.999 60.9987C116.747 59.7322 116.281 58.4757 115.747 57.2446C115.399 56.433 115.033 55.6192 114.708 54.7703C113.438 50.9622 111.139 46.8569 108.046 42.7C106.144 39.9568 103.919 36.8423 100.794 34.173C98.8362 32.4816 96.5466 30.945 93.9686 29.7064C89.5704 27.3865 84.2924 25.2516 78.7476 24.2662C75.6639 23.6672 72.5357 23.4913 69.3697 23.4049C66.6019 23.3454 63.8073 23.3945 61.0064 23.6509C57.7721 23.9565 54.5187 24.1976 51.28 24.5794C49.0969 24.8834 46.9653 25.0273 44.7409 26.0409C40.9813 28.0071 37.2761 30.1158 34.0881 32.8597C30.4006 35.9972 26.8065 39.365 23.9216 43.0953C20.5701 48.4364 18.8231 53.7882 16.4635 59.113C16.3896 59.2869 16.3207 59.4636 16.2572 59.638C16.256 59.6414 16.2547 59.6448 16.2535 59.6482C15.5646 61.6243 15.2389 63.1507 15.0636 63.0547C14.9256 62.9493 14.9879 61.2592 15.7631 59.1727C15.8016 59.0737 15.8438 58.9695 15.8862 58.8698C18.2705 53.509 19.9159 48.3008 23.442 42.6925C26.3241 38.9625 29.9927 35.5194 33.6803 32.3846C36.9245 29.5924 40.6816 27.4577 44.4489 25.4872C46.9487 24.3592 49.0829 24.2609 51.3401 23.9419C54.5432 23.5688 57.7524 23.3295 60.947 23.0279C63.7675 22.7696 66.5709 22.7197 69.3557 22.7785C72.5507 22.8658 75.6957 23.0371 78.8729 23.653C84.405 24.6276 89.8866 26.8377 94.2387 29.1415C96.9638 30.4501 99.3777 32.0899 101.423 33.8902C104.491 36.5578 106.707 39.6723 108.551 42.3292C111.638 46.4659 114.032 50.7378 115.293 54.5393C115.7 55.6024 116.181 56.6262 116.617 57.6905C117.044 58.7275 117.4 59.8021 117.615 60.8672C117.74 61.4852 117.857 62.0904 117.965 62.6826C118.49 65.5084 118.782 68.0791 119.367 70.3281C119.762 71.2649 121.38 72.6674 122.59 73.7149C124.768 75.5705 127.001 77.2866 129.095 79.0677C132.536 81.7989 134.875 85.3951 136.802 88.6335C138.773 91.9671 140.291 95.214 141.848 97.9604C144.048 102.43 144.933 106.277 145.898 109.394C146.345 110.943 146.722 112.307 147.036 113.471C147.482 115.12 147.918 116.782 148.345 118.447C148.832 120.392 149.911 122.299 150.7 124.508C152.026 129.101 150.996 133.206 150.934 137.176C150.826 139.751 150.596 142.24 150.364 144.719C150.203 146.401 150.029 148.072 149.841 149.73C149.841 149.733 149.841 149.736 149.84 149.74C149.697 151.005 149.546 152.266 149.375 153.521C149.006 156.901 151.078 160.008 152.788 164.12C153.26 166.18 153.038 167.572 152.894 169.12C152.871 169.821 152.182 170.881 151.503 171.181C150.85 171.525 150.4 171.567 150.047 171.634C149.184 171.773 148.353 171.8 147.595 171.8C145.341 171.757 143.775 171.765 142.412 172.464C141.121 173.089 139.976 173.793 138.941 174.615C138.417 175.028 137.937 175.466 137.341 175.977C136.769 176.453 135.875 177.222 134.548 177.442C134.158 177.509 133.873 177.593 133.728 177.669C133.675 177.693 133.647 177.733 133.766 177.639C133.825 177.586 133.938 177.494 134.072 177.24C134.208 176.999 134.3 176.515 134.211 176.156C134.2 176.03 134.082 175.912 134.163 175.974C134.234 176.023 134.452 176.131 134.726 176.217C135.921 176.598 137.603 176.69 139.402 176.958C140.742 177.159 142.223 177.29 143.698 177.481C144.957 177.64 146.206 177.829 147.456 178.058C148.44 178.261 149.438 178.228 151.11 178.689C152.737 179.242 153.29 180.502 153.564 181.276C154.206 183.486 153.676 184.832 153.538 186.112C153.33 187.387 153.124 188.683 152.945 190.045C152.583 192.786 152.3 195.838 152.095 199.384C151.904 203.356 150.628 207.034 150.127 211.358C149.846 213.428 149.301 215.605 148.37 217.777ZM21.3279 53.9934C23.0863 50.0669 24.6575 46.417 25.8662 44.7282C25.9953 44.5742 26.1189 44.4241 26.2378 44.2785C26.1149 44.4263 25.9899 44.5754 25.8625 44.725C24.9066 46.0083 23.8829 48.3007 22.9864 50.2418C22.4238 51.4809 21.8728 52.7368 21.3279 53.9934ZM150.426 163.036C150.09 162.354 149.743 161.666 149.416 160.966C149.954 162.189 150.638 163.365 151.056 164.605C151.253 165.354 151.255 166.154 151.234 166.938C151.211 167.589 151.153 168.238 151.071 168.884C151.031 169.51 150.347 169.727 149.768 169.8C148.445 170.008 147.096 169.9 145.749 169.902C147.112 169.904 148.461 170.013 149.77 169.81C150.352 169.738 151.044 169.516 151.085 168.886C151.256 167.433 151.396 165.959 151.078 164.599C150.917 164.058 150.663 163.546 150.426 163.036ZM147.153 216.979C147.956 215.048 148.447 213.075 148.699 211.163C149.168 206.926 150.419 203.181 150.572 199.292C150.81 194.082 151.278 189.498 151.983 185.102C152.106 184.097 152.326 182.992 151.929 181.813C151.739 181.274 151.377 180.593 150.588 180.341C149.461 180.024 148.451 180.002 147.472 179.834C147.354 179.815 147.237 179.796 147.12 179.775C146.226 179.615 145.328 179.475 144.424 179.352C145.333 179.494 146.23 179.652 147.109 179.826C148.225 180.062 149.358 180.096 150.553 180.452C151.292 180.699 151.619 181.345 151.791 181.859C152.29 185.366 151.11 187.854 150.939 190.407C150.508 193.663 150.272 196.591 150.099 199.263C149.714 204.09 148.428 207.709 148.073 211.078C147.707 213.636 146.983 215.865 146.003 217.851C145.122 219.628 144.035 221.217 142.725 222.655C142.197 223.258 141.618 223.843 141.005 224.39C140.401 224.93 139.817 225.5 139.251 226.097C137.654 227.71 136.482 229.616 134.739 231.548C134.642 231.62 134.541 231.673 134.444 231.713C133.833 231.939 133.32 231.88 133.075 232.008C132.449 232.259 132.188 233.222 131.949 234.121C131.716 235.039 131.51 236 131.287 236.931C130.73 239.293 130.073 241.613 129.327 243.892C129.221 244.216 129.116 244.53 129.004 244.86C128.408 246.62 128.016 248.437 127.766 250.224C127.749 250.344 127.732 250.465 127.716 250.586C127.425 252.816 127.339 255.017 127.308 257.048C127.276 259.118 127.295 260.846 127.219 262.414C127.158 263.488 127.083 264.582 126.717 265.73C126.182 266.944 125.459 267.389 124.829 268.041C123.864 268.948 122.937 269.823 122.14 270.785C121.984 270.962 121.793 271.175 121.406 271.313C121.014 271.467 120.476 271.324 120.231 271.129C119.721 270.738 119.582 270.376 119.411 270.032C119.353 269.903 119.303 269.776 119.257 269.649C118.631 267.676 118.588 265.887 118.449 264.057C118.411 263.431 118.378 262.777 118.351 262.158C118.338 261.87 118.327 261.588 118.316 261.303C118.446 263.984 118.325 266.637 119.168 269.679C119.323 270.092 119.463 270.501 119.898 270.985C120.106 271.208 120.566 271.564 121.185 271.483C121.774 271.386 122.039 271.076 122.233 270.864C122.5 270.552 122.783 270.246 123.077 269.945C124.222 268.637 125.621 268.086 126.925 265.802C128.104 261.133 127.351 256.768 127.94 252.029C128.182 249.7 128.612 247.329 129.42 245.003C130.149 242.906 130.831 240.715 131.428 238.438C131.731 237.291 132.004 236.128 132.286 234.971C132.546 233.864 132.947 232.542 133.308 232.524C133.293 232.521 133.515 232.478 133.807 232.448C134.099 232.4 134.528 232.4 135.084 232.018C137.538 229.258 138.958 227.037 141.462 224.914C143.855 222.836 145.85 220.124 147.153 216.979ZM108.057 205.913C108.612 207.478 109.536 209.678 110.493 212.56C110.719 213.243 110.946 213.967 111.17 214.73C111.165 214.712 111.16 214.693 111.155 214.675C110.617 212.778 110.04 211.059 109.355 209.201C108.508 206.904 107.603 204.602 106.991 202.195C106.732 201.191 106.44 200.195 106.114 199.207C105.535 197.454 104.857 195.735 104.065 194.081C103.86 193.628 103.371 193.063 103.138 192.951C102.928 192.757 102.141 193.133 101.408 193.659C100.39 194.361 99.2597 195.177 97.9075 195.626C95.6344 196.365 93.3503 196.527 91.1164 196.663C89.4729 196.75 87.8539 196.781 86.2329 196.791C84.0301 196.74 82.2684 195.786 80.5855 194.862C79.592 194.295 78.6398 193.679 77.7041 193.053C79.799 194.433 81.9643 196.002 84.9206 196.703C85.3375 196.788 85.7749 196.843 86.2332 196.843C88.0769 196.839 89.9809 196.812 91.9852 196.686C92.9145 196.624 94.041 196.54 95.368 196.33C96.156 196.203 97.0198 196.029 97.9412 195.726C98.9745 195.388 99.9597 194.799 100.884 194.161C101.746 193.539 102.935 192.814 103.085 193.064C103.253 193.136 103.754 193.69 103.952 194.136C105.069 196.472 106.088 199.185 106.89 202.222C107.209 203.439 107.607 204.673 108.057 205.913ZM84.0156 174.689C83.8179 174.384 83.6098 174.074 83.4022 173.751C83.2122 173.457 82.9884 173.194 82.7321 172.961C81.3592 171.696 79.1451 171.488 76.9316 170.595C76.5652 170.44 76.1955 170.257 75.8364 170.026C74.7668 169.346 73.8112 168.457 73.0625 167.473C72.6476 166.933 72.2886 166.372 71.9596 165.832C71.494 165.068 71.0775 164.343 70.6049 163.732C70.4946 163.589 70.3894 163.443 70.2887 163.294C70.389 163.444 70.4936 163.59 70.6032 163.734C71.9482 165.608 73.2586 168.551 75.8187 170.054C78.895 171.79 82.0765 171.617 83.3414 173.79C84.0875 174.952 84.8335 176.015 85.0998 177.066C85.1183 177.139 85.1347 177.212 85.1483 177.284C85.0202 176.448 84.545 175.562 84.0156 174.689Z" fill="white"/>
</g>
</svg>
