<svg width="72" height="5" viewBox="0 0 72 5" fill="none" xmlns="http://www.w3.org/2000/svg">
<path d="M27.3946 5.38826e-05C27.83 -0.00172567 28.2381 0.0408111 28.7536 0.0946612C28.7539 0.0946612 28.7542 0.0946612 28.7545 0.0946612C28.8281 0.102354 28.904 0.110412 28.9824 0.118465C29.614 0.183321 30.4346 0.259434 31.6719 0.303102C33.0391 0.351361 34.1246 0.526078 34.7874 0.693738C34.911 0.725008 35.039 0.74219 35.3617 0.757827C35.5734 0.768082 35.8595 0.777339 36.2725 0.790787C36.4921 0.797939 36.7478 0.806171 37.047 0.816422C38.0377 0.850357 39.5902 0.839791 41.0208 0.82985C41.8891 0.823817 42.7126 0.818051 43.3381 0.822831C44.2529 0.829823 45.1356 0.861186 46.0952 0.895465C46.974 0.926857 47.9173 0.96074 49.0088 0.980001C49.8463 0.994786 50.6599 1.12172 51.4868 1.26352C51.592 1.28156 51.6977 1.2998 51.8035 1.31815C52.5331 1.44466 53.279 1.57419 54.0856 1.64835C55.5234 1.78055 56.6707 1.72592 57.941 1.66545C58.4379 1.64179 58.9536 1.6172 59.5129 1.60258C60.3975 1.57945 61.6691 1.58412 62.9459 1.59067C63.0547 1.59123 63.1636 1.59163 63.2722 1.5922C63.2728 1.5922 63.2733 1.5922 63.2739 1.5922C64.4426 1.59835 65.5898 1.60439 66.4314 1.59098C67.7687 1.56966 68.2719 1.51929 68.6916 1.47715C68.8493 1.46131 68.9953 1.44651 69.1695 1.43503C69.7965 1.39369 70.7431 1.40136 71.7027 1.40909C71.7063 1.40909 71.71 1.40909 71.7136 1.40909C71.8729 1.41037 72.0014 1.55155 72.0007 1.72435C71.9999 1.89716 71.8702 2.03631 71.7109 2.03502C71.2026 2.03093 70.7067 2.02697 70.2626 2.02984C70.2396 2.17831 70.12 2.2907 69.9767 2.28955C69.6179 2.28669 68.519 2.39855 66.7991 2.5813C66.9169 2.60837 67.0156 2.6347 67.1021 2.65974C67.2036 2.68912 67.2813 2.71439 67.3482 2.73603C67.4875 2.78114 67.5802 2.81091 67.7448 2.83278C68.1259 2.85763 68.725 2.8628 69.3554 2.86787C69.5146 2.8692 69.6431 3.0101 69.6424 3.18282C69.6417 3.35559 69.5119 3.49472 69.3527 3.4935C69.3495 3.4935 69.3464 3.4935 69.3433 3.4935C68.719 3.48847 68.1007 3.48337 67.7025 3.45688C67.6012 3.45014 67.514 3.44216 67.4484 3.4349C67.3961 3.42911 67.3307 3.42124 67.2943 3.4111C67.2895 3.40975 67.2803 3.40703 67.2694 3.40286C67.2692 3.40276 67.269 3.40266 67.2688 3.40255C67.2627 3.40025 67.2314 3.38859 67.1979 3.36319C67.1912 3.35805 67.1765 3.3466 67.1595 3.32809C67.1551 3.32667 67.1507 3.32524 67.1463 3.32382C67.0851 3.30405 67.0225 3.2839 66.9549 3.26431C66.6907 3.18782 66.2722 3.09142 65.4008 2.98934C64.5994 2.89545 63.2445 2.85335 61.5539 2.85261C61.6682 2.86555 61.7826 2.8781 61.897 2.89015C62.1848 2.92043 62.474 2.94805 62.7633 2.97438C62.8741 2.98444 62.9834 2.99429 63.0948 3.00398C63.2741 3.01966 63.4539 3.03505 63.6337 3.05007C63.7551 3.06023 63.8769 3.07023 63.9984 3.08028C63.9987 3.08028 63.999 3.08028 63.9992 3.08028C64.168 3.09423 64.3372 3.10827 64.5076 3.1227C64.5673 3.12807 64.6263 3.13323 64.6848 3.13827C64.9178 3.1583 65.1467 3.17776 65.4102 3.21548C65.4422 3.22172 65.477 3.22981 65.503 3.23653C65.5309 3.24363 65.5578 3.25085 65.5832 3.2582C65.6056 3.26469 65.627 3.27129 65.6475 3.27743C65.6502 3.27824 65.653 3.27906 65.6557 3.27987C65.6786 3.28674 65.7006 3.29309 65.7216 3.2991C65.7427 3.30509 65.7629 3.31087 65.7829 3.31588C65.7831 3.31588 65.7833 3.31588 65.7834 3.31588C65.8043 3.32102 65.8201 3.32489 65.8422 3.32931C65.87 3.33485 65.8938 3.33912 65.9227 3.34335C65.9506 3.34746 65.9798 3.35113 66.0092 3.35434C66.0386 3.35754 66.0686 3.36034 66.099 3.36288C66.1295 3.36543 66.1604 3.36779 66.1916 3.3699C66.2227 3.37201 66.2543 3.37384 66.2861 3.3757C66.3178 3.37755 66.3499 3.37942 66.3822 3.38119C66.4565 3.38532 66.5277 3.41999 66.58 3.47885C66.6322 3.53772 66.6613 3.61557 66.661 3.69614C66.6606 3.77673 66.6308 3.85417 66.578 3.91221C66.5253 3.97022 66.4537 4.00388 66.3795 4.00682C66.3592 4.00761 66.3389 4.0085 66.3185 4.00926C66.3064 4.00972 66.2941 4.01005 66.282 4.01048C66.2492 4.01165 66.2161 4.01295 66.1828 4.01384C66.1495 4.01472 66.116 4.0153 66.082 4.01567C66.048 4.01603 66.0134 4.01615 65.9784 4.01567C65.9435 4.01519 65.9079 4.01415 65.8716 4.01231C65.8362 4.01058 65.7959 4.00755 65.7598 4.00377C65.7335 4.00111 65.7009 3.99657 65.6739 3.99248C65.6456 3.9882 65.6177 3.98342 65.5909 3.97844C65.564 3.97345 65.538 3.96816 65.5132 3.96318C65.5105 3.96267 65.5079 3.96216 65.5052 3.96165C65.4832 3.95725 65.4621 3.95295 65.442 3.94914C65.4197 3.94488 65.3984 3.94125 65.3783 3.93815C65.3561 3.93467 65.3427 3.93329 65.3261 3.93174C65.1076 3.92169 64.8375 3.92376 64.5799 3.92564C64.5475 3.92588 64.5153 3.92604 64.4835 3.92625C64.3143 3.92772 64.1454 3.92957 63.9767 3.93144C63.8541 3.9328 63.7313 3.9342 63.6084 3.93541C63.4275 3.9372 63.2461 3.93862 63.0648 3.93968C62.9523 3.94029 62.8418 3.94069 62.7295 3.9409C62.4363 3.9415 62.1421 3.94066 61.8475 3.93693C61.5534 3.9332 61.2574 3.92668 60.9612 3.91557C60.6662 3.9045 60.3596 3.88794 60.0636 3.86277C59.846 3.84396 59.6229 3.81117 59.4165 3.77732C59.3056 3.75909 59.197 3.74059 59.09 3.72208C59.0896 3.72198 59.0892 3.72188 59.0889 3.72178C58.9949 3.70553 58.9022 3.68945 58.8101 3.67417C58.6126 3.64126 58.4187 3.61193 58.2248 3.58719C58.0312 3.56245 57.8383 3.54227 57.6441 3.52677C57.4514 3.51142 57.2554 3.50032 57.0613 3.4935C56.8663 3.48662 56.6748 3.48383 56.4735 3.48404C56.2089 3.48464 55.9462 3.49023 55.6765 3.49686C55.4087 3.50362 55.1388 3.51209 54.8681 3.52066C54.7735 3.52367 54.6788 3.52646 54.5839 3.52951C54.5835 3.52951 54.5831 3.52951 54.5828 3.52951C54.4072 3.53516 54.2313 3.54085 54.0551 3.5463C53.7832 3.5547 53.5106 3.5627 53.2369 3.56919C52.9633 3.57564 52.688 3.58071 52.4113 3.58261C52.1345 3.58435 51.8503 3.5833 51.5648 3.57315C51.3101 3.56439 51.0533 3.5527 50.8023 3.54111C50.736 3.53806 50.6698 3.53501 50.6035 3.53195C50.289 3.51768 49.9845 3.50629 49.6834 3.50418C49.3825 3.50182 49.0818 3.50828 48.7783 3.52188C48.4758 3.53543 48.1695 3.55571 47.8607 3.58017C47.5506 3.60474 47.2444 3.63307 46.9321 3.6641C46.6221 3.695 46.3107 3.72818 45.9955 3.76328C45.8203 3.78272 45.6338 3.80058 45.4577 3.81577C45.2799 3.83112 45.1031 3.84468 44.9287 3.85728C44.8579 3.8624 44.7874 3.86728 44.7175 3.87223C44.6155 3.87946 44.5144 3.88651 44.4148 3.8939C44.2468 3.90638 44.0829 3.91973 43.9237 3.93541C43.7646 3.95108 43.6101 3.9693 43.4609 3.99156C43.3065 4.01469 43.1792 4.03821 43.0269 4.07182C42.6562 4.13665 42.4264 4.15656 42.1711 4.17894C42.1208 4.18335 42.0695 4.18804 42.0159 4.19298C41.7098 4.21809 41.4039 4.23681 41.1021 4.25097C40.7974 4.26514 40.4974 4.2747 40.1935 4.28027C39.8926 4.2858 39.5896 4.28712 39.2877 4.28484C38.9863 4.28257 38.6854 4.27659 38.3838 4.26684C38.0824 4.25712 37.7747 4.24331 37.4793 4.22655C37.3086 4.2169 37.1273 4.20404 36.9589 4.19085C36.8374 4.18135 36.7176 4.17136 36.6002 4.16155C36.5522 4.15754 36.5045 4.15355 36.4573 4.14965C36.2946 4.1362 36.1364 4.12373 35.9835 4.11425C35.8307 4.10473 35.6828 4.09805 35.538 4.09563C35.393 4.09318 35.2512 4.09499 35.1093 4.10112C34.9622 4.10769 34.84 4.11648 34.6838 4.13256C34.5821 4.14317 34.4825 4.15388 34.3831 4.1646C34.2343 4.18065 34.0866 4.19703 33.9379 4.21404C33.7893 4.23103 33.6426 4.24839 33.4951 4.26653C33.4477 4.27236 33.3976 4.27852 33.3501 4.28454C33.2032 4.30313 33.0579 4.32227 32.9128 4.34252C32.768 4.36274 32.6245 4.38386 32.4816 4.40631C32.3381 4.42884 32.197 4.45231 32.0531 4.47772C31.8086 4.52106 31.5745 4.54116 31.3695 4.55463C31.1621 4.56794 30.9682 4.57533 30.7795 4.5824C30.7442 4.58372 30.7089 4.58504 30.6735 4.58637C30.5213 4.5919 30.3716 4.59713 30.2242 4.60346C30.0424 4.61122 29.864 4.62048 29.685 4.63153C29.5076 4.64245 29.3284 4.65525 29.1519 4.67029C28.9738 4.68551 28.8034 4.70197 28.6199 4.72217C28.4383 4.742 28.254 4.76787 28.0519 4.79603C27.8516 4.82398 27.6415 4.85271 27.4287 4.87782C27.2161 4.90301 27.0001 4.92479 26.7857 4.94191C26.5708 4.95912 26.3553 4.97215 26.1427 4.98127C25.929 4.99048 25.7166 4.99587 25.5052 4.99836C25.2944 5.00087 25.0765 5.00044 24.8727 4.99745C24.5425 4.99261 24.2139 4.98578 23.8847 4.97822C23.5573 4.97063 23.2289 4.96216 22.9012 4.9532C22.574 4.94424 22.2465 4.93488 21.9195 4.92512C21.5924 4.91536 21.2653 4.90533 20.9387 4.89521C20.8665 4.89297 20.7942 4.89074 20.722 4.8885C20.4676 4.88061 20.2133 4.8727 19.9601 4.865C19.9583 4.8649 19.9566 4.8648 19.9549 4.86469C19.6289 4.85489 19.3088 4.84536 18.9856 4.83723C18.8669 4.83432 18.7529 4.83158 18.637 4.82929C18.521 4.82702 18.4072 4.82517 18.2923 4.8238C18.1773 4.82244 18.063 4.82168 17.9504 4.82166C17.8366 4.82169 17.7256 4.82239 17.6137 4.82441C17.511 4.82617 17.4091 4.82935 17.2978 4.83265C17.2876 4.83295 17.2775 4.83326 17.2673 4.83356C17.1455 4.8372 17.0069 4.8395 16.8781 4.83784C16.537 4.83291 16.2045 4.83058 15.866 4.83082C15.5273 4.83104 15.1894 4.83374 14.8486 4.83753C14.7156 4.83899 14.5819 4.84079 14.4482 4.84242C14.2402 4.84494 14.0314 4.84747 13.822 4.84943C13.4774 4.8527 13.1321 4.85419 12.7846 4.85218C12.4384 4.85018 12.0899 4.84454 11.743 4.83479C11.3965 4.82507 11.0468 4.81131 10.7018 4.79389C10.3174 4.7744 9.93518 4.75287 9.55125 4.73041C9.16795 4.70792 8.78444 4.68437 8.40262 4.66022C8.01941 4.63604 7.63717 4.6112 7.25481 4.58575C6.87222 4.5603 6.48989 4.53424 6.10728 4.50763C5.87829 4.49169 5.64938 4.47546 5.42035 4.4591C5.29918 4.47379 5.18301 4.48818 5.07126 4.50183C4.24551 4.60269 3.64846 4.67543 2.86078 4.72553C2.78535 4.73312 2.72397 4.74392 2.64929 4.75696C2.63505 4.75945 2.61994 4.76194 2.60453 4.76459C2.50693 4.78138 2.39486 4.79895 2.23895 4.81007C1.92793 4.83223 1.4512 4.82741 0.835159 4.68128C0.67954 4.64436 0.580516 4.47773 0.614056 4.30895C0.637636 4.19057 0.720288 4.1026 0.821151 4.07335C0.634803 4.05327 0.448956 4.03226 0.263589 4.0114C0.189599 4.00304 0.120137 3.9642 0.0707768 3.90245C0.021445 3.84067 -0.0037974 3.76133 0.000463604 3.68088C0.004726 3.60042 0.0383064 3.52495 0.0938484 3.47C0.149371 3.41512 0.22222 3.38539 0.296548 3.38669C0.493728 3.39027 0.690241 3.3939 0.886795 3.39645C1.08351 3.39904 1.2793 3.40055 1.47567 3.40133C1.67198 3.40212 1.86823 3.40202 2.06509 3.40133C2.26118 3.40061 2.45767 3.39945 2.65451 3.39767C2.8526 3.39593 3.04696 3.3935 3.24449 3.39096C3.36283 3.38941 3.4826 3.38787 3.60017 3.38608C3.64399 3.38546 3.68675 3.38461 3.72954 3.38394C3.76451 3.38339 3.79965 3.38294 3.83583 3.38241C4.21642 3.37628 4.60065 3.36942 4.98144 3.36197C5.36403 3.35455 5.74624 3.34671 6.12843 3.33847C6.51083 3.33022 6.8929 3.32144 7.27514 3.31253C7.65719 3.3036 8.03902 3.29438 8.42157 3.28475C8.80272 3.27509 9.18541 3.26522 9.56718 3.25454C9.86249 3.24629 10.1553 3.23743 10.4486 3.22799C10.564 3.21185 10.6783 3.19659 10.7911 3.18191C11.1193 3.13916 11.4481 3.08306 11.7719 3.02748C11.1955 3.05512 10.7325 3.09828 10.2917 3.13949C10.2326 3.14501 10.1739 3.15056 10.1154 3.15597C9.51796 3.21117 8.9408 3.2579 8.16449 3.24752C5.95661 3.218 4.6764 3.19646 3.87868 3.15627C3.0811 3.11608 2.73841 3.0565 2.41858 2.93806C1.96665 2.77069 1.09439 2.67549 0.65608 2.67194C0.496857 2.67066 0.368337 2.52946 0.369059 2.35669C0.369827 2.18388 0.499575 2.04473 0.658826 2.04601C1.12165 2.04974 2.06551 2.14651 2.60343 2.3457C2.84301 2.43443 3.11852 2.49168 3.90395 2.53125C4.68946 2.57083 5.95786 2.59201 8.16998 2.62159C8.91835 2.63159 9.47378 2.58709 10.0649 2.53247C10.1228 2.52712 10.1812 2.5215 10.2401 2.51599C10.2405 2.51599 10.2408 2.51599 10.2412 2.51599C10.7842 2.46522 11.3754 2.40987 12.1726 2.38538C14.0102 2.32891 16.482 2.21946 17.0687 2.15771C17.1839 2.14559 17.2952 2.13198 17.4126 2.11773C17.8633 2.06303 18.4074 1.99705 19.6335 1.95323C19.9017 1.94365 20.2158 1.93808 20.5586 1.93553C21.0729 1.85132 21.5723 1.77319 22.0066 1.72679C22.3814 1.68675 22.727 1.61308 23.0618 1.53238C23.1582 1.50915 23.2553 1.48486 23.3521 1.46067C23.5858 1.40233 23.8195 1.34402 24.0473 1.29892C24.2289 1.26297 24.419 1.21977 24.62 1.1741C25.352 1.00772 26.2292 0.808351 27.3724 0.805741C28.5841 0.802975 29.6216 0.838962 30.5164 0.874102C29.8593 0.833451 29.352 0.784744 28.9294 0.741347C28.8497 0.733161 28.7733 0.725209 28.6998 0.717543C28.1804 0.663393 27.8028 0.624026 27.3982 0.625682C25.4653 0.63359 24.7403 0.686642 23.9223 0.839921C23.707 0.880278 23.4694 0.93404 23.2134 0.991903C22.7019 1.10755 22.1167 1.23978 21.488 1.3154C20.9024 1.38583 20.2475 1.4898 19.5536 1.59983C19.5533 1.59983 19.553 1.59983 19.5528 1.59983C19.4172 1.62133 19.28 1.64306 19.1416 1.66483C18.2979 1.79759 17.4105 1.93108 16.5466 2.01519C16.4542 2.02418 16.3435 2.03659 16.2165 2.05089C15.483 2.13347 14.1954 2.27844 12.6231 2.18548C12.2777 2.16506 11.9188 2.12179 11.5093 2.07226C11.3846 2.05717 11.2551 2.04131 11.1198 2.02556C10.5361 1.95756 9.82684 1.88531 8.88245 1.84184C8.10307 1.80596 7.15321 1.78876 6.16688 1.77073C5.68104 1.76185 5.18635 1.75263 4.69882 1.74113C3.22614 1.7064 1.87638 1.65132 0.529186 1.59617C0.528912 1.59617 0.528637 1.59617 0.528362 1.59617C0.369207 1.58965 0.244539 1.44414 0.250131 1.27145C0.255781 1.09885 0.389331 0.964076 0.548412 0.970541C1.89641 1.02573 3.24204 1.08089 4.7098 1.1155C5.18993 1.12682 5.68074 1.13595 6.16468 1.1448C7.15581 1.16293 8.11888 1.18031 8.90553 1.21652C9.86597 1.26073 10.5882 1.33435 11.18 1.40329C11.3225 1.4199 11.4565 1.43613 11.5837 1.45151C11.9887 1.50047 12.3254 1.5414 12.653 1.56077C14.1755 1.65078 15.4144 1.51157 16.1505 1.42893C16.2811 1.41427 16.3959 1.40151 16.4936 1.392C17.3405 1.30955 18.2143 1.17825 19.0573 1.04562C19.194 1.0241 19.3301 1.00263 19.4651 0.981222C19.4654 0.98112 19.4657 0.981019 19.466 0.980917C20.1597 0.870897 20.8264 0.765172 21.4229 0.693433C22.0284 0.620615 22.5564 0.500677 23.0503 0.388554C23.3153 0.328389 23.5706 0.270688 23.8226 0.223449C24.6904 0.0608368 25.4555 0.00798655 27.3946 5.38826e-05ZM1.10927 4.10356C1.4923 4.18199 1.80439 4.19852 2.0368 4.19329C1.83942 4.17547 1.64251 4.15678 1.44546 4.13744C1.3333 4.12644 1.22127 4.11515 1.10927 4.10356ZM20.6055 2.56086C20.5435 2.57104 20.481 2.58133 20.4182 2.59168C20.5914 2.58678 20.7647 2.58222 20.9376 2.57764C21.15 2.57202 21.3623 2.56672 21.5745 2.56147C21.2371 2.55941 20.91 2.55882 20.6055 2.56086ZM27.3751 1.43167C26.2971 1.43414 25.4915 1.61667 24.765 1.78142C24.5558 1.82886 24.3529 1.87474 24.1522 1.91448C24.069 1.93095 23.9858 1.94917 23.902 1.96849C24.3902 1.9783 24.839 1.98861 25.2064 1.99718C26.3026 2.02276 26.9265 2.07608 27.4748 2.12292C27.6334 2.13647 27.7859 2.14942 27.9415 2.16106C28.0702 2.14006 28.2038 2.11923 28.3389 2.10094C28.528 2.0751 28.7324 2.0503 28.9269 2.02922C29.1222 2.00802 29.3206 1.98905 29.5155 1.97307C29.712 1.95695 29.9067 1.94351 30.1006 1.93187C30.2829 1.92087 30.4647 1.91158 30.6406 1.90257C30.6506 1.90206 30.6607 1.90156 30.6708 1.90105C30.8566 1.89146 31.0375 1.88229 31.2036 1.86961C31.3727 1.85659 31.5133 1.84124 31.6381 1.81804C31.794 1.78914 31.9538 1.76141 32.1119 1.73564C32.2702 1.70982 32.4278 1.68579 32.5849 1.66331C32.7423 1.64078 32.8982 1.61974 33.0546 1.59983C33.1051 1.59339 33.158 1.58677 33.2081 1.5806C33.2312 1.57776 33.2543 1.57485 33.2773 1.57206C32.9715 1.5699 32.654 1.56654 32.3259 1.56138C31.8518 1.55392 31.3457 1.53347 30.7875 1.51102C29.8352 1.47273 28.731 1.42858 27.3751 1.43167ZM37.9125 1.51621C37.7795 1.51784 37.5849 1.52273 37.3338 1.52903C37.2744 1.53052 37.2118 1.53229 37.1462 1.53391C37.1477 1.53406 37.1493 1.53406 37.1508 1.53422C37.3135 1.55016 37.4636 1.56406 37.6257 1.57694C37.9147 1.59978 38.1953 1.61937 38.4788 1.63615C38.7634 1.65296 39.0472 1.66673 39.3314 1.67765C39.6159 1.68859 39.9013 1.69644 40.1842 1.70115C40.4698 1.70584 40.7514 1.70766 41.0357 1.70542C41.1262 1.70472 41.217 1.70359 41.3078 1.70207C41.1051 1.68632 40.8946 1.67333 40.6723 1.65965C40.4947 1.64872 40.3095 1.63729 40.1147 1.62363C40.0402 1.61841 39.95 1.6104 39.8447 1.60105C39.4276 1.56399 38.7732 1.50568 37.9125 1.51621ZM43.5754 1.52964C43.6414 1.52549 43.707 1.52174 43.7718 1.51865C43.9564 1.50986 44.1363 1.50483 44.3126 1.50095C44.4365 1.49825 44.5589 1.49631 44.6796 1.49424C44.7305 1.49336 44.7814 1.4924 44.8317 1.49149C44.9161 1.48997 44.9999 1.48816 45.0831 1.4863C44.4998 1.46745 43.9296 1.453 43.3354 1.44846C43.3276 1.4484 43.3197 1.44852 43.3118 1.44846C43.4017 1.47609 43.4896 1.50316 43.5754 1.52964Z" fill="black"/>
</svg>
