<svg width="595" height="194" viewBox="0 0 595 194" fill="none" xmlns="http://www.w3.org/2000/svg">
<path d="M593.699 19.9837C594.035 21.6397 594.197 23.313 594.194 24.9741C594.176 32.6613 594.101 40.2369 594.009 49.4466C594.009 49.4524 594.009 49.4581 594.009 49.4639C593.994 51.0081 593.977 52.5994 593.961 54.2438C593.832 67.4856 593.679 84.6914 593.592 110.635C593.508 135.503 593.234 155.926 592.944 169.974C592.901 172.519 592.451 174.871 591.767 176.935C590.663 179.701 589.864 183.221 583.775 188.388C580.685 190.797 575.922 193.389 569.198 193.41C567.435 193.405 565.538 193.399 563.492 193.393C558.887 193.378 553.527 193.362 547.252 193.341C526.48 193.273 493.927 193.295 463.932 193.314C445.726 193.326 428.459 193.338 415.343 193.328C396.163 193.314 377.655 193.252 357.535 193.183C339.11 193.12 319.33 193.053 296.444 193.014C278.885 192.985 261.825 192.731 244.487 192.447C242.281 192.411 240.065 192.375 237.847 192.338C222.548 192.085 206.909 191.826 189.996 191.677C159.85 191.413 135.794 191.522 109.158 191.643C98.7408 191.691 87.927 191.74 76.1998 191.769C61.8299 191.805 42.588 191.807 22.1982 191.8C15.7203 191.851 9.1913 188.737 5.12156 183.556C3.57235 181.611 2.35626 179.394 1.55332 177.041C1.54925 177.029 1.54519 177.018 1.54114 177.006C0.769734 174.738 0.383737 172.352 0.385914 169.974C0.396801 147.777 0.404631 126.399 0.380203 110.331C0.337567 82.2902 0.236819 71.74 0.152535 62.9407C0.120852 59.633 0.0912652 56.5708 0.0683041 52.9201C0.0209916 45.3969 0.0057776 35.6801 0.00431442 24.9741C-0.191934 16.0498 6.13231 6.70079 15.3788 3.8609C15.46 3.83469 15.5416 3.80888 15.623 3.78364C19.1959 2.66756 22.2415 3.09665 22.1982 3.42281C22.1747 3.78426 19.2714 3.93753 15.9361 4.99733C7.00705 7.66592 1.06391 16.61 1.25608 24.9741C1.25632 26.6801 1.2569 28.3568 1.25791 29.9996C1.55486 30.4823 1.77964 32.9896 1.77734 35.9946C1.77162 43.5177 1.99534 66.5588 2.36085 102.62C2.41497 100.15 2.46764 98.0806 2.51771 96.2676C2.57648 94.1395 2.62702 92.5093 2.67031 91.1076C2.76053 88.186 2.82007 86.2421 2.86379 82.7917C2.9135 74.7999 2.92384 62.2393 2.93399 49.0213C2.93664 45.6838 3.21844 42.9884 3.56389 43.0032C3.90943 43.0194 4.18767 45.7409 4.18524 49.0789C4.18524 49.1442 4.18524 49.2094 4.18524 49.2747C4.17519 62.3661 4.16498 75.33 4.112 83.6786C4.09851 85.8026 4.08256 87.632 4.06805 89.0056C4.05646 90.1038 4.04072 91.4746 4.02044 92.2364C4.01774 92.3375 4.0123 92.5304 4.00396 92.7604C4.00376 92.7643 4.00356 92.7681 4.00335 92.7719C3.99875 92.9006 3.97542 93.5572 3.92461 94.2578C3.91435 94.3992 3.89144 94.7069 3.85442 95.064C3.85157 95.1562 3.84873 95.2483 3.84588 95.3404C3.80634 96.625 3.76604 97.9357 3.72686 99.3544C3.57388 104.894 3.38108 113.667 3.17691 131.938C3.07245 141.288 3.00004 154.228 2.9561 169.974C2.57587 179.124 10.8653 189.408 22.1982 189.266C25.8483 189.268 29.5859 189.269 33.4051 189.269C31.0103 189.243 28.6103 189.218 26.2122 189.194C24.8756 189.18 23.5374 189.167 22.1982 189.154C17.6739 189.126 13.2033 187.425 9.81693 184.454C8.14886 182.999 6.75307 181.28 5.67357 179.342C4.08299 176.494 3.25758 173.235 3.29053 169.974C3.29315 169.647 3.29577 169.319 3.29838 168.991C3.31871 166.445 3.3387 163.892 3.3588 161.344C3.3588 161.338 3.3588 161.332 3.3588 161.326C3.38671 157.788 3.41478 154.241 3.44364 150.667C3.45439 149.415 3.4647 148.179 3.47477 146.952C3.51485 142.067 3.55376 137.268 3.6292 131.743C3.64169 131.071 3.65785 130.341 3.67131 129.796C3.6855 129.211 3.69995 128.647 3.71465 128.115C3.72762 127.645 3.74082 127.197 3.7531 126.767C3.75473 126.709 3.75636 126.652 3.75798 126.594C3.77173 126.113 3.78443 125.654 3.79644 125.212C3.80843 124.771 3.81998 124.346 3.83001 123.928C3.83001 123.924 3.83001 123.92 3.83001 123.916C3.84028 123.479 3.84801 123.147 3.85686 122.684C3.86795 122.102 3.87648 121.602 3.88494 120.996C3.89317 120.411 3.9005 119.8 3.90691 119.182C3.91331 118.566 3.91892 117.937 3.924 117.299C3.9291 116.661 3.93383 116.012 3.93804 115.359C3.94225 114.705 3.94593 114.043 3.94964 113.377C3.95335 112.711 3.95707 112.038 3.96063 111.362C3.96888 109.804 4.03822 108.311 4.15594 107.215C4.27368 106.12 4.42938 105.509 4.59053 105.516C4.7517 105.524 4.90659 106.149 5.02267 107.256C5.13869 108.363 5.20601 109.861 5.21188 111.419C5.21346 111.844 5.21523 112.27 5.21677 112.698C5.21768 112.952 5.21834 113.208 5.21921 113.464C5.22154 114.151 5.22414 114.845 5.22592 115.543C5.22769 116.24 5.22885 116.944 5.22958 117.656C5.23031 118.37 5.23055 119.094 5.22958 119.827C5.22861 120.559 5.22654 121.308 5.22287 122.068C5.21941 122.809 5.21335 123.655 5.20578 124.412C5.20046 124.965 5.19138 125.646 5.1832 126.214C5.17464 126.807 5.16507 127.391 5.15512 127.953C5.14514 128.517 5.13456 129.062 5.1246 129.583C5.12358 129.639 5.12257 129.694 5.12155 129.75C5.11273 130.21 5.10414 130.655 5.09652 131.075C5.088 131.544 5.08074 131.989 5.07455 132.411C5.06758 132.876 5.06483 133.158 5.06173 133.505C5.04162 138.087 5.04576 143.751 5.04952 149.152C5.05 149.831 5.05033 150.506 5.05075 151.173C5.05369 154.721 5.05739 158.261 5.06112 161.799C5.06383 164.37 5.06664 166.944 5.06906 169.521C5.0692 169.672 5.06934 169.823 5.06948 169.974C5.06722 173.107 5.93856 176.216 7.57329 178.881C8.62807 180.604 9.96461 182.115 11.5418 183.372C14.5371 185.768 18.3405 187.104 22.1982 187.095C23.881 187.097 25.5645 187.098 27.2488 187.1C33.4161 187.108 39.6225 187.121 45.8329 187.143C52.0193 187.165 58.4469 187.198 64.653 187.249C69.2157 187.286 73.8936 187.352 78.2211 187.419C80.5469 187.456 82.8243 187.493 85.0685 187.53C85.0762 187.53 85.0838 187.53 85.0915 187.531C87.0613 187.563 89.0059 187.595 90.9368 187.626C95.0765 187.692 99.1429 187.75 103.209 187.8C107.269 187.849 111.311 187.89 115.384 187.921C119.425 187.951 123.535 187.973 127.604 187.987C131.694 188.001 135.709 188.006 139.928 188.006C145.476 188.005 150.985 187.994 156.641 187.98C162.255 187.967 167.914 187.95 173.589 187.933C175.573 187.927 177.56 187.921 179.55 187.915C179.557 187.915 179.565 187.915 179.573 187.915C183.253 187.904 186.943 187.892 190.636 187.882C196.337 187.865 202.053 187.849 207.791 187.836C213.528 187.823 219.301 187.813 225.103 187.809C230.905 187.805 236.865 187.808 242.852 187.828C248.193 187.845 253.576 187.869 258.839 187.892C260.228 187.898 261.618 187.904 263.008 187.91C269.603 187.939 275.987 187.962 282.301 187.966C288.609 187.97 294.914 187.958 301.276 187.93C307.619 187.903 314.042 187.863 320.517 187.814C327.02 187.765 333.439 187.708 339.988 187.646C346.487 187.584 353.017 187.518 359.626 187.448C363.3 187.409 367.209 187.373 370.902 187.343C374.631 187.312 378.336 187.285 381.993 187.26C383.478 187.249 384.955 187.24 386.422 187.23C388.561 187.215 390.681 187.201 392.768 187.186C396.291 187.161 399.727 187.135 403.065 187.103C406.402 187.072 409.641 187.036 412.769 186.991C416.007 186.945 418.676 186.898 421.868 186.83C429.643 186.701 434.46 186.661 439.813 186.616C440.867 186.607 441.945 186.598 443.067 186.588C449.486 186.538 455.898 186.5 462.227 186.472C468.617 186.444 474.907 186.425 481.277 186.414C487.587 186.403 493.941 186.4 500.27 186.404C506.59 186.409 512.898 186.421 519.223 186.44C525.543 186.46 531.994 186.488 538.187 186.521C541.767 186.54 545.569 186.566 549.1 186.592C551.648 186.611 554.16 186.631 556.622 186.651C557.627 186.659 558.627 186.667 559.616 186.675C562.904 186.701 566.103 186.725 569.198 186.744C569.298 186.744 569.397 186.744 569.496 186.743C572.193 186.717 574.773 186.039 577.029 184.852C579.29 183.665 581.229 181.977 582.707 179.96C584.216 177.857 585.122 175.838 585.633 173.151C585.822 172.094 585.907 171.032 585.895 169.974C585.886 169.141 585.878 168.311 585.869 167.482C585.837 164.363 585.804 161.266 585.77 158.147C585.736 155.031 585.701 151.955 585.665 148.863C585.654 147.869 585.641 146.819 585.629 145.822C585.592 142.742 585.554 139.697 585.513 136.654C585.473 133.618 585.431 130.609 585.386 127.613C585.341 124.604 585.294 121.646 585.243 118.629C585.156 113.501 585.116 108.593 585.089 104.295C585.062 99.9452 585.048 95.8807 585.033 91.9245C585.031 91.1835 585.028 90.4426 585.026 89.7016C585.014 86.5104 585.004 83.3717 584.991 80.2799C584.976 76.4694 584.957 72.7284 584.935 68.9752C584.913 65.2546 584.888 61.4972 584.858 57.7971C584.827 54.0622 584.794 50.4906 584.754 46.642C584.714 42.8356 584.662 38.9696 584.606 34.7325C584.564 31.5756 584.521 28.3013 584.481 24.9741C584.468 24.1282 584.387 23.2862 584.237 22.4569C583.644 19.1157 581.859 15.9675 579.292 13.7219C576.731 11.4569 573.42 10.1207 570.064 9.96102C569.776 9.94636 569.489 9.93977 569.198 9.94121C565.103 9.95688 561.031 9.96628 556.977 9.97085C552.556 9.97587 547.989 9.975 543.714 9.96902C536.792 9.95935 529.902 9.94569 522.999 9.93057C516.135 9.91538 509.248 9.89843 502.376 9.88052C495.517 9.86259 488.65 9.84388 481.794 9.82436C474.935 9.80484 468.077 9.78479 461.229 9.76454C459.714 9.76007 458.2 9.75559 456.685 9.75112C451.352 9.73533 446.02 9.71952 440.71 9.70412C440.673 9.70392 440.637 9.70371 440.6 9.70351C433.766 9.68391 427.055 9.66484 420.277 9.64857C417.789 9.64276 415.398 9.63728 412.969 9.63271C410.537 9.62815 408.15 9.62445 405.742 9.62172C403.33 9.619 400.932 9.61748 398.572 9.61745C396.185 9.6175 393.859 9.61891 391.511 9.62294C389.359 9.62647 387.223 9.63282 384.888 9.63942C384.675 9.64003 384.462 9.64064 384.249 9.64125C381.695 9.64852 378.79 9.65313 376.089 9.6498C368.936 9.63994 361.964 9.63529 354.867 9.63576C347.766 9.6362 340.681 9.6416 333.536 9.64919C330.746 9.65211 327.943 9.65571 325.139 9.65895C320.778 9.664 316.4 9.66906 312.009 9.67299C304.784 9.67953 297.544 9.68249 290.258 9.67848C282.999 9.67448 275.693 9.6632 268.42 9.64369C261.152 9.62427 253.822 9.59674 246.588 9.5619C238.527 9.52292 230.513 9.47987 222.463 9.43495C214.427 9.38997 206.385 9.34286 198.38 9.29456C190.345 9.2462 182.33 9.19653 174.313 9.14563C166.291 9.09471 158.274 9.0426 150.252 8.98938C145.451 8.9575 140.651 8.92505 135.849 8.89233C133.308 8.9217 130.873 8.95048 128.529 8.97778C111.216 9.1795 98.6971 9.32499 82.1815 9.42518C80.5998 9.44035 79.3129 9.46197 77.7471 9.48805C77.4484 9.49302 77.1315 9.498 76.8084 9.50331C74.7622 9.53689 72.4123 9.57203 69.1433 9.59425C62.622 9.63858 52.6262 9.62894 39.7094 9.33668C36.4465 9.26284 34.3702 8.92957 35.0734 8.59203C35.5678 8.35526 37.3008 8.17933 39.4157 8.12082C35.5084 8.08066 31.6117 8.03865 27.725 7.99692C26.1737 7.9802 24.7172 7.90252 23.6822 7.77902C22.6479 7.65547 22.1186 7.49677 22.208 7.33589C22.2973 7.17496 23.0014 7.02401 24.166 6.91412C25.3302 6.80436 26.8576 6.7449 28.4161 6.74749C32.5504 6.75466 36.6708 6.76191 40.792 6.76702C44.9167 6.7722 49.0219 6.77522 53.1392 6.77679C57.2554 6.77837 61.3702 6.77817 65.4979 6.77679C69.6095 6.77534 73.7293 6.77303 77.8566 6.76947C82.01 6.76599 86.0851 6.76111 90.2268 6.75604C92.7081 6.75293 95.2194 6.74986 97.6846 6.74627C98.6034 6.74504 99.5 6.74335 100.397 6.742C101.13 6.7409 101.867 6.74 102.626 6.73895C110.606 6.72668 118.662 6.71295 126.646 6.69805C134.668 6.68322 142.682 6.66754 150.696 6.65105C158.714 6.63457 166.725 6.617 174.739 6.59917C182.75 6.58133 190.756 6.56288 198.777 6.54363C206.768 6.52431 214.793 6.50455 222.797 6.4832C228.989 6.4667 235.129 6.44898 241.278 6.4301C243.699 6.39781 246.095 6.36731 248.459 6.33793C255.342 6.25244 262.235 6.14024 269.024 6.02909C256.94 6.08435 247.232 6.17068 237.99 6.25309C236.75 6.26414 235.52 6.27524 234.292 6.28605C221.765 6.39646 209.664 6.48992 193.387 6.46916C147.093 6.41013 120.25 6.36705 103.524 6.28666C86.8011 6.20628 79.6157 6.08713 72.9096 5.85025C63.4338 5.5155 45.1449 5.32509 35.9545 5.31801C32.616 5.31544 29.9213 5.03303 29.9365 4.6875C29.9526 4.34188 32.673 4.06358 36.0121 4.06614C45.7164 4.07361 65.5067 4.26714 76.7854 4.66552C81.8088 4.84299 87.5856 4.95747 104.054 5.03663C120.524 5.11578 147.119 5.15815 193.502 5.2173C209.193 5.23731 220.839 5.1483 233.233 5.03907C234.448 5.02836 235.672 5.01712 236.907 5.00611C236.915 5.00611 236.922 5.00611 236.93 5.00611C248.314 4.90456 260.711 4.79386 277.427 4.74487C315.955 4.63195 367.783 4.41303 380.086 4.28954C382.5 4.2653 384.834 4.23808 387.296 4.20958C396.745 4.10017 408.153 3.96822 433.862 3.88059C439.485 3.86142 446.072 3.85029 453.259 3.84519C464.044 3.67675 474.515 3.5205 483.62 3.4277C491.478 3.34761 498.724 3.20029 505.745 3.03889C507.767 2.99242 509.801 2.94383 511.833 2.89545C516.732 2.77877 521.633 2.66215 526.409 2.57196C530.216 2.50006 534.203 2.41367 538.416 2.32232C547.45 2.12646 557.539 1.90775 569.198 1.75987C578.603 1.42733 589.435 8.25983 592.005 19.7693C592.397 21.492 592.587 23.2437 592.587 24.9741C592.584 48.4666 592.516 68.7604 592.45 86.4074C592.531 72.6293 592.629 61.9928 592.716 53.1323C592.732 51.461 592.748 49.8596 592.763 48.3179C592.855 39.1291 592.925 32.0569 592.943 24.9741C592.946 23.4222 592.798 21.8641 592.49 20.3193C589.843 7.40728 578.152 0.996521 569.198 1.25932C547.919 1.3119 536.379 1.42892 523.788 1.65396C519.273 1.73468 514.291 1.8422 508.924 1.95793C498.198 2.18922 485.929 2.45367 472.747 2.60492C460.469 2.74578 446.737 2.95372 432.187 3.17378C432.181 3.17378 432.175 3.17378 432.169 3.17378C429.326 3.21678 426.449 3.26025 423.548 3.30379C405.858 3.5693 387.251 3.83628 369.138 4.00449C367.201 4.02249 364.88 4.04729 362.216 4.07591C346.837 4.24107 319.84 4.531 286.871 4.34508C279.63 4.30423 272.106 4.2177 263.519 4.11863C260.904 4.08846 258.188 4.05675 255.353 4.02525C243.113 3.88924 228.242 3.74475 208.44 3.6578C192.099 3.58605 172.183 3.55164 151.502 3.51559C141.315 3.49783 130.943 3.47938 120.72 3.45638C89.8422 3.38693 61.5412 3.27677 33.2939 3.16646C33.2882 3.16646 33.2824 3.16646 33.2766 3.16646C29.9396 3.15343 27.3256 2.86241 27.4428 2.51703C27.5613 2.17182 30.3615 1.90227 33.697 1.9152C61.961 2.02557 90.1755 2.13591 120.951 2.20513C131.018 2.22777 141.309 2.24602 151.456 2.26372C172.237 2.29998 192.43 2.33474 208.924 2.40716C229.062 2.49559 244.206 2.64283 256.614 2.7807C259.602 2.81391 262.412 2.84638 265.08 2.87714C273.571 2.97507 280.631 3.05692 287.499 3.09565C319.421 3.27567 345.398 2.99726 360.833 2.83198C363.571 2.80266 365.977 2.77715 368.026 2.75812C385.784 2.59321 404.106 2.33062 421.78 2.06535C424.648 2.02232 427.501 1.97939 430.332 1.93656C430.338 1.93636 430.344 1.93616 430.349 1.93595C444.896 1.71591 458.875 1.50446 471.382 1.36099C484.077 1.21535 495.148 0.975476 505.504 0.751228C511.061 0.6309 516.412 0.515496 521.698 0.421019C535.121 0.181096 547.372 0.0606427 569.198 0.00759268C578.707 -0.263028 590.906 6.54801 593.699 19.9837ZM45.4568 8.18125C53.488 8.33809 60.0316 8.37117 64.9047 8.3607C60.7661 8.32507 56.6375 8.28768 52.5057 8.249C50.1541 8.22699 47.8052 8.20442 45.4568 8.18125ZM454.243 5.09583C452.942 5.1162 451.631 5.13678 450.316 5.15748C453.947 5.14768 457.58 5.13856 461.206 5.1294C465.659 5.11817 470.111 5.10755 474.561 5.09705C467.485 5.09295 460.628 5.09176 454.243 5.09583ZM590.798 20.1091C588.34 9.06226 578.031 2.70125 569.198 3.02105C558.966 3.1583 549.953 3.35316 541.457 3.53695C537.07 3.63184 532.817 3.7236 528.608 3.80307C526.863 3.83603 525.12 3.87246 523.362 3.91111C533.599 3.93072 543.008 3.95134 550.711 3.96848C557.714 3.98407 563.799 4.00481 569.198 4.02876C582.514 4.43113 589.058 14.6309 589.812 22.5498C589.9 23.362 589.94 24.168 589.933 24.9741C589.913 27.4749 589.894 29.9272 589.876 32.4174C589.918 35.1163 589.96 37.9186 589.996 40.7506C590.048 44.7156 590.098 49.0016 590.14 53.0805C590.182 57.1747 590.22 61.3354 590.252 65.4219C590.284 69.5421 590.311 73.6245 590.334 77.6884C590.357 81.5123 590.375 85.3231 590.393 89.0105C590.394 89.2217 590.395 89.4328 590.396 89.644C590.415 93.5413 590.434 97.3329 590.459 100.816C590.485 104.363 590.516 107.311 590.562 109.927C590.62 113.194 590.675 116.546 590.727 119.861C590.779 123.179 590.827 126.484 590.872 129.778C590.917 133.079 590.959 136.348 590.999 139.626C591.011 140.686 591.025 141.794 591.037 142.845C591.043 143.329 591.049 143.814 591.054 144.296C591.058 137.885 591.065 131.228 591.076 124.347C591.09 114.408 591.131 103.797 591.176 92.0915C591.249 73.1711 591.332 51.3928 591.335 24.9741C591.336 23.3577 591.16 21.7212 590.798 20.1091ZM529.105 191.942C531.893 191.938 535.975 191.929 541.24 191.916C542.484 191.913 543.797 191.91 545.173 191.906C545.141 191.906 545.107 191.906 545.075 191.906C541.665 191.874 538.516 191.846 535.118 191.82C529.06 191.775 523.175 191.735 517.231 191.702C511.263 191.668 505.312 191.641 499.355 191.619C493.388 191.597 487.404 191.581 481.473 191.572C475.484 191.562 469.581 191.559 463.621 191.563C461.722 191.565 459.818 191.567 457.914 191.57C462.164 191.601 466.578 191.627 471.24 191.655C474.963 191.677 478.846 191.7 482.93 191.727C484.493 191.737 486.385 191.753 488.591 191.772C497.337 191.846 511.059 191.963 529.105 191.942ZM410.368 191.915C408.984 191.923 407.609 191.931 406.25 191.937C402.38 191.954 398.609 191.964 394.911 191.972C392.314 191.978 389.747 191.981 387.217 191.986C386.149 191.987 385.083 191.989 384.026 191.991C382.257 191.994 380.501 191.998 378.757 192.002C390.987 192.039 402.942 192.068 415.401 192.077C415.565 192.077 415.731 192.077 415.896 192.077C414.011 192.022 412.168 191.968 410.368 191.915Z" fill="#1E1E1E"/>
</svg>
