<svg width="57" height="90" viewBox="0 0 57 90" fill="none" xmlns="http://www.w3.org/2000/svg">
<path d="M26.9188 64.3293C26.9279 64.009 26.8926 63.6944 26.8474 63.3206C26.8474 63.3204 26.8474 63.3202 26.8474 63.32C26.841 63.2659 26.8343 63.21 26.8276 63.1521C26.7736 62.6862 26.712 62.0716 26.6907 61.1596C26.6676 60.1393 26.5133 59.3424 26.3585 58.8427C26.3296 58.7514 26.3149 58.6576 26.3054 58.4196C26.2993 58.2634 26.2956 58.052 26.2903 57.7443C26.2874 57.5818 26.2844 57.3854 26.28 57.1688C26.2655 56.442 26.3077 55.2911 26.3479 54.2308C26.3516 54.1326 26.3553 54.035 26.359 53.9383L26.3446 54.1144C26.4216 53.5805 26.4922 53.1064 26.5449 52.715C26.6329 52.0605 26.7001 51.4105 26.7781 50.7138C26.85 50.0744 26.9312 49.3909 27.0558 48.6055C27.1499 48.0114 27.1399 47.3971 27.1224 46.7824C27.1199 46.7056 27.118 46.6255 27.1161 46.5452C27.1022 45.9974 27.092 45.4443 27.1574 44.8501C27.2715 43.8063 27.5455 42.9981 27.8708 42.1433C27.9997 41.8052 28.1372 41.4603 28.283 41.0875C28.5139 40.4961 28.8307 39.649 29.2224 38.8531C29.255 38.7865 29.2905 38.7162 29.3243 38.6503C29.3244 38.65 29.3246 38.6497 29.3248 38.6493C29.5432 38.2219 29.7865 37.8129 30.0253 37.4792L29.9901 37.5255C30.1727 37.3015 30.353 37.0998 30.5184 36.925C31.1806 36.2347 31.492 35.9914 31.7331 35.7932C31.8255 35.7178 31.9107 35.6485 32.0084 35.5604C32.3603 35.2437 32.8349 34.7142 33.3068 34.1682C33.3086 34.1662 33.3104 34.1641 33.3122 34.1621C33.3894 34.0729 33.3485 33.9055 33.2183 33.7919C33.0881 33.6783 32.9183 33.6607 32.8419 33.749C32.5947 34.0349 32.3492 34.3141 32.1249 34.556C32.0043 34.4679 31.8599 34.4596 31.7898 34.5378C31.6124 34.7391 30.9731 35.2543 29.9683 36.0591C30.0079 35.9763 30.0387 35.9046 30.0639 35.8409C30.094 35.7656 30.1148 35.7066 30.1332 35.6553C30.1711 35.5491 30.1964 35.4789 30.2647 35.3746C30.4401 35.1525 30.7408 34.8276 31.0529 34.4838C31.1326 34.396 31.0921 34.232 30.9652 34.1148C30.8373 33.9986 30.672 33.9727 30.5929 34.0597C30.5914 34.0614 30.5898 34.063 30.5883 34.0647C30.2818 34.4025 29.973 34.7357 29.7891 34.9693C29.7422 35.0288 29.7034 35.0816 29.6751 35.1222C29.6529 35.1543 29.6247 35.1959 29.6135 35.2226C29.612 35.2262 29.6093 35.2331 29.6067 35.2419C29.6067 35.2421 29.6066 35.2423 29.6066 35.2424C29.6051 35.2474 29.5978 35.2722 29.5991 35.308C29.5994 35.3153 29.6001 35.3312 29.6049 35.3532C29.6036 35.3566 29.6024 35.36 29.6012 35.3634C29.5841 35.4106 29.567 35.4586 29.5464 35.5095C29.4688 35.7084 29.3164 36.0013 28.967 36.5803C28.9524 36.6048 28.9372 36.63 28.9214 36.656L28.9028 36.6804C28.6005 37.246 28.1273 38.12 27.6534 39.2446C27.6753 39.16 27.6991 39.0736 27.7226 38.9905C27.7821 38.7809 27.8484 38.5717 27.9236 38.358C27.9521 38.2768 27.9785 38.2017 28.0101 38.1184C28.0595 37.987 28.1088 37.8607 28.1635 37.7297C28.1995 37.6429 28.2365 37.5567 28.2758 37.4686C28.2759 37.4684 28.276 37.4682 28.2761 37.468C28.329 37.3485 28.3859 37.2263 28.4439 37.1063C28.4636 37.0646 28.4841 37.0225 28.5052 36.9803C28.5745 36.8414 28.6472 36.7036 28.7218 36.5517L28.7492 36.5158C28.765 36.4881 28.781 36.4599 28.7971 36.4309C28.8081 36.4078 28.8193 36.3817 28.8271 36.3618C28.8356 36.3405 28.8435 36.3198 28.8506 36.3C28.8568 36.2824 28.8626 36.2654 28.8682 36.2492C28.869 36.2471 28.8697 36.2449 28.8705 36.2428C28.8768 36.2247 28.883 36.2075 28.8891 36.1911C28.8952 36.1748 28.9011 36.159 28.9074 36.1439C28.9075 36.1438 28.9076 36.1437 28.9077 36.1436C28.9144 36.1279 28.9195 36.1161 28.9274 36.1001C28.9373 36.0801 28.9463 36.0632 28.9578 36.0435C28.969 36.0244 28.9811 36.0049 28.9938 35.9856C29.0064 35.9663 29.0198 35.9469 29.0334 35.9276C29.0471 35.9082 29.0612 35.8887 29.0757 35.8692C29.0903 35.8497 29.1051 35.8304 29.12 35.8109C29.135 35.7914 29.1502 35.7717 29.1656 35.752C29.2005 35.707 29.212 35.6429 29.1954 35.5738C29.1789 35.5046 29.1368 35.4354 29.0772 35.3811C29.0176 35.3268 28.9449 35.2915 28.8743 35.2827C28.804 35.2738 28.7408 35.2932 28.6995 35.3346C28.6881 35.346 28.6767 35.3575 28.6653 35.369C28.6585 35.3759 28.6518 35.3829 28.645 35.3898C28.6268 35.4084 28.6083 35.4272 28.5899 35.4466C28.5715 35.4659 28.5532 35.4857 28.535 35.5058C28.5167 35.5261 28.4981 35.547 28.4799 35.5685C28.4618 35.5901 28.4437 35.6125 28.4258 35.636C28.4083 35.6588 28.3893 35.6856 28.3731 35.7104C28.3611 35.7284 28.3474 35.7515 28.3362 35.771C28.3246 35.7913 28.3135 35.8118 28.3033 35.8318C28.2929 35.8518 28.2834 35.8715 28.2742 35.8902C28.2732 35.8922 28.2722 35.8942 28.2712 35.8962C28.2631 35.9128 28.2553 35.9289 28.2477 35.944C28.2394 35.9608 28.2312 35.9765 28.2231 35.9912C28.2143 36.0074 28.2083 36.0168 28.2009 36.0283C28.1947 36.0369 28.1884 36.0455 28.1819 36.0543L28.126 36.1277C28.0289 36.278 27.9065 36.4561 27.7946 36.6303C27.7802 36.6528 27.7658 36.6753 27.7516 36.6977C27.6754 36.8175 27.6012 36.9382 27.5297 37.0585C27.4765 37.1482 27.427 37.2336 27.3772 37.3223C27.3024 37.4554 27.2347 37.5812 27.1653 37.7153C27.122 37.7993 27.0839 37.8751 27.0433 37.958C26.9378 38.1732 26.8387 38.3907 26.7492 38.6035C26.6566 38.8238 26.5738 39.0389 26.4966 39.2616C26.421 39.4804 26.3504 39.7112 26.294 39.9381C26.2518 40.1075 26.227 40.2751 26.2052 40.4413C26.1933 40.5312 26.1853 40.6119 26.1763 40.6965C26.1763 40.6968 26.1763 40.6971 26.1763 40.6974C26.1687 40.7709 26.1612 40.8442 26.1532 40.9173C26.1362 41.0741 26.1204 41.2189 26.0987 41.3704C26.0763 41.5241 26.0547 41.6629 26.0263 41.8109C25.998 41.958 25.967 42.1028 25.9329 42.2452C25.8989 42.3879 25.8601 42.5352 25.8205 42.6774C25.7674 42.8665 25.7076 43.0668 25.651 43.2561C25.5938 43.4472 25.5327 43.6513 25.4763 43.8418C25.4562 43.9097 25.4363 43.9785 25.4161 44.0478C25.4161 44.048 25.416 44.0483 25.4159 44.0486C25.3785 44.1774 25.3415 44.3062 25.306 44.4318C25.2512 44.6255 25.1943 44.8349 25.1438 45.0275C25.0927 45.2234 25.041 45.4326 24.9957 45.632C24.9506 45.8316 24.9064 46.0445 24.8725 46.2576C24.8428 46.4434 24.8158 46.6344 24.7896 46.824C24.7828 46.8737 24.7756 46.9256 24.7693 46.9731C24.7382 47.2032 24.706 47.4297 24.6653 47.6559C24.6261 47.8751 24.5791 48.093 24.5245 48.3173C24.4698 48.5425 24.4113 48.7554 24.3468 48.9821C24.2819 49.2115 24.2164 49.4265 24.147 49.6525C24.0781 49.8765 24.0069 50.1054 23.9354 50.3286C23.8954 50.4542 23.8557 50.5895 23.82 50.7188C23.7837 50.8504 23.75 50.9782 23.7179 51.1035C23.7049 51.1546 23.6921 51.2056 23.6793 51.2564C23.6606 51.3306 23.6423 51.4044 23.6237 51.4774C23.5926 51.5999 23.5606 51.7235 23.5278 51.8377C23.4951 51.9513 23.4604 52.062 23.4223 52.169C23.3828 52.2797 23.3458 52.371 23.2962 52.4801C23.1917 52.7523 23.1493 52.9115 23.1007 53.0986C23.0911 53.1352 23.0812 53.1726 23.0708 53.2117C23.0338 53.3592 22.9995 53.5083 22.9676 53.6581L22.9527 53.8407C22.9445 53.9184 22.9369 53.9957 22.9299 54.0726C22.9092 54.3 22.8934 54.5229 22.8815 54.7477C22.8697 54.9704 22.8621 55.1937 22.8582 55.4152C22.8544 55.6339 22.854 55.8647 22.8576 56.0883C22.8612 56.313 22.8688 56.5412 22.8797 56.7594C22.8859 56.8854 22.8952 57.019 22.9051 57.1428C22.9122 57.2313 22.9198 57.3218 22.9272 57.41C22.9303 57.446 22.9333 57.4817 22.9363 57.5171C22.9465 57.6392 22.9558 57.7574 22.9623 57.8712C22.9688 57.9851 22.9726 58.0949 22.9722 58.202C22.9718 58.3093 22.9673 58.4138 22.9584 58.5181C22.9491 58.6261 22.9379 58.7155 22.9189 58.8294C22.9064 58.9025 22.8937 58.9789 22.8811 59.0526C22.8622 59.1636 22.843 59.2735 22.8231 59.3839C22.8033 59.4942 22.7832 59.6027 22.7623 59.7115C22.7556 59.7464 22.7485 59.7833 22.7416 59.8183C22.7202 59.9265 22.6984 60.0331 22.6755 60.1393C22.6526 60.2452 22.6288 60.3499 22.6038 60.4538C22.5786 60.5596 22.5525 60.6659 22.5244 60.7726C22.4766 60.9544 22.4522 61.128 22.435 61.2796C22.4179 61.4329 22.4071 61.5757 22.3966 61.7142C22.3947 61.7401 22.3927 61.766 22.3908 61.7919C22.3825 61.9041 22.3747 62.0107 22.3657 62.123C22.3547 62.2593 22.3422 62.3925 22.328 62.5256C22.314 62.6575 22.298 62.7902 22.2799 62.9203C22.2616 63.0516 22.2422 63.1767 22.2189 63.3108C22.196 63.4431 22.167 63.578 22.1353 63.73C22.1039 63.8795 22.0716 64.0357 22.0429 64.1931C22.0141 64.3504 21.9887 64.5094 21.9681 64.6666C21.9473 64.8248 21.9308 64.9788 21.9181 65.1407C21.9053 65.301 21.8965 65.4595 21.8905 65.6165C21.8846 65.7731 21.8815 65.934 21.8813 66.0838C21.8809 66.3243 21.8825 66.5711 21.8848 66.8176C21.8872 67.0622 21.8906 67.3054 21.8946 67.5457C21.8987 67.7815 21.9029 68.034 21.9077 68.2765C21.9126 68.5203 21.9178 68.7617 21.9232 69.0002C21.9244 69.0529 21.9256 69.1056 21.9267 69.1607C21.9308 69.3527 21.935 69.543 21.9391 69.731C21.9392 69.7323 21.9393 69.7336 21.9394 69.7349C21.9445 69.9779 21.9496 70.2079 21.9532 70.4495C21.9544 70.5391 21.9556 70.6248 21.9562 70.7116C21.9569 70.7984 21.9572 70.8832 21.957 70.9685C21.9567 71.0538 21.956 71.1383 21.9545 71.2211C21.9529 71.3048 21.9507 71.3861 21.9472 71.4677C21.9441 71.5421 21.9396 71.6172 21.9347 71.7018C21.9343 71.7094 21.9339 71.7171 21.9334 71.7247C21.9281 71.8165 21.924 71.9204 21.9239 72.0165C21.9243 72.2711 21.9224 72.5155 21.9179 72.7614C21.9133 73.0183 21.9063 73.2707 21.8983 73.5213C21.8952 73.6192 21.8918 73.7169 21.8886 73.814C21.8836 73.9659 21.8784 74.1278 21.8739 74.283C21.8665 74.5418 21.8611 74.7878 21.859 75.0486C21.857 75.3108 21.8587 75.5697 21.8646 75.8223C21.8706 76.0723 21.8804 76.3467 21.8942 76.5981C21.9097 76.8755 21.9271 77.1693 21.9457 77.4531C21.9644 77.7324 21.9841 78.0216 22.0046 78.3062C22.0252 78.5858 22.0464 78.8741 22.0684 79.1587C22.0906 79.4348 22.1132 79.7299 22.1366 80.0103C22.1507 80.1751 22.165 80.3481 22.1795 80.5212C22.1639 80.6117 22.1486 80.6971 22.1341 80.778C22.0268 81.3957 21.95 81.8287 21.8949 82.4192C21.8868 82.4749 21.8757 82.5194 21.8622 82.5726C21.8596 82.5827 21.857 82.5934 21.8543 82.6043C21.837 82.6704 21.8186 82.7666 21.8066 82.8807C21.7828 83.0978 21.7849 83.4688 21.9285 83.9252C21.9647 84.0457 22.1311 84.1079 22.2999 84.0872C22.4184 84.0719 22.5066 84.0167 22.5363 83.9393C22.5557 84.0743 22.576 84.2193 22.5963 84.3533C22.6044 84.4209 22.6432 84.4423 22.7048 84.5008C22.7665 84.5419 22.8459 84.5498 22.9263 84.5486C23.0068 84.5455 23.0822 84.5334 23.1373 84.4809C23.1923 84.4355 23.2222 84.396 23.2211 84.3272C23.2181 84.1931 23.2152 84.0416 23.2135 83.8917C23.2117 83.7456 23.2111 83.6004 23.2113 83.4538C23.2114 83.3211 23.2127 83.1501 23.2144 83.0181C23.2161 82.8815 23.2186 82.7171 23.2215 82.5799C23.2243 82.439 23.228 82.2925 23.2319 82.1389C23.2342 82.0556 23.2365 81.9691 23.2391 81.8823C23.24 81.8499 23.2411 81.818 23.2421 81.7858C23.2429 81.7595 23.2436 81.7329 23.2444 81.7054C23.2532 81.4187 23.2628 81.1405 23.2732 80.8547C23.2834 80.5838 23.2946 80.2766 23.3059 80.008C23.3173 79.7274 23.3295 79.4351 23.3418 79.1591C23.3541 78.8745 23.3669 78.5891 23.3801 78.3099C23.3935 78.0259 23.4071 77.7395 23.4216 77.4614C23.4328 77.2463 23.4449 77.0131 23.4573 76.8056C23.4746 76.7219 23.4911 76.6385 23.5069 76.5555C23.5531 76.3171 23.613 76.0573 23.6721 75.8284C23.6381 76.2514 23.5898 76.6056 23.5442 76.9204C23.5381 76.9616 23.5319 77.0089 23.5258 77.0525C23.4643 77.5038 23.4119 77.9221 23.415 78.4993C23.4239 80.1276 23.4362 81.091 23.4708 81.6748C23.5055 82.2657 23.5631 82.5208 23.6796 82.7594C23.8443 83.0914 23.9351 83.7448 23.9371 84.0669C23.9378 84.1817 24.0785 84.2855 24.2513 84.2816C24.4241 84.2861 24.5637 84.1819 24.563 84.0681C24.5609 83.7273 24.4689 83.0334 24.2731 82.6247C24.1858 82.4567 24.1301 82.2439 24.096 81.6612C24.0619 81.088 24.0498 80.1333 24.0409 78.5032C24.038 77.9476 24.0879 77.544 24.1487 77.0995C24.1547 77.0558 24.1609 77.0115 24.1671 76.9667C24.1671 76.9664 24.1671 76.9662 24.1671 76.9659C24.2233 76.5808 24.2853 76.1183 24.3185 75.5442C24.3953 74.1852 24.5365 72.3552 24.6062 71.9218C24.6198 71.8358 24.6349 71.7524 24.6508 71.664C24.7114 71.3394 24.7847 70.9291 24.8457 70.028C24.8591 69.8312 24.8691 69.5986 24.8767 69.3416C24.9685 68.9567 25.0537 68.6012 25.1067 68.2764C25.1524 67.9972 25.2314 67.7406 25.3171 67.4988C25.3418 67.4286 25.3676 67.3577 25.3933 67.2868C25.4552 67.1157 25.5172 66.9433 25.5659 66.7741C25.6047 66.64 25.651 66.4945 25.6998 66.3512C25.8775 65.8239 26.0914 65.1623 26.113 64.3274C26.1364 63.4179 26.1181 62.6687 26.0992 61.9966C26.1281 62.4843 26.1678 62.866 26.2039 63.1765C26.2107 63.2353 26.2174 63.2915 26.2238 63.3455C26.2692 63.7215 26.3018 64.0153 26.2934 64.3124C26.2533 65.7355 26.1891 66.2685 26.0228 66.8771C25.979 67.0367 25.9216 67.2117 25.8598 67.3987C25.7365 67.7671 25.5952 68.2075 25.5103 68.6687C25.4314 69.0918 25.3176 69.5876 25.1979 70.0934C25.1979 70.0936 25.1979 70.0938 25.1979 70.094C25.1745 70.193 25.1509 70.2927 25.1272 70.3928C24.9825 71.0277 24.8373 71.6655 24.7418 72.3123C24.7316 72.3803 24.7178 72.4615 24.7019 72.5542C24.6099 73.0932 24.4485 74.0517 24.5235 75.2118C24.5399 75.4719 24.5792 75.7353 24.6243 76.0342C24.638 76.1291 24.6524 76.227 24.6667 76.3282C24.7284 76.7593 24.7931 77.2926 24.8274 77.9835C24.8556 78.5712 24.8642 79.2557 24.8738 79.9975C24.8788 80.3413 24.8839 80.7266 24.8918 81.0817C24.9155 82.178 24.9622 83.1713 25.0124 84.1664C25.0124 84.1666 25.0124 84.1668 25.0124 84.167C25.0183 84.2913 25.1635 84.3726 25.3362 84.3746C25.5089 84.3626 25.6439 84.2823 25.6381 84.1538C25.5879 83.1641 25.5411 82.1711 25.5175 81.0796C25.5097 80.7311 25.5047 80.3482 25.4997 80.0061C25.49 79.2612 25.4813 78.5681 25.4529 77.9743C25.418 77.2724 25.3521 76.7308 25.2896 76.2923C25.2745 76.1859 25.2598 76.0823 25.2458 75.9882C25.2012 75.6951 25.1641 75.4453 25.1485 75.1989C25.0759 74.0765 25.2308 73.1567 25.3229 72.6131C25.3392 72.5181 25.3534 72.4341 25.3642 72.3623C25.4578 71.7302 25.6006 71.101 25.7452 70.4669C25.7686 70.3656 25.7919 70.2687 25.8152 70.17C25.8153 70.1698 25.8154 70.1696 25.8155 70.1694C25.9351 69.6661 26.0508 69.1581 26.1312 68.7291C26.2128 68.2875 26.3411 67.8837 26.4605 67.531C26.5247 67.338 26.5864 67.1508 26.6376 66.9643C26.814 66.3162 26.8785 65.7577 26.9188 64.3293ZM22.5073 83.7247C22.4307 83.4258 22.4158 83.208 22.4223 83.0323C22.4391 83.1707 22.4566 83.3367 22.4751 83.47C22.4855 83.5507 22.4962 83.6456 22.5073 83.7247ZM24.2522 69.294C24.2411 69.3405 24.2299 69.3871 24.2186 69.4339C24.226 69.3056 24.2333 69.1703 24.2403 69.0468C24.249 68.8922 24.2574 68.7366 24.2658 68.5799C24.2628 68.8311 24.2588 69.0616 24.2522 69.294ZM25.4872 64.3112C25.4669 65.0996 25.271 65.7062 25.0949 66.2322C25.0441 66.3836 24.9951 66.532 24.9521 66.6825C24.9343 66.7445 24.9148 66.8063 24.8941 66.8684C24.8921 66.5 24.8888 66.1749 24.8862 65.9032C24.8784 65.087 24.8354 64.629 24.7979 64.2216C24.787 64.1036 24.7766 63.9898 24.7677 63.8732C24.7909 63.7777 24.814 63.6773 24.8346 63.5771C24.8637 63.4399 24.8919 63.2908 24.9164 63.1482C24.9409 63.005 24.9633 62.8589 24.9827 62.7146C25.0023 62.5692 25.0192 62.4244 25.0343 62.2796C25.0486 62.1425 25.0611 62.0091 25.0732 61.881C25.0739 61.8736 25.0746 61.8662 25.0753 61.8589C25.0881 61.7229 25.1005 61.5901 25.1162 61.4678C25.1323 61.3433 25.1502 61.2395 25.1756 61.1475C25.2074 61.0325 25.238 60.9141 25.2667 60.7966C25.2955 60.6796 25.3225 60.5594 25.3478 60.4468C25.3732 60.3323 25.3971 60.2185 25.4199 60.1041C25.4273 60.0671 25.4349 60.0283 25.442 59.9915C25.4452 59.9746 25.4486 59.9576 25.4518 59.9407C25.4482 60.1671 25.4458 60.3964 25.4449 60.6409C25.4435 60.9962 25.4547 61.3726 25.4672 61.7827C25.4884 62.4898 25.5134 63.2955 25.4872 64.3112ZM25.5977 56.5131C25.5934 56.6114 25.5846 56.755 25.5733 56.9393C25.5706 56.9829 25.5676 57.0288 25.5647 57.0769C25.5646 57.0758 25.5646 57.0746 25.5645 57.0735C25.5518 56.9538 25.5409 56.843 25.5312 56.7232C25.5142 56.5096 25.5003 56.3011 25.4893 56.0897C25.4783 55.8784 25.4705 55.6614 25.4653 55.4556C25.4602 55.2468 25.4582 55.0365 25.4594 54.8272C25.4606 54.6159 25.4647 54.4068 25.473 54.1948C25.4756 54.1273 25.4787 54.0595 25.4822 53.9916C25.4936 54.1437 25.5021 54.301 25.5111 54.4666C25.5183 54.5989 25.5258 54.7365 25.5354 54.8808C25.5391 54.936 25.5452 55.0028 25.5524 55.0806C25.5809 55.3867 25.6256 55.8749 25.5977 56.5131ZM25.8705 52.4413C25.8816 52.3943 25.8923 52.3475 25.9022 52.3014C25.9302 52.1717 25.9552 52.0388 25.9785 51.9101C25.9948 51.8198 26.0103 51.7309 26.0257 51.6438C26.0322 51.6071 26.0388 51.5705 26.0453 51.5343C26.0561 51.4737 26.0672 51.4138 26.0783 51.3547C26.0322 51.7738 25.9829 52.2001 25.9255 52.6271C25.9247 52.6329 25.9238 52.6386 25.923 52.6443C25.9052 52.5749 25.8876 52.5073 25.8705 52.4413Z" fill="#1E1E1E"/>
<path d="M36.1316 50.4001C36.1566 49.9629 36.1363 49.5478 36.1113 49.0168C36.1113 49.0166 36.1113 49.0163 36.1113 49.016C36.1077 48.9401 36.1039 48.8618 36.1003 48.7807C36.071 48.1304 36.0408 47.2966 36.0697 46.0324C36.1015 44.6384 35.9934 43.5258 35.8672 42.8366C35.8437 42.7085 35.8346 42.5738 35.8391 42.2437C35.842 42.0298 35.8505 41.7406 35.8631 41.3195C35.8699 41.0955 35.878 40.834 35.8871 40.526C35.8904 40.4142 35.8947 40.2952 35.8999 40.1699L35.8334 40.5428C36.0969 39.5794 36.5168 38.2759 36.9417 37.0775C37.2332 36.252 37.5213 35.4872 37.7399 34.904C38.0589 34.0522 38.3619 33.2227 38.7101 32.3405C39.0336 31.5239 39.3934 30.6642 39.8664 29.6965C40.2283 28.9571 40.5051 28.1895 40.799 27.4186C40.8372 27.3193 40.8755 27.2202 40.9138 27.1219C41.1809 26.4397 41.4721 25.7531 41.8788 25.0556C42.6041 23.8191 43.3889 22.9727 44.305 22.1332C44.6683 21.8021 45.0509 21.477 45.4743 21.135C45.9667 20.7362 46.6338 20.2203 47.382 19.7423L47.3358 19.7698C47.619 19.611 47.9116 19.4525 48.208 19.2968C48.3044 19.2461 48.4009 19.1961 48.4979 19.146C48.4984 19.1458 48.4989 19.1455 48.4994 19.1453C49.5412 18.6093 50.6002 18.105 51.3823 17.7425C52.6259 17.1685 53.1126 16.984 53.5183 16.8318C53.6707 16.7744 53.8124 16.7209 53.9773 16.652C54.5752 16.4021 55.442 15.9588 56.3143 15.5021C56.3176 15.5004 56.3209 15.4987 56.3243 15.497C56.4689 15.4214 56.524 15.2341 56.4441 15.0809C56.3643 14.9276 56.18 14.8661 56.0359 14.9414C55.5733 15.1835 55.1268 15.4147 54.7158 15.6183C54.6284 15.4961 54.4688 15.4506 54.3371 15.5179C54.0104 15.6845 52.9537 16.0902 51.2926 16.6867C51.3889 16.6102 51.4674 16.5432 51.5371 16.4817C51.6187 16.4097 51.677 16.3534 51.7296 16.3039C51.8401 16.2003 51.9091 16.1337 52.052 16.0399C52.3902 15.8479 52.9384 15.5741 53.5121 15.2833C53.6547 15.2109 53.7107 15.0255 53.6328 14.8713C53.555 14.7171 53.3733 14.6523 53.2312 14.7243C53.2284 14.7257 53.2256 14.727 53.2228 14.7284C52.6559 15.0158 52.0927 15.2969 51.7401 15.4976C51.6496 15.5491 51.5755 15.5939 51.5177 15.63C51.4716 15.6588 51.4149 15.6949 51.3861 15.7201C51.3823 15.7235 51.3751 15.73 51.3669 15.7386C51.3667 15.7388 51.3666 15.739 51.3665 15.7391C51.3619 15.7439 51.3384 15.7682 51.3192 15.8057C51.3153 15.8133 51.3069 15.8301 51.2996 15.8542C51.2962 15.8574 51.2929 15.8606 51.2895 15.8638C51.241 15.9092 51.192 15.9552 51.1385 16.0028C50.9293 16.1887 50.5868 16.46 49.8272 16.9378C49.1861 17.3466 48.0798 17.9029 46.7194 18.6626L46.7015 18.6733C46.5893 18.7454 46.4746 18.8205 46.3577 18.8989C46.4504 18.8213 46.5435 18.7453 46.6367 18.6713C46.6508 18.6601 46.6649 18.6489 46.679 18.6378L46.699 18.6259C46.9302 18.4649 47.1657 18.3086 47.4033 18.156C47.5006 18.0935 47.5955 18.0331 47.6941 17.9715C47.8512 17.8731 48.0105 17.7751 48.1694 17.6788C48.277 17.6136 48.3845 17.549 48.4928 17.4844C48.493 17.4842 48.4933 17.4841 48.4935 17.484C48.643 17.3947 48.7929 17.3057 48.9447 17.2158C48.9983 17.1837 49.049 17.1534 49.1012 17.1225C49.3085 16.9998 49.5103 16.881 49.7378 16.7298C49.7645 16.7101 49.793 16.6874 49.8141 16.6698C49.8369 16.651 49.8587 16.6325 49.8792 16.6145C49.8973 16.5987 49.9145 16.5831 49.9303 16.5687C49.9325 16.5667 49.9346 16.5648 49.9368 16.5629C49.9547 16.5466 49.972 16.5313 49.9888 16.5166C50.0055 16.5019 50.0217 16.4878 50.0379 16.4744C50.0381 16.4743 50.0383 16.4742 50.0384 16.4742C50.0555 16.4603 50.0685 16.4498 50.0871 16.4359C50.1103 16.4186 50.1312 16.4039 50.1557 16.3874C50.1793 16.3715 50.2043 16.3555 50.2299 16.3396C50.2555 16.3238 50.2819 16.308 50.3089 16.2923C50.336 16.2765 50.3637 16.2605 50.3919 16.2447C50.42 16.2288 50.4473 16.2137 50.4757 16.198C50.5039 16.1824 50.5326 16.1666 50.5615 16.1507C50.6283 16.114 50.6798 16.0508 50.7014 15.9751C50.7235 15.8992 50.7165 15.8161 50.6813 15.7437C50.646 15.6712 50.585 15.6146 50.5118 15.5854C50.4393 15.5559 50.3578 15.5577 50.2881 15.5879C50.2692 15.5962 50.2501 15.6043 50.2311 15.6126C50.2198 15.6175 50.2085 15.6226 50.1972 15.6276C50.1666 15.641 50.1368 15.6538 50.105 15.6681C50.0737 15.6821 50.0423 15.6966 50.0108 15.7113C49.9792 15.726 49.9475 15.7411 49.9157 15.7569C49.8839 15.7727 49.8523 15.789 49.819 15.807C49.7868 15.8244 49.7507 15.845 49.7191 15.8644C49.6959 15.8785 49.668 15.8969 49.645 15.9125C49.621 15.9287 49.5978 15.9452 49.5747 15.9618C49.5518 15.9783 49.5299 15.9947 49.509 16.0102C49.5068 16.0119 49.5046 16.0135 49.5023 16.0152C49.4839 16.0289 49.4662 16.0422 49.4494 16.0545C49.4306 16.0682 49.4127 16.0808 49.3957 16.0925C49.3768 16.1054 49.3653 16.1124 49.3503 16.1213C49.1513 16.2282 48.9015 16.3462 48.6606 16.4611C48.631 16.4752 48.6003 16.49 48.5705 16.5042C48.4123 16.5796 48.2542 16.655 48.0957 16.7312C47.9804 16.7866 47.8649 16.8425 47.7495 16.8989C47.5791 16.9823 47.4082 17.0674 47.2379 17.1539C47.1315 17.2081 47.0281 17.2614 46.9223 17.3168C46.6784 17.4446 46.4343 17.5769 46.1919 17.715L46.1191 17.7584C46.0882 17.7785 46.0572 17.7988 46.0262 17.8193C45.7548 17.9988 45.4887 18.1882 45.2286 18.3893C44.9718 18.588 44.7137 18.8051 44.4734 19.0301C44.3015 19.1919 44.1302 19.3773 43.9841 19.548C43.905 19.6402 43.8281 19.7323 43.7527 19.8244C43.7525 19.8247 43.7523 19.8251 43.752 19.8254C43.6847 19.9074 43.624 19.9841 43.5606 20.0631C43.4256 20.232 43.2925 20.3987 43.1617 20.5609C43.0293 20.7248 42.8974 20.886 42.7646 21.0455C42.6311 21.2054 42.4959 21.3654 42.3615 21.5222C42.2251 21.6813 42.0914 21.8354 41.9514 21.9963C41.7641 22.2111 41.5834 22.4178 41.3958 22.6384C41.2094 22.8576 41.0297 23.0731 40.8463 23.3004C40.7841 23.3773 40.722 23.4554 40.6596 23.5343C40.6594 23.5347 40.6592 23.535 40.6589 23.5353C40.544 23.6806 40.4261 23.833 40.3159 23.9783C40.1436 24.2055 39.969 24.444 39.8048 24.677C39.6377 24.9144 39.4745 25.1556 39.3171 25.4004C39.1571 25.6498 39.0039 25.9008 38.8571 26.1657C38.7238 26.4055 38.6022 26.637 38.4804 26.8741C38.4484 26.9365 38.4164 26.9991 38.3844 27.0621C38.2357 27.3555 38.0937 27.639 37.9453 27.9221C37.8022 28.1959 37.6492 28.4768 37.4941 28.7537C37.342 29.0247 37.1788 29.3102 37.0183 29.5882C36.8583 29.8646 36.6929 30.1511 36.5308 30.4314C36.3704 30.7083 36.2036 31.0009 36.0415 31.2854C35.9514 31.4437 35.8582 31.6153 35.7718 31.7803C35.6843 31.9475 35.6002 32.1136 35.52 32.2747C35.4873 32.3406 35.4549 32.4066 35.4227 32.4723C35.3757 32.5681 35.3293 32.6638 35.2832 32.7584C35.205 32.9191 35.1295 33.0728 35.0548 33.2199C34.9799 33.3675 34.9044 33.5113 34.8272 33.6497C34.7477 33.7918 34.6756 33.9147 34.5897 34.0472C34.3939 34.3827 34.2918 34.603 34.1783 34.8494C34.156 34.8977 34.1325 34.9488 34.1095 34.9981C33.9788 35.2863 33.8546 35.5812 33.7365 35.8783C33.6173 36.1787 33.5105 36.4631 33.4036 36.7656C33.2973 37.0664 33.1988 37.3629 33.1049 37.6623C33.0117 37.9594 32.9188 38.2737 32.8376 38.5682C32.7548 38.8681 32.6744 39.1793 32.6011 39.4828C32.5939 39.5122 32.5868 39.542 32.5797 39.5721L32.5113 39.9555C32.5107 40.1055 32.5117 40.26 32.5136 40.4049C32.5152 40.5306 32.5175 40.6542 32.5198 40.7752C32.5207 40.8246 32.5216 40.8737 32.5225 40.9222C32.5256 41.0896 32.528 41.2518 32.5278 41.4079C32.5277 41.5641 32.5251 41.7146 32.5185 41.8613C32.512 42.0081 32.5014 42.1512 32.4863 42.2985C32.4704 42.45 32.454 42.5753 32.4283 42.7348C32.4113 42.8387 32.3945 42.9402 32.3776 43.0413C32.3524 43.1926 32.327 43.3424 32.301 43.4928C32.275 43.6431 32.2488 43.791 32.2218 43.9392C32.2131 43.9869 32.204 44.0372 32.1951 44.0849C32.1679 44.2301 32.1397 44.3832 32.1107 44.5308C32.0818 44.679 32.052 44.8253 32.0211 44.9706C31.99 45.1165 31.9582 45.2595 31.9243 45.4048C31.8666 45.6518 31.8329 45.8881 31.8076 46.0946C31.7824 46.3015 31.7633 46.5069 31.7453 46.6997C31.7419 46.736 31.7386 46.7723 31.7352 46.8086C31.7208 46.9649 31.707 47.1181 31.6922 47.2684C31.674 47.4538 31.6547 47.635 31.6336 47.816C31.6126 47.9966 31.5901 48.1718 31.5649 48.3566C31.5396 48.5403 31.5135 48.7151 31.4831 48.9026C31.4532 49.088 31.4171 49.2753 31.378 49.4797C31.3391 49.6821 31.299 49.8937 31.2625 50.1071C31.2257 50.3248 31.1921 50.5483 31.1635 50.7677C31.1347 50.9878 31.1102 51.2076 31.0899 51.4235C31.0694 51.6412 31.0531 51.8534 31.0396 52.0699C31.0259 52.2889 31.0149 52.5139 31.0073 52.7234C30.9951 53.0628 30.9852 53.3978 30.9764 53.7305C30.9675 54.0651 30.9592 54.4097 30.952 54.7444C30.9448 55.0813 30.9386 55.4068 30.9324 55.7457C30.9262 56.086 30.9205 56.4228 30.9153 56.7557C30.9142 56.8293 30.9131 56.9028 30.912 56.976C30.9082 57.2315 30.9041 57.4961 30.9 57.7585C30.9 57.7603 30.9001 57.7621 30.9001 57.7639C30.8948 58.1009 30.8898 58.4281 30.8837 58.7549C30.8813 58.8747 30.8791 58.9897 30.8761 59.1116C30.8731 59.2323 30.8699 59.3503 30.8662 59.4688C30.8624 59.5875 30.8582 59.7049 30.8533 59.8201C30.8483 59.9365 30.8428 60.0494 30.8361 60.1628C30.8299 60.2668 30.8224 60.3696 30.8144 60.4815C30.8137 60.4917 30.813 60.5019 30.8123 60.5121C30.8034 60.6368 30.7951 60.7827 30.7912 60.9157C30.7816 61.269 30.7702 61.6084 30.7563 61.9492C30.7423 62.2943 30.7255 62.6509 30.7084 62.9962C30.7017 63.1317 30.6947 63.267 30.6879 63.4015C30.6775 63.6083 30.6664 63.8338 30.6564 64.0478C30.6398 64.4056 30.6259 64.7433 30.6148 65.107C30.6038 65.4681 30.5968 65.8249 30.5946 66.1731C30.5919 66.53 30.5932 66.8978 30.5991 67.2455C30.6061 67.6233 30.614 68.0438 30.6244 68.4276C30.6351 68.8034 30.6457 69.2261 30.6585 69.6069C30.6715 69.9838 30.6842 70.4058 30.6991 70.7841C30.7137 71.1728 30.7288 71.581 30.7456 71.9593C30.7552 72.203 30.7655 72.44 30.7762 72.6703C30.7585 72.791 30.7413 72.9066 30.7248 73.0265C30.6038 73.8652 30.5174 74.4916 30.4519 75.289C30.4427 75.3699 30.4307 75.4345 30.4162 75.5116C30.4135 75.5264 30.4107 75.5419 30.4077 75.5577C30.389 75.6599 30.3696 75.7625 30.3556 75.927C30.3276 76.2641 30.3244 76.725 30.4623 77.3743C30.497 77.5506 30.6627 77.6412 30.8318 77.6119C30.9504 77.5902 31.0393 77.5105 31.0699 77.3977C31.0787 77.5022 31.0878 77.5974 31.0973 77.6832C31.1065 77.7896 31.116 77.8835 31.1257 77.9729C31.1332 78.07 31.1718 78.1098 31.2331 78.1816C31.2946 78.2423 31.3741 78.2542 31.4545 78.2524C31.535 78.2476 31.6104 78.2302 31.6657 78.1532C31.7209 78.1047 31.7512 78.0265 31.7507 77.9445C31.7488 77.7514 31.7475 77.551 31.7477 77.3372C31.7474 77.1544 31.7491 76.9258 31.7512 76.74C31.7535 76.5338 31.7568 76.3364 31.7609 76.1355C31.7652 75.9238 31.7698 75.735 31.7754 75.5316C31.781 75.3216 31.7873 75.127 31.7938 74.9275C31.7978 74.8068 31.8019 74.6813 31.8064 74.5551C31.8079 74.509 31.8096 74.4693 31.8112 74.4264C31.8125 74.3917 31.8137 74.3567 31.815 74.3204C31.8295 73.9319 31.8453 73.5396 31.862 73.1479C31.8792 72.7391 31.896 72.379 31.915 71.9673C31.9329 71.5938 31.9528 71.1829 31.9724 70.7993C31.9918 70.4229 32.0132 70.0009 32.034 69.6287C32.0549 69.2494 32.0776 68.8312 32.1001 68.4579C32.1177 68.1604 32.1363 67.8565 32.1558 67.5514C32.1757 67.4367 32.1947 67.3224 32.2132 67.2088C32.2669 66.88 32.3348 66.5337 32.4018 66.2068C32.3535 66.8027 32.2948 67.2686 32.2389 67.7172C32.2314 67.7788 32.2239 67.8397 32.2165 67.9002C32.1416 68.509 32.0761 69.1089 32.0636 69.8871C32.0266 72.165 32.02 73.4571 32.042 74.2821C32.0647 75.0989 32.118 75.4555 32.2305 75.7785C32.3891 76.2511 32.4704 77.1405 32.4691 77.5892C32.4687 77.7315 32.6084 77.8934 32.7812 77.8859C32.954 77.8949 33.0947 77.736 33.0951 77.5937C33.0964 77.124 33.0149 76.1525 32.8262 75.6037C32.7423 75.3493 32.6898 75.0745 32.6674 74.2701C32.6458 73.459 32.6524 72.1795 32.6894 69.9001C32.7014 69.1514 32.764 68.5721 32.838 67.9725C32.8453 67.9128 32.8528 67.8525 32.8603 67.7913C32.8603 67.791 32.8604 67.7906 32.8604 67.7902C32.929 67.2431 33.0051 66.6222 33.0576 65.8249C33.1791 63.9492 33.3898 61.4337 33.4772 60.8289C33.4943 60.7092 33.5127 60.5962 33.5318 60.4794C33.6053 60.0354 33.6954 59.4547 33.7939 58.2239C33.8156 57.9524 33.8361 57.6203 33.8543 57.2757C33.962 56.7621 34.0639 56.2542 34.1315 55.8061C34.1894 55.4285 34.2796 55.0842 34.3768 54.745C34.4048 54.6476 34.4339 54.5492 34.4629 54.4508C34.5329 54.2135 34.6031 53.9726 34.6593 53.7479C34.7043 53.5666 34.757 53.3761 34.8129 53.1737C35.0169 52.4269 35.2606 51.5612 35.3258 50.3804C35.3933 49.1606 35.4165 48.0876 35.4325 47.1788C35.4351 47.8557 35.4562 48.3565 35.4754 48.8012C35.4791 48.8836 35.4827 48.9624 35.4863 49.0381C35.5114 49.5729 35.5303 49.9568 35.507 50.3633C35.3945 52.3431 35.3057 53.0791 35.1116 53.8964C35.0607 54.1084 34.9946 54.3579 34.9242 54.616C34.7831 55.138 34.6234 55.7088 34.5173 56.3601C34.419 56.9568 34.285 57.6112 34.1433 58.3212C34.1433 58.3214 34.1433 58.3217 34.1433 58.322C34.1157 58.4593 34.0878 58.5976 34.0599 58.7363C33.8893 59.5944 33.7182 60.4775 33.5975 61.3724C33.5847 61.4665 33.5677 61.5788 33.5482 61.7069C33.4358 62.4427 33.2381 63.768 33.2738 65.3704C33.2813 65.7303 33.3121 66.0854 33.3472 66.5089C33.3578 66.6393 33.3691 66.7737 33.3801 66.9127C33.4282 67.5044 33.4764 68.2363 33.4904 69.2022C33.5023 69.9878 33.491 70.9745 33.4832 71.9701C33.4787 72.4827 33.4759 72.9682 33.4756 73.476C33.4761 74.9539 33.5036 76.3774 33.5435 77.7218C33.5435 77.7221 33.5435 77.7224 33.5435 77.7227C33.548 77.9099 33.6928 78.0021 33.8654 78.0124C34.0382 77.9907 34.1737 77.8935 34.1693 77.711C34.1295 76.3649 34.1018 74.9525 34.1013 73.4795C34.1017 72.9791 34.1044 72.499 34.1088 71.9885C34.1167 70.9887 34.1281 69.9913 34.1161 69.1975C34.1019 68.2169 34.0528 67.4738 34.0041 66.8721C33.9925 66.7253 33.981 66.5859 33.9702 66.4526C33.9354 66.0407 33.9064 65.7021 33.8992 65.3618C33.8647 63.8116 34.0544 62.5402 34.167 61.7987C34.1869 61.6674 34.2044 61.5512 34.218 61.4519C34.3362 60.5769 34.5044 59.7087 34.6748 58.8485C34.7024 58.7117 34.7299 58.5749 34.7573 58.4386C34.7575 58.4383 34.7576 58.4381 34.7577 58.4378C34.8991 57.7315 35.0355 57.0607 35.1355 56.4557C35.2374 55.8319 35.3823 55.3123 35.5187 54.8121C35.5919 54.5448 35.6625 54.283 35.7224 54.0269C35.928 53.1625 36.0188 52.3844 36.1316 50.4001ZM31.0436 77.1058C30.9706 76.7084 30.9594 76.3823 30.9686 76.1513C30.983 76.3498 30.9984 76.5561 31.0147 76.7594C31.024 76.8705 31.0337 76.9836 31.0436 77.1058ZM33.2318 57.2C33.2188 57.2621 33.2056 57.3245 33.1924 57.387C33.2052 57.2133 33.2178 57.0386 33.2304 56.8633C33.2459 56.648 33.2613 56.4312 33.2768 56.2131C33.2626 56.5604 33.2478 56.8931 33.2318 57.2ZM34.7009 50.3444C34.6393 51.4607 34.4162 52.2502 34.2138 52.9954C34.1556 53.2067 34.0995 53.4106 34.0498 53.6116C34.0292 53.6949 34.0068 53.7779 33.9834 53.8613C33.9978 53.3695 34.0105 52.9105 34.0211 52.5316C34.0525 51.4109 34.0327 50.7756 34.016 50.2068C34.011 50.0463 34.0063 49.8916 34.0031 49.7332C34.0311 49.6038 34.0592 49.469 34.0849 49.3321C34.1211 49.1406 34.1573 48.9325 34.1893 48.7334C34.2214 48.5337 34.2517 48.3282 34.2785 48.1344C34.3055 47.937 34.3299 47.7404 34.3526 47.5438C34.3739 47.3588 34.3936 47.1736 34.4128 46.9938C34.4139 46.9835 34.415 46.9732 34.4161 46.9629C34.4364 46.7727 34.4562 46.587 34.4786 46.4159C34.5014 46.2446 34.5248 46.1048 34.5553 45.9796C34.5932 45.8236 34.6302 45.6629 34.6653 45.5035C34.7004 45.3438 34.7337 45.1843 34.7656 45.0246C34.7975 44.8647 34.8279 44.7057 34.8573 44.5458C34.8668 44.4941 34.8766 44.4399 34.8858 44.3885C34.8901 44.3646 34.8944 44.3416 34.8985 44.3186C34.8821 44.6325 34.8662 44.9605 34.8519 45.2954C34.831 45.7829 34.8228 46.2824 34.8123 46.8651C34.7955 47.8393 34.7767 48.9756 34.7009 50.3444ZM35.3253 39.8371C35.2877 39.9554 35.232 40.1242 35.1612 40.3422L35.1998 40.1256C35.1981 40.1454 35.1963 40.1656 35.1945 40.1861C35.1891 40.2472 35.1833 40.3116 35.1774 40.379C35.1774 40.3774 35.1775 40.3758 35.1774 40.3742C35.1747 40.2886 35.1723 40.2062 35.1703 40.1238L35.1329 40.3338C35.1488 40.2561 35.1651 40.1788 35.1825 40.0989C35.2458 39.8095 35.3102 39.5324 35.3784 39.2568C35.4469 38.9804 35.5233 38.6935 35.6003 38.4188C35.6778 38.1428 35.7595 37.8684 35.8469 37.5915C35.9348 37.3133 36.0229 37.0485 36.1192 36.777C36.1502 36.6894 36.1818 36.6021 36.2137 36.5154C36.1603 36.7156 36.1021 36.9239 36.0438 37.1374C35.9967 37.3095 35.9478 37.4905 35.8981 37.6831C35.8791 37.7568 35.8577 37.8469 35.8328 37.9524C35.739 38.3561 35.5861 39.0167 35.3253 39.8371ZM37.1663 34.4266C37.1942 34.366 37.2216 34.3059 37.2482 34.2464C37.3243 34.0759 37.3924 33.9174 37.4641 33.7489C37.5136 33.6328 37.5618 33.5187 37.6095 33.4072C37.6297 33.3602 37.6499 33.3133 37.6699 33.2671C37.7034 33.1896 37.7369 33.1133 37.7703 33.0379C37.5647 33.5812 37.365 34.121 37.1546 34.6828C37.1518 34.6903 37.1489 34.6977 37.146 34.7052C37.1529 34.6099 37.1597 34.5171 37.1663 34.4266Z" fill="#1E1E1E"/>
<path d="M14.7472 50.2317C14.7346 49.7185 14.7664 49.2129 14.8072 48.6103C14.8072 48.6099 14.8072 48.6096 14.8072 48.6093C14.813 48.5226 14.8191 48.433 14.8251 48.3403C14.8738 47.5969 14.9282 46.6016 14.9386 45.1424C14.9493 43.4939 15.094 42.2338 15.2422 41.4225C15.27 41.2767 15.2836 41.1264 15.2899 40.745C15.2941 40.4947 15.2952 40.1559 15.2965 39.6625C15.2972 39.4007 15.2978 39.0917 15.2991 38.7347C15.3042 37.5726 15.2464 35.7151 15.1915 34.0174C15.1838 33.779 15.1762 33.5427 15.1688 33.3108L15.1812 33.4748C15.0796 32.6983 14.989 32.0257 14.915 31.4445C14.7787 30.3751 14.6664 29.3486 14.5316 28.2112C14.4109 27.1902 14.2709 26.0711 14.0771 24.808C13.9262 23.8274 13.8859 22.8792 13.8407 21.8828C13.8354 21.7583 13.8301 21.634 13.8249 21.5103C13.7837 20.6315 13.738 19.7563 13.606 18.8051C13.3712 17.1213 12.9951 15.822 12.534 14.3987C12.3562 13.8538 12.1578 13.2687 11.9475 12.6569C11.6128 11.681 11.1328 10.2751 10.534 8.93942C10.4823 8.82399 10.4333 8.71696 10.3792 8.60092C10.3789 8.60034 10.3786 8.59976 10.3783 8.59918C10.0074 7.80199 9.59433 7.04783 9.18397 6.43203L9.21684 6.47847C8.97556 6.16063 8.73967 5.87222 8.5223 5.6181C7.50459 4.44707 7.04719 4.02936 6.69025 3.67879C6.55422 3.54708 6.42716 3.4237 6.28298 3.27488C5.75823 2.73339 5.02708 1.86388 4.30108 0.967157C4.29834 0.963816 4.29559 0.960472 4.29284 0.957126C4.17429 0.810847 4.1838 0.599249 4.31829 0.490766C4.4527 0.382136 4.66069 0.41687 4.7785 0.562243C5.16047 1.03362 5.53878 1.49256 5.88229 1.89346C6.01333 1.81845 6.19261 1.85619 6.30122 1.98535C6.57414 2.31709 7.52324 3.22366 9.00133 4.64962C8.93089 4.52521 8.87387 4.4186 8.82575 4.32459C8.76803 4.21284 8.72758 4.12779 8.69086 4.05263C8.61645 3.89849 8.56556 3.79507 8.45303 3.63346C8.17201 3.27484 7.70592 2.73854 7.22145 2.16965C7.09844 2.02519 7.10706 1.81884 7.23846 1.70674C7.37041 1.59519 7.57475 1.61972 7.69705 1.76318C7.69944 1.76594 7.70182 1.7687 7.7042 1.77145C8.18138 2.33179 8.66167 2.88407 8.95543 3.25982C9.03083 3.35613 9.09226 3.43853 9.13925 3.50342C9.17636 3.55476 9.22123 3.61828 9.24271 3.65845C9.24552 3.66374 9.25074 3.6739 9.25626 3.68661C9.25633 3.68684 9.25639 3.68707 9.25646 3.68731C9.25957 3.69439 9.27548 3.7305 9.28241 3.77728C9.28384 3.78678 9.28649 3.80732 9.28613 3.83518C9.28854 3.84014 9.29095 3.8451 9.29335 3.85006C9.32713 3.91932 9.36007 3.98835 9.39899 4.06376C9.54205 4.34958 9.79976 4.77422 10.3323 5.63507L10.3504 5.66069C10.3625 5.68367 10.3748 5.70706 10.3873 5.73088C10.8523 6.60126 11.6068 8.07392 12.3289 9.96439C12.2911 9.83061 12.2555 9.70555 12.2133 9.56798C12.1122 9.23398 12.0011 8.89808 11.8862 8.57345C11.8397 8.44367 11.7938 8.31812 11.7466 8.19279C11.6723 7.99405 11.5872 7.78002 11.5066 7.58365C11.4483 7.44312 11.3898 7.30579 11.3313 7.17188C11.3311 7.17159 11.331 7.1713 11.3308 7.171C11.2462 6.9786 11.1622 6.7938 11.0705 6.60127C11.0386 6.53381 11.0071 6.46813 10.9756 6.40379C10.8494 6.146 10.718 5.89233 10.5703 5.59754C10.5608 5.57654 10.5513 5.55435 10.5426 5.53358L10.5161 5.49609C10.5087 5.48118 10.5018 5.46699 10.4958 5.4545C10.4807 5.4228 10.4664 5.39214 10.4532 5.3629C10.4416 5.33711 10.4309 5.31228 10.4203 5.2885C10.4188 5.28532 10.4174 5.28215 10.416 5.27897C10.4041 5.2524 10.3926 5.22718 10.3814 5.20303C10.3703 5.17891 10.3595 5.15576 10.3483 5.13329C10.3481 5.13311 10.348 5.13294 10.3479 5.13276C10.3361 5.10936 10.327 5.09163 10.3137 5.06752C10.2969 5.03725 10.282 5.01159 10.2632 4.98113C10.245 4.95165 10.2255 4.92134 10.2054 4.89109C10.1852 4.86086 10.1642 4.83031 10.1428 4.79973C10.1213 4.76908 10.0992 4.7381 10.0766 4.70708C10.054 4.67603 10.031 4.64502 10.0077 4.61382C9.98445 4.5826 9.96082 4.55106 9.93693 4.51943C9.88252 4.44729 9.85273 4.35768 9.85709 4.2714C9.86118 4.18479 9.89748 4.10719 9.9593 4.0555C10.0211 4.00381 10.104 3.9819 10.1903 3.99436C10.2763 4.0065 10.3598 4.05381 10.4209 4.1229C10.4376 4.1419 10.4545 4.16095 10.4713 4.18016C10.4813 4.19156 10.4913 4.20317 10.5013 4.21465C10.5282 4.24553 10.5555 4.27676 10.5826 4.30868C10.6097 4.34053 10.6367 4.37293 10.6638 4.40591C10.691 4.43904 10.7184 4.47291 10.7456 4.50772C10.7728 4.54245 10.8 4.57838 10.827 4.6155C10.8534 4.65166 10.8827 4.69377 10.9078 4.73212C10.9263 4.76006 10.948 4.79537 10.9658 4.82509C10.9844 4.8561 11.0023 4.88714 11.019 4.91708C11.0358 4.94716 11.0516 4.97661 11.0667 5.00476C11.0684 5.00776 11.07 5.01076 11.0717 5.01375C11.0798 5.02885 11.0877 5.04365 11.0954 5.05803L11.1484 5.13294C11.1529 5.14263 11.1573 5.15213 11.1616 5.16141C11.1738 5.18774 11.1857 5.21257 11.1973 5.23607C11.21 5.26199 11.2184 5.27742 11.2287 5.29631C11.3769 5.54396 11.5611 5.84299 11.724 6.12595C11.7449 6.16212 11.7656 6.1984 11.7861 6.23454C11.8937 6.42342 11.9975 6.61215 12.0985 6.80241C12.1703 6.93752 12.2433 7.07859 12.3139 7.21887C12.4136 7.4167 12.5192 7.63541 12.6119 7.83466C12.6708 7.96139 12.7298 8.09163 12.7867 8.22024C12.9337 8.55202 13.0746 8.89124 13.2082 9.23675C13.3381 9.57252 13.4648 9.92458 13.5777 10.2678C13.695 10.6228 13.7994 10.9738 13.8916 11.3289C13.9562 11.5811 14.0142 11.8664 14.0547 12.1073C14.0777 12.2403 14.0994 12.3724 14.1205 12.504C14.1206 12.5044 14.1206 12.5049 14.1207 12.5053C14.1394 12.6217 14.1569 12.7343 14.1738 12.8437C14.2101 13.0786 14.2503 13.3196 14.2909 13.5508C14.3307 13.779 14.3744 14.0091 14.423 14.2442C14.4696 14.4714 14.5193 14.6984 14.5733 14.9298C14.6288 15.167 14.6809 15.3797 14.7413 15.617C14.8215 15.9306 14.9014 16.2311 14.9841 16.5458C15.0674 16.8633 15.1483 17.1706 15.2296 17.4871C15.258 17.5978 15.2863 17.7096 15.3148 17.8224C15.3149 17.8228 15.315 17.8233 15.3151 17.8237C15.3671 18.0288 15.4171 18.2283 15.4679 18.4353C15.5467 18.7566 15.6223 19.0728 15.6955 19.3917C15.7691 19.7131 15.8409 20.0398 15.9068 20.3605C15.973 20.6831 16.0397 21.0302 16.0923 21.3598C16.1403 21.6577 16.187 21.9705 16.2297 22.2672C16.2409 22.3446 16.252 22.4223 16.2631 22.5003C16.3155 22.8673 16.3711 23.2451 16.4293 23.5913C16.488 23.9415 16.5557 24.2998 16.6296 24.6589C16.7016 25.0074 16.7809 25.3653 16.8645 25.7317C16.9482 26.0979 17.0314 26.4442 17.1199 26.8138C17.2083 27.1842 17.2953 27.5369 17.3856 27.906C17.4356 28.1107 17.486 28.3308 17.5319 28.541C17.5776 28.7488 17.6205 28.9514 17.6623 29.1562C17.6793 29.239 17.696 29.3218 17.7126 29.4042C17.7369 29.5245 17.7608 29.6442 17.7848 29.7626C17.8255 29.9643 17.8652 30.1542 17.9062 30.3385C17.9473 30.5231 17.9901 30.7032 18.0361 30.8777C18.0837 31.0584 18.1273 31.2077 18.1849 31.3867C18.3074 31.8186 18.3614 32.0817 18.4228 32.384C18.4349 32.4433 18.4473 32.504 18.4604 32.5673C18.4921 32.7279 18.5224 32.8894 18.5516 33.0516L18.5644 33.2204C18.5809 33.4249 18.5957 33.6283 18.6089 33.8297C18.6327 34.1944 18.6517 34.5518 18.6666 34.9122C18.6815 35.2691 18.6921 35.627 18.6989 35.9819C18.706 36.3441 18.7093 36.7057 18.7087 37.0657C18.7081 37.4256 18.7035 37.7911 18.6955 38.1404C18.6909 38.3426 18.6833 38.5551 18.6751 38.7551C18.6693 38.9018 18.6629 39.0461 18.6565 39.1872C18.654 39.2448 18.6514 39.3021 18.6489 39.3587C18.6402 39.5541 18.6324 39.7433 18.6274 39.9256C18.6223 40.1079 18.62 40.2838 18.6217 40.4553C18.6234 40.6272 18.6293 40.7948 18.6395 40.9619C18.6503 41.136 18.6624 41.2757 18.683 41.464C18.6966 41.5863 18.7101 41.7059 18.7237 41.8249C18.744 42.0031 18.7646 42.1795 18.7858 42.3567C18.807 42.5337 18.8285 42.7079 18.8507 42.8825C18.8579 42.9386 18.8654 42.9978 18.8728 43.054C18.8954 43.2277 18.9186 43.3988 18.9428 43.5693C18.967 43.7404 18.992 43.9041 19.0184 44.0784C19.045 44.2508 19.0723 44.4198 19.1017 44.5916C19.1518 44.8836 19.1782 45.1621 19.1972 45.4051C19.2161 45.6511 19.2286 45.88 19.2407 46.102C19.243 46.1436 19.2452 46.1851 19.2475 46.2266C19.257 46.4036 19.2663 46.5852 19.2765 46.7624C19.2891 46.9809 19.3031 47.1945 19.3189 47.4079C19.3345 47.6195 19.3519 47.8323 19.3715 48.041C19.3913 48.2516 19.4122 48.4522 19.437 48.6675C19.4614 48.877 19.4921 49.104 19.5254 49.3451C19.5585 49.5851 19.5926 49.8358 19.623 50.0884C19.6535 50.3407 19.6807 50.5959 19.703 50.8479C19.7255 51.0989 19.7438 51.3561 19.7582 51.6128C19.7727 51.8697 19.7833 52.1238 19.7909 52.3753C19.7985 52.6262 19.8033 52.884 19.8051 53.124C19.8079 53.5064 19.8091 53.9118 19.8093 54.3039C19.8093 54.6956 19.8084 55.085 19.8068 55.4699C19.8052 55.8501 19.8036 56.2573 19.8011 56.6448C19.7986 57.0352 19.7958 57.4217 19.7926 57.8037C19.792 57.889 19.7914 57.9782 19.7907 58.0651C19.7884 58.3726 19.786 58.6774 19.7837 58.9783C19.7836 58.9804 19.7836 58.9825 19.7835 58.9846C19.7807 59.3751 19.7775 59.7373 19.7763 60.1334C19.7759 60.2768 19.7756 60.4141 19.7757 60.553C19.7758 60.692 19.7763 60.8279 19.7773 60.9644C19.7782 61.1011 19.7798 61.2364 19.782 61.3691C19.7843 61.5032 19.7872 61.6333 19.7914 61.7641C19.7952 61.881 19.8005 62.0101 19.806 62.1433C19.8065 62.1556 19.807 62.1678 19.8076 62.1801C19.8136 62.3272 19.8187 62.4936 19.8196 62.6475C19.8214 63.0566 19.8253 63.4422 19.832 63.8447C19.8388 64.256 19.8478 64.6604 19.8578 65.0618C19.8617 65.2186 19.8659 65.3751 19.8699 65.5307C19.8763 65.7822 19.8826 66.0359 19.8883 66.2858C19.8978 66.7015 19.905 67.0902 19.9092 67.5158C19.9132 67.9356 19.9134 68.3501 19.9093 68.7547C19.9052 69.1624 19.8974 69.5966 19.8853 70.0003C19.8717 70.4426 19.8563 70.9199 19.8396 71.3722C19.8227 71.8176 19.805 72.2873 19.7862 72.7411C19.7674 73.187 19.7479 73.6547 19.7276 74.1086C19.7071 74.549 19.6862 75.0272 19.6642 75.4745C19.651 75.7368 19.6377 76.0192 19.6241 76.2948C19.6402 76.4399 19.6559 76.5767 19.6708 76.7063C19.7813 77.7005 19.8601 78.3926 19.9176 79.3418C19.9259 79.4309 19.9373 79.5022 19.951 79.5874C19.9536 79.6036 19.9562 79.6208 19.959 79.6382C19.9766 79.7479 19.9953 79.8993 20.0077 80.0826C20.0323 80.4287 20.0317 81.0268 19.8893 81.7566C19.8533 81.9491 19.6871 82.048 19.5182 82.0143C19.3997 81.9894 19.3113 81.9009 19.2814 81.777C19.2625 81.9925 19.2425 82.2253 19.2224 82.4401C19.2144 82.548 19.1757 82.5816 19.1141 82.675C19.0525 82.74 18.9731 82.7514 18.8926 82.7496C18.8122 82.7449 18.7367 82.7264 18.6816 82.6427C18.6265 82.5695 18.5966 82.5069 18.5975 82.3968C18.5989 82.2882 18.6003 82.1776 18.6013 82.0421C18.6025 81.9382 18.6035 81.8236 18.6041 81.6983C18.6055 81.4616 18.6057 81.2326 18.605 80.9947C18.6045 80.7816 18.6026 80.5102 18.6004 80.2953C18.5982 80.0759 18.5951 79.8153 18.5917 79.5917C18.5882 79.3656 18.584 79.1325 18.5794 78.8842C18.5767 78.7487 18.5741 78.6116 18.5711 78.4721C18.57 78.4202 18.5687 78.3691 18.5676 78.3176C18.5667 78.2755 18.5659 78.2329 18.565 78.1887C18.5548 77.724 18.5439 77.2849 18.532 76.8212C18.5205 76.3885 18.5076 75.8909 18.4949 75.4619C18.482 75.0138 18.468 74.5397 18.4542 74.0988C18.4401 73.6445 18.4255 73.1808 18.4106 72.7351C18.3955 72.2816 18.3799 71.816 18.3636 71.372C18.351 71.0261 18.3374 70.6573 18.3235 70.3176C18.3055 70.1834 18.2885 70.0495 18.2721 69.9164C18.2242 69.5327 18.1625 69.1211 18.1017 68.7461C18.1388 69.432 18.1895 69.9943 18.2373 70.5011C18.2438 70.5734 18.2503 70.6449 18.2566 70.716C18.3212 71.4378 18.3764 72.1152 18.3769 73.0381C18.3782 75.6571 18.3703 77.1994 18.3384 78.1382C18.3064 79.0843 18.2498 79.4941 18.1342 79.8785C17.9708 80.4083 17.8823 81.4594 17.881 81.9762C17.8806 82.1621 17.74 82.3266 17.5672 82.3202C17.3944 82.3267 17.2547 82.1604 17.2551 81.9761C17.2564 81.4282 17.346 80.3142 17.5402 79.6576C17.6268 79.39 17.6816 79.045 17.7131 78.1126C17.7445 77.1903 17.7522 75.6615 17.751 73.0391C17.7505 72.1505 17.6978 71.4965 17.634 70.7853C17.6277 70.7152 17.6212 70.6442 17.6147 70.5724C17.6147 70.5719 17.6147 70.5715 17.6147 70.5711C17.5558 69.9482 17.4905 69.2038 17.4531 68.2842C17.3663 66.1019 17.2095 63.1559 17.136 62.4635C17.1216 62.3256 17.1058 62.1916 17.0892 62.0497C17.0255 61.5186 16.9488 60.8722 16.8793 59.4165C16.8641 59.1008 16.8518 58.728 16.8418 58.3158C16.7462 57.6884 16.6576 57.1237 16.6013 56.6009C16.5529 56.1553 16.4712 55.7331 16.383 55.3469C16.3576 55.2339 16.3311 55.1199 16.3047 55.0058C16.241 54.7307 16.1773 54.4535 16.1268 54.1815C16.0866 53.9656 16.0388 53.7337 15.9884 53.4969C15.8052 52.6516 15.584 51.5773 15.5533 50.2411C15.5198 48.7836 15.5294 47.5793 15.5403 46.4941C15.5173 47.2863 15.4818 47.8903 15.4492 48.3893C15.4431 48.4835 15.4371 48.5735 15.4313 48.6601C15.3903 49.2711 15.3609 49.7366 15.3726 50.2142C15.4286 52.508 15.498 53.352 15.6709 54.3401C15.7163 54.5966 15.7755 54.878 15.8392 55.1787C15.9663 55.7687 16.1122 56.4862 16.2015 57.2243C16.2845 57.9012 16.4032 58.7068 16.5276 59.5168C16.5276 59.5171 16.5276 59.5175 16.5276 59.5178C16.5519 59.6776 16.5764 59.8344 16.6011 60C16.7518 61.0215 16.9027 62.0517 17.0037 63.0878C17.0145 63.197 17.029 63.3273 17.0458 63.476C17.1424 64.3487 17.3118 65.8837 17.2455 67.7492C17.2311 68.1672 17.1937 68.584 17.1508 69.0699C17.1378 69.222 17.1241 69.3787 17.1106 69.5408C17.0519 70.2303 16.9909 71.087 16.9611 72.1993C16.9367 73.1402 16.9323 74.2399 16.9268 75.4331C16.9237 75.9866 16.9206 76.6024 16.9145 77.1761C16.8962 78.9365 16.8536 80.5317 16.8059 82.1331C16.8059 82.1335 16.8059 82.1338 16.8059 82.1342C16.8003 82.3332 16.6552 82.4648 16.4825 82.4672C16.3099 82.4479 16.1746 82.3169 16.1802 82.1109C16.2279 80.5169 16.2705 78.9218 16.2888 77.1686C16.2948 76.6051 16.2978 75.9931 16.3009 75.4423C16.3065 74.2436 16.3109 73.13 16.3355 72.1789C16.3658 71.049 16.4279 70.1788 16.4874 69.4771C16.5017 69.3058 16.5157 69.1432 16.5289 68.9877C16.5714 68.5157 16.6067 68.1174 16.6204 67.7221C16.6845 65.9165 16.5219 64.4433 16.4251 63.5632C16.408 63.4107 16.3931 63.2759 16.3817 63.1606C16.2827 62.1484 16.1342 61.1291 15.9838 60.1129C15.9593 59.945 15.9351 59.7904 15.9109 59.6316C15.9108 59.6313 15.9107 59.631 15.9106 59.6306C15.7863 58.8247 15.6656 57.9993 15.5811 57.3126C15.4951 56.605 15.3628 55.9504 15.2397 55.3824C15.1735 55.0721 15.11 54.7709 15.0568 54.4712C14.8736 53.4264 14.8034 52.5319 14.7472 50.2317ZM19.3098 81.4327C19.3856 80.955 19.3998 80.6058 19.3926 80.3221C19.3763 80.5468 19.3593 80.81 19.3413 81.0239C19.3311 81.1559 19.3207 81.3056 19.3098 81.4327ZM17.466 58.2479C17.4775 58.3225 17.4892 58.3974 17.5009 58.4725C17.4923 58.2653 17.4839 58.0548 17.4755 57.8475C17.4653 57.5995 17.4554 57.35 17.4455 57.0988C17.4509 57.4999 17.4572 57.8749 17.466 58.2479ZM16.179 50.2247C16.208 51.4863 16.4106 52.4718 16.5922 53.3148C16.6445 53.5558 16.6953 53.8042 16.7398 54.0435C16.7582 54.1431 16.7784 54.2424 16.7997 54.3422C16.798 53.7544 16.7977 53.2234 16.7975 52.7905C16.7967 51.485 16.8344 50.7414 16.8676 50.0916C16.8771 49.9027 16.8862 49.7204 16.8939 49.5338C16.8696 49.38 16.8453 49.2198 16.8236 49.0574C16.7928 48.828 16.7629 48.5947 16.7369 48.3643C16.7107 48.1345 16.6866 47.8998 16.6655 47.6683C16.6443 47.4349 16.6257 47.2025 16.6089 46.9702C16.5931 46.753 16.5788 46.5283 16.5652 46.3255C16.5644 46.3137 16.5637 46.3019 16.5629 46.2901C16.5484 46.0719 16.5344 45.8589 16.5173 45.6626C16.4998 45.4627 16.4806 45.2961 16.4541 45.1481C16.4209 44.9632 16.3888 44.773 16.3587 44.5842C16.3286 44.3952 16.3002 44.2063 16.2733 44.0174C16.2465 43.8323 16.2212 43.6502 16.197 43.4662C16.1891 43.4067 16.1811 43.3445 16.1735 43.2854C16.17 43.2582 16.1665 43.231 16.1631 43.2038C16.1694 43.5676 16.1745 43.9314 16.1786 44.3315C16.1843 44.9011 16.1776 45.5044 16.1699 46.1616C16.1572 47.3037 16.1415 48.5943 16.179 50.2247ZM15.9731 37.6959C15.9787 37.8535 15.9894 38.084 16.0031 38.3796C16.0064 38.4495 16.01 38.5232 16.0135 38.6003C16.0136 38.5985 16.0136 38.5966 16.0137 38.5948C16.0248 38.4032 16.0343 38.2258 16.0424 38.0339C16.0566 37.6918 16.0678 37.3579 16.0759 37.0192C16.0841 36.6797 16.0891 36.3365 16.0913 35.9977C16.0936 35.6631 16.0927 35.326 16.0887 34.9905C16.0845 34.6518 16.0775 34.3164 16.0663 33.9765C16.0628 33.8682 16.0588 33.7595 16.0543 33.6506C16.045 33.8941 16.0387 34.1462 16.032 34.4115C16.0266 34.6234 16.021 34.8438 16.0133 35.0749C16.0104 35.1633 16.0052 35.2704 15.9991 35.3949C15.9746 35.8821 15.9368 36.6754 15.9731 37.6959ZM15.578 31.0712C15.5634 30.9944 15.5493 30.9182 15.5359 30.843C15.4977 30.6272 15.4651 30.4271 15.4317 30.2146C15.4085 30.0675 15.3863 29.9229 15.3642 29.7812C15.3549 29.7214 15.3455 29.6618 15.3363 29.6029C15.3207 29.5043 15.305 29.4068 15.2893 29.3104C15.3683 29.9946 15.4467 30.6669 15.5355 31.3647C15.5367 31.374 15.538 31.3833 15.5392 31.3926C15.5524 31.2826 15.5653 31.1756 15.578 31.0712Z" fill="#1E1E1E"/>
<path d="M10.0771 68.9118C10.0295 68.5942 10.0268 68.2779 10.0269 67.9025C10.0268 67.9023 10.0268 67.9021 10.0268 67.9019C10.0267 67.8475 10.0267 67.7913 10.0264 67.7332C10.0241 67.2653 10.0115 66.6485 9.92302 65.7398C9.82331 64.7227 9.88124 63.9175 9.97528 63.4069C9.99311 63.3136 9.99652 63.219 9.97728 62.9815C9.96464 62.8257 9.94292 62.6152 9.91117 62.3087C9.89447 62.1469 9.87377 61.9509 9.85216 61.7353C9.77916 61.0113 9.59869 59.8701 9.4311 58.8191C9.41518 58.7192 9.39935 58.6199 9.38371 58.5216L9.41902 58.6946C9.27887 58.1729 9.15243 57.7102 9.05332 57.327C8.88711 56.6837 8.74213 56.0429 8.58071 55.3562C8.43248 54.7267 8.26935 54.0533 8.05106 53.2829C7.88579 52.6993 7.82244 52.0885 7.76598 51.475C7.75922 51.3982 7.75174 51.319 7.74387 51.2387C7.69179 50.692 7.63616 50.1423 7.49952 49.556C7.2606 48.5271 6.89102 47.7471 6.46436 46.9238C6.29563 46.5988 6.11702 46.2668 5.92733 45.9085C5.62637 45.3395 5.20936 44.5233 4.72389 43.7642C4.68376 43.7013 4.63964 43.6337 4.59817 43.5711C4.59796 43.5708 4.59775 43.5705 4.59753 43.5701C4.32732 43.161 4.03469 42.7728 3.75542 42.4597L3.79596 42.5026C3.58878 42.297 3.38666 42.1131 3.2022 41.9542C2.45963 41.3233 2.11971 41.1074 1.85574 40.9306C1.75445 40.8633 1.66124 40.8015 1.55332 40.7221C1.16442 40.4366 0.627906 39.9501 0.0919772 39.4466C0.0899447 39.4447 0.0879121 39.4429 0.0858774 39.441C-0.00174469 39.3588 0.0190371 39.189 0.135379 39.0653C0.251662 38.9415 0.418873 38.9099 0.50565 38.9913C0.786374 39.2549 1.06456 39.5119 1.31716 39.7337C1.42686 39.636 1.57008 39.6158 1.64921 39.6876C1.85026 39.8731 2.54943 40.3316 3.64781 41.048C3.59828 40.9689 3.55926 40.9004 3.5264 40.8391C3.48742 40.7668 3.45957 40.7098 3.43514 40.6604C3.38454 40.5579 3.35096 40.4903 3.27046 40.3924C3.06897 40.1862 2.73019 39.8884 2.37784 39.5726C2.28778 39.4919 2.30871 39.3257 2.42126 39.1987C2.53499 39.0726 2.69665 39.0329 2.78601 39.1129C2.78775 39.1144 2.7895 39.116 2.79125 39.1175C3.13733 39.4277 3.48514 39.7331 3.69653 39.9501C3.75027 40.0052 3.79543 40.0546 3.8284 40.0925C3.85434 40.1225 3.88765 40.1616 3.90193 40.1872C3.90384 40.1906 3.90738 40.1972 3.91099 40.2058C3.91103 40.206 3.91107 40.2061 3.91111 40.2063C3.91324 40.2111 3.92331 40.2351 3.92648 40.2709C3.9271 40.2781 3.92823 40.294 3.92613 40.3163C3.92775 40.3196 3.92937 40.3229 3.931 40.3261C3.95357 40.3715 3.97654 40.4179 4.00307 40.4667C4.10411 40.658 4.29127 40.9364 4.70859 41.4831C4.7247 41.5044 4.7414 41.5263 4.7587 41.5488L4.78019 41.5715C5.14824 42.1084 5.72628 42.9406 6.33476 44.0229C6.30322 43.9413 6.26891 43.8568 6.23551 43.7761C6.15163 43.5733 6.05997 43.3697 5.95992 43.164C5.92167 43.0854 5.88681 43.0137 5.84518 42.9331C5.78007 42.8063 5.71636 42.6854 5.64599 42.5593C5.59957 42.4758 5.55293 42.3938 5.50306 42.3092C5.50293 42.309 5.5028 42.3088 5.50267 42.3086C5.43546 42.1939 5.36465 42.0777 5.29237 41.9628C5.26759 41.9228 5.2426 41.8833 5.21633 41.8428C5.1294 41.7084 5.03944 41.5759 4.9454 41.4283L4.91391 41.395C4.89619 41.3707 4.87833 41.3459 4.86029 41.3205C4.84654 41.2984 4.83234 41.2734 4.82219 41.2543C4.81119 41.2338 4.80084 41.2139 4.79139 41.1948C4.78307 41.1779 4.77534 41.1614 4.7678 41.1458C4.76678 41.1437 4.76576 41.1417 4.76474 41.1396C4.75629 41.1221 4.74804 41.1056 4.74001 41.0898C4.732 41.074 4.72425 41.0588 4.71616 41.0444C4.71605 41.0443 4.71594 41.0442 4.71584 41.0441C4.70731 41.0291 4.70079 41.0177 4.69101 41.0025C4.67873 40.9834 4.6678 40.9674 4.6539 40.9487C4.64051 40.9307 4.62609 40.9123 4.61115 40.8942C4.59623 40.876 4.58055 40.8578 4.56466 40.8397C4.54871 40.8216 4.5323 40.8034 4.51551 40.7853C4.49871 40.7671 4.48159 40.749 4.46437 40.7309C4.44713 40.7128 4.42963 40.6945 4.41193 40.6762C4.37161 40.6343 4.35265 40.5716 4.36088 40.5015C4.36913 40.4314 4.40292 40.3591 4.45586 40.3002C4.50882 40.2413 4.57716 40.2002 4.64645 40.1856C4.71574 40.171 4.78088 40.1849 4.82713 40.2227C4.83982 40.2331 4.85262 40.2435 4.86537 40.2541C4.87293 40.2603 4.88049 40.2667 4.88807 40.2731C4.90843 40.29 4.92918 40.3072 4.94984 40.3249C4.97046 40.3426 4.99102 40.3607 5.01164 40.3793C5.03239 40.3979 5.0533 40.4171 5.07403 40.4371C5.09471 40.457 5.11548 40.4778 5.13609 40.4996C5.15623 40.5208 5.17845 40.5459 5.19756 40.5692C5.21161 40.5861 5.22804 40.6079 5.24152 40.6264C5.25556 40.6457 5.26902 40.6651 5.28164 40.6841C5.2943 40.7031 5.3062 40.7219 5.3176 40.7398C5.31884 40.7417 5.32008 40.7436 5.32131 40.7455C5.33137 40.7614 5.3411 40.7768 5.35035 40.7911C5.3607 40.8071 5.37077 40.822 5.38057 40.8359C5.39131 40.8513 5.39835 40.8602 5.40708 40.871C5.41264 40.8772 5.41828 40.8833 5.42399 40.8896L5.48834 40.9577C5.60382 41.1004 5.74936 41.27 5.88321 41.4359C5.90031 41.457 5.91729 41.4783 5.93412 41.4994C6.02457 41.6124 6.11249 41.7257 6.1982 41.8396C6.26213 41.9246 6.32112 42.0048 6.38153 42.089C6.47211 42.2155 6.55418 42.3343 6.63949 42.4622C6.69224 42.5414 6.73962 42.6141 6.78995 42.6931C6.92047 42.8979 7.04514 43.1057 7.15978 43.3101C7.27853 43.5217 7.38664 43.7286 7.48988 43.9431C7.59156 44.1547 7.6891 44.3776 7.77266 44.5989C7.83453 44.7631 7.87962 44.9283 7.92118 45.0917C7.94338 45.1793 7.9613 45.2595 7.98036 45.3428C7.98039 45.3431 7.98041 45.3434 7.98044 45.3437C7.9969 45.4163 8.01311 45.4885 8.02986 45.5606C8.0652 45.7144 8.09851 45.8577 8.13829 46.0065C8.17912 46.1578 8.21689 46.2933 8.26304 46.4384C8.30892 46.5826 8.35693 46.7233 8.40797 46.8623C8.45912 47.0017 8.51507 47.1442 8.57167 47.2825C8.64734 47.4664 8.73065 47.6599 8.80987 47.8437C8.88992 48.0292 8.97492 48.2263 9.05409 48.4113C9.08228 48.4773 9.11036 48.544 9.13877 48.6112C9.13887 48.6115 9.13897 48.6117 9.13907 48.612C9.19192 48.7372 9.24396 48.8615 9.29448 48.9836C9.3724 49.1719 9.45396 49.3748 9.52738 49.5624C9.60183 49.7528 9.67861 49.9571 9.74738 50.1509C9.81631 50.3456 9.88604 50.5541 9.94518 50.7626C9.99708 50.945 10.0469 51.1327 10.0957 51.3191C10.1085 51.3681 10.1217 51.4185 10.1338 51.4654C10.1923 51.6918 10.2516 51.9143 10.3194 52.1359C10.3845 52.35 10.4577 52.5633 10.539 52.7817C10.6203 53.0004 10.7043 53.2077 10.7957 53.4277C10.888 53.6506 10.9789 53.8583 11.0752 54.0774C11.1708 54.2946 11.2691 54.5157 11.3672 54.7318C11.4221 54.8533 11.4779 54.9846 11.529 55.1102C11.5811 55.2382 11.6298 55.3618 11.6768 55.4839C11.696 55.5336 11.7149 55.5833 11.7337 55.6328C11.7612 55.7049 11.7884 55.7769 11.8156 55.8479C11.8613 55.9671 11.9082 56.0877 11.9544 56.1979C12.0007 56.3082 12.0485 56.4153 12.0993 56.5185C12.152 56.6253 12.1998 56.713 12.2623 56.8173C12.3992 57.0794 12.4604 57.2335 12.5314 57.4157C12.5453 57.4512 12.5596 57.4876 12.5747 57.5256C12.6284 57.6668 12.6796 57.8097 12.7286 57.9535L12.7652 58.1328C12.7833 58.2119 12.8008 58.2907 12.8175 58.369C12.8655 58.5933 12.9081 58.8137 12.947 59.0362C12.9855 59.2567 13.0199 59.4781 13.0504 59.698C13.0806 59.9156 13.1087 60.1448 13.132 60.3675C13.1555 60.5913 13.1754 60.8189 13.1908 61.0368C13.1997 61.1627 13.2065 61.2964 13.2116 61.4203C13.2151 61.5088 13.2185 61.5998 13.2217 61.688C13.223 61.7241 13.2242 61.7599 13.2255 61.7954C13.2301 61.9176 13.235 62.036 13.2422 62.1498C13.2494 62.2636 13.2589 62.3731 13.2721 62.4796C13.2854 62.5862 13.3025 62.6898 13.3238 62.7927C13.3462 62.8993 13.368 62.9873 13.4007 63.0989C13.4219 63.1705 13.4438 63.2457 13.4652 63.3178C13.4974 63.4266 13.5298 63.5343 13.5628 63.6424C13.5958 63.7503 13.6289 63.8565 13.6629 63.9629C13.6738 63.9971 13.6853 64.0332 13.6964 64.0674C13.7306 64.1731 13.7652 64.2772 13.8008 64.3809C13.8364 64.4843 13.8726 64.5864 13.9101 64.6876C13.9479 64.7909 13.9867 64.8942 14.0275 64.9979C14.0971 65.1747 14.1422 65.3452 14.1776 65.4944C14.213 65.6455 14.241 65.7865 14.2681 65.9234C14.2731 65.949 14.2782 65.9746 14.2832 66.0002C14.3049 66.1109 14.3256 66.2166 14.3481 66.3274C14.3754 66.462 14.4039 66.5934 14.434 66.7246C14.4639 66.8546 14.4958 66.9852 14.5294 67.113C14.5635 67.242 14.5978 67.3647 14.6372 67.4961C14.676 67.6256 14.7211 67.7576 14.7709 67.9059C14.8202 68.0519 14.8712 68.2045 14.9187 68.3586C14.9663 68.5125 15.0107 68.6685 15.0502 68.8231C15.0899 68.9785 15.1249 69.1306 15.157 69.2904C15.189 69.4487 15.217 69.6056 15.2418 69.7612C15.2665 69.9164 15.2889 70.0762 15.3072 70.2252C15.3364 70.4641 15.3646 70.7101 15.3919 70.9553C15.419 71.1988 15.4448 71.4409 15.4698 71.6803C15.494 71.915 15.5203 72.1668 15.5446 72.4083C15.5691 72.6512 15.593 72.8917 15.6163 73.1293C15.6214 73.1818 15.6266 73.2345 15.6321 73.2893C15.6511 73.4806 15.6698 73.6703 15.6883 73.8576C15.6884 73.8588 15.6885 73.8601 15.6886 73.8614C15.7127 74.1036 15.7352 74.3326 15.7607 74.5735C15.7703 74.6627 15.7795 74.748 15.7892 74.8343C15.799 74.9207 15.809 75.0051 15.8194 75.0899C15.8299 75.1747 15.8409 75.2587 15.8523 75.3409C15.8639 75.424 15.8759 75.5046 15.8892 75.5855C15.9012 75.6592 15.9148 75.7337 15.9298 75.8173C15.9311 75.8249 15.9325 75.8325 15.9339 75.8401C15.9502 75.9309 15.9668 76.0338 15.9784 76.1294C16.0086 76.3827 16.04 76.6254 16.074 76.8698C16.1096 77.1248 16.1469 77.3753 16.185 77.6238C16.1998 77.7209 16.215 77.8177 16.2299 77.9141C16.2532 78.065 16.2778 78.2253 16.3009 78.3793C16.3395 78.636 16.3744 78.8801 16.4079 79.1395C16.4415 79.4001 16.4709 79.6577 16.4954 79.9094C16.5195 80.1587 16.5428 80.4323 16.5593 80.6836C16.5772 80.9607 16.5952 81.2546 16.6108 81.5383C16.6258 81.8177 16.641 82.1072 16.6548 82.3919C16.6679 82.6717 16.6814 82.9603 16.6937 83.2452C16.7049 83.5216 16.7179 83.8172 16.7283 84.098C16.734 84.2631 16.7406 84.4365 16.747 84.6098C16.7735 84.6985 16.799 84.7821 16.8232 84.8613C17.0043 85.4665 17.133 85.8905 17.259 86.4732C17.2737 86.5278 17.2902 86.5711 17.31 86.6228C17.3138 86.6327 17.3176 86.6431 17.3217 86.6537C17.3469 86.7181 17.3767 86.8121 17.4024 86.9246C17.4522 87.1383 17.4949 87.5076 17.4067 87.9738C17.3851 88.0968 17.2268 88.1729 17.0561 88.1668C16.9362 88.1618 16.8417 88.1144 16.8028 88.04C16.7998 88.1759 16.797 88.3219 16.7928 88.4569C16.7929 88.5249 16.7568 88.5494 16.7025 88.6129C16.646 88.6591 16.5678 88.6737 16.4876 88.6794C16.407 88.6832 16.3304 88.6777 16.2692 88.6302C16.2089 88.5898 16.1744 88.5531 16.1672 88.4846C16.1541 88.3509 16.1387 88.2 16.1224 88.0508C16.1066 87.9053 16.0897 87.7609 16.0719 87.615C16.0558 87.483 16.034 87.3132 16.0164 87.1819C15.9982 87.0463 15.976 86.8831 15.9566 86.7467C15.9368 86.6068 15.9155 86.4616 15.8931 86.309C15.8808 86.2263 15.8681 86.1406 15.8551 86.0544C15.8503 86.0223 15.8453 85.9907 15.8405 85.9588C15.8365 85.9327 15.8326 85.9063 15.8285 85.879C15.7853 85.5945 15.7422 85.3188 15.6974 85.0353C15.6547 84.7668 15.6066 84.4621 15.563 84.196C15.5179 83.918 15.4706 83.6282 15.4252 83.3548C15.3786 83.0729 15.3315 82.79 15.2847 82.5135C15.2373 82.2322 15.1892 81.9484 15.1413 81.6731C15.1043 81.4601 15.0642 81.2294 15.0269 81.0239C14.9995 80.9422 14.9731 80.8606 14.9473 80.7795C14.8726 80.5463 14.7817 80.2933 14.6953 80.0704C14.7801 80.4884 14.8708 80.8364 14.9541 81.1455C14.9652 81.1862 14.977 81.2325 14.9883 81.2755C15.1039 81.7189 15.2064 82.1306 15.2728 82.7048C15.4599 84.3252 15.5635 85.2843 15.5993 85.8679C15.6358 86.4586 15.6091 86.7172 15.5217 86.9646C15.3976 87.3089 15.3858 87.9666 15.4226 88.287C15.4357 88.4014 15.3079 88.5166 15.1353 88.5275C14.9637 88.5469 14.8121 88.4552 14.7991 88.342C14.7602 88.0028 14.7683 87.3048 14.9142 86.8814C14.981 86.707 15.0108 86.4904 14.9748 85.9081C14.9397 85.335 14.8369 84.3845 14.6497 82.7624C14.5858 82.2097 14.4874 81.8124 14.3733 81.3756C14.3621 81.3326 14.3506 81.2892 14.3391 81.2451C14.3391 81.2448 14.339 81.2446 14.339 81.2443C14.2367 80.866 14.1192 80.4113 14.0171 79.8433C13.777 78.4982 13.4162 76.6901 13.2946 76.2651C13.2707 76.1808 13.2456 76.0991 13.2192 76.0126C13.1197 75.6947 12.9974 75.2933 12.8281 74.402C12.7912 74.2074 12.7532 73.9771 12.7147 73.7221C12.5769 73.3469 12.4492 73.0009 12.3574 72.6824C12.2783 72.4087 12.1687 72.16 12.0542 71.927C12.0211 71.8592 11.9869 71.791 11.9528 71.7226C11.8705 71.5578 11.7881 71.3917 11.7192 71.2276C11.6644 71.0976 11.6007 70.9566 11.5349 70.8183C11.2944 70.3093 11.0017 69.6692 10.8798 68.841C10.747 67.9385 10.6751 67.1917 10.6131 66.5214C10.643 67.0093 10.6493 67.392 10.6507 67.704C10.6509 67.763 10.6511 67.8195 10.6512 67.8738C10.6512 68.2515 10.6541 68.5469 10.6982 68.8415C10.9094 70.2537 11.0374 70.7778 11.2763 71.3691C11.3391 71.5241 11.4174 71.6932 11.5014 71.8739C11.6687 72.2297 11.8624 72.6558 12.0025 73.1071C12.132 73.521 12.305 74.0046 12.4851 74.4973C12.4851 74.4975 12.4851 74.4977 12.4852 74.4979C12.5204 74.5943 12.5559 74.6915 12.5915 74.789C12.8122 75.4081 13.0336 76.0301 13.2065 76.6651C13.2248 76.7319 13.2484 76.8114 13.2754 76.9022C13.4319 77.4306 13.708 78.3699 13.7728 79.5302C13.7878 79.7904 13.7803 80.0555 13.7713 80.3568C13.7691 80.4524 13.7665 80.551 13.7645 80.6529C13.7548 81.0868 13.7546 81.6228 13.8035 82.313C13.8462 82.8998 13.9199 83.5814 13.9996 84.32C14.036 84.6623 14.0773 85.0461 14.1121 85.3999C14.2204 86.4923 14.2934 87.4842 14.3632 88.4783C14.3632 88.4785 14.3633 88.4787 14.3633 88.4789C14.3723 88.603 14.2374 88.6963 14.0656 88.7131C13.8922 88.716 13.7479 88.6477 13.7383 88.5194C13.6692 87.5308 13.5963 86.5391 13.4885 85.4515C13.4543 85.1042 13.4132 84.7229 13.3771 84.3823C13.2971 83.6406 13.2224 82.9504 13.1792 82.3575C13.1296 81.6564 13.13 81.112 13.1396 80.6706C13.1418 80.5634 13.144 80.4593 13.1466 80.3643C13.1558 80.069 13.1627 79.8174 13.1486 79.571C13.0859 78.4483 12.8209 77.547 12.6637 77.0141C12.636 76.921 12.6118 76.8387 12.5924 76.7682C12.4231 76.1477 12.2052 75.5339 11.9848 74.9158C11.9492 74.8168 11.9144 74.7226 11.8793 74.6263C11.8792 74.6261 11.879 74.6259 11.8789 74.6258C11.6992 74.1356 11.5228 73.6401 11.3911 73.2203C11.2567 72.7883 11.0803 72.3974 10.9188 72.057C10.8317 71.8706 10.7477 71.6896 10.6743 71.5086C10.4205 70.8788 10.2891 70.3293 10.0771 68.9118ZM16.8059 87.8241C16.8462 87.5203 16.8349 87.3024 16.8073 87.1282C16.8072 87.2673 16.8097 87.4338 16.8073 87.568C16.8066 87.6493 16.8074 87.7444 16.8059 87.8241ZM13.3312 73.6213C13.3478 73.6665 13.3646 73.7119 13.3814 73.7575C13.3586 73.6304 13.3352 73.4967 13.3133 73.3743C13.2861 73.2212 13.259 73.0672 13.2318 72.9121C13.265 73.1617 13.2966 73.3904 13.3312 73.6213ZM11.5012 68.7712C11.6164 69.5535 11.8845 70.1402 12.1233 70.6481C12.192 70.7943 12.2588 70.9379 12.3197 71.0839C12.3449 71.144 12.3717 71.2037 12.3998 71.2637C12.3575 70.8973 12.3216 70.5734 12.2916 70.303C12.2012 69.4907 12.1888 69.0313 12.1773 68.623C12.1739 68.5047 12.1706 68.3906 12.1655 68.274C12.1309 68.1809 12.0957 68.0833 12.0631 67.9851C12.0177 67.8511 11.9716 67.7052 11.9301 67.5655C11.8884 67.4252 11.8485 67.2818 11.8118 67.14C11.7748 66.9971 11.7406 66.8545 11.7081 66.7118C11.6774 66.5768 11.6488 66.4449 11.6214 66.3185C11.6198 66.3113 11.6182 66.304 11.6167 66.2968C11.5875 66.1627 11.5592 66.0317 11.5288 65.9114C11.4979 65.789 11.4675 65.6873 11.4311 65.5979C11.3856 65.4863 11.3408 65.3712 11.2981 65.2568C11.2554 65.1429 11.214 65.0254 11.1753 64.9157C11.1362 64.804 11.0987 64.6929 11.0622 64.581C11.0504 64.5448 11.0382 64.5069 11.0267 64.471C11.0214 64.4544 11.016 64.4378 11.0108 64.4213C11.0416 64.6462 11.0715 64.8738 11.1019 65.1171C11.146 65.4704 11.1801 65.8457 11.217 66.2546C11.281 66.96 11.3529 67.7629 11.5012 68.7712ZM10.4531 61.0247C10.4692 61.1221 10.4952 61.2642 10.5287 61.4465C10.5366 61.4896 10.5451 61.5351 10.5538 61.5826C10.5537 61.5815 10.5536 61.5803 10.5536 61.5792C10.5518 61.4591 10.5494 61.3479 10.5446 61.228C10.5359 61.0141 10.5247 60.8056 10.5102 60.5944C10.4958 60.3834 10.4774 60.1666 10.4578 59.9616C10.4378 59.7535 10.4145 59.5442 10.3881 59.3361C10.3615 59.1261 10.3322 58.9184 10.2985 58.7084C10.2877 58.6414 10.2765 58.5742 10.2649 58.507C10.2718 58.6593 10.2823 58.8165 10.2932 58.982C10.302 59.1141 10.311 59.2516 10.3188 59.3959C10.3218 59.4511 10.3237 59.5181 10.3259 59.5961C10.3343 59.9029 10.3485 60.3926 10.4531 61.0247ZM9.69244 56.9974C9.67573 56.9515 9.65951 56.906 9.64407 56.8609C9.60052 56.7341 9.55988 56.6045 9.52116 56.4784C9.49402 56.3899 9.46794 56.3027 9.44212 56.2174C9.43122 56.1814 9.42026 56.1455 9.40946 56.1101C9.39136 56.0507 9.37312 55.9921 9.35498 55.9342C9.45126 56.3475 9.55148 56.7668 9.66 57.187C9.66146 57.1926 9.66309 57.1982 9.66455 57.2039C9.67399 57.1332 9.68331 57.0645 9.69244 56.9974Z" fill="#1E1E1E"/>
<path d="M4.54769 74.1989C4.52155 74.0303 4.53999 73.8611 4.56502 73.6589C4.56501 73.6588 4.56499 73.6587 4.56498 73.6586C4.5685 73.6293 4.57225 73.5991 4.57584 73.5679C4.60475 73.3161 4.63355 72.9856 4.60674 72.5011C4.57626 71.9597 4.68811 71.5223 4.81615 71.2433C4.84016 71.1922 4.84996 71.1411 4.84698 71.0142C4.84502 70.931 4.83776 70.8188 4.82711 70.6554C4.82152 70.5689 4.81444 70.4653 4.80767 70.3501C4.78454 69.9638 4.6837 69.3594 4.58986 68.802C4.58186 68.7544 4.57389 68.7071 4.56603 68.6602L4.60202 68.8355C4.524 68.5562 4.45361 68.3075 4.40215 68.1027C4.31722 67.7639 4.25479 67.4245 4.18519 67.0614C4.12088 66.7273 4.05031 66.3717 3.94366 65.9662C3.86337 65.6602 3.88682 65.3235 3.92094 64.9845C3.92562 64.9423 3.92938 64.897 3.93358 64.853C3.9632 64.5511 3.99052 64.2422 3.95155 63.9257C3.88334 63.3668 3.66333 62.967 3.41335 62.5521C3.31413 62.3873 3.21058 62.2218 3.1052 62.0402C2.93881 61.7531 2.72465 61.3362 2.48212 60.9576C2.46134 60.9251 2.43996 60.8925 2.41933 60.8614C2.41922 60.8612 2.41911 60.8611 2.41901 60.8609C2.28752 60.6619 2.1469 60.4757 2.01461 60.3296L2.05558 60.3724C1.94839 60.2675 1.84183 60.1734 1.74207 60.0923C1.34981 59.7773 1.14815 59.6765 0.99436 59.5981C0.935317 59.5681 0.880685 59.5403 0.818867 59.5019C0.596994 59.3645 0.307979 59.1012 0.0206152 58.8301C0.0195158 58.8291 0.0184158 58.8281 0.0173152 58.8271C-0.0297249 58.7828 0.0242375 58.6442 0.139455 58.5195C0.254646 58.3947 0.38689 58.3302 0.433094 58.3738C0.582579 58.5148 0.730919 58.6525 0.867526 58.7691C0.97091 58.6657 1.08112 58.6156 1.12325 58.654C1.23019 58.753 1.63729 58.9558 2.27805 59.268C2.25976 59.2169 2.24639 59.1712 2.23626 59.1301C2.22384 59.0813 2.21665 59.0425 2.20977 59.0086C2.19611 58.9387 2.18678 58.8923 2.15014 58.8329C2.04964 58.7153 1.87076 58.557 1.68489 58.3895C1.63757 58.3468 1.6907 58.2095 1.80245 58.0818C1.91475 57.9544 2.04243 57.8843 2.08901 57.9262C2.08994 57.927 2.09086 57.9278 2.09179 57.9286C2.27291 58.0919 2.4559 58.2536 2.56138 58.3776C2.58841 58.4093 2.61002 58.438 2.62582 58.4609C2.63825 58.479 2.65358 58.5022 2.65848 58.5195C2.65912 58.5218 2.66025 58.5263 2.66099 58.5324C2.66099 58.5325 2.66098 58.5326 2.66097 58.5327C2.6614 58.5361 2.66369 58.5531 2.65773 58.5809C2.65649 58.5865 2.65384 58.599 2.64731 58.6174C2.64778 58.6196 2.64825 58.6219 2.64871 58.6241C2.65532 58.6554 2.66159 58.6869 2.67044 58.72C2.70309 58.849 2.77675 59.0315 2.97617 59.3614C2.98641 59.3786 2.99728 59.3962 3.00876 59.4143L3.03031 59.4369C3.21118 59.7578 3.50971 60.2122 3.83724 60.7862C3.8244 60.7383 3.81116 60.6911 3.79752 60.6448C3.76273 60.5277 3.72328 60.4118 3.67795 60.2939C3.66097 60.2494 3.64442 60.2065 3.62532 60.1609C3.59548 60.0886 3.5648 60.0175 3.53142 59.9453C3.50959 59.8975 3.48613 59.8486 3.46214 59.8C3.46206 59.7999 3.46199 59.7998 3.46192 59.7997C3.42962 59.7335 3.39378 59.6645 3.35834 59.5976C3.34652 59.5744 3.33312 59.5498 3.32029 59.5264C3.27963 59.4519 3.23611 59.3772 3.1939 59.2931L3.16228 59.26C3.15107 59.2406 3.13989 59.2206 3.12874 59.1997C3.1229 59.1856 3.11738 59.1692 3.11373 59.1566C3.1097 59.1431 3.10609 59.1298 3.10298 59.1169C3.10024 59.1055 3.09789 59.0944 3.09549 59.0838C3.09516 59.0824 3.09483 59.081 3.0945 59.0796C3.09182 59.0678 3.08908 59.0566 3.08637 59.046C3.08366 59.0354 3.08104 59.0252 3.07799 59.0156C3.07793 59.0156 3.07787 59.0155 3.07781 59.0154C3.07455 59.0055 3.07205 58.998 3.06789 58.9882C3.06265 58.9759 3.0578 58.9658 3.05132 58.9542C3.04505 58.9429 3.03808 58.9316 3.03068 58.9206C3.02327 58.9096 3.01548 58.8988 3.00735 58.888C2.99921 58.8773 2.99078 58.8665 2.98207 58.8559C2.97339 58.8453 2.96448 58.8349 2.95546 58.8244C2.94647 58.8139 2.9372 58.8032 2.92808 58.7927C2.90704 58.7686 2.90661 58.7228 2.92822 58.6649C2.94974 58.6068 2.99074 58.541 3.04311 58.4816C3.0955 58.4222 3.15551 58.3736 3.21069 58.3462C3.2657 58.3186 3.31187 58.3152 3.33873 58.3352C3.346 58.3406 3.35355 58.3462 3.36097 58.3518C3.36538 58.3551 3.36975 58.3586 3.37417 58.362C3.38608 58.3711 3.39809 58.3801 3.41011 58.3898C3.42209 58.3994 3.43397 58.4094 3.44585 58.4197C3.45773 58.43 3.46973 58.4408 3.48148 58.4522C3.49321 58.4635 3.50481 58.4756 3.51613 58.4885C3.52722 58.5011 3.53916 58.5162 3.54911 58.5306C3.55646 58.541 3.56466 58.5548 3.57129 58.5666C3.57819 58.5789 3.5846 58.5914 3.59051 58.6037C3.59645 58.6161 3.60181 58.6284 3.607 58.6401C3.60757 58.6414 3.60814 58.6426 3.60871 58.6438C3.61329 58.6542 3.61767 58.6643 3.62198 58.6736C3.6268 58.6841 3.63159 58.6937 3.63638 58.7026C3.6416 58.7124 3.64528 58.7179 3.6499 58.7245C3.65667 58.7325 3.66371 58.7406 3.67097 58.7488L3.73595 58.8167C3.80139 58.8997 3.88372 58.9931 3.95973 59.0845C3.97039 59.0973 3.9802 59.1092 3.9903 59.1216C4.04401 59.1865 4.09765 59.2532 4.14828 59.318C4.18595 59.3663 4.22216 59.4138 4.25753 59.4614C4.31071 59.5331 4.36011 59.6024 4.4096 59.6746C4.441 59.7205 4.46845 59.7617 4.49756 59.8064C4.57415 59.9242 4.6446 60.0405 4.70935 60.1573C4.77563 60.2767 4.83494 60.3944 4.88981 60.5174C4.94284 60.6371 4.99232 60.7659 5.02906 60.8925C5.05729 60.9886 5.06894 61.0846 5.07875 61.1809C5.08418 61.2331 5.08688 61.2808 5.08998 61.3297C5.08996 61.3299 5.08993 61.3301 5.08991 61.3302C5.09252 61.3729 5.09503 61.4154 5.09812 61.4575C5.1052 61.5492 5.11109 61.6313 5.12301 61.7168C5.13517 61.8029 5.1484 61.8817 5.16711 61.9625C5.18575 62.0428 5.20819 62.1225 5.23309 62.1983C5.25805 62.2743 5.28812 62.3533 5.31899 62.4275C5.36045 62.5264 5.40876 62.6309 5.45474 62.7289C5.50109 62.8273 5.55165 62.9338 5.59826 63.0316C5.61489 63.0667 5.63137 63.1022 5.64815 63.1379C5.6482 63.138 5.64826 63.1382 5.64831 63.1383C5.67934 63.2044 5.7107 63.272 5.74036 63.3365C5.78636 63.4366 5.8341 63.5443 5.87712 63.6451C5.92045 63.7468 5.96397 63.8547 6.00269 63.9601C6.04094 64.0647 6.07797 64.1757 6.10616 64.2904C6.13049 64.3895 6.15241 64.4916 6.17377 64.5931C6.17938 64.6197 6.1852 64.6471 6.19063 64.6734C6.21609 64.7965 6.24319 64.9172 6.27889 65.036C6.31353 65.1523 6.35559 65.2646 6.40559 65.38C6.45594 65.4968 6.50995 65.6042 6.57017 65.7192C6.63078 65.835 6.6928 65.9442 6.75842 66.0574C6.82362 66.1696 6.8918 66.2854 6.96025 66.3966C6.9985 66.4594 7.03654 66.5277 7.07092 66.5932C7.10572 66.6596 7.13842 66.7255 7.16934 66.7891C7.18196 66.8152 7.19431 66.8412 7.2067 66.8672C7.22476 66.905 7.24257 66.9427 7.26055 66.9799C7.29086 67.0425 7.32184 67.1047 7.35414 67.1633C7.38607 67.2206 7.42002 67.2759 7.45737 67.3288C7.49611 67.3835 7.53239 67.4278 7.58114 67.4801C7.68383 67.6132 7.72609 67.6949 7.77432 67.7898C7.78379 67.8084 7.79365 67.8274 7.80398 67.8472C7.84274 67.9262 7.87859 68.0066 7.91197 68.0877L7.94934 68.2698C7.96015 68.3062 7.97045 68.3425 7.98029 68.3787C8.01242 68.4972 8.03958 68.6138 8.06289 68.7318C8.08601 68.8487 8.10496 68.9664 8.12017 69.0834C8.1351 69.1986 8.14736 69.3211 8.15524 69.44C8.16326 69.5594 8.16746 69.6812 8.16791 69.7979C8.16821 69.8654 8.16589 69.9371 8.16246 70.0037C8.15997 70.0515 8.15704 70.0996 8.1542 70.1472C8.15304 70.1666 8.15186 70.1859 8.15075 70.205C8.14692 70.2706 8.14377 70.3342 8.14323 70.3952C8.14266 70.4562 8.1446 70.5148 8.15054 70.5715C8.15648 70.6284 8.16644 70.6833 8.18066 70.7377C8.19561 70.7941 8.21132 70.8404 8.23619 70.8989C8.25246 70.9365 8.26898 70.9752 8.2854 71.0132C8.31 71.0702 8.33485 71.1266 8.36034 71.1831C8.38581 71.2396 8.41151 71.2952 8.438 71.3508C8.44651 71.3687 8.4555 71.3876 8.4642 71.4054C8.49109 71.4607 8.51839 71.5151 8.54677 71.5691C8.57509 71.623 8.60421 71.6762 8.63458 71.7288C8.6651 71.7819 8.69672 71.8361 8.73024 71.8898C8.78741 71.9815 8.82081 72.0712 8.84589 72.1498C8.87097 72.2295 8.88932 72.3041 8.90701 72.3765C8.91033 72.39 8.91364 72.4036 8.91695 72.4171C8.9311 72.4759 8.94446 72.5313 8.95938 72.5899C8.97757 72.6611 8.99702 72.7305 9.01823 72.7997C9.03922 72.8683 9.06213 72.937 9.08706 73.0043C9.11227 73.0721 9.13821 73.1365 9.16858 73.2053C9.19844 73.2734 9.23442 73.3416 9.27406 73.4192C9.31329 73.4954 9.35379 73.5751 9.39078 73.6558C9.42783 73.7364 9.46161 73.8182 9.4906 73.8996C9.51978 73.9816 9.54437 74.0611 9.56576 74.1458C9.58709 74.2295 9.60448 74.3128 9.61885 74.3954C9.63321 74.4778 9.64496 74.5628 9.65331 74.6422C9.6667 74.7698 9.67846 74.9003 9.68954 75.0313C9.70042 75.1612 9.71028 75.2904 9.71942 75.4182C9.72823 75.5437 9.73779 75.6774 9.74625 75.8065C9.7548 75.9362 9.76286 76.0647 9.77059 76.1916C9.77231 76.2198 9.77394 76.2473 9.77584 76.2768C9.7823 76.3789 9.78861 76.4802 9.79492 76.5802C9.79492 76.5809 9.79491 76.5816 9.79491 76.5823C9.80322 76.7115 9.81085 76.8342 9.8206 76.9621C9.82434 77.0097 9.82796 77.0552 9.83211 77.1013C9.83627 77.1473 9.8407 77.1923 9.84565 77.2375C9.8506 77.2827 9.85609 77.3274 9.86219 77.3711C9.86839 77.4153 9.87509 77.4582 9.88311 77.5011C9.89038 77.5404 9.89901 77.5793 9.90854 77.6238C9.90941 77.6278 9.91027 77.6318 9.91114 77.6358C9.92152 77.6839 9.93146 77.7386 9.93687 77.7895C9.95068 77.9245 9.96632 78.0539 9.98455 78.1836C10.0036 78.319 10.0247 78.4523 10.0468 78.5843C10.0554 78.6359 10.0643 78.6873 10.073 78.7385C10.0865 78.8181 10.1008 78.9037 10.1141 78.9855C10.1361 79.1218 10.1555 79.2519 10.1723 79.3896C10.1893 79.5283 10.2024 79.6656 10.2109 79.8C10.2192 79.9327 10.2252 80.0792 10.2259 80.2137C10.2264 80.3622 10.226 80.5191 10.2239 80.6712C10.2214 80.8211 10.2185 80.9758 10.2147 81.1285C10.2104 81.2787 10.2061 81.433 10.2008 81.5859C10.1949 81.7343 10.1897 81.8924 10.1829 82.0431C10.1786 82.1318 10.1745 82.2245 10.1703 82.3176C10.1912 82.3641 10.2115 82.4079 10.2307 82.4495C10.3741 82.7668 10.4765 82.9895 10.5669 83.2974C10.5783 83.3262 10.5921 83.3488 10.6087 83.3758C10.6119 83.3809 10.6151 83.3864 10.6185 83.3919C10.6397 83.4252 10.6638 83.4747 10.6827 83.5342C10.7196 83.6472 10.74 83.844 10.6252 84.0992C10.5965 84.1665 10.4347 84.2142 10.2652 84.2181C10.1463 84.2204 10.055 84.1989 10.0206 84.1604C10.0097 84.2338 9.99847 84.3125 9.9866 84.3857C9.98277 84.4225 9.9455 84.4372 9.88787 84.4742C9.82909 84.5019 9.75063 84.5137 9.67039 84.5198C9.59 84.5249 9.51396 84.5243 9.45576 84.501C9.39809 84.4816 9.36587 84.4632 9.36259 84.4265C9.35727 84.3551 9.35077 84.2746 9.34326 84.1951C9.33606 84.1177 9.32776 84.0405 9.31865 83.9631C9.31047 83.8929 9.29876 83.8024 9.28911 83.7328C9.27911 83.6607 9.26673 83.5737 9.2556 83.5016C9.24424 83.4273 9.23175 83.3499 9.2187 83.2692C9.21143 83.2253 9.20395 83.1797 9.19618 83.134C9.19333 83.1169 9.19029 83.1002 9.1874 83.0832C9.18504 83.0694 9.18276 83.0554 9.18033 83.0409C9.15448 82.8902 9.12833 82.7435 9.10107 82.5935C9.07485 82.451 9.04564 82.2897 9.01861 82.1485C8.99075 82.001 8.96151 81.8477 8.93317 81.7027C8.90423 81.5531 8.87492 81.4036 8.84554 81.2569C8.81577 81.1078 8.78563 80.9578 8.75517 80.8118C8.73163 80.6991 8.70612 80.5766 8.68192 80.4682C8.65987 80.4256 8.63871 80.3829 8.61814 80.3405C8.55851 80.2186 8.48397 80.0865 8.41221 79.9712C8.47012 80.1915 8.53851 80.3747 8.60203 80.537C8.61048 80.5583 8.61934 80.5825 8.62786 80.6051C8.71506 80.8383 8.79133 81.0545 8.82188 81.3604C8.90762 82.2224 8.95275 82.7333 8.95304 83.0451C8.95378 83.3609 8.91182 83.501 8.81014 83.6375C8.66615 83.828 8.61548 84.1813 8.63336 84.3517C8.63974 84.4124 8.50596 84.4797 8.33361 84.4928C8.16178 84.5104 8.01629 84.4676 8.01001 84.4076C7.99111 84.2276 8.04062 83.853 8.21105 83.6195C8.28793 83.5229 8.33049 83.4056 8.32973 83.0944C8.32957 82.7884 8.28474 82.2824 8.19899 81.4199C8.16962 81.1257 8.09663 80.9171 8.01052 80.6875C8.00206 80.6649 7.99331 80.6421 7.98463 80.619C7.98461 80.6188 7.98459 80.6187 7.98457 80.6186C7.90654 80.4203 7.81832 80.1816 7.75257 79.8809C7.59861 79.1694 7.3558 78.2151 7.26238 77.9922C7.244 77.948 7.22432 77.9053 7.20363 77.86C7.12537 77.6945 7.02947 77.4838 6.91914 77.0134C6.89501 76.9105 6.8722 76.7884 6.85054 76.6531C6.73816 76.4587 6.63385 76.2785 6.5634 76.1117C6.50266 75.9683 6.41021 75.8405 6.31174 75.7207C6.28335 75.6859 6.25386 75.6509 6.22446 75.6158C6.15356 75.5312 6.08258 75.446 6.02497 75.3611C5.97908 75.2938 5.92521 75.2218 5.86894 75.1505C5.66361 74.8885 5.41531 74.5597 5.34922 74.1201C5.27729 73.6412 5.25578 73.2432 5.23921 72.8862C5.23613 73.1465 5.21692 73.3526 5.19745 73.5203C5.1938 73.5521 5.19018 73.5825 5.18668 73.6117C5.16153 73.8151 5.14466 73.9731 5.16891 74.1296C5.28483 74.8778 5.3777 75.1541 5.57597 75.4594C5.62813 75.5397 5.69477 75.6267 5.76639 75.7197C5.90913 75.9029 6.07361 76.1218 6.1833 76.3578C6.28497 76.5741 6.42526 76.8251 6.57228 77.0814C6.57229 77.0815 6.57231 77.0816 6.57232 77.0817C6.60106 77.1318 6.63007 77.1824 6.65915 77.233C6.83821 77.5548 7.01805 77.8784 7.14919 78.2116C7.16313 78.2466 7.18143 78.2882 7.20246 78.3357C7.32407 78.6118 7.53844 79.104 7.5296 79.7242C7.52804 79.8632 7.50399 80.0065 7.4761 80.1683C7.4679 80.2198 7.45914 80.2729 7.45072 80.3277C7.41394 80.5614 7.38015 80.8493 7.38588 81.2175C7.39186 81.5307 7.42304 81.8932 7.45694 82.2859C7.47214 82.4681 7.48978 82.6721 7.50291 82.8602C7.54422 83.4413 7.55733 83.9702 7.56847 84.499C7.56849 84.4991 7.5685 84.4992 7.56852 84.4993C7.57026 84.5654 7.43063 84.6207 7.25874 84.6369C7.08603 84.6457 6.94655 84.6156 6.94449 84.5475C6.93383 84.0225 6.92086 83.494 6.87981 82.9158C6.86697 82.7313 6.84942 82.5287 6.83432 82.3475C6.80034 81.9534 6.76875 81.5866 6.76268 81.2702C6.75694 80.8964 6.79151 80.6042 6.82869 80.3665C6.8376 80.3089 6.84629 80.2525 6.85489 80.2019C6.88258 80.0428 6.90532 79.9073 6.90682 79.7756C6.91546 79.1758 6.7097 78.7037 6.58772 78.4253C6.56618 78.3766 6.54733 78.3336 6.5326 78.2966C6.40419 77.971 6.22725 77.6523 6.04833 77.3306C6.01949 77.2797 5.99091 77.2304 5.9623 77.1804C5.96218 77.1803 5.96206 77.1802 5.96195 77.1801C5.81516 76.9253 5.67224 76.6682 5.56884 76.4489C5.46343 76.2231 5.31394 76.0223 5.1759 75.8471C5.10156 75.7512 5.03009 75.6581 4.96907 75.5645C4.75858 75.2393 4.66399 74.9496 4.54769 74.1989ZM10.0363 84.0441C10.0943 83.8787 10.0959 83.7619 10.0788 83.6696C10.0704 83.7442 10.0631 83.8339 10.0529 83.9062C10.0473 83.9498 10.0425 84.0011 10.0363 84.0441ZM7.46932 76.5686C7.48291 76.5921 7.49663 76.6157 7.5104 76.6394C7.49597 76.5721 7.48139 76.5014 7.46765 76.4368C7.45053 76.3558 7.43364 76.2742 7.41672 76.1921C7.43342 76.3247 7.45006 76.4467 7.46932 76.5686ZM5.97079 74.051C6.03323 74.4664 6.26065 74.7679 6.4643 75.0295C6.52295 75.1049 6.57972 75.1782 6.63062 75.2538C6.65168 75.2849 6.67445 75.3157 6.69836 75.3466C6.68038 75.1513 6.66618 74.9795 6.65416 74.8353C6.6179 74.4025 6.63619 74.1564 6.65177 73.937C6.65627 73.8735 6.6605 73.8122 6.6632 73.7497C6.63502 73.7014 6.60659 73.6502 6.58083 73.5997C6.54463 73.5298 6.50857 73.4536 6.4767 73.3805C6.44465 73.3071 6.4146 73.2319 6.38765 73.1575C6.36048 73.0824 6.336 73.0074 6.31331 72.9322C6.29183 72.8608 6.27242 72.792 6.25359 72.7252C6.25252 72.7214 6.25144 72.7175 6.25037 72.7137C6.23039 72.643 6.21105 72.5739 6.18902 72.5107C6.16648 72.4464 6.14321 72.3932 6.11303 72.3469C6.07542 72.2891 6.03869 72.2295 6.00399 72.1701C5.96925 72.1108 5.93614 72.0504 5.90505 71.9931C5.87379 71.9349 5.84406 71.877 5.81539 71.8187C5.80612 71.7998 5.79653 71.7801 5.78755 71.7613C5.78341 71.7526 5.7792 71.744 5.77511 71.7353C5.79049 71.8548 5.80493 71.9763 5.81859 72.105C5.83862 72.293 5.84728 72.4933 5.85647 72.7116C5.87262 73.0872 5.89054 73.5167 5.97079 74.051ZM5.45241 69.9357C5.46175 69.9873 5.47788 70.0625 5.49859 70.1589C5.50348 70.1817 5.50884 70.2058 5.51422 70.2309C5.51428 70.2303 5.51419 70.2297 5.51425 70.2291C5.52074 70.1644 5.52589 70.1047 5.52931 70.0403C5.53528 69.9256 5.53839 69.8138 5.53847 69.7008C5.53856 69.5876 5.53527 69.4726 5.52989 69.3629C5.52432 69.2518 5.51554 69.1403 5.5037 69.0296C5.49167 68.9178 5.47694 68.8074 5.45794 68.696C5.45189 68.6605 5.44539 68.6249 5.4385 68.5893C5.43488 68.671 5.43442 68.7551 5.43391 68.8437C5.4335 68.9145 5.433 68.9881 5.43082 69.0655C5.42998 69.0951 5.42729 69.1311 5.42413 69.173C5.41143 69.3381 5.39183 69.6004 5.45241 69.9357ZM5.06227 67.8517C5.05151 67.828 5.04119 67.8044 5.03159 67.781C5.00456 67.7155 4.98036 67.6467 4.95814 67.581C4.9425 67.5348 4.92777 67.4891 4.91313 67.4445C4.90694 67.4256 4.90069 67.4069 4.89454 67.3883C4.88425 67.3573 4.87374 67.3267 4.86327 67.2964C4.90575 67.5156 4.95274 67.7391 5.00822 67.9604C5.00896 67.9633 5.00988 67.9663 5.01063 67.9693C5.02819 67.9291 5.04541 67.8899 5.06227 67.8517Z" fill="#1E1E1E"/>
</svg>
