<svg width="388" height="455" viewBox="0 0 388 455" fill="none" xmlns="http://www.w3.org/2000/svg">
<path d="M387.161 269.118C387.162 279.045 387.137 288.351 387.104 300.105C387.104 300.111 387.104 300.117 387.104 300.124C387.1 301.803 387.095 303.533 387.09 305.322C387.051 319.721 387.005 338.431 386.979 366.644C386.953 395.354 386.862 418.615 386.769 433.918C386.761 435.303 386.619 436.624 386.377 437.86C385.645 440.634 385.274 444.212 379.665 449.628C376.807 452.152 372.242 454.911 365.661 454.949C363.744 454.947 361.681 454.945 359.456 454.944C354.448 454.939 348.619 454.934 341.796 454.928C319.208 454.908 283.809 454.914 251.19 454.92C231.393 454.924 212.616 454.927 198.354 454.924C177.496 454.92 157.37 454.901 135.491 454.881C115.454 454.862 93.9454 454.842 69.0587 454.83C52.7046 454.822 36.7489 454.765 20.6611 454.696C17.8616 454.687 15.0588 454.107 12.4841 452.986C10.2009 451.995 8.09314 450.581 6.30248 448.841C2.33633 445.022 -0.0274757 439.524 0.0241963 433.918C0.0742038 422.366 0.119865 410.492 0.150146 397.977C0.229461 365.195 0.196688 339.035 0.1604 310.071C0.146207 298.743 0.131453 286.983 0.122679 274.231C0.108804 254.062 0.111606 225.069 0.115538 195.956C0.115873 193.476 0.11611 190.993 0.116453 188.516C0.116453 188.504 0.116453 188.491 0.116453 188.479C0.120146 161.829 0.123769 135.674 0.115721 116.485C0.10293 85.9925 0.0727058 74.5199 0.0474206 64.9512C0.0379159 61.3543 0.0290397 58.0243 0.0221514 54.0545C0.00684899 45.2345 0.00273925 33.642 0.00292444 20.918C-0.158535 12.7164 5.48872 4.25004 13.7762 1.43894C13.8574 1.41023 13.9388 1.38202 14.0205 1.3543C17.5992 0.126392 20.696 0.369718 20.6611 0.452576C20.6499 0.574595 17.5804 0.513507 14.0811 1.73044C5.75337 4.47624 0.213963 12.9025 0.378455 20.918C0.378414 23.7261 0.378583 26.4688 0.379034 29.1298C0.468119 29.6548 0.535553 32.3813 0.534861 35.6491C0.533145 43.8298 0.600261 68.8857 0.709915 108.1C0.726152 105.414 0.741954 103.164 0.756974 101.192C0.774605 98.878 0.789766 97.1051 0.802752 95.581C0.82982 92.4039 0.847681 90.2901 0.860798 86.5379C0.875709 77.8473 0.878811 64.1884 0.881856 49.8148C0.882652 46.1854 0.967191 43.2544 1.07083 43.2705C1.17449 43.2881 1.25796 46.2475 1.25723 49.8774C1.25723 49.9484 1.25723 50.0194 1.25723 50.0903C1.25422 64.3264 1.25116 78.4239 1.23526 87.5023C1.23121 89.812 1.22643 91.8014 1.22208 93.2951C1.2186 94.4893 1.21387 95.98 1.20779 96.8084C1.20698 96.9184 1.20535 97.128 1.20285 97.3783C1.20279 97.3824 1.20273 97.3866 1.20267 97.3908C1.20128 97.5306 1.19429 98.2447 1.17904 99.0065C1.17596 99.1604 1.16909 99.4948 1.15799 99.8833C1.15713 99.9835 1.15628 100.084 1.15542 100.184C1.14356 101.581 1.13147 103.006 1.11972 104.549C1.07382 110.572 1.01598 120.113 0.954734 139.982C0.898402 158.256 0.873145 189.148 0.8727 227.694C0.880466 225.09 0.887994 222.48 0.895223 219.872C0.913392 213.309 0.929961 206.716 0.945762 200.12C0.951797 197.594 0.957707 195.101 0.963523 192.562C0.972928 188.473 0.98216 184.373 0.991173 180.275C0.997274 177.505 1.00327 174.73 1.0093 171.958C1.0093 171.952 1.0093 171.946 1.0093 171.939C1.01767 168.092 1.0261 164.235 1.03475 160.347C1.03798 158.987 1.04107 157.643 1.04409 156.308C1.05612 150.996 1.06779 145.777 1.09042 139.769C1.09417 139.038 1.09902 138.245 1.10305 137.652C1.10731 137.016 1.11164 136.403 1.11605 135.824C1.11995 135.313 1.12391 134.825 1.12759 134.358C1.12808 134.296 1.12857 134.233 1.12906 134.17C1.13318 133.648 1.13699 133.148 1.14059 132.667C1.14419 132.188 1.14766 131.726 1.15066 131.271C1.15066 131.267 1.15066 131.262 1.15066 131.258C1.15375 130.783 1.15606 130.422 1.15872 129.918C1.16205 129.285 1.1646 128.742 1.16714 128.083C1.16961 127.446 1.17181 126.782 1.17373 126.111C1.17565 125.44 1.17733 124.756 1.17886 124.063C1.18039 123.369 1.18181 122.663 1.18307 121.952C1.18434 121.242 1.18544 120.522 1.18655 119.798C1.18767 119.074 1.18878 118.341 1.18985 117.606C1.19232 115.913 1.21313 114.289 1.24844 113.097C1.28376 111.906 1.33047 111.242 1.37882 111.25C1.42717 111.258 1.47364 111.938 1.50846 113.141C1.54327 114.345 1.56346 115.975 1.56522 117.669C1.5657 118.13 1.56623 118.594 1.56669 119.059C1.56696 119.335 1.56716 119.614 1.56742 119.892C1.56812 120.639 1.5689 121.393 1.56944 122.153C1.56997 122.911 1.57031 123.677 1.57054 124.451C1.57075 125.227 1.57083 126.014 1.57054 126.812C1.57024 127.608 1.56962 128.422 1.56852 129.248C1.56748 130.054 1.56567 130.974 1.56339 131.797C1.5618 132.398 1.55907 133.139 1.55662 133.757C1.55405 134.402 1.55118 135.036 1.5482 135.648C1.5452 136.261 1.54203 136.854 1.53904 137.421C1.53873 137.481 1.53843 137.542 1.53812 137.602C1.53548 138.103 1.5329 138.586 1.53062 139.043C1.52806 139.553 1.52588 140.036 1.52403 140.495C1.52194 141.001 1.52111 141.308 1.52018 141.685C1.51415 146.668 1.51539 152.827 1.51652 158.7C1.51666 159.438 1.51676 160.173 1.51688 160.899C1.51777 164.756 1.51888 168.606 1.52 172.453C1.52081 175.249 1.52165 178.048 1.52238 180.851C1.52345 184.975 1.52431 189.112 1.52494 193.244C1.52531 195.811 1.52555 198.33 1.52567 200.891C1.52603 207.576 1.52553 214.284 1.52329 221C1.52105 227.706 1.51714 234.455 1.51047 241.209C1.50383 247.936 1.4939 254.925 1.4788 261.674C1.46751 266.636 1.44784 271.723 1.42753 276.429C1.41659 278.958 1.40549 281.434 1.39438 283.875C1.39432 283.883 1.39426 283.892 1.3942 283.9C1.38445 286.042 1.3748 288.157 1.36563 290.256C1.34589 294.758 1.32829 299.18 1.31345 303.602C1.2986 308.016 1.28649 312.412 1.27719 316.841C1.26798 321.236 1.26132 325.705 1.25723 330.129C1.25311 334.577 1.25143 338.943 1.25156 343.531C1.25192 349.564 1.25527 355.555 1.25925 361.705C1.2633 367.81 1.26839 373.965 1.27353 380.135C1.27534 382.292 1.27701 384.453 1.27884 386.617C1.27884 386.625 1.27884 386.634 1.27884 386.642C1.28223 390.644 1.28564 394.657 1.28891 398.672C1.29395 404.872 1.29875 411.088 1.30264 417.328C1.30606 422.83 1.30883 428.361 1.31022 433.918C1.31043 434.642 1.35017 435.361 1.42984 436.078C2.05241 442.162 5.90045 447.99 11.4818 450.963C14.2807 452.483 17.4729 453.286 20.6611 453.284C23.1773 453.287 25.6833 453.29 28.1648 453.293C29.6761 453.295 31.1875 453.297 32.6988 453.299C39.8701 453.307 46.8126 453.314 53.6781 453.315C60.5385 453.317 67.3943 453.313 74.313 453.305C81.2104 453.297 88.195 453.285 95.2359 453.27C102.307 453.255 109.287 453.238 116.409 453.22C123.477 453.201 130.577 453.181 137.764 453.16C141.76 453.148 146.01 453.138 150.026 453.129C154.081 453.119 158.11 453.111 162.088 453.104C163.702 453.101 165.308 453.098 166.904 453.095C169.23 453.09 171.535 453.086 173.805 453.082C177.635 453.074 181.372 453.066 185.002 453.057C188.631 453.047 192.152 453.036 195.555 453.023C199.076 453.009 201.978 452.995 205.449 452.975C213.903 452.936 219.142 452.924 224.963 452.911C226.109 452.908 227.281 452.905 228.501 452.902C235.482 452.887 242.455 452.876 249.337 452.867C256.285 452.859 263.125 452.853 270.053 452.85C276.914 452.846 283.824 452.846 290.707 452.847C297.578 452.848 304.439 452.852 311.316 452.858C318.189 452.864 325.204 452.872 331.939 452.882C335.831 452.888 339.966 452.896 343.806 452.903C346.576 452.909 349.308 452.915 351.985 452.921C353.078 452.923 354.165 452.926 355.241 452.928C358.817 452.936 362.296 452.943 365.661 452.949C365.784 452.949 365.906 452.948 366.027 452.946C369.347 452.893 372.527 451.964 375.24 450.38C377.96 448.795 380.223 446.57 381.845 443.951C383.495 441.224 384.376 438.625 384.636 435.251C384.665 434.803 384.679 434.364 384.678 433.918C384.673 432.081 384.668 430.269 384.662 428.461C384.653 425.069 384.643 421.701 384.633 418.309C384.623 414.921 384.612 411.576 384.601 408.214C384.598 407.133 384.594 405.992 384.59 404.908C384.579 401.558 384.568 398.246 384.556 394.938C384.543 391.635 384.531 388.364 384.517 385.106C384.504 381.834 384.49 378.617 384.474 375.336C384.448 369.76 384.436 364.423 384.428 359.749C384.42 355.019 384.416 350.599 384.412 346.297C384.411 345.491 384.41 344.685 384.409 343.88C384.406 340.409 384.403 336.996 384.399 333.634C384.394 329.491 384.389 325.422 384.382 321.341C384.376 317.295 384.368 313.209 384.359 309.186C384.35 305.124 384.34 301.24 384.328 297.055C384.316 292.916 384.3 288.712 384.284 284.104C384.267 279.539 384.25 274.747 384.234 269.895C384.219 265.048 384.206 260.123 384.196 255.234C384.186 250.335 384.178 245.421 384.172 240.574C384.167 235.701 384.164 230.857 384.162 226.039C384.161 221.231 384.161 216.264 384.163 211.616C384.166 204.089 384.17 196.597 384.174 189.09C384.179 181.625 384.184 174.137 384.189 166.664C384.195 159.205 384.2 151.737 384.206 144.282C384.212 136.823 384.218 129.365 384.224 121.919C384.225 120.272 384.227 118.625 384.228 116.978C384.233 111.178 384.238 105.38 384.242 99.6055C384.242 99.5659 384.242 99.5262 384.242 99.4865C384.248 92.0542 384.254 84.7566 384.259 77.3862C384.261 74.6806 384.262 72.081 384.264 69.4392C384.265 66.7943 384.266 64.199 384.267 61.5798C384.268 58.9573 384.268 56.3501 384.268 53.783C384.268 51.1876 384.268 48.6581 384.266 46.1052C384.265 43.7651 384.264 41.4417 384.262 38.9033C384.261 38.6716 384.261 38.4399 384.261 38.2082C384.259 35.4305 384.257 32.2712 384.258 29.3343C384.259 26.5081 384.26 23.708 384.261 20.918C384.277 16.3599 382.558 11.8664 379.486 8.47172C376.017 4.59031 370.882 2.28885 365.661 2.31877C363.518 2.31928 361.372 2.31986 359.221 2.32049C356.187 2.32136 353.139 2.32245 350.09 2.32342C345.347 2.32493 340.587 2.32645 335.812 2.32763C327.956 2.32959 320.083 2.33048 312.159 2.32928C304.265 2.32808 296.32 2.32469 288.411 2.31884C280.509 2.31301 272.537 2.30476 264.67 2.2943C255.905 2.28261 247.191 2.26969 238.437 2.25622C229.697 2.24272 220.953 2.22859 212.247 2.2141C203.51 2.19959 194.794 2.18469 186.076 2.16942C177.353 2.15415 168.635 2.13851 159.912 2.12255C154.691 2.11298 149.471 2.10325 144.249 2.09343C141.486 2.10224 138.838 2.11088 136.29 2.11907C117.462 2.17958 103.849 2.22323 85.8891 2.25329C84.1691 2.25784 82.7697 2.26432 81.067 2.27215C80.7422 2.27364 80.3976 2.27513 80.0462 2.27672C77.8211 2.2868 75.2657 2.29734 71.7109 2.30401C64.6194 2.31731 53.7496 2.31442 39.7034 2.22674C36.1552 2.20459 33.8973 2.1046 34.6621 2.00334C35.1997 1.93231 37.0842 1.87953 39.384 1.86198C35.1351 1.84993 30.8977 1.83733 26.6712 1.82481C24.9841 1.81979 23.4003 1.79649 22.2749 1.75944C21.1501 1.72237 20.5745 1.67476 20.6717 1.6265C20.7689 1.57822 21.5345 1.53294 22.8009 1.49997C24.0669 1.46704 25.7279 1.4492 27.4227 1.44998C31.9185 1.45213 36.3991 1.45431 40.8807 1.45584C45.366 1.45739 49.8301 1.4583 54.3075 1.45877C58.7835 1.45924 63.2581 1.45918 67.7467 1.45877C72.2178 1.45834 76.6979 1.45764 81.186 1.45657C85.7026 1.45553 90.1341 1.45407 94.6378 1.45254C97.3362 1.45161 100.067 1.45069 102.748 1.44961C103.747 1.44924 104.722 1.44874 105.697 1.44833C106.495 1.448 107.296 1.44773 108.121 1.44742C116.799 1.44374 125.559 1.43962 134.242 1.43515C142.965 1.4307 151.68 1.426 160.394 1.42105C169.113 1.4161 177.824 1.41083 186.54 1.40548C195.251 1.40013 203.957 1.3946 212.679 1.38882C221.37 1.38303 230.095 1.3771 238.8 1.37069C245.533 1.36574 252.209 1.36043 258.896 1.35476C261.529 1.34508 264.134 1.33592 266.706 1.32711C274.19 1.30146 281.685 1.26781 289.069 1.23446C275.927 1.25104 265.371 1.27694 255.32 1.30166C253.973 1.30498 252.634 1.3083 251.3 1.31155C237.678 1.34467 224.518 1.37271 206.818 1.36648C156.476 1.34877 127.286 1.33585 109.098 1.31173C90.9126 1.28762 83.0989 1.25187 75.8065 1.18081C65.5022 1.08038 45.6141 1.02326 35.6202 1.02113C31.9898 1.02037 29.0595 0.935642 29.0759 0.831981C29.0935 0.728296 32.0518 0.644806 35.6829 0.645575C46.2356 0.647815 67.7564 0.705875 80.0212 0.825389C85.4839 0.878629 91.7657 0.912974 109.674 0.936721C127.584 0.960468 156.505 0.973177 206.943 0.990922C224.006 0.996924 236.67 0.970223 250.148 0.937453C251.469 0.93424 252.8 0.93087 254.143 0.927565C254.151 0.927565 254.16 0.927565 254.168 0.927565C266.548 0.8971 280.028 0.863892 298.206 0.849194C319.469 0.832001 344.457 0.806618 365.661 0.780944C378.564 0.657943 386.36 12.7392 385.841 20.918C385.85 26.5905 385.859 30.9988 385.867 33.6804C385.874 36.306 385.882 38.8441 385.891 41.521C385.923 51.7968 385.963 64.2025 385.989 92.1594C385.995 98.2741 385.998 105.436 386 113.251C386.05 124.979 386.097 136.366 386.125 146.267C386.149 154.812 386.193 162.692 386.242 170.328C386.256 172.526 386.27 174.738 386.285 176.947C386.32 182.274 386.355 187.604 386.382 192.797C386.403 196.937 386.429 201.273 386.457 205.855C386.556 222.545 386.676 242.547 386.678 268.611C386.679 296.24 386.658 319.896 386.637 340.298C386.661 325.315 386.69 313.748 386.716 304.113C386.721 302.295 386.726 300.554 386.731 298.878C386.763 287.036 386.787 278.426 386.786 269.2C386.781 225.129 386.749 208.599 386.657 189.948C386.633 185.038 386.601 179.621 386.566 173.785C386.497 162.12 386.417 148.779 386.372 134.444C386.33 121.092 386.267 106.159 386.201 90.337C386.201 90.3308 386.201 90.3245 386.201 90.3183C386.188 87.2266 386.175 84.0983 386.162 80.9433C386.083 61.7059 386.002 41.4723 385.952 21.7755C385.951 21.4969 385.951 21.211 385.95 20.918C385.945 18.9675 385.661 16.6904 384.819 14.2806C382.868 8.18521 375.96 0.687633 365.661 0.712426C349.981 0.744003 330.448 0.763439 308.476 0.729256C300.602 0.717003 292.42 0.691044 283.082 0.661322C280.238 0.65227 277.285 0.642758 274.202 0.633306C260.892 0.592504 244.72 0.549157 223.188 0.523074C205.417 0.501548 183.76 0.491225 161.271 0.480409C150.193 0.475081 138.914 0.469545 127.798 0.462647C94.2196 0.441812 63.4441 0.408762 32.727 0.37567C32.7207 0.37567 32.7144 0.37567 32.7082 0.37567C29.0793 0.37176 26.2368 0.284455 26.3643 0.18084C26.4931 0.077278 29.5382 -0.00358576 33.1653 0.000292957C63.9006 0.0334048 94.5821 0.0665041 128.048 0.0872705C138.995 0.0940634 150.186 0.0995386 161.22 0.104849C183.819 0.115725 205.778 0.126153 223.714 0.14788C245.613 0.174409 262.08 0.218581 275.573 0.259944C278.823 0.269906 281.878 0.279647 284.779 0.288875C294.013 0.318252 301.69 0.342808 309.159 0.354429C330.954 0.388337 350.2 0.36803 365.661 0.335947C375.318 0.301616 382.197 6.87119 384.609 12.7131C385.842 15.5351 386.279 18.2611 386.323 20.554C386.325 20.675 386.327 20.7964 386.327 20.918C386.376 40.1186 386.455 59.9176 386.534 79.0208C386.547 82.1389 386.56 85.2418 386.572 88.3205C386.572 88.3268 386.573 88.333 386.573 88.3393C386.639 104.158 386.702 119.359 386.745 132.959C386.789 146.764 386.861 158.803 386.928 170.065C386.964 176.107 386.999 181.927 387.027 187.675C387.125 207.461 387.156 224.906 387.161 269.118ZM45.9533 1.88011C54.6867 1.92716 61.8025 1.93708 67.1017 1.93394C62.6013 1.92325 58.1116 1.91204 53.6186 1.90043C51.0613 1.89383 48.507 1.88706 45.9533 1.88011ZM385.625 114.322C385.618 112.907 385.612 111.482 385.606 110.051C385.609 114 385.612 117.95 385.615 121.894C385.618 126.736 385.621 131.577 385.624 136.416C385.625 128.722 385.626 121.265 385.625 114.322ZM386.302 268.674C386.301 244.093 386.191 225.725 386.092 209.161C386.064 204.391 386.036 199.766 386.012 195.19C386.003 193.292 385.992 191.396 385.98 189.485C385.974 200.616 385.968 210.849 385.963 219.225C385.947 244.22 385.915 258.446 385.887 270.947C385.879 274.564 385.871 278.04 385.865 281.587C385.877 284.522 385.89 287.569 385.901 290.649C385.916 294.96 385.931 299.621 385.944 304.057C385.956 308.509 385.968 313.033 385.977 317.477C385.987 321.958 385.995 326.397 386.002 330.816C386.009 334.974 386.014 339.118 386.02 343.128C386.02 343.358 386.02 343.587 386.021 343.817C386.026 348.055 386.032 352.178 386.039 355.966C386.047 359.823 386.056 363.028 386.07 365.873C386.088 369.426 386.104 373.072 386.12 376.676C386.135 380.285 386.15 383.878 386.163 387.46C386.177 391.05 386.189 394.605 386.201 398.169C386.205 399.322 386.209 400.527 386.213 401.67C386.214 402.196 386.216 402.723 386.218 403.248C386.219 396.276 386.221 389.037 386.224 381.555C386.229 370.746 386.241 359.207 386.255 346.479C386.277 324.765 386.304 299.589 386.302 268.674ZM322.063 454.508C325.094 454.507 329.533 454.504 335.258 454.501C336.611 454.5 338.039 454.499 339.535 454.498C339.5 454.498 339.464 454.498 339.429 454.497C335.72 454.488 332.297 454.48 328.601 454.472C322.013 454.458 315.614 454.446 309.15 454.436C302.66 454.426 296.189 454.418 289.711 454.411C283.223 454.405 276.715 454.4 270.266 454.397C263.753 454.394 257.333 454.393 250.852 454.395C248.788 454.395 246.717 454.396 244.646 454.397C249.268 454.406 254.068 454.414 259.137 454.422C263.186 454.429 267.409 454.436 271.85 454.444C273.55 454.447 275.607 454.452 278.006 454.457C287.516 454.48 302.439 454.515 322.063 454.508ZM192.943 454.5C191.439 454.503 189.944 454.505 188.465 454.507C184.257 454.512 180.156 454.515 176.135 454.517C173.31 454.519 170.519 454.52 167.768 454.521C166.607 454.522 165.447 454.523 164.298 454.523C162.374 454.524 160.464 454.525 158.568 454.526C171.868 454.538 184.868 454.546 198.416 454.549C198.595 454.549 198.775 454.549 198.955 454.549C196.904 454.532 194.901 454.516 192.943 454.5Z" fill="black"/>
</svg>
