<svg width="60" height="112" viewBox="0 0 60 112" fill="none" xmlns="http://www.w3.org/2000/svg">
<path d="M28.2683 80.6062C28.2776 80.2106 28.2425 79.8286 28.1978 79.3564C28.1979 79.3562 28.1979 79.3559 28.1979 79.3557C28.1915 79.289 28.1848 79.2202 28.1781 79.149C28.1244 78.5805 28.0637 77.8064 28.043 76.6882C28.0209 75.4217 27.8672 74.4482 27.713 73.8251C27.6843 73.7089 27.6696 73.5931 27.6604 73.3003C27.6544 73.1081 27.6508 72.8479 27.6458 72.4689C27.6431 72.2674 27.6402 72.032 27.6362 71.7549C27.6224 70.8577 27.6659 69.4259 27.7071 68.1235C27.7151 67.8676 27.7231 67.6147 27.7306 67.3699L27.7203 67.5192C27.7824 67.0034 27.8375 66.5502 27.8808 66.1634C27.9739 65.3324 28.0423 64.5405 28.1244 63.6695C28.1981 62.8844 28.2847 62.0204 28.4129 61.0467C28.5133 60.2867 28.5031 59.5481 28.4895 58.7835C28.4878 58.6859 28.4861 58.5886 28.4842 58.4918C28.472 57.8216 28.4667 57.1272 28.5333 56.4C28.6556 55.0919 28.9323 54.0881 29.2673 52.9933C29.4004 52.5593 29.54 52.1243 29.6915 51.6419C29.9292 50.886 30.256 49.8001 30.666 48.7557C30.6997 48.6695 30.7374 48.5759 30.7728 48.4893C30.7729 48.4888 30.7731 48.4884 30.7733 48.488C31.0511 47.8048 31.3703 47.1486 31.6824 46.6374L31.6527 46.6836C31.7865 46.4906 31.9175 46.3133 32.0413 46.1529C32.7696 45.2271 33.1215 44.8932 33.3892 44.6179C33.492 44.5138 33.5868 44.4181 33.6962 44.2977C34.0874 43.8689 34.6198 43.1695 35.1459 42.4506C35.1479 42.448 35.1499 42.4453 35.1519 42.4426C35.2377 42.3255 35.1968 42.1435 35.0575 42.0412C34.9183 41.9388 34.7338 41.9541 34.6487 42.0703C34.3715 42.4486 34.0994 42.8137 33.8473 43.1362C33.716 43.0634 33.5616 43.0797 33.4809 43.1857C33.2851 43.4503 32.5642 44.1636 31.4502 45.2924C31.4945 45.1899 31.5294 45.102 31.5582 45.0242C31.5929 44.9319 31.6165 44.8609 31.6378 44.7989C31.6812 44.6707 31.7113 44.5847 31.7878 44.4533C31.9859 44.1635 32.3242 43.7335 32.6758 43.2775C32.7633 43.1638 32.7258 42.9829 32.5886 42.8779C32.4525 42.7714 32.2692 42.7802 32.1822 42.8931C32.1804 42.8953 32.1786 42.8976 32.1769 42.8998C31.831 43.3484 31.483 43.7905 31.2748 44.0956C31.222 44.173 31.1784 44.241 31.1461 44.2937C31.1202 44.3357 31.0895 44.3876 31.0761 44.421C31.0744 44.4254 31.0712 44.4338 31.0682 44.4445C31.0682 44.4447 31.0681 44.4448 31.0681 44.445C31.0664 44.451 31.0575 44.4812 31.0584 44.5212C31.0586 44.5294 31.0594 44.547 31.064 44.5711C31.0626 44.5752 31.0612 44.5793 31.0598 44.5835C31.0399 44.6411 31.0204 44.6989 30.9969 44.7614C30.9177 44.9776 30.7741 45.2912 30.4777 45.877L30.4605 45.9038C30.4286 45.9786 30.3944 46.0592 30.3576 46.1465C30.0553 46.8561 29.5502 48.0117 29.0468 49.502C29.0695 49.3952 29.0928 49.2901 29.1165 49.1869C29.1767 48.926 29.2427 48.6678 29.3185 48.4009C29.3473 48.2994 29.3733 48.2073 29.4054 48.1026C29.4554 47.9377 29.5039 47.7824 29.5595 47.617C29.5962 47.5072 29.632 47.4025 29.6722 47.2904C29.6723 47.2902 29.6724 47.29 29.6725 47.2897C29.7265 47.1382 29.7822 46.9881 29.8415 46.8353C29.8619 46.7817 29.8808 46.7323 29.9026 46.6782C29.9868 46.4681 30.0723 46.266 30.1658 46.0263C30.1761 45.9958 30.1861 45.9622 30.1931 45.937C30.2006 45.9099 30.2076 45.8838 30.2137 45.8589C30.2191 45.837 30.224 45.8159 30.2288 45.7959C30.2294 45.7933 30.2301 45.7906 30.2307 45.7879C30.2323 45.7814 30.2338 45.775 30.2354 45.7686L30.2613 45.7284C30.266 45.7132 30.2708 45.6985 30.2754 45.6843C30.282 45.6642 30.2883 45.645 30.2951 45.6264C30.2952 45.6262 30.2953 45.6261 30.2954 45.626C30.3026 45.6066 30.308 45.5921 30.3166 45.572C30.3274 45.547 30.3371 45.5258 30.3496 45.5007C30.3617 45.4765 30.3749 45.4516 30.3887 45.4267C30.4025 45.4018 30.417 45.3768 30.432 45.3517C30.4469 45.3265 30.4624 45.3011 30.4782 45.2757C30.4941 45.2504 30.5104 45.2248 30.5269 45.1993C30.5433 45.1738 30.56 45.148 30.5769 45.1222C30.6158 45.0628 30.6286 44.9879 30.6116 44.9126C30.5944 44.8375 30.5493 44.7683 30.4848 44.7199C30.4204 44.6715 30.3413 44.6475 30.2643 44.6534C30.1871 44.6594 30.1183 44.6951 30.0725 44.752C30.0601 44.7675 30.0475 44.7831 30.035 44.7988C30.0275 44.8081 30.0201 44.8176 30.0127 44.827C29.9927 44.8523 29.9724 44.878 29.9523 44.9041C29.9322 44.9302 29.9123 44.9568 29.8924 44.9839C29.8724 45.0111 29.8523 45.0389 29.8325 45.0676C29.8128 45.0962 29.7932 45.1257 29.7739 45.1564C29.755 45.1863 29.7346 45.2209 29.7172 45.2526C29.7046 45.2753 29.6903 45.3039 29.6784 45.3283L29.6293 45.4048C29.629 45.4053 29.6288 45.4058 29.6286 45.4063C29.6176 45.4331 29.6072 45.4598 29.5975 45.4859C29.5878 45.5121 29.5789 45.5378 29.5703 45.5624C29.5694 45.5651 29.5684 45.5677 29.5675 45.5703C29.5599 45.5921 29.5526 45.6132 29.5456 45.6331C29.5377 45.6554 29.5298 45.6764 29.5221 45.6962C29.5136 45.7183 29.508 45.7309 29.5013 45.746C29.4016 45.9428 29.2705 46.1845 29.1532 46.4159C29.1387 46.4444 29.1244 46.4729 29.1102 46.5014C29.0333 46.6546 28.9611 46.803 28.8892 46.956C28.8355 47.0704 28.7879 47.1742 28.7378 47.2866C28.6629 47.4548 28.5966 47.6097 28.5272 47.7782C28.4845 47.8821 28.4465 47.9772 28.4061 48.0804C28.3012 48.3488 28.2029 48.6184 28.114 48.8823C28.0221 49.1546 27.9402 49.4191 27.8625 49.6968C27.7883 49.9631 27.7165 50.2525 27.6616 50.5262C27.6194 50.7347 27.5948 50.9388 27.5741 51.1379C27.5632 51.2444 27.5529 51.3509 27.5451 51.4499C27.5451 51.4502 27.5451 51.4506 27.5451 51.4509C27.5378 51.5392 27.5307 51.6272 27.523 51.7151C27.5061 51.9061 27.4895 52.0858 27.4686 52.2673C27.4478 52.4487 27.4226 52.6328 27.3955 52.8083C27.3683 52.9838 27.3347 53.1715 27.3008 53.3455C27.2666 53.5209 27.2293 53.6951 27.187 53.8809C27.1323 54.1201 27.0754 54.3524 27.0151 54.6014C26.9565 54.8416 26.8977 55.081 26.8379 55.3304C26.8166 55.4192 26.7975 55.4994 26.7772 55.5851C26.7771 55.5854 26.777 55.5857 26.777 55.5861C26.7397 55.7428 26.7023 55.9021 26.6651 56.0638C26.6081 56.3121 26.5544 56.5507 26.5007 56.8031C26.4464 57.0588 26.3981 57.2956 26.3504 57.5516C26.3025 57.8097 26.2597 58.0604 26.2249 58.3239C26.1936 58.5589 26.1654 58.7975 26.1398 59.0244C26.1329 59.0849 26.126 59.1456 26.1191 59.2066C26.0861 59.4977 26.0529 59.7776 26.0125 60.0497C25.9722 60.3223 25.9223 60.6055 25.8684 60.873C25.8142 61.143 25.7517 61.4279 25.6872 61.7037C25.6227 61.979 25.5551 62.2547 25.4841 62.5404C25.4142 62.8196 25.3434 63.0933 25.2697 63.3802C25.2289 63.539 25.1881 63.7115 25.1526 63.8664C25.1164 64.025 25.0821 64.1842 25.0491 64.3428C25.0357 64.4071 25.0226 64.4714 25.0095 64.5355C24.9904 64.6286 24.9714 64.7226 24.9526 64.8131C24.9213 64.9625 24.8896 65.1093 24.8561 65.2526C24.8227 65.3958 24.7873 65.5355 24.7485 65.6708C24.7084 65.81 24.6704 65.9293 24.6209 66.0605C24.5167 66.3879 24.4723 66.5968 24.4228 66.8301C24.4131 66.8761 24.403 66.9231 24.3923 66.9723C24.3812 67.0267 24.3703 67.0813 24.3597 67.136L24.3492 67.2881C24.3253 67.5164 24.3055 67.7433 24.2887 67.967C24.2678 68.2471 24.2517 68.5216 24.2396 68.7984C24.2276 69.0741 24.22 69.3425 24.2157 69.6247C24.2114 69.9037 24.211 70.181 24.2144 70.4576C24.2178 70.7341 24.2252 71.015 24.2358 71.2833C24.242 71.4381 24.2511 71.6032 24.2608 71.7605C24.2677 71.8732 24.2752 71.984 24.2826 72.0925C24.2856 72.1367 24.2886 72.1807 24.2916 72.2243C24.3017 72.3743 24.3109 72.5197 24.3173 72.6598C24.3237 72.7999 24.3274 72.935 24.3269 73.0668C24.3265 73.1988 24.3218 73.3275 24.3129 73.4559C24.3034 73.5876 24.2921 73.7022 24.2729 73.8462C24.2603 73.9401 24.2476 74.0319 24.2349 74.1233C24.2159 74.2601 24.1966 74.3956 24.1766 74.5316C24.1567 74.6675 24.1365 74.8012 24.1155 74.9353C24.1088 74.9784 24.1016 75.0239 24.0947 75.067C24.0733 75.2003 24.0513 75.3317 24.0283 75.4626C24.0054 75.5914 23.9814 75.7269 23.9562 75.8581C23.9309 75.9905 23.9047 76.1202 23.8766 76.2521C23.8286 76.4763 23.804 76.6901 23.7867 76.8767C23.7695 77.0656 23.7586 77.2414 23.748 77.4119C23.7461 77.4439 23.7441 77.4758 23.7421 77.5077C23.7337 77.6486 23.7257 77.7876 23.7166 77.9237C23.7055 78.0914 23.6929 78.2555 23.6786 78.4194C23.6644 78.5819 23.6484 78.7453 23.6302 78.9055C23.6118 79.0673 23.5923 79.2213 23.5689 79.3866C23.5458 79.5546 23.5165 79.7255 23.4848 79.9113C23.4533 80.0956 23.4208 80.288 23.392 80.482C23.3631 80.6757 23.3376 80.8717 23.3169 81.0652C23.2961 81.2556 23.2792 81.4622 23.2664 81.6569C23.2535 81.8543 23.2445 82.0494 23.2385 82.2426C23.2324 82.4353 23.2292 82.6333 23.2289 82.8176C23.2283 83.1145 23.2296 83.4275 23.2318 83.7282C23.234 84.0291 23.2373 84.3282 23.2411 84.6239C23.2448 84.9246 23.2489 85.2314 23.2536 85.5304C23.2582 85.8313 23.2634 86.1238 23.2685 86.4237C23.2696 86.4911 23.2708 86.5583 23.2719 86.6254C23.2759 86.8615 23.28 87.0957 23.2839 87.3269C23.284 87.3285 23.2841 87.3301 23.2841 87.3316C23.2891 87.6307 23.2941 87.9123 23.2974 88.2179C23.2986 88.3281 23.2997 88.4335 23.3003 88.5402C23.3009 88.647 23.3011 88.7513 23.3009 88.8562C23.3006 88.9612 23.2998 89.0651 23.2982 89.167C23.2966 89.2703 23.2944 89.3692 23.2908 89.4711C23.2876 89.5671 23.283 89.6621 23.2781 89.7654C23.2777 89.7748 23.2772 89.7842 23.2768 89.7936C23.2714 89.9066 23.2672 90.0344 23.2671 90.1526C23.2674 90.468 23.2654 90.759 23.2606 91.0757C23.2558 91.3916 23.2487 91.7021 23.2406 92.0105C23.2374 92.1317 23.234 92.2482 23.2306 92.3732C23.2254 92.5681 23.2202 92.7617 23.2157 92.9539C23.2081 93.2739 23.2027 93.569 23.2003 93.9019C23.1981 94.2243 23.1997 94.5427 23.2055 94.8534C23.2112 95.1732 23.2209 95.5021 23.2346 95.8133C23.25 96.1513 23.2672 96.5242 23.2857 96.87C23.3043 97.2106 23.3238 97.5773 23.3442 97.9243C23.3646 98.2653 23.3857 98.6301 23.4076 98.9772C23.4296 99.3142 23.452 99.6867 23.4754 100.029C23.4894 100.229 23.5036 100.451 23.5181 100.661C23.5024 100.773 23.4871 100.878 23.4725 100.977C23.365 101.745 23.288 102.275 23.2327 103.007C23.2247 103.075 23.2135 103.13 23.2 103.196C23.1974 103.208 23.1948 103.221 23.1921 103.235C23.1747 103.322 23.1564 103.436 23.1443 103.577C23.1205 103.842 23.1224 104.306 23.2659 104.867C23.3021 105.015 23.4685 105.091 23.6373 105.065C23.7558 105.046 23.8441 104.978 23.8738 104.883C23.8931 105.048 23.9133 105.228 23.9337 105.394C23.9418 105.477 23.9805 105.502 24.0422 105.575C24.1038 105.625 24.1832 105.634 24.2637 105.633C24.3441 105.629 24.4196 105.615 24.4747 105.55C24.5297 105.493 24.5595 105.446 24.5585 105.361C24.557 105.276 24.5555 105.193 24.5543 105.088C24.5529 105.007 24.5518 104.92 24.5509 104.823C24.5492 104.639 24.5486 104.466 24.5489 104.281C24.549 104.116 24.5503 103.91 24.5521 103.742C24.5538 103.573 24.5563 103.375 24.5593 103.2C24.5622 103.027 24.5659 102.848 24.5699 102.657C24.5722 102.549 24.5745 102.446 24.5771 102.339C24.5781 102.299 24.5792 102.26 24.5802 102.22C24.581 102.188 24.5817 102.155 24.5825 102.121C24.5915 101.759 24.6011 101.428 24.6117 101.067C24.622 100.736 24.6333 100.35 24.6447 100.021C24.6562 99.6782 24.6686 99.3089 24.6809 98.9717C24.6934 98.6244 24.7064 98.2627 24.7197 97.9219C24.7331 97.5753 24.7471 97.2118 24.7616 96.8724C24.7729 96.6058 24.7851 96.3269 24.7977 96.0598C24.815 95.9567 24.8315 95.854 24.8475 95.7518C24.8938 95.4562 24.9537 95.1448 25.013 94.8503C24.9787 95.3845 24.9304 95.8074 24.8845 96.2039C24.8783 96.2594 24.8721 96.3143 24.866 96.3688C24.8044 96.9214 24.7516 97.4475 24.7545 98.1547C24.7625 100.175 24.7746 101.358 24.8089 102.083C24.8434 102.809 24.901 103.125 25.0174 103.423C25.182 103.828 25.2725 104.64 25.2745 105.037C25.2752 105.181 25.4159 105.307 25.5887 105.302C25.7615 105.307 25.9011 105.181 25.9004 105.037C25.8984 104.616 25.8066 103.759 25.6109 103.252C25.5236 103.047 25.4681 102.779 25.4341 102.064C25.4003 101.352 25.3885 100.179 25.3804 98.1564C25.3777 97.4756 25.428 96.9676 25.4889 96.4232C25.4949 96.3693 25.5012 96.3149 25.5073 96.2597C25.5074 96.2594 25.5074 96.259 25.5074 96.2587C25.5639 95.7735 25.6261 95.2095 25.6596 94.4968C25.7372 92.8181 25.8797 90.5462 25.9496 90.0174C25.9633 89.9115 25.9784 89.8087 25.9943 89.6997C26.0554 89.2829 26.1287 88.7976 26.1905 87.6705C26.204 87.4281 26.2142 87.1418 26.222 86.8253C26.3141 86.3434 26.3996 85.905 26.4528 85.505C26.4987 85.1646 26.578 84.8341 26.6639 84.5384C26.6886 84.4517 26.7145 84.3643 26.7402 84.2767C26.8023 84.0655 26.8643 83.8529 26.9132 83.6441C26.9521 83.4777 26.9984 83.3027 27.0475 83.1167C27.2256 82.4643 27.4402 81.6399 27.4624 80.6111C27.4865 79.4941 27.469 78.5606 27.4507 77.7284C27.479 78.3381 27.5185 78.8013 27.5544 79.1848C27.5612 79.2571 27.5678 79.3263 27.5741 79.3928C27.6189 79.8715 27.6515 80.2227 27.6429 80.591C27.6014 82.3591 27.5369 83.0097 27.37 83.7671C27.3262 83.964 27.2686 84.1799 27.2067 84.4107C27.0831 84.862 26.9413 85.4201 26.8562 85.9847C26.777 86.5022 26.6627 87.1288 26.5427 87.7484C26.5427 87.7486 26.5427 87.7489 26.5427 87.7491C26.5192 87.8714 26.4956 87.9928 26.4717 88.1231C26.3266 88.9051 26.1808 89.7037 26.085 90.4971C26.0747 90.5809 26.0609 90.6809 26.0449 90.7951C25.9524 91.4718 25.7905 92.6475 25.8648 94.0864C25.8811 94.4084 25.9203 94.724 25.9651 95.1039C25.9788 95.2206 25.9931 95.341 26.0074 95.4655C26.0689 95.9944 26.1333 96.6545 26.1672 97.5129C26.1951 98.2347 26.2034 99.0811 26.2127 100.001C26.2175 100.432 26.2225 100.898 26.2302 101.344C26.2535 102.698 26.2998 103.925 26.3498 105.159C26.3498 105.159 26.3498 105.16 26.3498 105.16C26.3557 105.312 26.5009 105.415 26.6736 105.416C26.8462 105.402 26.9813 105.3 26.9755 105.142C26.9255 103.915 26.8791 102.687 26.8559 101.339C26.8483 100.901 26.8433 100.438 26.8386 100.009C26.8292 99.085 26.8208 98.2279 26.7927 97.4983C26.7582 96.6264 26.6926 95.9559 26.6303 95.4178C26.6153 95.2862 26.6006 95.1614 26.5867 95.0419C26.5423 94.6728 26.5053 94.3714 26.4899 94.0668C26.4179 92.674 26.5733 91.5457 26.6659 90.8635C26.6823 90.7464 26.6966 90.6429 26.7074 90.5544C26.8013 89.7794 26.9447 88.9892 27.0896 88.2113C27.1132 88.0846 27.1366 87.9578 27.16 87.8381C27.1601 87.8378 27.1602 87.8376 27.1603 87.8373C27.2802 87.2189 27.3964 86.585 27.477 86.0542C27.559 85.5096 27.6875 85.0132 27.8074 84.5687C27.8717 84.3306 27.9335 84.0994 27.9848 83.8694C28.1617 83.0686 28.2267 82.3792 28.2683 80.6062ZM23.8448 104.618C23.7683 104.251 23.7534 103.982 23.76 103.762C23.7767 103.938 23.7942 104.138 23.8126 104.302C23.823 104.406 23.8337 104.52 23.8448 104.618ZM25.5974 86.7716C25.5863 86.8288 25.5751 86.8864 25.5638 86.944C25.5713 86.7846 25.5785 86.6242 25.5857 86.4632C25.5946 86.2662 25.6031 86.0791 25.6116 85.8852C25.6085 86.191 25.6041 86.4874 25.5974 86.7716ZM26.8366 80.5966C26.8157 81.5634 26.6191 82.3284 26.4426 82.9731C26.3918 83.1623 26.3424 83.3529 26.2994 83.5365C26.2816 83.6129 26.262 83.6891 26.2413 83.7657C26.2395 83.3166 26.2367 82.8999 26.2342 82.5698C26.2269 81.5696 26.1846 80.9892 26.1472 80.4924C26.1365 80.3473 26.1262 80.2073 26.1173 80.0639C26.1406 79.9459 26.1638 79.8229 26.1845 79.6983C26.2138 79.5224 26.2422 79.3369 26.2667 79.1617C26.2914 78.9853 26.3139 78.8052 26.3335 78.6274C26.3531 78.4482 26.3701 78.2698 26.3854 78.0914C26.3997 77.9236 26.4124 77.7556 26.4247 77.5925C26.4254 77.5832 26.4261 77.5736 26.4268 77.5646C26.4398 77.3971 26.4523 77.2335 26.4681 77.0828C26.4843 76.9294 26.5022 76.8014 26.5278 76.6878C26.5596 76.5459 26.5904 76.3999 26.6192 76.255C26.648 76.1099 26.6751 75.965 26.7006 75.82C26.7262 75.6734 26.7502 75.5333 26.7731 75.3922C26.7805 75.3466 26.7882 75.2988 26.7953 75.2534C26.7986 75.2325 26.8019 75.2116 26.8052 75.1908C26.8014 75.4676 26.7987 75.7568 26.7975 76.0615C26.7958 76.499 26.8067 76.9623 26.8189 77.4671C26.8393 78.3514 26.8636 79.3456 26.8366 80.5966ZM26.9544 70.9513C26.95 71.0723 26.9411 71.2493 26.9297 71.4763C26.927 71.5304 26.9239 71.5854 26.9209 71.6469C26.9208 71.6455 26.9208 71.644 26.9207 71.6426C26.9081 71.4933 26.8973 71.3584 26.8878 71.2106C26.8709 70.9478 26.8572 70.6913 26.8464 70.4311C26.8356 70.1698 26.8279 69.9082 26.8231 69.645C26.8183 69.3806 26.8164 69.1267 26.8178 68.8679C26.8193 68.6076 26.8236 68.3501 26.8321 68.089C26.8348 68.0058 26.8379 67.9223 26.8414 67.8387C26.8527 68.0258 26.861 68.2194 26.8699 68.4233C26.8769 68.586 26.8844 68.7554 26.8938 68.9329C26.8975 69.0009 26.9035 69.0831 26.9106 69.1788C26.939 69.5504 26.9828 70.1702 26.9544 70.9513ZM27.2053 65.8621C27.2167 65.8025 27.2277 65.7435 27.2379 65.6852C27.2671 65.5192 27.2921 65.3584 27.3155 65.2018C27.3318 65.0937 27.3482 64.979 27.3641 64.8695C27.3709 64.8231 27.3777 64.7769 27.3845 64.7312C27.3958 64.6546 27.4073 64.579 27.4188 64.5042C27.3688 65.0402 27.3205 65.5453 27.2593 66.0911C27.2585 66.0983 27.2575 66.1055 27.2567 66.1128C27.2392 66.027 27.2221 65.9435 27.2053 65.8621Z" fill="#1E1E1E"/>
<path d="M37.937 64.0169C37.9624 63.4818 37.943 62.9596 37.9174 62.3338C37.9174 62.3335 37.9174 62.3332 37.9174 62.3328C37.9138 62.2423 37.91 62.1489 37.9063 62.0522C37.8769 61.2712 37.8473 60.2527 37.8763 58.7248C37.9085 57.0356 37.8013 55.6764 37.6744 54.8607C37.6508 54.7075 37.6415 54.5501 37.6461 54.1513C37.6491 53.8895 37.6578 53.5354 37.6709 53.0198C37.6781 52.7421 37.6856 52.4366 37.6946 52.0671C37.7074 51.5383 37.7359 50.8757 37.7733 50.1434L37.7254 50.4603C37.9538 49.5434 38.2224 48.5447 38.4887 47.6042C38.7793 46.5759 39.0679 45.6155 39.2826 44.8958C39.6051 43.816 39.8981 42.8042 40.249 41.6825C40.5675 40.6665 40.9263 39.5805 41.3993 38.3465C41.7621 37.4015 42.0296 36.4531 42.3207 35.4836C42.3576 35.3607 42.3946 35.2381 42.4316 35.1163C42.6959 34.2583 42.9801 33.4003 43.3852 32.5044C44.1112 30.9101 44.9079 29.7595 45.8636 28.5747C46.2429 28.1074 46.6401 27.648 47.0922 27.1523C47.7889 26.3847 48.8293 25.3208 50.0099 24.4284L49.963 24.4615C49.979 24.4509 49.995 24.4403 50.011 24.4296C50.1199 24.3574 50.2294 24.2859 50.3393 24.215C50.3399 24.2146 50.3405 24.2142 50.341 24.2139C51.5225 23.4522 52.7545 22.76 53.664 22.2554C55.115 21.4557 55.6806 21.1855 56.1531 20.9601C56.3324 20.8744 56.4937 20.7975 56.6886 20.6968C57.3817 20.3396 58.392 19.732 59.4075 19.105C59.4113 19.1026 59.4152 19.1003 59.4191 19.0979C59.5867 18.9945 59.6524 18.7889 59.5615 18.642C59.4706 18.495 59.258 18.4618 59.0909 18.5649C58.5543 18.896 58.0294 19.2161 57.5555 19.4947C57.4548 19.3819 57.2686 19.3619 57.1188 19.4519C56.7392 19.6799 55.5084 20.279 53.57 21.1696C53.6813 21.0751 53.7784 20.9896 53.8564 20.9163C53.9497 20.8293 54.0233 20.7582 54.0832 20.699C54.2082 20.5757 54.2968 20.4907 54.4597 20.3721C54.8547 20.1171 55.4971 19.7408 56.1624 19.3444C56.331 19.244 56.3979 19.0409 56.3085 18.8932C56.2209 18.7442 56.0109 18.7066 55.8429 18.8065C55.8396 18.8085 55.8363 18.8104 55.833 18.8123C55.1769 19.2032 54.5152 19.5905 54.1042 19.8565C54.0013 19.9233 53.9093 19.9851 53.8433 20.0312C53.7899 20.0684 53.7255 20.1143 53.691 20.1456C53.6864 20.1498 53.6778 20.1578 53.668 20.1682C53.6678 20.1685 53.6677 20.1687 53.6675 20.1689C53.662 20.1746 53.6339 20.2041 53.6106 20.2467C53.6059 20.2553 53.5958 20.2742 53.5867 20.3007C53.5827 20.3046 53.5787 20.3085 53.5747 20.3124C53.5189 20.367 53.4633 20.4219 53.3991 20.481C53.154 20.7091 52.7529 21.0457 51.8638 21.6725C51.2792 22.0887 50.3671 22.6512 49.262 23.3991L49.2432 23.4123C48.8283 23.7341 48.3919 24.0958 47.9455 24.4994C48.043 24.3938 48.1452 24.2868 48.2456 24.1842C48.4996 23.9246 48.7658 23.6714 49.0416 23.4262C49.0843 23.3883 49.1266 23.3509 49.169 23.3139L49.1941 23.2962C49.2594 23.246 49.3249 23.1963 49.3914 23.1463C49.5716 23.0106 49.7543 22.8765 49.9375 22.7448C50.0619 22.6554 50.1864 22.5672 50.3112 22.4796C50.3115 22.4794 50.3118 22.4793 50.3121 22.4791C50.4857 22.3573 50.6603 22.2365 50.8358 22.116C50.8978 22.0731 50.958 22.0317 51.0184 21.9904C51.2591 21.826 51.4967 21.666 51.7613 21.4706C51.7927 21.4453 51.8271 21.4163 51.8514 21.3946C51.8776 21.3714 51.9028 21.3486 51.9265 21.3266C51.9474 21.3072 51.9672 21.2883 51.9863 21.2703C51.9888 21.2679 51.9914 21.2655 51.994 21.263C52.0154 21.2429 52.0361 21.2238 52.0561 21.2054C52.0759 21.1872 52.0944 21.17 52.1133 21.1534C52.1135 21.1533 52.1137 21.1532 52.1139 21.1531C52.1337 21.1359 52.1487 21.1228 52.1703 21.1054C52.1974 21.0836 52.2211 21.0652 52.2504 21.0436C52.2786 21.0228 52.3088 21.0014 52.3383 20.9809C52.3681 20.9603 52.3988 20.9395 52.4303 20.9187C52.4618 20.8978 52.4941 20.8767 52.5269 20.8556C52.5601 20.8343 52.5925 20.8138 52.6255 20.7929C52.6585 20.772 52.6921 20.7508 52.726 20.7294C52.8044 20.6801 52.8638 20.6064 52.8903 20.5236C52.9171 20.4407 52.9102 20.3551 52.87 20.2853C52.8297 20.2154 52.7592 20.1664 52.674 20.1481C52.5892 20.1296 52.4957 20.144 52.4138 20.1873C52.3916 20.199 52.3693 20.2106 52.347 20.2224C52.3338 20.2294 52.3205 20.2366 52.3073 20.2436C52.2718 20.2624 52.2358 20.2814 52.199 20.3014C52.1624 20.3212 52.1258 20.3413 52.089 20.3618C52.0522 20.3823 52.0152 20.4033 51.9782 20.4249C51.9404 20.447 51.902 20.4701 51.8637 20.494C51.8263 20.5174 51.7843 20.5448 51.7476 20.5701C51.721 20.5884 51.6875 20.6127 51.66 20.6331C51.6314 20.6544 51.6036 20.6759 51.577 20.6968C51.5505 20.7177 51.5251 20.7383 51.501 20.7579C51.4984 20.76 51.4958 20.7621 51.4932 20.7641C51.4722 20.7813 51.4505 20.7986 51.4307 20.8144C51.4084 20.8321 51.3872 20.8485 51.3669 20.8637C51.3446 20.8805 51.3307 20.8901 51.3136 20.9017C51.0815 21.0468 50.7876 21.2145 50.5063 21.3781C50.4707 21.3989 50.4354 21.4195 50.4005 21.4399C50.2164 21.5471 50.0304 21.6564 49.8457 21.7665C49.7112 21.8467 49.577 21.9277 49.4422 22.0102C49.2445 22.1314 49.0463 22.2557 48.8496 22.3824C48.7888 22.4216 48.7287 22.4607 48.6687 22.5L48.5945 22.5524C48.5355 22.5967 48.4765 22.6415 48.417 22.6874C48.1053 22.9273 47.8023 23.1774 47.5117 23.435C47.2168 23.6964 46.9331 23.9667 46.6615 24.246C46.3878 24.5272 46.1194 24.8262 45.8729 25.1291C45.6946 25.3486 45.5203 25.5931 45.3726 25.8156C45.2923 25.9363 45.2126 26.0587 45.1381 26.1767C45.1378 26.1771 45.1376 26.1775 45.1374 26.1779C45.0728 26.2805 45.0092 26.383 44.9457 26.4854C44.8076 26.7074 44.6788 26.918 44.5457 27.132C44.4107 27.3484 44.2827 27.5536 44.1478 27.7653C44.0123 27.9778 43.88 28.1838 43.744 28.3927C43.6059 28.6048 43.4742 28.8053 43.333 29.0198C43.1443 29.3061 42.965 29.5776 42.777 29.8701C42.5902 30.1606 42.4126 30.4416 42.2288 30.7419C42.1668 30.843 42.1054 30.9444 42.0435 31.0474C42.0433 31.0478 42.0431 31.0482 42.0429 31.0486C41.9293 31.2374 41.8113 31.4378 41.7019 31.627C41.5329 31.9188 41.3567 32.234 41.1963 32.5308C41.0339 32.8312 40.8674 33.1517 40.7158 33.4576C40.5617 33.7686 40.4045 34.1013 40.2649 34.4266C40.1385 34.7198 40.0117 35.0283 39.8971 35.3156C39.8663 35.3926 39.8356 35.4701 39.8048 35.5479C39.657 35.9211 39.5201 36.2719 39.3762 36.6233C39.2307 36.9796 39.0863 37.3187 38.9327 37.67C38.7778 38.0245 38.6236 38.3675 38.4633 38.7234C38.3008 39.0846 38.1439 39.4286 37.9816 39.7878C37.8193 40.1475 37.6594 40.502 37.4978 40.8636C37.4081 41.0648 37.3144 41.2851 37.2294 41.4906C37.145 41.694 37.0629 41.8987 36.9827 42.1032C36.9502 42.1862 36.918 42.2692 36.886 42.3519C36.8394 42.4721 36.7927 42.5942 36.7477 42.7106C36.6727 42.9043 36.5985 43.0947 36.5239 43.2806C36.4493 43.4664 36.3742 43.6474 36.2973 43.8225C36.2166 44.0067 36.1503 44.1442 36.063 44.3176C35.868 44.7412 35.7658 45.0193 35.6546 45.3216C35.6331 45.3801 35.6109 45.4399 35.5877 45.5024C35.4583 45.8607 35.3355 46.2261 35.2188 46.5932C35.1036 46.9551 34.9967 47.3112 34.8918 47.6813C34.7869 48.0517 34.6911 48.4108 34.5987 48.7775C34.5285 49.0559 34.4607 49.3372 34.3953 49.6221L34.3442 49.9603C34.3413 50.0505 34.3386 50.1406 34.3361 50.2307C34.3258 50.6076 34.3194 50.9906 34.317 51.3565C34.3155 51.5681 34.3167 51.7922 34.3191 51.9999C34.3208 52.1497 34.3232 52.2971 34.3255 52.4414C34.3265 52.5003 34.3275 52.5588 34.3284 52.6166C34.3314 52.8194 34.3336 53.0189 34.3333 53.2094C34.3331 53.4003 34.3304 53.5844 34.3237 53.7639C34.317 53.9437 34.3063 54.1189 34.2913 54.2935C34.2756 54.4745 34.2592 54.6243 34.2336 54.8151C34.2167 54.9393 34.1999 55.0608 34.1831 55.1817C34.158 55.3626 34.1323 55.5499 34.1062 55.7338C34.08 55.9183 34.0537 56.0999 34.0265 56.2819C34.0178 56.3404 34.0086 56.4022 33.9997 56.4607C33.9722 56.6417 33.9444 56.8201 33.9154 56.9978C33.8865 57.1751 33.8569 57.3502 33.826 57.5241C33.795 57.6983 33.7633 57.8704 33.7292 58.0503C33.6712 58.3542 33.6372 58.6445 33.6118 58.8979C33.5863 59.1544 33.5676 59.3932 33.5497 59.6249C33.5463 59.6682 33.5429 59.7116 33.5396 59.7549C33.5253 59.9417 33.5116 60.1239 33.4969 60.3045C33.4785 60.5323 33.4589 60.7548 33.4377 60.9772C33.4166 61.1977 33.3936 61.4194 33.3687 61.6367C33.3435 61.8561 33.3175 62.065 33.2872 62.2891C33.2574 62.5108 33.2215 62.7336 33.182 62.9876C33.1429 63.237 33.1026 63.4976 33.0659 63.7603C33.0291 64.0227 32.9957 64.2882 32.9671 64.5505C32.9385 64.8135 32.9142 65.0744 32.8935 65.3431C32.8728 65.6103 32.8562 65.8747 32.8426 66.1364C32.829 66.3975 32.8182 66.6658 32.8107 66.9157C32.7989 67.3143 32.7883 67.7351 32.7792 68.1431C32.7702 68.5504 32.7623 68.9554 32.7552 69.3557C32.7481 69.7578 32.741 70.1756 32.7349 70.5791C32.7288 70.9863 32.7236 71.3804 32.7182 71.7879C32.7169 71.8789 32.7157 71.9696 32.7145 72.0601C32.7103 72.3788 32.7064 72.6948 32.7024 73.0069C32.7025 73.009 32.7025 73.0112 32.7025 73.0133C32.6974 73.4143 32.6926 73.8047 32.6858 74.2135C32.6834 74.3619 32.681 74.5039 32.6781 74.6476C32.6752 74.7915 32.672 74.9321 32.6683 75.0734C32.6647 75.2148 32.6605 75.3548 32.6556 75.492C32.6508 75.6294 32.6452 75.7685 32.6382 75.9097C32.6319 76.0387 32.6243 76.1663 32.6162 76.3051C32.6155 76.3177 32.6147 76.3304 32.614 76.343C32.6051 76.4948 32.5969 76.6665 32.5931 76.8255C32.5836 77.2467 32.5724 77.6482 32.5579 78.0777C32.5436 78.5014 32.5273 78.9179 32.5102 79.3314C32.5035 79.4934 32.4962 79.6667 32.4893 79.8331C32.4785 80.0938 32.4678 80.3528 32.4578 80.61C32.4416 81.0272 32.4268 81.4638 32.4158 81.8965C32.4048 82.3308 32.3985 82.7371 32.3954 83.1847C32.3926 83.6218 32.3944 84.0467 32.4001 84.4707C32.4061 84.9595 32.4149 85.4331 32.4253 85.8963C32.4349 86.3858 32.4464 86.8616 32.4592 87.3216C32.4712 87.8143 32.4849 88.2786 32.4994 88.7489C32.5134 89.244 32.5296 89.686 32.5456 90.1778C32.5552 90.4677 32.5655 90.7497 32.5763 91.0239C32.5585 91.1742 32.541 91.326 32.5246 91.4648C32.4039 92.4631 32.317 93.2377 32.2514 94.201C32.2422 94.2972 32.2302 94.3741 32.2157 94.466C32.213 94.4835 32.2102 94.502 32.2073 94.5208C32.1886 94.6431 32.1692 94.7614 32.155 94.9717C32.1271 95.3656 32.1237 95.9385 32.2615 96.7169C32.2963 96.9259 32.462 97.033 32.6311 96.9974C32.7497 96.9712 32.8386 96.8761 32.8692 96.742C32.878 96.8666 32.8872 96.9772 32.8966 97.083C32.9057 97.2187 32.9153 97.3188 32.9249 97.4347C32.9325 97.5504 32.9711 97.5944 33.0324 97.6838C33.0939 97.7551 33.1733 97.7681 33.2538 97.7661C33.3342 97.7607 33.4096 97.7406 33.465 97.6496C33.5202 97.5853 33.5505 97.5018 33.55 97.395C33.5481 97.1661 33.5468 96.9257 33.547 96.6602C33.5467 96.4466 33.5486 96.1574 33.5506 95.9405C33.5528 95.7007 33.5564 95.4447 33.5604 95.2111C33.5646 94.9655 33.5695 94.7166 33.575 94.4807C33.5805 94.2377 33.5871 93.9793 33.5935 93.7486C33.5975 93.6048 33.6016 93.4554 33.606 93.3052C33.6076 93.2492 33.6094 93.1941 33.6111 93.1384C33.6124 93.096 33.6136 93.055 33.6149 93.0116C33.6291 92.5572 33.6454 92.0578 33.662 91.5995C33.6791 91.1096 33.6963 90.662 33.715 90.1763C33.7338 89.6893 33.7525 89.2458 33.7729 88.7525C33.7927 88.2874 33.8131 87.8204 33.8348 87.3327C33.8558 86.8753 33.8778 86.3996 33.9011 85.9158C33.9187 85.5604 33.9372 85.2007 33.9566 84.8332C33.9767 84.6896 33.996 84.5425 34.0145 84.4038C34.0682 84.0089 34.1357 83.6056 34.203 83.2005C34.1545 83.9254 34.0962 84.4705 34.0398 85.0316C34.0323 85.105 34.0248 85.1777 34.0174 85.2498C33.9429 85.9706 33.877 86.7042 33.864 87.6586C33.8269 90.4023 33.8201 91.9619 33.8419 92.9643C33.8643 93.9593 33.9176 94.39 34.0302 94.7717C34.1886 95.3494 34.2698 96.4209 34.2685 96.9638C34.2681 97.1336 34.4077 97.3332 34.5806 97.3218C34.7533 97.3345 34.894 97.1344 34.8944 96.9666C34.8958 96.398 34.8144 95.2283 34.6258 94.5595C34.5418 94.2594 34.4894 93.9257 34.4674 92.9451C34.4459 91.9588 34.4528 90.4141 34.4899 87.6669C34.5024 86.7484 34.5654 86.0386 34.639 85.3289C34.6463 85.2576 34.6538 85.1856 34.6613 85.1126C34.6613 85.1122 34.6613 85.1117 34.6614 85.1113C34.7308 84.4213 34.8056 83.7225 34.8593 82.7205C34.9809 80.4602 35.1931 77.384 35.2797 76.682C35.2967 76.5399 35.3151 76.402 35.3345 76.256C35.4093 75.6807 35.4972 75.0437 35.5974 73.515C35.619 73.1883 35.639 72.8024 35.6576 72.3759C35.7664 71.7288 35.8675 71.1349 35.9351 70.5964C35.9931 70.1369 36.0844 69.6946 36.1812 69.2965C36.2091 69.1797 36.2382 69.0619 36.2671 68.9439C36.337 68.6594 36.407 68.3729 36.4637 68.0915C36.5089 67.868 36.562 67.6283 36.6179 67.3834C36.8209 66.506 37.0671 65.4021 37.1309 64.009C37.2004 62.4928 37.2219 61.2361 37.2388 60.1207C37.2418 60.9279 37.2612 61.5712 37.2811 62.0891C37.2849 62.1873 37.2886 62.2813 37.2922 62.3716C37.318 63.0012 37.3357 63.4885 37.3122 63.985C37.2001 66.3647 37.1115 67.2446 36.916 68.2655C36.8647 68.531 36.7991 68.8219 36.7287 69.1329C36.5884 69.7418 36.4264 70.4886 36.3213 71.2507C36.2237 71.9504 36.0878 72.7915 35.9469 73.6253C35.9469 73.6257 35.9469 73.626 35.9469 73.6264C35.9194 73.7883 35.8913 73.9615 35.8632 74.1337C35.6923 75.1792 35.5203 76.2691 35.4002 77.3283C35.3874 77.4414 35.3706 77.5723 35.3509 77.7303C35.2373 78.654 35.0406 80.2206 35.0754 82.1759C35.0832 82.6 35.1136 83.04 35.1485 83.5557C35.1591 83.711 35.1705 83.8711 35.1816 84.0368C35.2295 84.7546 35.278 85.6188 35.2913 86.8085C35.3031 87.7562 35.2915 88.9569 35.2834 90.1616C35.2791 90.7709 35.2758 91.3795 35.2757 91.9769C35.2756 93.789 35.3032 95.4834 35.3428 97.1233C35.3428 97.1237 35.3428 97.124 35.3428 97.1244C35.3473 97.3451 35.4921 97.4641 35.6647 97.4734C35.8375 97.447 35.973 97.3297 35.9687 97.1023C35.9291 95.4721 35.9014 93.7768 35.9015 91.9758C35.9016 91.3872 35.9049 90.7845 35.9092 90.1779C35.9172 88.9686 35.9291 87.7505 35.9171 86.796C35.9035 85.5916 35.8544 84.7012 35.8057 83.9807C35.794 83.8057 35.7824 83.6397 35.7716 83.4809C35.7373 82.9677 35.7083 82.5622 35.7009 82.1576C35.6673 80.2652 35.8562 78.7576 35.9698 77.8342C35.99 77.6673 36.0073 77.5338 36.0209 77.414C36.1384 76.3796 36.3076 75.3016 36.4782 74.2616C36.5059 74.0928 36.5338 73.9181 36.5612 73.7556C36.5613 73.7553 36.5614 73.7549 36.5615 73.7546C36.7022 72.9221 36.8401 72.0727 36.9397 71.3544C37.0409 70.621 37.1874 69.9506 37.3235 69.3565C37.3966 69.0356 37.467 68.7242 37.5269 68.4142C37.734 67.3348 37.8246 66.4028 37.937 64.0169ZM32.8429 96.3879C32.7701 95.9033 32.759 95.507 32.768 95.2346C32.7826 95.4652 32.7977 95.7315 32.8141 95.9677C32.8235 96.095 32.8329 96.2475 32.8429 96.3879ZM35.035 72.2938C35.0219 72.3707 35.0087 72.4481 34.9954 72.5256C35.0084 72.3108 35.0211 72.0947 35.034 71.8777C35.0499 71.6098 35.0648 71.3585 35.0803 71.0964C35.0663 71.5089 35.0515 71.9114 35.035 72.2938ZM36.5058 63.9781C36.4454 65.2938 36.2199 66.3063 36.0185 67.1814C35.9606 67.4312 35.904 67.6878 35.8541 67.9356C35.8333 68.0386 35.8109 68.1413 35.7873 68.2446C35.8025 67.6342 35.8152 67.0822 35.8255 66.6318C35.8572 65.2723 35.8376 64.5037 35.8206 63.8244C35.8157 63.6274 35.8112 63.4374 35.8082 63.2428C35.8363 63.0838 35.8647 62.9148 35.8904 62.7502C35.9265 62.5209 35.9625 62.2719 35.9944 62.0338C36.0265 61.7947 36.0566 61.5506 36.0837 61.3097C36.1109 61.0668 36.1355 60.825 36.1584 60.5832C36.1801 60.352 36.1994 60.1374 36.2186 59.9208C36.2196 59.9085 36.2207 59.8962 36.2218 59.8839C36.2421 59.6566 36.2617 59.4346 36.284 59.2301C36.3069 59.0219 36.3305 58.8484 36.3611 58.6946C36.3992 58.5025 36.4364 58.3047 36.4716 58.1083C36.5071 57.909 36.5401 57.7225 36.5719 57.5303C36.6038 57.3387 36.6341 57.1483 36.6634 56.9569C36.6728 56.895 36.6826 56.8301 36.6918 56.7686C36.6961 56.7402 36.7004 56.7119 36.7045 56.6836C36.6882 57.0612 36.6726 57.4512 36.6585 57.8516C36.6375 58.4404 36.6278 59.0739 36.6181 59.759C36.6014 60.9327 36.5833 62.2876 36.5058 63.9781ZM37.0518 50.9628C37.0415 51.1275 37.0239 51.3684 37.0014 51.6774C36.9961 51.7504 36.9903 51.8274 36.9844 51.908C36.9844 51.9061 36.9845 51.9041 36.9844 51.9022C36.979 51.7014 36.9748 51.5156 36.9724 51.3146C36.9684 50.9562 36.9673 50.6066 36.9694 50.252C36.9697 50.2015 36.9701 50.151 36.9705 50.1005L36.9458 50.264C37.007 49.9648 37.0705 49.6698 37.1363 49.3781C37.2132 49.0376 37.2931 48.7031 37.3801 48.3596C37.4671 48.0167 37.5558 47.6839 37.6497 47.3534C37.68 47.2464 37.7118 47.1363 37.7436 47.0286C37.6902 47.2778 37.635 47.5257 37.5768 47.7911C37.5303 48.0031 37.4819 48.2259 37.4328 48.4628C37.414 48.5534 37.3928 48.6641 37.3684 48.7932C37.3022 49.1478 37.2095 49.65 37.0633 50.2936L37.0915 50.107C37.0835 50.3719 37.0709 50.6576 37.0518 50.9628ZM38.6928 44.4084C38.7208 44.3315 38.7483 44.2554 38.7749 44.1802C38.8507 43.966 38.9212 43.7586 38.9895 43.5568C39.0368 43.4171 39.0859 43.2706 39.1336 43.1298C39.1538 43.0702 39.1741 43.0109 39.1942 42.9523C39.2277 42.8542 39.2614 42.7574 39.2949 42.6617C39.0874 43.3516 38.8949 44.0073 38.6832 44.7165C38.6805 44.7255 38.6777 44.7346 38.6749 44.7437C38.6801 44.632 38.687 44.5172 38.6928 44.4084Z" fill="#1E1E1E"/>
<path d="M15.7194 63.1032C15.7064 62.4662 15.7381 61.86 15.778 61.0922C15.778 61.0918 15.778 61.0914 15.7779 61.091C15.7837 60.9841 15.7897 60.8737 15.7957 60.7594C15.844 59.8495 15.8971 58.5971 15.9064 56.8041C15.9158 54.7731 16.0591 53.2015 16.2067 52.2058C16.2343 52.0225 16.2475 51.8262 16.2537 51.3589C16.2576 51.0502 16.2584 50.6324 16.2592 50.024C16.2597 49.7003 16.2601 49.3224 16.2611 48.8774C16.2648 47.429 16.205 45.1254 16.1487 43.0345C16.1355 42.5446 16.1224 42.0619 16.1104 41.5995L16.1193 41.7385C16.0378 40.9942 15.9638 40.3268 15.905 39.7717C15.7616 38.422 15.6441 37.1442 15.5057 35.7459C15.3783 34.4626 15.2365 33.1 15.0332 31.5062C14.8776 30.2881 14.8289 29.0901 14.7823 27.879C14.7759 27.7221 14.7696 27.5655 14.7633 27.4097C14.7224 26.3507 14.6657 25.2289 14.532 24.0672C14.287 21.9687 13.899 20.3245 13.4286 18.5373C13.2422 17.8319 13.0423 17.1068 12.8252 16.3266C12.4796 15.0839 11.9877 13.305 11.3661 11.577C11.3128 11.4287 11.262 11.2903 11.2053 11.1384C11.205 11.1376 11.2047 11.1369 11.2044 11.1361C10.7524 9.9219 10.2308 8.76059 9.71777 7.85467L9.74504 7.90034C9.57636 7.63825 9.41162 7.39439 9.25507 7.17064C8.13993 5.60855 7.62369 5.04764 7.22872 4.57266C7.07636 4.39297 6.9373 4.22916 6.7755 4.02792C6.19179 3.30304 5.37736 2.16054 4.57105 0.982806C4.56801 0.978423 4.56497 0.974036 4.56192 0.969647C4.43063 0.778102 4.43614 0.5372 4.57916 0.440236C4.72207 0.343066 4.94793 0.425666 5.07855 0.61623C5.50504 1.23847 5.92093 1.83457 6.30755 2.36926C6.44885 2.31153 6.64058 2.38623 6.76483 2.56051C7.06584 2.99678 8.13245 4.21954 9.76318 6.16631C9.68517 6.0088 9.62189 5.87514 9.56749 5.75667C9.50408 5.61825 9.45636 5.50958 9.41626 5.41773C9.33085 5.22393 9.27488 5.09726 9.14785 4.88796C8.83433 4.42006 8.31212 3.71134 7.76982 2.96046C7.63249 2.77027 7.63588 2.53506 7.77569 2.43365C7.91685 2.33399 8.14044 2.40522 8.27736 2.59463C8.28006 2.59833 8.28276 2.60202 8.28546 2.60571C8.82001 3.34586 9.35903 4.07692 9.68771 4.56854C9.77101 4.69304 9.8419 4.80323 9.89299 4.88541C9.93443 4.95191 9.98566 5.03561 10.009 5.08495C10.0121 5.09152 10.0179 5.10411 10.0242 5.11996C10.0243 5.12024 10.0244 5.12052 10.0244 5.1208C10.028 5.12961 10.0462 5.17454 10.0548 5.2298C10.0565 5.24096 10.0601 5.2654 10.0599 5.29675C10.0625 5.30288 10.0652 5.30901 10.0679 5.31513C10.1055 5.40105 10.1435 5.48855 10.1863 5.58236C10.3231 5.88604 10.5469 6.32267 10.9629 7.12342L10.9793 7.15083C11.0533 7.31892 11.1419 7.51987 11.2281 7.72492C11.7057 8.83632 12.4733 10.7153 13.2104 13.1047C13.1734 12.9426 13.1336 12.7754 13.0922 12.608C12.9908 12.1955 12.8772 11.7727 12.7597 11.3634C12.7127 11.2013 12.6664 11.0444 12.6188 10.8877C12.5417 10.6342 12.4574 10.3704 12.3746 10.1206C12.3156 9.94368 12.2562 9.77074 12.1969 9.60209C12.1967 9.60172 12.1966 9.60135 12.1964 9.60097C12.1102 9.35739 12.025 9.1242 11.9318 8.88069C11.8994 8.79518 11.8673 8.71189 11.8353 8.63029C11.7072 8.30449 11.5738 7.9828 11.4224 7.60847C11.4057 7.56259 11.3892 7.51368 11.3765 7.47516C11.3624 7.4332 11.3492 7.39291 11.3371 7.35478C11.3265 7.32115 11.3167 7.28905 11.3072 7.25849C11.3059 7.25439 11.3046 7.25031 11.3033 7.24622C11.2926 7.21207 11.2822 7.17969 11.272 7.14876C11.262 7.11788 11.2522 7.08827 11.242 7.05957C11.2419 7.05932 11.2418 7.05908 11.2416 7.05884C11.2357 7.04243 11.2306 7.02822 11.2252 7.01362L11.2003 6.97196C11.195 6.96004 11.1894 6.94786 11.1829 6.93398C11.1648 6.89544 11.1488 6.86268 11.1286 6.82362C11.1092 6.78589 11.0881 6.74674 11.0663 6.70752C11.0446 6.66834 11.022 6.6288 10.9988 6.58896C10.9755 6.54902 10.9514 6.50851 10.927 6.46802C10.9025 6.42755 10.8775 6.38682 10.8521 6.34586C10.8268 6.3049 10.8011 6.26359 10.7751 6.22221C10.7154 6.12706 10.6828 6.01856 10.6863 5.92024C10.6897 5.82181 10.7282 5.74097 10.7945 5.69528C10.8609 5.64962 10.9505 5.64257 11.0442 5.67588C11.1378 5.70908 11.2281 5.78091 11.2949 5.87396C11.3131 5.89934 11.3314 5.92482 11.3497 5.95053C11.3606 5.96578 11.3714 5.98127 11.3823 5.99665C11.4115 6.03805 11.4411 6.07981 11.4704 6.12226C11.4997 6.16462 11.529 6.20793 11.5582 6.25155C11.5875 6.2954 11.6169 6.34016 11.6462 6.38609C11.6755 6.43194 11.7045 6.47874 11.7335 6.52725C11.7478 6.55125 11.763 6.57717 11.778 6.60341L11.8236 6.67975C11.8365 6.70581 11.8492 6.73223 11.861 6.75743C11.8786 6.7948 11.8992 6.84182 11.9161 6.88146C11.9337 6.92282 11.9506 6.96408 11.9664 7.00428C11.9824 7.04457 11.9973 7.08401 12.0117 7.12183C12.0132 7.12586 12.0148 7.12991 12.0163 7.13394C12.029 7.16748 12.0398 7.19732 12.0509 7.22684C12.0632 7.25957 12.0751 7.29051 12.0868 7.31988C12.0996 7.35227 12.108 7.37172 12.1184 7.39556C12.2692 7.712 12.4533 8.08898 12.6181 8.4492C12.6392 8.49515 12.6601 8.54121 12.6808 8.58709C12.789 8.82596 12.8935 9.06471 12.9954 9.30549C13.0676 9.47622 13.1403 9.65211 13.2123 9.83131C13.3124 10.08 13.4179 10.353 13.512 10.6055C13.5713 10.7647 13.6293 10.9241 13.688 11.0894C13.835 11.5028 13.9787 11.9327 14.1115 12.3584C14.2442 12.7833 14.3722 13.2235 14.4845 13.6448C14.6009 14.0797 14.7073 14.5179 14.8019 14.9627C14.8688 15.2813 14.921 15.608 14.9672 15.9237C14.9907 16.0884 15.0116 16.2461 15.0326 16.4061C15.0326 16.4067 15.0326 16.4072 15.0327 16.4078C15.051 16.5478 15.069 16.6873 15.0875 16.8271C15.1261 17.1234 15.1628 17.4024 15.2058 17.6943C15.2499 17.9909 15.291 18.2605 15.34 18.549C15.3885 18.8346 15.4408 19.1239 15.4941 19.4028C15.5477 19.6835 15.6068 19.9761 15.6663 20.2617C15.7451 20.6376 15.8308 21.0326 15.9138 21.4188C15.9958 21.799 16.0824 22.2032 16.1643 22.5923C16.1928 22.7275 16.2211 22.8639 16.2497 23.0015C16.2498 23.002 16.2499 23.0026 16.25 23.0031C16.3027 23.2563 16.3567 23.5208 16.4078 23.7747C16.4861 24.1628 16.564 24.5599 16.6405 24.9668C16.7143 25.3584 16.7866 25.7575 16.8561 26.1682C16.9252 26.5774 16.9889 26.9793 17.0458 27.4052C17.0976 27.7899 17.1418 28.1524 17.1865 28.5235C17.1982 28.621 17.2099 28.7189 17.2216 28.8171C17.2786 29.2917 17.3303 29.7216 17.3924 30.1666C17.4543 30.6123 17.5227 31.0502 17.5972 31.489C17.6715 31.9264 17.755 32.3905 17.8378 32.8273C17.9219 33.2729 18.0098 33.727 18.0993 34.182C18.1872 34.6253 18.2775 35.0771 18.3701 35.5417C18.4221 35.8046 18.4719 36.0657 18.5181 36.3218C18.5646 36.579 18.6091 36.837 18.6522 37.0939C18.6696 37.1981 18.6868 37.3022 18.7039 37.4059C18.7292 37.5589 18.7531 37.7036 18.7772 37.8469C18.8178 38.089 18.8585 38.3268 18.9007 38.5591C18.9429 38.7913 18.9868 39.018 19.0338 39.2379C19.0829 39.4689 19.1261 39.6457 19.184 39.8644C19.3078 40.3972 19.3642 40.7354 19.427 41.113C19.4394 41.1875 19.4522 41.2637 19.4656 41.3432C19.4678 41.3566 19.4699 41.3699 19.4721 41.3832L19.4811 41.5237C19.515 41.9661 19.5429 42.4061 19.5663 42.8386C19.5904 43.2885 19.6097 43.7293 19.625 44.1739C19.6402 44.6145 19.6511 45.0528 19.6586 45.5056C19.666 45.9534 19.6696 46.3984 19.6693 46.8425C19.669 47.2862 19.6647 47.7368 19.657 48.1674C19.6526 48.4128 19.6455 48.6886 19.6375 48.938C19.6318 49.1187 19.6255 49.2965 19.6193 49.4705C19.6167 49.5415 19.6142 49.6121 19.6117 49.6819C19.6033 49.9226 19.5956 50.1559 19.5908 50.3805C19.5859 50.6053 19.5836 50.8221 19.5855 51.0336C19.5874 51.2455 19.5934 51.4522 19.6037 51.6584C19.6147 51.8756 19.6272 52.059 19.6479 52.2904C19.6616 52.4413 19.6753 52.5889 19.6889 52.7358C19.7094 52.9556 19.7301 53.1733 19.7515 53.3919C19.7728 53.6103 19.7945 53.8253 19.8169 54.0408C19.8241 54.11 19.8317 54.1831 19.839 54.2525C19.8619 54.4667 19.8851 54.678 19.9095 54.8884C19.9339 55.1031 19.9592 55.3174 19.9858 55.529C20.0125 55.7418 20.04 55.9504 20.0695 56.1625C20.1198 56.5229 20.1465 56.8665 20.1656 57.1663C20.1847 57.4696 20.1975 57.7519 20.2097 58.0257C20.212 58.0781 20.2143 58.1312 20.2167 58.1839C20.2265 58.411 20.2359 58.6336 20.2463 58.8522C20.2591 59.1217 20.2732 59.3851 20.2891 59.6484C20.3049 59.9093 20.3225 60.1718 20.3423 60.4292C20.3623 60.6905 20.3831 60.9319 20.4083 61.2063C20.433 61.4772 20.4639 61.7512 20.4974 62.05C20.5306 62.346 20.5649 62.6553 20.5955 62.967C20.6262 63.2783 20.6536 63.5931 20.6761 63.904C20.6988 64.2186 20.7175 64.5448 20.7321 64.8587C20.7468 65.1755 20.7575 65.4888 20.7653 65.7989C20.7731 66.1082 20.778 66.426 20.78 66.7218C20.7834 67.2076 20.7848 67.7035 20.7852 68.1875C20.7855 68.6704 20.7849 69.1498 20.7836 69.6251C20.7825 70.116 20.7809 70.6026 20.7787 71.0836C20.7766 71.568 20.7738 72.0312 20.7712 72.5213C20.7706 72.6294 20.7701 72.7373 20.7695 72.8449C20.7674 73.2238 20.7652 73.5994 20.763 73.9704C20.763 73.9729 20.7629 73.9755 20.7628 73.978C20.7602 74.4556 20.7575 74.916 20.7565 75.4042C20.7562 75.581 20.7559 75.7502 20.7561 75.9213C20.7564 76.0927 20.7569 76.2602 20.758 76.4285C20.759 76.597 20.7607 76.7637 20.763 76.9273C20.7654 77.0943 20.7683 77.2475 20.7727 77.4193C20.7767 77.5734 20.782 77.7258 20.7876 77.8916C20.7881 77.9067 20.7886 77.9218 20.7891 77.937C20.7953 78.1182 20.8005 78.3234 20.8014 78.5131C20.8035 79.0205 20.8075 79.4821 20.8146 79.9982C20.8217 80.5052 20.8309 81.0036 20.8412 81.4984C20.8452 81.6935 20.8494 81.8782 20.8536 82.0842C20.8602 82.397 20.8666 82.7077 20.8725 83.0162C20.8822 83.5278 20.8896 84.0088 20.894 84.5409C20.8983 85.0583 20.8987 85.5692 20.8948 86.0678C20.8911 86.5878 20.8833 87.1107 20.8715 87.611C20.858 88.1516 20.8431 88.7564 20.8265 89.3093C20.8098 89.854 20.7924 90.4486 20.7738 91.0035C20.7551 91.549 20.736 92.1401 20.7158 92.6954C20.6954 93.2344 20.6749 93.8375 20.6531 94.3849C20.6399 94.7047 20.6268 95.0656 20.6132 95.4017C20.6294 95.5805 20.6452 95.7491 20.6602 95.909C20.771 97.1451 20.85 97.994 20.9079 99.1725C20.9162 99.2823 20.9276 99.3701 20.9413 99.4751C20.9439 99.4951 20.9465 99.5163 20.9493 99.5378C20.967 99.682 20.9857 99.8623 20.9982 100.09C21.0229 100.513 21.0224 101.26 20.8802 102.16C20.8443 102.397 20.6781 102.519 20.5092 102.477C20.3906 102.446 20.3023 102.337 20.2724 102.184C20.2534 102.449 20.2335 102.738 20.2134 103.004C20.2054 103.137 20.1667 103.178 20.1052 103.294C20.0435 103.373 19.9641 103.387 19.8837 103.385C19.8032 103.379 19.7278 103.357 19.6727 103.254C19.6176 103.162 19.5877 103.086 19.5885 102.95C19.5899 102.813 19.5913 102.68 19.5923 102.511C19.5934 102.38 19.5944 102.241 19.595 102.086C19.5963 101.788 19.5965 101.514 19.5957 101.213C19.5951 100.949 19.5932 100.62 19.591 100.348C19.5887 100.076 19.5856 99.761 19.582 99.4764C19.5785 99.1978 19.5741 98.9105 19.5695 98.6046C19.5667 98.4275 19.5641 98.2654 19.561 98.0919C19.56 98.0279 19.5587 97.965 19.5575 97.9015C19.5566 97.8496 19.5558 97.7971 19.5549 97.7427C19.5445 97.1571 19.5335 96.6315 19.5214 96.0463C19.5097 95.5138 19.4966 94.8976 19.4837 94.3646C19.4706 93.816 19.4564 93.2176 19.4424 92.6778C19.4282 92.1217 19.4132 91.5352 19.3981 90.9896C19.3829 90.4348 19.3669 89.845 19.3505 89.3018C19.3377 88.8727 19.324 88.4296 19.3098 87.994C19.2918 87.8284 19.2747 87.6633 19.2582 87.4992C19.2101 87.0231 19.1483 86.5276 19.0871 86.0474C19.1248 86.9132 19.1755 87.5831 19.2238 88.2277C19.2303 88.3168 19.2368 88.405 19.2432 88.4926C19.308 89.3785 19.3638 90.2296 19.3646 91.363C19.3672 94.6152 19.3598 96.5136 19.3283 97.6797C19.2965 98.8443 19.24 99.3531 19.1246 99.8328C18.9613 100.482 18.8731 101.788 18.8719 102.427C18.8716 102.661 18.731 102.86 18.5582 102.853C18.3854 102.86 18.2456 102.658 18.246 102.426C18.2472 101.747 18.3366 100.369 18.5305 99.5546C18.6171 99.2275 18.6717 98.7926 18.703 97.646C18.734 96.5001 18.7412 94.618 18.7387 91.3613C18.7378 90.27 18.6846 89.4478 18.6206 88.575C18.6143 88.4884 18.6077 88.401 18.6012 88.3124C18.6012 88.3118 18.6012 88.3113 18.6012 88.3107C18.5418 87.5235 18.4764 86.627 18.4382 85.4743C18.3503 82.7754 18.1915 79.1157 18.1177 78.2689C18.1032 78.0987 18.0872 77.9335 18.0705 77.7584C18.0062 77.0789 17.9296 76.3104 17.8587 74.4902C17.8433 74.1009 17.8309 73.6411 17.8206 73.1328C17.7246 72.3603 17.6353 71.6465 17.5788 71.006C17.5301 70.4575 17.448 69.9322 17.3594 69.4471C17.334 69.3076 17.3074 69.1669 17.2809 69.026C17.217 68.6862 17.1531 68.3439 17.1024 68.0081C17.062 67.7405 17.0142 67.4589 16.9635 67.1596C16.7793 66.0989 16.5576 64.7853 16.5256 63.1215C16.4911 61.3301 16.4993 59.8212 16.5094 58.4878C16.4871 59.4664 16.4521 60.2097 16.4199 60.8252C16.4138 60.9414 16.4079 61.0516 16.4022 61.1595C16.3621 61.9364 16.3327 62.4941 16.3449 63.0869C16.4029 65.9343 16.473 66.9828 16.6465 68.2001C16.6921 68.5169 16.7516 68.8643 16.8155 69.2357C16.9431 69.9711 17.0896 70.8627 17.1794 71.7717C17.2629 72.6112 17.3822 73.6143 17.5071 74.6115C17.5071 74.6119 17.5071 74.6123 17.5071 74.6127C17.5315 74.807 17.5562 75.0108 17.5811 75.218C17.7323 76.473 17.8842 77.7651 17.9857 79.0378C17.9966 79.1724 18.0112 79.3332 18.028 79.5166C18.1254 80.6111 18.2955 82.4976 18.2304 84.8137C18.2162 85.3316 18.1789 85.8332 18.1365 86.4497C18.1236 86.6371 18.1099 86.8302 18.0964 87.03C18.0381 87.8779 17.9776 88.9397 17.9484 90.3223C17.9244 91.4804 17.9205 92.8416 17.9155 94.3227C17.9128 95.0202 17.9098 95.762 17.904 96.4835C17.8863 98.6603 17.8443 100.634 17.7969 102.621C17.7969 102.621 17.7969 102.622 17.7969 102.622C17.7913 102.867 17.6462 103.032 17.4736 103.034C17.3009 103.011 17.1656 102.845 17.1712 102.592C17.2185 100.614 17.2606 98.6401 17.2782 96.4719C17.284 95.7629 17.2869 95.0257 17.2896 94.3314C17.2947 92.8436 17.2986 91.4649 17.3227 90.2941C17.3525 88.8896 17.4141 87.8111 17.4732 86.9482C17.4874 86.7371 17.5013 86.5367 17.5145 86.345C17.5565 85.7456 17.5918 85.2667 17.6052 84.7767C17.6682 82.5342 17.5049 80.7239 17.4073 79.6202C17.3901 79.4321 17.3751 79.2657 17.3637 79.1236C17.2642 77.8803 17.1147 76.6015 16.9638 75.353C16.9393 75.1514 16.9147 74.9394 16.8905 74.7487C16.8903 74.7483 16.8902 74.7479 16.8901 74.7476C16.7653 73.7517 16.6441 72.7385 16.5589 71.8762C16.4725 70.9992 16.3399 70.2068 16.216 69.4824C16.1497 69.0991 16.0859 68.7271 16.0326 68.3571C15.8486 67.0696 15.7777 65.9588 15.7194 63.1032ZM20.3007 101.758C20.3763 101.17 20.3904 100.738 20.3831 100.383C20.367 100.668 20.35 100.986 20.332 101.251C20.3219 101.42 20.3115 101.6 20.3007 101.758ZM18.4447 73.0536C18.4563 73.1456 18.468 73.2381 18.4798 73.3307C18.471 73.0747 18.4625 72.8171 18.4539 72.5586C18.4433 72.2344 18.4334 71.9385 18.4233 71.6261C18.4289 72.1148 18.4358 72.5995 18.4447 73.0536ZM17.1513 63.1065C17.1814 64.6692 17.3848 65.8922 17.5671 66.9326C17.6198 67.245 17.6707 67.5463 17.7153 67.8428C17.7338 67.9657 17.7541 68.0883 17.7754 68.2115C17.7734 67.493 17.7723 66.8145 17.772 66.287C17.7704 64.6836 17.8071 63.7427 17.8399 62.9481C17.8493 62.7152 17.8582 62.4905 17.8658 62.2605C17.8414 62.0707 17.817 61.873 17.7951 61.6725C17.7642 61.3924 17.7338 61.0843 17.7076 60.8053C17.6812 60.5217 17.657 60.2321 17.6357 59.9465C17.6143 59.6584 17.5955 59.3718 17.5786 59.0852C17.5625 58.8155 17.5482 58.5456 17.5343 58.2835C17.5335 58.2685 17.5327 58.2535 17.5319 58.2385C17.5171 57.9599 17.503 57.7035 17.4857 57.4598C17.468 57.2132 17.4487 57.0075 17.422 56.8247C17.3888 56.5965 17.3565 56.3616 17.3262 56.1285C17.2959 55.8952 17.2674 55.662 17.2403 55.4288C17.2133 55.1959 17.1876 54.9602 17.1633 54.736C17.1554 54.6626 17.1473 54.5858 17.1397 54.5129C17.1362 54.4793 17.1326 54.4457 17.1292 54.4121C17.1357 54.854 17.1416 55.3288 17.1459 55.8153C17.152 56.5178 17.1458 57.2616 17.1387 58.0721C17.1272 59.4992 17.1127 61.0983 17.1513 63.1065ZM16.934 47.5924C16.9397 47.7868 16.9506 48.0711 16.9646 48.4359C16.9679 48.5237 16.9716 48.6175 16.9753 48.715C16.9754 48.7127 16.9754 48.7103 16.9755 48.708C16.9863 48.4633 16.9956 48.2468 17.0035 48.0099C17.0175 47.5881 17.0283 47.1764 17.0362 46.7587C17.0441 46.3395 17.0488 45.9194 17.0506 45.497C17.0523 45.0696 17.0512 44.6587 17.0468 44.244C17.0424 43.8262 17.0351 43.4125 17.0235 42.9932C17.0199 42.8596 17.0157 42.7254 17.0112 42.5911C17.0022 42.8914 16.9961 43.2022 16.9896 43.5293C16.9844 43.7905 16.979 44.0624 16.9715 44.3473C16.9687 44.4563 16.9636 44.5882 16.9576 44.7418C16.9337 45.3489 16.8968 46.3361 16.934 47.5924ZM16.5682 39.3422C16.5531 39.2454 16.5385 39.1493 16.5247 39.0546C16.4853 38.7849 16.4504 38.5238 16.4172 38.2697C16.3937 38.0896 16.3721 37.9209 16.3487 37.739C16.339 37.6636 16.3292 37.5886 16.3196 37.5144C16.3034 37.3901 16.287 37.2673 16.2707 37.1458C16.3554 38.0183 16.4328 38.8176 16.5272 39.7066C16.5284 39.7182 16.5299 39.7301 16.5311 39.7416C16.5437 39.6051 16.5561 39.4718 16.5682 39.3422Z" fill="#1E1E1E"/>
<path d="M10.8206 86.3099C10.7711 85.9173 10.7673 85.5337 10.7638 85.0594C10.7637 85.0592 10.7637 85.0589 10.7637 85.0587C10.7633 84.9917 10.7629 84.9226 10.7623 84.8511C10.758 84.28 10.7398 83.5038 10.6468 82.3893C10.5402 81.127 10.5942 80.143 10.6843 79.5074C10.7011 79.389 10.704 79.2723 10.6834 78.9801C10.6699 78.7882 10.647 78.529 10.6135 78.1515C10.5956 77.9507 10.5747 77.7163 10.5505 77.4402C10.4731 76.5462 10.2844 75.1262 10.1112 73.8348C10.0772 73.581 10.0436 73.3302 10.0113 73.0874L10.0367 73.2349C9.92254 72.728 9.8217 72.2828 9.73932 71.9024C9.56225 71.0852 9.41378 70.3043 9.24371 69.4462C9.09067 68.6726 8.91669 67.8219 8.69035 66.8663C8.51327 66.1204 8.4484 65.3846 8.38423 64.6225C8.37599 64.5253 8.36788 64.4283 8.35987 64.3317C8.304 63.6638 8.23875 62.9725 8.09863 62.2558C7.84407 60.9669 7.46688 59.9964 7.02246 58.9412C6.84598 58.523 6.66284 58.1044 6.46314 57.6399C6.14996 56.9121 5.7145 55.8649 5.2006 54.8676C5.15827 54.7853 5.11132 54.696 5.06733 54.6134C5.0671 54.613 5.06687 54.6126 5.06665 54.6121C4.72092 53.9607 4.33672 53.3404 3.97434 52.8634L4.00856 52.9064C3.85584 52.728 3.70755 52.5649 3.56807 52.418C2.74952 51.5709 2.36554 51.2744 2.07127 51.0278C1.95837 50.9347 1.85441 50.849 1.73328 50.7404C1.30055 50.3535 0.699908 49.7118 0.103543 49.0501C0.101288 49.0476 0.0990306 49.0452 0.0967721 49.0427C-0.000481206 48.9349 0.0216447 48.7497 0.14983 48.6338C0.277943 48.5178 0.46306 48.5143 0.559529 48.6212C0.873665 48.9695 1.18152 49.305 1.46499 49.6003C1.58822 49.5145 1.74346 49.515 1.83452 49.6122C2.05621 49.8556 2.84584 50.492 4.06874 51.5018C4.01421 51.4044 3.97063 51.3205 3.93401 51.246C3.89018 51.1577 3.85947 51.0895 3.83201 51.0299C3.77575 50.9068 3.73706 50.8243 3.64768 50.7013C3.4211 50.4332 3.04094 50.0397 2.64486 49.6218C2.54618 49.5176 2.56517 49.3338 2.69098 49.2155C2.81553 49.0957 2.99879 49.0859 3.09687 49.1892C3.09885 49.1913 3.10084 49.1934 3.10283 49.1954C3.49242 49.6065 3.88353 50.011 4.12162 50.2934C4.18204 50.3651 4.23232 50.4283 4.26984 50.4774C4.29982 50.5166 4.33569 50.5651 4.35235 50.5969C4.35451 50.6011 4.35853 50.6092 4.36264 50.6195C4.36269 50.6197 4.36273 50.6199 4.36278 50.6201C4.3651 50.6258 4.377 50.655 4.38015 50.6949C4.38081 50.703 4.38183 50.7206 4.37964 50.745C4.38148 50.749 4.38331 50.753 4.38513 50.7569C4.41076 50.8122 4.43598 50.8678 4.46576 50.9276C4.56647 51.1346 4.74118 51.4319 5.09555 51.9846L5.11541 52.0096C5.1547 52.0808 5.19693 52.1574 5.24242 52.2406C5.6152 52.9158 6.23505 54.0141 6.88723 55.4455C6.85375 55.3417 6.81994 55.2394 6.78584 55.1392C6.69945 54.8858 6.60761 54.6357 6.50504 54.3777C6.46609 54.2797 6.43088 54.1908 6.38837 54.0898C6.32182 53.9309 6.25779 53.7813 6.18573 53.6224C6.13804 53.5169 6.09184 53.4163 6.04046 53.309C6.04033 53.3088 6.04019 53.3085 6.04006 53.3083C5.97093 53.1631 5.90034 53.0194 5.82583 52.8734C5.80004 52.8221 5.77618 52.7749 5.74907 52.7233C5.64394 52.5229 5.53835 52.3304 5.421 52.1015C5.40768 52.0722 5.39427 52.0399 5.38482 52.0154C5.37454 51.9892 5.36498 51.964 5.35634 51.9398C5.34873 51.9186 5.34179 51.8981 5.33499 51.8787C5.33407 51.8761 5.33315 51.8735 5.33223 51.8709C5.33001 51.8646 5.3278 51.8584 5.32561 51.8523L5.29579 51.8148C5.28948 51.8002 5.28329 51.7861 5.27722 51.7724C5.26867 51.7531 5.26042 51.7346 5.25177 51.7168C5.25165 51.7167 5.25154 51.7165 5.25142 51.7164C5.24229 51.6979 5.23541 51.684 5.22482 51.6649C5.21156 51.6411 5.19977 51.621 5.18475 51.5973C5.17024 51.5744 5.15462 51.551 5.13834 51.5276C5.12209 51.5043 5.10516 51.4809 5.08772 51.4574C5.07028 51.4339 5.0523 51.4102 5.03396 51.3865C5.01563 51.3629 4.99676 51.3392 4.97781 51.3155C4.95886 51.2917 4.93963 51.2678 4.92019 51.2438C4.8755 51.1886 4.85517 51.1154 4.86445 51.0388C4.87389 50.9624 4.91177 50.8889 4.97093 50.8342C5.0301 50.7795 5.10634 50.7477 5.1836 50.7457C5.26099 50.7438 5.33305 50.7724 5.38438 50.8243C5.39835 50.8385 5.41245 50.8527 5.42649 50.8671C5.43483 50.8756 5.44315 50.8843 5.45151 50.8929C5.47399 50.916 5.49683 50.9395 5.51944 50.9634C5.54204 50.9873 5.56459 51.0118 5.58717 51.0367C5.60983 51.0618 5.63258 51.0874 5.65519 51.1139C5.67768 51.1403 5.70021 51.1677 5.7225 51.1963C5.74434 51.2241 5.76823 51.2565 5.78875 51.2863C5.80352 51.3075 5.82073 51.3345 5.83501 51.3576L5.89165 51.4287C5.89192 51.4292 5.89219 51.4297 5.89245 51.4302C5.90617 51.4557 5.91921 51.4812 5.93148 51.5062C5.94378 51.5313 5.95528 51.556 5.96632 51.5796C5.96752 51.5821 5.96872 51.5846 5.96992 51.5871C5.97967 51.608 5.98905 51.6283 5.99811 51.6474C6.00824 51.6688 6.01815 51.6888 6.02785 51.7078C6.03856 51.7288 6.04537 51.7408 6.05359 51.7551C6.17274 51.9408 6.32779 52.168 6.46793 52.3862C6.48523 52.4131 6.50239 52.4401 6.51941 52.4669C6.61151 52.6115 6.69837 52.7518 6.78542 52.8967C6.85042 53.0051 6.90837 53.1035 6.96965 53.2103C7.06125 53.37 7.1429 53.5173 7.22901 53.6779C7.28204 53.777 7.3296 53.8677 7.38018 53.9662C7.51187 54.2227 7.63702 54.4808 7.7523 54.7343C7.87132 54.9959 7.97967 55.2508 8.0852 55.5191C8.186 55.7765 8.28689 56.0571 8.36928 56.3239C8.43241 56.527 8.4776 56.7276 8.51842 56.9235C8.5401 57.0283 8.56113 57.1332 8.579 57.2309C8.57903 57.2312 8.57905 57.2316 8.57908 57.2319C8.59529 57.319 8.61129 57.4058 8.62786 57.4925C8.66414 57.6808 8.6989 57.8579 8.73806 58.0363C8.77722 58.2147 8.821 58.3952 8.86571 58.5671C8.9106 58.7389 8.96311 58.9222 9.01454 59.0919C9.06636 59.2629 9.12119 59.4324 9.18207 59.6129C9.26079 59.8454 9.34103 60.0707 9.42631 60.3123C9.50894 60.5453 9.59181 60.7775 9.67663 61.0195C9.70678 61.1057 9.73396 61.1836 9.7629 61.2667C9.763 61.267 9.7631 61.2674 9.7632 61.2677C9.81624 61.4198 9.86961 61.5745 9.92297 61.7316C10.0049 61.9728 10.0825 62.2047 10.1616 62.4504C10.2416 62.6992 10.3137 62.9299 10.3872 63.1798C10.461 63.4317 10.529 63.6767 10.5904 63.9353C10.6455 64.1659 10.6977 64.4004 10.7463 64.6235C10.7593 64.683 10.7723 64.7427 10.7853 64.8027C10.8478 65.0889 10.9092 65.364 10.977 65.6305C11.0448 65.8977 11.1232 66.1743 11.204 66.435C11.2854 66.6981 11.3764 66.9752 11.4686 67.243C11.5608 67.5104 11.6561 67.7778 11.7557 68.0548C11.8536 68.3254 11.9518 68.5906 12.0542 68.8685C12.111 69.0223 12.1691 69.1897 12.2202 69.3402C12.2723 69.4943 12.3225 69.6492 12.3715 69.8036C12.3913 69.8663 12.4109 69.9289 12.4305 69.9913C12.4589 70.082 12.4873 70.1736 12.5152 70.2617C12.5616 70.4072 12.608 70.55 12.6558 70.6892C12.7036 70.8283 12.753 70.9636 12.8054 71.0942C12.8594 71.2287 12.9094 71.3435 12.9719 71.469C13.1088 71.7841 13.1742 71.9874 13.2471 72.2145C13.2615 72.2592 13.2763 72.305 13.2919 72.3528C13.3085 72.4059 13.3249 72.4591 13.341 72.5124L13.3669 72.6626C13.4138 72.8873 13.4566 73.111 13.496 73.3319C13.5452 73.6084 13.5891 73.8799 13.6293 74.1541C13.6692 74.4271 13.7041 74.6933 13.737 74.9736C13.7696 75.2507 13.7981 75.5265 13.8229 75.8021C13.8476 76.0775 13.8688 76.3576 13.8854 76.6257C13.895 76.7803 13.9027 76.9455 13.9091 77.1029C13.9136 77.2157 13.9174 77.3268 13.921 77.4354C13.9225 77.4798 13.924 77.5238 13.9255 77.5674C13.9307 77.7177 13.9363 77.8634 13.9442 78.0033C13.952 78.1433 13.9621 78.2781 13.9759 78.4092C13.9898 78.5405 14.0075 78.668 14.0294 78.7949C14.0522 78.925 14.075 79.0378 14.1088 79.1791C14.1309 79.2712 14.1529 79.3613 14.1748 79.4509C14.2076 79.5851 14.2405 79.7179 14.2742 79.8512C14.3078 79.9843 14.3415 80.1153 14.376 80.2466C14.3871 80.2887 14.3988 80.3333 14.4101 80.3755C14.4449 80.5059 14.4801 80.6344 14.5163 80.7623C14.5522 80.8881 14.5898 81.0204 14.6282 81.1484C14.6668 81.2775 14.706 81.4039 14.7474 81.5323C14.8179 81.7504 14.8641 81.9607 14.9002 82.1446C14.9365 82.3307 14.9653 82.5045 14.9931 82.6731C14.9983 82.7046 15.0035 82.7362 15.0087 82.7677C15.0314 82.907 15.0535 83.0445 15.0763 83.179C15.1044 83.3448 15.1336 83.5067 15.1645 83.6683C15.1951 83.8285 15.2276 83.9894 15.262 84.147C15.2968 84.306 15.3318 84.4573 15.3719 84.6194C15.4119 84.7841 15.4583 84.9512 15.5088 85.1328C15.5589 85.3129 15.6107 85.5011 15.659 85.6911C15.7075 85.8809 15.7527 86.0732 15.7931 86.2637C15.8331 86.451 15.8709 86.6548 15.9034 86.8472C15.9362 87.0422 15.965 87.2354 15.9906 87.427C16.0162 87.6181 16.0395 87.8147 16.0585 87.9981C16.0892 88.2933 16.1198 88.6049 16.1481 88.9042C16.1765 89.2038 16.2036 89.5017 16.2299 89.7962C16.2567 90.0958 16.2838 90.4014 16.3095 90.6993C16.3354 90.9992 16.36 91.2907 16.3854 91.5896C16.3911 91.6567 16.3968 91.7237 16.4025 91.7906C16.4225 92.0259 16.4422 92.2592 16.4618 92.4896C16.4618 92.4912 16.4619 92.4928 16.462 92.4944C16.4875 92.7924 16.511 93.073 16.5388 93.3774C16.5488 93.4871 16.5585 93.5921 16.5687 93.6983C16.5789 93.8046 16.5893 93.9085 16.6002 94.0128C16.6111 94.1172 16.6225 94.2205 16.6344 94.3217C16.6465 94.4242 16.6588 94.5225 16.6727 94.6235C16.6856 94.7187 16.6999 94.8127 16.7152 94.9149C16.7166 94.9242 16.718 94.9336 16.7194 94.9429C16.7362 95.0547 16.7533 95.1814 16.7654 95.299C16.7972 95.6128 16.8287 95.9022 16.8657 96.2167C16.9025 96.5305 16.9412 96.8387 16.9805 97.1446C16.996 97.2649 17.0112 97.3804 17.0273 97.5044C17.0522 97.6978 17.0771 97.8899 17.1011 98.0806C17.1412 98.3982 17.1765 98.6912 17.2127 99.0221C17.2476 99.3427 17.2784 99.6596 17.3041 99.9693C17.3309 100.288 17.3547 100.616 17.3727 100.927C17.3917 101.265 17.4125 101.638 17.4292 101.984C17.4453 102.324 17.4632 102.691 17.4781 103.038C17.4923 103.38 17.5085 103.745 17.5219 104.092C17.5342 104.43 17.5498 104.803 17.5613 105.145C17.5676 105.346 17.5761 105.568 17.583 105.779C17.6099 105.888 17.6359 105.991 17.6604 106.089C17.8453 106.841 17.9757 107.36 18.1051 108.083C18.1201 108.151 18.1368 108.204 18.1569 108.268C18.1607 108.28 18.1646 108.293 18.1687 108.306C18.1949 108.391 18.2247 108.503 18.251 108.642C18.3016 108.903 18.3468 109.364 18.2611 109.937C18.24 110.088 18.0823 110.181 17.9116 110.172C17.7919 110.165 17.6972 110.107 17.658 110.015C17.6555 110.181 17.6536 110.362 17.6502 110.529C17.6506 110.613 17.6146 110.642 17.5607 110.72C17.5044 110.777 17.4264 110.794 17.3462 110.8C17.2658 110.805 17.1893 110.798 17.1279 110.74C17.0674 110.689 17.0329 110.644 17.0253 110.56C17.0182 110.475 17.0112 110.392 17.0017 110.288C16.9949 110.207 16.9872 110.12 16.9782 110.024C16.9612 109.841 16.9443 109.669 16.9252 109.484C16.9084 109.321 16.8861 109.116 16.8673 108.949C16.8484 108.781 16.8258 108.584 16.8051 108.41C16.7845 108.238 16.7627 108.06 16.7394 107.871C16.7261 107.764 16.7134 107.662 16.6998 107.555C16.6949 107.516 16.6897 107.477 16.6847 107.438C16.6807 107.405 16.6766 107.373 16.6724 107.339C16.6267 106.98 16.5835 106.652 16.5363 106.294C16.4924 105.965 16.4419 105.582 16.3972 105.256C16.351 104.916 16.3011 104.55 16.2546 104.216C16.2069 103.872 16.1573 103.513 16.1094 103.176C16.0608 102.832 16.0101 102.472 15.9611 102.136C15.9228 101.872 15.8824 101.596 15.8427 101.331C15.815 101.23 15.7881 101.13 15.7619 101.03C15.6858 100.74 15.5946 100.437 15.5057 100.15C15.5941 100.678 15.6851 101.094 15.771 101.483C15.7828 101.538 15.7945 101.592 15.8061 101.645C15.9236 102.189 16.0295 102.707 16.0985 103.411C16.2956 105.421 16.4038 106.6 16.4432 107.324C16.4826 108.05 16.4575 108.37 16.3719 108.678C16.2494 109.099 16.2417 109.915 16.2801 110.31C16.2941 110.454 16.1668 110.593 15.9944 110.606C15.823 110.628 15.6713 110.517 15.6574 110.374C15.6166 109.954 15.6209 109.092 15.7641 108.569C15.8302 108.356 15.8582 108.083 15.8193 107.369C15.7807 106.657 15.6733 105.489 15.476 103.476C15.4095 102.799 15.3079 102.298 15.1919 101.763C15.1805 101.71 15.1688 101.656 15.157 101.602C15.157 101.602 15.157 101.601 15.1569 101.601C15.0514 101.124 14.9323 100.569 14.8265 99.8638C14.5788 98.2017 14.2063 95.9559 14.0831 95.4369C14.0587 95.333 14.0332 95.2322 14.0063 95.1255C13.9033 94.717 13.7811 94.2416 13.6051 93.1267C13.5671 92.8869 13.5278 92.6031 13.488 92.289C13.3474 91.8189 13.2178 91.3915 13.1242 90.999C13.044 90.665 12.9315 90.3443 12.8161 90.0588C12.7826 89.9751 12.7481 89.8907 12.7136 89.8062C12.6304 89.6025 12.547 89.3972 12.4773 89.1945C12.4216 89.0329 12.3578 88.8635 12.2901 88.6834C12.0466 88.0526 11.7495 87.2542 11.6228 86.2329C11.4855 85.1241 11.408 84.1937 11.3417 83.364C11.3755 83.9733 11.3832 84.4382 11.3864 84.8234C11.3871 84.896 11.3875 84.9655 11.3879 85.0323C11.392 85.5131 11.3952 85.8658 11.4413 86.2312C11.6621 87.986 11.7923 88.6267 12.0352 89.3632C12.0989 89.5547 12.1781 89.7636 12.2631 89.9869C12.4319 90.4233 12.6297 90.9642 12.7717 91.5172C12.903 92.024 13.0803 92.6358 13.2626 93.2399C13.2626 93.2402 13.2627 93.2404 13.2627 93.2407C13.2985 93.3599 13.3343 93.4783 13.3713 93.6055C13.5951 94.3687 13.8212 95.1484 13.9971 95.928C14.0158 96.0103 14.0398 96.1084 14.0673 96.2203C14.228 96.8841 14.5085 98.0374 14.5807 99.4763C14.5972 99.7983 14.5902 100.116 14.5842 100.499C14.5825 100.616 14.5805 100.737 14.5789 100.863C14.5714 101.395 14.5745 102.058 14.6279 102.916C14.6734 103.637 14.7511 104.48 14.8353 105.396C14.8743 105.825 14.9167 106.289 14.9543 106.733C15.0686 108.083 15.1472 109.309 15.2228 110.541C15.2228 110.541 15.2228 110.541 15.2229 110.542C15.2325 110.694 15.0984 110.81 14.9268 110.83C14.7535 110.833 14.6088 110.745 14.5986 110.588C14.5237 109.362 14.4451 108.136 14.3313 106.792C14.2944 106.355 14.2522 105.894 14.2135 105.467C14.129 104.547 14.0502 103.693 14.0041 102.965C13.9499 102.094 13.947 101.42 13.9544 100.879C13.956 100.746 13.9579 100.62 13.9596 100.5C13.9662 100.128 13.9725 99.8249 13.9569 99.5203C13.887 98.1274 13.6178 97.0207 13.4564 96.3514C13.4282 96.2366 13.4035 96.1351 13.3838 96.0482C13.2117 95.2867 12.9888 94.5151 12.7655 93.756C12.7293 93.6323 12.693 93.5086 12.6577 93.3918C12.6575 93.3916 12.6574 93.3913 12.6573 93.3911C12.4752 92.788 12.2952 92.1692 12.1611 91.6493C12.0242 91.1159 11.846 90.6351 11.6816 90.2051C11.5934 89.9747 11.5085 89.7511 11.434 89.5275C11.1767 88.7487 11.0421 88.0695 10.8206 86.3099ZM17.6598 109.748C17.6987 109.375 17.6862 109.106 17.6573 108.888C17.6585 109.064 17.6614 109.265 17.6598 109.431C17.66 109.536 17.6609 109.649 17.6598 109.748ZM14.1038 92.1722C14.1207 92.228 14.1377 92.2841 14.1548 92.3402C14.1311 92.1824 14.1077 92.0236 14.0841 91.8642C14.0553 91.6692 14.0279 91.4838 13.9997 91.2918C14.0339 91.5957 14.0683 91.8901 14.1038 92.1722ZM12.2439 86.155C12.3629 87.1147 12.6362 87.8557 12.8772 88.4791C12.947 88.6622 13.0155 88.8468 13.0769 89.0251C13.1024 89.0993 13.1296 89.1731 13.158 89.2472C13.1142 88.8003 13.0746 88.3855 13.0436 88.0568C12.9493 87.061 12.9324 86.4793 12.9192 85.9813C12.9151 85.8358 12.9111 85.6955 12.9054 85.552C12.8703 85.4369 12.8347 85.317 12.8014 85.195C12.7544 85.0231 12.7073 84.8414 12.6651 84.6696C12.6227 84.4966 12.5819 84.3197 12.5445 84.1448C12.5067 83.9685 12.4717 83.7928 12.4384 83.6169C12.4071 83.4514 12.3774 83.2856 12.3486 83.1245C12.3469 83.1153 12.3452 83.1059 12.3436 83.097C12.3137 82.9317 12.2847 82.7702 12.2537 82.6219C12.222 82.4709 12.1911 82.3454 12.1542 82.235C12.1081 82.0971 12.0626 81.955 12.0193 81.8137C11.9759 81.6723 11.9342 81.5309 11.8941 81.3892C11.8537 81.246 11.8156 81.109 11.7785 80.971C11.7665 80.9264 11.7541 80.8796 11.7424 80.8352C11.737 80.8147 11.7315 80.7943 11.7262 80.7739C11.758 81.0489 11.7901 81.3363 11.8222 81.6393C11.8683 82.0744 11.9046 82.5364 11.9437 83.0399C12.0133 83.9217 12.09 84.9131 12.2439 86.155ZM11.1471 76.5714C11.1638 76.6914 11.1906 76.8666 11.2251 77.0913C11.2333 77.1448 11.2419 77.1992 11.2511 77.2601C11.2511 77.2586 11.2509 77.2572 11.2509 77.2557C11.2482 77.106 11.2453 76.9707 11.2398 76.8227C11.2299 76.5595 11.2175 76.3029 11.2018 76.043C11.186 75.782 11.1671 75.5209 11.1451 75.2586C11.123 74.9951 11.0991 74.7423 11.0714 74.4849C11.0436 74.2262 11.0131 73.9704 10.9782 73.7115C10.967 73.6291 10.9555 73.5463 10.9435 73.4635C10.9512 73.6508 10.9626 73.8443 10.9745 74.0479C10.984 74.2106 10.9938 74.3798 11.0024 74.5574C11.0057 74.6254 11.008 74.7078 11.0107 74.8037C11.0202 75.1763 11.0396 75.7973 11.1471 76.5714ZM10.3807 71.5341C10.3633 71.476 10.3464 71.4183 10.3303 71.3614C10.2844 71.1992 10.2432 71.0418 10.204 70.8884C10.1768 70.7825 10.1489 70.6701 10.1219 70.5628C10.1104 70.5173 10.0989 70.472 10.0876 70.4272C10.0686 70.3522 10.0494 70.2781 10.0304 70.2049C10.1346 70.7331 10.2339 71.2306 10.3502 71.7674C10.3517 71.7745 10.3535 71.7815 10.355 71.7887C10.3637 71.7016 10.3723 71.6167 10.3807 71.5341Z" fill="#1E1E1E"/>
<path d="M4.97812 92.8004C4.95101 92.5923 4.9687 92.3859 4.99191 92.1319C4.99189 92.1317 4.99187 92.1316 4.99186 92.1315C4.99522 92.0955 4.99879 92.0584 5.00221 92.02C5.03001 91.7131 5.05581 91.2976 5.02657 90.7035C4.99225 90.0308 5.10226 89.4992 5.22801 89.152C5.25144 89.0871 5.26102 89.0249 5.25731 88.8688C5.25488 88.7663 5.24699 88.6282 5.23541 88.4271C5.22925 88.3201 5.22192 88.1952 5.21382 88.0481C5.18845 87.5722 5.08314 86.8194 4.98635 86.1346C4.96809 86.0053 4.95004 85.8775 4.93277 85.7534L4.95868 85.903C4.89514 85.6303 4.83975 85.3916 4.7965 85.1863C4.70575 84.7557 4.64126 84.3413 4.56649 83.8856C4.49984 83.4763 4.42241 83.023 4.31148 82.5201C4.22412 82.126 4.24767 81.7253 4.27749 81.3061C4.28129 81.2528 4.28525 81.1996 4.2893 81.1466C4.31654 80.7786 4.3404 80.3988 4.29893 80.011C4.22277 79.3149 3.99801 78.8133 3.73584 78.271C3.63231 78.0572 3.52484 77.8434 3.41315 77.6043C3.23839 77.2308 3.01183 76.6885 2.74933 76.1802C2.72704 76.1369 2.70364 76.0927 2.68123 76.0507C2.68111 76.0504 2.68099 76.0502 2.68088 76.05C2.50689 75.7228 2.3168 75.4172 2.1385 75.1877L2.1732 75.2307C2.09221 75.1382 2.01283 75.0537 1.93709 74.9779C1.50594 74.5533 1.2787 74.4076 1.10775 74.2921C1.04205 74.2481 0.980982 74.2072 0.912059 74.1534C0.665066 73.9611 0.342362 73.6158 0.02279 73.2607C0.0215715 73.2594 0.0203512 73.2581 0.0191313 73.2568C-0.0330179 73.1989 0.0262375 73.055 0.153388 72.938C0.280505 72.8209 0.426857 72.7742 0.478229 72.8313C0.64551 73.0171 0.809802 73.1964 0.962908 73.3518C1.0783 73.2576 1.19902 73.2211 1.24725 73.2727C1.36542 73.4025 1.82394 73.7008 2.5389 74.1726C2.51872 74.1124 2.50406 74.0593 2.49255 74.0115C2.47895 73.9553 2.47029 73.9104 2.46295 73.872C2.4474 73.7917 2.43637 73.7381 2.39573 73.6659C2.28247 73.516 2.08114 73.307 1.87183 73.0856C1.8198 73.0305 1.87677 72.887 2.00123 72.7672C2.12508 72.6467 2.26868 72.5949 2.32007 72.6492C2.32112 72.6502 2.32218 72.6513 2.32323 72.6524C2.52782 72.8688 2.73444 73.083 2.85408 73.2418C2.8841 73.2818 2.90922 73.3186 2.92683 73.3469C2.9412 73.3698 2.95822 73.3984 2.9638 73.4186C2.96455 73.4213 2.96585 73.4265 2.96674 73.4334C2.96674 73.4335 2.96673 73.4336 2.96672 73.4338C2.96724 73.4376 2.96995 73.4571 2.96345 73.4868C2.96214 73.4928 2.95907 73.506 2.95175 73.5251C2.95226 73.5276 2.95276 73.5302 2.95331 73.5328C2.9609 73.5689 2.96806 73.6053 2.97792 73.6437C3.01117 73.7788 3.08126 73.9693 3.25116 74.3043L3.27114 74.329C3.28739 74.367 3.30485 74.4073 3.32362 74.4503C3.49755 74.8447 3.81958 75.4459 4.17297 76.2112C4.16021 76.1532 4.14708 76.0961 4.13354 76.0401C4.09856 75.8972 4.05959 75.7569 4.01434 75.6129C3.99737 75.5585 3.98121 75.5069 3.96206 75.4509C3.93215 75.3623 3.90224 75.2765 3.86876 75.1876C3.84677 75.1286 3.82429 75.0703 3.80008 75.0101C3.80001 75.01 3.79993 75.0098 3.79986 75.0097C3.76736 74.928 3.73273 74.845 3.69708 74.7622C3.68494 74.7332 3.67305 74.7053 3.65981 74.6758C3.60889 74.5614 3.55684 74.4505 3.50344 74.313C3.49815 74.2952 3.49343 74.2751 3.49045 74.2598C3.48713 74.2434 3.48424 74.2274 3.4819 74.212C3.47987 74.1987 3.47823 74.1857 3.47651 74.1733L3.44661 74.1363C3.44658 74.1362 3.44655 74.136 3.44652 74.1359C3.44619 74.1342 3.44586 74.1326 3.44552 74.131C3.44279 74.1172 3.43999 74.1043 3.43722 74.0919C3.43445 74.0796 3.43177 74.0677 3.42861 74.0564C3.42855 74.0564 3.42848 74.0563 3.42842 74.0562C3.42506 74.0446 3.42238 74.0356 3.41798 74.0239C3.41242 74.0092 3.40725 73.9969 3.40028 73.9826C3.39357 73.9688 3.38599 73.9548 3.378 73.941C3.37 73.9273 3.36149 73.9136 3.35261 73.9C3.34372 73.8863 3.33451 73.8726 3.32499 73.859C3.31548 73.8455 3.30562 73.832 3.29571 73.8184C3.28578 73.8049 3.27572 73.7912 3.26552 73.7776C3.2422 73.7463 3.24202 73.6954 3.26626 73.6353C3.29045 73.5751 3.3364 73.5104 3.39503 73.4551C3.45367 73.3999 3.52083 73.3581 3.58257 73.339C3.64421 73.3199 3.69567 73.3256 3.72557 73.3536C3.73374 73.3613 3.74202 73.3689 3.75023 73.3767C3.75511 73.3813 3.75994 73.3861 3.76483 73.3908C3.77796 73.4033 3.79136 73.4161 3.80452 73.4292C3.81768 73.4424 3.83073 73.4559 3.84375 73.4699C3.85681 73.4838 3.86986 73.4982 3.88265 73.5133C3.89542 73.5284 3.90798 73.5441 3.92018 73.5607C3.93211 73.5769 3.945 73.5962 3.95553 73.6141C3.96334 73.6271 3.972 73.644 3.97899 73.6584C3.98133 73.6632 3.98362 73.6681 3.98584 73.6729L4.0431 73.7438C4.04742 73.7546 4.05148 73.7655 4.05529 73.7762C4.06092 73.792 4.06598 73.8076 4.07084 73.8225C4.07138 73.8241 4.07192 73.8257 4.07246 73.8273C4.07676 73.8405 4.08085 73.8533 4.08492 73.8653C4.08946 73.8787 4.09407 73.8912 4.09873 73.9029C4.1038 73.9158 4.10747 73.9233 4.11209 73.9323C4.17859 74.0418 4.26964 74.1714 4.35206 74.2962C4.36214 74.3114 4.3721 74.3266 4.382 74.3418C4.43537 74.4231 4.48698 74.5036 4.53723 74.5844C4.57468 74.6446 4.60931 74.7014 4.64441 74.7606C4.69702 74.8493 4.74491 74.9331 4.79381 75.022C4.82483 75.0785 4.85146 75.1282 4.88017 75.183C4.95575 75.3275 5.02451 75.4681 5.08856 75.6107C5.1536 75.7555 5.2117 75.8975 5.26643 76.0479C5.31777 76.1906 5.36767 76.3487 5.40259 76.4981C5.42951 76.6116 5.44153 76.7282 5.44966 76.8399C5.45379 76.8994 5.45827 76.9611 5.46013 77.0167C5.4601 77.0169 5.46007 77.0171 5.46004 77.0173C5.46212 77.0672 5.46412 77.1169 5.46675 77.1663C5.47256 77.2731 5.47977 77.3752 5.49046 77.4749C5.50115 77.5746 5.517 77.6767 5.53454 77.7711C5.5525 77.8662 5.57589 77.9652 5.60148 78.0591C5.62668 78.1519 5.65525 78.2433 5.68837 78.3401C5.73192 78.4663 5.77747 78.5851 5.82667 78.7138C5.87493 78.8394 5.92316 78.9614 5.97292 79.0901C5.99049 79.1356 6.00684 79.1782 6.02374 79.2219C6.02379 79.2221 6.02385 79.2223 6.0239 79.2224C6.05509 79.3031 6.08647 79.3851 6.11773 79.4685C6.16624 79.598 6.21142 79.7199 6.25711 79.8507C6.30336 79.9835 6.34467 80.1065 6.38518 80.2398C6.42573 80.3738 6.46242 80.5065 6.49096 80.6455C6.51669 80.7695 6.54012 80.8977 6.56106 81.0178C6.56672 81.05 6.57238 81.0823 6.57805 81.1147C6.6053 81.2689 6.63369 81.4185 6.6692 81.5606C6.70456 81.703 6.75003 81.8512 6.79953 81.9882C6.84946 82.1272 6.90732 82.2717 6.96823 82.4131C7.02885 82.5529 7.09282 82.6922 7.16035 82.8365C7.22722 82.9787 7.29474 83.1156 7.3657 83.2602C7.40488 83.3398 7.44447 83.4284 7.47872 83.5067C7.51368 83.5873 7.54682 83.6685 7.57882 83.7495C7.59182 83.7824 7.60454 83.8153 7.6173 83.8481C7.6359 83.8958 7.65424 83.9434 7.67275 83.9904C7.70342 84.0672 7.73433 84.1416 7.76714 84.2143C7.79992 84.2869 7.8347 84.3572 7.87289 84.4246C7.91236 84.4937 7.94996 84.5532 7.99879 84.6168C8.10168 84.7783 8.14582 84.8848 8.19516 85.0037C8.20488 85.0272 8.215 85.0511 8.22559 85.0762C8.23868 85.1089 8.25144 85.1417 8.26391 85.1748L8.29034 85.3273C8.32208 85.4406 8.35018 85.5535 8.37536 85.6653C8.40815 85.8114 8.43596 85.955 8.45994 86.1004C8.48379 86.245 8.50303 86.3869 8.51943 86.5352C8.53572 86.6826 8.54818 86.8295 8.55683 86.9765C8.5655 87.1234 8.57038 87.2731 8.57147 87.4165C8.57214 87.4993 8.57018 87.5872 8.56748 87.6718C8.56548 87.7323 8.56288 87.7918 8.56028 87.8501C8.55921 87.8739 8.55815 87.8976 8.55714 87.921C8.55367 88.0016 8.55087 88.0797 8.55066 88.1546C8.55043 88.2296 8.55269 88.3016 8.55894 88.3714C8.56519 88.4413 8.57546 88.5089 8.58998 88.576C8.60518 88.6449 8.62135 88.7036 8.6468 88.7779C8.66351 88.8263 8.68017 88.8735 8.69682 88.9205C8.72174 88.9909 8.74689 89.0605 8.7727 89.1303C8.79848 89.2001 8.82449 89.2687 8.85128 89.3374C8.85989 89.3595 8.86898 89.3827 8.87778 89.4048C8.90497 89.4731 8.93258 89.5402 8.96125 89.607C8.98977 89.6729 9.01952 89.7413 9.0504 89.8082C9.08142 89.8755 9.1132 89.9413 9.14704 90.008C9.20471 90.1215 9.2386 90.2321 9.26411 90.329C9.28961 90.4272 9.30837 90.5191 9.32646 90.6083C9.32985 90.625 9.33323 90.6416 9.33661 90.6583C9.35117 90.7314 9.36544 90.8046 9.38052 90.8756C9.3991 90.9632 9.41893 91.0488 9.44051 91.134C9.46186 91.2185 9.48515 91.3033 9.51044 91.3862C9.53601 91.4699 9.5623 91.5493 9.59304 91.6343C9.62348 91.72 9.66026 91.8078 9.70019 91.9026C9.73982 91.9968 9.78075 92.0951 9.81817 92.1947C9.85565 92.2942 9.88987 92.3952 9.91929 92.4954C9.94862 92.5942 9.97472 92.7011 9.99627 92.803C10.018 92.9062 10.0359 93.0086 10.0507 93.1102C10.0655 93.2117 10.0777 93.3162 10.0864 93.4139C10.1005 93.5704 10.1137 93.7368 10.1252 93.8963C10.1368 94.0559 10.1473 94.2147 10.1571 94.3718C10.1672 94.5309 10.1773 94.6943 10.1865 94.8531C10.1958 95.013 10.2043 95.1689 10.213 95.3277C10.215 95.3635 10.217 95.3992 10.219 95.4349C10.226 95.5604 10.2328 95.6849 10.2397 95.8078C10.2397 95.8086 10.2397 95.8095 10.2397 95.8103C10.2487 95.9694 10.2568 96.1185 10.2678 96.2809C10.2718 96.3394 10.2756 96.3954 10.28 96.452C10.2844 96.5086 10.2891 96.5639 10.2942 96.6194C10.2994 96.675 10.3052 96.7299 10.3115 96.7837C10.3179 96.8382 10.3248 96.8907 10.3331 96.9437C10.3408 96.9942 10.3499 97.044 10.3596 97.0982C10.3604 97.1031 10.3613 97.1081 10.3622 97.113C10.3728 97.1722 10.3831 97.2395 10.3887 97.3021C10.4034 97.4691 10.4191 97.6234 10.4388 97.79C10.4586 97.9568 10.4804 98.1205 10.5031 98.2829C10.512 98.3467 10.521 98.4084 10.5302 98.4737C10.5447 98.5763 10.5591 98.6783 10.5728 98.7796C10.5957 98.9484 10.6152 99.1038 10.6335 99.2798C10.6512 99.4503 10.6649 99.6191 10.6741 99.7843C10.6838 99.9537 10.6901 100.129 10.6916 100.295C10.6927 100.476 10.6937 100.675 10.6922 100.86C10.6903 101.043 10.6888 101.239 10.6856 101.425C10.6819 101.607 10.679 101.802 10.6743 101.989C10.669 102.17 10.6652 102.369 10.6589 102.553C10.6549 102.66 10.6518 102.779 10.6479 102.892C10.6691 102.949 10.6896 103.003 10.709 103.054C10.8543 103.449 10.9575 103.722 11.0497 104.103C11.0612 104.139 11.0751 104.167 11.0919 104.2C11.095 104.206 11.0983 104.213 11.1017 104.22C11.1234 104.264 11.1475 104.323 11.1667 104.396C11.2039 104.534 11.2257 104.78 11.1122 105.092C11.0838 105.175 10.9224 105.232 10.7531 105.236C10.6343 105.238 10.5429 105.211 10.5085 105.164C10.4978 105.254 10.487 105.351 10.4756 105.441C10.4719 105.486 10.4347 105.504 10.3773 105.549C10.3187 105.582 10.2403 105.596 10.1602 105.603C10.0799 105.609 10.004 105.609 9.94577 105.58C9.88801 105.555 9.85579 105.533 9.85235 105.488C9.84662 105.4 9.83967 105.3 9.83182 105.202C9.82399 105.105 9.81566 105.013 9.80589 104.915C9.79732 104.828 9.78541 104.719 9.77511 104.631C9.76471 104.542 9.75216 104.437 9.74032 104.345C9.72858 104.253 9.71581 104.159 9.70225 104.059C9.69448 104.002 9.68698 103.948 9.67894 103.891C9.67602 103.87 9.67289 103.849 9.66992 103.829C9.6675 103.812 9.66515 103.794 9.66265 103.777C9.63555 103.586 9.60932 103.412 9.58077 103.222C9.55398 103.048 9.52345 102.845 9.49587 102.672C9.46743 102.492 9.43686 102.298 9.40796 102.121C9.37843 101.939 9.34776 101.749 9.3178 101.57C9.28747 101.388 9.25591 101.198 9.22489 101.02C9.20068 100.88 9.17504 100.733 9.14958 100.594C9.12732 100.541 9.10595 100.488 9.08517 100.436C9.02481 100.285 8.95014 100.126 8.87707 99.9771C8.9369 100.255 9.00544 100.475 9.07026 100.679C9.0791 100.708 9.08792 100.736 9.09658 100.764C9.18477 101.05 9.26277 101.322 9.29469 101.697C9.38578 102.766 9.43331 103.393 9.43553 103.78C9.43779 104.168 9.3967 104.341 9.29603 104.51C9.15297 104.742 9.10452 105.18 9.12328 105.391C9.13012 105.467 8.99667 105.548 8.82456 105.563C8.65295 105.584 8.50749 105.531 8.50073 105.456C8.48083 105.233 8.52823 104.771 8.69712 104.483C8.77356 104.365 8.8151 104.218 8.81288 103.836C8.81081 103.456 8.76357 102.835 8.67242 101.765C8.64173 101.404 8.56703 101.141 8.47995 100.86C8.47138 100.832 8.46251 100.804 8.45371 100.775C8.45369 100.775 8.45367 100.775 8.45365 100.775C8.37399 100.525 8.28481 100.232 8.21721 99.8597C8.05926 98.9803 7.8103 97.7945 7.71603 97.5222C7.69742 97.4676 7.67752 97.4149 7.6566 97.359C7.57641 97.1458 7.48067 96.8962 7.36675 96.3074C7.34207 96.1806 7.31861 96.0302 7.29623 95.8637C7.18226 95.6186 7.07709 95.3966 7.00573 95.1907C6.94449 95.0157 6.85035 94.8491 6.7515 94.7028C6.72293 94.6596 6.69324 94.6162 6.66366 94.5727C6.5923 94.4678 6.52086 94.3621 6.46279 94.2571C6.4165 94.1733 6.36245 94.0858 6.30523 93.9928C6.09847 93.6681 5.84767 93.2548 5.77921 92.7137C5.70482 92.1253 5.68043 91.6301 5.66147 91.1876C5.66053 91.5133 5.642 91.7628 5.62358 91.9697C5.6201 92.0087 5.61666 92.046 5.61332 92.0819C5.59024 92.3395 5.57371 92.5293 5.59896 92.7231C5.72005 93.6533 5.81392 93.9901 6.01436 94.3724C6.06696 94.4718 6.13408 94.5796 6.2062 94.6949C6.34967 94.9197 6.51633 95.1994 6.62703 95.4887C6.72961 95.7539 6.87221 96.0723 7.02032 96.3871C7.02034 96.3872 7.02036 96.3873 7.02037 96.3875C7.0494 96.4497 7.07852 96.5108 7.10831 96.5773C7.2891 96.9752 7.47136 97.3812 7.60405 97.7907C7.61817 97.8339 7.63668 97.8853 7.65796 97.944C7.78178 98.2914 7.99838 98.8961 7.99351 99.6647C7.9928 99.8367 7.969 100.008 7.94271 100.213C7.93479 100.277 7.92631 100.342 7.91818 100.409C7.88256 100.696 7.85054 101.051 7.85866 101.508C7.8662 101.893 7.89948 102.341 7.9358 102.828C7.95233 103.056 7.9706 103.303 7.98519 103.539C8.02973 104.257 8.04582 104.911 8.06012 105.566C8.06013 105.566 8.06015 105.567 8.06016 105.567C8.06222 105.648 7.92313 105.717 7.75145 105.735C7.57896 105.745 7.43931 105.706 7.43692 105.622C7.42304 104.971 7.40706 104.317 7.36276 103.603C7.34847 103.371 7.33029 103.125 7.31386 102.899C7.27743 102.41 7.2437 101.956 7.23604 101.568C7.22786 101.103 7.26062 100.742 7.29662 100.451C7.30517 100.38 7.31375 100.312 7.3218 100.247C7.34817 100.048 7.3705 99.8843 7.37123 99.7217C7.37598 98.9779 7.16808 98.3978 7.04387 98.0475C7.02207 97.9874 7.003 97.9342 6.98807 97.8886C6.85819 97.4888 6.67866 97.0871 6.49828 96.6914C6.46896 96.6267 6.43978 96.5629 6.411 96.5019C6.41088 96.5018 6.41077 96.5017 6.41065 96.5016C6.26267 96.1877 6.11777 95.8648 6.01315 95.5935C5.90654 95.3146 5.75595 95.0658 5.61648 94.8445C5.54162 94.7256 5.46963 94.6102 5.4081 94.4942C5.19565 94.0901 5.09952 93.733 4.97812 92.8004ZM10.5235 105.02C10.5806 104.818 10.5817 104.674 10.5639 104.558C10.5562 104.653 10.5491 104.761 10.5392 104.85C10.5342 104.906 10.5294 104.967 10.5235 105.02ZM7.91445 95.7669C7.92816 95.7959 7.942 95.8252 7.9559 95.8544C7.94103 95.7709 7.92643 95.6868 7.91176 95.6024C7.89388 95.4997 7.87678 95.4012 7.85937 95.2996C7.8766 95.4613 7.89456 95.617 7.91445 95.7669ZM6.4004 92.6368C6.46485 93.1461 6.69499 93.5286 6.89977 93.8505C6.95889 93.9444 7.01666 94.0402 7.0678 94.1325C7.08903 94.171 7.11197 94.2092 7.13604 94.2474C7.11728 94.0094 7.10109 93.7892 7.08856 93.6141C7.05023 93.0838 7.06608 92.7726 7.08074 92.5053C7.0849 92.4273 7.08878 92.3521 7.09114 92.2752C7.06268 92.2153 7.03407 92.1528 7.00787 92.0891C6.97085 91.9991 6.93434 91.9047 6.90208 91.8146C6.86963 91.7239 6.83916 91.631 6.8118 91.5391C6.78421 91.4464 6.75932 91.3539 6.73622 91.2612C6.71443 91.1739 6.69432 91.0864 6.6748 91.0015C6.6737 90.9967 6.67261 90.992 6.67152 90.9873C6.65114 90.9001 6.63141 90.8149 6.60904 90.7368C6.58613 90.6574 6.56257 90.5917 6.53213 90.5344C6.4942 90.4629 6.45713 90.389 6.4221 90.3155C6.387 90.2419 6.35368 90.1682 6.32189 90.0943C6.28993 90.0194 6.25997 89.9486 6.23096 89.8763C6.22158 89.853 6.21188 89.8285 6.20279 89.8053C6.1986 89.7946 6.19434 89.7839 6.19021 89.7733C6.20617 89.9196 6.22159 90.0716 6.23632 90.233C6.25739 90.4643 6.26717 90.7108 6.27758 90.9793C6.29676 91.4491 6.31707 91.9777 6.4004 92.6368ZM5.85618 87.5464C5.8658 87.61 5.88236 87.7026 5.90362 87.8216C5.90865 87.8498 5.91411 87.8791 5.91969 87.9105C5.91975 87.9098 5.91965 87.909 5.91971 87.9082C5.92579 87.8285 5.93063 87.7554 5.93368 87.6762C5.939 87.5351 5.94149 87.3978 5.94092 87.2588C5.94032 87.1193 5.93664 86.9798 5.93002 86.84C5.92341 86.7001 5.91427 86.565 5.90174 86.4282C5.88908 86.2906 5.87372 86.1547 5.85407 86.0174C5.84782 85.9737 5.84112 85.9298 5.83403 85.8859C5.83087 85.9863 5.83088 86.0897 5.83088 86.1987C5.83087 86.2857 5.83079 86.3762 5.82904 86.4713C5.82837 86.5076 5.82589 86.5518 5.82296 86.6033C5.81087 86.8035 5.79402 87.1359 5.85618 87.5464ZM5.46012 84.9173C5.44896 84.8871 5.43825 84.857 5.42825 84.8273C5.39982 84.7427 5.37562 84.6601 5.35296 84.5796C5.33733 84.5242 5.32134 84.4641 5.30609 84.408C5.2996 84.3841 5.29303 84.3603 5.28658 84.3368C5.27578 84.2974 5.26476 84.2585 5.25379 84.2201C5.30056 84.5004 5.34711 84.7656 5.40687 85.049C5.40766 85.0528 5.40862 85.0565 5.40942 85.0602C5.42665 85.0114 5.44357 84.9637 5.46012 84.9173Z" fill="#1E1E1E"/>
</svg>
