<svg width="95" height="111" viewBox="0 0 95 111" fill="none" xmlns="http://www.w3.org/2000/svg">
<path d="M26.1756 39.5945C26.1768 39.5927 26.178 39.5909 26.1791 39.5891C26.3377 39.3346 26.5351 39.0543 26.7269 38.4861C26.7269 38.4858 26.727 38.4855 26.7271 38.4852C26.754 38.4037 26.7806 38.3162 26.806 38.2219C27.0116 37.4622 27.1545 36.2395 26.9287 34.0632C26.8485 33.2675 26.7715 32.4877 26.7215 31.7422C26.6225 30.2657 26.6269 29.0047 26.6952 28.1242C26.7142 27.877 26.7108 27.6261 26.6789 26.9893C26.6592 26.5726 26.6274 26.0068 26.6088 25.1853C26.5994 24.7488 26.5941 24.2379 26.6036 23.6409C26.6194 21.6648 26.8038 18.5348 27.3966 15.7218C27.4103 15.6543 27.4243 15.5868 27.4384 15.5193C27.7518 14.0581 27.9769 12.5993 27.9199 12.0937C27.9147 12.0151 27.904 11.9707 27.9109 11.9894C28.0018 12.3127 28.2353 12.6747 28.4798 12.8859C28.724 13.1031 28.9388 13.1962 29.0824 13.2479C29.3718 13.3424 29.4503 13.3203 29.489 13.3227C29.5527 13.3138 29.4361 13.3211 29.3878 13.3347C28.8379 13.4924 28.1945 13.8384 27.5372 14.3439C26.4751 15.1601 25.3753 16.357 24.2897 17.9159C23.4581 19.1144 22.5873 20.2832 21.7608 21.5229C21.6578 21.6767 21.5508 21.8421 21.4501 21.9981C21.0808 22.575 20.7151 23.1869 20.4301 23.7741C20.2484 24.1962 20.037 24.574 19.7355 24.9701C19.5809 25.1679 19.4083 25.3709 19.1408 25.5852C18.8816 25.7794 18.4548 26.0936 17.7487 26.0318C17.7402 26.0306 17.7316 26.0293 17.7231 26.0281C14.1108 24.9534 13.1584 22.8804 11.3575 21.2491C10.7075 20.5722 10.0477 19.8734 9.33192 19.1609C8.84796 18.682 8.27103 18.1204 7.6321 17.6354C7.48234 17.5161 7.14494 17.3905 6.64256 17.3033C6.57443 17.2894 6.56369 17.2962 6.64117 17.2945C6.71447 17.2954 6.89269 17.2533 7.00584 17.1756C7.23469 17.0072 7.17891 16.9795 7.15655 17.0572C7.08766 17.2112 7.00571 17.5579 6.95312 17.8904C6.92424 18.0679 6.89915 18.256 6.87737 18.442C6.87726 18.4429 6.87715 18.4439 6.87704 18.4449C6.8736 18.4743 6.87018 18.5043 6.86679 18.5347C6.5877 20.7622 6.2571 22.8051 6.07144 24.3578C5.76547 26.8429 5.73473 27.7819 5.70469 28.5642C5.69417 28.8586 5.68559 29.1295 5.6681 29.4532C5.60738 30.6122 5.42657 32.3647 5.37239 34.0873C5.37223 34.0938 5.37208 34.1002 5.37193 34.1067C5.36332 34.3946 5.16515 34.6177 4.92317 34.6154C4.6813 34.6142 4.4871 34.3784 4.49598 34.0813C4.52389 33.148 4.59 32.2214 4.65149 31.399C4.44764 31.3405 4.30866 31.1042 4.33371 30.8359C4.3951 30.1683 4.42857 28.0994 4.6052 24.8575C4.53831 25.0728 4.47774 25.2504 4.42175 25.4085C4.35608 25.5936 4.30249 25.7325 4.25634 25.8542C4.16015 26.108 4.09707 26.2741 4.02827 26.5793C3.90521 27.2883 3.76312 28.4109 3.63717 29.5954C3.60516 29.8952 3.3861 30.1183 3.14546 30.0943C2.90478 30.0704 2.73402 29.8055 2.76619 29.5027C2.76678 29.4968 2.76737 29.4909 2.76797 29.485C2.89388 28.3015 3.04088 27.1364 3.1711 26.392C3.20426 26.2022 3.23599 26.0404 3.26173 25.9185C3.28236 25.8207 3.30907 25.6991 3.33193 25.6328C3.33497 25.624 3.34097 25.6072 3.34941 25.5874C3.3496 25.587 3.34978 25.5867 3.34997 25.5864C3.35465 25.5753 3.37842 25.5187 3.42179 25.4608C3.43055 25.4491 3.45001 25.4238 3.47984 25.3954C3.48289 25.3874 3.48593 25.3795 3.48899 25.3714C3.5315 25.2594 3.57487 25.1455 3.61875 25.0225C3.79055 24.5411 4.02774 23.7764 4.3986 22.1716C4.60615 21.2549 4.86758 19.935 5.08572 18.3436C5.14689 17.8695 5.21396 17.3768 5.3593 16.8377C5.44011 16.5654 5.51622 16.2821 5.75333 15.9575C5.87128 15.7987 6.08565 15.614 6.34776 15.5529C6.60678 15.4908 6.81444 15.5333 6.96051 15.5582C7.06025 15.5765 7.16228 15.5964 7.26607 15.619C7.16477 15.5885 7.06406 15.5606 6.96485 15.5343C6.83999 15.5035 6.67285 15.46 6.44592 15.4814C6.17898 15.5004 5.89307 15.6717 5.74195 15.8432C5.58411 16.0134 5.49181 16.1815 5.41542 16.3364C5.26616 16.6493 5.18065 16.938 5.10385 17.2247C5.04629 17.4442 4.99899 17.6573 4.9558 17.8759C4.92673 18.0217 4.89972 18.1697 4.87423 18.321C4.84307 18.4953 4.80737 18.6871 4.77104 18.8768C4.7288 19.0955 4.6847 19.3194 4.6398 19.5444C4.63973 19.5449 4.63966 19.5454 4.6396 19.5458C4.57793 19.8531 4.51322 20.1733 4.44958 20.48C4.42645 20.5901 4.4033 20.7022 4.38134 20.807C4.29126 21.2431 4.20505 21.6554 4.08269 22.1445C4.06571 22.2023 4.04541 22.2652 4.02927 22.3123C4.01211 22.3629 3.99501 22.4119 3.9781 22.4582C3.96319 22.4991 3.94837 22.5382 3.9344 22.5759C3.93254 22.5809 3.93068 22.586 3.92883 22.591C3.91339 22.6318 3.89891 22.6711 3.88512 22.7089C3.87135 22.7467 3.85808 22.7833 3.84593 22.8195C3.84588 22.8199 3.84583 22.8202 3.84579 22.8206C3.83323 22.8585 3.82374 22.8873 3.81182 22.9279C3.79687 22.9789 3.7847 23.023 3.77124 23.0769C3.75811 23.1295 3.74573 23.1813 3.73367 23.2357C3.72166 23.2897 3.71004 23.345 3.69865 23.4015C3.68726 23.4579 3.67596 23.5156 3.66495 23.5741C3.6539 23.6328 3.64328 23.6912 3.63265 23.7497C3.622 23.8083 3.61124 23.8679 3.60054 23.9279C3.57593 24.0657 3.50935 24.1957 3.41473 24.2807C3.31993 24.367 3.20458 24.4071 3.09287 24.3914C2.98114 24.3758 2.88119 24.3053 2.81395 24.196C2.74657 24.088 2.71852 23.9439 2.73339 23.8045C2.73747 23.7663 2.74144 23.7281 2.74559 23.6898C2.74806 23.6671 2.75072 23.6442 2.75322 23.6215C2.75992 23.5605 2.76667 23.498 2.77412 23.4346C2.78155 23.3716 2.78947 23.3082 2.79775 23.2445C2.80606 23.1806 2.81481 23.1163 2.82449 23.0514C2.83405 22.9874 2.845 22.9192 2.85706 22.8512C2.86876 22.7848 2.88352 22.7097 2.89817 22.6432C2.90873 22.5945 2.92347 22.5351 2.93616 22.4859C2.94933 22.4351 2.96359 22.3817 2.97755 22.3324C2.9916 22.2826 3.0058 22.2348 3.01923 22.1894C3.02064 22.1846 3.02204 22.1797 3.02344 22.1748C3.03532 22.1347 3.04683 22.0962 3.05734 22.0599C3.06909 22.0192 3.07962 21.981 3.08915 21.9445C3.09993 21.903 3.10545 21.8778 3.11201 21.8468C3.18336 21.4424 3.25281 20.9338 3.31734 20.4585C3.32568 20.3972 3.33395 20.3369 3.34194 20.2781C3.38336 19.9694 3.4257 19.6481 3.46439 19.3446C3.4937 19.1152 3.52182 18.8893 3.54702 18.6768C3.56793 18.5011 3.58693 18.3335 3.6019 18.1845C3.62066 18.001 3.64132 17.8222 3.66649 17.6356C3.69913 17.3954 3.73795 17.1493 3.79223 16.8839C3.86868 16.5327 3.9435 16.171 4.17636 15.6531C4.3023 15.3953 4.45987 15.0659 4.87674 14.6738C5.27113 14.2663 6.12386 13.9709 6.60858 14.0039C6.9164 14.0053 7.112 14.0462 7.23207 14.0676C7.76422 14.1745 8.46189 14.3196 9.21728 14.7775C9.34593 14.8567 9.47534 14.9458 9.60225 15.0457C10.0505 15.4061 10.4529 15.7907 10.8123 16.1724C11.1212 16.5012 11.4058 16.8549 11.6532 17.1824C11.7876 17.36 11.913 17.5315 12.0368 17.7032C12.0371 17.7038 12.0375 17.7044 12.0379 17.705C12.1451 17.8542 12.2503 18.0024 12.3537 18.1479C12.5752 18.46 12.7911 18.763 13.0089 19.0589C13.2264 19.3545 13.4454 19.6429 13.6699 19.9248C13.8937 20.2055 14.1238 20.4816 14.3584 20.7471C14.5928 21.0123 14.8299 21.2658 15.0815 21.5166C15.4131 21.8462 15.7527 22.1545 16.1028 22.4334C16.4502 22.7099 16.8047 22.9515 17.1421 23.1225C17.2607 23.1827 17.3743 23.233 17.4832 23.2729C17.4836 23.2731 17.484 23.2733 17.4844 23.2734C17.6788 23.3448 17.8519 23.3801 17.994 23.3857C17.9629 23.3825 17.932 23.3808 17.9018 23.3804C17.5932 23.3818 17.4471 23.4876 17.4016 23.513C17.3528 23.5456 17.3676 23.5363 17.3884 23.5054C17.4353 23.4418 17.5171 23.3029 17.5805 23.1562C17.6218 23.0622 17.6592 22.9618 17.6879 22.8673C17.8116 22.4789 17.9437 22.1284 18.0875 21.7733C18.2972 21.2578 18.5301 20.7462 18.7872 20.2444C19.0163 19.7967 19.2573 19.3594 19.5051 18.9299C19.5693 18.8188 19.6348 18.7069 19.7013 18.5943C20.0146 18.0645 20.3289 17.556 20.6415 17.0544C20.9535 16.5545 21.2697 16.0532 21.5972 15.5501C21.9237 15.0486 22.2645 14.5419 22.6269 14.0375C22.9917 13.5303 23.3707 13.0346 23.7883 12.5413C24.2041 12.0509 24.6537 11.5679 25.1602 11.1031C25.4412 10.8451 25.7621 10.5816 26.0892 10.3477C26.418 10.1121 26.7682 9.89288 27.141 9.69785C27.2931 9.61837 27.4436 9.54531 27.6034 9.47413C27.756 9.40619 27.9104 9.34318 28.066 9.28537C28.1676 9.24861 28.2673 9.21618 28.3673 9.18684C28.8774 9.05648 29.3175 8.91714 30.1921 9.05273C30.4549 9.10588 30.7839 9.19289 31.1758 9.45523C31.5645 9.70464 31.9758 10.2219 32.1225 10.7303C32.2 10.9514 32.2536 11.1547 32.2958 11.344C32.398 11.8161 32.4342 12.1544 32.4733 12.5352C32.5288 13.4479 32.4707 13.918 32.4209 14.4529C32.4099 14.5581 32.3989 14.6625 32.3868 14.7717C32.3149 15.3792 32.2214 15.9602 32.1213 16.5226C32.1191 16.5348 32.117 16.5471 32.1149 16.5593C32.0232 17.0851 31.9398 17.6028 31.8631 18.1258C31.7867 18.646 31.7172 19.1697 31.656 19.6916C31.5949 20.2134 31.5415 20.7367 31.4955 21.2615C31.4495 21.7858 31.4104 22.324 31.3798 22.8428C31.3621 23.1418 31.344 23.461 31.3292 23.759C31.3185 23.9718 31.3091 24.1866 31.3015 24.3932C31.2984 24.4787 31.2956 24.5635 31.2932 24.6473C31.2848 24.9357 31.2808 25.2171 31.2833 25.491C31.2856 25.7626 31.2942 26.0279 31.3106 26.287C31.3269 26.5458 31.3511 26.8003 31.3832 27.0531C31.4169 27.3166 31.4511 27.5349 31.5034 27.8124C31.5379 27.9949 31.5727 28.1708 31.6086 28.3494C31.6621 28.6151 31.7176 28.8793 31.7756 29.1463C31.8336 29.4128 31.893 29.6765 31.9548 29.943C31.9746 30.0288 31.9957 30.1192 32.0159 30.2047C32.0767 30.4623 32.1384 30.7171 32.2017 30.9716C32.204 30.9808 32.2063 30.99 32.2087 30.9992C32.2736 31.2572 32.3414 31.5187 32.4109 31.78C32.4809 32.0438 32.5518 32.3053 32.6257 32.5769C32.7513 33.0375 32.8395 33.4945 32.9057 33.9033C32.9725 34.3171 33.0227 34.7133 33.0641 35.1064C33.0718 35.1802 33.0793 35.2542 33.0865 35.3284C33.1173 35.6482 33.1419 35.9685 33.1608 36.2895C33.184 36.6851 33.1987 37.0835 33.2009 37.4928C33.203 37.8981 33.1923 38.3203 33.1638 38.7468C33.1348 39.1772 33.09 39.6018 33.0126 40.0716C32.9348 40.5364 32.8342 41.0226 32.6665 41.5654C32.5005 42.1025 32.2678 42.6753 31.9542 43.2338C31.9394 43.2603 31.9244 43.2867 31.9092 43.313C31.7192 43.6664 31.5208 44.0184 31.3114 44.3686C31.0882 44.7415 30.8642 45.0973 30.6259 45.4564C30.3921 45.809 30.1451 46.1633 29.8986 46.5019C29.6475 46.8469 29.3823 47.1954 29.13 47.5132C28.7161 48.0351 28.2923 48.5451 27.8531 49.0499C27.4149 49.5532 26.9642 50.0477 26.4952 50.5356C26.0273 51.0221 25.5431 51.5002 25.038 51.9673C24.5321 52.435 24.0067 52.8908 23.4522 53.3327C23.3304 53.4298 23.2058 53.5272 23.0803 53.6235C22.6395 53.9611 22.1812 54.2885 21.6972 54.6031C21.6938 54.6052 21.6905 54.6073 21.6871 54.6094C21.0665 55.0118 20.4198 55.3843 19.7106 55.7224C19.4519 55.8455 19.1934 55.9597 18.9248 56.0687C18.6585 56.1768 18.3827 56.2791 18.1017 56.372C17.8233 56.4643 17.5267 56.5513 17.2363 56.6242C16.9412 56.6985 16.64 56.762 16.335 56.8134C16.3242 56.8152 16.3133 56.817 16.3025 56.8188C15.7424 56.9121 15.1 56.8968 14.5362 56.7744C14.4827 56.7632 14.4304 56.7513 14.3792 56.7388C13.756 56.5858 13.2922 56.3536 13.0133 56.2106C12.8503 56.1255 12.7284 56.0586 12.6308 56.0068C12.2284 55.794 11.7949 55.5766 11.3473 55.353C10.773 55.0663 10.184 54.7743 9.58548 54.4677C9.34934 54.3467 9.11638 54.2263 8.87884 54.1009C8.51202 53.9073 8.14055 53.706 7.76939 53.4966C7.15766 53.1513 6.54437 52.7831 5.93086 52.3767C5.31959 51.9714 4.70737 51.5278 4.10718 51.0299C3.50786 50.5318 2.91108 49.9737 2.34826 49.3267C1.72408 48.6044 1.12339 47.7723 0.656719 46.7206C0.219975 45.741 -0.0605807 44.5367 0.0118456 43.3274C0.0150392 43.2842 0.0182803 43.2409 0.0215683 43.1977C0.0789409 42.4419 0.150391 41.6939 0.233691 40.9489C0.317072 40.2035 0.412181 39.4634 0.517902 38.7245C0.581147 38.2829 0.648264 37.8425 0.718977 37.4023C0.723655 37.1682 0.729236 36.9385 0.735165 36.7218C0.782974 35.1106 0.844217 33.9493 1.02635 32.4153C1.03964 32.2713 1.04569 32.1452 1.05247 31.9984C1.05379 31.9703 1.0554 31.9406 1.05688 31.9103C1.06562 31.7229 1.0813 31.4919 1.12052 31.1926C1.20384 30.5799 1.37698 29.6657 1.87943 28.4622C2.00632 28.1625 2.29163 28.0042 2.50031 28.1377C2.64783 28.2277 2.72137 28.4316 2.7128 28.6375C2.83246 28.2736 2.95467 27.919 3.11854 27.5043C3.18527 27.3358 3.30153 27.1734 3.43996 27.0659C3.58893 26.9325 3.7373 26.8915 3.82958 26.9575C3.92385 27.0203 3.95884 27.188 3.97639 27.354C3.99308 27.52 3.97983 27.6863 3.92865 27.8423C3.79843 28.2408 3.69689 28.6161 3.60131 28.9934C3.50814 29.3629 3.42254 29.738 3.34348 30.108C3.26491 30.4757 3.19095 30.849 3.12171 31.2198C3.05254 31.5906 2.98681 31.9648 2.92608 32.3318C2.86344 32.7096 2.8067 33.0757 2.75191 33.4463C2.71847 33.6725 2.68652 33.8952 2.65567 34.1191C2.64413 34.2022 2.63312 34.285 2.62247 34.3644C2.61366 34.43 2.6047 34.4962 2.59561 34.5646C2.50073 35.2849 2.4151 36.0133 2.34015 36.7367C2.26494 37.4618 2.19942 38.1877 2.14407 38.9154C2.0887 39.6436 2.04388 40.3716 2.01011 41.1013C1.97641 41.8309 1.95405 42.5609 1.94518 43.2937C1.94482 43.3236 1.94449 43.3535 1.94418 43.3834C1.92835 44.2692 2.16836 45.1356 2.53974 45.869C2.83866 46.4631 3.21089 46.9793 3.61379 47.4448C3.78773 47.6189 3.95905 47.778 4.135 47.9333C4.64265 48.3799 5.18759 48.7553 5.73319 49.0903C4.82755 48.4165 4.11545 47.8027 3.50558 47.1116C3.42316 47.0175 3.34341 46.9227 3.26632 46.8265C2.60012 45.9781 1.97182 44.9105 1.99293 43.3849C1.99758 43.1976 2.00456 43.0042 2.0142 42.8038C2.24031 38.5899 2.6406 36.1868 2.89742 34.6904C3.16955 33.2011 3.36967 32.5675 3.63757 32.0003C4.01457 31.1987 4.4714 29.6101 4.69471 28.8042C4.7716 28.5155 5.03339 28.3322 5.26476 28.403C5.49485 28.4776 5.61422 28.7567 5.5412 29.0309C5.31376 29.85 4.83703 31.5369 4.39372 32.4879C4.19573 32.9136 4.02262 33.4074 3.75693 34.8613C3.50733 36.3188 3.11317 38.6813 2.88947 42.8478C2.88013 43.0419 2.8734 43.2291 2.86894 43.4103C2.85212 44.6093 3.33796 45.49 3.9256 46.2456C3.99335 46.3312 4.06363 46.4154 4.13696 46.5001C4.13737 46.5006 4.13779 46.5012 4.13821 46.5017C4.81462 47.2744 5.66971 47.9878 6.88768 48.8402C9.25581 50.5112 12.7076 51.9733 14.3334 52.7189C14.6453 52.8638 14.8697 52.9638 15.0131 53.0083C15.191 53.0658 15.347 53.0914 15.4906 53.0829C15.5654 53.0786 15.6378 53.0657 15.7144 53.0429C16.4131 52.8504 17.3377 52.5737 18.9228 51.5445C19.3239 51.2805 19.7808 50.9573 20.2694 50.5746C20.9317 49.9133 21.5283 49.2262 22.0467 48.6311C22.4939 48.1174 22.8539 47.5907 23.1788 47.0666C23.2728 46.9151 23.3647 46.7618 23.4552 46.6085C23.6756 46.2364 23.889 45.8612 24.1023 45.5057C24.2756 45.2185 24.4443 44.9149 24.6201 44.5901C25.2602 43.4044 25.9776 41.9725 27.1007 40.241C27.1089 40.2284 27.1169 40.216 27.1248 40.2038C27.8308 39.1332 27.961 37.4464 27.9201 35.9665C27.9286 37.0746 27.8096 37.8519 27.6574 38.4232C27.6287 38.5305 27.5987 38.6317 27.5683 38.7246C27.3484 39.3837 27.1258 39.7262 26.9135 40.0664C26.9134 40.0666 26.9134 40.0667 26.9133 40.0668C25.0083 42.9784 24.225 43.9994 23.466 45.265C23.2622 45.5955 23.0434 45.9648 22.8002 46.3571C22.3138 47.1411 21.7265 48.0236 20.9771 48.8461C20.2794 49.6099 19.4821 50.447 18.5458 51.1952C18.5454 51.1954 18.545 51.1956 18.5446 51.1959C18.3632 51.3408 18.1717 51.4846 17.9803 51.6196C17.2767 52.1145 16.4983 52.5357 15.6707 52.7624C15.4549 52.8811 15.0293 52.7494 14.4533 52.4875C14.39 52.4607 14.3256 52.4334 14.2601 52.4055C14.0917 52.3335 13.9041 52.2581 13.6772 52.1668C12.3986 51.6386 10.0938 50.8153 7.7325 49.0911C7.22022 48.7102 6.71896 48.273 6.19835 47.7422C6.04119 47.5814 5.87976 47.4086 5.72125 47.2286C5.05707 46.4518 4.20208 45.4163 4.00367 44.0371C3.97971 43.844 3.97224 43.647 3.98533 43.4426C4.05675 42.1651 4.16411 40.6983 4.32317 39.1875C4.41733 38.2901 4.52914 37.3774 4.65693 36.4811C5.0508 33.7836 5.5298 31.2714 6.20894 28.9723C6.20908 28.9718 6.20921 28.9713 6.20934 28.9708C6.29151 28.7057 6.54681 28.5843 6.77358 28.6686C6.99847 28.7582 7.12352 28.981 7.04462 29.2368C6.39218 31.445 5.90975 33.9561 5.52363 36.6092C5.3991 37.4829 5.28917 38.379 5.19623 39.2629C5.03923 40.7508 4.93231 42.2044 4.86158 43.468C4.84971 43.6201 4.85359 43.7668 4.87102 43.9149C4.99617 44.9389 5.75754 45.9413 6.39139 46.6626C6.54893 46.8403 6.70396 47.0052 6.85743 47.1609C7.34582 47.6547 7.79738 48.0477 8.26581 48.3958C10.4741 50.0083 12.6691 50.8041 13.9571 51.333C14.1816 51.4225 14.3926 51.5087 14.5648 51.5815C14.6645 51.6239 14.7623 51.6654 14.858 51.7059C15.153 51.8345 15.3994 51.9369 15.5186 51.9515C15.6479 51.9675 15.5746 51.9085 15.5349 51.89C16.193 51.6947 16.8458 51.3438 17.4595 50.913C17.6373 50.7887 17.8057 50.6616 17.9774 50.5258C17.9777 50.5255 17.9781 50.5251 17.9784 50.5248C18.8469 49.8341 19.6272 49.0224 20.3104 48.2748C21.0054 47.5125 21.5213 46.7391 21.9816 46.0029C22.2289 45.6067 22.4592 45.221 22.6932 44.8426C23.4824 43.5312 24.2936 42.4716 26.1756 39.5945ZM2.53692 29.1956C2.26095 29.9141 2.12094 30.5105 2.04252 30.9599C2.13956 30.5833 2.24043 30.2115 2.34759 29.8363C2.40842 29.6235 2.47225 29.406 2.53692 29.1956ZM20.8748 51.2128C20.7915 51.2959 20.7068 51.3791 20.6199 51.4625C20.8785 51.2596 21.1311 51.051 21.3784 50.8374C21.6822 50.5751 21.9787 50.3053 22.2694 50.0286C21.7974 50.4579 21.3279 50.8557 20.8748 51.2128ZM27.8378 40.7149C26.7622 42.3722 26.0921 43.7133 25.4517 44.9084C25.2669 45.252 25.0814 45.5856 24.8894 45.9062C24.8087 46.0405 24.7304 46.1744 24.6517 46.31C25.2435 45.6282 25.7682 44.982 26.1896 44.4452C27.3787 42.9231 28.0762 41.9855 28.6635 41.2037C28.6898 41.1687 28.7155 41.1337 28.7406 41.0986C28.898 40.8782 29.0338 40.6518 29.1549 40.4094C29.2156 40.1916 29.2667 39.9637 29.3097 39.7316C29.3699 39.4068 29.4132 39.0516 29.4373 38.7107C29.4619 38.3686 29.4705 38.0177 29.4676 37.6722C29.4648 37.3236 29.4506 36.9761 29.4279 36.6286C29.4066 36.3016 29.3777 35.975 29.3431 35.6574C29.3411 35.6392 29.3391 35.6211 29.3371 35.6029C29.2996 35.2673 29.2558 34.94 29.2056 34.6391C29.1543 34.333 29.1015 34.0785 29.0402 33.8541C28.9636 33.5739 28.8852 33.2858 28.8084 32.9993C28.7317 32.7133 28.6558 32.4249 28.5825 32.1374C28.5286 31.9254 28.476 31.7142 28.425 31.5026C28.4064 31.4258 28.3878 31.3486 28.3694 31.2709C28.3472 31.1773 28.3241 31.0794 28.3026 30.9872C28.2927 30.9446 28.2826 30.9018 28.2728 30.8591C28.3013 31.0739 28.3307 31.2931 28.3597 31.5118C28.4091 31.8828 28.4606 32.2584 28.5106 32.6385C28.6256 33.5166 28.7273 34.442 28.7767 35.4352C28.8407 37.0885 28.8514 39.1083 27.8596 40.6813C27.8525 40.6923 27.8452 40.7036 27.8378 40.7149ZM27.6069 21.9442C27.5998 22.2053 27.5952 22.5849 27.6008 23.074C27.6021 23.1902 27.6043 23.3123 27.607 23.4395C27.6072 23.4365 27.6072 23.4334 27.6074 23.4304C27.6289 23.1142 27.651 22.8222 27.6758 22.5059C27.7198 21.9447 27.7712 21.4002 27.8313 20.8503C27.8916 20.2997 27.9601 19.7525 28.0378 19.2042C28.1153 18.6569 28.2016 18.1094 28.2957 17.5671C28.3902 17.0228 28.4931 16.482 28.6025 15.9436C28.6139 15.8879 28.6253 15.8321 28.6368 15.7761C28.66 15.6634 28.6824 15.5524 28.7043 15.4405C28.6748 15.5494 28.6452 15.6587 28.6149 15.7714C28.5413 16.0474 28.4717 16.3263 28.4019 16.6236C28.3231 16.9587 28.2451 17.3123 28.1672 17.6841C28.1373 17.8274 28.1001 17.9971 28.0581 18.1996C27.8932 18.9968 27.654 20.2627 27.6069 21.9442ZM28.8687 11.7608C28.862 11.7416 28.8551 11.7238 28.8486 11.7091C28.8952 11.8955 29.0447 12.1082 29.1761 12.2084C29.4861 12.4281 29.5198 12.3613 29.4953 12.3788C29.4682 12.3812 29.3852 12.3899 29.3013 12.4092C29.2354 12.4238 29.1647 12.4438 29.104 12.4655C29.0316 12.4905 28.9591 12.5176 28.8866 12.5469C28.818 12.5746 28.7494 12.6044 28.6825 12.6351C28.5705 12.6864 28.4554 12.7447 28.3467 12.8044C28.6058 12.6788 28.8644 12.5768 29.116 12.5021C29.2438 12.4643 29.4179 12.4412 29.4812 12.4469C29.5084 12.4458 29.5119 12.4648 29.38 12.4241C29.3146 12.4011 29.2035 12.3559 29.0688 12.2376C28.9341 12.123 28.8004 11.9176 28.7501 11.7385C28.7658 11.7966 28.7837 11.8976 28.7928 12.0213C28.7935 12.0307 28.7944 12.04 28.7951 12.0495C28.8256 11.9382 28.8493 11.8396 28.8687 11.7608Z" fill="#1E1E1E"/>
<path d="M62.0827 83.9574C62.8607 85.5719 63.5598 87.1708 64.2932 88.2802C64.2452 88.2502 64.3664 88.4255 64.7373 88.6598C64.7381 88.6602 64.7389 88.6607 64.7398 88.6612C64.9547 88.8001 65.2403 88.9584 65.6109 89.1514C65.7925 89.2464 65.9957 89.3505 66.2322 89.4774C66.1357 89.4313 65.9941 89.3736 65.8044 89.3302C65.5905 89.2808 65.3145 89.2525 65.01 89.2869C64.3668 89.3484 63.8383 89.7187 63.6737 89.8972C63.322 90.2945 63.5156 90.1653 63.592 89.9305C63.8022 89.4338 64.0251 88.4984 64.1912 87.4784C64.5344 85.3919 64.7373 82.7693 64.9458 79.5833C65.0786 77.6574 65.1923 75.8369 65.473 73.9431C65.5655 73.3366 65.7548 72.5459 66.352 71.7328C66.9373 70.9074 67.9349 70.3702 68.5259 70.1983C69.6201 69.8037 71.3876 69.8534 72.622 70.9071C76.4747 74.8179 76.2104 78.0192 76.8446 80.0317C76.9138 80.3583 76.9885 80.6907 77.1024 81.1154C77.1594 81.3263 77.227 81.5624 77.3077 81.8042C77.3805 82.0334 77.5076 82.3259 77.5263 82.3552C77.5263 82.3553 77.5263 82.3554 77.5263 82.3554C77.5936 82.5171 78.1694 83.084 79.4277 83.4923C78.9999 83.3364 78.3899 83.442 78.1603 83.5781C77.9078 83.7095 77.8653 83.7872 77.8521 83.7983C77.8438 83.8107 77.8707 83.7803 77.895 83.7414C78.0023 83.6643 78.2141 82.6625 78.133 81.4524C77.9614 77.9577 76.5108 72.4641 75.4723 66.7116C75.0765 64.5276 74.7054 62.2671 74.4919 60.0066C74.222 57.1511 74.193 54.4763 74.1188 52.0675C74.1752 49.3338 75.0311 47.8023 75.6407 46.3111C77.3011 42.6977 79.2742 39.6167 81.1495 36.3933C81.7684 35.3295 82.3918 34.1354 83.04 32.9243C83.9982 31.1274 85.0145 29.2541 86.1564 27.3273C87.3662 25.2051 88.2332 22.0174 89.0762 18.7362C89.5496 16.8577 90.013 14.9884 90.4849 13.12C91.0782 10.7892 91.3627 8.42446 91.1264 6.08137C91.0739 5.56068 90.996 5.04336 90.8909 4.52524C90.8173 4.16156 90.7293 3.7949 90.6293 3.42947C90.5731 3.21137 90.5022 3.01638 90.4618 2.92804C90.4116 2.82169 90.4763 2.95246 90.7172 3.00981C91.1127 3.05903 90.8637 2.99049 90.693 3.05809C90.4931 3.11043 90.2486 3.20128 89.9962 3.30749C89.4883 3.522 88.9503 3.79103 88.4069 4.07291C87.3188 4.63978 86.2006 5.26312 85.0494 5.89031C84.561 6.15351 84.0535 6.50246 83.56 6.88326C79.3228 10.3644 76.3042 14.3583 73.235 18.1504C72.1464 19.5194 71.3077 21.0692 70.6004 22.7789C69.7854 24.7472 69.1122 26.9037 68.3731 29.2058C68.2047 29.7329 68.0435 30.2716 67.8889 30.822C66.8054 34.5964 65.894 39.936 65.3613 45.6208C65.2541 47.1716 64.2551 48.7029 63.06 49.531C62.4728 49.9617 61.8503 50.2851 61.2322 50.5449C61.2291 50.5462 61.2259 50.5475 61.2227 50.5489C57.1353 52.1162 53.1419 51.9959 49.6792 52.1435C47.4381 52.2103 45.378 52.2684 43.5618 52.3225C36.2058 52.5369 33.4467 52.6768 31.1603 52.823C30.2977 52.8785 29.5125 52.9316 28.5693 53.0043C28.1922 53.0341 27.7639 53.0692 27.3552 53.1125C27.1486 53.1345 26.9421 53.1589 26.7465 53.1884C26.6529 53.2026 26.5564 53.2193 26.4878 53.2342C26.4255 53.2438 26.332 53.2846 26.4764 53.2274C23.8054 54.4079 20.8522 54.5931 17.9327 55.1775L18.0815 55.1413C17.5141 55.3077 16.8766 55.5269 16.1833 55.7031C15.8582 55.7864 15.5394 55.8582 15.2236 55.9246C15.2027 55.929 15.1822 55.9333 15.1614 55.9377C14.2597 56.1235 13.5193 56.0432 13.4819 55.8055C13.4463 55.5649 14.1216 55.2577 14.9967 55.0769C15.3189 55.0097 15.6413 54.9374 15.9641 54.8548C16.6211 54.6881 17.2414 54.475 17.8315 54.3014L17.7678 54.317C19.4917 53.9881 21.1832 53.7525 22.7727 53.4319C22.8591 53.201 23.4789 52.9232 24.2514 52.7144C24.6579 52.6014 25.243 52.431 25.9616 52.0943C28.5768 51.5288 34.0752 51.4089 41.5062 50.9878C40.8507 50.9664 40.3138 50.9429 39.8353 50.9198C39.2853 50.8924 38.8423 50.8681 38.483 50.8468C37.7077 50.8032 37.2022 50.7743 36.2957 50.7675C34.1955 50.7996 30.9124 50.83 27.415 51.0758C26.5365 51.1381 25.7579 51.0901 25.5722 50.9232C25.5938 50.6288 26.4694 50.2612 27.3567 50.2017C27.3743 50.2002 27.3921 50.1987 27.4099 50.1972C30.9362 49.9534 34.3063 49.9195 36.5082 49.8878C37.0576 49.8829 37.5492 49.8816 37.9034 49.8827C38.1911 49.8836 38.556 49.8854 38.7521 49.8947C38.7786 49.8959 38.829 49.8984 38.8894 49.9028C38.8904 49.9029 38.8914 49.903 38.8924 49.9031C38.9261 49.9055 39.0986 49.9175 39.2851 49.9484C39.3222 49.9547 39.4066 49.9686 39.4989 49.9922C39.5228 49.9936 39.5468 49.995 39.5707 49.9964C39.9032 50.0158 40.2548 50.0352 40.6249 50.0534C42.0743 50.1231 44.3888 50.2057 49.1728 50.211C49.3187 50.2111 49.4685 50.2109 49.622 50.2106C51.5037 50.1992 53.8814 50.2207 56.6131 49.8629C59.1262 49.4661 63.1702 48.8044 63.5941 45.4501C63.7225 44.1491 63.8682 42.8023 64.0434 41.4164C63.9464 42.0401 63.8549 42.666 63.7686 43.2918C63.6702 44.0063 63.578 44.723 63.4908 45.4402C63.3993 46.1932 63.0788 46.8577 62.5619 47.3909C62.2014 47.7655 61.7614 48.0728 61.2713 48.3322C60.4815 48.7487 59.5825 49.033 58.6642 49.2429C58.042 49.3846 57.4042 49.4926 56.7609 49.5774C56.7594 49.5776 56.758 49.5779 56.7566 49.5781C55.8642 49.6954 54.9562 49.7692 54.0367 49.8177C53.7139 49.8342 53.3965 49.8475 53.0782 49.8585C51.9648 49.897 50.8561 49.9046 49.6128 49.8988C49.4477 49.8981 49.2809 49.8972 49.1121 49.896C48.9355 49.8924 48.7445 49.8866 48.6025 49.8813C48.4502 49.8757 48.3021 49.8698 48.1611 49.8636C48.037 49.858 47.919 49.8521 47.8061 49.8467C47.791 49.846 47.7759 49.8452 47.7608 49.8445C47.6346 49.8385 47.5144 49.8329 47.3991 49.8277C47.2839 49.8226 47.1746 49.8175 47.0629 49.8136C47.0618 49.8136 47.0608 49.8136 47.0598 49.8137C46.9442 49.8097 46.8566 49.8067 46.7347 49.8038C46.5817 49.8003 46.4507 49.7979 46.2926 49.7962C46.1395 49.7946 45.9822 49.7937 45.8178 49.7937C45.6548 49.7936 45.4895 49.7941 45.3226 49.795C45.1555 49.7958 44.987 49.797 44.8168 49.7985C44.6437 49.8001 44.4691 49.8021 44.2945 49.8041C44.1198 49.806 43.9441 49.808 43.7687 49.81C43.3583 49.8149 42.9641 49.7764 42.6784 49.7012C42.3898 49.6261 42.2239 49.5213 42.2235 49.4085C42.2219 49.2956 42.3866 49.183 42.6735 49.0944C42.9577 49.006 43.3515 48.9488 43.761 48.9341C43.871 48.9301 43.9819 48.926 44.0936 48.922C44.1599 48.9197 44.227 48.9175 44.294 48.9151C44.4737 48.9088 44.6577 48.9021 44.8411 48.896C45.0219 48.89 45.2053 48.8844 45.3917 48.8789C45.5787 48.8734 45.7691 48.8681 45.9633 48.8636C46.1531 48.8591 46.3479 48.8553 46.5469 48.8524C46.741 48.8495 46.9641 48.8476 47.1637 48.8474C47.3071 48.8471 47.4847 48.8485 47.6333 48.8501C47.7884 48.8517 47.9417 48.8541 48.09 48.8568C48.2386 48.8596 48.3831 48.8629 48.5178 48.866C48.5323 48.8663 48.5468 48.8666 48.5613 48.8669C48.6812 48.8696 48.7973 48.8723 48.9073 48.8744C49.0302 48.8768 49.1469 48.8785 49.258 48.8796C49.3804 48.8809 49.4549 48.8806 49.5465 48.8801C49.5585 48.8799 49.5706 48.8796 49.5827 48.8794C50.7823 48.858 52.2242 48.8172 53.5719 48.7236C53.7428 48.7119 53.9132 48.6994 54.0799 48.6862C54.9684 48.6153 55.842 48.5193 56.6886 48.3826C57.303 48.2833 57.9059 48.1618 58.4805 48.0105C59.3216 47.7896 60.1168 47.4972 60.7349 47.1296C61.1175 46.903 61.418 46.6559 61.6278 46.4039C61.9004 46.0715 62.0344 45.7536 62.0824 45.3041C62.1618 44.4911 62.2478 43.6739 62.3428 42.8555C62.5319 41.2259 62.7574 39.58 63.0357 37.9388C63.3127 36.3032 63.6562 34.606 64.0667 32.9788C64.3681 31.7826 64.7341 30.5658 65.1184 29.4517C65.2559 29.0525 65.3972 28.66 65.5424 28.2741C65.6135 28.0855 65.6826 27.9036 65.7529 27.7181C65.7537 27.7162 65.7544 27.7143 65.7552 27.7124C65.9386 27.2296 66.1227 26.7461 66.306 26.269C66.7 25.2449 67.0943 24.2334 67.5203 23.218C67.9459 22.2053 68.4021 21.1922 68.9319 20.1892C69.4566 19.1943 70.0664 18.2013 70.7562 17.2789C70.932 17.0433 71.1117 16.8133 71.297 16.5865C71.8031 15.9674 72.3083 15.3481 72.8339 14.7061C73.758 13.5766 74.6853 12.4493 75.6533 11.3088C76.6178 10.1732 77.6073 9.03909 78.6495 7.92702C79.0139 7.5386 79.3849 7.15347 79.7672 6.77063C79.7687 6.76917 79.7702 6.76771 79.7717 6.76625C80.4751 6.06303 81.2156 5.36483 82.0236 4.70893C82.532 4.29817 83.0705 3.89877 83.6773 3.5384C84.44 3.08603 85.2032 2.62483 85.9806 2.16262C87.4002 1.41422 88.2441 0.512344 90.7118 0.00722802C90.9319 -0.00635457 91.1936 -0.00913072 91.5362 0.0839132C92.3492 0.308447 92.8399 0.913251 93.0838 1.31637C93.342 1.74408 93.4752 2.11179 93.5921 2.46492C93.8715 3.32519 94.0984 4.23023 94.2494 5.14182C94.5013 6.64417 94.5598 8.17778 94.4699 9.6496C94.4466 10.037 94.4128 10.4277 94.3701 10.8112C94.2533 11.8625 94.0725 12.8751 93.8455 13.8659C93.6845 14.5665 93.5252 15.2601 93.3665 15.9502C92.9935 17.5697 92.6202 19.1929 92.2168 20.8336C91.8129 22.4666 91.3838 24.1298 90.8354 25.8131C90.4595 26.9447 90.0563 28.0682 89.4226 29.2274C89.155 29.7143 88.8912 30.206 88.6297 30.7038C87.8481 32.1907 87.1028 33.708 86.3461 35.2673C85.9231 36.136 85.4722 37.0612 85.0036 37.9539C84.9174 38.1177 84.8284 38.2844 84.7389 38.4482C84.3527 39.1566 83.9649 39.8527 83.5826 40.5379C83.3928 40.878 83.2042 41.2155 83.0181 41.55C82.7466 42.0381 82.4797 42.5202 82.2209 42.995C81.7841 43.7961 81.3693 44.5775 80.9875 45.3375C80.6056 46.0977 80.2559 46.8385 79.9532 47.5521C79.6424 48.2889 79.4119 48.9012 79.2003 49.6119C78.8556 50.7169 78.7432 51.5272 78.7826 51.9428C78.8092 52.4484 78.832 52.9146 78.8564 53.411C78.8701 53.6866 78.8843 53.9638 78.8998 54.2595C78.9833 55.9299 79.0679 57.5634 79.2227 59.1356C79.3768 60.7249 79.6048 62.2832 79.8767 63.8923C79.9864 64.5419 80.1024 65.1962 80.2225 65.8553C80.3951 66.8025 80.5786 67.7534 80.7676 68.7055C81.0862 70.3118 81.4223 71.9245 81.7472 73.5646C82.0702 75.2032 82.3928 76.8988 82.6213 78.6006C82.7526 79.5906 82.8611 80.6557 82.8731 81.7375C82.8783 82.5157 82.8464 83.3181 82.6598 84.2143C82.5808 84.5842 82.4755 84.9615 82.3121 85.3644C82.2105 85.6141 82.0808 85.8806 81.9262 86.1341C81.6763 86.5319 81.4071 86.9187 80.882 87.3531C80.4298 87.7591 79.2053 88.359 78.012 87.9428C77.8159 87.8774 77.6219 87.8074 77.4295 87.7324C76.4644 87.3502 75.5167 86.8685 74.6186 86.0698C74.2577 85.7445 73.9082 85.36 73.6084 84.8998C73.1499 84.1677 72.983 83.6423 72.7951 83.1307C72.4922 82.2526 72.3099 81.6 72.0553 80.7823C71.8919 80.2545 71.7328 79.7531 71.5667 79.2694C71.3185 78.5465 71.0544 77.8626 70.7564 77.2418C70.4595 76.6226 70.1305 76.0783 69.7866 75.6718C69.6763 75.5409 69.5596 75.4192 69.4501 75.3205C69.3676 75.2459 69.286 75.1806 69.2071 75.1251C69.3937 75.2921 69.6794 75.4085 69.8808 75.4334C70.0873 75.4622 70.213 75.4384 70.2967 75.4197C70.2989 75.4241 70.3743 75.4043 70.4812 75.3419C70.6636 75.2439 70.8779 75.007 70.9526 74.8627C71.0355 74.7138 71.039 74.6661 71.0459 74.6929C71.0215 74.9672 70.9997 75.2755 70.9828 75.5782C70.9418 76.3138 70.9204 77.0666 70.9052 77.8445C70.881 79.1624 70.8407 80.4565 70.7915 81.5907C70.7416 82.7409 70.6811 83.8265 70.6036 84.8949C70.5889 85.0963 70.5737 85.2971 70.5577 85.4969C70.488 86.3653 70.405 87.2278 70.2951 88.095C70.154 89.1712 69.9964 90.2439 69.6508 91.4633C69.4582 92.0914 69.2701 92.7334 68.7173 93.6097C68.4191 94.0477 68.0369 94.5854 67.1842 95.0899C66.3661 95.6023 65.0364 95.732 64.2013 95.4717C63.8843 95.388 63.5979 95.2734 63.3398 95.1441C62.6919 94.8277 61.7138 94.4625 60.57 93.6646C60.0524 93.2955 59.491 92.8179 58.9834 92.1467C58.4986 91.5126 58.1024 90.8907 57.7242 90.2549C57.0905 89.184 56.5397 88.1118 56.003 87.0727C55.4685 86.0363 54.9506 85.0275 54.4278 84.1319C53.9127 83.2427 53.3486 82.4338 52.9259 82.0324C52.7058 81.8143 52.5519 81.7552 52.6218 81.7919C52.2562 81.6569 51.8613 81.537 51.4571 81.4369C50.5887 81.2204 49.6408 81.0919 48.7529 81.0582C47.3125 81.0014 45.8731 81.1739 44.4882 81.5713C43.5466 81.8412 42.6329 82.2131 41.7502 82.6836C41.2675 82.9417 40.7969 83.1999 40.345 83.4603C38.9292 84.2718 37.6651 85.1511 36.9596 85.9784C36.5208 86.4906 36.3059 86.9163 36.199 87.3934C36.1144 87.7917 36.023 88.5023 35.9483 89.1416C35.9054 89.5083 35.8617 89.9082 35.8211 90.289C35.675 91.6683 35.5378 93.061 35.3852 94.4673C35.3841 94.4769 35.3829 94.4865 35.3818 94.4962C35.1848 96.3078 34.973 98.0978 34.69 99.9386C34.5853 100.617 34.4758 101.268 34.348 101.944C34.2201 102.618 34.0821 103.278 33.906 103.987C33.731 104.684 33.5306 105.398 33.2384 106.168C32.8977 106.952 32.7041 107.745 31.4918 108.976C30.9259 109.527 29.7532 110.243 28.3667 110.166C27.6596 110.127 27.1729 109.966 26.6856 109.74C26.2606 109.535 25.9476 109.319 25.6429 109.072C25.6373 109.068 25.6318 109.063 25.6262 109.059C25.4862 108.943 25.3628 108.827 25.2515 108.713C24.0391 107.332 23.8975 106.568 23.5364 105.763C22.7735 103.757 22.2942 102.035 21.7179 100.303C21.1534 98.5835 20.5639 96.9284 19.8666 95.4288C19.594 94.8435 19.3045 94.2849 19.0016 93.7797C18.5307 92.9893 18.0068 92.3245 17.5471 91.944C17.4271 91.8434 17.3121 91.7617 17.2112 91.7009C17.3628 91.7903 17.491 91.8476 17.7393 91.8854C17.9771 91.9158 18.4086 91.9314 18.9567 91.6461C18.329 91.9821 18.1011 92.2012 17.6907 92.7391C17.387 93.1556 17.0969 93.6985 16.8459 94.3147C16.4967 95.1712 16.2022 96.0301 15.962 96.9015C15.4948 98.5333 15.3529 100.038 14.9208 102.325C14.7061 103.341 14.2784 104.856 13.157 106.111C12.0491 107.281 11.2517 108.103 9.6626 109.163C9.18861 109.411 8.88706 109.768 7.4415 109.992C7.06961 110.025 6.53506 110.041 5.8552 109.803C5.19363 109.583 4.50938 109.03 4.16469 108.503C3.48542 107.427 3.54733 106.849 3.50443 106.391C3.49256 104.398 3.79019 102.93 4.02428 101.426C4.38015 99.3098 4.73953 97.3101 4.98209 95.3203C5.03781 94.8669 5.08795 94.4146 5.13148 93.9634C5.26122 92.5648 5.28583 90.9023 5.349 89.2719C5.39466 87.9985 5.45098 86.7222 5.5272 85.4363C5.53489 84.752 5.54643 84.1064 5.56265 83.4758C5.62543 81.0667 5.74002 79.0054 5.90152 76.9644C6.04783 75.112 6.19605 73.2905 6.37282 71.2121C6.4036 70.8028 6.42282 70.4613 6.4453 70.0543C6.44959 69.9766 6.45431 69.8945 6.45893 69.811C6.48929 69.2712 6.5256 68.6588 6.59331 67.8093C6.72751 66.1101 6.99112 63.5071 7.48111 60.1793C7.60409 59.34 7.87823 58.8226 8.09948 59.0229C8.25433 59.1661 8.34084 59.6271 8.33566 60.1744C8.44865 59.1659 8.56001 58.1576 8.65318 57.1694C8.69017 56.7753 8.76349 56.4144 8.85619 56.1878C8.94874 55.944 9.05462 55.9614 9.16841 55.958C9.27962 55.9192 9.39193 56.0308 9.45746 56.3236C9.52377 56.6103 9.54282 57.0031 9.51452 57.4016C9.43807 58.4663 9.34437 59.5415 9.24932 60.6145C9.15412 61.6837 9.05523 62.7569 8.95473 63.8302C8.85416 64.9036 8.75222 65.9757 8.64888 67.051C8.54597 68.1221 8.4415 69.1955 8.33597 70.2725C8.22955 71.3577 8.12502 72.4183 8.0174 73.4974C7.95249 74.1484 7.88675 74.8023 7.82242 75.4418C7.79834 75.6805 7.7747 75.9174 7.75115 76.1505C7.73198 76.3403 7.71244 76.5319 7.69229 76.73C7.67818 76.8693 7.66399 77.009 7.64974 77.1493C7.44984 79.1146 7.29305 81.0984 7.18494 83.0659C7.06686 85.1917 7.00867 87.3054 6.98338 89.4198C6.95863 91.0052 6.97357 92.6059 6.87494 94.0997C6.83851 94.6047 6.79418 95.11 6.74333 95.6155C6.53879 97.6683 6.21648 99.7186 5.91293 101.816C5.71682 103.261 5.4841 104.702 5.52735 106.322C5.55113 106.596 5.53898 106.925 5.8836 107.408C6.05139 107.637 6.37414 107.851 6.65404 107.917C6.9345 107.988 7.15579 107.971 7.3362 107.944C8.00466 107.809 8.30093 107.574 8.63924 107.364C9.80921 106.543 10.6451 105.688 11.5371 104.7C11.8711 104.314 12.1334 103.867 12.3193 103.421C12.6021 102.693 12.7126 102.007 12.8036 101.364C13.0306 99.5063 13.1609 97.7963 13.5571 96.102C12.6495 99.0817 13.2536 101.573 11.6878 104.296C11.6102 104.407 11.5297 104.513 11.4422 104.617C11.2875 104.802 11.1363 104.969 10.984 105.135C10.4007 105.763 9.80834 106.356 9.10611 106.925C8.74552 107.207 8.39071 107.49 7.82479 107.737C7.53626 107.824 7.13701 108.089 6.35593 107.736C5.97971 107.533 5.77886 107.189 5.69224 106.936C5.60964 106.697 5.58974 106.504 5.58069 106.32C5.52175 104.382 5.8578 102.542 6.17852 100.422C6.54431 98.1245 6.84202 96.0359 6.99757 94.1093C7.20869 86.1073 7.50329 80.6916 7.96054 77.1822C7.96787 77.1203 7.97513 77.059 7.98233 76.9983C8.49736 72.6469 8.76585 70.7759 9.10467 69.0483C9.58546 66.5966 10.1709 61.8328 10.3652 59.4393C10.4386 58.56 10.6843 57.8851 10.926 57.8957C11.1664 57.927 11.3112 58.6418 11.2374 59.5256C11.0312 62.0656 10.4042 67.2231 9.82915 70.1423C9.57339 71.4401 9.34614 72.9358 8.83781 77.2293C8.83603 77.2443 8.83424 77.2593 8.83245 77.2744C8.38347 80.7332 8.08874 85.9617 7.87129 94.1776C7.71277 96.1438 7.40869 98.2704 7.04004 100.585C6.71875 102.691 6.39793 104.524 6.45768 106.291C6.47283 106.506 6.49853 106.762 6.7295 106.936C6.97178 107.094 7.22243 107.02 7.41558 106.954C7.81143 106.802 8.13284 106.566 8.44522 106.328C9.06518 105.841 9.61949 105.299 10.1602 104.729C10.3706 104.506 10.5788 104.278 10.7789 104.04C10.7872 104.03 10.7955 104.019 10.8038 104.009C10.8051 104.008 10.8064 104.006 10.8077 104.005C12.5201 101.453 11.6932 97.8755 13.3681 93.7547C13.4576 93.5069 13.5448 93.2753 13.6428 93.0259C14.3104 91.3005 15.4581 89.4731 17.3062 88.5472C17.8943 88.2446 18.5455 88.4003 19.0475 88.6932C25.5376 94.4196 25.9152 103.561 27.432 105.313C27.6102 105.647 27.8375 105.998 28.0391 106.147C28.1886 106.262 28.3067 106.323 28.4258 106.354C28.89 106.62 29.6635 105.071 30.0322 103.358C30.4577 101.566 30.8031 99.1745 31.1418 95.839C31.2908 94.3802 31.4458 92.662 31.62 90.7829C31.7049 89.3514 31.748 87.9832 31.9568 86.5445C32.203 85.0058 33.0107 83.6682 33.8916 82.6928C35.4414 80.9963 37.1315 79.911 38.7115 78.8771C38.9508 78.7234 39.1909 78.5713 39.4324 78.42C39.6685 78.2735 39.8998 78.1357 40.1427 77.9987C41.3523 77.3141 42.657 76.7569 43.9822 76.3774C45.0365 76.0746 46.1761 75.8405 47.3968 75.7185C49.5554 75.5139 51.9728 75.5989 54.637 76.4804C58.6017 78.3293 59.4661 81.4656 61.0121 84.3331C61.8557 86.0903 62.6347 87.7773 63.4392 88.902C63.6236 89.2251 64.5373 89.7396 65.7891 90.3456C65.7259 90.3167 65.5839 90.248 65.3077 90.2368C65.0461 90.2208 64.6976 90.3249 64.5273 90.4363C64.1729 90.6782 64.2663 90.7003 64.3124 90.5868C64.4488 90.3493 64.6272 89.8107 64.7516 89.2849C65.0113 88.1959 65.171 87.0141 65.3019 85.866C65.1235 87.3655 64.9029 88.697 64.6036 89.6961C64.467 90.1755 64.25 90.6143 64.2152 90.6172C64.2049 90.6313 64.3132 90.3988 64.7984 90.2278C65.0344 90.1484 65.3021 90.137 65.4886 90.1654C65.682 90.1945 65.7727 90.2357 65.8323 90.2607C65.5032 90.0841 65.2263 89.9445 64.9803 89.8131C64.6263 89.6251 64.3408 89.4582 64.1208 89.305C63.7959 89.0811 63.632 88.8927 63.5822 88.7979C62.7257 87.4953 62.0635 85.9245 61.3012 84.3533C59.6142 81.1556 58.7232 77.9831 54.7779 76.109C49.5955 74.3938 46.2961 74.9971 43.0767 75.9488C41.7969 76.3669 40.4382 76.978 39.0959 77.8009C39.0959 77.8009 39.0958 77.8009 39.0958 77.8009C36.7636 79.3911 33.2973 80.9818 31.5993 85.2415C31.4694 85.6189 31.3677 86.0119 31.2983 86.4127C30.8806 89.6474 30.8721 92.7802 30.6014 96.2176C30.6012 96.219 30.601 96.2205 30.6009 96.222C30.547 96.9598 30.4865 97.7043 30.4154 98.4519C30.2584 100.073 30.063 101.729 29.7172 103.308C29.4215 104.813 28.6202 106.724 28.218 105.932C27.6141 105.388 27.0604 103.845 26.6127 102.633C26.4424 102.162 26.2394 101.588 26.0082 100.929C24.7528 98.1634 24.1758 92.7003 19.1337 88.5519C18.6063 88.242 17.9159 88.0429 17.2197 88.3848C15.9836 88.9905 14.8961 90.0778 14.1592 91.3322C13.8575 91.8339 13.5949 92.3595 13.3582 92.9114C12.8032 94.2053 12.3049 95.6055 11.9184 97.1839C11.7512 97.863 11.6052 98.5795 11.473 99.3193C11.1837 100.74 11.1032 102.481 10.1627 103.503C9.63472 104.064 8.98511 104.681 8.30658 105.23C7.96767 105.501 7.59788 105.772 7.27066 105.934C7.13063 106.021 6.90819 106.021 7.12223 106.023C7.24758 106.024 7.46834 106.219 7.48044 106.285C7.51106 106.354 7.49226 106.32 7.49437 106.256C7.48551 105.739 7.52729 105.168 7.59096 104.58C7.93308 101.625 8.70435 98.0911 9.01433 94.267C9.13409 92.7174 9.13534 91.2029 9.17408 89.671C9.22928 87.0096 9.34158 84.3167 9.55166 81.6659C9.66525 80.2175 9.80248 78.8013 9.96186 77.3939C10.6839 70.9661 11.3672 64.944 11.9222 58.8571C11.9223 58.8556 11.9224 58.854 11.9225 58.8525C12 57.9782 12.2472 57.2876 12.4859 57.3408C12.726 57.3791 12.8658 58.1493 12.787 59.0331C12.2301 65.1141 11.5509 71.1019 10.8334 77.4861C10.6727 78.9033 10.5346 80.3311 10.421 81.7881C10.2166 84.3815 10.1055 87.031 10.0505 89.6744C10.0112 91.2057 10.0121 92.7165 9.88792 94.3353C9.57035 98.2604 8.77139 101.897 8.45154 104.78C8.39696 105.306 8.36443 105.802 8.37115 106.226C8.36338 106.218 8.38646 106.166 8.27459 105.912C8.20261 105.668 7.66496 105.188 7.28782 105.161C6.92713 105.108 6.84266 105.173 6.80996 105.176C6.78324 105.187 6.81907 105.178 6.86572 105.155C7.0772 105.056 7.43031 104.808 7.74109 104.558C8.37003 104.052 9.02148 103.432 9.49984 102.926C10.1901 102.288 10.3634 100.386 10.6626 98.8546C10.8096 98.0568 10.9752 97.2949 11.1622 96.5801C11.5544 95.0776 12.0304 93.778 12.5428 92.5833C12.8193 91.9384 13.1296 91.3245 13.4983 90.7322C14.2795 89.4364 15.5133 88.2433 16.8079 87.6117C17.9522 87.0676 18.87 87.395 19.59 87.8044C25.0569 92.3067 25.419 97.4988 26.7277 100.32C26.9663 101 27.173 101.589 27.3513 102.088C27.5925 102.762 27.8401 103.43 28.1091 104.047C28.2444 104.357 28.3804 104.642 28.5241 104.892C28.6491 105.126 28.8494 105.345 28.7809 105.252C28.8416 105.297 28.8693 105.287 28.7827 105.248C28.7135 105.209 28.4646 105.179 28.3033 105.232C27.9657 105.364 28.1168 105.337 28.2047 105.131C28.4272 104.72 28.6494 104.008 28.8108 103.309C29.1419 101.872 29.3374 100.317 29.4941 98.7822C29.5675 98.0527 29.6302 97.3219 29.6858 96.5948C29.6858 96.5933 29.6859 96.5918 29.6859 96.5903C29.9818 93.0187 29.9732 89.7941 30.4331 86.2396C30.4822 85.9618 30.5449 85.6883 30.6203 85.4203C32.2086 80.7058 35.6031 79.1239 37.8698 77.5131C38.139 77.3418 38.4039 77.1762 38.6678 77.0134C39.8059 76.3203 40.9914 75.7483 42.219 75.3045C45.7822 74.1303 49.4482 73.422 55.0888 75.2896C59.6413 77.5081 60.3636 80.7944 62.0827 83.9574ZM8.15712 61.7431C7.86215 63.8187 7.67568 65.5191 7.56038 66.7886C7.68951 65.7139 7.81765 64.6418 7.94396 63.5689C8.01489 62.9685 8.08753 62.3435 8.15712 61.7431ZM32.5162 90.608C32.4976 90.951 32.4797 91.2934 32.4615 91.6385C32.5448 90.6897 32.6262 89.7458 32.7219 88.7982C32.7933 88.1125 32.8656 87.409 32.9882 86.7509C33.077 86.2907 33.2208 85.8423 33.415 85.4156C33.2156 85.8445 33.069 86.293 32.9776 86.7488C32.74 88.0565 32.6387 89.3798 32.5162 90.608ZM60.2282 84.7253C58.7163 81.8255 57.6747 78.8027 54.3226 77.309C52.1817 76.6059 50.1663 76.4513 48.2811 76.5477C47.0621 76.6148 45.8962 76.8018 44.7724 77.0857C44.3047 77.204 43.8491 77.3418 43.392 77.5018C46.0942 76.7306 48.7249 76.712 50.8019 77.0306C52.0196 77.2151 53.1221 77.5136 54.1006 77.8942C56.3737 78.9681 57.0815 80.733 57.8581 82.0152C58.5766 83.3562 59.0909 84.5355 59.592 85.6379C59.9514 86.433 60.2947 87.1913 60.6718 87.947C61.0228 88.5521 61.3982 89.1645 61.8192 89.7351C61.8755 89.8112 61.9322 89.8856 61.9891 89.958C62.4771 90.5795 63.3118 91.0304 64.1668 91.4222C64.4463 91.5516 64.7358 91.6793 65.0351 91.8226C65.2757 91.9148 65.2671 91.8904 65.3863 91.8117C65.5102 91.7143 65.6754 91.4593 65.801 91.163C66.1599 90.306 66.3425 89.2654 66.4929 88.2422C66.6304 87.2741 66.7242 86.294 66.7991 85.3418C66.8035 85.2864 66.8077 85.2324 66.8118 85.1781C66.8882 84.1695 66.9436 83.1834 66.9835 82.2744C67.0237 81.3481 67.0455 80.5778 67.0526 79.8893C67.0615 79.03 67.073 78.1472 67.0959 77.2703C67.1197 76.3917 67.1518 75.5146 67.2244 74.6137C67.2365 74.4664 67.2494 74.3232 67.2631 74.184C67.3106 73.7659 67.4203 73.2722 67.7545 72.7854C68.0814 72.2921 68.6539 71.9492 69.072 71.8085C69.2587 71.7412 69.4566 71.6896 69.6671 71.66C70.1521 71.5862 70.7683 71.6564 71.2775 71.9457C71.3929 72.0098 71.5029 72.0832 71.6049 72.1633C71.6686 72.2123 71.7312 72.2624 71.7926 72.3134C71.7326 72.2608 71.6714 72.2091 71.6089 72.1584C70.8473 71.5213 69.7744 71.4962 69.0547 71.7575C68.6329 71.8885 68.0402 72.2242 67.6894 72.7276C67.3317 73.224 67.2042 73.7357 67.1431 74.1678C67.0566 74.8002 66.9954 75.4257 66.9405 76.0633C66.7182 78.7084 66.5961 81.4845 66.3216 84.5003C66.1922 85.8842 66.0376 87.3273 65.7644 88.7472C65.6268 89.4481 65.4514 90.1734 65.2114 90.7374C65.1055 91.003 64.9291 91.2442 64.9328 91.2203C64.9339 91.2131 65.0551 91.1266 65.2081 91.1149C65.3555 91.1015 65.4234 91.144 65.3908 91.1258C64.2 90.5344 63.1504 90.0278 62.731 89.4177C61.8478 88.1784 61.0762 86.4872 60.2282 84.7253ZM78.4767 76.8603C78.6096 77.5653 78.8139 78.6047 78.9895 79.916C79.03 80.2239 79.0685 80.5502 79.0995 80.888C79.099 80.88 79.0983 80.8718 79.0978 80.8638C79.0462 80.0194 78.9536 79.2311 78.8308 78.3693C78.6088 76.8326 78.3269 75.325 78.0346 73.799C77.7391 72.2629 77.4333 70.7301 77.1414 69.1864C76.9726 68.294 76.8078 67.397 76.652 66.4989C76.5377 65.8404 76.427 65.1839 76.3218 64.5274C76.0714 62.9652 75.8531 61.3971 75.7047 59.8093C75.6571 59.3034 75.6161 58.7955 75.581 58.2884C75.6321 59.422 75.7248 60.6046 75.8655 61.8424C75.9775 62.8325 76.1172 63.8537 76.2784 64.9274C76.3393 65.3339 76.4145 65.835 76.5041 66.4081C76.51 66.4457 76.516 66.4838 76.5221 66.5223C76.8649 68.8174 77.5783 72.3546 78.4767 76.8603ZM77.1195 45.4936C77.2801 45.1536 77.4427 44.8213 77.6062 44.4966C78.0744 43.5673 78.5528 42.6857 79.0306 41.8288C79.366 41.2275 79.702 40.6382 80.0337 40.0601C80.1735 39.8162 80.3136 39.5727 80.4519 39.3324C80.684 38.9293 80.9137 38.5302 81.1404 38.1349C79.5155 40.8946 77.8527 43.5832 76.4333 46.6842C76.4146 46.7259 76.3961 46.7677 76.3775 46.8096C76.6226 46.3518 76.8722 45.9127 77.1195 45.4936Z" fill="#1E1E1E"/>
</svg>
