<svg width="353" height="329" viewBox="0 0 353 329" fill="none" xmlns="http://www.w3.org/2000/svg">
<path d="M352.164 181.605C352.165 189.585 352.14 197.065 352.107 206.514C352.107 206.519 352.107 206.524 352.107 206.529C352.103 207.878 352.098 209.27 352.093 210.707C352.054 222.282 352.008 237.323 351.982 260.001C351.96 279.509 351.891 295.887 351.814 307.918C351.795 311.546 350.847 314.741 349.567 317.267C348.401 319.291 347.389 321.842 342.291 325.462C339.712 327.151 335.935 328.926 330.664 328.949C329.123 328.947 327.464 328.945 325.676 328.944C321.65 328.939 316.965 328.934 311.48 328.928C293.323 328.908 264.866 328.914 238.646 328.92C222.731 328.924 207.637 328.927 196.173 328.924C179.406 328.92 163.228 328.901 145.64 328.881C129.533 328.862 112.243 328.842 92.2378 328.83C76.8881 328.821 61.975 328.745 46.8198 328.66C44.8911 328.649 42.9541 328.638 41.0154 328.627C34.3395 328.589 27.5896 328.551 20.6641 328.516C13.4977 328.559 6.22155 324.442 2.63098 317.699C0.972182 314.633 0.166846 311.232 0.178389 307.918C0.223884 286.048 0.194941 267.476 0.16333 247.194C0.149137 238.087 0.134382 228.634 0.125609 218.383C0.111734 202.171 0.114536 178.864 0.118468 155.461C0.118802 153.468 0.11904 151.472 0.119383 149.481C0.119383 149.471 0.119383 149.461 0.119383 149.451C0.123075 128.029 0.126699 107.003 0.118651 91.5782C0.10586 67.0665 0.0756355 57.8441 0.0503503 50.1522C0.0408456 47.2608 0.0319694 44.584 0.025081 41.3928C0.0129145 35.7557 0.00782335 28.7097 0.00634074 20.918C-0.219252 12.5224 5.99238 3.41798 15.0914 1.0241C15.1582 1.00542 15.2252 0.987071 15.2922 0.96905C18.2198 0.173944 20.6871 0.362734 20.664 0.452576C20.6503 0.568469 18.2037 0.557029 15.3403 1.34508C6.19047 3.69395 0.154449 12.7627 0.381875 20.918C0.381903 21.0645 0.381933 21.2109 0.381964 21.3569C0.471048 21.7789 0.538483 23.9706 0.537791 26.5974C0.536075 33.1736 0.603191 53.315 0.712845 84.8374C0.729082 82.6782 0.744883 80.8696 0.759904 79.2848C0.777535 77.4245 0.792695 75.9995 0.805682 74.7742C0.832749 72.2203 0.850611 70.521 0.863728 67.5049C0.878639 60.5189 0.88174 49.539 0.884786 37.9847C0.885582 35.0672 0.970121 32.711 1.07376 32.724C1.17742 32.7382 1.26089 35.1171 1.26016 38.035C1.26016 38.0921 1.26016 38.1491 1.26016 38.2062C1.25715 49.65 1.25409 60.9823 1.23819 68.2802C1.23414 70.1368 1.22936 71.736 1.22501 72.9367C1.22153 73.8967 1.2168 75.095 1.21072 75.7609C1.20991 75.8493 1.20828 76.0179 1.20578 76.219C1.20572 76.2223 1.20566 76.2257 1.2056 76.2291C1.20421 76.3415 1.19722 76.9155 1.18197 77.5279C1.17889 77.6515 1.17202 77.9205 1.16092 78.2327C1.16006 78.3132 1.15921 78.3938 1.15835 78.4743C1.14649 79.5972 1.1344 80.743 1.12265 81.9831C1.07675 86.8251 1.01891 94.4947 0.957664 110.466C0.901332 125.156 0.876074 149.989 0.87563 180.974C0.883395 178.881 0.890924 176.783 0.898153 174.687C0.916321 169.411 0.932891 164.111 0.948691 158.809C0.954726 156.778 0.960637 154.774 0.966453 152.733C0.975858 149.446 0.98509 146.151 0.994103 142.856C1.0002 140.63 1.0062 138.399 1.01223 136.171C1.01223 136.165 1.01223 136.161 1.01223 136.155C1.0206 133.063 1.02902 129.962 1.03768 126.837C1.04091 125.744 1.044 124.663 1.04702 123.59C1.05905 119.32 1.07072 115.125 1.09335 110.295C1.0971 109.708 1.10195 109.07 1.10598 108.594C1.11024 108.082 1.11457 107.589 1.11898 107.124C1.12288 106.713 1.12684 106.321 1.13052 105.946C1.13101 105.895 1.1315 105.845 1.13199 105.795C1.13611 105.374 1.13992 104.973 1.14352 104.586C1.14712 104.201 1.15058 103.83 1.15359 103.464C1.15359 103.46 1.15359 103.457 1.15359 103.454C1.15668 103.072 1.15899 102.781 1.16165 102.376C1.16498 101.868 1.16753 101.431 1.17007 100.901C1.17254 100.389 1.17474 99.855 1.17666 99.3156C1.17858 98.7764 1.18026 98.227 1.18179 97.6694C1.18332 97.1116 1.18474 96.5445 1.186 95.973C1.18727 95.4019 1.18837 94.8231 1.18948 94.2412C1.1906 93.659 1.19171 93.0705 1.19278 92.4793C1.19525 91.1179 1.21606 89.8128 1.25137 88.8547C1.28669 87.8969 1.3334 87.3635 1.38175 87.3696C1.4301 87.3762 1.47657 87.9227 1.51139 88.8899C1.5462 89.8575 1.56639 91.1677 1.56815 92.5296C1.56863 92.9004 1.56916 93.2731 1.56962 93.6472C1.56989 93.8692 1.57009 94.0935 1.57035 94.3167C1.57105 94.917 1.57183 95.5237 1.57237 96.1341C1.5729 96.7439 1.57324 97.3593 1.57346 97.9816C1.57368 98.6056 1.57376 99.2381 1.57346 99.8794C1.57317 100.519 1.57255 101.173 1.57145 101.838C1.57041 102.486 1.56859 103.225 1.56632 103.887C1.56473 104.37 1.562 104.966 1.55955 105.462C1.55698 105.981 1.55411 106.491 1.55113 106.983C1.54813 107.476 1.54496 107.952 1.54197 108.407C1.54166 108.456 1.54136 108.505 1.54105 108.553C1.53841 108.956 1.53583 109.344 1.53355 109.711C1.53099 110.121 1.52881 110.51 1.52695 110.879C1.52487 111.286 1.52404 111.533 1.52311 111.836C1.51707 115.841 1.51832 120.792 1.51945 125.513C1.51959 126.107 1.51969 126.697 1.51981 127.28C1.5207 130.381 1.52181 133.476 1.52293 136.568C1.52374 138.816 1.52458 141.066 1.52531 143.319C1.52638 146.634 1.52724 149.96 1.52787 153.282C1.52824 155.345 1.52848 157.37 1.5286 159.428C1.52896 164.802 1.52846 170.194 1.52622 175.593C1.52398 180.984 1.52007 186.409 1.5134 191.838C1.50676 197.246 1.49683 202.865 1.48173 208.29C1.47044 212.278 1.45077 216.367 1.43046 220.15C1.41952 222.183 1.40842 224.174 1.39731 226.136C1.39725 226.142 1.39719 226.149 1.39713 226.156C1.38738 227.878 1.37773 229.578 1.36856 231.266C1.34882 234.884 1.33122 238.439 1.31638 241.993C1.30153 245.542 1.28942 249.076 1.28012 252.635C1.27091 256.168 1.26425 259.761 1.26016 263.318C1.25603 266.893 1.25436 270.403 1.25449 274.091C1.25485 278.94 1.2582 283.756 1.26218 288.7C1.26623 293.608 1.27132 298.555 1.27646 303.516C1.27799 304.981 1.27942 306.449 1.28093 307.918C1.28121 308.181 1.28671 308.442 1.29734 308.702C1.29759 308.709 1.29785 308.715 1.29812 308.722C1.42422 311.839 2.32048 314.925 3.89676 317.627C6.31489 321.808 10.3597 325.039 15.0137 326.439C16.8367 326.993 18.7452 327.274 20.6641 327.272C23.7241 327.27 26.7947 327.269 29.8749 327.268C34.9473 327.267 40.1569 327.268 45.3901 327.274C50.0586 327.279 54.7642 327.286 59.3649 327.293C60.5798 327.295 61.7947 327.297 63.0096 327.299C68.7742 327.307 74.3551 327.314 79.874 327.315C85.3888 327.317 90.8999 327.313 96.4615 327.305C102.006 327.297 107.621 327.285 113.281 327.27C118.965 327.255 124.576 327.238 130.301 327.22C135.982 327.201 141.69 327.181 147.467 327.16C150.679 327.148 154.096 327.138 157.324 327.129C160.584 327.119 163.823 327.111 167.02 327.104C168.318 327.101 169.609 327.098 170.891 327.095C172.761 327.09 174.615 327.086 176.439 327.082C179.518 327.074 182.522 327.066 185.44 327.057C188.357 327.047 191.188 327.036 193.922 327.023C196.753 327.009 199.086 326.995 201.876 326.975C208.672 326.936 212.883 326.924 217.563 326.911C218.484 326.908 219.426 326.905 220.407 326.902C226.018 326.887 231.624 326.876 237.156 326.867C242.741 326.859 248.24 326.853 253.809 326.85C259.324 326.846 264.879 326.846 270.411 326.847C275.935 326.848 281.45 326.852 286.979 326.858C292.503 326.864 298.142 326.872 303.556 326.882C306.685 326.888 310.008 326.896 313.096 326.903C315.323 326.909 317.518 326.915 319.67 326.921C320.549 326.923 321.423 326.926 322.288 326.928C325.162 326.936 327.959 326.943 330.664 326.949C330.763 326.949 330.861 326.948 330.959 326.947C333.628 326.914 336.193 326.321 338.494 325.282C340.8 324.241 342.846 322.762 344.54 320.955C346.276 319.068 347.457 317.235 348.441 314.698C349.067 313.04 349.446 311.328 349.592 309.605C349.639 309.043 349.661 308.483 349.659 307.918C349.651 305.789 349.644 303.667 349.636 301.533C349.625 298.81 349.615 296.121 349.604 293.418C349.601 292.549 349.597 291.631 349.593 290.76C349.582 288.067 349.571 285.405 349.559 282.746C349.546 280.091 349.534 277.461 349.52 274.842C349.507 272.212 349.493 269.626 349.477 266.989C349.451 262.506 349.439 258.216 349.431 254.459C349.423 250.657 349.419 247.104 349.415 243.645C349.414 242.998 349.413 242.35 349.412 241.702C349.409 238.913 349.406 236.169 349.402 233.466C349.397 230.135 349.392 226.865 349.385 223.584C349.379 220.332 349.371 217.048 349.362 213.813C349.353 210.548 349.343 207.426 349.331 204.062C349.319 200.735 349.303 197.355 349.286 193.651C349.27 189.981 349.252 186.129 349.237 182.229C349.222 178.332 349.209 174.374 349.199 170.444C349.189 166.506 349.181 162.555 349.175 158.659C349.17 154.742 349.167 150.848 349.165 146.975C349.164 143.11 349.164 139.118 349.166 135.381C349.168 129.331 349.173 123.307 349.177 117.273C349.182 111.273 349.187 105.253 349.192 99.246C349.198 93.2499 349.203 87.2471 349.209 81.254C349.215 75.2581 349.221 69.2631 349.227 63.2771C349.228 61.9531 349.23 60.6291 349.231 59.3051C349.236 54.6434 349.24 49.9821 349.245 45.3404C349.245 45.3085 349.245 45.2766 349.245 45.2448C349.251 39.2702 349.257 33.404 349.262 27.4793C349.263 25.3043 349.265 23.2146 349.266 21.0909C349.267 21.0333 349.267 20.9756 349.267 20.918C349.268 18.9903 348.978 17.1045 348.403 15.289C347.812 13.4192 346.922 11.6592 345.803 10.0978C344.672 8.51984 343.328 7.15485 341.799 6.01094C340.396 4.96588 338.863 4.10983 337.082 3.45398C336.919 3.39448 336.756 3.33733 336.592 3.28233C334.804 2.6759 332.691 2.31396 330.664 2.32089C330.447 2.32083 330.23 2.32076 330.016 2.32067C323.763 2.31771 317.669 2.31632 311.465 2.31646C305.257 2.31659 299.064 2.31821 292.818 2.32049C290.38 2.32136 287.929 2.32245 285.479 2.32342C281.666 2.32493 277.839 2.32645 274.001 2.32763C267.685 2.32959 261.356 2.33048 254.987 2.32928C248.641 2.32808 242.255 2.32469 235.897 2.31884C229.545 2.31301 223.137 2.30476 216.813 2.2943C209.767 2.28261 202.761 2.26969 195.725 2.25622C188.699 2.24272 181.67 2.22859 174.672 2.2141C167.648 2.19959 160.642 2.18469 153.634 2.16942C146.622 2.15415 139.614 2.13851 132.602 2.12255C128.405 2.11298 124.209 2.10325 120.011 2.09343C117.79 2.10224 115.661 2.11088 113.613 2.11907C98.4782 2.17958 87.5352 2.22323 73.0981 2.25329C71.7155 2.25784 70.5905 2.26432 69.2218 2.27215C68.9607 2.27364 68.6837 2.27513 68.4013 2.27672C66.6125 2.2868 64.5584 2.29734 61.7008 2.30401C56.0002 2.31731 47.2625 2.31442 35.9713 2.22674C33.1191 2.20459 31.3041 2.1046 31.9188 2.00334C32.351 1.93231 33.8659 1.87953 35.7146 1.86198C32.2991 1.84993 28.8928 1.83733 25.4953 1.82481C24.1391 1.81979 22.866 1.79649 21.9613 1.75944C21.0571 1.72237 20.5945 1.67476 20.6726 1.6265C20.7507 1.57822 21.3662 1.53294 22.3842 1.49997C23.4018 1.46704 24.737 1.4492 26.0994 1.44998C29.7134 1.45213 33.3152 1.45431 36.9177 1.45584C40.5233 1.45739 44.1118 1.4583 47.7109 1.45877C51.3091 1.45924 54.906 1.45918 58.5142 1.45877C62.1083 1.45834 65.7097 1.45764 69.3175 1.45657C72.9482 1.45553 76.5105 1.45407 80.1308 1.45254C82.2999 1.45161 84.4951 1.45069 86.65 1.44961C87.4532 1.44924 88.237 1.44874 89.0211 1.44833C89.662 1.448 90.3062 1.44773 90.9693 1.44742C97.9449 1.44374 104.987 1.43962 111.967 1.43515C118.979 1.4307 125.984 1.426 132.989 1.42105C139.998 1.4161 147.001 1.41083 154.007 1.40548C161.009 1.40013 168.008 1.3946 175.019 1.38882C182.005 1.38303 189.019 1.3771 196.017 1.37069C201.429 1.36574 206.796 1.36043 212.171 1.35476C214.288 1.34508 216.382 1.33592 218.449 1.32711C224.466 1.30146 230.491 1.26781 236.426 1.23446C225.862 1.25104 217.376 1.27694 209.297 1.30166C208.214 1.30498 207.138 1.3083 206.065 1.31155C195.115 1.34467 184.536 1.37271 170.307 1.36648C129.84 1.34877 106.376 1.33585 91.7546 1.31173C77.1363 1.28762 70.8552 1.25187 64.9931 1.18081C56.7099 1.08038 40.7227 1.02326 32.6891 1.02113C29.7707 1.02037 27.4151 0.935642 27.4284 0.831981C27.4425 0.728296 29.8205 0.644806 32.7394 0.645575C41.2223 0.647815 58.522 0.705875 68.3811 0.825389C72.7723 0.878629 77.822 0.912974 92.2178 0.936721C106.615 0.960468 129.863 0.973177 170.408 0.990922C184.125 0.996924 194.305 0.970223 205.139 0.937453C206.201 0.93424 207.271 0.93087 208.35 0.927565C208.357 0.927565 208.364 0.927565 208.371 0.927565C218.322 0.8971 229.158 0.863892 243.771 0.849194C275.024 0.817757 316.287 0.75894 330.664 0.721024C331.794 0.718306 332.754 0.807057 333.53 0.914283C335.642 1.20963 337.642 1.81172 339.599 2.76396C344.348 5.20457 350.58 10.1599 350.963 20.918C350.973 25.9754 350.984 31.9947 350.992 39.3548C350.998 44.2701 351.001 50.0275 351.003 56.3098C351.053 65.7375 351.1 74.8907 351.128 82.8498C351.152 89.719 351.196 96.0533 351.245 102.191C351.259 103.958 351.273 105.737 351.288 107.512C351.323 111.795 351.358 116.079 351.385 120.253C351.406 123.581 351.432 127.067 351.46 130.75C351.559 144.167 351.679 160.245 351.681 181.197C351.682 203.407 351.661 222.422 351.64 238.823C351.664 226.779 351.693 217.481 351.719 209.735C351.724 208.274 351.729 206.874 351.734 205.527C351.766 196.008 351.79 189.087 351.789 181.67C351.784 146.243 351.752 132.956 351.66 117.963C351.636 114.016 351.604 109.661 351.569 104.97C351.5 95.5936 351.42 84.8688 351.375 73.3454C351.333 62.6125 351.27 50.6088 351.204 37.8899C351.204 37.8848 351.204 37.8798 351.204 37.8748C351.191 35.3895 351.178 32.8748 351.165 30.3387C351.149 27.2275 351.133 24.0839 351.117 20.918C351.363 10.1439 341.51 0.276659 330.664 0.604034C328.416 0.61225 326.174 0.61996 323.939 0.627081C322.246 0.632478 320.217 0.639921 317.888 0.648505C304.446 0.698052 280.846 0.785032 252.027 0.729256C245.697 0.717003 239.119 0.691044 231.613 0.661322C229.327 0.65227 226.953 0.642758 224.475 0.633306C213.775 0.592504 200.776 0.549157 183.467 0.523074C169.182 0.501548 151.772 0.491225 133.694 0.480409C124.789 0.475081 115.722 0.469545 106.787 0.462647C79.7946 0.441812 55.0555 0.408762 30.3633 0.37567C30.3582 0.37567 30.3532 0.37567 30.3482 0.37567C27.4311 0.37176 25.1461 0.284455 25.2486 0.18084C25.3522 0.077278 27.7999 -0.00358576 30.7157 0.000292957C55.4225 0.0334048 80.086 0.0665041 106.988 0.0872705C115.788 0.0940634 124.784 0.0995386 133.654 0.104849C151.82 0.115725 169.471 0.126153 183.89 0.14788C201.493 0.174409 214.731 0.218581 225.577 0.259944C228.19 0.269906 230.646 0.279647 232.977 0.288875C240.4 0.318252 246.571 0.342808 252.575 0.354429C280.48 0.408434 303.187 0.324911 316.68 0.275325C319.073 0.26653 321.177 0.258877 322.968 0.253169C325.521 0.24503 328.088 0.236098 330.664 0.2265C341.657 -0.108654 351.737 9.87824 351.497 20.918C351.51 23.5558 351.523 26.1826 351.537 28.7932C351.55 31.2998 351.562 33.794 351.575 36.2689C351.575 36.2739 351.575 36.279 351.576 36.284C351.642 48.9997 351.705 61.2197 351.748 72.1523C351.792 83.2492 351.864 92.9269 351.931 101.98C351.967 106.837 352.002 111.515 352.03 116.136C352.128 132.041 352.159 146.064 352.164 181.605ZM40.9954 1.88011C48.0158 1.92716 53.7359 1.93708 57.9957 1.93394C54.378 1.92325 50.7689 1.91204 47.1572 1.90043C45.1015 1.89383 43.0482 1.88706 40.9954 1.88011ZM350.628 57.1706C350.621 56.0331 350.615 54.8872 350.609 53.7374C350.612 56.9117 350.615 60.0871 350.617 63.2569C350.621 67.1494 350.624 71.0411 350.627 74.9311C350.628 68.7456 350.629 62.7518 350.628 57.1706ZM351.305 181.247C351.304 161.488 351.194 146.722 351.095 133.408C351.067 129.573 351.039 125.855 351.015 122.177C351.005 120.651 350.995 119.127 350.983 117.59C350.977 126.539 350.971 134.764 350.966 141.498C350.95 161.59 350.918 173.026 350.89 183.075C350.882 185.982 350.874 188.776 350.867 191.628C350.88 193.987 350.893 196.436 350.904 198.912C350.919 202.378 350.934 206.125 350.947 209.69C350.959 213.269 350.971 216.906 350.98 220.478C350.99 224.08 350.998 227.648 351.005 231.201C351.012 234.544 351.017 237.875 351.023 241.098C351.023 241.283 351.023 241.467 351.023 241.652C351.029 245.059 351.035 248.373 351.042 251.418C351.05 254.518 351.059 257.095 351.073 259.382C351.091 262.238 351.107 265.168 351.123 268.066C351.138 270.967 351.153 273.855 351.166 276.735C351.18 279.621 351.192 282.478 351.204 285.343C351.208 286.27 351.212 287.239 351.216 288.157C351.217 288.581 351.219 289.004 351.221 289.426C351.222 283.821 351.224 278.002 351.227 271.988C351.232 263.299 351.244 254.023 351.257 243.791C351.28 226.336 351.307 206.099 351.305 181.247ZM295.617 328.508C298.054 328.507 301.622 328.504 306.224 328.501C307.312 328.5 308.46 328.499 309.662 328.498C309.634 328.498 309.605 328.498 309.577 328.497C306.596 328.488 303.844 328.48 300.873 328.472C295.577 328.458 290.433 328.446 285.237 328.436C280.02 328.426 274.819 328.418 269.611 328.411C264.395 328.405 259.164 328.4 253.98 328.397C248.745 328.394 243.584 328.393 238.374 328.395C236.714 328.395 235.05 328.396 233.385 328.397C237.101 328.406 240.959 328.414 245.034 328.422C248.289 328.429 251.683 328.436 255.253 328.444C256.619 328.447 258.273 328.452 260.202 328.457C267.847 328.48 279.842 328.515 295.617 328.508ZM191.823 328.5C190.614 328.503 189.412 328.505 188.224 328.507C184.841 328.512 181.544 328.515 178.312 328.517C176.041 328.519 173.797 328.52 171.586 328.521C170.653 328.522 169.72 328.523 168.797 328.523C167.25 328.524 165.715 328.525 164.191 328.526C174.882 328.538 185.332 328.546 196.223 328.549C196.367 328.549 196.511 328.549 196.656 328.549C195.008 328.532 193.397 328.516 191.823 328.5Z" fill="black"/>
</svg>
