<svg width="54" height="63" viewBox="0 0 54 63" fill="none" xmlns="http://www.w3.org/2000/svg">
<path d="M14.8259 22.463C14.8266 22.462 14.8272 22.4609 14.8279 22.4599C14.9366 22.2869 15.0543 22.0982 15.1629 21.751C15.1629 21.7509 15.163 21.7507 15.163 21.7505C15.1783 21.7007 15.1932 21.6475 15.2074 21.5906C15.3219 21.1325 15.3936 20.4172 15.2604 19.1752C15.213 18.7213 15.1665 18.2792 15.1348 17.8587C15.0716 17.0236 15.0639 16.3141 15.0924 15.8186C15.1003 15.6795 15.0969 15.5381 15.0775 15.1794C15.0654 14.9447 15.0467 14.626 15.0351 14.1635C15.0291 13.9178 15.0254 13.6302 15.0299 13.2942C15.0358 12.182 15.1405 10.4217 15.4747 8.83974C15.4825 8.80178 15.4903 8.76383 15.4983 8.7259C15.6763 7.8936 15.809 7.06686 15.7746 6.73852C15.7709 6.68628 15.7635 6.6512 15.7633 6.64819C15.8074 6.80546 15.9216 6.98247 16.0405 7.08504C16.1592 7.1906 16.2625 7.23501 16.33 7.25934C16.4662 7.30355 16.4963 7.2917 16.5065 7.29296C16.5202 7.28874 16.444 7.29598 16.4025 7.30835C16.0663 7.40728 15.6883 7.61536 15.3068 7.91136C14.6908 8.38958 14.0634 9.07929 13.4439 9.97193C12.9695 10.6583 12.4836 11.3316 12.0247 12.0447C11.9676 12.1332 11.9082 12.2284 11.8524 12.3181C11.6476 12.6503 11.4453 13.0011 11.2869 13.342C11.1889 13.5742 11.0737 13.7839 10.9101 14.001C10.8264 14.1094 10.7328 14.2201 10.5903 14.3349C10.4519 14.4395 10.2274 14.603 9.86235 14.5711C9.85768 14.5704 9.85301 14.5698 9.84834 14.5691C7.86256 13.9911 7.3004 12.8153 6.29142 11.8882C5.92487 11.5033 5.55231 11.1053 5.1457 10.6986C4.87067 10.4251 4.5421 10.1043 4.1739 9.82443C4.07073 9.74319 3.86516 9.67046 3.57681 9.62019C3.47774 9.60082 3.59453 9.64151 3.72148 9.55994C3.82507 9.48279 3.79067 9.48078 3.77438 9.53149C3.73007 9.63235 3.68413 9.83172 3.65367 10.0236C3.6371 10.1257 3.62278 10.2335 3.61038 10.3399C3.61032 10.3405 3.61025 10.341 3.61019 10.3415C3.60823 10.3584 3.60629 10.3755 3.60436 10.3929C3.44742 11.6499 3.26023 12.8107 3.15381 13.6902C2.97835 15.099 2.95617 15.6313 2.93518 16.0747C2.92772 16.2416 2.92146 16.3952 2.91045 16.5788C2.87211 17.2364 2.77011 18.2311 2.73996 19.2126C2.73987 19.2163 2.73978 19.22 2.7397 19.2237C2.73491 19.3878 2.63579 19.5152 2.5148 19.514C2.39387 19.5133 2.29681 19.3794 2.30173 19.2107C2.3172 18.6806 2.35435 18.1547 2.3895 17.6882C2.2878 17.6561 2.21951 17.523 2.2336 17.3709C2.26813 16.9924 2.29755 15.8205 2.41453 13.9859C2.37913 14.1082 2.34725 14.2091 2.31784 14.299C2.28335 14.4043 2.25532 14.4833 2.23117 14.5524C2.18085 14.6968 2.14786 14.7912 2.1109 14.9644C2.04349 15.3663 1.96348 16.0022 1.89262 16.6731C1.87462 16.8429 1.76358 16.9705 1.64327 16.9584C1.52294 16.9464 1.43908 16.7977 1.45717 16.6264C1.4575 16.6231 1.45784 16.6197 1.45817 16.6164C1.52895 15.9468 1.61168 15.2872 1.68297 14.8654C1.70113 14.7579 1.71836 14.6662 1.73227 14.5971C1.74342 14.5417 1.75781 14.4727 1.76983 14.435C1.77142 14.43 1.77457 14.4205 1.77897 14.4092C1.77907 14.409 1.77916 14.4089 1.77926 14.4087C1.7817 14.4024 1.79409 14.3702 1.81631 14.3371C1.8208 14.3304 1.83076 14.3159 1.84595 14.2996C1.84754 14.2951 1.84913 14.2906 1.85074 14.286C1.87299 14.2223 1.89569 14.1576 1.91874 14.0877C2.009 13.8141 2.13445 13.3798 2.33516 12.4692C2.44741 11.9489 2.59192 11.2013 2.71382 10.2974C2.74781 10.0296 2.78543 9.75113 2.86664 9.44897C2.91155 9.29656 2.95489 9.13812 3.08393 8.96164C3.14818 8.87521 3.26263 8.77689 3.40248 8.74427C3.54075 8.71101 3.65381 8.7336 3.73578 8.74763C3.79205 8.75796 3.8495 8.76915 3.90783 8.78186C3.85079 8.76521 3.794 8.75001 3.73795 8.73572C3.66788 8.71891 3.57648 8.69597 3.45527 8.70779C3.13282 8.74307 2.97791 9.01829 2.9035 9.17183C2.82195 9.34509 2.77497 9.50708 2.73302 9.66818C2.70155 9.79155 2.67578 9.91163 2.6523 10.0349C2.63651 10.1171 2.62187 10.2006 2.60808 10.286C2.59118 10.3855 2.57173 10.4945 2.55191 10.6023C2.52889 10.7265 2.50481 10.8537 2.48028 10.9814C2.48024 10.9817 2.4802 10.982 2.48016 10.9822C2.44649 11.1567 2.41111 11.3384 2.37637 11.5124C2.36376 11.5749 2.35112 11.6385 2.33914 11.6979C2.28994 11.9453 2.24289 12.1792 2.17704 12.4568C2.168 12.4896 2.15724 12.5254 2.14872 12.5522C2.13965 12.5809 2.13063 12.6088 2.12173 12.6351C2.11388 12.6584 2.10609 12.6806 2.09875 12.702C2.09777 12.7049 2.09679 12.7078 2.09581 12.7106C2.0877 12.7338 2.08008 12.7562 2.07283 12.7777C2.06558 12.7992 2.05859 12.82 2.05217 12.8405C2.05214 12.8407 2.05212 12.8409 2.05209 12.8411C2.04545 12.8627 2.04043 12.8791 2.03409 12.9021C2.02613 12.9311 2.01963 12.9561 2.01239 12.9867C2.00533 13.0165 1.99866 13.0459 1.99212 13.0768C1.98562 13.1074 1.9793 13.1388 1.97308 13.1708C1.96686 13.2028 1.96068 13.2355 1.95463 13.2687C1.94857 13.3019 1.94273 13.335 1.93688 13.3682C1.93101 13.4014 1.92509 13.4352 1.91919 13.4692C1.90564 13.5473 1.87111 13.6213 1.82295 13.6702C1.77468 13.7198 1.71652 13.7435 1.66067 13.7356C1.60481 13.7277 1.55533 13.6888 1.52259 13.6276C1.48977 13.5672 1.47698 13.4861 1.48567 13.4071C1.48805 13.3856 1.49038 13.3639 1.4928 13.3423C1.49423 13.3294 1.49577 13.3165 1.49723 13.3036C1.50113 13.2691 1.50507 13.2337 1.50937 13.1978C1.51366 13.1621 1.5182 13.1263 1.52292 13.0902C1.52766 13.054 1.53262 13.0176 1.53806 12.9808C1.54343 12.9446 1.54954 12.9059 1.5562 12.8675C1.56266 12.8298 1.57074 12.7873 1.57869 12.7495C1.58443 12.7219 1.59236 12.6882 1.59917 12.6603C1.60623 12.6315 1.61387 12.6011 1.62132 12.5732C1.62882 12.5449 1.63637 12.5178 1.64352 12.492C1.64427 12.4892 1.64502 12.4865 1.64577 12.4837C1.65209 12.4609 1.65821 12.439 1.66381 12.4184C1.67008 12.3953 1.67571 12.3736 1.68082 12.3529C1.68661 12.3294 1.68961 12.3151 1.69318 12.2975C1.73268 12.0683 1.77222 11.7802 1.80897 11.5107C1.81372 11.4759 1.81842 11.4418 1.82298 11.4084C1.8466 11.2334 1.87078 11.0512 1.89293 10.8789C1.9097 10.7487 1.92581 10.6203 1.94028 10.4993C1.95229 10.3992 1.96322 10.3036 1.97191 10.2178C1.98248 10.115 1.99408 10.015 2.00817 9.91093C2.02641 9.77699 2.04806 9.64012 2.07804 9.49367C2.12003 9.30013 2.16195 9.10123 2.28602 8.8255C2.35284 8.68833 2.43641 8.51546 2.65163 8.31312C2.85553 8.10301 3.29119 7.95196 3.54278 7.96857C3.70242 7.96927 3.80589 7.99065 3.87156 8.00237C4.16824 8.06136 4.54816 8.14137 4.95297 8.38641C5.02194 8.42875 5.09117 8.47636 5.15897 8.52959C5.40849 8.72911 5.63419 8.943 5.83686 9.15561C6.01111 9.33879 6.17317 9.53562 6.3147 9.718C6.39159 9.81692 6.46349 9.91251 6.53456 10.0083C6.53478 10.0086 6.535 10.009 6.53523 10.0093C6.59681 10.0925 6.65727 10.1752 6.71675 10.2565C6.84413 10.4308 6.96834 10.6005 7.0934 10.7665C7.21832 10.9325 7.34394 11.0948 7.47247 11.2538C7.60054 11.4121 7.73205 11.5683 7.86603 11.7189C7.99985 11.8693 8.13511 12.0135 8.27868 12.1567C8.46791 12.3449 8.66184 12.5217 8.86287 12.6828C9.06241 12.8424 9.26695 12.9833 9.46548 13.0852C9.53532 13.1211 9.60274 13.1514 9.66817 13.1759C9.66842 13.176 9.66867 13.1761 9.66892 13.1762C9.78571 13.2199 9.89281 13.2433 9.98499 13.248C9.97033 13.2465 9.95576 13.2457 9.94153 13.2455C9.64218 13.2769 9.70399 13.3397 9.72691 13.2817C9.76125 13.2367 9.81081 13.1523 9.8499 13.0635C9.87521 13.0066 9.89802 12.9462 9.91578 12.8886C9.98505 12.6721 10.0595 12.4752 10.1404 12.2756C10.2585 11.9858 10.3896 11.6974 10.5337 11.4142C10.6622 11.1615 10.7971 10.9144 10.936 10.6717C10.972 10.6089 11.0086 10.5457 11.0459 10.482C11.2215 10.1826 11.3979 9.89522 11.574 9.61226C11.7498 9.33028 11.9285 9.04796 12.114 8.76519C12.299 8.48336 12.4923 8.1991 12.6978 7.91678C12.9046 7.6329 13.1194 7.35604 13.3554 7.08132C13.5904 6.80823 13.8439 6.54005 14.1281 6.28308C14.2858 6.14044 14.4652 5.99498 14.6474 5.8661C14.8305 5.73632 15.025 5.61586 15.2313 5.50901C15.3154 5.46546 15.3985 5.42549 15.4867 5.3866C15.5709 5.34949 15.656 5.31513 15.7416 5.28366C15.7965 5.26396 15.8504 5.24656 15.9046 5.23083C16.1799 5.16059 16.421 5.08804 16.8779 5.15976C17.015 5.18758 17.1851 5.23307 17.3858 5.36756C17.5849 5.49554 17.7941 5.75895 17.8691 6.01865C17.9101 6.13679 17.9385 6.24611 17.9608 6.34837C18.0147 6.60355 18.0332 6.78884 18.0523 6.99825C18.0783 7.50108 18.0444 7.76463 18.0146 8.0637C18.0081 8.1226 18.0015 8.18109 17.9943 8.24227C17.9518 8.58292 17.8976 8.9102 17.8397 9.22751C17.8385 9.23452 17.8372 9.24151 17.836 9.2485C17.7822 9.54882 17.7336 9.84467 17.6891 10.1437C17.6449 10.4411 17.605 10.7406 17.5702 11.0391C17.5355 11.3376 17.5055 11.6369 17.4802 11.937C17.4549 12.2368 17.434 12.5445 17.4182 12.8409C17.409 13.0118 17.3999 13.1941 17.3928 13.3643C17.3877 13.4858 17.3833 13.6084 17.3799 13.7263C17.3785 13.7751 17.3773 13.8235 17.3763 13.8713C17.3729 14.0358 17.3718 14.1963 17.3742 14.3525C17.3765 14.5074 17.382 14.6586 17.3916 14.8062C17.4011 14.9537 17.4147 15.0988 17.4324 15.2428C17.451 15.393 17.4696 15.5174 17.4978 15.6755C17.5165 15.7796 17.5352 15.8798 17.5546 15.9815C17.5835 16.1329 17.6135 16.2834 17.6449 16.4354C17.6762 16.5871 17.7083 16.7372 17.7417 16.8888C17.7524 16.9376 17.7638 16.989 17.7748 17.0376C17.8076 17.1841 17.8409 17.3289 17.8749 17.4734C17.8762 17.4787 17.8774 17.4839 17.8787 17.4892C17.9137 17.6361 17.9502 17.7847 17.9875 17.933C18.0251 18.0828 18.063 18.231 18.1025 18.3847C18.1695 18.6454 18.2174 18.903 18.2535 19.1329C18.2899 19.3657 18.3174 19.5879 18.34 19.8081C18.3442 19.8494 18.3483 19.8908 18.3522 19.9323C18.3689 20.1112 18.3823 20.2902 18.3923 20.4691C18.4046 20.6897 18.412 20.9113 18.4124 21.1384C18.4127 21.3632 18.4059 21.5968 18.389 21.832C18.3719 22.0694 18.3461 22.3028 18.3023 22.5602C18.2583 22.8147 18.2016 23.0801 18.1086 23.3752C18.0165 23.6671 17.8886 23.9773 17.7175 24.2791C17.7094 24.2934 17.7012 24.3076 17.6929 24.3219C17.584 24.5199 17.4708 24.7171 17.3517 24.9135C17.2248 25.1225 17.0978 25.3222 16.963 25.5238C16.8308 25.7218 16.6914 25.9209 16.5526 26.1112C16.4111 26.3052 16.262 26.5012 16.1203 26.6801C15.8879 26.9738 15.6501 27.2609 15.404 27.5448C15.1583 27.828 14.9058 28.106 14.6434 28.3802C14.3815 28.6536 14.1107 28.922 13.8286 29.184C13.5461 29.4463 13.253 29.7017 12.9442 29.9488C12.8764 30.0031 12.807 30.0576 12.7372 30.1113C12.4919 30.3 12.2372 30.4827 11.9687 30.6579C11.9669 30.6591 11.965 30.6602 11.9632 30.6614C11.619 30.8855 11.2612 31.0923 10.8701 31.2794C10.7275 31.3475 10.5852 31.4105 10.4375 31.4707C10.2911 31.5303 10.1396 31.5866 9.98557 31.6376C9.83288 31.6883 9.67049 31.736 9.51177 31.7759C9.35043 31.8165 9.18604 31.8511 9.01981 31.879C9.01391 31.8799 9.008 31.8809 9.00208 31.8819C8.70983 31.9305 8.37608 31.9225 8.08106 31.8584C8.05306 31.8525 8.02567 31.8463 7.99886 31.8397C7.67238 31.7596 7.42462 31.6361 7.2708 31.5573C7.18107 31.5105 7.11202 31.4727 7.05504 31.4426C6.82433 31.3209 6.57832 31.1977 6.3248 31.071C5.99964 30.9087 5.66729 30.7437 5.33015 30.5706C5.19713 30.5023 5.06603 30.4343 4.93242 30.3636C4.7261 30.2545 4.51738 30.1411 4.30904 30.0234C3.96567 29.8293 3.62196 29.6227 3.27878 29.3956C2.93687 29.1691 2.59509 28.922 2.26103 28.6458C1.92745 28.3696 1.59636 28.0611 1.28564 27.7058C0.940954 27.3091 0.611755 26.8544 0.357685 26.2849C0.119838 25.7542 -0.0316197 25.1069 0.00603235 24.457C0.00770879 24.4326 0.00941193 24.4083 0.0111412 24.3839C0.0413213 23.958 0.0793862 23.5361 0.124095 23.1157C0.168848 22.6951 0.220175 22.2773 0.277456 21.8601C0.311721 21.6107 0.348151 21.362 0.386603 21.1133C0.390563 20.9812 0.395007 20.8517 0.399579 20.7295C0.435617 19.821 0.476703 19.1664 0.583875 18.3018C0.59204 18.2207 0.596407 18.1498 0.60138 18.0672C0.602343 18.0514 0.603468 18.0346 0.604541 18.0176C0.610945 17.9122 0.621331 17.7823 0.644402 17.6138C0.693243 17.269 0.790583 16.7533 1.0601 16.0761C1.12811 15.9077 1.27419 15.8161 1.3774 15.887C1.45042 15.9348 1.48447 16.0471 1.47721 16.1621C1.54266 15.9575 1.60962 15.7579 1.69875 15.5282C1.73502 15.435 1.7962 15.3454 1.86764 15.2864C1.94475 15.2134 2.02011 15.1909 2.06606 15.2242C2.11304 15.2559 2.12863 15.3434 2.13481 15.433C2.14061 15.5224 2.13101 15.6141 2.10254 15.7012C2.03007 15.9238 1.9731 16.1355 1.91946 16.3483C1.86715 16.5566 1.81895 16.7685 1.77436 16.9775C1.73004 17.1852 1.68823 17.3962 1.64902 17.6058C1.60985 17.8154 1.57258 18.027 1.53807 18.2345C1.50249 18.4482 1.47018 18.6552 1.43895 18.8648C1.4199 18.9927 1.40168 19.1187 1.38407 19.2453C1.37749 19.2923 1.37118 19.3391 1.36509 19.384C1.36006 19.4211 1.35495 19.4586 1.34976 19.4973C1.29553 19.9046 1.24646 20.3167 1.20337 20.7258C1.16015 21.136 1.12236 21.5466 1.0903 21.9582C1.05822 22.3701 1.03206 22.7818 1.01214 23.1945C0.992261 23.6071 0.978769 24.0199 0.972873 24.4343C0.972635 24.4512 0.97241 24.4681 0.972198 24.485C0.96282 24.9739 1.09439 25.4529 1.30006 25.8609C1.46558 26.1913 1.67259 26.4799 1.89749 26.7409C1.99381 26.8392 2.08887 26.9293 2.18669 27.0173C2.46887 27.2704 2.77228 27.4855 3.07686 27.6783C2.56771 27.2964 2.16989 26.9482 1.83113 26.559C1.78535 26.5061 1.74109 26.4527 1.69835 26.3987C1.32875 25.9217 0.984557 25.3281 0.996576 24.4857C0.999256 24.3798 1.00317 24.2704 1.00849 24.1571C1.13367 21.7735 1.35823 20.4128 1.4999 19.5655C1.65024 18.7221 1.75807 18.3627 1.89893 18.0397C2.09709 17.5832 2.34719 16.6815 2.47326 16.2254C2.51663 16.062 2.65225 15.9547 2.76795 15.9901C2.88292 16.0277 2.93785 16.183 2.89642 16.339C2.76738 16.8052 2.5059 17.7641 2.27298 18.3063C2.16893 18.549 2.0761 18.8297 1.92921 19.6541C1.79143 20.4805 1.57008 21.8194 1.4461 24.1798C1.44094 24.2898 1.43716 24.3958 1.43458 24.4984C1.42475 25.1742 1.69515 25.6726 2.0244 26.1031C2.06236 26.1518 2.10173 26.1998 2.14286 26.2481C2.1431 26.2484 2.14334 26.2487 2.14357 26.249C2.52293 26.6895 3.00459 27.0984 3.6941 27.5837C5.03449 28.535 6.98884 29.3715 7.90638 29.7987C8.08206 29.8815 8.20981 29.9396 8.29228 29.9664C8.39448 30.0008 8.48602 30.0178 8.57249 30.0148C8.61753 30.0133 8.66156 30.0066 8.70806 29.9939C9.10887 29.8888 9.64092 29.7349 10.5472 29.1509C10.7765 29.0011 11.0372 28.8173 11.3156 28.5996C11.6978 28.2295 12.0426 27.8438 12.3408 27.5083C12.5981 27.2187 12.8081 26.9239 12.9988 26.6308C13.054 26.5461 13.1081 26.4604 13.1613 26.3747C13.291 26.1666 13.4168 25.9567 13.5416 25.7572C13.6429 25.5959 13.7422 25.4257 13.8458 25.2435C14.2228 24.5786 14.6473 23.7741 15.287 22.7884C15.2917 22.7813 15.2962 22.7742 15.3007 22.7672C15.7347 22.1023 15.7954 21.1203 15.7703 20.271C15.7794 20.9073 15.7164 21.3599 15.632 21.6979C15.6161 21.7613 15.5993 21.8214 15.5823 21.8769C15.4587 22.2701 15.3285 22.4858 15.1951 22.6986C15.195 22.6987 15.195 22.6987 15.1949 22.6988C14.1092 24.3569 13.6579 24.9367 13.2135 25.6488C13.0941 25.8347 12.9653 26.042 12.8223 26.262C12.5362 26.7017 12.1918 27.1961 11.7587 27.6603C11.3554 28.0914 10.8928 28.5622 10.3502 28.9814C10.35 28.9816 10.3497 28.9817 10.3495 28.9818C10.2443 29.0631 10.1334 29.1436 10.0225 29.2191C9.61493 29.4958 9.16429 29.7303 8.68621 29.8537C8.53803 29.92 8.28856 29.8315 7.9663 29.6829C7.93068 29.6675 7.89441 29.6517 7.85752 29.6357C7.76262 29.5942 7.65691 29.5505 7.52903 29.4976C6.80799 29.1914 5.50788 28.7129 4.16273 27.7416C3.87072 27.5269 3.58353 27.2819 3.28398 26.9833C3.19354 26.8928 3.10053 26.7955 3.00905 26.694C2.62617 26.2551 2.1284 25.6709 2.00558 24.8636C1.99081 24.7505 1.98571 24.6348 1.99278 24.5146C2.03096 23.7893 2.09055 22.9565 2.17941 22.099C2.23201 21.5896 2.29459 21.0716 2.36604 20.5628C2.5865 19.0309 2.85233 17.6073 3.23448 16.2941C3.23455 16.2939 3.23463 16.2936 3.2347 16.2933C3.28101 16.1417 3.41358 16.0661 3.52682 16.1087C3.63886 16.1547 3.69643 16.2813 3.65164 16.4288C3.28318 17.6964 3.01564 19.1193 2.79922 20.6283C2.72953 21.1248 2.66794 21.634 2.61596 22.1364C2.52816 22.9821 2.46875 23.8085 2.4309 24.5273C2.42441 24.6224 2.42791 24.7139 2.43975 24.8053C2.52775 25.4368 2.98079 26.0047 3.34959 26.4161C3.44149 26.5172 3.53165 26.6106 3.62069 26.6987C3.90402 26.978 4.16422 27.199 4.4325 27.396C5.69614 28.3077 6.93547 28.7704 7.66163 29.077C7.78814 29.1289 7.90698 29.1787 8.00384 29.2206C8.05994 29.245 8.11491 29.2688 8.16867 29.2922C8.33359 29.3654 8.47395 29.4264 8.55201 29.4408C8.63497 29.4559 8.61851 29.43 8.61828 29.4175C9.00783 29.3104 9.39232 29.1132 9.75265 28.8706C9.85705 28.8006 9.95585 28.729 10.0565 28.6524C10.0567 28.6522 10.0569 28.652 10.0571 28.6518C10.5662 28.2624 11.022 27.8038 11.4193 27.3801C11.8232 26.9482 12.1273 26.5139 12.3992 26.1C12.5453 25.8774 12.6815 25.6605 12.819 25.4471C13.2829 24.7077 13.7512 24.1044 14.8259 22.463ZM1.3809 16.4764C1.23231 16.8823 1.15478 17.219 1.11008 17.4724C1.16326 17.2597 1.2185 17.0496 1.2772 16.8379C1.31052 16.7177 1.3455 16.595 1.3809 16.4764ZM11.623 28.9151C11.5752 28.9614 11.5266 29.0077 11.4769 29.0542C11.6235 28.9396 11.7669 28.8218 11.9072 28.7012C12.0796 28.5531 12.2478 28.4006 12.4128 28.2442C12.1456 28.4876 11.8797 28.7129 11.623 28.9151ZM15.6557 23.0251C15.0442 23.9669 14.6489 24.7193 14.2728 25.3884C14.1643 25.5808 14.0555 25.7675 13.9436 25.9472C13.8965 26.0225 13.8508 26.0974 13.8047 26.1732C14.14 25.7854 14.437 25.418 14.6756 25.1129C15.3486 24.2476 15.7405 23.7129 16.07 23.2672C16.085 23.247 16.0995 23.2268 16.1137 23.2066C16.2028 23.0794 16.2794 22.9491 16.3476 22.81C16.3843 22.6862 16.4155 22.5565 16.4419 22.4242C16.4788 22.2391 16.506 22.0365 16.5219 21.8419C16.5381 21.6467 16.5449 21.4464 16.5448 21.2493C16.5448 21.0504 16.538 20.8522 16.5262 20.6542C16.5151 20.4678 16.4996 20.2817 16.4808 20.101C16.4797 20.0906 16.4786 20.0803 16.4775 20.0699C16.4571 19.8789 16.433 19.6927 16.4057 19.5215C16.3778 19.3473 16.3493 19.2026 16.3166 19.0749C16.2759 18.9154 16.234 18.7515 16.1928 18.5886C16.1517 18.426 16.1109 18.2621 16.0714 18.099C16.0424 17.9786 16.0141 17.8589 15.9866 17.739C15.9765 17.6954 15.9665 17.6516 15.9566 17.6075C15.9446 17.5544 15.9322 17.4988 15.9205 17.4465C15.9152 17.4224 15.9097 17.3981 15.9044 17.3739C15.9207 17.4955 15.9374 17.6197 15.954 17.7435C15.9821 17.9534 16.0114 18.1661 16.0401 18.3816C16.106 18.8795 16.1658 19.4051 16.1962 19.9715C16.2348 20.9141 16.2536 22.0731 15.6681 23.006C15.6641 23.0123 15.6599 23.0187 15.6557 23.0251ZM15.5331 12.3373C15.5289 12.4846 15.5259 12.6988 15.5285 12.9748C15.5291 13.0404 15.5302 13.1093 15.5315 13.181C15.5316 13.1793 15.5316 13.1776 15.5317 13.1759C15.5424 12.9975 15.5537 12.8326 15.5665 12.6541C15.5893 12.3374 15.6165 12.0299 15.6489 11.7195C15.6815 11.4086 15.7189 11.0996 15.7617 10.79C15.8045 10.4809 15.8525 10.1718 15.9053 9.8655C15.9582 9.55813 16.0161 9.25278 16.0781 8.94884C16.0845 8.91741 16.091 8.88588 16.0975 8.85428C16.1108 8.79031 16.1235 8.72736 16.1361 8.66383C16.1197 8.72575 16.1034 8.78786 16.0865 8.85192C16.0459 9.00795 16.0074 9.16553 15.9689 9.33355C15.9253 9.52288 15.8823 9.72261 15.8396 9.93266C15.8232 10.0136 15.8029 10.1095 15.78 10.2239C15.6903 10.6743 15.5606 11.3887 15.5331 12.3373ZM16.2445 6.54267C16.2405 6.53016 16.2362 6.51822 16.2321 6.50802C16.2539 6.59621 16.3256 6.69817 16.3872 6.74513C16.5329 6.84786 16.5378 6.81273 16.5144 6.82103C16.4895 6.8219 16.4369 6.82752 16.3841 6.83921C16.3427 6.84811 16.299 6.86028 16.2606 6.87371C16.218 6.88833 16.1754 6.90418 16.1328 6.92126C16.0925 6.93742 16.0522 6.95475 16.0131 6.97259C15.9475 7.00245 15.8802 7.0363 15.8168 7.07089C15.9674 6.99711 16.1185 6.93664 16.2666 6.89202C16.3477 6.86762 16.4527 6.8525 16.5024 6.85502C16.5251 6.85445 16.536 6.8647 16.4787 6.8474C16.4336 6.84211 16.232 6.71463 16.1829 6.52275C16.1944 6.5642 16.2054 6.62768 16.2111 6.70266C16.2116 6.70836 16.2121 6.71399 16.2125 6.71969C16.2269 6.65285 16.2372 6.59257 16.2445 6.54267Z" fill="#1E1E1E"/>
<path d="M34.7666 47.5753C35.2083 48.4907 35.6037 49.3969 36.0454 50.0583C36.0463 50.0776 36.1426 50.1924 36.3677 50.3328C36.3682 50.3331 36.3687 50.3334 36.3692 50.3337C36.5 50.4168 36.6677 50.5084 36.8788 50.6175C36.9822 50.6712 37.0967 50.7295 37.2279 50.7995C37.1511 50.7642 36.9577 50.6819 36.6584 50.7135C36.3515 50.7429 36.1013 50.9201 36.0294 50.9992C35.8755 51.1765 35.9859 51.0826 36.0357 50.9343C36.1631 50.6245 36.2879 50.0861 36.3821 49.5001C36.5757 48.3035 36.6879 46.8133 36.8042 45.0077C36.8782 43.9171 36.9411 42.8853 37.096 41.8264C37.145 41.5028 37.2456 41.0872 37.5561 40.6644C37.8606 40.2352 38.3773 39.956 38.6914 39.8639C39.268 39.6562 40.1865 39.6836 40.8273 40.2301C42.9278 42.3484 42.8194 44.1593 43.1798 45.2955C43.2205 45.4805 43.2641 45.669 43.3304 45.9122C43.388 46.1309 43.5157 46.5285 43.5918 46.6547C43.5919 46.6549 43.592 46.6551 43.5921 46.6553C43.6608 46.7906 44.0206 47.1251 44.7573 47.3636C44.5544 47.2893 44.2619 47.3406 44.1578 47.4032C44.0424 47.4636 44.0306 47.4941 44.0325 47.4902C44.0358 47.4879 44.0561 47.4631 44.0743 47.4334C44.1646 47.3316 44.2746 46.7444 44.2291 46.0461C44.1265 44.0354 43.3038 40.9285 42.7172 37.6744C42.4935 36.4386 42.2842 35.1621 42.1642 33.8879C42.0123 32.2788 41.996 30.7649 41.9541 29.3994C41.9834 27.9114 42.4596 27.041 42.8028 26.2057C43.7361 24.1732 44.8514 22.4271 45.9136 20.5971C46.2668 19.9885 46.6191 19.3117 46.9856 18.6251C47.5273 17.6068 48.1008 16.547 48.7451 15.4576C49.4472 14.2191 49.9321 12.4148 50.4111 10.5499C50.6793 9.48344 50.9396 8.42272 51.2036 7.3626C51.5377 6.0283 51.6933 4.6714 51.5493 3.32768C51.5173 3.02911 51.4708 2.73255 51.4086 2.43583C51.3651 2.22757 51.3134 2.01773 51.2549 1.80902C51.2206 1.6811 51.178 1.56497 51.1474 1.50368C51.1121 1.43365 51.1299 1.48316 51.2306 1.50651C51.4085 1.52615 51.2631 1.49783 51.1586 1.53767C51.0391 1.57037 50.8982 1.62395 50.7533 1.68591C50.4622 1.81095 50.157 1.96555 49.8488 2.12716C49.2322 2.45204 48.6004 2.80759 47.9497 3.16488C47.6682 3.31831 47.3786 3.51919 47.0974 3.7375C44.6891 5.72862 42.9826 7.989 41.2393 10.1376C40.6167 10.9187 40.1362 11.8035 39.7322 12.7759C39.2667 13.8956 38.8831 15.1185 38.4629 16.4227C38.3668 16.7224 38.2749 17.0285 38.1868 17.3413C37.5692 19.4862 37.0519 22.5181 36.7502 25.7423C36.6904 26.5978 36.1436 27.4373 35.4806 27.8979C35.1548 28.1369 34.8079 28.3174 34.4623 28.4627C34.4605 28.4634 34.4587 28.4642 34.4569 28.4649C32.1684 29.3438 29.9071 29.2799 27.9459 29.3626C26.6761 29.4004 25.5088 29.4331 24.4797 29.4633C20.3115 29.5828 18.7475 29.6574 17.4508 29.7363C16.9615 29.7663 16.516 29.7951 15.9801 29.8353C15.7657 29.8517 15.5222 29.8713 15.2888 29.8957C15.1707 29.9081 15.0525 29.9218 14.9391 29.9388C14.8499 29.9478 14.6664 29.9986 14.7582 29.9685C13.2723 30.6256 11.5984 30.734 9.93952 31.0656L10.0139 31.0475C9.6895 31.1428 9.33026 31.2663 8.94191 31.3651C8.75966 31.4118 8.58033 31.4523 8.40245 31.4897C8.3907 31.4922 8.37915 31.4946 8.36744 31.497C7.85942 31.6018 7.44273 31.5693 7.42432 31.4505C7.40675 31.33 7.79135 31.1688 8.28605 31.0664C8.46816 31.0284 8.65028 30.9875 8.83233 30.9409C9.20266 30.8469 9.55328 30.7264 9.88893 30.6275L9.85707 30.6353C10.8351 30.4485 11.794 30.3149 12.6928 30.1337C12.7442 30.0165 13.0972 29.8695 13.5341 29.7512C13.764 29.6873 14.0949 29.5913 14.5008 29.402C15.9965 29.0813 19.1041 29.025 23.3172 28.7994C22.9458 28.7897 22.6417 28.7789 22.3706 28.7681C22.059 28.7553 21.808 28.7439 21.6045 28.7339C21.1652 28.7134 20.8789 28.6998 20.3653 28.698C19.1755 28.7184 17.3142 28.7363 15.3349 28.8758C14.8374 28.9112 14.402 28.8971 14.3096 28.815C14.3204 28.6663 14.8049 28.4726 15.3068 28.4387C15.3167 28.4379 15.3267 28.437 15.3368 28.4362C17.3282 28.298 19.2402 28.2781 20.4872 28.2577C20.7985 28.2543 21.077 28.2528 21.2777 28.2528C21.4407 28.2527 21.6474 28.253 21.7586 28.2573C21.7735 28.2579 21.8021 28.2591 21.8363 28.2612C21.8369 28.2612 21.8374 28.2613 21.838 28.2613C21.8571 28.2625 21.9548 28.2682 22.0605 28.2833C22.0815 28.2864 22.1292 28.2932 22.1815 28.3049C22.1951 28.3055 22.2086 28.3062 22.2222 28.3068C22.4105 28.316 22.6098 28.3251 22.8194 28.3336C23.6406 28.3659 24.952 28.4037 27.6628 28.3972C27.7455 28.397 27.8303 28.3966 27.9174 28.3961C28.9834 28.3862 30.3318 28.3958 31.883 28.1907C33.3076 27.9617 35.6171 27.593 35.8666 25.6569C35.9392 24.9199 36.0216 24.1571 36.1208 23.3721C36.067 23.7255 36.0164 24.0801 35.9686 24.4347C35.9141 24.8396 35.8632 25.2456 35.8149 25.652C35.764 26.0865 35.5792 26.4741 35.2813 26.7834C35.0737 27.0007 34.8209 27.1783 34.5403 27.328C34.088 27.5682 33.5754 27.7317 33.0525 27.8528C32.6982 27.9345 32.3353 27.9969 31.9696 28.0461C31.9688 28.0462 31.968 28.0463 31.9672 28.0465C31.4598 28.1145 30.944 28.1578 30.422 28.1867C30.2387 28.1966 30.0586 28.2046 29.8779 28.2113C29.246 28.2349 28.617 28.2408 27.9127 28.2402C27.8192 28.2402 27.7246 28.2401 27.629 28.2398C27.529 28.2384 27.4207 28.2359 27.3402 28.2335C27.254 28.231 27.1701 28.2283 27.0902 28.2254C27.0198 28.2229 26.953 28.2202 26.8891 28.2177C26.8805 28.2173 26.8719 28.217 26.8634 28.2167C26.7919 28.2139 26.7238 28.2113 26.6585 28.209C26.5931 28.2066 26.5312 28.2043 26.4679 28.2025C26.4674 28.2025 26.4668 28.2025 26.4662 28.2025C26.4007 28.2008 26.3511 28.1994 26.282 28.1982C26.1953 28.1967 26.1211 28.1958 26.0315 28.1952C25.9447 28.1947 25.8556 28.1945 25.7624 28.1948C25.6701 28.195 25.5764 28.1956 25.4818 28.1963C25.3871 28.1971 25.2916 28.1979 25.1952 28.199C25.0971 28.2001 24.9982 28.2014 24.8992 28.2027C24.8002 28.204 24.7007 28.2053 24.6012 28.2066C24.3687 28.2097 24.1454 28.1911 23.9836 28.154C23.8202 28.117 23.7264 28.0648 23.7263 28.0084C23.7256 27.952 23.8192 27.8954 23.9819 27.8506C24.1431 27.8059 24.3663 27.7766 24.5984 27.7686C24.6607 27.7664 24.7236 27.7642 24.7869 27.762C24.8245 27.7607 24.8625 27.7595 24.9005 27.7582C25.0024 27.7547 25.1066 27.751 25.2106 27.7477C25.313 27.7444 25.417 27.7412 25.5226 27.7381C25.6286 27.735 25.7365 27.7321 25.8466 27.7294C25.9541 27.7269 26.0645 27.7246 26.1773 27.7228C26.2873 27.721 26.4138 27.7196 26.5269 27.7192C26.6082 27.7188 26.7088 27.7191 26.793 27.7196C26.8809 27.7202 26.9677 27.7211 27.0518 27.7222C27.136 27.7233 27.2179 27.7246 27.2942 27.7259C27.3024 27.726 27.3106 27.7262 27.3189 27.7263C27.3868 27.7274 27.4526 27.7285 27.5149 27.7294C27.5846 27.7303 27.6507 27.731 27.7137 27.7313C27.783 27.7317 27.8253 27.7314 27.8772 27.731C27.884 27.7308 27.8908 27.7307 27.8977 27.7306C28.577 27.7175 29.396 27.6946 30.1632 27.6415C30.2604 27.6348 30.3575 27.6277 30.4524 27.6202C30.9585 27.58 31.4569 27.5255 31.9413 27.4475C32.2929 27.3908 32.6386 27.3213 32.9696 27.2343C33.454 27.1071 33.9151 26.9387 34.2816 26.7212C34.5084 26.5869 34.6911 26.4381 34.8225 26.2805C34.9935 26.0733 35.0819 25.8626 35.1107 25.5839C35.1556 25.1238 35.2042 24.6615 35.2577 24.1985C35.3643 23.2766 35.4913 22.3459 35.6476 21.4182C35.8031 20.4936 35.9957 19.5345 36.2253 18.6152C36.3938 17.9393 36.5976 17.2517 36.8115 16.6222C36.888 16.3967 36.9667 16.1749 37.0475 15.9569C37.0873 15.8498 37.1259 15.7466 37.1652 15.6414C37.1656 15.6403 37.166 15.6392 37.1665 15.6381C37.2689 15.3642 37.3717 15.0899 37.4741 14.8195C37.6943 14.2388 37.9147 13.666 38.1531 13.0919C38.3913 12.5193 38.6469 11.9474 38.9439 11.3824C39.238 10.8218 39.5798 10.2634 39.9668 9.74492C40.0655 9.61247 40.1663 9.48319 40.2703 9.35567C40.5568 9.00474 40.8428 8.65391 41.1405 8.29032C41.6639 7.65073 42.1893 7.01277 42.7376 6.36767C43.284 5.72538 43.8444 5.08427 44.4339 4.45638C44.64 4.23707 44.8498 4.01971 45.0658 3.80381C45.0666 3.80298 45.0674 3.80216 45.0683 3.80134C45.4657 3.40478 45.8836 3.0115 46.3378 2.64341C46.6236 2.4129 46.9257 2.18936 47.2637 1.98892C47.6965 1.73271 48.1294 1.47161 48.5697 1.21026C49.3667 0.787879 49.8732 0.275334 51.2073 0.00357789C51.3243 -0.00368977 51.4621 -0.00482124 51.6401 0.0435644C52.066 0.161064 52.326 0.479102 52.4582 0.697521C52.5977 0.928464 52.6716 1.13108 52.7363 1.32675C52.8935 1.81025 53.0209 2.31796 53.1062 2.82965C53.2483 3.67287 53.2823 4.53426 53.2328 5.362C53.2199 5.57986 53.2012 5.79962 53.1774 6.01545C53.1124 6.60704 53.0113 7.17726 52.8838 7.73559C52.793 8.1325 52.703 8.52545 52.6132 8.9163C52.4021 9.83355 52.1902 10.7525 51.9607 11.6806C51.731 12.6042 51.4864 13.5444 51.1751 14.4929C50.9619 15.1303 50.7328 15.7624 50.3782 16.4076C50.2254 16.6837 50.0748 16.9624 49.9255 17.2445C49.4793 18.0871 49.0535 18.9468 48.6218 19.829C48.3805 20.3203 48.1237 20.8435 47.8581 21.3465C47.8093 21.4387 47.7589 21.5325 47.7084 21.6246C47.4889 22.0249 47.2683 22.4186 47.0509 22.8064C46.9429 22.9989 46.8356 23.1899 46.7297 23.3794C46.5751 23.6558 46.4232 23.929 46.2757 24.198C46.0268 24.6521 45.7901 25.0953 45.5717 25.5267C45.3532 25.9583 45.1525 26.3791 44.9778 26.7854C44.7984 27.2049 44.6644 27.554 44.5393 27.9618C44.337 28.5969 44.2652 29.0679 44.286 29.3371C44.3002 29.6235 44.3124 29.8877 44.3256 30.1692C44.3329 30.3254 44.3405 30.4826 44.3488 30.6503C44.3938 31.5976 44.4401 32.5264 44.5269 33.4227C44.6134 34.3287 44.7424 35.2168 44.8964 36.1312C44.9585 36.5004 45.0243 36.8721 45.0923 37.2462C45.1903 37.7843 45.2945 38.3243 45.4018 38.8645C45.5828 39.776 45.774 40.6903 45.9588 41.6186C46.1426 42.546 46.3261 43.5045 46.4562 44.4625C46.531 45.0197 46.5928 45.6179 46.6006 46.2209C46.6043 46.6545 46.5868 47.0998 46.4853 47.5901C46.4423 47.7925 46.3852 47.9979 46.2971 48.2156C46.2424 48.3505 46.1726 48.4939 46.0899 48.6297C45.9556 48.8443 45.81 49.0524 45.5336 49.281C45.2941 49.4953 44.6632 49.8028 44.0495 49.5888C43.9408 49.5527 43.8331 49.514 43.7265 49.4726C43.1916 49.2618 42.6689 48.9954 42.1801 48.5606C41.9837 48.3837 41.7946 48.1754 41.6332 47.9275C41.3873 47.5353 41.2929 47.243 41.1889 46.958C41.0204 46.4677 40.9178 46.0983 40.7749 45.6342C40.6832 45.3344 40.5936 45.0485 40.4997 44.7719C40.3594 44.3584 40.2096 43.9652 40.0387 43.6048C39.8683 43.2453 39.6783 42.9254 39.4735 42.6791C39.4078 42.5999 39.3375 42.5251 39.2705 42.4633C39.22 42.4166 39.1694 42.3751 39.1198 42.3391C39.3069 42.5048 39.5455 42.4858 39.5768 42.4746C39.569 42.4798 39.598 42.4737 39.6435 42.4476C39.7216 42.4069 39.8182 42.3004 39.8486 42.242C39.8831 42.1814 39.881 42.1726 39.8824 42.2013C39.8674 42.3593 39.854 42.5358 39.8434 42.7088C39.8177 43.1289 39.8033 43.5569 39.7923 43.9986C39.7744 44.7469 39.7497 45.48 39.7206 46.122C39.6912 46.773 39.6563 47.3868 39.6119 47.9899C39.6035 48.1036 39.5947 48.2169 39.5856 48.3297C39.5458 48.8195 39.4985 49.3054 39.4363 49.7925C39.3565 50.3965 39.2667 50.9981 39.0753 51.6702C38.9693 52.0158 38.864 52.3675 38.5697 52.833C38.4114 53.0657 38.2097 53.3469 37.7688 53.6074C37.3458 53.8717 36.6639 53.9384 36.2305 53.8038C36.0661 53.7603 35.917 53.7007 35.7817 53.6329C35.4057 53.4483 34.864 53.2433 34.2431 52.8084C33.9622 52.6076 33.6609 52.35 33.3905 51.9916C33.1245 51.6421 32.9051 51.2957 32.6949 50.9396C32.3426 50.3398 32.0341 49.7341 31.7321 49.1442C31.4312 48.5556 31.1382 47.9798 30.8387 47.4631C30.5429 46.9498 30.2189 46.4774 29.9529 46.2209C29.8136 46.0822 29.7024 46.0263 29.6984 46.0299C29.4819 45.9496 29.2499 45.879 29.0129 45.8201C28.5038 45.693 27.9502 45.6181 27.4316 45.5987C26.5904 45.5661 25.7498 45.6677 24.9415 45.9005C24.392 46.0587 23.8592 46.2763 23.3456 46.5509C23.0707 46.6982 22.802 46.8459 22.5432 46.9954C21.7324 47.4619 20.9983 47.9686 20.5676 48.4739C20.3004 48.7863 20.157 49.0663 20.0894 49.3775C20.0385 49.6209 19.9877 50.023 19.9453 50.3881C19.9211 50.5971 19.8965 50.8244 19.8737 51.0406C19.7914 51.8237 19.7145 52.6123 19.6288 53.408C19.6282 53.4135 19.6276 53.4189 19.627 53.4244C19.5165 54.4493 19.3976 55.4609 19.2388 56.4986C19.18 56.8809 19.1186 57.2477 19.0469 57.6276C18.9753 58.006 18.898 58.3768 18.7997 58.7725C18.7021 59.1619 18.5903 59.5597 18.4295 59.9831C18.2441 60.4134 18.1307 60.8484 17.4946 61.4928C17.1977 61.7814 16.5938 62.1483 15.8812 62.1088C15.5174 62.089 15.2661 62.0059 15.0127 61.8883C14.7916 61.7818 14.6273 61.669 14.4662 61.5382C14.4632 61.5358 14.4603 61.5334 14.4573 61.531C14.3848 61.4711 14.3206 61.4109 14.2625 61.3512C13.6257 60.6276 13.5354 60.1974 13.3372 59.7513C12.9109 58.6316 12.6375 57.6529 12.3104 56.6693C11.9894 55.6915 11.6536 54.7468 11.2527 53.8835C11.0959 53.5465 10.9288 53.2234 10.7524 52.9288C10.4777 52.468 10.1705 52.0732 9.88179 51.8328C9.80623 51.7694 9.73196 51.7162 9.66424 51.6753C9.72494 51.7108 9.77211 51.7331 9.87875 51.7496C9.98018 51.7624 10.1774 51.7719 10.4358 51.6377C10.0588 51.8377 9.89021 51.9953 9.64371 52.3222C9.45817 52.5771 9.28676 52.9002 9.13965 53.2619C8.93894 53.7551 8.76944 54.2506 8.63148 54.7534C8.36364 55.692 8.28075 56.5722 8.04217 57.8401C7.92367 58.4043 7.69174 59.2182 7.09278 59.8889C6.48286 60.5353 6.02447 61.0055 5.16042 61.582C4.90593 61.7172 4.73641 61.9064 3.99275 62.0212C3.80178 62.0384 3.52912 62.046 3.18418 61.9253C2.8485 61.8137 2.5021 61.5337 2.3268 61.266C1.98128 60.7194 2.01078 60.4198 1.98888 60.1797C1.98077 59.0849 2.1456 58.2527 2.27668 57.4032C2.47571 56.2063 2.67788 55.0682 2.81367 53.9338C2.84487 53.6753 2.8729 53.4172 2.89716 53.1597C2.96974 52.3523 2.98136 51.4132 3.01532 50.4896C3.03969 49.7688 3.07005 49.0472 3.11165 48.3201C3.11734 47.9333 3.12518 47.5685 3.13559 47.2121C3.17584 45.8507 3.24468 44.6861 3.3394 43.5328C3.42561 42.4832 3.51235 41.451 3.6148 40.2731C3.63295 40.0412 3.64485 39.8477 3.65881 39.6171C3.66147 39.5731 3.66438 39.5266 3.66725 39.4793C3.68602 39.1735 3.70824 38.8265 3.74766 38.345C3.82581 37.3819 3.97478 35.9064 4.23903 34.0175C4.30534 33.541 4.44522 33.246 4.55488 33.3585C4.63161 33.4388 4.67242 33.6997 4.66674 34.0099C4.72895 33.4376 4.79014 32.8657 4.84112 32.3037C4.86136 32.0794 4.89937 31.8736 4.94622 31.7421C4.99308 31.6021 5.04534 31.6018 5.10234 31.6018C5.15807 31.5831 5.21463 31.6521 5.24657 31.8187C5.27897 31.9825 5.28696 32.2054 5.27101 32.4317C5.22795 33.0362 5.17517 33.6457 5.12152 34.254C5.06779 34.8602 5.01188 35.4685 4.95499 36.0769C4.89806 36.6853 4.84027 37.2929 4.78164 37.9024C4.72324 38.5094 4.66393 39.1178 4.60395 39.7281C4.54348 40.3431 4.48401 40.9442 4.42278 41.5557C4.38586 41.9247 4.34846 42.2952 4.31183 42.6576C4.29813 42.7929 4.28465 42.9271 4.27124 43.0593C4.26033 43.1668 4.24921 43.2754 4.23774 43.3877C4.22971 43.4666 4.22163 43.5458 4.21351 43.6253C4.09982 44.7377 4.01048 45.8605 3.94865 46.9742C3.88112 48.1775 3.84746 49.3737 3.83237 50.5713C3.81773 51.4696 3.82576 52.3757 3.76889 53.2278C3.74798 53.5147 3.72259 53.8018 3.6935 54.0888C3.57649 55.2545 3.39271 56.4179 3.21997 57.6053C3.10825 58.4227 2.97654 59.2391 3.00034 60.1455C3.0127 60.2936 3.0082 60.4692 3.18714 60.7195C3.38223 60.9946 3.78288 61.0368 3.94308 60.9969C4.29883 60.9254 4.46622 60.7961 4.65363 60.6794C5.30613 60.2226 5.78229 59.7373 6.28283 59.1836C6.4672 58.9705 6.61206 58.7246 6.7153 58.4772C6.87331 58.0744 6.93698 57.6901 6.98949 57.3276C7.1214 56.2801 7.20137 55.305 7.43175 54.3435C6.91576 56.035 7.24302 57.4635 6.37158 58.9645C6.32853 59.0263 6.28389 59.0846 6.23541 59.1423C6.14878 59.2451 6.06308 59.3396 5.97705 59.4327C5.64736 59.786 5.31183 60.1197 4.91734 60.4382C4.71531 60.5957 4.51506 60.7539 4.20627 60.8878C4.04926 60.9364 3.83433 61.0733 3.4309 60.89C3.2364 60.785 3.13198 60.607 3.08623 60.4737C3.0427 60.3477 3.0318 60.2442 3.02701 60.1446C2.9952 59.0593 3.18559 58.016 3.36699 56.8152C3.57378 55.5129 3.74235 54.327 3.83021 53.2326C3.94828 48.6883 4.11283 45.6312 4.36891 43.6417C4.37301 43.6066 4.37708 43.5719 4.38111 43.5375C4.66925 41.0711 4.81587 40.0102 4.99688 39.0301C5.25379 37.6392 5.57671 34.9387 5.68649 33.5822C5.72795 33.0839 5.85406 32.7004 5.97492 32.7053C6.09506 32.7219 6.16419 33.1258 6.12249 33.6264C6.00606 35.0653 5.65975 37.9885 5.3524 39.6445C5.21571 40.3808 5.09225 41.2289 4.80787 43.6622C4.80687 43.6707 4.80587 43.6793 4.80487 43.6878C4.55339 45.6484 4.38831 48.6097 4.26707 53.2668C4.1777 54.3813 4.00583 55.5869 3.79745 56.8987C3.61584 58.0919 3.43331 59.1305 3.4655 60.1298C3.47367 60.2508 3.4887 60.3933 3.6153 60.4888C3.74778 60.5756 3.88771 60.5353 3.99642 60.4984C4.21922 60.4135 4.40159 60.2805 4.57862 60.1458C4.93013 59.8712 5.24498 59.5648 5.55214 59.2431C5.67169 59.1168 5.79004 58.9883 5.90372 58.8534C5.90847 58.8477 5.91319 58.842 5.91787 58.8363C5.91861 58.8354 5.91936 58.8345 5.92011 58.8337C6.89428 57.3903 6.43172 55.3618 7.38219 53.03C7.43298 52.8898 7.48248 52.7587 7.53811 52.6175C7.91698 51.6412 8.56637 50.61 9.61053 50.0882C9.93667 49.9204 10.3015 50.0069 10.5824 50.1714C14.2442 53.4082 14.4554 58.588 15.3131 59.5902C15.4146 59.7818 15.5421 59.9827 15.6638 60.0753C15.7508 60.1425 15.8201 60.1799 15.8944 60.2002C16.2196 60.3499 16.6401 59.4488 16.8574 58.4794C17.1021 57.4605 17.3005 56.1042 17.4946 54.2131C17.58 53.386 17.6684 52.412 17.7673 51.3473C17.8192 50.5374 17.848 49.7599 17.9683 48.9531C18.1084 48.096 18.5601 47.3524 19.0548 46.8073C19.9249 45.8594 20.8813 45.252 21.7776 44.6745C21.9133 44.5886 22.0496 44.5036 22.1867 44.4191C22.3198 44.3376 22.4502 44.2611 22.5871 44.185C23.2687 43.8051 24.0023 43.4973 24.7461 43.2883C25.3379 43.1215 25.9771 42.9939 26.6609 42.9295C27.8698 42.8214 29.2237 42.8776 30.706 43.3742C32.8488 44.371 33.3601 46.1323 34.2278 47.7557C34.7061 48.7513 35.1467 49.7096 35.6184 50.3692C35.7651 50.6033 36.307 50.893 37.0063 51.2336C36.9861 51.2249 36.9254 51.1938 36.7991 51.1887C36.6796 51.1812 36.5172 51.23 36.4416 51.2799C36.2839 51.3893 36.3444 51.3798 36.3776 51.3041C36.4667 51.1452 36.5675 50.833 36.6396 50.5282C36.7887 49.8987 36.8784 49.2255 36.9523 48.5715C36.8522 49.4258 36.729 50.185 36.5571 50.7678C36.4773 51.0487 36.3555 51.3074 36.3157 51.3411C36.2998 51.3634 36.3388 51.2619 36.5638 51.1816C36.8031 51.1023 37.0035 51.1791 37.028 51.1912C36.8444 51.0932 36.6872 51.0145 36.5461 50.9398C36.3429 50.8328 36.1754 50.7363 36.0426 50.6451C35.8469 50.512 35.7358 50.3934 35.6899 50.3172C35.1838 49.5546 34.8091 48.6654 34.3764 47.7743C33.4294 45.9632 32.8986 44.1896 30.7765 43.1884C27.8939 42.2317 26.0484 42.5615 24.249 43.0855C23.5332 43.3159 22.7721 43.6532 22.0184 44.1095C22.0184 44.1095 22.0184 44.1095 22.0184 44.1095C20.6941 44.9964 18.7458 45.8913 17.8068 48.2406C17.7346 48.4489 17.6779 48.6658 17.639 48.8872C17.399 50.6994 17.3836 52.4849 17.2211 54.4315C17.221 54.4323 17.2209 54.4332 17.2208 54.434C17.1883 54.8524 17.1519 55.2746 17.1095 55.6986C17.0159 56.6183 16.9007 57.558 16.6994 58.4565C16.525 59.297 16.0768 60.4558 15.7532 59.9674C15.3879 59.628 15.0894 58.7626 14.8345 58.0719C14.7386 57.8043 14.6247 57.4783 14.4949 57.1046C13.7911 55.5366 13.4654 52.436 10.6255 50.1007C10.3325 49.9282 9.94809 49.8193 9.56727 50.007C8.87061 50.349 8.26053 50.9602 7.84578 51.6684C7.67613 51.9515 7.52861 52.2484 7.3958 52.5603C7.08384 53.2928 6.80499 54.0852 6.58967 54.9779C6.49653 55.362 6.41544 55.7673 6.34206 56.1862C6.17951 56.9906 6.14415 57.9787 5.59565 58.5851C5.29436 58.9072 4.92716 59.2577 4.54026 59.5723C4.34676 59.7279 4.13653 59.8831 3.94375 59.9797C3.85926 60.0304 3.73181 60.038 3.82194 60.0364C3.87615 60.0358 3.97939 60.1269 3.98199 60.1524C3.99364 60.1788 3.98317 60.1538 3.98385 60.1123C3.97815 59.8155 4.00154 59.4897 4.03727 59.1549C4.22958 57.4736 4.66463 55.4739 4.83858 53.3115C4.90564 52.438 4.90602 51.5793 4.92747 50.7111C4.95792 49.2023 5.02075 47.6746 5.13884 46.1709C5.20268 45.3493 5.27987 44.5459 5.36957 43.7476C5.77553 40.1053 6.15856 36.692 6.46866 33.2445C6.46873 33.2437 6.46879 33.2428 6.46886 33.2419C6.51213 32.7468 6.6386 32.3555 6.7578 32.3846C6.87778 32.4052 6.94451 32.8395 6.90053 33.3396C6.58943 36.7825 6.20869 40.1765 5.80533 43.7937C5.71486 44.5982 5.63713 45.4088 5.57322 46.236C5.45827 47.7082 5.39602 49.2129 5.36567 50.712C5.34397 51.5799 5.34466 52.4371 5.27538 53.3456C5.0975 55.5613 4.64729 57.6155 4.46678 59.2631C4.43605 59.5642 4.4177 59.8494 4.42224 60.0975C4.41872 60.1028 4.43134 60.0848 4.37904 59.9658C4.34648 59.8513 4.08476 59.6178 3.90464 59.6056C3.58174 59.5841 3.69634 59.632 3.74113 59.5904C3.87601 59.5256 4.07789 59.3815 4.25734 59.2365C4.61947 58.9436 4.98765 58.5916 5.26421 58.2965C5.6926 57.874 5.77033 56.7973 5.94016 55.932C6.02169 55.4814 6.11351 55.0522 6.21747 54.6494C6.43556 53.8028 6.70111 53.0702 6.98808 52.3962C7.14228 52.0342 7.31539 51.6901 7.5209 51.359C7.95741 50.6339 8.63871 49.9739 9.3614 49.6205C9.96626 49.3317 10.4644 49.5047 10.8536 49.727C13.8965 52.2283 14.1175 55.1801 14.8473 56.777C14.9812 57.1626 15.0973 57.4972 15.1977 57.7809C15.3335 58.1641 15.473 58.544 15.6257 58.8986C15.7026 59.0764 15.7799 59.2407 15.8635 59.3885C15.9376 59.5272 16.05 59.6577 16.0346 59.6279C16.0769 59.6596 16.1001 59.661 16.0707 59.6464C16.0482 59.6312 15.9386 59.6169 15.8704 59.6393C15.7275 59.6968 15.8215 59.6597 15.8793 59.5349C16.0186 59.2829 16.1463 58.8748 16.2417 58.4731C16.4359 57.6505 16.5511 56.7666 16.6446 55.8944C16.6884 55.48 16.726 55.065 16.7596 54.6523C16.7596 54.6515 16.7597 54.6506 16.7597 54.6498C16.9368 52.6267 16.944 50.7827 17.2064 48.8006C17.2336 48.6487 17.2681 48.4992 17.3096 48.3527C18.1774 45.7792 20.0686 44.8902 21.353 43.9946C21.5051 43.8991 21.655 43.8066 21.8044 43.7158C22.4403 43.3329 23.1015 43.0178 23.7851 42.7738C25.7677 42.1285 27.81 41.7424 30.9319 42.7787C33.359 43.9532 33.8047 45.7843 34.7666 47.5753ZM4.56832 34.8997C4.4084 36.0772 4.30424 37.0412 4.23839 37.7608C4.30993 37.1514 4.38083 36.5435 4.45063 35.9351C4.48982 35.5946 4.52995 35.2402 4.56832 34.8997ZM18.2171 51.2427C18.2056 51.4369 18.1945 51.6309 18.1832 51.8263C18.2309 51.2887 18.2774 50.7539 18.3321 50.2169C18.3729 49.8283 18.4141 49.4297 18.484 49.0563C18.5346 48.7951 18.6164 48.5405 18.7268 48.2985C18.6137 48.5419 18.5305 48.7965 18.4787 49.0552C18.344 49.797 18.2867 50.5466 18.2171 51.2427ZM33.8363 47.9527C32.9844 46.3102 32.3848 44.6075 30.5488 43.7884C29.3505 43.3892 28.2172 43.2949 27.1562 43.3428C26.47 43.3764 25.8128 43.4776 25.1787 43.6342C24.9149 43.6994 24.6577 43.7755 24.3994 43.8641C25.9228 43.4283 27.4064 43.4169 28.5779 43.5958C29.2646 43.6994 29.8865 43.8672 30.4378 44.0811C31.7012 44.6751 32.109 45.6701 32.5478 46.3938C32.9554 47.1509 33.2484 47.818 33.5339 48.442C33.7387 48.8921 33.9345 49.3215 34.1496 49.75C34.347 50.0944 34.5585 50.4433 34.797 50.7696C34.8289 50.8131 34.8611 50.8557 34.8934 50.8972C35.1752 51.26 35.6536 51.5195 36.1385 51.7439C36.2971 51.818 36.4609 51.8909 36.6294 51.9721C36.7723 52.0307 36.7971 52.0192 36.8772 51.9636C36.9597 51.8994 37.055 51.7497 37.1287 51.5784C37.3376 51.0837 37.4417 50.4928 37.5286 49.9109C37.6078 49.3606 37.6619 48.8044 37.7053 48.2641C37.7078 48.2327 37.7102 48.202 37.7126 48.1713C37.7569 47.599 37.7891 47.0398 37.8129 46.5246C37.8369 45.9994 37.8507 45.563 37.8569 45.173C37.8646 44.6861 37.8737 44.1862 37.8891 43.69C37.9049 43.1928 37.9253 42.6967 37.9682 42.1888C37.9754 42.1058 37.983 42.0251 37.991 41.9468C38.0175 41.7178 38.0781 41.451 38.257 41.1912C38.4321 40.928 38.7363 40.7456 38.9644 40.669C39.0652 40.6328 39.172 40.6052 39.2851 40.5894C39.5459 40.5501 39.8741 40.5883 40.1447 40.7423C40.206 40.7765 40.2645 40.8155 40.3188 40.8582C40.3539 40.8854 40.3885 40.9132 40.4224 40.9415C40.3892 40.9124 40.3553 40.8838 40.3208 40.8558C39.9161 40.5173 39.3448 40.5026 38.9558 40.6435C38.7261 40.7151 38.4117 40.8938 38.2246 41.1621C38.0339 41.4267 37.9643 41.7026 37.931 41.9387C37.8824 42.2946 37.848 42.6479 37.8171 43.0083C37.6921 44.5041 37.6248 46.0778 37.4711 47.7897C37.3986 48.5755 37.312 49.3951 37.157 50.2061C37.0787 50.6069 36.9797 51.0215 36.8392 51.3537C36.776 51.5106 36.6748 51.6569 36.6561 51.6634C36.6464 51.6688 36.6941 51.6323 36.7566 51.6276C36.8164 51.6221 36.8369 51.6397 36.8072 51.6237C36.1386 51.2905 35.5287 51.0049 35.2643 50.6271C34.7538 49.911 34.317 48.951 33.8363 47.9527ZM44.3572 43.4359C44.4325 43.8362 44.5481 44.4262 44.6475 45.1732C44.6704 45.3486 44.6922 45.5347 44.7098 45.7276C44.7095 45.723 44.7091 45.7183 44.7088 45.7137C44.6777 45.2318 44.6237 44.7836 44.5527 44.2939C44.4243 43.4211 44.2627 42.5664 44.0954 41.7017C43.9264 40.8313 43.7519 39.9633 43.5856 39.0893C43.4894 38.5841 43.3957 38.0764 43.3071 37.5681C43.2421 37.1952 43.1792 36.8236 43.1195 36.4521C42.9773 35.568 42.8537 34.6814 42.7701 33.7838C42.7432 33.4978 42.7202 33.2107 42.7005 32.924C42.7308 33.5649 42.7843 34.233 42.8651 34.9327C42.9294 35.4924 43.0095 36.0698 43.1019 36.6773C43.1369 36.9073 43.1802 37.1908 43.2318 37.5151C43.2352 37.5364 43.2386 37.5579 43.2421 37.5798C43.4396 38.8784 43.8483 40.8785 44.3572 43.4359ZM43.5792 25.7183C43.6702 25.5265 43.7624 25.339 43.855 25.1556C44.1203 24.6308 44.3913 24.1323 44.662 23.6475C44.8521 23.3074 45.0425 22.9738 45.2305 22.6465C45.3098 22.5084 45.3892 22.3705 45.4676 22.2344C45.5993 22.0061 45.7296 21.78 45.8583 21.556C44.9388 23.1208 43.9986 24.6444 43.1987 26.3932C43.1881 26.4167 43.1777 26.4403 43.1672 26.4639C43.3031 26.2049 43.4417 25.956 43.5792 25.7183Z" fill="#1E1E1E"/>
</svg>
